<svg width="36" height="36" viewBox="0 0 36 36" fill="none" xmlns="http://www.w3.org/2000/svg">
<g clip-path="url(#clip0_286_243)">
<path fill-rule="evenodd" clip-rule="evenodd" d="M16.5888 2.80642C17.4632 2.30672 18.5368 2.30672 19.4112 2.80642L30.5668 9.18103C31.4531 9.68746 32 10.6299 32 11.6507V24.3493C32 25.3701 31.4531 26.3125 30.5668 26.819L19.4112 33.1936C18.5368 33.6933 17.4632 33.6933 16.5888 33.1936L5.4332 26.819C4.54695 26.3125 4 25.3701 4 24.3493V11.6507C4 10.6299 4.54695 9.68746 5.4332 9.18103L16.5888 2.80642Z" fill="url(#paint0_linear_286_243)"/>
<path d="M19.151 4.29684C18.426 3.90105 17.5328 3.90105 16.8079 4.29684L6.17156 10.1148C5.4466 10.5105 5 11.242 5 12.0336L5 23.6695C5 24.4611 5.4466 25.1925 6.17156 25.5883L16.8249 31.7032C17.5498 32.0989 18.443 32.0989 19.168 31.7032L29.8284 25.5883C30.5534 25.1925 31 24.4611 31 23.6695V12.0336C31 11.242 30.5534 10.5105 29.8284 10.1148L19.151 4.29684Z" fill="url(#paint1_linear_286_243)" fill-opacity="0.7"/>
<path d="M16.83 5.33398C16.83 5.33398 14.833 6.48694 14 6.96787L16.83 5.33398Z" fill="url(#paint2_linear_286_243)"/>
<path d="M16.83 5.33398C16.83 5.33398 14.833 6.48694 14 6.96787" stroke="white" stroke-opacity="0.28" stroke-width="0.711111" stroke-linecap="round"/>
<g filter="url(#filter0_d_286_243)">
<g filter="url(#filter1_d_286_243)">
<path fill-rule="evenodd" clip-rule="evenodd" d="M17.3488 7.35023C17.7554 7.13155 18.2446 7.13155 18.6512 7.35023L27.2762 11.9886C27.722 12.2283 28 12.6935 28 13.1996V22.8004C28 23.3065 27.722 23.7717 27.2762 24.0114L18.6512 28.6498C18.2446 28.8685 17.7554 28.8685 17.3488 28.6498L8.72376 24.0114C8.27802 23.7717 8 23.3065 8 22.8004V13.1996C8 12.6935 8.27802 12.2283 8.72375 11.9886L17.3488 7.35023Z" fill="url(#paint3_linear_286_243)"/>
</g>
</g>
<g opacity="0.4">
<path d="M23 27.6838C25.095 26.4654 26.5794 25.6021 27.4532 25.0939L23 27.6838Z" fill="url(#paint4_linear_286_243)"/>
<path d="M23 27.6838C25.095 26.4654 26.5794 25.6021 27.4532 25.0939" stroke="white" stroke-opacity="0.62" stroke-width="0.711111" stroke-linecap="round"/>
</g>
<g filter="url(#filter2_d_286_243)">
<path d="M12.4166 22.75C12.3815 22.75 12.3454 22.7396 12.3073 22.7136L12.3 22.706L12.2887 22.6932L12.2848 22.6901L12.2803 22.6854L12.2791 22.6848C12.278 22.6836 12.2768 22.6822 12.2754 22.6807C12.2743 22.6791 12.2729 22.6773 12.2716 22.6756C12.2698 22.6733 12.2679 22.6707 12.2656 22.668L12.263 22.6639L12.2562 22.6531L12.2562 22.6531L12.2554 22.6518C12.2523 22.6469 12.2495 22.6418 12.2432 22.629C12.2418 22.6245 12.2403 22.6201 12.2389 22.6158L12.2362 22.6062C12.2351 22.6024 12.2336 22.5967 12.2318 22.5905C12.2308 22.5862 12.2297 22.5804 12.2278 22.5708C12.2276 22.57 12.2275 22.5692 12.2273 22.5684C12.2271 22.5664 12.2268 22.5645 12.2266 22.5628L12.2257 22.5575C12.2255 22.554 12.2252 22.5507 12.225 22.5479C12.2244 22.5414 12.2237 22.5354 12.2233 22.5318C12.2237 22.5259 12.2248 22.516 12.2275 22.4947L12.4897 20.9043L12.5104 20.7789L12.4213 20.6884L11.3124 19.5607C11.3014 19.5492 11.2912 19.5366 11.2835 19.5256C11.2718 19.5073 11.2683 19.4997 11.2669 19.4961C11.2662 19.4939 11.2655 19.492 11.2649 19.4904L11.2618 19.4819L11.2607 19.479L11.2603 19.4779L11.2599 19.4762C11.2529 19.4476 11.25 19.4251 11.25 19.4035V19.4034V19.4033V19.4032V19.4031V19.4031V19.403V19.4029V19.4028V19.4027V19.4026V19.4026V19.4025V19.4024V19.4023V19.4022V19.4022V19.4021V19.402V19.4019V19.4018V19.4017V19.4017V19.4016V19.4015V19.4014V19.4013V19.4013V19.4012V19.4011V19.401V19.4009V19.4008V19.4008V19.4007V19.4006V19.4005V19.4004V19.4004V19.4003V19.4002V19.4001V19.4V19.4V19.3999V19.3998V19.3997V19.3996V19.3996V19.3995V19.3994V19.3993V19.3992V19.3992V19.3991V19.399V19.3989V19.3988V19.3988V19.3987V19.3986V19.3985V19.3984V19.3984V19.3983V19.3982V19.3981V19.3981V19.398V19.3979V19.3978V19.3977V19.3977V19.3976V19.3975V19.3974V19.3974V19.3973V19.3972V19.3971V19.397V19.397V19.3969V19.3968V19.3967V19.3967V19.3966V19.3965V19.3964V19.3963V19.3963V19.3962V19.3961V19.396V19.396V19.3959V19.3958V19.3957V19.3956V19.3956V19.3955V19.3954V19.3953V19.3953V19.3952V19.3951V19.395V19.395V19.3949V19.3948V19.3947V19.3947V19.3946V19.3945V19.3944V19.3944V19.3943V19.3942V19.3941V19.394V19.394V19.3939V19.3938V19.3937V19.3937V19.3936V19.3935V19.3934V19.3934V19.3933V19.3932V19.3931V19.3931V19.393V19.3929V19.3928V19.3928V19.3927V19.3926V19.3925V19.3925V19.3924V19.3923V19.3922V19.3922V19.3921V19.392V19.3919V19.3919V19.3918V19.3917V19.3916V19.3916V19.3915V19.3914V19.3913V19.3913V19.3912V19.3911V19.391V19.391V19.3909V19.3908V19.3908V19.3907V19.3906V19.3905V19.3905V19.3904V19.3903V19.3902V19.3902V19.3901V19.39V19.3899V19.3899V19.3898V19.3897V19.3896V19.3896V19.3895V19.3894V19.3893V19.3893V19.3892V19.3891V19.3891V19.389V19.3889V19.3888V19.3888V19.3887V19.3886V19.3885V19.3885V19.3884V19.3883V19.3882V19.3882V19.3881V19.388V19.388V19.3879V19.3878V19.3877V19.3877V19.3876V19.3875V19.3874V19.3874V19.3873V19.3872V19.3872V19.3871V19.387V19.3869V19.3869V19.3868V19.3867V19.3866V19.3866V19.3865V19.3864V19.3864V19.3863V19.3862V19.3861V19.3861V19.386V19.3859V19.3858V19.3858V19.3857V19.3856V19.3855V19.3855V19.3854V19.3853V19.3853V19.3852V19.3851V19.385V19.385V19.3849V19.3848V19.3847V19.3847V19.3846V19.3845V19.3845V19.3844V19.3843V19.3842V19.3842V19.3841V19.384V19.384V19.3839V19.3838V19.3837V19.3837V19.3836V19.3835V19.3834V19.3834V19.3833V19.3832V19.3832V19.3831V19.383V19.3829V19.3829V19.3828V19.3827V19.3826V19.3826V19.3825V19.3824V19.3824V19.3823V19.3822V19.3821V19.3821V19.382V19.3819V19.3818V19.3818V19.3817V19.3816V19.3816V19.3815V19.3814V19.3813V19.3813V19.3812V19.3811V19.381V19.381V19.3809V19.3808V19.3807V19.3807V19.3806V19.3805V19.3805V19.3804V19.3803V19.3802V19.3802V19.3801V19.38V19.3799V19.3799V19.3798V19.3797V19.3797V19.3796V19.3795V19.3794V19.3794V19.3793V19.3792V19.3791V19.3791V19.379V19.3789V19.3788V19.3788V19.3787V19.3786V19.3786V19.3785V19.3784V19.3783V19.3783V19.3782V19.3781V19.378V19.378V19.3779V19.3778V19.3777V19.3777V19.3776V19.3775V19.3774V19.3774V19.3773V19.3772V19.3771V19.3771V19.377V19.3769V19.3769V19.3768V19.3767V19.3766V19.3766V19.3765V19.3764V19.3763V19.3763V19.3762V19.3761V19.376V19.376V19.3759V19.3758V19.3757V19.3757V19.3756V19.3755V19.3754V19.3754V19.3753V19.3752V19.3751V19.3751V19.375V19.3749V19.3748V19.3748V19.3747V19.3746V19.3745V19.3745V19.3744V19.3743V19.3742V19.3742V19.3741V19.374V19.3739V19.3739V19.3738V19.3737V19.3736V19.3736V19.3735V19.3734V19.3733V19.3732V19.3732V19.3731V19.373V19.3729V19.3729V19.3728V19.3727V19.3726V19.3726V19.3725V19.3724V19.3723V19.3723V19.3722V19.3721V19.372V19.3719V19.3719V19.3718V19.3717V19.3716V19.3716V19.3715V19.3714V19.3713V19.3712V19.3712V19.3711V19.371V19.3709V19.3709L11.2601 19.3393V19.3297L11.3094 19.2463L11.3365 19.218C11.3437 19.2139 11.3499 19.21 11.3546 19.2068C11.3617 19.203 11.3706 19.198 11.3802 19.1922C11.3816 19.1916 11.3834 19.191 11.3854 19.1902L11.3981 19.187C11.4042 19.1855 11.4089 19.1843 11.413 19.1833C11.4188 19.1818 11.4232 19.1807 11.4279 19.1795L12.9559 18.9494L13.0882 18.9295L13.145 18.8083L13.8212 17.3662C13.8212 17.3662 13.8212 17.3661 13.8212 17.3661C13.857 17.2899 13.9248 17.25 13.9943 17.25C14.0432 17.25 14.0943 17.2706 14.1331 17.3099C14.1353 17.3127 14.1373 17.3151 14.139 17.3172L14.1457 17.3253L14.149 17.3305C14.1646 17.3549 14.169 17.3625 14.1711 17.3669L14.1713 17.3672L14.8579 18.8129L14.9149 18.933L15.0464 18.9528L16.5798 19.1843L16.5798 19.1843L16.5812 19.1845C16.6501 19.1945 16.714 19.2458 16.7391 19.3277C16.7406 19.3371 16.7428 19.3476 16.746 19.3586V19.3643L16.7491 19.3777L16.7497 19.3881C16.7515 19.4226 16.7457 19.4551 16.7352 19.4799L16.7348 19.4798L16.7303 19.4923C16.7294 19.4947 16.7284 19.4971 16.7271 19.4998L16.7142 19.5187C16.7055 19.5314 16.6941 19.5454 16.6831 19.557L15.5742 20.6846L15.4851 20.7753L15.5058 20.9007L15.7687 22.4911C15.7822 22.5792 15.7496 22.659 15.6884 22.7069C15.6706 22.7196 15.6564 22.7277 15.6471 22.7321L15.6313 22.7372C15.6107 22.7439 15.5919 22.7466 15.5748 22.7466C15.5441 22.7466 15.5138 22.739 15.4869 22.7242L15.4864 22.724L14.1135 21.9725L13.9935 21.9068L13.8735 21.9725L12.5006 22.724L12.4928 22.7282L12.4853 22.733C12.4712 22.7421 12.4483 22.75 12.4166 22.75ZM15.6141 22.7451L15.6155 22.7444C15.615 22.7446 15.6143 22.745 15.6141 22.7451Z" fill="white" stroke="url(#paint5_linear_286_243)" stroke-width="0.5"/>
<path d="M12.4166 22.75C12.3815 22.75 12.3454 22.7396 12.3073 22.7136L12.3 22.706L12.2887 22.6932L12.2848 22.6901L12.2803 22.6854L12.2791 22.6848C12.278 22.6836 12.2768 22.6822 12.2754 22.6807C12.2743 22.6791 12.2729 22.6773 12.2716 22.6756C12.2698 22.6733 12.2679 22.6707 12.2656 22.668L12.263 22.6639L12.2562 22.6531L12.2562 22.6531L12.2554 22.6518C12.2523 22.6469 12.2495 22.6418 12.2432 22.629C12.2418 22.6245 12.2403 22.6201 12.2389 22.6158L12.2362 22.6062C12.2351 22.6024 12.2336 22.5967 12.2318 22.5905C12.2308 22.5862 12.2297 22.5804 12.2278 22.5708C12.2276 22.57 12.2275 22.5692 12.2273 22.5684C12.2271 22.5664 12.2268 22.5645 12.2266 22.5628L12.2257 22.5575C12.2255 22.554 12.2252 22.5507 12.225 22.5479C12.2244 22.5414 12.2237 22.5354 12.2233 22.5318C12.2237 22.5259 12.2248 22.516 12.2275 22.4947L12.4897 20.9043L12.5104 20.7789L12.4213 20.6884L11.3124 19.5607C11.3014 19.5492 11.2912 19.5366 11.2835 19.5256C11.2718 19.5073 11.2683 19.4997 11.2669 19.4961C11.2662 19.4939 11.2655 19.492 11.2649 19.4904L11.2618 19.4819L11.2607 19.479L11.2603 19.4779L11.2599 19.4762C11.2529 19.4476 11.25 19.4251 11.25 19.4035V19.4034V19.4033V19.4032V19.4031V19.4031V19.403V19.4029V19.4028V19.4027V19.4026V19.4026V19.4025V19.4024V19.4023V19.4022V19.4022V19.4021V19.402V19.4019V19.4018V19.4017V19.4017V19.4016V19.4015V19.4014V19.4013V19.4013V19.4012V19.4011V19.401V19.4009V19.4008V19.4008V19.4007V19.4006V19.4005V19.4004V19.4004V19.4003V19.4002V19.4001V19.4V19.4V19.3999V19.3998V19.3997V19.3996V19.3996V19.3995V19.3994V19.3993V19.3992V19.3992V19.3991V19.399V19.3989V19.3988V19.3988V19.3987V19.3986V19.3985V19.3984V19.3984V19.3983V19.3982V19.3981V19.3981V19.398V19.3979V19.3978V19.3977V19.3977V19.3976V19.3975V19.3974V19.3974V19.3973V19.3972V19.3971V19.397V19.397V19.3969V19.3968V19.3967V19.3967V19.3966V19.3965V19.3964V19.3963V19.3963V19.3962V19.3961V19.396V19.396V19.3959V19.3958V19.3957V19.3956V19.3956V19.3955V19.3954V19.3953V19.3953V19.3952V19.3951V19.395V19.395V19.3949V19.3948V19.3947V19.3947V19.3946V19.3945V19.3944V19.3944V19.3943V19.3942V19.3941V19.394V19.394V19.3939V19.3938V19.3937V19.3937V19.3936V19.3935V19.3934V19.3934V19.3933V19.3932V19.3931V19.3931V19.393V19.3929V19.3928V19.3928V19.3927V19.3926V19.3925V19.3925V19.3924V19.3923V19.3922V19.3922V19.3921V19.392V19.3919V19.3919V19.3918V19.3917V19.3916V19.3916V19.3915V19.3914V19.3913V19.3913V19.3912V19.3911V19.391V19.391V19.3909V19.3908V19.3908V19.3907V19.3906V19.3905V19.3905V19.3904V19.3903V19.3902V19.3902V19.3901V19.39V19.3899V19.3899V19.3898V19.3897V19.3896V19.3896V19.3895V19.3894V19.3893V19.3893V19.3892V19.3891V19.3891V19.389V19.3889V19.3888V19.3888V19.3887V19.3886V19.3885V19.3885V19.3884V19.3883V19.3882V19.3882V19.3881V19.388V19.388V19.3879V19.3878V19.3877V19.3877V19.3876V19.3875V19.3874V19.3874V19.3873V19.3872V19.3872V19.3871V19.387V19.3869V19.3869V19.3868V19.3867V19.3866V19.3866V19.3865V19.3864V19.3864V19.3863V19.3862V19.3861V19.3861V19.386V19.3859V19.3858V19.3858V19.3857V19.3856V19.3855V19.3855V19.3854V19.3853V19.3853V19.3852V19.3851V19.385V19.385V19.3849V19.3848V19.3847V19.3847V19.3846V19.3845V19.3845V19.3844V19.3843V19.3842V19.3842V19.3841V19.384V19.384V19.3839V19.3838V19.3837V19.3837V19.3836V19.3835V19.3834V19.3834V19.3833V19.3832V19.3832V19.3831V19.383V19.3829V19.3829V19.3828V19.3827V19.3826V19.3826V19.3825V19.3824V19.3824V19.3823V19.3822V19.3821V19.3821V19.382V19.3819V19.3818V19.3818V19.3817V19.3816V19.3816V19.3815V19.3814V19.3813V19.3813V19.3812V19.3811V19.381V19.381V19.3809V19.3808V19.3807V19.3807V19.3806V19.3805V19.3805V19.3804V19.3803V19.3802V19.3802V19.3801V19.38V19.3799V19.3799V19.3798V19.3797V19.3797V19.3796V19.3795V19.3794V19.3794V19.3793V19.3792V19.3791V19.3791V19.379V19.3789V19.3788V19.3788V19.3787V19.3786V19.3786V19.3785V19.3784V19.3783V19.3783V19.3782V19.3781V19.378V19.378V19.3779V19.3778V19.3777V19.3777V19.3776V19.3775V19.3774V19.3774V19.3773V19.3772V19.3771V19.3771V19.377V19.3769V19.3769V19.3768V19.3767V19.3766V19.3766V19.3765V19.3764V19.3763V19.3763V19.3762V19.3761V19.376V19.376V19.3759V19.3758V19.3757V19.3757V19.3756V19.3755V19.3754V19.3754V19.3753V19.3752V19.3751V19.3751V19.375V19.3749V19.3748V19.3748V19.3747V19.3746V19.3745V19.3745V19.3744V19.3743V19.3742V19.3742V19.3741V19.374V19.3739V19.3739V19.3738V19.3737V19.3736V19.3736V19.3735V19.3734V19.3733V19.3732V19.3732V19.3731V19.373V19.3729V19.3729V19.3728V19.3727V19.3726V19.3726V19.3725V19.3724V19.3723V19.3723V19.3722V19.3721V19.372V19.3719V19.3719V19.3718V19.3717V19.3716V19.3716V19.3715V19.3714V19.3713V19.3712V19.3712V19.3711V19.371V19.3709V19.3709L11.2601 19.3393V19.3297L11.3094 19.2463L11.3365 19.218C11.3437 19.2139 11.3499 19.21 11.3546 19.2068C11.3617 19.203 11.3706 19.198 11.3802 19.1922C11.3816 19.1916 11.3834 19.191 11.3854 19.1902L11.3981 19.187C11.4042 19.1855 11.4089 19.1843 11.413 19.1833C11.4188 19.1818 11.4232 19.1807 11.4279 19.1795L12.9559 18.9494L13.0882 18.9295L13.145 18.8083L13.8212 17.3662C13.8212 17.3662 13.8212 17.3661 13.8212 17.3661C13.857 17.2899 13.9248 17.25 13.9943 17.25C14.0432 17.25 14.0943 17.2706 14.1331 17.3099C14.1353 17.3127 14.1373 17.3151 14.139 17.3172L14.1457 17.3253L14.149 17.3305C14.1646 17.3549 14.169 17.3625 14.1711 17.3669L14.1713 17.3672L14.8579 18.8129L14.9149 18.933L15.0464 18.9528L16.5798 19.1843L16.5798 19.1843L16.5812 19.1845C16.6501 19.1945 16.714 19.2458 16.7391 19.3277C16.7406 19.3371 16.7428 19.3476 16.746 19.3586V19.3643L16.7491 19.3777L16.7497 19.3881C16.7515 19.4226 16.7457 19.4551 16.7352 19.4799L16.7348 19.4798L16.7303 19.4923C16.7294 19.4947 16.7284 19.4971 16.7271 19.4998L16.7142 19.5187C16.7055 19.5314 16.6941 19.5454 16.6831 19.557L15.5742 20.6846L15.4851 20.7753L15.5058 20.9007L15.7687 22.4911C15.7822 22.5792 15.7496 22.659 15.6884 22.7069C15.6706 22.7196 15.6564 22.7277 15.6471 22.7321L15.6313 22.7372C15.6107 22.7439 15.5919 22.7466 15.5748 22.7466C15.5441 22.7466 15.5138 22.739 15.4869 22.7242L15.4864 22.724L14.1135 21.9725L13.9935 21.9068L13.8735 21.9725L12.5006 22.724L12.4928 22.7282L12.4853 22.733C12.4712 22.7421 12.4483 22.75 12.4166 22.75ZM15.6141 22.7451L15.6155 22.7444C15.615 22.7446 15.6143 22.745 15.6141 22.7451Z" stroke="url(#paint6_linear_286_243)" stroke-width="0.5"/>
<path d="M13.9945 17.228V20.1729L13.0518 18.916L13.7895 17.36C13.834 17.2745 13.9161 17.228 13.9945 17.228Z" fill="url(#paint7_linear_286_243)" fill-opacity="0.38"/>
<path d="M16.771 19.333L13.9976 20.1734L14.9401 18.9165L16.5864 19.1657C16.6788 19.1833 16.7436 19.2509 16.771 19.333Z" fill="url(#paint8_linear_286_243)"/>
<path d="M15.709 22.7255L13.9946 20.1724L15.5179 20.7813L15.7979 22.4906C15.8181 22.5904 15.7771 22.6756 15.709 22.7255Z" fill="url(#paint9_linear_286_243)"/>
<path d="M13.994 20.1724V21.935L12.5218 22.7432C12.4365 22.7894 12.3477 22.7751 12.2793 22.7255L13.994 20.1724Z" fill="url(#paint10_linear_286_243)"/>
<path d="M14.9374 18.916L13.9946 20.1729V17.228C14.0562 17.228 14.1177 17.2528 14.162 17.3027C14.1688 17.3098 14.1756 17.3204 14.1825 17.3312C14.1893 17.3421 14.1961 17.3526 14.1994 17.3632L14.9374 18.916Z" fill="url(#paint11_linear_286_243)" fill-opacity="0.6"/>
<path d="M16.7643 19.4927C16.7575 19.507 16.7507 19.5212 16.7438 19.5355C16.7334 19.5497 16.7233 19.5603 16.7132 19.5745L15.5213 20.7853L13.998 20.1763L16.7714 19.3359C16.7714 19.3394 16.7747 19.3431 16.7747 19.3468C16.7747 19.3505 16.7783 19.3539 16.7783 19.361C16.7783 19.3647 16.7783 19.3647 16.7783 19.3647C16.7783 19.3682 16.7783 19.3719 16.7783 19.3753C16.7783 19.3824 16.7783 19.3861 16.7783 19.393C16.7816 19.4249 16.778 19.4605 16.7643 19.4927Z" fill="url(#paint12_linear_286_243)"/>
<path d="M15.7093 22.7255C15.6924 22.7398 15.6718 22.7503 15.6478 22.7574C15.6445 22.7574 15.6445 22.7574 15.641 22.7609C15.5863 22.7785 15.5247 22.7751 15.4668 22.7432L13.9946 21.935V20.1724L15.7093 22.7255Z" fill="url(#paint13_linear_286_243)"/>
<path d="M13.9944 20.1724L12.28 22.7255C12.2767 22.7218 12.2732 22.7184 12.2699 22.7147C12.2666 22.7113 12.263 22.7075 12.2595 22.7038C12.2562 22.7004 12.2527 22.6967 12.2458 22.6896C12.2423 22.6862 12.239 22.6825 12.2354 22.6788C12.2319 22.675 12.2321 22.6753 12.2321 22.6716C12.2289 22.6682 12.2253 22.6645 12.2253 22.6608C12.2185 22.6502 12.2116 22.6394 12.2084 22.6289C12.2051 22.6254 12.2051 22.618 12.2015 22.6112C12.1982 22.6041 12.1982 22.6004 12.1947 22.5935C12.1914 22.5864 12.1914 22.5758 12.1914 22.5687C12.1914 22.5653 12.1914 22.5579 12.1914 22.5545C12.1914 22.5473 12.1914 22.5402 12.1914 22.5331C12.1914 22.5188 12.1914 22.5046 12.1947 22.4903L12.4747 20.781L13.9944 20.1724Z" fill="url(#paint14_linear_286_243)"/>
<path d="M13.9941 20.1724L11.2207 19.332C11.2207 19.3286 11.224 19.3249 11.224 19.3212C11.2273 19.3141 11.2273 19.3069 11.2308 19.3035C11.2377 19.2893 11.2445 19.2787 11.2513 19.2679C11.2546 19.2608 11.2582 19.257 11.265 19.2502C11.2686 19.2468 11.2718 19.2394 11.2787 19.2359C11.282 19.2325 11.2891 19.2254 11.2923 19.2217C11.2956 19.218 11.3025 19.2146 11.306 19.2109C11.3128 19.2074 11.3197 19.2 11.3265 19.1966C11.3298 19.1932 11.3366 19.1895 11.3435 19.1895C11.3539 19.1861 11.3604 19.1824 11.3708 19.1786C11.3741 19.1786 11.3777 19.1752 11.3845 19.1752C11.3913 19.1718 11.4014 19.1718 11.4118 19.1681L13.0582 18.9189L13.9941 20.1724Z" fill="url(#paint15_linear_286_243)"/>
<path d="M13.9943 20.1724L12.4746 20.7848L11.2827 19.5741C11.269 19.5632 11.2622 19.5493 11.2521 19.535C11.2453 19.5208 11.2351 19.5065 11.2316 19.4922C11.2283 19.4851 11.2247 19.478 11.2247 19.4709C11.2179 19.4495 11.2144 19.4247 11.2144 19.4033C11.2144 19.3962 11.2144 19.389 11.2144 19.3819C11.2144 19.3714 11.2144 19.3642 11.2179 19.3534C11.2179 19.35 11.2212 19.3463 11.2212 19.3392C11.2212 19.3357 11.2245 19.332 11.2245 19.3286L13.9943 20.1724Z" fill="url(#paint16_linear_286_243)"/>
</g>
<g filter="url(#filter3_d_286_243)">
<path d="M20.4166 22.75C20.3815 22.75 20.3454 22.7396 20.3073 22.7136L20.3 22.706L20.2887 22.6932L20.2848 22.6901L20.2803 22.6854L20.2791 22.6848C20.278 22.6836 20.2768 22.6822 20.2754 22.6807C20.2743 22.6791 20.2729 22.6773 20.2716 22.6756C20.2698 22.6733 20.2679 22.6707 20.2656 22.668L20.263 22.6639L20.2562 22.6531L20.2562 22.6531L20.2554 22.6518C20.2523 22.6469 20.2495 22.6418 20.2432 22.629C20.2418 22.6245 20.2403 22.6201 20.2389 22.6158L20.2362 22.6062C20.2351 22.6024 20.2336 22.5967 20.2318 22.5905C20.2308 22.5862 20.2297 22.5804 20.2278 22.5708C20.2276 22.57 20.2275 22.5692 20.2273 22.5684C20.2271 22.5664 20.2268 22.5645 20.2266 22.5628L20.2257 22.5575C20.2255 22.554 20.2252 22.5507 20.225 22.5479C20.2244 22.5414 20.2237 22.5354 20.2233 22.5318C20.2237 22.5259 20.2248 22.516 20.2275 22.4947L20.4897 20.9043L20.5104 20.7789L20.4213 20.6884L19.3124 19.5607C19.3014 19.5492 19.2912 19.5366 19.2835 19.5256C19.2718 19.5073 19.2683 19.4997 19.2669 19.4961C19.2662 19.4939 19.2655 19.492 19.2649 19.4904L19.2618 19.4819L19.2607 19.479L19.2603 19.4779L19.2599 19.4762C19.2529 19.4476 19.25 19.4251 19.25 19.4035V19.4034V19.4033V19.4032V19.4031V19.4031V19.403V19.4029V19.4028V19.4027V19.4026V19.4026V19.4025V19.4024V19.4023V19.4022V19.4022V19.4021V19.402V19.4019V19.4018V19.4017V19.4017V19.4016V19.4015V19.4014V19.4013V19.4013V19.4012V19.4011V19.401V19.4009V19.4008V19.4008V19.4007V19.4006V19.4005V19.4004V19.4004V19.4003V19.4002V19.4001V19.4V19.4V19.3999V19.3998V19.3997V19.3996V19.3996V19.3995V19.3994V19.3993V19.3992V19.3992V19.3991V19.399V19.3989V19.3988V19.3988V19.3987V19.3986V19.3985V19.3984V19.3984V19.3983V19.3982V19.3981V19.3981V19.398V19.3979V19.3978V19.3977V19.3977V19.3976V19.3975V19.3974V19.3974V19.3973V19.3972V19.3971V19.397V19.397V19.3969V19.3968V19.3967V19.3967V19.3966V19.3965V19.3964V19.3963V19.3963V19.3962V19.3961V19.396V19.396V19.3959V19.3958V19.3957V19.3956V19.3956V19.3955V19.3954V19.3953V19.3953V19.3952V19.3951V19.395V19.395V19.3949V19.3948V19.3947V19.3947V19.3946V19.3945V19.3944V19.3944V19.3943V19.3942V19.3941V19.394V19.394V19.3939V19.3938V19.3937V19.3937V19.3936V19.3935V19.3934V19.3934V19.3933V19.3932V19.3931V19.3931V19.393V19.3929V19.3928V19.3928V19.3927V19.3926V19.3925V19.3925V19.3924V19.3923V19.3922V19.3922V19.3921V19.392V19.3919V19.3919V19.3918V19.3917V19.3916V19.3916V19.3915V19.3914V19.3913V19.3913V19.3912V19.3911V19.391V19.391V19.3909V19.3908V19.3908V19.3907V19.3906V19.3905V19.3905V19.3904V19.3903V19.3902V19.3902V19.3901V19.39V19.3899V19.3899V19.3898V19.3897V19.3896V19.3896V19.3895V19.3894V19.3893V19.3893V19.3892V19.3891V19.3891V19.389V19.3889V19.3888V19.3888V19.3887V19.3886V19.3885V19.3885V19.3884V19.3883V19.3882V19.3882V19.3881V19.388V19.388V19.3879V19.3878V19.3877V19.3877V19.3876V19.3875V19.3874V19.3874V19.3873V19.3872V19.3872V19.3871V19.387V19.3869V19.3869V19.3868V19.3867V19.3866V19.3866V19.3865V19.3864V19.3864V19.3863V19.3862V19.3861V19.3861V19.386V19.3859V19.3858V19.3858V19.3857V19.3856V19.3855V19.3855V19.3854V19.3853V19.3853V19.3852V19.3851V19.385V19.385V19.3849V19.3848V19.3847V19.3847V19.3846V19.3845V19.3845V19.3844V19.3843V19.3842V19.3842V19.3841V19.384V19.384V19.3839V19.3838V19.3837V19.3837V19.3836V19.3835V19.3834V19.3834V19.3833V19.3832V19.3832V19.3831V19.383V19.3829V19.3829V19.3828V19.3827V19.3826V19.3826V19.3825V19.3824V19.3824V19.3823V19.3822V19.3821V19.3821V19.382V19.3819V19.3818V19.3818V19.3817V19.3816V19.3816V19.3815V19.3814V19.3813V19.3813V19.3812V19.3811V19.381V19.381V19.3809V19.3808V19.3807V19.3807V19.3806V19.3805V19.3805V19.3804V19.3803V19.3802V19.3802V19.3801V19.38V19.3799V19.3799V19.3798V19.3797V19.3797V19.3796V19.3795V19.3794V19.3794V19.3793V19.3792V19.3791V19.3791V19.379V19.3789V19.3788V19.3788V19.3787V19.3786V19.3786V19.3785V19.3784V19.3783V19.3783V19.3782V19.3781V19.378V19.378V19.3779V19.3778V19.3777V19.3777V19.3776V19.3775V19.3774V19.3774V19.3773V19.3772V19.3771V19.3771V19.377V19.3769V19.3769V19.3768V19.3767V19.3766V19.3766V19.3765V19.3764V19.3763V19.3763V19.3762V19.3761V19.376V19.376V19.3759V19.3758V19.3757V19.3757V19.3756V19.3755V19.3754V19.3754V19.3753V19.3752V19.3751V19.3751V19.375V19.3749V19.3748V19.3748V19.3747V19.3746V19.3745V19.3745V19.3744V19.3743V19.3742V19.3742V19.3741V19.374V19.3739V19.3739V19.3738V19.3737V19.3736V19.3736V19.3735V19.3734V19.3733V19.3732V19.3732V19.3731V19.373V19.3729V19.3729V19.3728V19.3727V19.3726V19.3726V19.3725V19.3724V19.3723V19.3723V19.3722V19.3721V19.372V19.3719V19.3719V19.3718V19.3717V19.3716V19.3716V19.3715V19.3714V19.3713V19.3712V19.3712V19.3711V19.371V19.3709V19.3709L19.2601 19.3393V19.3297L19.3094 19.2463L19.3365 19.218C19.3437 19.2139 19.3499 19.21 19.3546 19.2068C19.3617 19.203 19.3706 19.198 19.3802 19.1922C19.3816 19.1916 19.3834 19.191 19.3854 19.1902L19.3981 19.187C19.4042 19.1855 19.4089 19.1843 19.413 19.1833C19.4188 19.1818 19.4232 19.1807 19.4279 19.1795L20.9559 18.9494L21.0882 18.9295L21.145 18.8083L21.8212 17.3662C21.8212 17.3662 21.8212 17.3661 21.8212 17.3661C21.857 17.2899 21.9248 17.25 21.9943 17.25C22.0432 17.25 22.0943 17.2706 22.1331 17.3099C22.1353 17.3127 22.1373 17.3151 22.139 17.3172L22.1457 17.3253L22.149 17.3305C22.1646 17.3549 22.169 17.3625 22.1711 17.3669L22.1713 17.3672L22.8579 18.8129L22.9149 18.933L23.0464 18.9528L24.5798 19.1843L24.5798 19.1843L24.5812 19.1845C24.6501 19.1945 24.714 19.2458 24.7391 19.3277C24.7406 19.3371 24.7428 19.3476 24.746 19.3586V19.3643L24.7491 19.3777L24.7497 19.3881C24.7515 19.4226 24.7457 19.4551 24.7352 19.4799L24.7348 19.4798L24.7303 19.4923C24.7294 19.4947 24.7284 19.4971 24.7271 19.4998L24.7142 19.5187C24.7055 19.5314 24.6941 19.5454 24.6831 19.557L23.5742 20.6846L23.4851 20.7753L23.5058 20.9007L23.7687 22.4911C23.7822 22.5792 23.7496 22.659 23.6884 22.7069C23.6706 22.7196 23.6564 22.7277 23.6471 22.7321L23.6313 22.7372C23.6107 22.7439 23.5919 22.7466 23.5748 22.7466C23.5441 22.7466 23.5138 22.739 23.4869 22.7242L23.4864 22.724L22.1135 21.9725L21.9935 21.9068L21.8735 21.9725L20.5006 22.724L20.4928 22.7282L20.4853 22.733C20.4712 22.7421 20.4483 22.75 20.4166 22.75ZM23.6141 22.7451L23.6155 22.7444C23.615 22.7446 23.6143 22.745 23.6141 22.7451Z" fill="white" stroke="url(#paint17_linear_286_243)" stroke-width="0.5"/>
<path d="M20.4166 22.75C20.3815 22.75 20.3454 22.7396 20.3073 22.7136L20.3 22.706L20.2887 22.6932L20.2848 22.6901L20.2803 22.6854L20.2791 22.6848C20.278 22.6836 20.2768 22.6822 20.2754 22.6807C20.2743 22.6791 20.2729 22.6773 20.2716 22.6756C20.2698 22.6733 20.2679 22.6707 20.2656 22.668L20.263 22.6639L20.2562 22.6531L20.2562 22.6531L20.2554 22.6518C20.2523 22.6469 20.2495 22.6418 20.2432 22.629C20.2418 22.6245 20.2403 22.6201 20.2389 22.6158L20.2362 22.6062C20.2351 22.6024 20.2336 22.5967 20.2318 22.5905C20.2308 22.5862 20.2297 22.5804 20.2278 22.5708C20.2276 22.57 20.2275 22.5692 20.2273 22.5684C20.2271 22.5664 20.2268 22.5645 20.2266 22.5628L20.2257 22.5575C20.2255 22.554 20.2252 22.5507 20.225 22.5479C20.2244 22.5414 20.2237 22.5354 20.2233 22.5318C20.2237 22.5259 20.2248 22.516 20.2275 22.4947L20.4897 20.9043L20.5104 20.7789L20.4213 20.6884L19.3124 19.5607C19.3014 19.5492 19.2912 19.5366 19.2835 19.5256C19.2718 19.5073 19.2683 19.4997 19.2669 19.4961C19.2662 19.4939 19.2655 19.492 19.2649 19.4904L19.2618 19.4819L19.2607 19.479L19.2603 19.4779L19.2599 19.4762C19.2529 19.4476 19.25 19.4251 19.25 19.4035V19.4034V19.4033V19.4032V19.4031V19.4031V19.403V19.4029V19.4028V19.4027V19.4026V19.4026V19.4025V19.4024V19.4023V19.4022V19.4022V19.4021V19.402V19.4019V19.4018V19.4017V19.4017V19.4016V19.4015V19.4014V19.4013V19.4013V19.4012V19.4011V19.401V19.4009V19.4008V19.4008V19.4007V19.4006V19.4005V19.4004V19.4004V19.4003V19.4002V19.4001V19.4V19.4V19.3999V19.3998V19.3997V19.3996V19.3996V19.3995V19.3994V19.3993V19.3992V19.3992V19.3991V19.399V19.3989V19.3988V19.3988V19.3987V19.3986V19.3985V19.3984V19.3984V19.3983V19.3982V19.3981V19.3981V19.398V19.3979V19.3978V19.3977V19.3977V19.3976V19.3975V19.3974V19.3974V19.3973V19.3972V19.3971V19.397V19.397V19.3969V19.3968V19.3967V19.3967V19.3966V19.3965V19.3964V19.3963V19.3963V19.3962V19.3961V19.396V19.396V19.3959V19.3958V19.3957V19.3956V19.3956V19.3955V19.3954V19.3953V19.3953V19.3952V19.3951V19.395V19.395V19.3949V19.3948V19.3947V19.3947V19.3946V19.3945V19.3944V19.3944V19.3943V19.3942V19.3941V19.394V19.394V19.3939V19.3938V19.3937V19.3937V19.3936V19.3935V19.3934V19.3934V19.3933V19.3932V19.3931V19.3931V19.393V19.3929V19.3928V19.3928V19.3927V19.3926V19.3925V19.3925V19.3924V19.3923V19.3922V19.3922V19.3921V19.392V19.3919V19.3919V19.3918V19.3917V19.3916V19.3916V19.3915V19.3914V19.3913V19.3913V19.3912V19.3911V19.391V19.391V19.3909V19.3908V19.3908V19.3907V19.3906V19.3905V19.3905V19.3904V19.3903V19.3902V19.3902V19.3901V19.39V19.3899V19.3899V19.3898V19.3897V19.3896V19.3896V19.3895V19.3894V19.3893V19.3893V19.3892V19.3891V19.3891V19.389V19.3889V19.3888V19.3888V19.3887V19.3886V19.3885V19.3885V19.3884V19.3883V19.3882V19.3882V19.3881V19.388V19.388V19.3879V19.3878V19.3877V19.3877V19.3876V19.3875V19.3874V19.3874V19.3873V19.3872V19.3872V19.3871V19.387V19.3869V19.3869V19.3868V19.3867V19.3866V19.3866V19.3865V19.3864V19.3864V19.3863V19.3862V19.3861V19.3861V19.386V19.3859V19.3858V19.3858V19.3857V19.3856V19.3855V19.3855V19.3854V19.3853V19.3853V19.3852V19.3851V19.385V19.385V19.3849V19.3848V19.3847V19.3847V19.3846V19.3845V19.3845V19.3844V19.3843V19.3842V19.3842V19.3841V19.384V19.384V19.3839V19.3838V19.3837V19.3837V19.3836V19.3835V19.3834V19.3834V19.3833V19.3832V19.3832V19.3831V19.383V19.3829V19.3829V19.3828V19.3827V19.3826V19.3826V19.3825V19.3824V19.3824V19.3823V19.3822V19.3821V19.3821V19.382V19.3819V19.3818V19.3818V19.3817V19.3816V19.3816V19.3815V19.3814V19.3813V19.3813V19.3812V19.3811V19.381V19.381V19.3809V19.3808V19.3807V19.3807V19.3806V19.3805V19.3805V19.3804V19.3803V19.3802V19.3802V19.3801V19.38V19.3799V19.3799V19.3798V19.3797V19.3797V19.3796V19.3795V19.3794V19.3794V19.3793V19.3792V19.3791V19.3791V19.379V19.3789V19.3788V19.3788V19.3787V19.3786V19.3786V19.3785V19.3784V19.3783V19.3783V19.3782V19.3781V19.378V19.378V19.3779V19.3778V19.3777V19.3777V19.3776V19.3775V19.3774V19.3774V19.3773V19.3772V19.3771V19.3771V19.377V19.3769V19.3769V19.3768V19.3767V19.3766V19.3766V19.3765V19.3764V19.3763V19.3763V19.3762V19.3761V19.376V19.376V19.3759V19.3758V19.3757V19.3757V19.3756V19.3755V19.3754V19.3754V19.3753V19.3752V19.3751V19.3751V19.375V19.3749V19.3748V19.3748V19.3747V19.3746V19.3745V19.3745V19.3744V19.3743V19.3742V19.3742V19.3741V19.374V19.3739V19.3739V19.3738V19.3737V19.3736V19.3736V19.3735V19.3734V19.3733V19.3732V19.3732V19.3731V19.373V19.3729V19.3729V19.3728V19.3727V19.3726V19.3726V19.3725V19.3724V19.3723V19.3723V19.3722V19.3721V19.372V19.3719V19.3719V19.3718V19.3717V19.3716V19.3716V19.3715V19.3714V19.3713V19.3712V19.3712V19.3711V19.371V19.3709V19.3709L19.2601 19.3393V19.3297L19.3094 19.2463L19.3365 19.218C19.3437 19.2139 19.3499 19.21 19.3546 19.2068C19.3617 19.203 19.3706 19.198 19.3802 19.1922C19.3816 19.1916 19.3834 19.191 19.3854 19.1902L19.3981 19.187C19.4042 19.1855 19.4089 19.1843 19.413 19.1833C19.4188 19.1818 19.4232 19.1807 19.4279 19.1795L20.9559 18.9494L21.0882 18.9295L21.145 18.8083L21.8212 17.3662C21.8212 17.3662 21.8212 17.3661 21.8212 17.3661C21.857 17.2899 21.9248 17.25 21.9943 17.25C22.0432 17.25 22.0943 17.2706 22.1331 17.3099C22.1353 17.3127 22.1373 17.3151 22.139 17.3172L22.1457 17.3253L22.149 17.3305C22.1646 17.3549 22.169 17.3625 22.1711 17.3669L22.1713 17.3672L22.8579 18.8129L22.9149 18.933L23.0464 18.9528L24.5798 19.1843L24.5798 19.1843L24.5812 19.1845C24.6501 19.1945 24.714 19.2458 24.7391 19.3277C24.7406 19.3371 24.7428 19.3476 24.746 19.3586V19.3643L24.7491 19.3777L24.7497 19.3881C24.7515 19.4226 24.7457 19.4551 24.7352 19.4799L24.7348 19.4798L24.7303 19.4923C24.7294 19.4947 24.7284 19.4971 24.7271 19.4998L24.7142 19.5187C24.7055 19.5314 24.6941 19.5454 24.6831 19.557L23.5742 20.6846L23.4851 20.7753L23.5058 20.9007L23.7687 22.4911C23.7822 22.5792 23.7496 22.659 23.6884 22.7069C23.6706 22.7196 23.6564 22.7277 23.6471 22.7321L23.6313 22.7372C23.6107 22.7439 23.5919 22.7466 23.5748 22.7466C23.5441 22.7466 23.5138 22.739 23.4869 22.7242L23.4864 22.724L22.1135 21.9725L21.9935 21.9068L21.8735 21.9725L20.5006 22.724L20.4928 22.7282L20.4853 22.733C20.4712 22.7421 20.4483 22.75 20.4166 22.75ZM23.6141 22.7451L23.6155 22.7444C23.615 22.7446 23.6143 22.745 23.6141 22.7451Z" stroke="url(#paint18_linear_286_243)" stroke-width="0.5"/>
<path d="M21.9945 17.228V20.1729L21.0518 18.916L21.7895 17.36C21.834 17.2745 21.9161 17.228 21.9945 17.228Z" fill="url(#paint19_linear_286_243)" fill-opacity="0.38"/>
<path d="M24.771 19.333L21.9976 20.1734L22.9401 18.9165L24.5864 19.1657C24.6788 19.1833 24.7436 19.2509 24.771 19.333Z" fill="url(#paint20_linear_286_243)"/>
<path d="M23.709 22.7255L21.9946 20.1724L23.5179 20.7813L23.7979 22.4906C23.8181 22.5904 23.7771 22.6756 23.709 22.7255Z" fill="url(#paint21_linear_286_243)"/>
<path d="M21.994 20.1724V21.935L20.5218 22.7432C20.4365 22.7894 20.3477 22.7751 20.2793 22.7255L21.994 20.1724Z" fill="url(#paint22_linear_286_243)"/>
<path d="M22.9374 18.916L21.9946 20.1729V17.228C22.0562 17.228 22.1177 17.2528 22.162 17.3027C22.1688 17.3098 22.1756 17.3204 22.1825 17.3312C22.1893 17.3421 22.1961 17.3526 22.1994 17.3632L22.9374 18.916Z" fill="url(#paint23_linear_286_243)" fill-opacity="0.6"/>
<path d="M24.7643 19.4927C24.7575 19.507 24.7507 19.5212 24.7438 19.5355C24.7334 19.5497 24.7233 19.5603 24.7132 19.5745L23.5213 20.7853L21.998 20.1763L24.7714 19.3359C24.7714 19.3394 24.7747 19.3431 24.7747 19.3468C24.7747 19.3505 24.7783 19.3539 24.7783 19.361C24.7783 19.3647 24.7783 19.3647 24.7783 19.3647C24.7783 19.3682 24.7783 19.3719 24.7783 19.3753C24.7783 19.3824 24.7783 19.3861 24.7783 19.393C24.7816 19.4249 24.778 19.4605 24.7643 19.4927Z" fill="url(#paint24_linear_286_243)"/>
<path d="M23.7093 22.7255C23.6924 22.7398 23.6718 22.7503 23.6478 22.7574C23.6445 22.7574 23.6445 22.7574 23.641 22.7609C23.5863 22.7785 23.5247 22.7751 23.4668 22.7432L21.9946 21.935V20.1724L23.7093 22.7255Z" fill="url(#paint25_linear_286_243)"/>
<path d="M21.9944 20.1724L20.28 22.7255C20.2767 22.7218 20.2732 22.7184 20.2699 22.7147C20.2666 22.7113 20.263 22.7075 20.2595 22.7038C20.2562 22.7004 20.2527 22.6967 20.2458 22.6896C20.2423 22.6862 20.239 22.6825 20.2354 22.6788C20.2319 22.675 20.2321 22.6753 20.2321 22.6716C20.2289 22.6682 20.2253 22.6645 20.2253 22.6608C20.2185 22.6502 20.2116 22.6394 20.2084 22.6289C20.2051 22.6254 20.2051 22.618 20.2015 22.6112C20.1982 22.6041 20.1982 22.6004 20.1947 22.5935C20.1914 22.5864 20.1914 22.5758 20.1914 22.5687C20.1914 22.5653 20.1914 22.5579 20.1914 22.5545C20.1914 22.5473 20.1914 22.5402 20.1914 22.5331C20.1914 22.5188 20.1914 22.5046 20.1947 22.4903L20.4747 20.781L21.9944 20.1724Z" fill="url(#paint26_linear_286_243)"/>
<path d="M21.9941 20.1724L19.2207 19.332C19.2207 19.3286 19.224 19.3249 19.224 19.3212C19.2273 19.3141 19.2273 19.3069 19.2308 19.3035C19.2377 19.2893 19.2445 19.2787 19.2513 19.2679C19.2546 19.2608 19.2582 19.257 19.265 19.2502C19.2686 19.2468 19.2718 19.2394 19.2787 19.2359C19.282 19.2325 19.2891 19.2254 19.2923 19.2217C19.2956 19.218 19.3025 19.2146 19.306 19.2109C19.3128 19.2074 19.3197 19.2 19.3265 19.1966C19.3298 19.1932 19.3366 19.1895 19.3435 19.1895C19.3539 19.1861 19.3604 19.1824 19.3708 19.1786C19.3741 19.1786 19.3777 19.1752 19.3845 19.1752C19.3913 19.1718 19.4014 19.1718 19.4118 19.1681L21.0582 18.9189L21.9941 20.1724Z" fill="url(#paint27_linear_286_243)"/>
<path d="M21.9943 20.1724L20.4746 20.7848L19.2827 19.5741C19.269 19.5632 19.2622 19.5493 19.2521 19.535C19.2453 19.5208 19.2351 19.5065 19.2316 19.4922C19.2283 19.4851 19.2247 19.478 19.2247 19.4709C19.2179 19.4495 19.2144 19.4247 19.2144 19.4033C19.2144 19.3962 19.2144 19.389 19.2144 19.3819C19.2144 19.3714 19.2144 19.3642 19.2179 19.3534C19.2179 19.35 19.2212 19.3463 19.2212 19.3392C19.2212 19.3357 19.2245 19.332 19.2245 19.3286L21.9943 20.1724Z" fill="url(#paint28_linear_286_243)"/>
</g>
<g filter="url(#filter4_d_286_243)">
<path d="M16.4166 15.75C16.3815 15.75 16.3454 15.7396 16.3073 15.7136L16.3 15.706L16.2887 15.6932L16.2848 15.6901L16.2803 15.6854L16.2791 15.6848C16.278 15.6836 16.2768 15.6822 16.2754 15.6807C16.2743 15.6791 16.2729 15.6773 16.2716 15.6756C16.2698 15.6733 16.2679 15.6707 16.2656 15.668L16.263 15.6639L16.2562 15.6531L16.2562 15.6531L16.2554 15.6518C16.2523 15.6469 16.2495 15.6418 16.2432 15.629C16.2418 15.6245 16.2403 15.6201 16.2389 15.6158L16.2362 15.6062C16.2351 15.6024 16.2336 15.5967 16.2318 15.5905C16.2308 15.5862 16.2297 15.5804 16.2278 15.5708C16.2276 15.57 16.2275 15.5692 16.2273 15.5684C16.2271 15.5664 16.2268 15.5645 16.2266 15.5628L16.2257 15.5575C16.2255 15.554 16.2252 15.5507 16.225 15.5479C16.2244 15.5414 16.2237 15.5354 16.2233 15.5318C16.2237 15.5259 16.2248 15.516 16.2275 15.4947L16.4897 13.9043L16.5104 13.7789L16.4213 13.6884L15.3124 12.5607C15.3014 12.5492 15.2912 12.5366 15.2835 12.5256C15.2718 12.5073 15.2683 12.4997 15.2669 12.4961C15.2662 12.4939 15.2655 12.492 15.2649 12.4904L15.2618 12.4819L15.2607 12.479L15.2603 12.4779L15.2599 12.4762C15.2529 12.4476 15.25 12.4251 15.25 12.4035V12.4034V12.4033V12.4032V12.4031V12.4031V12.403V12.4029V12.4028V12.4027V12.4026V12.4026V12.4025V12.4024V12.4023V12.4022V12.4022V12.4021V12.402V12.4019V12.4018V12.4017V12.4017V12.4016V12.4015V12.4014V12.4013V12.4013V12.4012V12.4011V12.401V12.4009V12.4008V12.4008V12.4007V12.4006V12.4005V12.4004V12.4004V12.4003V12.4002V12.4001V12.4V12.4V12.3999V12.3998V12.3997V12.3996V12.3996V12.3995V12.3994V12.3993V12.3992V12.3992V12.3991V12.399V12.3989V12.3988V12.3988V12.3987V12.3986V12.3985V12.3984V12.3984V12.3983V12.3982V12.3981V12.3981V12.398V12.3979V12.3978V12.3977V12.3977V12.3976V12.3975V12.3974V12.3974V12.3973V12.3972V12.3971V12.397V12.397V12.3969V12.3968V12.3967V12.3967V12.3966V12.3965V12.3964V12.3963V12.3963V12.3962V12.3961V12.396V12.396V12.3959V12.3958V12.3957V12.3956V12.3956V12.3955V12.3954V12.3953V12.3953V12.3952V12.3951V12.395V12.395V12.3949V12.3948V12.3947V12.3947V12.3946V12.3945V12.3944V12.3944V12.3943V12.3942V12.3941V12.394V12.394V12.3939V12.3938V12.3937V12.3937V12.3936V12.3935V12.3934V12.3934V12.3933V12.3932V12.3931V12.3931V12.393V12.3929V12.3928V12.3928V12.3927V12.3926V12.3925V12.3925V12.3924V12.3923V12.3922V12.3922V12.3921V12.392V12.3919V12.3919V12.3918V12.3917V12.3916V12.3916V12.3915V12.3914V12.3913V12.3913V12.3912V12.3911V12.391V12.391V12.3909V12.3908V12.3908V12.3907V12.3906V12.3905V12.3905V12.3904V12.3903V12.3902V12.3902V12.3901V12.39V12.3899V12.3899V12.3898V12.3897V12.3896V12.3896V12.3895V12.3894V12.3893V12.3893V12.3892V12.3891V12.3891V12.389V12.3889V12.3888V12.3888V12.3887V12.3886V12.3885V12.3885V12.3884V12.3883V12.3882V12.3882V12.3881V12.388V12.388V12.3879V12.3878V12.3877V12.3877V12.3876V12.3875V12.3874V12.3874V12.3873V12.3872V12.3872V12.3871V12.387V12.3869V12.3869V12.3868V12.3867V12.3866V12.3866V12.3865V12.3864V12.3864V12.3863V12.3862V12.3861V12.3861V12.386V12.3859V12.3858V12.3858V12.3857V12.3856V12.3855V12.3855V12.3854V12.3853V12.3853V12.3852V12.3851V12.385V12.385V12.3849V12.3848V12.3847V12.3847V12.3846V12.3845V12.3845V12.3844V12.3843V12.3842V12.3842V12.3841V12.384V12.384V12.3839V12.3838V12.3837V12.3837V12.3836V12.3835V12.3834V12.3834V12.3833V12.3832V12.3832V12.3831V12.383V12.3829V12.3829V12.3828V12.3827V12.3826V12.3826V12.3825V12.3824V12.3824V12.3823V12.3822V12.3821V12.3821V12.382V12.3819V12.3818V12.3818V12.3817V12.3816V12.3816V12.3815V12.3814V12.3813V12.3813V12.3812V12.3811V12.381V12.381V12.3809V12.3808V12.3807V12.3807V12.3806V12.3805V12.3805V12.3804V12.3803V12.3802V12.3802V12.3801V12.38V12.3799V12.3799V12.3798V12.3797V12.3797V12.3796V12.3795V12.3794V12.3794V12.3793V12.3792V12.3791V12.3791V12.379V12.3789V12.3788V12.3788V12.3787V12.3786V12.3786V12.3785V12.3784V12.3783V12.3783V12.3782V12.3781V12.378V12.378V12.3779V12.3778V12.3777V12.3777V12.3776V12.3775V12.3774V12.3774V12.3773V12.3772V12.3771V12.3771V12.377V12.3769V12.3769V12.3768V12.3767V12.3766V12.3766V12.3765V12.3764V12.3763V12.3763V12.3762V12.3761V12.376V12.376V12.3759V12.3758V12.3757V12.3757V12.3756V12.3755V12.3754V12.3754V12.3753V12.3752V12.3751V12.3751V12.375V12.3749V12.3748V12.3748V12.3747V12.3746V12.3745V12.3745V12.3744V12.3743V12.3742V12.3742V12.3741V12.374V12.3739V12.3739V12.3738V12.3737V12.3736V12.3736V12.3735V12.3734V12.3733V12.3732V12.3732V12.3731V12.373V12.3729V12.3729V12.3728V12.3727V12.3726V12.3726V12.3725V12.3724V12.3723V12.3723V12.3722V12.3721V12.372V12.3719V12.3719V12.3718V12.3717V12.3716V12.3716V12.3715V12.3714V12.3713V12.3712V12.3712V12.3711V12.371V12.3709V12.3709L15.2601 12.3393V12.3297L15.3094 12.2463L15.3365 12.218C15.3437 12.2139 15.3499 12.21 15.3546 12.2068C15.3617 12.203 15.3706 12.198 15.3802 12.1922C15.3816 12.1916 15.3834 12.191 15.3854 12.1902L15.3981 12.187C15.4042 12.1855 15.4089 12.1843 15.413 12.1833C15.4188 12.1818 15.4232 12.1807 15.4279 12.1795L16.9559 11.9494L17.0882 11.9295L17.145 11.8083L17.8212 10.3662C17.8212 10.3662 17.8212 10.3661 17.8212 10.3661C17.857 10.2899 17.9248 10.25 17.9943 10.25C18.0432 10.25 18.0943 10.2706 18.1331 10.3099C18.1353 10.3127 18.1373 10.3151 18.139 10.3172L18.1457 10.3253L18.149 10.3305C18.1646 10.3549 18.169 10.3625 18.1711 10.3669L18.1713 10.3672L18.8579 11.8129L18.9149 11.933L19.0464 11.9528L20.5798 12.1843L20.5798 12.1843L20.5812 12.1845C20.6501 12.1945 20.714 12.2458 20.7391 12.3277C20.7406 12.3371 20.7428 12.3476 20.746 12.3586V12.3643L20.7491 12.3777L20.7497 12.3881C20.7515 12.4226 20.7457 12.4551 20.7352 12.4799L20.7348 12.4798L20.7303 12.4923C20.7294 12.4947 20.7284 12.4971 20.7271 12.4998L20.7142 12.5187C20.7055 12.5314 20.6941 12.5454 20.6831 12.557L19.5742 13.6846L19.4851 13.7753L19.5058 13.9007L19.7687 15.4911C19.7822 15.5792 19.7496 15.659 19.6884 15.7069C19.6706 15.7196 19.6564 15.7277 19.6471 15.7321L19.6313 15.7372C19.6107 15.7439 19.5919 15.7466 19.5748 15.7466C19.5441 15.7466 19.5138 15.739 19.4869 15.7242L19.4864 15.724L18.1135 14.9725L17.9935 14.9068L17.8735 14.9725L16.5006 15.724L16.4928 15.7282L16.4853 15.733C16.4712 15.7421 16.4483 15.75 16.4166 15.75ZM19.6141 15.7451L19.6155 15.7444C19.615 15.7446 19.6143 15.745 19.6141 15.7451Z" fill="white" stroke="url(#paint29_linear_286_243)" stroke-width="0.5"/>
<path d="M16.4166 15.75C16.3815 15.75 16.3454 15.7396 16.3073 15.7136L16.3 15.706L16.2887 15.6932L16.2848 15.6901L16.2803 15.6854L16.2791 15.6848C16.278 15.6836 16.2768 15.6822 16.2754 15.6807C16.2743 15.6791 16.2729 15.6773 16.2716 15.6756C16.2698 15.6733 16.2679 15.6707 16.2656 15.668L16.263 15.6639L16.2562 15.6531L16.2562 15.6531L16.2554 15.6518C16.2523 15.6469 16.2495 15.6418 16.2432 15.629C16.2418 15.6245 16.2403 15.6201 16.2389 15.6158L16.2362 15.6062C16.2351 15.6024 16.2336 15.5967 16.2318 15.5905C16.2308 15.5862 16.2297 15.5804 16.2278 15.5708C16.2276 15.57 16.2275 15.5692 16.2273 15.5684C16.2271 15.5664 16.2268 15.5645 16.2266 15.5628L16.2257 15.5575C16.2255 15.554 16.2252 15.5507 16.225 15.5479C16.2244 15.5414 16.2237 15.5354 16.2233 15.5318C16.2237 15.5259 16.2248 15.516 16.2275 15.4947L16.4897 13.9043L16.5104 13.7789L16.4213 13.6884L15.3124 12.5607C15.3014 12.5492 15.2912 12.5366 15.2835 12.5256C15.2718 12.5073 15.2683 12.4997 15.2669 12.4961C15.2662 12.4939 15.2655 12.492 15.2649 12.4904L15.2618 12.4819L15.2607 12.479L15.2603 12.4779L15.2599 12.4762C15.2529 12.4476 15.25 12.4251 15.25 12.4035V12.4034V12.4033V12.4032V12.4031V12.4031V12.403V12.4029V12.4028V12.4027V12.4026V12.4026V12.4025V12.4024V12.4023V12.4022V12.4022V12.4021V12.402V12.4019V12.4018V12.4017V12.4017V12.4016V12.4015V12.4014V12.4013V12.4013V12.4012V12.4011V12.401V12.4009V12.4008V12.4008V12.4007V12.4006V12.4005V12.4004V12.4004V12.4003V12.4002V12.4001V12.4V12.4V12.3999V12.3998V12.3997V12.3996V12.3996V12.3995V12.3994V12.3993V12.3992V12.3992V12.3991V12.399V12.3989V12.3988V12.3988V12.3987V12.3986V12.3985V12.3984V12.3984V12.3983V12.3982V12.3981V12.3981V12.398V12.3979V12.3978V12.3977V12.3977V12.3976V12.3975V12.3974V12.3974V12.3973V12.3972V12.3971V12.397V12.397V12.3969V12.3968V12.3967V12.3967V12.3966V12.3965V12.3964V12.3963V12.3963V12.3962V12.3961V12.396V12.396V12.3959V12.3958V12.3957V12.3956V12.3956V12.3955V12.3954V12.3953V12.3953V12.3952V12.3951V12.395V12.395V12.3949V12.3948V12.3947V12.3947V12.3946V12.3945V12.3944V12.3944V12.3943V12.3942V12.3941V12.394V12.394V12.3939V12.3938V12.3937V12.3937V12.3936V12.3935V12.3934V12.3934V12.3933V12.3932V12.3931V12.3931V12.393V12.3929V12.3928V12.3928V12.3927V12.3926V12.3925V12.3925V12.3924V12.3923V12.3922V12.3922V12.3921V12.392V12.3919V12.3919V12.3918V12.3917V12.3916V12.3916V12.3915V12.3914V12.3913V12.3913V12.3912V12.3911V12.391V12.391V12.3909V12.3908V12.3908V12.3907V12.3906V12.3905V12.3905V12.3904V12.3903V12.3902V12.3902V12.3901V12.39V12.3899V12.3899V12.3898V12.3897V12.3896V12.3896V12.3895V12.3894V12.3893V12.3893V12.3892V12.3891V12.3891V12.389V12.3889V12.3888V12.3888V12.3887V12.3886V12.3885V12.3885V12.3884V12.3883V12.3882V12.3882V12.3881V12.388V12.388V12.3879V12.3878V12.3877V12.3877V12.3876V12.3875V12.3874V12.3874V12.3873V12.3872V12.3872V12.3871V12.387V12.3869V12.3869V12.3868V12.3867V12.3866V12.3866V12.3865V12.3864V12.3864V12.3863V12.3862V12.3861V12.3861V12.386V12.3859V12.3858V12.3858V12.3857V12.3856V12.3855V12.3855V12.3854V12.3853V12.3853V12.3852V12.3851V12.385V12.385V12.3849V12.3848V12.3847V12.3847V12.3846V12.3845V12.3845V12.3844V12.3843V12.3842V12.3842V12.3841V12.384V12.384V12.3839V12.3838V12.3837V12.3837V12.3836V12.3835V12.3834V12.3834V12.3833V12.3832V12.3832V12.3831V12.383V12.3829V12.3829V12.3828V12.3827V12.3826V12.3826V12.3825V12.3824V12.3824V12.3823V12.3822V12.3821V12.3821V12.382V12.3819V12.3818V12.3818V12.3817V12.3816V12.3816V12.3815V12.3814V12.3813V12.3813V12.3812V12.3811V12.381V12.381V12.3809V12.3808V12.3807V12.3807V12.3806V12.3805V12.3805V12.3804V12.3803V12.3802V12.3802V12.3801V12.38V12.3799V12.3799V12.3798V12.3797V12.3797V12.3796V12.3795V12.3794V12.3794V12.3793V12.3792V12.3791V12.3791V12.379V12.3789V12.3788V12.3788V12.3787V12.3786V12.3786V12.3785V12.3784V12.3783V12.3783V12.3782V12.3781V12.378V12.378V12.3779V12.3778V12.3777V12.3777V12.3776V12.3775V12.3774V12.3774V12.3773V12.3772V12.3771V12.3771V12.377V12.3769V12.3769V12.3768V12.3767V12.3766V12.3766V12.3765V12.3764V12.3763V12.3763V12.3762V12.3761V12.376V12.376V12.3759V12.3758V12.3757V12.3757V12.3756V12.3755V12.3754V12.3754V12.3753V12.3752V12.3751V12.3751V12.375V12.3749V12.3748V12.3748V12.3747V12.3746V12.3745V12.3745V12.3744V12.3743V12.3742V12.3742V12.3741V12.374V12.3739V12.3739V12.3738V12.3737V12.3736V12.3736V12.3735V12.3734V12.3733V12.3732V12.3732V12.3731V12.373V12.3729V12.3729V12.3728V12.3727V12.3726V12.3726V12.3725V12.3724V12.3723V12.3723V12.3722V12.3721V12.372V12.3719V12.3719V12.3718V12.3717V12.3716V12.3716V12.3715V12.3714V12.3713V12.3712V12.3712V12.3711V12.371V12.3709V12.3709L15.2601 12.3393V12.3297L15.3094 12.2463L15.3365 12.218C15.3437 12.2139 15.3499 12.21 15.3546 12.2068C15.3617 12.203 15.3706 12.198 15.3802 12.1922C15.3816 12.1916 15.3834 12.191 15.3854 12.1902L15.3981 12.187C15.4042 12.1855 15.4089 12.1843 15.413 12.1833C15.4188 12.1818 15.4232 12.1807 15.4279 12.1795L16.9559 11.9494L17.0882 11.9295L17.145 11.8083L17.8212 10.3662C17.8212 10.3662 17.8212 10.3661 17.8212 10.3661C17.857 10.2899 17.9248 10.25 17.9943 10.25C18.0432 10.25 18.0943 10.2706 18.1331 10.3099C18.1353 10.3127 18.1373 10.3151 18.139 10.3172L18.1457 10.3253L18.149 10.3305C18.1646 10.3549 18.169 10.3625 18.1711 10.3669L18.1713 10.3672L18.8579 11.8129L18.9149 11.933L19.0464 11.9528L20.5798 12.1843L20.5798 12.1843L20.5812 12.1845C20.6501 12.1945 20.714 12.2458 20.7391 12.3277C20.7406 12.3371 20.7428 12.3476 20.746 12.3586V12.3643L20.7491 12.3777L20.7497 12.3881C20.7515 12.4226 20.7457 12.4551 20.7352 12.4799L20.7348 12.4798L20.7303 12.4923C20.7294 12.4947 20.7284 12.4971 20.7271 12.4998L20.7142 12.5187C20.7055 12.5314 20.6941 12.5454 20.6831 12.557L19.5742 13.6846L19.4851 13.7753L19.5058 13.9007L19.7687 15.4911C19.7822 15.5792 19.7496 15.659 19.6884 15.7069C19.6706 15.7196 19.6564 15.7277 19.6471 15.7321L19.6313 15.7372C19.6107 15.7439 19.5919 15.7466 19.5748 15.7466C19.5441 15.7466 19.5138 15.739 19.4869 15.7242L19.4864 15.724L18.1135 14.9725L17.9935 14.9068L17.8735 14.9725L16.5006 15.724L16.4928 15.7282L16.4853 15.733C16.4712 15.7421 16.4483 15.75 16.4166 15.75ZM19.6141 15.7451L19.6155 15.7444C19.615 15.7446 19.6143 15.745 19.6141 15.7451Z" stroke="url(#paint30_linear_286_243)" stroke-width="0.5"/>
<path d="M17.9943 10.2278V13.1726L17.0515 11.9157L17.7892 10.3598C17.8338 10.2743 17.9158 10.2278 17.9943 10.2278Z" fill="url(#paint31_linear_286_243)" fill-opacity="0.38"/>
<path d="M20.7712 12.333L17.9978 13.1734L18.9403 11.9165L20.5866 12.1657C20.6791 12.1833 20.7439 12.2509 20.7712 12.333Z" fill="url(#paint32_linear_286_243)"/>
<path d="M19.7093 15.7255L17.9949 13.1724L19.5182 13.7813L19.7981 15.4906C19.8184 15.5904 19.7774 15.6756 19.7093 15.7255Z" fill="url(#paint33_linear_286_243)"/>
<path d="M17.9942 13.1724V14.935L16.5221 15.7432C16.4368 15.7894 16.3479 15.7751 16.2795 15.7255L17.9942 13.1724Z" fill="url(#paint34_linear_286_243)"/>
<path d="M18.9374 11.9157L17.9946 13.1726V10.2278C18.0562 10.2278 18.1177 10.2526 18.162 10.3025C18.1688 10.3096 18.1756 10.3201 18.1825 10.331C18.1893 10.3418 18.1961 10.3524 18.1994 10.3629L18.9374 11.9157Z" fill="url(#paint35_linear_286_243)" fill-opacity="0.6"/>
<path d="M20.7641 12.4925C20.7573 12.5067 20.7504 12.521 20.7436 12.5352C20.7332 12.5495 20.7231 12.56 20.713 12.5743L19.5211 13.785L17.9978 13.1761L20.7712 12.3357C20.7712 12.3391 20.7745 12.3428 20.7745 12.3465C20.7745 12.3502 20.778 12.3537 20.778 12.3608C20.778 12.3645 20.778 12.3645 20.778 12.3645C20.778 12.3679 20.778 12.3716 20.778 12.375C20.778 12.3822 20.778 12.3859 20.778 12.3927C20.7813 12.4246 20.7778 12.4603 20.7641 12.4925Z" fill="url(#paint36_linear_286_243)"/>
<path d="M19.7093 15.7255C19.6924 15.7398 19.6718 15.7503 19.6478 15.7574C19.6445 15.7574 19.6445 15.7574 19.641 15.7609C19.5863 15.7785 19.5247 15.7751 19.4668 15.7432L17.9946 14.935V13.1724L19.7093 15.7255Z" fill="url(#paint37_linear_286_243)"/>
<path d="M17.9944 13.1724L16.28 15.7255C16.2767 15.7218 16.2732 15.7184 16.2699 15.7147C16.2666 15.7113 16.263 15.7075 16.2595 15.7038C16.2562 15.7004 16.2527 15.6967 16.2458 15.6896C16.2423 15.6862 16.239 15.6825 16.2354 15.6788C16.2319 15.675 16.2321 15.6753 16.2321 15.6716C16.2289 15.6682 16.2253 15.6645 16.2253 15.6608C16.2185 15.6502 16.2116 15.6394 16.2084 15.6289C16.2051 15.6254 16.2051 15.618 16.2015 15.6112C16.1982 15.6041 16.1982 15.6004 16.1947 15.5935C16.1914 15.5864 16.1914 15.5758 16.1914 15.5687C16.1914 15.5653 16.1914 15.5579 16.1914 15.5545C16.1914 15.5473 16.1914 15.5402 16.1914 15.5331C16.1914 15.5188 16.1914 15.5046 16.1947 15.4903L16.4747 13.781L17.9944 13.1724Z" fill="url(#paint38_linear_286_243)"/>
<path d="M17.9941 13.1724L15.2207 12.332C15.2207 12.3286 15.224 12.3249 15.224 12.3212C15.2273 12.3141 15.2273 12.3069 15.2308 12.3035C15.2377 12.2893 15.2445 12.2787 15.2513 12.2679C15.2546 12.2608 15.2582 12.257 15.265 12.2502C15.2686 12.2468 15.2718 12.2394 15.2787 12.2359C15.282 12.2325 15.2891 12.2254 15.2923 12.2217C15.2956 12.218 15.3025 12.2146 15.306 12.2109C15.3128 12.2074 15.3197 12.2 15.3265 12.1966C15.3298 12.1932 15.3366 12.1895 15.3435 12.1895C15.3539 12.1861 15.3604 12.1824 15.3708 12.1786C15.3741 12.1786 15.3777 12.1752 15.3845 12.1752C15.3913 12.1718 15.4014 12.1718 15.4118 12.1681L17.0582 11.9189L17.9941 13.1724Z" fill="url(#paint39_linear_286_243)"/>
<path d="M17.9946 13.1724L16.4748 13.7848L15.283 12.5741C15.2693 12.5632 15.2624 12.5493 15.2523 12.535C15.2455 12.5208 15.2354 12.5065 15.2318 12.4922C15.2285 12.4851 15.225 12.478 15.225 12.4709C15.2182 12.4495 15.2146 12.4247 15.2146 12.4033C15.2146 12.3962 15.2146 12.389 15.2146 12.3819C15.2146 12.3714 15.2146 12.3642 15.2182 12.3534C15.2182 12.35 15.2214 12.3463 15.2214 12.3392C15.2214 12.3357 15.2247 12.332 15.2247 12.3286L17.9946 13.1724Z" fill="url(#paint40_linear_286_243)"/>
</g>
</g>
<defs>
<filter id="filter0_d_286_243" x="4" y="7.18628" width="28" height="29.6274" filterUnits="userSpaceOnUse" color-interpolation-filters="sRGB">
<feFlood flood-opacity="0" result="BackgroundImageFix"/>
<feColorMatrix in="SourceAlpha" type="matrix" values="0 0 0 0 0 0 0 0 0 0 0 0 0 0 0 0 0 0 127 0" result="hardAlpha"/>
<feOffset dy="4"/>
<feGaussianBlur stdDeviation="2"/>
<feComposite in2="hardAlpha" operator="out"/>
<feColorMatrix type="matrix" values="0 0 0 0 0.512291 0 0 0 0 0.286279 0 0 0 0 1 0 0 0 0.17 0"/>
<feBlend mode="normal" in2="BackgroundImageFix" result="effect1_dropShadow_286_243"/>
<feBlend mode="normal" in="SourceGraphic" in2="effect1_dropShadow_286_243" result="shape"/>
</filter>
<filter id="filter1_d_286_243" x="6.625" y="6.49878" width="22.75" height="24.3774" filterUnits="userSpaceOnUse" color-interpolation-filters="sRGB">
<feFlood flood-opacity="0" result="BackgroundImageFix"/>
<feColorMatrix in="SourceAlpha" type="matrix" values="0 0 0 0 0 0 0 0 0 0 0 0 0 0 0 0 0 0 127 0" result="hardAlpha"/>
<feOffset dy="0.6875"/>
<feGaussianBlur stdDeviation="0.6875"/>
<feColorMatrix type="matrix" values="0 0 0 0 0.287239 0 0 0 0 0.155102 0 0 0 0 0.511019 0 0 0 1 0"/>
<feBlend mode="normal" in2="BackgroundImageFix" result="effect1_dropShadow_286_243"/>
<feBlend mode="normal" in="SourceGraphic" in2="effect1_dropShadow_286_243" result="shape"/>
</filter>
<filter id="filter2_d_286_243" x="9" y="16" width="10" height="10" filterUnits="userSpaceOnUse" color-interpolation-filters="sRGB">
<feFlood flood-opacity="0" result="BackgroundImageFix"/>
<feColorMatrix in="SourceAlpha" type="matrix" values="0 0 0 0 0 0 0 0 0 0 0 0 0 0 0 0 0 0 127 0" result="hardAlpha"/>
<feOffset dy="1"/>
<feGaussianBlur stdDeviation="1"/>
<feComposite in2="hardAlpha" operator="out"/>
<feColorMatrix type="matrix" values="0 0 0 0 1 0 0 0 0 1 0 0 0 0 1 0 0 0 0.5 0"/>
<feBlend mode="normal" in2="BackgroundImageFix" result="effect1_dropShadow_286_243"/>
<feBlend mode="normal" in="SourceGraphic" in2="effect1_dropShadow_286_243" result="shape"/>
</filter>
<filter id="filter3_d_286_243" x="17" y="16" width="10" height="10" filterUnits="userSpaceOnUse" color-interpolation-filters="sRGB">
<feFlood flood-opacity="0" result="BackgroundImageFix"/>
<feColorMatrix in="SourceAlpha" type="matrix" values="0 0 0 0 0 0 0 0 0 0 0 0 0 0 0 0 0 0 127 0" result="hardAlpha"/>
<feOffset dy="1"/>
<feGaussianBlur stdDeviation="1"/>
<feComposite in2="hardAlpha" operator="out"/>
<feColorMatrix type="matrix" values="0 0 0 0 1 0 0 0 0 1 0 0 0 0 1 0 0 0 0.5 0"/>
<feBlend mode="normal" in2="BackgroundImageFix" result="effect1_dropShadow_286_243"/>
<feBlend mode="normal" in="SourceGraphic" in2="effect1_dropShadow_286_243" result="shape"/>
</filter>
<filter id="filter4_d_286_243" x="13" y="9" width="10" height="10" filterUnits="userSpaceOnUse" color-interpolation-filters="sRGB">
<feFlood flood-opacity="0" result="BackgroundImageFix"/>
<feColorMatrix in="SourceAlpha" type="matrix" values="0 0 0 0 0 0 0 0 0 0 0 0 0 0 0 0 0 0 127 0" result="hardAlpha"/>
<feOffset dy="1"/>
<feGaussianBlur stdDeviation="1"/>
<feComposite in2="hardAlpha" operator="out"/>
<feColorMatrix type="matrix" values="0 0 0 0 1 0 0 0 0 1 0 0 0 0 1 0 0 0 0.5 0"/>
<feBlend mode="normal" in2="BackgroundImageFix" result="effect1_dropShadow_286_243"/>
<feBlend mode="normal" in="SourceGraphic" in2="effect1_dropShadow_286_243" result="shape"/>
</filter>
<linearGradient id="paint0_linear_286_243" x1="1.55063" y1="5" x2="1.55063" y2="37" gradientUnits="userSpaceOnUse">
<stop stop-color="#B28EFF"/>
<stop offset="0.48" stop-color="#8F6DD6"/>
</linearGradient>
<linearGradient id="paint1_linear_286_243" x1="5" y1="4" x2="5" y2="31.7032" gradientUnits="userSpaceOnUse">
<stop offset="0.06" stop-color="#A143FF"/>
<stop offset="0.46" stop-color="#8548F1"/>
<stop offset="0.73" stop-color="#6F3DC6"/>
</linearGradient>
<linearGradient id="paint2_linear_286_243" x1="14" y1="5.33398" x2="14" y2="6.96787" gradientUnits="userSpaceOnUse">
<stop offset="0.2" stop-color="#856DB9"/>
<stop offset="0.82" stop-color="#46247C"/>
</linearGradient>
<linearGradient id="paint3_linear_286_243" x1="6.52625" y1="7" x2="6.52625" y2="28.5111" gradientUnits="userSpaceOnUse">
<stop offset="0.205" stop-color="#9747FF"/>
<stop offset="0.64" stop-color="#7734CA"/>
</linearGradient>
<linearGradient id="paint4_linear_286_243" x1="23.0574" y1="25" x2="23" y2="27.6838" gradientUnits="userSpaceOnUse">
<stop offset="0.2" stop-color="#856DB9"/>
<stop offset="0.82" stop-color="#46247C"/>
</linearGradient>
<linearGradient id="paint5_linear_286_243" x1="12.5" y1="17" x2="15.2857" y2="22.7857" gradientUnits="userSpaceOnUse">
<stop stop-color="#E1E1E1" stop-opacity="0.33"/>
<stop offset="0.195" stop-color="#D1D0D0" stop-opacity="0.32"/>
<stop offset="0.76" stop-color="#D6D5D5" stop-opacity="0.58"/>
<stop offset="1" stop-color="#DBDBDB" stop-opacity="0.31"/>
</linearGradient>
<linearGradient id="paint6_linear_286_243" x1="12.5" y1="17" x2="15.2857" y2="22.7857" gradientUnits="userSpaceOnUse">
<stop stop-color="#D8D8D8"/>
<stop offset="0.195" stop-color="#D1D0D0" stop-opacity="0.32"/>
<stop offset="0.76" stop-color="#D6D5D5" stop-opacity="0.58"/>
<stop offset="1" stop-color="#DBDBDB" stop-opacity="0.31"/>
</linearGradient>
<linearGradient id="paint7_linear_286_243" x1="13.5232" y1="17.228" x2="14.0001" y2="20.2141" gradientUnits="userSpaceOnUse">
<stop stop-color="white" stop-opacity="0.54"/>
<stop offset="1" stop-color="#696969" stop-opacity="0.71"/>
</linearGradient>
<linearGradient id="paint8_linear_286_243" x1="16.6536" y1="18.9165" x2="14.1149" y2="20.1734" gradientUnits="userSpaceOnUse">
<stop stop-color="#ECE5E7" stop-opacity="0.14"/>
<stop offset="1" stop-color="#868283" stop-opacity="0.46"/>
</linearGradient>
<linearGradient id="paint9_linear_286_243" x1="14.643" y1="20.4283" x2="15.7195" y2="22.7255" gradientUnits="userSpaceOnUse">
<stop stop-color="#E1DCE2" stop-opacity="0.55"/>
<stop offset="1" stop-color="#B0B0B0" stop-opacity="0.5"/>
</linearGradient>
<linearGradient id="paint10_linear_286_243" x1="13.7856" y1="20.214" x2="13.1427" y2="22.5711" gradientUnits="userSpaceOnUse">
<stop stop-color="#E7E6E7" stop-opacity="0.56"/>
<stop offset="1" stop-color="#CBC5CB" stop-opacity="0.79"/>
</linearGradient>
<linearGradient id="paint11_linear_286_243" x1="14.6431" y1="17.2141" x2="14.0003" y2="20.2141" gradientUnits="userSpaceOnUse">
<stop offset="0.0246486" stop-color="#FAECDB" stop-opacity="0.49"/>
<stop offset="1" stop-color="#948C82" stop-opacity="0.38"/>
</linearGradient>
<linearGradient id="paint12_linear_286_243" x1="16.7859" y1="19.7859" x2="14.4287" y2="20.2144" gradientUnits="userSpaceOnUse">
<stop stop-color="#DAD3D9" stop-opacity="0.64"/>
<stop offset="1" stop-color="#B4B1B3" stop-opacity="0.45"/>
</linearGradient>
<linearGradient id="paint13_linear_286_243" x1="14.0003" y1="20.214" x2="15.286" y2="22.7854" gradientUnits="userSpaceOnUse">
<stop stop-color="#D5CFD6" stop-opacity="0.64"/>
<stop offset="1" stop-color="#A9A2AA" stop-opacity="0.43"/>
</linearGradient>
<linearGradient id="paint14_linear_286_243" x1="13.713" y1="20.1724" x2="12.0716" y2="22.5711" gradientUnits="userSpaceOnUse">
<stop stop-color="#D5D1D7" stop-opacity="0.92"/>
<stop offset="1" stop-color="#A5A0A8" stop-opacity="0.34"/>
</linearGradient>
<linearGradient id="paint15_linear_286_243" x1="12.0713" y1="18.9286" x2="13.7855" y2="20" gradientUnits="userSpaceOnUse">
<stop stop-color="#D6D1D8" stop-opacity="0.44"/>
<stop offset="1" stop-color="#ABA5AD" stop-opacity="0.24"/>
</linearGradient>
<linearGradient id="paint16_linear_286_243" x1="11.2426" y1="19.8607" x2="13.9661" y2="20.6002" gradientUnits="userSpaceOnUse">
<stop stop-color="#C3BFC5" stop-opacity="0.55"/>
<stop offset="1" stop-color="#E1E1E1" stop-opacity="0.45"/>
</linearGradient>
<linearGradient id="paint17_linear_286_243" x1="20.5" y1="17" x2="23.2857" y2="22.7857" gradientUnits="userSpaceOnUse">
<stop stop-color="#E1E1E1" stop-opacity="0.33"/>
<stop offset="0.195" stop-color="#D1D0D0" stop-opacity="0.32"/>
<stop offset="0.76" stop-color="#D6D5D5" stop-opacity="0.58"/>
<stop offset="1" stop-color="#DBDBDB" stop-opacity="0.31"/>
</linearGradient>
<linearGradient id="paint18_linear_286_243" x1="20.5" y1="17" x2="23.2857" y2="22.7857" gradientUnits="userSpaceOnUse">
<stop stop-color="#D8D8D8"/>
<stop offset="0.195" stop-color="#D1D0D0" stop-opacity="0.32"/>
<stop offset="0.76" stop-color="#D6D5D5" stop-opacity="0.58"/>
<stop offset="1" stop-color="#DBDBDB" stop-opacity="0.31"/>
</linearGradient>
<linearGradient id="paint19_linear_286_243" x1="21.5232" y1="17.228" x2="22.0001" y2="20.2141" gradientUnits="userSpaceOnUse">
<stop stop-color="white" stop-opacity="0.54"/>
<stop offset="1" stop-color="#696969" stop-opacity="0.71"/>
</linearGradient>
<linearGradient id="paint20_linear_286_243" x1="24.6536" y1="18.9165" x2="22.1149" y2="20.1734" gradientUnits="userSpaceOnUse">
<stop stop-color="#ECE5E7" stop-opacity="0.14"/>
<stop offset="1" stop-color="#868283" stop-opacity="0.46"/>
</linearGradient>
<linearGradient id="paint21_linear_286_243" x1="22.643" y1="20.4283" x2="23.7195" y2="22.7255" gradientUnits="userSpaceOnUse">
<stop stop-color="#E1DCE2" stop-opacity="0.55"/>
<stop offset="1" stop-color="#B0B0B0" stop-opacity="0.5"/>
</linearGradient>
<linearGradient id="paint22_linear_286_243" x1="21.7856" y1="20.214" x2="21.1427" y2="22.5711" gradientUnits="userSpaceOnUse">
<stop stop-color="#E7E6E7" stop-opacity="0.56"/>
<stop offset="1" stop-color="#CBC5CB" stop-opacity="0.79"/>
</linearGradient>
<linearGradient id="paint23_linear_286_243" x1="22.6431" y1="17.2141" x2="22.0003" y2="20.2141" gradientUnits="userSpaceOnUse">
<stop offset="0.0246486" stop-color="#FAECDB" stop-opacity="0.49"/>
<stop offset="1" stop-color="#948C82" stop-opacity="0.38"/>
</linearGradient>
<linearGradient id="paint24_linear_286_243" x1="24.7859" y1="19.7859" x2="22.4287" y2="20.2144" gradientUnits="userSpaceOnUse">
<stop stop-color="#DAD3D9" stop-opacity="0.64"/>
<stop offset="1" stop-color="#B4B1B3" stop-opacity="0.45"/>
</linearGradient>
<linearGradient id="paint25_linear_286_243" x1="22.0003" y1="20.214" x2="23.286" y2="22.7854" gradientUnits="userSpaceOnUse">
<stop stop-color="#D5CFD6" stop-opacity="0.64"/>
<stop offset="1" stop-color="#A9A2AA" stop-opacity="0.43"/>
</linearGradient>
<linearGradient id="paint26_linear_286_243" x1="21.713" y1="20.1724" x2="20.0716" y2="22.5711" gradientUnits="userSpaceOnUse">
<stop stop-color="#D5D1D7" stop-opacity="0.92"/>
<stop offset="1" stop-color="#A5A0A8" stop-opacity="0.34"/>
</linearGradient>
<linearGradient id="paint27_linear_286_243" x1="20.0713" y1="18.9286" x2="21.7855" y2="20" gradientUnits="userSpaceOnUse">
<stop stop-color="#D6D1D8" stop-opacity="0.44"/>
<stop offset="1" stop-color="#ABA5AD" stop-opacity="0.24"/>
</linearGradient>
<linearGradient id="paint28_linear_286_243" x1="19.2426" y1="19.8607" x2="21.9661" y2="20.6002" gradientUnits="userSpaceOnUse">
<stop stop-color="#C3BFC5" stop-opacity="0.55"/>
<stop offset="1" stop-color="#E1E1E1" stop-opacity="0.45"/>
</linearGradient>
<linearGradient id="paint29_linear_286_243" x1="16.5" y1="10" x2="19.2857" y2="15.7857" gradientUnits="userSpaceOnUse">
<stop stop-color="#E1E1E1" stop-opacity="0.33"/>
<stop offset="0.195" stop-color="#D1D0D0" stop-opacity="0.32"/>
<stop offset="0.76" stop-color="#D6D5D5" stop-opacity="0.58"/>
<stop offset="1" stop-color="#DBDBDB" stop-opacity="0.31"/>
</linearGradient>
<linearGradient id="paint30_linear_286_243" x1="16.5" y1="10" x2="19.2857" y2="15.7857" gradientUnits="userSpaceOnUse">
<stop stop-color="#D8D8D8"/>
<stop offset="0.195" stop-color="#D1D0D0" stop-opacity="0.32"/>
<stop offset="0.76" stop-color="#D6D5D5" stop-opacity="0.58"/>
<stop offset="1" stop-color="#DBDBDB" stop-opacity="0.31"/>
</linearGradient>
<linearGradient id="paint31_linear_286_243" x1="17.5229" y1="10.2278" x2="17.9999" y2="13.2139" gradientUnits="userSpaceOnUse">
<stop stop-color="white" stop-opacity="0.54"/>
<stop offset="1" stop-color="#696969" stop-opacity="0.71"/>
</linearGradient>
<linearGradient id="paint32_linear_286_243" x1="20.6539" y1="11.9165" x2="18.1151" y2="13.1734" gradientUnits="userSpaceOnUse">
<stop stop-color="#ECE5E7" stop-opacity="0.14"/>
<stop offset="1" stop-color="#868283" stop-opacity="0.46"/>
</linearGradient>
<linearGradient id="paint33_linear_286_243" x1="18.6433" y1="13.4283" x2="19.7197" y2="15.7255" gradientUnits="userSpaceOnUse">
<stop stop-color="#E1DCE2" stop-opacity="0.55"/>
<stop offset="1" stop-color="#B0B0B0" stop-opacity="0.5"/>
</linearGradient>
<linearGradient id="paint34_linear_286_243" x1="17.7858" y1="13.214" x2="17.143" y2="15.5711" gradientUnits="userSpaceOnUse">
<stop stop-color="#E7E6E7" stop-opacity="0.56"/>
<stop offset="1" stop-color="#CBC5CB" stop-opacity="0.79"/>
</linearGradient>
<linearGradient id="paint35_linear_286_243" x1="18.6431" y1="10.2139" x2="18.0003" y2="13.2139" gradientUnits="userSpaceOnUse">
<stop offset="0.0246486" stop-color="#FAECDB" stop-opacity="0.49"/>
<stop offset="1" stop-color="#948C82" stop-opacity="0.38"/>
</linearGradient>
<linearGradient id="paint36_linear_286_243" x1="20.7856" y1="12.7856" x2="18.4285" y2="13.2142" gradientUnits="userSpaceOnUse">
<stop stop-color="#DAD3D9" stop-opacity="0.64"/>
<stop offset="1" stop-color="#B4B1B3" stop-opacity="0.45"/>
</linearGradient>
<linearGradient id="paint37_linear_286_243" x1="18.0003" y1="13.214" x2="19.286" y2="15.7854" gradientUnits="userSpaceOnUse">
<stop stop-color="#D5CFD6" stop-opacity="0.64"/>
<stop offset="1" stop-color="#A9A2AA" stop-opacity="0.43"/>
</linearGradient>
<linearGradient id="paint38_linear_286_243" x1="17.713" y1="13.1724" x2="16.0716" y2="15.5711" gradientUnits="userSpaceOnUse">
<stop stop-color="#D5D1D7" stop-opacity="0.92"/>
<stop offset="1" stop-color="#A5A0A8" stop-opacity="0.34"/>
</linearGradient>
<linearGradient id="paint39_linear_286_243" x1="16.0713" y1="11.9286" x2="17.7855" y2="13" gradientUnits="userSpaceOnUse">
<stop stop-color="#D6D1D8" stop-opacity="0.44"/>
<stop offset="1" stop-color="#ABA5AD" stop-opacity="0.24"/>
</linearGradient>
<linearGradient id="paint40_linear_286_243" x1="15.2429" y1="12.8607" x2="17.9663" y2="13.6002" gradientUnits="userSpaceOnUse">
<stop stop-color="#C3BFC5" stop-opacity="0.55"/>
<stop offset="1" stop-color="#E1E1E1" stop-opacity="0.45"/>
</linearGradient>
<clipPath id="clip0_286_243">
<rect width="36" height="36" fill="white"/>
</clipPath>
</defs>
</svg>
