<svg width="36" height="36" viewBox="0 0 36 36" fill="none" xmlns="http://www.w3.org/2000/svg">
<g clip-path="url(#clip0_286_244)">
<path fill-rule="evenodd" clip-rule="evenodd" d="M16.5888 2.80642C17.4632 2.30672 18.5368 2.30672 19.4112 2.80642L30.5668 9.18103C31.4531 9.68746 32 10.6299 32 11.6507V24.3493C32 25.3701 31.4531 26.3125 30.5668 26.819L19.4112 33.1936C18.5368 33.6933 17.4632 33.6933 16.5888 33.1936L5.4332 26.819C4.54695 26.3125 4 25.3701 4 24.3493V11.6507C4 10.6299 4.54695 9.68746 5.4332 9.18103L16.5888 2.80642Z" fill="url(#paint0_linear_286_244)"/>
<path d="M19.151 4.29684C18.426 3.90105 17.5328 3.90105 16.8079 4.29684L6.17156 10.1148C5.4466 10.5105 5 11.242 5 12.0336L5 23.6695C5 24.4611 5.4466 25.1925 6.17156 25.5883L16.8249 31.7032C17.5498 32.0989 18.443 32.0989 19.168 31.7032L29.8284 25.5883C30.5534 25.1925 31 24.4611 31 23.6695V12.0336C31 11.242 30.5534 10.5105 29.8284 10.1148L19.151 4.29684Z" fill="url(#paint1_linear_286_244)" fill-opacity="0.7"/>
<path d="M16.83 5.33398C16.83 5.33398 14.833 6.48694 14 6.96787L16.83 5.33398Z" fill="url(#paint2_linear_286_244)"/>
<path d="M16.83 5.33398C16.83 5.33398 14.833 6.48694 14 6.96787" stroke="white" stroke-opacity="0.28" stroke-width="0.711111" stroke-linecap="round"/>
<g filter="url(#filter0_d_286_244)">
<g filter="url(#filter1_d_286_244)">
<path fill-rule="evenodd" clip-rule="evenodd" d="M17.3488 7.35023C17.7554 7.13155 18.2446 7.13155 18.6512 7.35023L27.2762 11.9886C27.722 12.2283 28 12.6935 28 13.1996V22.8004C28 23.3065 27.722 23.7717 27.2762 24.0114L18.6512 28.6498C18.2446 28.8685 17.7554 28.8685 17.3488 28.6498L8.72376 24.0114C8.27802 23.7717 8 23.3065 8 22.8004V13.1996C8 12.6935 8.27802 12.2283 8.72375 11.9886L17.3488 7.35023Z" fill="url(#paint3_linear_286_244)"/>
</g>
</g>
<g opacity="0.4">
<path d="M23 27.6838C25.095 26.4654 26.5794 25.6021 27.4532 25.0939L23 27.6838Z" fill="url(#paint4_linear_286_244)"/>
<path d="M23 27.6838C25.095 26.4654 26.5794 25.6021 27.4532 25.0939" stroke="white" stroke-opacity="0.62" stroke-width="0.711111" stroke-linecap="round"/>
</g>
<g filter="url(#filter2_d_286_244)">
<path d="M10.4166 19.75C10.3815 19.75 10.3454 19.7396 10.3073 19.7136L10.3 19.706L10.2887 19.6932L10.2848 19.6901L10.2803 19.6854L10.2791 19.6848C10.278 19.6836 10.2768 19.6822 10.2754 19.6807C10.2743 19.6791 10.2729 19.6773 10.2716 19.6756C10.2698 19.6733 10.2679 19.6707 10.2656 19.668L10.263 19.6639L10.2562 19.6531L10.2562 19.6531L10.2554 19.6518C10.2523 19.6469 10.2495 19.6418 10.2432 19.629C10.2418 19.6245 10.2403 19.6201 10.2389 19.6158L10.2362 19.6062C10.2351 19.6024 10.2336 19.5967 10.2318 19.5905C10.2308 19.5861 10.2297 19.5804 10.2278 19.5708C10.2276 19.57 10.2275 19.5692 10.2273 19.5684C10.2271 19.5664 10.2268 19.5645 10.2266 19.5628L10.2257 19.5575C10.2255 19.554 10.2252 19.5507 10.225 19.5479C10.2244 19.5414 10.2237 19.5354 10.2233 19.5318C10.2237 19.5259 10.2248 19.516 10.2275 19.4947L10.4897 17.9043L10.5104 17.7789L10.4213 17.6884L9.3124 16.5607C9.30144 16.5492 9.29117 16.5366 9.2835 16.5256C9.27184 16.5073 9.26832 16.4997 9.26688 16.4961C9.26616 16.4939 9.26549 16.492 9.2649 16.4904L9.2618 16.4819L9.26073 16.479L9.2603 16.4779L9.25988 16.4762C9.25294 16.4476 9.25 16.4251 9.25 16.4035V16.4034V16.4033V16.4032V16.4031V16.4031V16.403V16.4029V16.4028V16.4027V16.4026V16.4026V16.4025V16.4024V16.4023V16.4022V16.4022V16.4021V16.402V16.4019V16.4018V16.4017V16.4017V16.4016V16.4015V16.4014V16.4013V16.4013V16.4012V16.4011V16.401V16.4009V16.4008V16.4008V16.4007V16.4006V16.4005V16.4004V16.4004V16.4003V16.4002V16.4001V16.4V16.4V16.3999V16.3998V16.3997V16.3996V16.3996V16.3995V16.3994V16.3993V16.3992V16.3992V16.3991V16.399V16.3989V16.3988V16.3988V16.3987V16.3986V16.3985V16.3984V16.3984V16.3983V16.3982V16.3981V16.3981V16.398V16.3979V16.3978V16.3977V16.3977V16.3976V16.3975V16.3974V16.3974V16.3973V16.3972V16.3971V16.397V16.397V16.3969V16.3968V16.3967V16.3967V16.3966V16.3965V16.3964V16.3963V16.3963V16.3962V16.3961V16.396V16.396V16.3959V16.3958V16.3957V16.3956V16.3956V16.3955V16.3954V16.3953V16.3953V16.3952V16.3951V16.395V16.395V16.3949V16.3948V16.3947V16.3947V16.3946V16.3945V16.3944V16.3944V16.3943V16.3942V16.3941V16.394V16.394V16.3939V16.3938V16.3937V16.3937V16.3936V16.3935V16.3934V16.3934V16.3933V16.3932V16.3931V16.3931V16.393V16.3929V16.3928V16.3928V16.3927V16.3926V16.3925V16.3925V16.3924V16.3923V16.3922V16.3922V16.3921V16.392V16.3919V16.3919V16.3918V16.3917V16.3916V16.3916V16.3915V16.3914V16.3913V16.3913V16.3912V16.3911V16.391V16.391V16.3909V16.3908V16.3908V16.3907V16.3906V16.3905V16.3905V16.3904V16.3903V16.3902V16.3902V16.3901V16.39V16.3899V16.3899V16.3898V16.3897V16.3896V16.3896V16.3895V16.3894V16.3893V16.3893V16.3892V16.3891V16.3891V16.389V16.3889V16.3888V16.3888V16.3887V16.3886V16.3885V16.3885V16.3884V16.3883V16.3882V16.3882V16.3881V16.388V16.388V16.3879V16.3878V16.3877V16.3877V16.3876V16.3875V16.3874V16.3874V16.3873V16.3872V16.3872V16.3871V16.387V16.3869V16.3869V16.3868V16.3867V16.3866V16.3866V16.3865V16.3864V16.3864V16.3863V16.3862V16.3861V16.3861V16.386V16.3859V16.3858V16.3858V16.3857V16.3856V16.3855V16.3855V16.3854V16.3853V16.3853V16.3852V16.3851V16.385V16.385V16.3849V16.3848V16.3847V16.3847V16.3846V16.3845V16.3845V16.3844V16.3843V16.3842V16.3842V16.3841V16.384V16.384V16.3839V16.3838V16.3837V16.3837V16.3836V16.3835V16.3834V16.3834V16.3833V16.3832V16.3832V16.3831V16.383V16.3829V16.3829V16.3828V16.3827V16.3826V16.3826V16.3825V16.3824V16.3824V16.3823V16.3822V16.3821V16.3821V16.382V16.3819V16.3818V16.3818V16.3817V16.3816V16.3816V16.3815V16.3814V16.3813V16.3813V16.3812V16.3811V16.381V16.381V16.3809V16.3808V16.3807V16.3807V16.3806V16.3805V16.3805V16.3804V16.3803V16.3802V16.3802V16.3801V16.38V16.3799V16.3799V16.3798V16.3797V16.3797V16.3796V16.3795V16.3794V16.3794V16.3793V16.3792V16.3791V16.3791V16.379V16.3789V16.3788V16.3788V16.3787V16.3786V16.3786V16.3785V16.3784V16.3783V16.3783V16.3782V16.3781V16.378V16.378V16.3779V16.3778V16.3777V16.3777V16.3776V16.3775V16.3774V16.3774V16.3773V16.3772V16.3771V16.3771V16.377V16.3769V16.3769V16.3768V16.3767V16.3766V16.3766V16.3765V16.3764V16.3763V16.3763V16.3762V16.3761V16.376V16.376V16.3759V16.3758V16.3757V16.3757V16.3756V16.3755V16.3754V16.3754V16.3753V16.3752V16.3751V16.3751V16.375V16.3749V16.3748V16.3748V16.3747V16.3746V16.3745V16.3745V16.3744V16.3743V16.3742V16.3742V16.3741V16.374V16.3739V16.3739V16.3738V16.3737V16.3736V16.3736V16.3735V16.3734V16.3733V16.3732V16.3732V16.3731V16.373V16.3729V16.3729V16.3728V16.3727V16.3726V16.3726V16.3725V16.3724V16.3723V16.3723V16.3722V16.3721V16.372V16.3719V16.3719V16.3718V16.3717V16.3716V16.3716V16.3715V16.3714V16.3713V16.3712V16.3712V16.3711V16.371V16.3709V16.3709L9.26012 16.3393V16.3297L9.30936 16.2463L9.33649 16.218C9.34366 16.2139 9.34985 16.21 9.35455 16.2068C9.3617 16.203 9.37063 16.198 9.38019 16.1922C9.38163 16.1916 9.38335 16.191 9.38539 16.1902L9.3981 16.187C9.40419 16.1855 9.40895 16.1843 9.413 16.1833C9.41879 16.1818 9.42315 16.1807 9.42793 16.1795L10.9559 15.9494L11.0882 15.9295L11.145 15.8083L11.8212 14.3662C11.8212 14.3662 11.8212 14.3661 11.8212 14.3661C11.857 14.2899 11.9248 14.25 11.9943 14.25C12.0432 14.25 12.0943 14.2706 12.1331 14.3099C12.1353 14.3127 12.1373 14.3151 12.139 14.3172L12.1457 14.3253L12.149 14.3305C12.1646 14.3549 12.169 14.3625 12.1711 14.3669L12.1713 14.3672L12.8579 15.8129L12.9149 15.933L13.0464 15.9528L14.5798 16.1843L14.5798 16.1843L14.5812 16.1845C14.6501 16.1945 14.714 16.2458 14.7391 16.3277C14.7406 16.3371 14.7428 16.3476 14.746 16.3586V16.3643L14.7491 16.3777L14.7497 16.3881C14.7515 16.4226 14.7457 16.4551 14.7352 16.4799L14.7348 16.4798L14.7303 16.4923C14.7294 16.4947 14.7284 16.4971 14.7271 16.4998L14.7142 16.5187C14.7055 16.5314 14.6941 16.5454 14.6831 16.557L13.5742 17.6846L13.4851 17.7753L13.5058 17.9007L13.7687 19.4911C13.7822 19.5792 13.7496 19.659 13.6884 19.7069C13.6706 19.7196 13.6564 19.7277 13.6471 19.7321L13.6313 19.7372C13.6107 19.7439 13.5919 19.7466 13.5748 19.7466C13.5441 19.7466 13.5138 19.739 13.4869 19.7242L13.4864 19.724L12.1135 18.9725L11.9935 18.9068L11.8735 18.9725L10.5006 19.724L10.4928 19.7282L10.4853 19.733C10.4712 19.7421 10.4483 19.75 10.4166 19.75ZM13.6141 19.7451L13.6155 19.7444C13.615 19.7446 13.6143 19.745 13.6141 19.7451ZM9.36381 16.2005C9.36451 16.2 9.36434 16.2001 9.36349 16.2007L9.36381 16.2005Z" fill="white" stroke="url(#paint5_linear_286_244)" stroke-width="0.5"/>
<path d="M10.4166 19.75C10.3815 19.75 10.3454 19.7396 10.3073 19.7136L10.3 19.706L10.2887 19.6932L10.2848 19.6901L10.2803 19.6854L10.2791 19.6848C10.278 19.6836 10.2768 19.6822 10.2754 19.6807C10.2743 19.6791 10.2729 19.6773 10.2716 19.6756C10.2698 19.6733 10.2679 19.6707 10.2656 19.668L10.263 19.6639L10.2562 19.6531L10.2562 19.6531L10.2554 19.6518C10.2523 19.6469 10.2495 19.6418 10.2432 19.629C10.2418 19.6245 10.2403 19.6201 10.2389 19.6158L10.2362 19.6062C10.2351 19.6024 10.2336 19.5967 10.2318 19.5905C10.2308 19.5861 10.2297 19.5804 10.2278 19.5708C10.2276 19.57 10.2275 19.5692 10.2273 19.5684C10.2271 19.5664 10.2268 19.5645 10.2266 19.5628L10.2257 19.5575C10.2255 19.554 10.2252 19.5507 10.225 19.5479C10.2244 19.5414 10.2237 19.5354 10.2233 19.5318C10.2237 19.5259 10.2248 19.516 10.2275 19.4947L10.4897 17.9043L10.5104 17.7789L10.4213 17.6884L9.3124 16.5607C9.30144 16.5492 9.29117 16.5366 9.2835 16.5256C9.27184 16.5073 9.26832 16.4997 9.26688 16.4961C9.26616 16.4939 9.26549 16.492 9.2649 16.4904L9.2618 16.4819L9.26073 16.479L9.2603 16.4779L9.25988 16.4762C9.25294 16.4476 9.25 16.4251 9.25 16.4035V16.4034V16.4033V16.4032V16.4031V16.4031V16.403V16.4029V16.4028V16.4027V16.4026V16.4026V16.4025V16.4024V16.4023V16.4022V16.4022V16.4021V16.402V16.4019V16.4018V16.4017V16.4017V16.4016V16.4015V16.4014V16.4013V16.4013V16.4012V16.4011V16.401V16.4009V16.4008V16.4008V16.4007V16.4006V16.4005V16.4004V16.4004V16.4003V16.4002V16.4001V16.4V16.4V16.3999V16.3998V16.3997V16.3996V16.3996V16.3995V16.3994V16.3993V16.3992V16.3992V16.3991V16.399V16.3989V16.3988V16.3988V16.3987V16.3986V16.3985V16.3984V16.3984V16.3983V16.3982V16.3981V16.3981V16.398V16.3979V16.3978V16.3977V16.3977V16.3976V16.3975V16.3974V16.3974V16.3973V16.3972V16.3971V16.397V16.397V16.3969V16.3968V16.3967V16.3967V16.3966V16.3965V16.3964V16.3963V16.3963V16.3962V16.3961V16.396V16.396V16.3959V16.3958V16.3957V16.3956V16.3956V16.3955V16.3954V16.3953V16.3953V16.3952V16.3951V16.395V16.395V16.3949V16.3948V16.3947V16.3947V16.3946V16.3945V16.3944V16.3944V16.3943V16.3942V16.3941V16.394V16.394V16.3939V16.3938V16.3937V16.3937V16.3936V16.3935V16.3934V16.3934V16.3933V16.3932V16.3931V16.3931V16.393V16.3929V16.3928V16.3928V16.3927V16.3926V16.3925V16.3925V16.3924V16.3923V16.3922V16.3922V16.3921V16.392V16.3919V16.3919V16.3918V16.3917V16.3916V16.3916V16.3915V16.3914V16.3913V16.3913V16.3912V16.3911V16.391V16.391V16.3909V16.3908V16.3908V16.3907V16.3906V16.3905V16.3905V16.3904V16.3903V16.3902V16.3902V16.3901V16.39V16.3899V16.3899V16.3898V16.3897V16.3896V16.3896V16.3895V16.3894V16.3893V16.3893V16.3892V16.3891V16.3891V16.389V16.3889V16.3888V16.3888V16.3887V16.3886V16.3885V16.3885V16.3884V16.3883V16.3882V16.3882V16.3881V16.388V16.388V16.3879V16.3878V16.3877V16.3877V16.3876V16.3875V16.3874V16.3874V16.3873V16.3872V16.3872V16.3871V16.387V16.3869V16.3869V16.3868V16.3867V16.3866V16.3866V16.3865V16.3864V16.3864V16.3863V16.3862V16.3861V16.3861V16.386V16.3859V16.3858V16.3858V16.3857V16.3856V16.3855V16.3855V16.3854V16.3853V16.3853V16.3852V16.3851V16.385V16.385V16.3849V16.3848V16.3847V16.3847V16.3846V16.3845V16.3845V16.3844V16.3843V16.3842V16.3842V16.3841V16.384V16.384V16.3839V16.3838V16.3837V16.3837V16.3836V16.3835V16.3834V16.3834V16.3833V16.3832V16.3832V16.3831V16.383V16.3829V16.3829V16.3828V16.3827V16.3826V16.3826V16.3825V16.3824V16.3824V16.3823V16.3822V16.3821V16.3821V16.382V16.3819V16.3818V16.3818V16.3817V16.3816V16.3816V16.3815V16.3814V16.3813V16.3813V16.3812V16.3811V16.381V16.381V16.3809V16.3808V16.3807V16.3807V16.3806V16.3805V16.3805V16.3804V16.3803V16.3802V16.3802V16.3801V16.38V16.3799V16.3799V16.3798V16.3797V16.3797V16.3796V16.3795V16.3794V16.3794V16.3793V16.3792V16.3791V16.3791V16.379V16.3789V16.3788V16.3788V16.3787V16.3786V16.3786V16.3785V16.3784V16.3783V16.3783V16.3782V16.3781V16.378V16.378V16.3779V16.3778V16.3777V16.3777V16.3776V16.3775V16.3774V16.3774V16.3773V16.3772V16.3771V16.3771V16.377V16.3769V16.3769V16.3768V16.3767V16.3766V16.3766V16.3765V16.3764V16.3763V16.3763V16.3762V16.3761V16.376V16.376V16.3759V16.3758V16.3757V16.3757V16.3756V16.3755V16.3754V16.3754V16.3753V16.3752V16.3751V16.3751V16.375V16.3749V16.3748V16.3748V16.3747V16.3746V16.3745V16.3745V16.3744V16.3743V16.3742V16.3742V16.3741V16.374V16.3739V16.3739V16.3738V16.3737V16.3736V16.3736V16.3735V16.3734V16.3733V16.3732V16.3732V16.3731V16.373V16.3729V16.3729V16.3728V16.3727V16.3726V16.3726V16.3725V16.3724V16.3723V16.3723V16.3722V16.3721V16.372V16.3719V16.3719V16.3718V16.3717V16.3716V16.3716V16.3715V16.3714V16.3713V16.3712V16.3712V16.3711V16.371V16.3709V16.3709L9.26012 16.3393V16.3297L9.30936 16.2463L9.33649 16.218C9.34366 16.2139 9.34985 16.21 9.35455 16.2068C9.3617 16.203 9.37063 16.198 9.38019 16.1922C9.38163 16.1916 9.38335 16.191 9.38539 16.1902L9.3981 16.187C9.40419 16.1855 9.40895 16.1843 9.413 16.1833C9.41879 16.1818 9.42315 16.1807 9.42793 16.1795L10.9559 15.9494L11.0882 15.9295L11.145 15.8083L11.8212 14.3662C11.8212 14.3662 11.8212 14.3661 11.8212 14.3661C11.857 14.2899 11.9248 14.25 11.9943 14.25C12.0432 14.25 12.0943 14.2706 12.1331 14.3099C12.1353 14.3127 12.1373 14.3151 12.139 14.3172L12.1457 14.3253L12.149 14.3305C12.1646 14.3549 12.169 14.3625 12.1711 14.3669L12.1713 14.3672L12.8579 15.8129L12.9149 15.933L13.0464 15.9528L14.5798 16.1843L14.5798 16.1843L14.5812 16.1845C14.6501 16.1945 14.714 16.2458 14.7391 16.3277C14.7406 16.3371 14.7428 16.3476 14.746 16.3586V16.3643L14.7491 16.3777L14.7497 16.3881C14.7515 16.4226 14.7457 16.4551 14.7352 16.4799L14.7348 16.4798L14.7303 16.4923C14.7294 16.4947 14.7284 16.4971 14.7271 16.4998L14.7142 16.5187C14.7055 16.5314 14.6941 16.5454 14.6831 16.557L13.5742 17.6846L13.4851 17.7753L13.5058 17.9007L13.7687 19.4911C13.7822 19.5792 13.7496 19.659 13.6884 19.7069C13.6706 19.7196 13.6564 19.7277 13.6471 19.7321L13.6313 19.7372C13.6107 19.7439 13.5919 19.7466 13.5748 19.7466C13.5441 19.7466 13.5138 19.739 13.4869 19.7242L13.4864 19.724L12.1135 18.9725L11.9935 18.9068L11.8735 18.9725L10.5006 19.724L10.4928 19.7282L10.4853 19.733C10.4712 19.7421 10.4483 19.75 10.4166 19.75ZM13.6141 19.7451L13.6155 19.7444C13.615 19.7446 13.6143 19.745 13.6141 19.7451ZM9.36381 16.2005C9.36451 16.2 9.36434 16.2001 9.36349 16.2007L9.36381 16.2005Z" stroke="url(#paint6_linear_286_244)" stroke-width="0.5"/>
<path d="M11.9945 14.228V17.1729L11.0518 15.916L11.7895 14.36C11.834 14.2745 11.9161 14.228 11.9945 14.228Z" fill="url(#paint7_linear_286_244)" fill-opacity="0.38"/>
<path d="M14.771 16.3328L11.9976 17.1732L12.9401 15.9163L14.5864 16.1654C14.6788 16.1831 14.7436 16.2507 14.771 16.3328Z" fill="url(#paint8_linear_286_244)"/>
<path d="M13.709 19.7258L11.9946 17.1726L13.5179 17.7815L13.7979 19.4908C13.8181 19.5906 13.7771 19.6759 13.709 19.7258Z" fill="url(#paint9_linear_286_244)"/>
<path d="M11.9942 17.1726V18.9352L10.5221 19.7434C10.4368 19.7896 10.3479 19.7754 10.2795 19.7258L11.9942 17.1726Z" fill="url(#paint10_linear_286_244)"/>
<path d="M12.9372 15.916L11.9944 17.1729V14.228C12.0559 14.228 12.1174 14.2528 12.1617 14.3027C12.1686 14.3098 12.1754 14.3204 12.1822 14.3312C12.1891 14.3421 12.1959 14.3526 12.1992 14.3632L12.9372 15.916Z" fill="url(#paint11_linear_286_244)" fill-opacity="0.6"/>
<path d="M14.7643 16.4925C14.7575 16.5067 14.7507 16.521 14.7438 16.5352C14.7334 16.5495 14.7233 16.56 14.7132 16.5743L13.5213 17.785L11.998 17.1761L14.7714 16.3357C14.7714 16.3391 14.7747 16.3428 14.7747 16.3465C14.7747 16.3502 14.7783 16.3537 14.7783 16.3608C14.7783 16.3645 14.7783 16.3645 14.7783 16.3645C14.7783 16.3679 14.7783 16.3716 14.7783 16.375C14.7783 16.3822 14.7783 16.3859 14.7783 16.3927C14.7816 16.4246 14.778 16.4603 14.7643 16.4925Z" fill="url(#paint12_linear_286_244)"/>
<path d="M13.7091 19.7258C13.6921 19.74 13.6716 19.7506 13.6475 19.7577C13.6443 19.7577 13.6443 19.7577 13.6407 19.7611C13.586 19.7788 13.5245 19.7754 13.4665 19.7434L11.9944 18.9352V17.1726L13.7091 19.7258Z" fill="url(#paint13_linear_286_244)"/>
<path d="M11.9944 17.1726L10.28 19.7258C10.2767 19.722 10.2732 19.7186 10.2699 19.7149C10.2666 19.7115 10.263 19.7078 10.2595 19.7041C10.2562 19.7007 10.2527 19.697 10.2458 19.6898C10.2423 19.6864 10.239 19.6827 10.2354 19.679C10.2319 19.6753 10.2321 19.6756 10.2321 19.6719C10.2289 19.6684 10.2253 19.6647 10.2253 19.661C10.2185 19.6505 10.2116 19.6397 10.2084 19.6291C10.2051 19.6257 10.2051 19.6183 10.2015 19.6114C10.1982 19.6043 10.1982 19.6006 10.1947 19.5938C10.1914 19.5866 10.1914 19.5761 10.1914 19.569C10.1914 19.5655 10.1914 19.5581 10.1914 19.5547C10.1914 19.5476 10.1914 19.5405 10.1914 19.5333C10.1914 19.5191 10.1914 19.5048 10.1947 19.4906L10.4747 17.7812L11.9944 17.1726Z" fill="url(#paint14_linear_286_244)"/>
<path d="M11.9943 17.1724L9.22095 16.332C9.22095 16.3286 9.22423 16.3249 9.22423 16.3212C9.22751 16.3141 9.22751 16.3069 9.23106 16.3035C9.2379 16.2893 9.24474 16.2787 9.25157 16.2679C9.25485 16.2608 9.25841 16.257 9.26524 16.2502C9.2688 16.2468 9.27208 16.2394 9.27891 16.2359C9.2822 16.2325 9.28931 16.2254 9.29259 16.2217C9.29587 16.218 9.3027 16.2146 9.30626 16.2109C9.31309 16.2074 9.31993 16.2 9.32676 16.1966C9.33005 16.1932 9.33688 16.1895 9.34372 16.1895C9.35411 16.1861 9.36067 16.1824 9.37106 16.1786C9.37434 16.1786 9.3779 16.1752 9.38473 16.1752C9.39157 16.1718 9.40168 16.1718 9.41207 16.1681L11.0584 15.9189L11.9943 17.1724Z" fill="url(#paint15_linear_286_244)"/>
<path d="M11.9941 17.1727L10.4743 17.785L9.28247 16.5743C9.2688 16.5635 9.26196 16.5495 9.25184 16.5353C9.24501 16.521 9.23489 16.5067 9.23134 16.4925C9.22806 16.4854 9.2245 16.4782 9.2245 16.4711C9.21767 16.4497 9.21411 16.4249 9.21411 16.4035C9.21411 16.3964 9.21411 16.3893 9.21411 16.3822C9.21411 16.3716 9.21411 16.3645 9.21767 16.3537C9.21767 16.3502 9.22095 16.3465 9.22095 16.3394C9.22095 16.336 9.22423 16.3323 9.22423 16.3289L11.9941 17.1727Z" fill="url(#paint16_linear_286_244)"/>
</g>
<g filter="url(#filter3_d_286_244)">
<path d="M22.4166 19.75C22.3815 19.75 22.3454 19.7396 22.3073 19.7136L22.3 19.706L22.2887 19.6932L22.2848 19.6901L22.2803 19.6854L22.2791 19.6848C22.278 19.6836 22.2768 19.6822 22.2754 19.6807C22.2743 19.6791 22.2729 19.6773 22.2716 19.6756C22.2698 19.6733 22.2679 19.6707 22.2656 19.668L22.263 19.6639L22.2562 19.6531L22.2562 19.6531L22.2554 19.6518C22.2523 19.6469 22.2495 19.6418 22.2432 19.629C22.2418 19.6245 22.2403 19.6201 22.2389 19.6158L22.2362 19.6062C22.2351 19.6024 22.2336 19.5967 22.2318 19.5905C22.2308 19.5861 22.2297 19.5804 22.2278 19.5708C22.2276 19.57 22.2275 19.5692 22.2273 19.5684C22.2271 19.5664 22.2268 19.5645 22.2266 19.5628L22.2257 19.5575C22.2255 19.554 22.2252 19.5507 22.225 19.5479C22.2244 19.5414 22.2237 19.5354 22.2233 19.5318C22.2237 19.5259 22.2248 19.516 22.2275 19.4947L22.4897 17.9043L22.5104 17.7789L22.4213 17.6884L21.3124 16.5607C21.3014 16.5492 21.2912 16.5366 21.2835 16.5256C21.2718 16.5073 21.2683 16.4997 21.2669 16.4961C21.2662 16.4939 21.2655 16.492 21.2649 16.4904L21.2618 16.4819L21.2607 16.479L21.2603 16.4779L21.2599 16.4762C21.2529 16.4476 21.25 16.4251 21.25 16.4035V16.4034V16.4033V16.4032V16.4031V16.4031V16.403V16.4029V16.4028V16.4027V16.4026V16.4026V16.4025V16.4024V16.4023V16.4022V16.4022V16.4021V16.402V16.4019V16.4018V16.4017V16.4017V16.4016V16.4015V16.4014V16.4013V16.4013V16.4012V16.4011V16.401V16.4009V16.4008V16.4008V16.4007V16.4006V16.4005V16.4004V16.4004V16.4003V16.4002V16.4001V16.4V16.4V16.3999V16.3998V16.3997V16.3996V16.3996V16.3995V16.3994V16.3993V16.3992V16.3992V16.3991V16.399V16.3989V16.3988V16.3988V16.3987V16.3986V16.3985V16.3984V16.3984V16.3983V16.3982V16.3981V16.3981V16.398V16.3979V16.3978V16.3977V16.3977V16.3976V16.3975V16.3974V16.3974V16.3973V16.3972V16.3971V16.397V16.397V16.3969V16.3968V16.3967V16.3967V16.3966V16.3965V16.3964V16.3963V16.3963V16.3962V16.3961V16.396V16.396V16.3959V16.3958V16.3957V16.3956V16.3956V16.3955V16.3954V16.3953V16.3953V16.3952V16.3951V16.395V16.395V16.3949V16.3948V16.3947V16.3947V16.3946V16.3945V16.3944V16.3944V16.3943V16.3942V16.3941V16.394V16.394V16.3939V16.3938V16.3937V16.3937V16.3936V16.3935V16.3934V16.3934V16.3933V16.3932V16.3931V16.3931V16.393V16.3929V16.3928V16.3928V16.3927V16.3926V16.3925V16.3925V16.3924V16.3923V16.3922V16.3922V16.3921V16.392V16.3919V16.3919V16.3918V16.3917V16.3916V16.3916V16.3915V16.3914V16.3913V16.3913V16.3912V16.3911V16.391V16.391V16.3909V16.3908V16.3908V16.3907V16.3906V16.3905V16.3905V16.3904V16.3903V16.3902V16.3902V16.3901V16.39V16.3899V16.3899V16.3898V16.3897V16.3896V16.3896V16.3895V16.3894V16.3893V16.3893V16.3892V16.3891V16.3891V16.389V16.3889V16.3888V16.3888V16.3887V16.3886V16.3885V16.3885V16.3884V16.3883V16.3882V16.3882V16.3881V16.388V16.388V16.3879V16.3878V16.3877V16.3877V16.3876V16.3875V16.3874V16.3874V16.3873V16.3872V16.3872V16.3871V16.387V16.3869V16.3869V16.3868V16.3867V16.3866V16.3866V16.3865V16.3864V16.3864V16.3863V16.3862V16.3861V16.3861V16.386V16.3859V16.3858V16.3858V16.3857V16.3856V16.3855V16.3855V16.3854V16.3853V16.3853V16.3852V16.3851V16.385V16.385V16.3849V16.3848V16.3847V16.3847V16.3846V16.3845V16.3845V16.3844V16.3843V16.3842V16.3842V16.3841V16.384V16.384V16.3839V16.3838V16.3837V16.3837V16.3836V16.3835V16.3834V16.3834V16.3833V16.3832V16.3832V16.3831V16.383V16.3829V16.3829V16.3828V16.3827V16.3826V16.3826V16.3825V16.3824V16.3824V16.3823V16.3822V16.3821V16.3821V16.382V16.3819V16.3818V16.3818V16.3817V16.3816V16.3816V16.3815V16.3814V16.3813V16.3813V16.3812V16.3811V16.381V16.381V16.3809V16.3808V16.3807V16.3807V16.3806V16.3805V16.3805V16.3804V16.3803V16.3802V16.3802V16.3801V16.38V16.3799V16.3799V16.3798V16.3797V16.3797V16.3796V16.3795V16.3794V16.3794V16.3793V16.3792V16.3791V16.3791V16.379V16.3789V16.3788V16.3788V16.3787V16.3786V16.3786V16.3785V16.3784V16.3783V16.3783V16.3782V16.3781V16.378V16.378V16.3779V16.3778V16.3777V16.3777V16.3776V16.3775V16.3774V16.3774V16.3773V16.3772V16.3771V16.3771V16.377V16.3769V16.3769V16.3768V16.3767V16.3766V16.3766V16.3765V16.3764V16.3763V16.3763V16.3762V16.3761V16.376V16.376V16.3759V16.3758V16.3757V16.3757V16.3756V16.3755V16.3754V16.3754V16.3753V16.3752V16.3751V16.3751V16.375V16.3749V16.3748V16.3748V16.3747V16.3746V16.3745V16.3745V16.3744V16.3743V16.3742V16.3742V16.3741V16.374V16.3739V16.3739V16.3738V16.3737V16.3736V16.3736V16.3735V16.3734V16.3733V16.3732V16.3732V16.3731V16.373V16.3729V16.3729V16.3728V16.3727V16.3726V16.3726V16.3725V16.3724V16.3723V16.3723V16.3722V16.3721V16.372V16.3719V16.3719V16.3718V16.3717V16.3716V16.3716V16.3715V16.3714V16.3713V16.3712V16.3712V16.3711V16.371V16.3709V16.3709L21.2601 16.3393V16.3297L21.3094 16.2463L21.3365 16.218C21.3437 16.2139 21.3499 16.21 21.3546 16.2068C21.3617 16.203 21.3706 16.198 21.3802 16.1922C21.3816 16.1916 21.3834 16.191 21.3854 16.1902L21.3981 16.187C21.4042 16.1855 21.4089 16.1843 21.413 16.1833C21.4188 16.1818 21.4232 16.1807 21.4279 16.1795L22.9559 15.9494L23.0882 15.9295L23.145 15.8083L23.8212 14.3662C23.8212 14.3662 23.8212 14.3661 23.8212 14.3661C23.857 14.2899 23.9248 14.25 23.9943 14.25C24.0432 14.25 24.0943 14.2706 24.1331 14.3099C24.1353 14.3127 24.1373 14.3151 24.139 14.3172L24.1457 14.3253L24.149 14.3305C24.1646 14.3549 24.169 14.3625 24.1711 14.3669L24.1713 14.3672L24.8579 15.8129L24.9149 15.933L25.0464 15.9528L26.5798 16.1843L26.5798 16.1843L26.5812 16.1845C26.6501 16.1945 26.714 16.2458 26.7391 16.3277C26.7406 16.3371 26.7428 16.3476 26.746 16.3586V16.3643L26.7491 16.3777L26.7497 16.3881C26.7515 16.4226 26.7457 16.4551 26.7352 16.4799L26.7348 16.4798L26.7303 16.4923C26.7294 16.4947 26.7284 16.4971 26.7271 16.4998L26.7142 16.5187C26.7055 16.5314 26.6941 16.5454 26.6831 16.557L25.5742 17.6846L25.4851 17.7753L25.5058 17.9007L25.7687 19.4911C25.7822 19.5792 25.7496 19.659 25.6884 19.7069C25.6706 19.7196 25.6564 19.7277 25.6471 19.7321L25.6313 19.7372C25.6107 19.7439 25.5919 19.7466 25.5748 19.7466C25.5441 19.7466 25.5138 19.739 25.4869 19.7242L25.4864 19.724L24.1135 18.9725L23.9935 18.9068L23.8735 18.9725L22.5006 19.724L22.4928 19.7282L22.4853 19.733C22.4712 19.7421 22.4483 19.75 22.4166 19.75ZM25.6141 19.7451L25.6155 19.7444C25.615 19.7446 25.6143 19.745 25.6141 19.7451ZM21.3638 16.2005C21.3645 16.2 21.3643 16.2001 21.3635 16.2007L21.3638 16.2005Z" fill="white" stroke="url(#paint17_linear_286_244)" stroke-width="0.5"/>
<path d="M22.4166 19.75C22.3815 19.75 22.3454 19.7396 22.3073 19.7136L22.3 19.706L22.2887 19.6932L22.2848 19.6901L22.2803 19.6854L22.2791 19.6848C22.278 19.6836 22.2768 19.6822 22.2754 19.6807C22.2743 19.6791 22.2729 19.6773 22.2716 19.6756C22.2698 19.6733 22.2679 19.6707 22.2656 19.668L22.263 19.6639L22.2562 19.6531L22.2562 19.6531L22.2554 19.6518C22.2523 19.6469 22.2495 19.6418 22.2432 19.629C22.2418 19.6245 22.2403 19.6201 22.2389 19.6158L22.2362 19.6062C22.2351 19.6024 22.2336 19.5967 22.2318 19.5905C22.2308 19.5861 22.2297 19.5804 22.2278 19.5708C22.2276 19.57 22.2275 19.5692 22.2273 19.5684C22.2271 19.5664 22.2268 19.5645 22.2266 19.5628L22.2257 19.5575C22.2255 19.554 22.2252 19.5507 22.225 19.5479C22.2244 19.5414 22.2237 19.5354 22.2233 19.5318C22.2237 19.5259 22.2248 19.516 22.2275 19.4947L22.4897 17.9043L22.5104 17.7789L22.4213 17.6884L21.3124 16.5607C21.3014 16.5492 21.2912 16.5366 21.2835 16.5256C21.2718 16.5073 21.2683 16.4997 21.2669 16.4961C21.2662 16.4939 21.2655 16.492 21.2649 16.4904L21.2618 16.4819L21.2607 16.479L21.2603 16.4779L21.2599 16.4762C21.2529 16.4476 21.25 16.4251 21.25 16.4035V16.4034V16.4033V16.4032V16.4031V16.4031V16.403V16.4029V16.4028V16.4027V16.4026V16.4026V16.4025V16.4024V16.4023V16.4022V16.4022V16.4021V16.402V16.4019V16.4018V16.4017V16.4017V16.4016V16.4015V16.4014V16.4013V16.4013V16.4012V16.4011V16.401V16.4009V16.4008V16.4008V16.4007V16.4006V16.4005V16.4004V16.4004V16.4003V16.4002V16.4001V16.4V16.4V16.3999V16.3998V16.3997V16.3996V16.3996V16.3995V16.3994V16.3993V16.3992V16.3992V16.3991V16.399V16.3989V16.3988V16.3988V16.3987V16.3986V16.3985V16.3984V16.3984V16.3983V16.3982V16.3981V16.3981V16.398V16.3979V16.3978V16.3977V16.3977V16.3976V16.3975V16.3974V16.3974V16.3973V16.3972V16.3971V16.397V16.397V16.3969V16.3968V16.3967V16.3967V16.3966V16.3965V16.3964V16.3963V16.3963V16.3962V16.3961V16.396V16.396V16.3959V16.3958V16.3957V16.3956V16.3956V16.3955V16.3954V16.3953V16.3953V16.3952V16.3951V16.395V16.395V16.3949V16.3948V16.3947V16.3947V16.3946V16.3945V16.3944V16.3944V16.3943V16.3942V16.3941V16.394V16.394V16.3939V16.3938V16.3937V16.3937V16.3936V16.3935V16.3934V16.3934V16.3933V16.3932V16.3931V16.3931V16.393V16.3929V16.3928V16.3928V16.3927V16.3926V16.3925V16.3925V16.3924V16.3923V16.3922V16.3922V16.3921V16.392V16.3919V16.3919V16.3918V16.3917V16.3916V16.3916V16.3915V16.3914V16.3913V16.3913V16.3912V16.3911V16.391V16.391V16.3909V16.3908V16.3908V16.3907V16.3906V16.3905V16.3905V16.3904V16.3903V16.3902V16.3902V16.3901V16.39V16.3899V16.3899V16.3898V16.3897V16.3896V16.3896V16.3895V16.3894V16.3893V16.3893V16.3892V16.3891V16.3891V16.389V16.3889V16.3888V16.3888V16.3887V16.3886V16.3885V16.3885V16.3884V16.3883V16.3882V16.3882V16.3881V16.388V16.388V16.3879V16.3878V16.3877V16.3877V16.3876V16.3875V16.3874V16.3874V16.3873V16.3872V16.3872V16.3871V16.387V16.3869V16.3869V16.3868V16.3867V16.3866V16.3866V16.3865V16.3864V16.3864V16.3863V16.3862V16.3861V16.3861V16.386V16.3859V16.3858V16.3858V16.3857V16.3856V16.3855V16.3855V16.3854V16.3853V16.3853V16.3852V16.3851V16.385V16.385V16.3849V16.3848V16.3847V16.3847V16.3846V16.3845V16.3845V16.3844V16.3843V16.3842V16.3842V16.3841V16.384V16.384V16.3839V16.3838V16.3837V16.3837V16.3836V16.3835V16.3834V16.3834V16.3833V16.3832V16.3832V16.3831V16.383V16.3829V16.3829V16.3828V16.3827V16.3826V16.3826V16.3825V16.3824V16.3824V16.3823V16.3822V16.3821V16.3821V16.382V16.3819V16.3818V16.3818V16.3817V16.3816V16.3816V16.3815V16.3814V16.3813V16.3813V16.3812V16.3811V16.381V16.381V16.3809V16.3808V16.3807V16.3807V16.3806V16.3805V16.3805V16.3804V16.3803V16.3802V16.3802V16.3801V16.38V16.3799V16.3799V16.3798V16.3797V16.3797V16.3796V16.3795V16.3794V16.3794V16.3793V16.3792V16.3791V16.3791V16.379V16.3789V16.3788V16.3788V16.3787V16.3786V16.3786V16.3785V16.3784V16.3783V16.3783V16.3782V16.3781V16.378V16.378V16.3779V16.3778V16.3777V16.3777V16.3776V16.3775V16.3774V16.3774V16.3773V16.3772V16.3771V16.3771V16.377V16.3769V16.3769V16.3768V16.3767V16.3766V16.3766V16.3765V16.3764V16.3763V16.3763V16.3762V16.3761V16.376V16.376V16.3759V16.3758V16.3757V16.3757V16.3756V16.3755V16.3754V16.3754V16.3753V16.3752V16.3751V16.3751V16.375V16.3749V16.3748V16.3748V16.3747V16.3746V16.3745V16.3745V16.3744V16.3743V16.3742V16.3742V16.3741V16.374V16.3739V16.3739V16.3738V16.3737V16.3736V16.3736V16.3735V16.3734V16.3733V16.3732V16.3732V16.3731V16.373V16.3729V16.3729V16.3728V16.3727V16.3726V16.3726V16.3725V16.3724V16.3723V16.3723V16.3722V16.3721V16.372V16.3719V16.3719V16.3718V16.3717V16.3716V16.3716V16.3715V16.3714V16.3713V16.3712V16.3712V16.3711V16.371V16.3709V16.3709L21.2601 16.3393V16.3297L21.3094 16.2463L21.3365 16.218C21.3437 16.2139 21.3499 16.21 21.3546 16.2068C21.3617 16.203 21.3706 16.198 21.3802 16.1922C21.3816 16.1916 21.3834 16.191 21.3854 16.1902L21.3981 16.187C21.4042 16.1855 21.4089 16.1843 21.413 16.1833C21.4188 16.1818 21.4232 16.1807 21.4279 16.1795L22.9559 15.9494L23.0882 15.9295L23.145 15.8083L23.8212 14.3662C23.8212 14.3662 23.8212 14.3661 23.8212 14.3661C23.857 14.2899 23.9248 14.25 23.9943 14.25C24.0432 14.25 24.0943 14.2706 24.1331 14.3099C24.1353 14.3127 24.1373 14.3151 24.139 14.3172L24.1457 14.3253L24.149 14.3305C24.1646 14.3549 24.169 14.3625 24.1711 14.3669L24.1713 14.3672L24.8579 15.8129L24.9149 15.933L25.0464 15.9528L26.5798 16.1843L26.5798 16.1843L26.5812 16.1845C26.6501 16.1945 26.714 16.2458 26.7391 16.3277C26.7406 16.3371 26.7428 16.3476 26.746 16.3586V16.3643L26.7491 16.3777L26.7497 16.3881C26.7515 16.4226 26.7457 16.4551 26.7352 16.4799L26.7348 16.4798L26.7303 16.4923C26.7294 16.4947 26.7284 16.4971 26.7271 16.4998L26.7142 16.5187C26.7055 16.5314 26.6941 16.5454 26.6831 16.557L25.5742 17.6846L25.4851 17.7753L25.5058 17.9007L25.7687 19.4911C25.7822 19.5792 25.7496 19.659 25.6884 19.7069C25.6706 19.7196 25.6564 19.7277 25.6471 19.7321L25.6313 19.7372C25.6107 19.7439 25.5919 19.7466 25.5748 19.7466C25.5441 19.7466 25.5138 19.739 25.4869 19.7242L25.4864 19.724L24.1135 18.9725L23.9935 18.9068L23.8735 18.9725L22.5006 19.724L22.4928 19.7282L22.4853 19.733C22.4712 19.7421 22.4483 19.75 22.4166 19.75ZM25.6141 19.7451L25.6155 19.7444C25.615 19.7446 25.6143 19.745 25.6141 19.7451ZM21.3638 16.2005C21.3645 16.2 21.3643 16.2001 21.3635 16.2007L21.3638 16.2005Z" stroke="url(#paint18_linear_286_244)" stroke-width="0.5"/>
<path d="M23.9945 14.228V17.1729L23.0518 15.916L23.7895 14.36C23.834 14.2745 23.9161 14.228 23.9945 14.228Z" fill="url(#paint19_linear_286_244)" fill-opacity="0.38"/>
<path d="M26.771 16.3328L23.9976 17.1732L24.9401 15.9163L26.5864 16.1654C26.6788 16.1831 26.7436 16.2507 26.771 16.3328Z" fill="url(#paint20_linear_286_244)"/>
<path d="M25.7088 19.7258L23.9944 17.1726L25.5177 17.7815L25.7977 19.4908C25.8179 19.5906 25.7769 19.6759 25.7088 19.7258Z" fill="url(#paint21_linear_286_244)"/>
<path d="M23.994 17.1726V18.9352L22.5218 19.7434C22.4365 19.7896 22.3477 19.7754 22.2793 19.7258L23.994 17.1726Z" fill="url(#paint22_linear_286_244)"/>
<path d="M24.9372 15.916L23.9944 17.1729V14.228C24.0559 14.228 24.1174 14.2528 24.1617 14.3027C24.1686 14.3098 24.1754 14.3204 24.1822 14.3312C24.1891 14.3421 24.1959 14.3526 24.1992 14.3632L24.9372 15.916Z" fill="url(#paint23_linear_286_244)" fill-opacity="0.6"/>
<path d="M26.7641 16.4925C26.7573 16.5067 26.7504 16.521 26.7436 16.5352C26.7332 16.5495 26.7231 16.56 26.713 16.5743L25.5211 17.785L23.9978 17.1761L26.7712 16.3357C26.7712 16.3391 26.7745 16.3428 26.7745 16.3465C26.7745 16.3502 26.778 16.3537 26.778 16.3608C26.778 16.3645 26.778 16.3645 26.778 16.3645C26.778 16.3679 26.778 16.3716 26.778 16.375C26.778 16.3822 26.778 16.3859 26.778 16.3927C26.7813 16.4246 26.7778 16.4603 26.7641 16.4925Z" fill="url(#paint24_linear_286_244)"/>
<path d="M25.7091 19.7258C25.6921 19.74 25.6716 19.7506 25.6475 19.7577C25.6443 19.7577 25.6443 19.7577 25.6407 19.7611C25.586 19.7788 25.5245 19.7754 25.4665 19.7434L23.9944 18.9352V17.1726L25.7091 19.7258Z" fill="url(#paint25_linear_286_244)"/>
<path d="M23.9944 17.1726L22.28 19.7258C22.2767 19.722 22.2732 19.7186 22.2699 19.7149C22.2666 19.7115 22.263 19.7078 22.2595 19.7041C22.2562 19.7007 22.2527 19.697 22.2458 19.6898C22.2423 19.6864 22.239 19.6827 22.2354 19.679C22.2319 19.6753 22.2321 19.6756 22.2321 19.6719C22.2289 19.6684 22.2253 19.6647 22.2253 19.661C22.2185 19.6505 22.2116 19.6397 22.2084 19.6291C22.2051 19.6257 22.2051 19.6183 22.2015 19.6114C22.1982 19.6043 22.1982 19.6006 22.1947 19.5938C22.1914 19.5866 22.1914 19.5761 22.1914 19.569C22.1914 19.5655 22.1914 19.5581 22.1914 19.5547C22.1914 19.5476 22.1914 19.5405 22.1914 19.5333C22.1914 19.5191 22.1914 19.5048 22.1947 19.4906L22.4747 17.7812L23.9944 17.1726Z" fill="url(#paint26_linear_286_244)"/>
<path d="M23.9941 17.1724L21.2207 16.332C21.2207 16.3286 21.224 16.3249 21.224 16.3212C21.2273 16.3141 21.2273 16.3069 21.2308 16.3035C21.2377 16.2893 21.2445 16.2787 21.2513 16.2679C21.2546 16.2608 21.2582 16.257 21.265 16.2502C21.2686 16.2468 21.2718 16.2394 21.2787 16.2359C21.282 16.2325 21.2891 16.2254 21.2923 16.2217C21.2956 16.218 21.3025 16.2146 21.306 16.2109C21.3128 16.2074 21.3197 16.2 21.3265 16.1966C21.3298 16.1932 21.3366 16.1895 21.3435 16.1895C21.3539 16.1861 21.3604 16.1824 21.3708 16.1786C21.3741 16.1786 21.3777 16.1752 21.3845 16.1752C21.3913 16.1718 21.4014 16.1718 21.4118 16.1681L23.0582 15.9189L23.9941 17.1724Z" fill="url(#paint27_linear_286_244)"/>
<path d="M23.9941 17.1727L22.4743 17.785L21.2825 16.5743C21.2688 16.5635 21.262 16.5495 21.2518 16.5353C21.245 16.521 21.2349 16.5067 21.2313 16.4925C21.2281 16.4854 21.2245 16.4782 21.2245 16.4711C21.2177 16.4497 21.2141 16.4249 21.2141 16.4035C21.2141 16.3964 21.2141 16.3893 21.2141 16.3822C21.2141 16.3716 21.2141 16.3645 21.2177 16.3537C21.2177 16.3502 21.2209 16.3465 21.2209 16.3394C21.2209 16.336 21.2242 16.3323 21.2242 16.3289L23.9941 17.1727Z" fill="url(#paint28_linear_286_244)"/>
</g>
<g filter="url(#filter4_d_286_244)">
<path d="M16.3 25.706L16.2887 25.6932L16.2848 25.6901L16.2803 25.6854L16.2791 25.6848C16.278 25.6836 16.2768 25.6822 16.2754 25.6807C16.2743 25.6791 16.2729 25.6773 16.2716 25.6756C16.2698 25.6733 16.2679 25.6707 16.2656 25.668L16.263 25.6639L16.2562 25.6531L16.2562 25.6531L16.2554 25.6518C16.2523 25.6469 16.2495 25.6418 16.2432 25.629C16.2418 25.6245 16.2403 25.6201 16.2389 25.6158L16.2362 25.6062L16.2359 25.6052C16.2349 25.6015 16.2334 25.5962 16.2318 25.5905C16.2308 25.5862 16.2297 25.5804 16.2278 25.5708C16.2276 25.57 16.2275 25.5692 16.2273 25.5684C16.2271 25.5664 16.2268 25.5645 16.2266 25.5628L16.2257 25.5575C16.2255 25.554 16.2252 25.5507 16.225 25.5479C16.2244 25.5414 16.2237 25.5354 16.2233 25.5318C16.2237 25.5259 16.2248 25.516 16.2275 25.4947L16.4897 23.9043L16.5104 23.7789L16.4213 23.6884L15.3124 22.5607C15.3014 22.5492 15.2912 22.5366 15.2835 22.5256C15.2718 22.5073 15.2683 22.4997 15.2669 22.4961C15.2662 22.4939 15.2655 22.492 15.2649 22.4904L15.2618 22.4819L15.2607 22.479L15.2603 22.4779L15.2599 22.4762C15.2529 22.4476 15.25 22.4251 15.25 22.4035V22.4034V22.4033V22.4032V22.4031V22.4031V22.403V22.4029V22.4028V22.4027V22.4026V22.4026V22.4025V22.4024V22.4023V22.4022V22.4022V22.4021V22.402V22.4019V22.4018V22.4017V22.4017V22.4016V22.4015V22.4014V22.4013V22.4013V22.4012V22.4011V22.401V22.4009V22.4008V22.4008V22.4007V22.4006V22.4005V22.4004V22.4004V22.4003V22.4002V22.4001V22.4V22.4V22.3999V22.3998V22.3997V22.3996V22.3996V22.3995V22.3994V22.3993V22.3992V22.3992V22.3991V22.399V22.3989V22.3988V22.3988V22.3987V22.3986V22.3985V22.3984V22.3984V22.3983V22.3982V22.3981V22.3981V22.398V22.3979V22.3978V22.3977V22.3977V22.3976V22.3975V22.3974V22.3974V22.3973V22.3972V22.3971V22.397V22.397V22.3969V22.3968V22.3967V22.3967V22.3966V22.3965V22.3964V22.3963V22.3963V22.3962V22.3961V22.396V22.396V22.3959V22.3958V22.3957V22.3956V22.3956V22.3955V22.3954V22.3953V22.3953V22.3952V22.3951V22.395V22.395V22.3949V22.3948V22.3947V22.3947V22.3946V22.3945V22.3944V22.3944V22.3943V22.3942V22.3941V22.394V22.394V22.3939V22.3938V22.3937V22.3937V22.3936V22.3935V22.3934V22.3934V22.3933V22.3932V22.3931V22.3931V22.393V22.3929V22.3928V22.3928V22.3927V22.3926V22.3925V22.3925V22.3924V22.3923V22.3922V22.3922V22.3921V22.392V22.3919V22.3919V22.3918V22.3917V22.3916V22.3916V22.3915V22.3914V22.3913V22.3913V22.3912V22.3911V22.391V22.391V22.3909V22.3908V22.3908V22.3907V22.3906V22.3905V22.3905V22.3904V22.3903V22.3902V22.3902V22.3901V22.39V22.3899V22.3899V22.3898V22.3897V22.3896V22.3896V22.3895V22.3894V22.3893V22.3893V22.3892V22.3891V22.3891V22.389V22.3889V22.3888V22.3888V22.3887V22.3886V22.3885V22.3885V22.3884V22.3883V22.3882V22.3882V22.3881V22.388V22.388V22.3879V22.3878V22.3877V22.3877V22.3876V22.3875V22.3874V22.3874V22.3873V22.3872V22.3872V22.3871V22.387V22.3869V22.3869V22.3868V22.3867V22.3866V22.3866V22.3865V22.3864V22.3864V22.3863V22.3862V22.3861V22.3861V22.386V22.3859V22.3858V22.3858V22.3857V22.3856V22.3855V22.3855V22.3854V22.3853V22.3853V22.3852V22.3851V22.385V22.385V22.3849V22.3848V22.3847V22.3847V22.3846V22.3845V22.3845V22.3844V22.3843V22.3842V22.3842V22.3841V22.384V22.384V22.3839V22.3838V22.3837V22.3837V22.3836V22.3835V22.3834V22.3834V22.3833V22.3832V22.3832V22.3831V22.383V22.3829V22.3829V22.3828V22.3827V22.3826V22.3826V22.3825V22.3824V22.3824V22.3823V22.3822V22.3821V22.3821V22.382V22.3819V22.3818V22.3818V22.3817V22.3816V22.3816V22.3815V22.3814V22.3813V22.3813V22.3812V22.3811V22.381V22.381V22.3809V22.3808V22.3807V22.3807V22.3806V22.3805V22.3805V22.3804V22.3803V22.3802V22.3802V22.3801V22.38V22.3799V22.3799V22.3798V22.3797V22.3797V22.3796V22.3795V22.3794V22.3794V22.3793V22.3792V22.3791V22.3791V22.379V22.3789V22.3788V22.3788V22.3787V22.3786V22.3786V22.3785V22.3784V22.3783V22.3783V22.3782V22.3781V22.378V22.378V22.3779V22.3778V22.3777V22.3777V22.3776V22.3775V22.3774V22.3774V22.3773V22.3772V22.3771V22.3771V22.377V22.3769V22.3769V22.3768V22.3767V22.3766V22.3766V22.3765V22.3764V22.3763V22.3763V22.3762V22.3761V22.376V22.376V22.3759V22.3758V22.3757V22.3757V22.3756V22.3755V22.3754V22.3754V22.3753V22.3752V22.3751V22.3751V22.375V22.3749V22.3748V22.3748V22.3747V22.3746V22.3745V22.3745V22.3744V22.3743V22.3742V22.3742V22.3741V22.374V22.3739V22.3739V22.3738V22.3737V22.3736V22.3736V22.3735V22.3734V22.3733V22.3732V22.3732V22.3731V22.373V22.3729V22.3729V22.3728V22.3727V22.3726V22.3726V22.3725V22.3724V22.3723V22.3723V22.3722V22.3721V22.372V22.3719V22.3719V22.3718V22.3717V22.3716V22.3716V22.3715V22.3714V22.3713V22.3712V22.3712V22.3711V22.371V22.3709V22.3709L15.2601 22.3393V22.3297L15.3094 22.2463L15.3365 22.218C15.3437 22.2139 15.3499 22.2099 15.3546 22.2068C15.3617 22.203 15.3706 22.198 15.3802 22.1922C15.3816 22.1916 15.3834 22.191 15.3854 22.1902L15.3981 22.187C15.4042 22.1855 15.409 22.1843 15.413 22.1832C15.4188 22.1818 15.4232 22.1807 15.4279 22.1795L16.9559 21.9494L17.0882 21.9295L17.145 21.8083L17.8212 20.3662C17.857 20.2899 17.9248 20.25 17.9943 20.25C18.0432 20.25 18.0943 20.2706 18.1331 20.3099C18.1353 20.3127 18.1373 20.3151 18.139 20.3172L18.1457 20.3253L18.149 20.3305C18.1646 20.3549 18.169 20.3625 18.1711 20.3669L18.1713 20.3672L18.8579 21.8129L18.9149 21.933L19.0464 21.9528L20.5798 22.1843L20.5798 22.1843L20.5812 22.1845C20.6501 22.1945 20.714 22.2458 20.7391 22.3277C20.7406 22.3371 20.7428 22.3476 20.746 22.3586V22.3643L20.7491 22.3777L20.7497 22.3881C20.7515 22.4226 20.7457 22.4551 20.7352 22.4799L20.7348 22.4798L20.7303 22.4923C20.7294 22.4947 20.7284 22.4971 20.7271 22.4998L20.7142 22.5187C20.7055 22.5314 20.6941 22.5454 20.6831 22.557L19.5742 23.6846L19.4851 23.7753L19.5058 23.9007L19.7687 25.4911C19.7822 25.5792 19.7496 25.659 19.6884 25.7069C19.6706 25.7196 19.6564 25.7277 19.6471 25.7321L19.6313 25.7372C19.6107 25.7439 19.5919 25.7466 19.5748 25.7466C19.5441 25.7466 19.5138 25.739 19.4869 25.7242L19.4864 25.724L18.1135 24.9725L17.9935 24.9068L17.8735 24.9725L16.5006 25.724L16.4928 25.7282L16.4853 25.733C16.4712 25.7421 16.4483 25.75 16.4166 25.75C16.3815 25.75 16.3454 25.7396 16.3073 25.7136L16.3 25.706ZM16.2787 25.6928L16.2786 25.6924L16.2787 25.6928Z" fill="white" stroke="url(#paint29_linear_286_244)" stroke-width="0.5"/>
<path d="M16.3 25.706L16.2887 25.6932L16.2848 25.6901L16.2803 25.6854L16.2791 25.6848C16.278 25.6836 16.2768 25.6822 16.2754 25.6807C16.2743 25.6791 16.2729 25.6773 16.2716 25.6756C16.2698 25.6733 16.2679 25.6707 16.2656 25.668L16.263 25.6639L16.2562 25.6531L16.2562 25.6531L16.2554 25.6518C16.2523 25.6469 16.2495 25.6418 16.2432 25.629C16.2418 25.6245 16.2403 25.6201 16.2389 25.6158L16.2362 25.6062L16.2359 25.6052C16.2349 25.6015 16.2334 25.5962 16.2318 25.5905C16.2308 25.5862 16.2297 25.5804 16.2278 25.5708C16.2276 25.57 16.2275 25.5692 16.2273 25.5684C16.2271 25.5664 16.2268 25.5645 16.2266 25.5628L16.2257 25.5575C16.2255 25.554 16.2252 25.5507 16.225 25.5479C16.2244 25.5414 16.2237 25.5354 16.2233 25.5318C16.2237 25.5259 16.2248 25.516 16.2275 25.4947L16.4897 23.9043L16.5104 23.7789L16.4213 23.6884L15.3124 22.5607C15.3014 22.5492 15.2912 22.5366 15.2835 22.5256C15.2718 22.5073 15.2683 22.4997 15.2669 22.4961C15.2662 22.4939 15.2655 22.492 15.2649 22.4904L15.2618 22.4819L15.2607 22.479L15.2603 22.4779L15.2599 22.4762C15.2529 22.4476 15.25 22.4251 15.25 22.4035V22.4034V22.4033V22.4032V22.4031V22.4031V22.403V22.4029V22.4028V22.4027V22.4026V22.4026V22.4025V22.4024V22.4023V22.4022V22.4022V22.4021V22.402V22.4019V22.4018V22.4017V22.4017V22.4016V22.4015V22.4014V22.4013V22.4013V22.4012V22.4011V22.401V22.4009V22.4008V22.4008V22.4007V22.4006V22.4005V22.4004V22.4004V22.4003V22.4002V22.4001V22.4V22.4V22.3999V22.3998V22.3997V22.3996V22.3996V22.3995V22.3994V22.3993V22.3992V22.3992V22.3991V22.399V22.3989V22.3988V22.3988V22.3987V22.3986V22.3985V22.3984V22.3984V22.3983V22.3982V22.3981V22.3981V22.398V22.3979V22.3978V22.3977V22.3977V22.3976V22.3975V22.3974V22.3974V22.3973V22.3972V22.3971V22.397V22.397V22.3969V22.3968V22.3967V22.3967V22.3966V22.3965V22.3964V22.3963V22.3963V22.3962V22.3961V22.396V22.396V22.3959V22.3958V22.3957V22.3956V22.3956V22.3955V22.3954V22.3953V22.3953V22.3952V22.3951V22.395V22.395V22.3949V22.3948V22.3947V22.3947V22.3946V22.3945V22.3944V22.3944V22.3943V22.3942V22.3941V22.394V22.394V22.3939V22.3938V22.3937V22.3937V22.3936V22.3935V22.3934V22.3934V22.3933V22.3932V22.3931V22.3931V22.393V22.3929V22.3928V22.3928V22.3927V22.3926V22.3925V22.3925V22.3924V22.3923V22.3922V22.3922V22.3921V22.392V22.3919V22.3919V22.3918V22.3917V22.3916V22.3916V22.3915V22.3914V22.3913V22.3913V22.3912V22.3911V22.391V22.391V22.3909V22.3908V22.3908V22.3907V22.3906V22.3905V22.3905V22.3904V22.3903V22.3902V22.3902V22.3901V22.39V22.3899V22.3899V22.3898V22.3897V22.3896V22.3896V22.3895V22.3894V22.3893V22.3893V22.3892V22.3891V22.3891V22.389V22.3889V22.3888V22.3888V22.3887V22.3886V22.3885V22.3885V22.3884V22.3883V22.3882V22.3882V22.3881V22.388V22.388V22.3879V22.3878V22.3877V22.3877V22.3876V22.3875V22.3874V22.3874V22.3873V22.3872V22.3872V22.3871V22.387V22.3869V22.3869V22.3868V22.3867V22.3866V22.3866V22.3865V22.3864V22.3864V22.3863V22.3862V22.3861V22.3861V22.386V22.3859V22.3858V22.3858V22.3857V22.3856V22.3855V22.3855V22.3854V22.3853V22.3853V22.3852V22.3851V22.385V22.385V22.3849V22.3848V22.3847V22.3847V22.3846V22.3845V22.3845V22.3844V22.3843V22.3842V22.3842V22.3841V22.384V22.384V22.3839V22.3838V22.3837V22.3837V22.3836V22.3835V22.3834V22.3834V22.3833V22.3832V22.3832V22.3831V22.383V22.3829V22.3829V22.3828V22.3827V22.3826V22.3826V22.3825V22.3824V22.3824V22.3823V22.3822V22.3821V22.3821V22.382V22.3819V22.3818V22.3818V22.3817V22.3816V22.3816V22.3815V22.3814V22.3813V22.3813V22.3812V22.3811V22.381V22.381V22.3809V22.3808V22.3807V22.3807V22.3806V22.3805V22.3805V22.3804V22.3803V22.3802V22.3802V22.3801V22.38V22.3799V22.3799V22.3798V22.3797V22.3797V22.3796V22.3795V22.3794V22.3794V22.3793V22.3792V22.3791V22.3791V22.379V22.3789V22.3788V22.3788V22.3787V22.3786V22.3786V22.3785V22.3784V22.3783V22.3783V22.3782V22.3781V22.378V22.378V22.3779V22.3778V22.3777V22.3777V22.3776V22.3775V22.3774V22.3774V22.3773V22.3772V22.3771V22.3771V22.377V22.3769V22.3769V22.3768V22.3767V22.3766V22.3766V22.3765V22.3764V22.3763V22.3763V22.3762V22.3761V22.376V22.376V22.3759V22.3758V22.3757V22.3757V22.3756V22.3755V22.3754V22.3754V22.3753V22.3752V22.3751V22.3751V22.375V22.3749V22.3748V22.3748V22.3747V22.3746V22.3745V22.3745V22.3744V22.3743V22.3742V22.3742V22.3741V22.374V22.3739V22.3739V22.3738V22.3737V22.3736V22.3736V22.3735V22.3734V22.3733V22.3732V22.3732V22.3731V22.373V22.3729V22.3729V22.3728V22.3727V22.3726V22.3726V22.3725V22.3724V22.3723V22.3723V22.3722V22.3721V22.372V22.3719V22.3719V22.3718V22.3717V22.3716V22.3716V22.3715V22.3714V22.3713V22.3712V22.3712V22.3711V22.371V22.3709V22.3709L15.2601 22.3393V22.3297L15.3094 22.2463L15.3365 22.218C15.3437 22.2139 15.3499 22.2099 15.3546 22.2068C15.3617 22.203 15.3706 22.198 15.3802 22.1922C15.3816 22.1916 15.3834 22.191 15.3854 22.1902L15.3981 22.187C15.4042 22.1855 15.409 22.1843 15.413 22.1832C15.4188 22.1818 15.4232 22.1807 15.4279 22.1795L16.9559 21.9494L17.0882 21.9295L17.145 21.8083L17.8212 20.3662C17.857 20.2899 17.9248 20.25 17.9943 20.25C18.0432 20.25 18.0943 20.2706 18.1331 20.3099C18.1353 20.3127 18.1373 20.3151 18.139 20.3172L18.1457 20.3253L18.149 20.3305C18.1646 20.3549 18.169 20.3625 18.1711 20.3669L18.1713 20.3672L18.8579 21.8129L18.9149 21.933L19.0464 21.9528L20.5798 22.1843L20.5798 22.1843L20.5812 22.1845C20.6501 22.1945 20.714 22.2458 20.7391 22.3277C20.7406 22.3371 20.7428 22.3476 20.746 22.3586V22.3643L20.7491 22.3777L20.7497 22.3881C20.7515 22.4226 20.7457 22.4551 20.7352 22.4799L20.7348 22.4798L20.7303 22.4923C20.7294 22.4947 20.7284 22.4971 20.7271 22.4998L20.7142 22.5187C20.7055 22.5314 20.6941 22.5454 20.6831 22.557L19.5742 23.6846L19.4851 23.7753L19.5058 23.9007L19.7687 25.4911C19.7822 25.5792 19.7496 25.659 19.6884 25.7069C19.6706 25.7196 19.6564 25.7277 19.6471 25.7321L19.6313 25.7372C19.6107 25.7439 19.5919 25.7466 19.5748 25.7466C19.5441 25.7466 19.5138 25.739 19.4869 25.7242L19.4864 25.724L18.1135 24.9725L17.9935 24.9068L17.8735 24.9725L16.5006 25.724L16.4928 25.7282L16.4853 25.733C16.4712 25.7421 16.4483 25.75 16.4166 25.75C16.3815 25.75 16.3454 25.7396 16.3073 25.7136L16.3 25.706ZM16.2787 25.6928L16.2786 25.6924L16.2787 25.6928Z" stroke="url(#paint30_linear_286_244)" stroke-width="0.5"/>
<path d="M17.9945 20.228V23.1729L17.0518 21.916L17.7895 20.36C17.834 20.2745 17.9161 20.228 17.9945 20.228Z" fill="url(#paint31_linear_286_244)" fill-opacity="0.38"/>
<path d="M20.771 22.3328L17.9976 23.1732L18.9401 21.9163L20.5864 22.1654C20.6788 22.1831 20.7436 22.2507 20.771 22.3328Z" fill="url(#paint32_linear_286_244)"/>
<path d="M19.7088 25.7258L17.9944 23.1726L19.5177 23.7815L19.7977 25.4908C19.8179 25.5906 19.7769 25.6759 19.7088 25.7258Z" fill="url(#paint33_linear_286_244)"/>
<path d="M17.994 23.1726V24.9352L16.5218 25.7434C16.4365 25.7896 16.3477 25.7754 16.2793 25.7258L17.994 23.1726Z" fill="url(#paint34_linear_286_244)"/>
<path d="M18.9372 21.916L17.9944 23.1729V20.228C18.0559 20.228 18.1174 20.2528 18.1617 20.3027C18.1686 20.3098 18.1754 20.3204 18.1822 20.3312C18.1891 20.3421 18.1959 20.3526 18.1992 20.3632L18.9372 21.916Z" fill="url(#paint35_linear_286_244)" fill-opacity="0.6"/>
<path d="M20.7641 22.4925C20.7573 22.5067 20.7504 22.521 20.7436 22.5352C20.7332 22.5495 20.7231 22.56 20.713 22.5743L19.5211 23.785L17.9978 23.1761L20.7712 22.3357C20.7712 22.3391 20.7745 22.3428 20.7745 22.3465C20.7745 22.3502 20.778 22.3537 20.778 22.3608C20.778 22.3645 20.778 22.3645 20.778 22.3645C20.778 22.3679 20.778 22.3716 20.778 22.375C20.778 22.3822 20.778 22.3859 20.778 22.3927C20.7813 22.4246 20.7778 22.4603 20.7641 22.4925Z" fill="url(#paint36_linear_286_244)"/>
<path d="M19.7091 25.7258C19.6921 25.74 19.6716 25.7506 19.6475 25.7577C19.6443 25.7577 19.6443 25.7577 19.6407 25.7611C19.586 25.7788 19.5245 25.7754 19.4665 25.7434L17.9944 24.9352V23.1726L19.7091 25.7258Z" fill="url(#paint37_linear_286_244)"/>
<path d="M17.9944 23.1726L16.28 25.7258C16.2767 25.722 16.2732 25.7186 16.2699 25.7149C16.2666 25.7115 16.263 25.7078 16.2595 25.7041C16.2562 25.7007 16.2527 25.697 16.2458 25.6898C16.2423 25.6864 16.239 25.6827 16.2354 25.679C16.2319 25.6753 16.2321 25.6756 16.2321 25.6719C16.2289 25.6684 16.2253 25.6647 16.2253 25.661C16.2185 25.6505 16.2116 25.6397 16.2084 25.6291C16.2051 25.6257 16.2051 25.6183 16.2015 25.6114C16.1982 25.6043 16.1982 25.6006 16.1947 25.5938C16.1914 25.5866 16.1914 25.5761 16.1914 25.569C16.1914 25.5655 16.1914 25.5581 16.1914 25.5547C16.1914 25.5476 16.1914 25.5405 16.1914 25.5333C16.1914 25.5191 16.1914 25.5048 16.1947 25.4906L16.4747 23.7812L17.9944 23.1726Z" fill="url(#paint38_linear_286_244)"/>
<path d="M17.9941 23.1724L15.2207 22.332C15.2207 22.3286 15.224 22.3249 15.224 22.3212C15.2273 22.3141 15.2273 22.3069 15.2308 22.3035C15.2377 22.2893 15.2445 22.2787 15.2513 22.2679C15.2546 22.2608 15.2582 22.257 15.265 22.2502C15.2686 22.2468 15.2718 22.2394 15.2787 22.2359C15.282 22.2325 15.2891 22.2254 15.2923 22.2217C15.2956 22.218 15.3025 22.2146 15.306 22.2109C15.3128 22.2074 15.3197 22.2 15.3265 22.1966C15.3298 22.1932 15.3366 22.1895 15.3435 22.1895C15.3539 22.1861 15.3604 22.1824 15.3708 22.1786C15.3741 22.1786 15.3777 22.1752 15.3845 22.1752C15.3913 22.1718 15.4014 22.1718 15.4118 22.1681L17.0582 21.9189L17.9941 23.1724Z" fill="url(#paint39_linear_286_244)"/>
<path d="M17.9941 23.1727L16.4743 23.785L15.2825 22.5743C15.2688 22.5635 15.262 22.5495 15.2518 22.5353C15.245 22.521 15.2349 22.5067 15.2313 22.4925C15.2281 22.4854 15.2245 22.4782 15.2245 22.4711C15.2177 22.4497 15.2141 22.4249 15.2141 22.4035C15.2141 22.3964 15.2141 22.3893 15.2141 22.3822C15.2141 22.3716 15.2141 22.3645 15.2177 22.3537C15.2177 22.3502 15.2209 22.3465 15.2209 22.3394C15.2209 22.336 15.2242 22.3323 15.2242 22.3289L17.9941 23.1727Z" fill="url(#paint40_linear_286_244)"/>
</g>
<g filter="url(#filter5_d_286_244)">
<path d="M16.4166 13.75C16.3815 13.75 16.3454 13.7396 16.3073 13.7136L16.3 13.706L16.2887 13.6932L16.2848 13.6901L16.2803 13.6854L16.2791 13.6848C16.278 13.6836 16.2768 13.6822 16.2754 13.6807C16.2743 13.6791 16.2729 13.6773 16.2716 13.6756C16.2698 13.6733 16.2679 13.6707 16.2656 13.668L16.263 13.6639L16.2562 13.6531L16.2562 13.6531L16.2554 13.6518C16.2523 13.6469 16.2495 13.6418 16.2432 13.629C16.2418 13.6245 16.2403 13.6201 16.2389 13.6158L16.2362 13.6062C16.2351 13.6024 16.2336 13.5967 16.2318 13.5905C16.2308 13.5861 16.2297 13.5804 16.2278 13.5708C16.2276 13.57 16.2275 13.5692 16.2273 13.5684C16.2271 13.5664 16.2268 13.5645 16.2266 13.5628L16.2257 13.5575C16.2255 13.554 16.2252 13.5507 16.225 13.5479C16.2244 13.5414 16.2237 13.5354 16.2233 13.5318C16.2237 13.5259 16.2248 13.516 16.2275 13.4947L16.4897 11.9043L16.5104 11.7789L16.4213 11.6884L15.3124 10.5607C15.3014 10.5492 15.2912 10.5366 15.2835 10.5256C15.2718 10.5073 15.2683 10.4997 15.2669 10.4961C15.2662 10.4939 15.2655 10.492 15.2649 10.4904L15.2618 10.4819L15.2607 10.479L15.2603 10.4779L15.2599 10.4762C15.2529 10.4476 15.25 10.4251 15.25 10.4035V10.4034V10.4033V10.4032V10.4031V10.4031V10.403V10.4029V10.4028V10.4027V10.4026V10.4026V10.4025V10.4024V10.4023V10.4022V10.4022V10.4021V10.402V10.4019V10.4018V10.4017V10.4017V10.4016V10.4015V10.4014V10.4013V10.4013V10.4012V10.4011V10.401V10.4009V10.4008V10.4008V10.4007V10.4006V10.4005V10.4004V10.4004V10.4003V10.4002V10.4001V10.4V10.4V10.3999V10.3998V10.3997V10.3996V10.3996V10.3995V10.3994V10.3993V10.3992V10.3992V10.3991V10.399V10.3989V10.3988V10.3988V10.3987V10.3986V10.3985V10.3984V10.3984V10.3983V10.3982V10.3981V10.3981V10.398V10.3979V10.3978V10.3977V10.3977V10.3976V10.3975V10.3974V10.3974V10.3973V10.3972V10.3971V10.397V10.397V10.3969V10.3968V10.3967V10.3967V10.3966V10.3965V10.3964V10.3963V10.3963V10.3962V10.3961V10.396V10.396V10.3959V10.3958V10.3957V10.3956V10.3956V10.3955V10.3954V10.3953V10.3953V10.3952V10.3951V10.395V10.395V10.3949V10.3948V10.3947V10.3947V10.3946V10.3945V10.3944V10.3944V10.3943V10.3942V10.3941V10.394V10.394V10.3939V10.3938V10.3937V10.3937V10.3936V10.3935V10.3934V10.3934V10.3933V10.3932V10.3931V10.3931V10.393V10.3929V10.3928V10.3928V10.3927V10.3926V10.3925V10.3925V10.3924V10.3923V10.3922V10.3922V10.3921V10.392V10.3919V10.3919V10.3918V10.3917V10.3916V10.3916V10.3915V10.3914V10.3913V10.3913V10.3912V10.3911V10.391V10.391V10.3909V10.3908V10.3908V10.3907V10.3906V10.3905V10.3905V10.3904V10.3903V10.3902V10.3902V10.3901V10.39V10.3899V10.3899V10.3898V10.3897V10.3896V10.3896V10.3895V10.3894V10.3893V10.3893V10.3892V10.3891V10.3891V10.389V10.3889V10.3888V10.3888V10.3887V10.3886V10.3885V10.3885V10.3884V10.3883V10.3882V10.3882V10.3881V10.388V10.388V10.3879V10.3878V10.3877V10.3877V10.3876V10.3875V10.3874V10.3874V10.3873V10.3872V10.3872V10.3871V10.387V10.3869V10.3869V10.3868V10.3867V10.3866V10.3866V10.3865V10.3864V10.3864V10.3863V10.3862V10.3861V10.3861V10.386V10.3859V10.3858V10.3858V10.3857V10.3856V10.3855V10.3855V10.3854V10.3853V10.3853V10.3852V10.3851V10.385V10.385V10.3849V10.3848V10.3847V10.3847V10.3846V10.3845V10.3845V10.3844V10.3843V10.3842V10.3842V10.3841V10.384V10.384V10.3839V10.3838V10.3837V10.3837V10.3836V10.3835V10.3834V10.3834V10.3833V10.3832V10.3832V10.3831V10.383V10.3829V10.3829V10.3828V10.3827V10.3826V10.3826V10.3825V10.3824V10.3824V10.3823V10.3822V10.3821V10.3821V10.382V10.3819V10.3818V10.3818V10.3817V10.3816V10.3816V10.3815V10.3814V10.3813V10.3813V10.3812V10.3811V10.381V10.381V10.3809V10.3808V10.3807V10.3807V10.3806V10.3805V10.3805V10.3804V10.3803V10.3802V10.3802V10.3801V10.38V10.3799V10.3799V10.3798V10.3797V10.3797V10.3796V10.3795V10.3794V10.3794V10.3793V10.3792V10.3791V10.3791V10.379V10.3789V10.3788V10.3788V10.3787V10.3786V10.3786V10.3785V10.3784V10.3783V10.3783V10.3782V10.3781V10.378V10.378V10.3779V10.3778V10.3777V10.3777V10.3776V10.3775V10.3774V10.3774V10.3773V10.3772V10.3771V10.3771V10.377V10.3769V10.3769V10.3768V10.3767V10.3766V10.3766V10.3765V10.3764V10.3763V10.3763V10.3762V10.3761V10.376V10.376V10.3759V10.3758V10.3757V10.3757V10.3756V10.3755V10.3754V10.3754V10.3753V10.3752V10.3751V10.3751V10.375V10.3749V10.3748V10.3748V10.3747V10.3746V10.3745V10.3745V10.3744V10.3743V10.3742V10.3742V10.3741V10.374V10.3739V10.3739V10.3738V10.3737V10.3736V10.3736V10.3735V10.3734V10.3733V10.3732V10.3732V10.3731V10.373V10.3729V10.3729V10.3728V10.3727V10.3726V10.3726V10.3725V10.3724V10.3723V10.3723V10.3722V10.3721V10.372V10.3719V10.3719V10.3718V10.3717V10.3716V10.3716V10.3715V10.3714V10.3713V10.3712V10.3712V10.3711V10.371V10.3709V10.3709L15.2601 10.3393V10.3297L15.3094 10.2463L15.3365 10.218C15.3437 10.2139 15.3499 10.21 15.3546 10.2068C15.3617 10.203 15.3706 10.198 15.3802 10.1922C15.3816 10.1916 15.3834 10.191 15.3854 10.1902L15.3981 10.187C15.4042 10.1855 15.4089 10.1843 15.413 10.1833C15.4188 10.1818 15.4232 10.1807 15.4279 10.1795L16.9559 9.9494L17.0882 9.92947L17.145 9.80832L17.8212 8.36621C17.8212 8.36618 17.8212 8.36615 17.8212 8.36612C17.857 8.28987 17.9248 8.25 17.9943 8.25C18.0432 8.25 18.0943 8.27062 18.1331 8.3099C18.1353 8.31267 18.1373 8.31512 18.139 8.31716L18.1457 8.32534L18.149 8.33053C18.1646 8.35486 18.169 8.36254 18.1711 8.36692L18.1713 8.36724L18.8579 9.81286L18.9149 9.93296L19.0464 9.95281L20.5798 10.1843L20.5798 10.1843L20.5812 10.1845C20.6501 10.1945 20.714 10.2458 20.7391 10.3277C20.7406 10.3371 20.7428 10.3476 20.746 10.3586V10.3643L20.7491 10.3777L20.7497 10.3881C20.7515 10.4226 20.7457 10.4551 20.7352 10.4799L20.7348 10.4798L20.7303 10.4923C20.7294 10.4947 20.7284 10.4971 20.7271 10.4998L20.7142 10.5187C20.7055 10.5314 20.6941 10.5454 20.6831 10.557L19.5742 11.6846L19.4851 11.7753L19.5058 11.9007L19.7687 13.4911C19.7822 13.5792 19.7496 13.659 19.6884 13.7069C19.6706 13.7196 19.6564 13.7277 19.6471 13.7321L19.6313 13.7372C19.6107 13.7439 19.5919 13.7466 19.5748 13.7466C19.5441 13.7466 19.5138 13.739 19.4869 13.7242L19.4864 13.724L18.1135 12.9725L17.9935 12.9068L17.8735 12.9725L16.5006 13.724L16.4928 13.7282L16.4853 13.733C16.4712 13.7421 16.4483 13.75 16.4166 13.75ZM19.6141 13.7451L19.6155 13.7444C19.615 13.7446 19.6143 13.745 19.6141 13.7451ZM15.3638 10.2005C15.3645 10.2 15.3643 10.2001 15.3635 10.2007L15.3638 10.2005Z" fill="white" stroke="url(#paint41_linear_286_244)" stroke-width="0.5"/>
<path d="M16.4166 13.75C16.3815 13.75 16.3454 13.7396 16.3073 13.7136L16.3 13.706L16.2887 13.6932L16.2848 13.6901L16.2803 13.6854L16.2791 13.6848C16.278 13.6836 16.2768 13.6822 16.2754 13.6807C16.2743 13.6791 16.2729 13.6773 16.2716 13.6756C16.2698 13.6733 16.2679 13.6707 16.2656 13.668L16.263 13.6639L16.2562 13.6531L16.2562 13.6531L16.2554 13.6518C16.2523 13.6469 16.2495 13.6418 16.2432 13.629C16.2418 13.6245 16.2403 13.6201 16.2389 13.6158L16.2362 13.6062C16.2351 13.6024 16.2336 13.5967 16.2318 13.5905C16.2308 13.5861 16.2297 13.5804 16.2278 13.5708C16.2276 13.57 16.2275 13.5692 16.2273 13.5684C16.2271 13.5664 16.2268 13.5645 16.2266 13.5628L16.2257 13.5575C16.2255 13.554 16.2252 13.5507 16.225 13.5479C16.2244 13.5414 16.2237 13.5354 16.2233 13.5318C16.2237 13.5259 16.2248 13.516 16.2275 13.4947L16.4897 11.9043L16.5104 11.7789L16.4213 11.6884L15.3124 10.5607C15.3014 10.5492 15.2912 10.5366 15.2835 10.5256C15.2718 10.5073 15.2683 10.4997 15.2669 10.4961C15.2662 10.4939 15.2655 10.492 15.2649 10.4904L15.2618 10.4819L15.2607 10.479L15.2603 10.4779L15.2599 10.4762C15.2529 10.4476 15.25 10.4251 15.25 10.4035V10.4034V10.4033V10.4032V10.4031V10.4031V10.403V10.4029V10.4028V10.4027V10.4026V10.4026V10.4025V10.4024V10.4023V10.4022V10.4022V10.4021V10.402V10.4019V10.4018V10.4017V10.4017V10.4016V10.4015V10.4014V10.4013V10.4013V10.4012V10.4011V10.401V10.4009V10.4008V10.4008V10.4007V10.4006V10.4005V10.4004V10.4004V10.4003V10.4002V10.4001V10.4V10.4V10.3999V10.3998V10.3997V10.3996V10.3996V10.3995V10.3994V10.3993V10.3992V10.3992V10.3991V10.399V10.3989V10.3988V10.3988V10.3987V10.3986V10.3985V10.3984V10.3984V10.3983V10.3982V10.3981V10.3981V10.398V10.3979V10.3978V10.3977V10.3977V10.3976V10.3975V10.3974V10.3974V10.3973V10.3972V10.3971V10.397V10.397V10.3969V10.3968V10.3967V10.3967V10.3966V10.3965V10.3964V10.3963V10.3963V10.3962V10.3961V10.396V10.396V10.3959V10.3958V10.3957V10.3956V10.3956V10.3955V10.3954V10.3953V10.3953V10.3952V10.3951V10.395V10.395V10.3949V10.3948V10.3947V10.3947V10.3946V10.3945V10.3944V10.3944V10.3943V10.3942V10.3941V10.394V10.394V10.3939V10.3938V10.3937V10.3937V10.3936V10.3935V10.3934V10.3934V10.3933V10.3932V10.3931V10.3931V10.393V10.3929V10.3928V10.3928V10.3927V10.3926V10.3925V10.3925V10.3924V10.3923V10.3922V10.3922V10.3921V10.392V10.3919V10.3919V10.3918V10.3917V10.3916V10.3916V10.3915V10.3914V10.3913V10.3913V10.3912V10.3911V10.391V10.391V10.3909V10.3908V10.3908V10.3907V10.3906V10.3905V10.3905V10.3904V10.3903V10.3902V10.3902V10.3901V10.39V10.3899V10.3899V10.3898V10.3897V10.3896V10.3896V10.3895V10.3894V10.3893V10.3893V10.3892V10.3891V10.3891V10.389V10.3889V10.3888V10.3888V10.3887V10.3886V10.3885V10.3885V10.3884V10.3883V10.3882V10.3882V10.3881V10.388V10.388V10.3879V10.3878V10.3877V10.3877V10.3876V10.3875V10.3874V10.3874V10.3873V10.3872V10.3872V10.3871V10.387V10.3869V10.3869V10.3868V10.3867V10.3866V10.3866V10.3865V10.3864V10.3864V10.3863V10.3862V10.3861V10.3861V10.386V10.3859V10.3858V10.3858V10.3857V10.3856V10.3855V10.3855V10.3854V10.3853V10.3853V10.3852V10.3851V10.385V10.385V10.3849V10.3848V10.3847V10.3847V10.3846V10.3845V10.3845V10.3844V10.3843V10.3842V10.3842V10.3841V10.384V10.384V10.3839V10.3838V10.3837V10.3837V10.3836V10.3835V10.3834V10.3834V10.3833V10.3832V10.3832V10.3831V10.383V10.3829V10.3829V10.3828V10.3827V10.3826V10.3826V10.3825V10.3824V10.3824V10.3823V10.3822V10.3821V10.3821V10.382V10.3819V10.3818V10.3818V10.3817V10.3816V10.3816V10.3815V10.3814V10.3813V10.3813V10.3812V10.3811V10.381V10.381V10.3809V10.3808V10.3807V10.3807V10.3806V10.3805V10.3805V10.3804V10.3803V10.3802V10.3802V10.3801V10.38V10.3799V10.3799V10.3798V10.3797V10.3797V10.3796V10.3795V10.3794V10.3794V10.3793V10.3792V10.3791V10.3791V10.379V10.3789V10.3788V10.3788V10.3787V10.3786V10.3786V10.3785V10.3784V10.3783V10.3783V10.3782V10.3781V10.378V10.378V10.3779V10.3778V10.3777V10.3777V10.3776V10.3775V10.3774V10.3774V10.3773V10.3772V10.3771V10.3771V10.377V10.3769V10.3769V10.3768V10.3767V10.3766V10.3766V10.3765V10.3764V10.3763V10.3763V10.3762V10.3761V10.376V10.376V10.3759V10.3758V10.3757V10.3757V10.3756V10.3755V10.3754V10.3754V10.3753V10.3752V10.3751V10.3751V10.375V10.3749V10.3748V10.3748V10.3747V10.3746V10.3745V10.3745V10.3744V10.3743V10.3742V10.3742V10.3741V10.374V10.3739V10.3739V10.3738V10.3737V10.3736V10.3736V10.3735V10.3734V10.3733V10.3732V10.3732V10.3731V10.373V10.3729V10.3729V10.3728V10.3727V10.3726V10.3726V10.3725V10.3724V10.3723V10.3723V10.3722V10.3721V10.372V10.3719V10.3719V10.3718V10.3717V10.3716V10.3716V10.3715V10.3714V10.3713V10.3712V10.3712V10.3711V10.371V10.3709V10.3709L15.2601 10.3393V10.3297L15.3094 10.2463L15.3365 10.218C15.3437 10.2139 15.3499 10.21 15.3546 10.2068C15.3617 10.203 15.3706 10.198 15.3802 10.1922C15.3816 10.1916 15.3834 10.191 15.3854 10.1902L15.3981 10.187C15.4042 10.1855 15.4089 10.1843 15.413 10.1833C15.4188 10.1818 15.4232 10.1807 15.4279 10.1795L16.9559 9.9494L17.0882 9.92947L17.145 9.80832L17.8212 8.36621C17.8212 8.36618 17.8212 8.36615 17.8212 8.36612C17.857 8.28987 17.9248 8.25 17.9943 8.25C18.0432 8.25 18.0943 8.27062 18.1331 8.3099C18.1353 8.31267 18.1373 8.31512 18.139 8.31716L18.1457 8.32534L18.149 8.33053C18.1646 8.35486 18.169 8.36254 18.1711 8.36692L18.1713 8.36724L18.8579 9.81286L18.9149 9.93296L19.0464 9.95281L20.5798 10.1843L20.5798 10.1843L20.5812 10.1845C20.6501 10.1945 20.714 10.2458 20.7391 10.3277C20.7406 10.3371 20.7428 10.3476 20.746 10.3586V10.3643L20.7491 10.3777L20.7497 10.3881C20.7515 10.4226 20.7457 10.4551 20.7352 10.4799L20.7348 10.4798L20.7303 10.4923C20.7294 10.4947 20.7284 10.4971 20.7271 10.4998L20.7142 10.5187C20.7055 10.5314 20.6941 10.5454 20.6831 10.557L19.5742 11.6846L19.4851 11.7753L19.5058 11.9007L19.7687 13.4911C19.7822 13.5792 19.7496 13.659 19.6884 13.7069C19.6706 13.7196 19.6564 13.7277 19.6471 13.7321L19.6313 13.7372C19.6107 13.7439 19.5919 13.7466 19.5748 13.7466C19.5441 13.7466 19.5138 13.739 19.4869 13.7242L19.4864 13.724L18.1135 12.9725L17.9935 12.9068L17.8735 12.9725L16.5006 13.724L16.4928 13.7282L16.4853 13.733C16.4712 13.7421 16.4483 13.75 16.4166 13.75ZM19.6141 13.7451L19.6155 13.7444C19.615 13.7446 19.6143 13.745 19.6141 13.7451ZM15.3638 10.2005C15.3645 10.2 15.3643 10.2001 15.3635 10.2007L15.3638 10.2005Z" stroke="url(#paint42_linear_286_244)" stroke-width="0.5"/>
<path d="M17.9945 8.22803V11.1729L17.0518 9.91596L17.7895 8.36002C17.834 8.27449 17.9161 8.22803 17.9945 8.22803Z" fill="url(#paint43_linear_286_244)" fill-opacity="0.38"/>
<path d="M20.771 10.3328L17.9976 11.1732L18.9401 9.91626L20.5864 10.1654C20.6788 10.1831 20.7436 10.2507 20.771 10.3328Z" fill="url(#paint44_linear_286_244)"/>
<path d="M19.7088 13.7258L17.9944 11.1726L19.5177 11.7815L19.7977 13.4908C19.8179 13.5906 19.7769 13.6759 19.7088 13.7258Z" fill="url(#paint45_linear_286_244)"/>
<path d="M17.9942 11.1726V12.9352L16.5221 13.7434C16.4368 13.7896 16.3479 13.7754 16.2795 13.7258L17.9942 11.1726Z" fill="url(#paint46_linear_286_244)"/>
<path d="M18.9372 9.91596L17.9944 11.1729V8.22803C18.0559 8.22803 18.1174 8.25283 18.1617 8.30272C18.1686 8.30984 18.1754 8.32039 18.1822 8.33122C18.1891 8.34206 18.1959 8.35261 18.1992 8.36315L18.9372 9.91596Z" fill="url(#paint47_linear_286_244)" fill-opacity="0.6"/>
<path d="M20.7641 10.4925C20.7573 10.5067 20.7504 10.521 20.7436 10.5352C20.7332 10.5495 20.7231 10.56 20.713 10.5743L19.5211 11.785L17.9978 11.1761L20.7712 10.3357C20.7712 10.3391 20.7745 10.3428 20.7745 10.3465C20.7745 10.3502 20.778 10.3537 20.778 10.3608C20.778 10.3645 20.778 10.3645 20.778 10.3645C20.778 10.3679 20.778 10.3716 20.778 10.375C20.778 10.3822 20.778 10.3859 20.778 10.3927C20.7813 10.4246 20.7778 10.4603 20.7641 10.4925Z" fill="url(#paint48_linear_286_244)"/>
<path d="M19.7091 13.7258C19.6921 13.74 19.6716 13.7506 19.6475 13.7577C19.6443 13.7577 19.6443 13.7577 19.6407 13.7611C19.586 13.7788 19.5245 13.7754 19.4665 13.7434L17.9944 12.9352V11.1726L19.7091 13.7258Z" fill="url(#paint49_linear_286_244)"/>
<path d="M17.9944 11.1726L16.28 13.7258C16.2767 13.722 16.2732 13.7186 16.2699 13.7149C16.2666 13.7115 16.263 13.7078 16.2595 13.7041C16.2562 13.7007 16.2527 13.697 16.2458 13.6898C16.2423 13.6864 16.239 13.6827 16.2354 13.679C16.2319 13.6753 16.2321 13.6756 16.2321 13.6719C16.2289 13.6684 16.2253 13.6647 16.2253 13.661C16.2185 13.6505 16.2116 13.6397 16.2084 13.6291C16.2051 13.6257 16.2051 13.6183 16.2015 13.6114C16.1982 13.6043 16.1982 13.6006 16.1947 13.5938C16.1914 13.5866 16.1914 13.5761 16.1914 13.569C16.1914 13.5655 16.1914 13.5581 16.1914 13.5547C16.1914 13.5476 16.1914 13.5405 16.1914 13.5333C16.1914 13.5191 16.1914 13.5048 16.1947 13.4906L16.4747 11.7812L17.9944 11.1726Z" fill="url(#paint50_linear_286_244)"/>
<path d="M17.9941 11.1724L15.2207 10.332C15.2207 10.3286 15.224 10.3249 15.224 10.3212C15.2273 10.3141 15.2273 10.3069 15.2308 10.3035C15.2377 10.2893 15.2445 10.2787 15.2513 10.2679C15.2546 10.2608 15.2582 10.257 15.265 10.2502C15.2686 10.2468 15.2718 10.2394 15.2787 10.2359C15.282 10.2325 15.2891 10.2254 15.2923 10.2217C15.2956 10.218 15.3025 10.2146 15.306 10.2109C15.3128 10.2074 15.3197 10.2 15.3265 10.1966C15.3298 10.1932 15.3366 10.1895 15.3435 10.1895C15.3539 10.1861 15.3604 10.1824 15.3708 10.1786C15.3741 10.1786 15.3777 10.1752 15.3845 10.1752C15.3913 10.1718 15.4014 10.1718 15.4118 10.1681L17.0582 9.91895L17.9941 11.1724Z" fill="url(#paint51_linear_286_244)"/>
<path d="M17.9941 11.1727L16.4743 11.785L15.2825 10.5743C15.2688 10.5635 15.262 10.5495 15.2518 10.5353C15.245 10.521 15.2349 10.5067 15.2313 10.4925C15.2281 10.4854 15.2245 10.4782 15.2245 10.4711C15.2177 10.4497 15.2141 10.4249 15.2141 10.4035C15.2141 10.3964 15.2141 10.3893 15.2141 10.3822C15.2141 10.3716 15.2141 10.3645 15.2177 10.3537C15.2177 10.3502 15.2209 10.3465 15.2209 10.3394C15.2209 10.336 15.2242 10.3323 15.2242 10.3289L17.9941 11.1727Z" fill="url(#paint52_linear_286_244)"/>
</g>
</g>
<defs>
<filter id="filter0_d_286_244" x="4" y="7.18628" width="28" height="29.6274" filterUnits="userSpaceOnUse" color-interpolation-filters="sRGB">
<feFlood flood-opacity="0" result="BackgroundImageFix"/>
<feColorMatrix in="SourceAlpha" type="matrix" values="0 0 0 0 0 0 0 0 0 0 0 0 0 0 0 0 0 0 127 0" result="hardAlpha"/>
<feOffset dy="4"/>
<feGaussianBlur stdDeviation="2"/>
<feComposite in2="hardAlpha" operator="out"/>
<feColorMatrix type="matrix" values="0 0 0 0 0.512291 0 0 0 0 0.286279 0 0 0 0 1 0 0 0 0.17 0"/>
<feBlend mode="normal" in2="BackgroundImageFix" result="effect1_dropShadow_286_244"/>
<feBlend mode="normal" in="SourceGraphic" in2="effect1_dropShadow_286_244" result="shape"/>
</filter>
<filter id="filter1_d_286_244" x="6.625" y="6.49878" width="22.75" height="24.3774" filterUnits="userSpaceOnUse" color-interpolation-filters="sRGB">
<feFlood flood-opacity="0" result="BackgroundImageFix"/>
<feColorMatrix in="SourceAlpha" type="matrix" values="0 0 0 0 0 0 0 0 0 0 0 0 0 0 0 0 0 0 127 0" result="hardAlpha"/>
<feOffset dy="0.6875"/>
<feGaussianBlur stdDeviation="0.6875"/>
<feColorMatrix type="matrix" values="0 0 0 0 0.287239 0 0 0 0 0.155102 0 0 0 0 0.511019 0 0 0 1 0"/>
<feBlend mode="normal" in2="BackgroundImageFix" result="effect1_dropShadow_286_244"/>
<feBlend mode="normal" in="SourceGraphic" in2="effect1_dropShadow_286_244" result="shape"/>
</filter>
<filter id="filter2_d_286_244" x="7" y="13" width="10" height="10" filterUnits="userSpaceOnUse" color-interpolation-filters="sRGB">
<feFlood flood-opacity="0" result="BackgroundImageFix"/>
<feColorMatrix in="SourceAlpha" type="matrix" values="0 0 0 0 0 0 0 0 0 0 0 0 0 0 0 0 0 0 127 0" result="hardAlpha"/>
<feOffset dy="1"/>
<feGaussianBlur stdDeviation="1"/>
<feComposite in2="hardAlpha" operator="out"/>
<feColorMatrix type="matrix" values="0 0 0 0 1 0 0 0 0 1 0 0 0 0 1 0 0 0 0.5 0"/>
<feBlend mode="normal" in2="BackgroundImageFix" result="effect1_dropShadow_286_244"/>
<feBlend mode="normal" in="SourceGraphic" in2="effect1_dropShadow_286_244" result="shape"/>
</filter>
<filter id="filter3_d_286_244" x="19" y="13" width="10" height="10" filterUnits="userSpaceOnUse" color-interpolation-filters="sRGB">
<feFlood flood-opacity="0" result="BackgroundImageFix"/>
<feColorMatrix in="SourceAlpha" type="matrix" values="0 0 0 0 0 0 0 0 0 0 0 0 0 0 0 0 0 0 127 0" result="hardAlpha"/>
<feOffset dy="1"/>
<feGaussianBlur stdDeviation="1"/>
<feComposite in2="hardAlpha" operator="out"/>
<feColorMatrix type="matrix" values="0 0 0 0 1 0 0 0 0 1 0 0 0 0 1 0 0 0 0.5 0"/>
<feBlend mode="normal" in2="BackgroundImageFix" result="effect1_dropShadow_286_244"/>
<feBlend mode="normal" in="SourceGraphic" in2="effect1_dropShadow_286_244" result="shape"/>
</filter>
<filter id="filter4_d_286_244" x="13" y="19" width="10" height="10" filterUnits="userSpaceOnUse" color-interpolation-filters="sRGB">
<feFlood flood-opacity="0" result="BackgroundImageFix"/>
<feColorMatrix in="SourceAlpha" type="matrix" values="0 0 0 0 0 0 0 0 0 0 0 0 0 0 0 0 0 0 127 0" result="hardAlpha"/>
<feOffset dy="1"/>
<feGaussianBlur stdDeviation="1"/>
<feComposite in2="hardAlpha" operator="out"/>
<feColorMatrix type="matrix" values="0 0 0 0 1 0 0 0 0 1 0 0 0 0 1 0 0 0 0.5 0"/>
<feBlend mode="normal" in2="BackgroundImageFix" result="effect1_dropShadow_286_244"/>
<feBlend mode="normal" in="SourceGraphic" in2="effect1_dropShadow_286_244" result="shape"/>
</filter>
<filter id="filter5_d_286_244" x="13" y="7" width="10" height="10" filterUnits="userSpaceOnUse" color-interpolation-filters="sRGB">
<feFlood flood-opacity="0" result="BackgroundImageFix"/>
<feColorMatrix in="SourceAlpha" type="matrix" values="0 0 0 0 0 0 0 0 0 0 0 0 0 0 0 0 0 0 127 0" result="hardAlpha"/>
<feOffset dy="1"/>
<feGaussianBlur stdDeviation="1"/>
<feComposite in2="hardAlpha" operator="out"/>
<feColorMatrix type="matrix" values="0 0 0 0 1 0 0 0 0 1 0 0 0 0 1 0 0 0 0.5 0"/>
<feBlend mode="normal" in2="BackgroundImageFix" result="effect1_dropShadow_286_244"/>
<feBlend mode="normal" in="SourceGraphic" in2="effect1_dropShadow_286_244" result="shape"/>
</filter>
<linearGradient id="paint0_linear_286_244" x1="1.55063" y1="5" x2="1.55063" y2="37" gradientUnits="userSpaceOnUse">
<stop stop-color="#B28EFF"/>
<stop offset="0.48" stop-color="#8F6DD6"/>
</linearGradient>
<linearGradient id="paint1_linear_286_244" x1="5" y1="4" x2="5" y2="31.7032" gradientUnits="userSpaceOnUse">
<stop offset="0.06" stop-color="#A143FF"/>
<stop offset="0.46" stop-color="#8548F1"/>
<stop offset="0.73" stop-color="#6F3DC6"/>
</linearGradient>
<linearGradient id="paint2_linear_286_244" x1="14" y1="5.33398" x2="14" y2="6.96787" gradientUnits="userSpaceOnUse">
<stop offset="0.2" stop-color="#856DB9"/>
<stop offset="0.82" stop-color="#46247C"/>
</linearGradient>
<linearGradient id="paint3_linear_286_244" x1="6.52625" y1="7" x2="6.52625" y2="28.5111" gradientUnits="userSpaceOnUse">
<stop offset="0.205" stop-color="#9747FF"/>
<stop offset="0.64" stop-color="#7734CA"/>
</linearGradient>
<linearGradient id="paint4_linear_286_244" x1="23.0574" y1="25" x2="23" y2="27.6838" gradientUnits="userSpaceOnUse">
<stop offset="0.2" stop-color="#856DB9"/>
<stop offset="0.82" stop-color="#46247C"/>
</linearGradient>
<linearGradient id="paint5_linear_286_244" x1="10.5" y1="14" x2="13.2857" y2="19.7857" gradientUnits="userSpaceOnUse">
<stop stop-color="#E1E1E1" stop-opacity="0.33"/>
<stop offset="0.195" stop-color="#D1D0D0" stop-opacity="0.32"/>
<stop offset="0.76" stop-color="#D6D5D5" stop-opacity="0.58"/>
<stop offset="1" stop-color="#DBDBDB" stop-opacity="0.31"/>
</linearGradient>
<linearGradient id="paint6_linear_286_244" x1="10.5" y1="14" x2="13.2857" y2="19.7857" gradientUnits="userSpaceOnUse">
<stop stop-color="#D8D8D8"/>
<stop offset="0.195" stop-color="#D1D0D0" stop-opacity="0.32"/>
<stop offset="0.76" stop-color="#D6D5D5" stop-opacity="0.58"/>
<stop offset="1" stop-color="#DBDBDB" stop-opacity="0.31"/>
</linearGradient>
<linearGradient id="paint7_linear_286_244" x1="11.5232" y1="14.228" x2="12.0001" y2="17.2141" gradientUnits="userSpaceOnUse">
<stop stop-color="white" stop-opacity="0.54"/>
<stop offset="1" stop-color="#696969" stop-opacity="0.71"/>
</linearGradient>
<linearGradient id="paint8_linear_286_244" x1="14.6536" y1="15.9163" x2="12.1149" y2="17.1732" gradientUnits="userSpaceOnUse">
<stop stop-color="#ECE5E7" stop-opacity="0.14"/>
<stop offset="1" stop-color="#868283" stop-opacity="0.46"/>
</linearGradient>
<linearGradient id="paint9_linear_286_244" x1="12.643" y1="17.4285" x2="13.7195" y2="19.7258" gradientUnits="userSpaceOnUse">
<stop stop-color="#E1DCE2" stop-opacity="0.55"/>
<stop offset="1" stop-color="#B0B0B0" stop-opacity="0.5"/>
</linearGradient>
<linearGradient id="paint10_linear_286_244" x1="11.7858" y1="17.2143" x2="11.143" y2="19.5714" gradientUnits="userSpaceOnUse">
<stop stop-color="#E7E6E7" stop-opacity="0.56"/>
<stop offset="1" stop-color="#CBC5CB" stop-opacity="0.79"/>
</linearGradient>
<linearGradient id="paint11_linear_286_244" x1="12.6429" y1="14.2141" x2="12" y2="17.2141" gradientUnits="userSpaceOnUse">
<stop offset="0.0246486" stop-color="#FAECDB" stop-opacity="0.49"/>
<stop offset="1" stop-color="#948C82" stop-opacity="0.38"/>
</linearGradient>
<linearGradient id="paint12_linear_286_244" x1="14.7859" y1="16.7856" x2="12.4287" y2="17.2142" gradientUnits="userSpaceOnUse">
<stop stop-color="#DAD3D9" stop-opacity="0.64"/>
<stop offset="1" stop-color="#B4B1B3" stop-opacity="0.45"/>
</linearGradient>
<linearGradient id="paint13_linear_286_244" x1="12" y1="17.2143" x2="13.2857" y2="19.7857" gradientUnits="userSpaceOnUse">
<stop stop-color="#D5CFD6" stop-opacity="0.64"/>
<stop offset="1" stop-color="#A9A2AA" stop-opacity="0.43"/>
</linearGradient>
<linearGradient id="paint14_linear_286_244" x1="11.713" y1="17.1726" x2="10.0716" y2="19.5714" gradientUnits="userSpaceOnUse">
<stop stop-color="#D5D1D7" stop-opacity="0.92"/>
<stop offset="1" stop-color="#A5A0A8" stop-opacity="0.34"/>
</linearGradient>
<linearGradient id="paint15_linear_286_244" x1="10.0715" y1="15.9286" x2="11.7858" y2="17" gradientUnits="userSpaceOnUse">
<stop stop-color="#D6D1D8" stop-opacity="0.44"/>
<stop offset="1" stop-color="#ABA5AD" stop-opacity="0.24"/>
</linearGradient>
<linearGradient id="paint16_linear_286_244" x1="9.24236" y1="16.8609" x2="11.9658" y2="17.6005" gradientUnits="userSpaceOnUse">
<stop stop-color="#C3BFC5" stop-opacity="0.55"/>
<stop offset="1" stop-color="#E1E1E1" stop-opacity="0.45"/>
</linearGradient>
<linearGradient id="paint17_linear_286_244" x1="22.5" y1="14" x2="25.2857" y2="19.7857" gradientUnits="userSpaceOnUse">
<stop stop-color="#E1E1E1" stop-opacity="0.33"/>
<stop offset="0.195" stop-color="#D1D0D0" stop-opacity="0.32"/>
<stop offset="0.76" stop-color="#D6D5D5" stop-opacity="0.58"/>
<stop offset="1" stop-color="#DBDBDB" stop-opacity="0.31"/>
</linearGradient>
<linearGradient id="paint18_linear_286_244" x1="22.5" y1="14" x2="25.2857" y2="19.7857" gradientUnits="userSpaceOnUse">
<stop stop-color="#D8D8D8"/>
<stop offset="0.195" stop-color="#D1D0D0" stop-opacity="0.32"/>
<stop offset="0.76" stop-color="#D6D5D5" stop-opacity="0.58"/>
<stop offset="1" stop-color="#DBDBDB" stop-opacity="0.31"/>
</linearGradient>
<linearGradient id="paint19_linear_286_244" x1="23.5232" y1="14.228" x2="24.0001" y2="17.2141" gradientUnits="userSpaceOnUse">
<stop stop-color="white" stop-opacity="0.54"/>
<stop offset="1" stop-color="#696969" stop-opacity="0.71"/>
</linearGradient>
<linearGradient id="paint20_linear_286_244" x1="26.6536" y1="15.9163" x2="24.1149" y2="17.1732" gradientUnits="userSpaceOnUse">
<stop stop-color="#ECE5E7" stop-opacity="0.14"/>
<stop offset="1" stop-color="#868283" stop-opacity="0.46"/>
</linearGradient>
<linearGradient id="paint21_linear_286_244" x1="24.6428" y1="17.4285" x2="25.7192" y2="19.7258" gradientUnits="userSpaceOnUse">
<stop stop-color="#E1DCE2" stop-opacity="0.55"/>
<stop offset="1" stop-color="#B0B0B0" stop-opacity="0.5"/>
</linearGradient>
<linearGradient id="paint22_linear_286_244" x1="23.7856" y1="17.2143" x2="23.1427" y2="19.5714" gradientUnits="userSpaceOnUse">
<stop stop-color="#E7E6E7" stop-opacity="0.56"/>
<stop offset="1" stop-color="#CBC5CB" stop-opacity="0.79"/>
</linearGradient>
<linearGradient id="paint23_linear_286_244" x1="24.6429" y1="14.2141" x2="24" y2="17.2141" gradientUnits="userSpaceOnUse">
<stop offset="0.0246486" stop-color="#FAECDB" stop-opacity="0.49"/>
<stop offset="1" stop-color="#948C82" stop-opacity="0.38"/>
</linearGradient>
<linearGradient id="paint24_linear_286_244" x1="26.7856" y1="16.7856" x2="24.4285" y2="17.2142" gradientUnits="userSpaceOnUse">
<stop stop-color="#DAD3D9" stop-opacity="0.64"/>
<stop offset="1" stop-color="#B4B1B3" stop-opacity="0.45"/>
</linearGradient>
<linearGradient id="paint25_linear_286_244" x1="24" y1="17.2143" x2="25.2857" y2="19.7857" gradientUnits="userSpaceOnUse">
<stop stop-color="#D5CFD6" stop-opacity="0.64"/>
<stop offset="1" stop-color="#A9A2AA" stop-opacity="0.43"/>
</linearGradient>
<linearGradient id="paint26_linear_286_244" x1="23.713" y1="17.1726" x2="22.0716" y2="19.5714" gradientUnits="userSpaceOnUse">
<stop stop-color="#D5D1D7" stop-opacity="0.92"/>
<stop offset="1" stop-color="#A5A0A8" stop-opacity="0.34"/>
</linearGradient>
<linearGradient id="paint27_linear_286_244" x1="22.0713" y1="15.9286" x2="23.7855" y2="17" gradientUnits="userSpaceOnUse">
<stop stop-color="#D6D1D8" stop-opacity="0.44"/>
<stop offset="1" stop-color="#ABA5AD" stop-opacity="0.24"/>
</linearGradient>
<linearGradient id="paint28_linear_286_244" x1="21.2424" y1="16.8609" x2="23.9658" y2="17.6005" gradientUnits="userSpaceOnUse">
<stop stop-color="#C3BFC5" stop-opacity="0.55"/>
<stop offset="1" stop-color="#E1E1E1" stop-opacity="0.45"/>
</linearGradient>
<linearGradient id="paint29_linear_286_244" x1="16.5" y1="20" x2="19.2857" y2="25.7857" gradientUnits="userSpaceOnUse">
<stop stop-color="#E1E1E1" stop-opacity="0.33"/>
<stop offset="0.195" stop-color="#D1D0D0" stop-opacity="0.32"/>
<stop offset="0.76" stop-color="#D6D5D5" stop-opacity="0.58"/>
<stop offset="1" stop-color="#DBDBDB" stop-opacity="0.31"/>
</linearGradient>
<linearGradient id="paint30_linear_286_244" x1="16.5" y1="20" x2="19.2857" y2="25.7857" gradientUnits="userSpaceOnUse">
<stop stop-color="#D8D8D8"/>
<stop offset="0.195" stop-color="#D1D0D0" stop-opacity="0.32"/>
<stop offset="0.76" stop-color="#D6D5D5" stop-opacity="0.58"/>
<stop offset="1" stop-color="#DBDBDB" stop-opacity="0.31"/>
</linearGradient>
<linearGradient id="paint31_linear_286_244" x1="17.5232" y1="20.228" x2="18.0001" y2="23.2141" gradientUnits="userSpaceOnUse">
<stop stop-color="white" stop-opacity="0.54"/>
<stop offset="1" stop-color="#696969" stop-opacity="0.71"/>
</linearGradient>
<linearGradient id="paint32_linear_286_244" x1="20.6536" y1="21.9163" x2="18.1149" y2="23.1732" gradientUnits="userSpaceOnUse">
<stop stop-color="#ECE5E7" stop-opacity="0.14"/>
<stop offset="1" stop-color="#868283" stop-opacity="0.46"/>
</linearGradient>
<linearGradient id="paint33_linear_286_244" x1="18.6428" y1="23.4285" x2="19.7192" y2="25.7258" gradientUnits="userSpaceOnUse">
<stop stop-color="#E1DCE2" stop-opacity="0.55"/>
<stop offset="1" stop-color="#B0B0B0" stop-opacity="0.5"/>
</linearGradient>
<linearGradient id="paint34_linear_286_244" x1="17.7856" y1="23.2143" x2="17.1427" y2="25.5714" gradientUnits="userSpaceOnUse">
<stop stop-color="#E7E6E7" stop-opacity="0.56"/>
<stop offset="1" stop-color="#CBC5CB" stop-opacity="0.79"/>
</linearGradient>
<linearGradient id="paint35_linear_286_244" x1="18.6429" y1="20.2141" x2="18" y2="23.2141" gradientUnits="userSpaceOnUse">
<stop offset="0.0246486" stop-color="#FAECDB" stop-opacity="0.49"/>
<stop offset="1" stop-color="#948C82" stop-opacity="0.38"/>
</linearGradient>
<linearGradient id="paint36_linear_286_244" x1="20.7856" y1="22.7856" x2="18.4285" y2="23.2142" gradientUnits="userSpaceOnUse">
<stop stop-color="#DAD3D9" stop-opacity="0.64"/>
<stop offset="1" stop-color="#B4B1B3" stop-opacity="0.45"/>
</linearGradient>
<linearGradient id="paint37_linear_286_244" x1="18" y1="23.2143" x2="19.2857" y2="25.7857" gradientUnits="userSpaceOnUse">
<stop stop-color="#D5CFD6" stop-opacity="0.64"/>
<stop offset="1" stop-color="#A9A2AA" stop-opacity="0.43"/>
</linearGradient>
<linearGradient id="paint38_linear_286_244" x1="17.713" y1="23.1726" x2="16.0716" y2="25.5714" gradientUnits="userSpaceOnUse">
<stop stop-color="#D5D1D7" stop-opacity="0.92"/>
<stop offset="1" stop-color="#A5A0A8" stop-opacity="0.34"/>
</linearGradient>
<linearGradient id="paint39_linear_286_244" x1="16.0713" y1="21.9286" x2="17.7855" y2="23" gradientUnits="userSpaceOnUse">
<stop stop-color="#D6D1D8" stop-opacity="0.44"/>
<stop offset="1" stop-color="#ABA5AD" stop-opacity="0.24"/>
</linearGradient>
<linearGradient id="paint40_linear_286_244" x1="15.2424" y1="22.8609" x2="17.9658" y2="23.6005" gradientUnits="userSpaceOnUse">
<stop stop-color="#C3BFC5" stop-opacity="0.55"/>
<stop offset="1" stop-color="#E1E1E1" stop-opacity="0.45"/>
</linearGradient>
<linearGradient id="paint41_linear_286_244" x1="16.5" y1="8" x2="19.2857" y2="13.7857" gradientUnits="userSpaceOnUse">
<stop stop-color="#E1E1E1" stop-opacity="0.33"/>
<stop offset="0.195" stop-color="#D1D0D0" stop-opacity="0.32"/>
<stop offset="0.76" stop-color="#D6D5D5" stop-opacity="0.58"/>
<stop offset="1" stop-color="#DBDBDB" stop-opacity="0.31"/>
</linearGradient>
<linearGradient id="paint42_linear_286_244" x1="16.5" y1="8" x2="19.2857" y2="13.7857" gradientUnits="userSpaceOnUse">
<stop stop-color="#D8D8D8"/>
<stop offset="0.195" stop-color="#D1D0D0" stop-opacity="0.32"/>
<stop offset="0.76" stop-color="#D6D5D5" stop-opacity="0.58"/>
<stop offset="1" stop-color="#DBDBDB" stop-opacity="0.31"/>
</linearGradient>
<linearGradient id="paint43_linear_286_244" x1="17.5232" y1="8.22803" x2="18.0001" y2="11.2141" gradientUnits="userSpaceOnUse">
<stop stop-color="white" stop-opacity="0.54"/>
<stop offset="1" stop-color="#696969" stop-opacity="0.71"/>
</linearGradient>
<linearGradient id="paint44_linear_286_244" x1="20.6536" y1="9.91626" x2="18.1149" y2="11.1732" gradientUnits="userSpaceOnUse">
<stop stop-color="#ECE5E7" stop-opacity="0.14"/>
<stop offset="1" stop-color="#868283" stop-opacity="0.46"/>
</linearGradient>
<linearGradient id="paint45_linear_286_244" x1="18.6428" y1="11.4285" x2="19.7192" y2="13.7258" gradientUnits="userSpaceOnUse">
<stop stop-color="#E1DCE2" stop-opacity="0.55"/>
<stop offset="1" stop-color="#B0B0B0" stop-opacity="0.5"/>
</linearGradient>
<linearGradient id="paint46_linear_286_244" x1="17.7858" y1="11.2143" x2="17.143" y2="13.5714" gradientUnits="userSpaceOnUse">
<stop stop-color="#E7E6E7" stop-opacity="0.56"/>
<stop offset="1" stop-color="#CBC5CB" stop-opacity="0.79"/>
</linearGradient>
<linearGradient id="paint47_linear_286_244" x1="18.6429" y1="8.21411" x2="18" y2="11.2141" gradientUnits="userSpaceOnUse">
<stop offset="0.0246486" stop-color="#FAECDB" stop-opacity="0.49"/>
<stop offset="1" stop-color="#948C82" stop-opacity="0.38"/>
</linearGradient>
<linearGradient id="paint48_linear_286_244" x1="20.7856" y1="10.7856" x2="18.4285" y2="11.2142" gradientUnits="userSpaceOnUse">
<stop stop-color="#DAD3D9" stop-opacity="0.64"/>
<stop offset="1" stop-color="#B4B1B3" stop-opacity="0.45"/>
</linearGradient>
<linearGradient id="paint49_linear_286_244" x1="18" y1="11.2143" x2="19.2857" y2="13.7857" gradientUnits="userSpaceOnUse">
<stop stop-color="#D5CFD6" stop-opacity="0.64"/>
<stop offset="1" stop-color="#A9A2AA" stop-opacity="0.43"/>
</linearGradient>
<linearGradient id="paint50_linear_286_244" x1="17.713" y1="11.1726" x2="16.0716" y2="13.5714" gradientUnits="userSpaceOnUse">
<stop stop-color="#D5D1D7" stop-opacity="0.92"/>
<stop offset="1" stop-color="#A5A0A8" stop-opacity="0.34"/>
</linearGradient>
<linearGradient id="paint51_linear_286_244" x1="16.0713" y1="9.92857" x2="17.7855" y2="11" gradientUnits="userSpaceOnUse">
<stop stop-color="#D6D1D8" stop-opacity="0.44"/>
<stop offset="1" stop-color="#ABA5AD" stop-opacity="0.24"/>
</linearGradient>
<linearGradient id="paint52_linear_286_244" x1="15.2424" y1="10.8609" x2="17.9658" y2="11.6005" gradientUnits="userSpaceOnUse">
<stop stop-color="#C3BFC5" stop-opacity="0.55"/>
<stop offset="1" stop-color="#E1E1E1" stop-opacity="0.45"/>
</linearGradient>
<clipPath id="clip0_286_244">
<rect width="36" height="36" fill="white"/>
</clipPath>
</defs>
</svg>
