<svg width="13" height="12" viewBox="0 0 13 12" fill="none" xmlns="http://www.w3.org/2000/svg">
<path d="M6.03571 8.79902C5.6103 8.79902 5.22678 8.68944 4.88516 8.47029C4.54676 8.25113 4.27927 7.93046 4.08267 7.50827C3.8893 7.08286 3.79262 6.57848 3.79262 5.99515C3.79262 5.40537 3.89253 4.901 4.09234 4.48203C4.29216 4.05984 4.56127 3.74077 4.89966 3.52485C5.24128 3.30892 5.62158 3.19934 6.04055 3.19612C6.43696 3.19934 6.75763 3.2928 7.00256 3.4765C7.2475 3.6602 7.42798 3.87613 7.544 4.12429H7.60685V3.33148H8.9411V6.97167C8.94755 7.20694 8.9975 7.38258 9.09096 7.4986C9.18442 7.6114 9.32301 7.6678 9.50671 7.6678C9.73875 7.6678 9.94179 7.5824 10.1158 7.41159C10.2931 7.24078 10.4284 7.00229 10.5219 6.69612C10.6186 6.38672 10.6669 6.02899 10.6669 5.62291C10.6669 4.84299 10.4929 4.15652 10.1448 3.56352C9.79676 2.97052 9.30689 2.51126 8.67522 2.18576C8.04676 1.86025 7.32162 1.6975 6.4998 1.6975C5.67153 1.70072 4.94156 1.88926 4.30988 2.2631C3.68143 2.63373 3.19478 3.14616 2.84994 3.8004C2.5051 4.45141 2.33267 5.18461 2.33267 5.99998C2.33267 6.88304 2.48737 7.64685 2.79676 8.29142C3.10938 8.93599 3.57186 9.4323 4.18419 9.78037C4.79653 10.1284 5.54423 10.3025 6.42729 10.3025C6.92038 10.3025 7.36352 10.2783 7.75671 10.23C8.15312 10.1848 8.54791 10.1107 8.9411 10.0076V11.2693C8.17084 11.4885 7.34418 11.5981 6.46113 11.5981C5.33313 11.5981 4.36145 11.3692 3.54607 10.9116C2.73069 10.4572 2.10708 9.80938 1.67522 8.96821C1.24658 8.12383 1.03226 7.13442 1.03226 5.99998C1.02904 4.93 1.25947 3.9696 1.72356 3.11877C2.19087 2.26794 2.84027 1.60242 3.67176 1.12222C4.50325 0.642018 5.44593 0.401917 6.4998 0.401917C7.56011 0.401917 8.50602 0.625904 9.33751 1.07388C10.169 1.52185 10.8152 2.14064 11.276 2.93023C11.7369 3.71983 11.9673 4.60933 11.9673 5.59874C11.9673 6.27554 11.8594 6.86048 11.6434 7.35357C11.4307 7.84345 11.1294 8.21729 10.7394 8.47512C10.3527 8.73295 9.90634 8.86186 9.40035 8.86186C9.10063 8.86186 8.82669 8.81835 8.57853 8.73134C8.33037 8.6411 8.12572 8.51702 7.96458 8.3591C7.80344 8.19796 7.70192 8.01587 7.66002 7.81283H7.60201C7.47632 8.07388 7.28617 8.30431 7.03157 8.50413C6.78019 8.70072 6.44824 8.79902 6.03571 8.79902ZM5.28157 5.99031C5.27835 6.29326 5.32347 6.56237 5.41693 6.79764C5.51039 7.02968 5.64575 7.21177 5.82301 7.34391C6.00026 7.47604 6.21136 7.54211 6.45629 7.54211C6.83336 7.54533 7.12342 7.40836 7.32646 7.1312C7.5295 6.85081 7.63424 6.47052 7.64069 5.99031C7.63424 5.51011 7.5295 5.13465 7.32646 4.86393C7.12664 4.58999 6.83659 4.45141 6.45629 4.44819C6.20813 4.44819 5.99543 4.51426 5.81817 4.64639C5.64092 4.77531 5.50556 4.95578 5.41209 5.18783C5.32186 5.41987 5.27835 5.68737 5.28157 5.99031Z" fill="#091120"/>
</svg>
