<svg width="36" height="36" viewBox="0 0 36 36" fill="none" xmlns="http://www.w3.org/2000/svg">
<g clip-path="url(#clip0_286_242)">
<g opacity="0.4">
<path d="M21 29.4777C23.095 28.2594 24.5794 27.3961 25.4532 26.8879L21 29.4777Z" fill="url(#paint0_linear_286_242)"/>
<path d="M21 29.4777C23.095 28.2594 24.5794 27.3961 25.4532 26.8879" stroke="white" stroke-opacity="0.62" stroke-width="0.711111" stroke-linecap="round"/>
</g>
<path fill-rule="evenodd" clip-rule="evenodd" d="M16.5888 2.80642C17.4632 2.30672 18.5368 2.30672 19.4112 2.80642L30.5668 9.18103C31.4531 9.68746 32 10.6299 32 11.6507V24.3493C32 25.3701 31.4531 26.3125 30.5668 26.819L19.4112 33.1936C18.5368 33.6933 17.4632 33.6933 16.5888 33.1936L5.4332 26.819C4.54695 26.3125 4 25.3701 4 24.3493V11.6507C4 10.6299 4.54695 9.68746 5.4332 9.18103L16.5888 2.80642Z" fill="url(#paint1_linear_286_242)"/>
<path d="M19.151 4.29684C18.426 3.90105 17.5328 3.90105 16.8079 4.29684L6.17156 10.1148C5.4466 10.5105 5 11.242 5 12.0336L5 23.6695C5 24.4611 5.4466 25.1925 6.17156 25.5883L16.8249 31.7032C17.5498 32.0989 18.443 32.0989 19.168 31.7032L29.8284 25.5883C30.5534 25.1925 31 24.4611 31 23.6695V12.0336C31 11.242 30.5534 10.5105 29.8284 10.1148L19.151 4.29684Z" fill="url(#paint2_linear_286_242)" fill-opacity="0.7"/>
<path d="M16.83 5.33398C16.83 5.33398 14.833 6.48694 14 6.96787Z" fill="url(#paint3_linear_286_242)"/>
<path d="M16.83 5.33398C16.83 5.33398 14.833 6.48694 14 6.96787" stroke="white" stroke-opacity="0.28" stroke-width="0.711111" stroke-linecap="round"/>
<g filter="url(#filter0_d_286_242)">
<g filter="url(#filter1_d_286_242)">
<path fill-rule="evenodd" clip-rule="evenodd" d="M17.3488 7.35023C17.7554 7.13155 18.2446 7.13155 18.6512 7.35023L27.2762 11.9886C27.722 12.2283 28 12.6935 28 13.1996V22.8004C28 23.3065 27.722 23.7717 27.2762 24.0114L18.6512 28.6498C18.2446 28.8685 17.7554 28.8685 17.3488 28.6498L8.72376 24.0114C8.27802 23.7717 8 23.3065 8 22.8004V13.1996C8 12.6935 8.27802 12.2283 8.72375 11.9886L17.3488 7.35023Z" fill="url(#paint4_linear_286_242)"/>
</g>
</g>
<g filter="url(#filter2_d_286_242)">
<path d="M20.4166 19.75C20.3815 19.75 20.3454 19.7396 20.3073 19.7136L20.3 19.706L20.2887 19.6932L20.2848 19.6901L20.2803 19.6854L20.2791 19.6848C20.278 19.6836 20.2768 19.6822 20.2754 19.6807C20.2743 19.6791 20.2729 19.6773 20.2716 19.6756C20.2698 19.6733 20.2679 19.6707 20.2656 19.668L20.263 19.6639L20.2562 19.6531L20.2562 19.6531L20.2554 19.6518C20.2523 19.6469 20.2495 19.6418 20.2432 19.629C20.2418 19.6245 20.2403 19.6201 20.2389 19.6158L20.2362 19.6062C20.2351 19.6024 20.2336 19.5967 20.2318 19.5905C20.2308 19.5862 20.2297 19.5804 20.2278 19.5708C20.2276 19.57 20.2275 19.5692 20.2273 19.5684C20.2271 19.5664 20.2268 19.5645 20.2266 19.5628L20.2257 19.5575C20.2255 19.554 20.2252 19.5507 20.225 19.5479C20.2244 19.5414 20.2237 19.5354 20.2233 19.5318C20.2237 19.5259 20.2248 19.516 20.2275 19.4947L20.4897 17.9043L20.5104 17.7789L20.4213 17.6884L19.3124 16.5607C19.3014 16.5492 19.2912 16.5366 19.2835 16.5256C19.2718 16.5073 19.2683 16.4997 19.2669 16.4961C19.2662 16.4939 19.2655 16.492 19.2649 16.4904L19.2618 16.4819L19.2607 16.479L19.2603 16.4779L19.2599 16.4762C19.2529 16.4476 19.25 16.4251 19.25 16.4035V16.4034V16.4033V16.4032V16.4031V16.4031V16.403V16.4029V16.4028V16.4027V16.4026V16.4026V16.4025V16.4024V16.4023V16.4022V16.4022V16.4021V16.402V16.4019V16.4018V16.4017V16.4017V16.4016V16.4015V16.4014V16.4013V16.4013V16.4012V16.4011V16.401V16.4009V16.4008V16.4008V16.4007V16.4006V16.4005V16.4004V16.4004V16.4003V16.4002V16.4001V16.4V16.4V16.3999V16.3998V16.3997V16.3996V16.3996V16.3995V16.3994V16.3993V16.3992V16.3992V16.3991V16.399V16.3989V16.3988V16.3988V16.3987V16.3986V16.3985V16.3984V16.3984V16.3983V16.3982V16.3981V16.3981V16.398V16.3979V16.3978V16.3977V16.3977V16.3976V16.3975V16.3974V16.3974V16.3973V16.3972V16.3971V16.397V16.397V16.3969V16.3968V16.3967V16.3967V16.3966V16.3965V16.3964V16.3963V16.3963V16.3962V16.3961V16.396V16.396V16.3959V16.3958V16.3957V16.3956V16.3956V16.3955V16.3954V16.3953V16.3953V16.3952V16.3951V16.395V16.395V16.3949V16.3948V16.3947V16.3947V16.3946V16.3945V16.3944V16.3944V16.3943V16.3942V16.3941V16.394V16.394V16.3939V16.3938V16.3937V16.3937V16.3936V16.3935V16.3934V16.3934V16.3933V16.3932V16.3931V16.3931V16.393V16.3929V16.3928V16.3928V16.3927V16.3926V16.3925V16.3925V16.3924V16.3923V16.3922V16.3922V16.3921V16.392V16.3919V16.3919V16.3918V16.3917V16.3916V16.3916V16.3915V16.3914V16.3913V16.3913V16.3912V16.3911V16.391V16.391V16.3909V16.3908V16.3908V16.3907V16.3906V16.3905V16.3905V16.3904V16.3903V16.3902V16.3902V16.3901V16.39V16.3899V16.3899V16.3898V16.3897V16.3896V16.3896V16.3895V16.3894V16.3893V16.3893V16.3892V16.3891V16.3891V16.389V16.3889V16.3888V16.3888V16.3887V16.3886V16.3885V16.3885V16.3884V16.3883V16.3882V16.3882V16.3881V16.388V16.388V16.3879V16.3878V16.3877V16.3877V16.3876V16.3875V16.3874V16.3874V16.3873V16.3872V16.3872V16.3871V16.387V16.3869V16.3869V16.3868V16.3867V16.3866V16.3866V16.3865V16.3864V16.3864V16.3863V16.3862V16.3861V16.3861V16.386V16.3859V16.3858V16.3858V16.3857V16.3856V16.3855V16.3855V16.3854V16.3853V16.3853V16.3852V16.3851V16.385V16.385V16.3849V16.3848V16.3847V16.3847V16.3846V16.3845V16.3845V16.3844V16.3843V16.3842V16.3842V16.3841V16.384V16.384V16.3839V16.3838V16.3837V16.3837V16.3836V16.3835V16.3834V16.3834V16.3833V16.3832V16.3832V16.3831V16.383V16.3829V16.3829V16.3828V16.3827V16.3826V16.3826V16.3825V16.3824V16.3824V16.3823V16.3822V16.3821V16.3821V16.382V16.3819V16.3818V16.3818V16.3817V16.3816V16.3816V16.3815V16.3814V16.3813V16.3813V16.3812V16.3811V16.381V16.381V16.3809V16.3808V16.3807V16.3807V16.3806V16.3805V16.3805V16.3804V16.3803V16.3802V16.3802V16.3801V16.38V16.3799V16.3799V16.3798V16.3797V16.3797V16.3796V16.3795V16.3794V16.3794V16.3793V16.3792V16.3791V16.3791V16.379V16.3789V16.3788V16.3788V16.3787V16.3786V16.3786V16.3785V16.3784V16.3783V16.3783V16.3782V16.3781V16.378V16.378V16.3779V16.3778V16.3777V16.3777V16.3776V16.3775V16.3774V16.3774V16.3773V16.3772V16.3771V16.3771V16.377V16.3769V16.3769V16.3768V16.3767V16.3766V16.3766V16.3765V16.3764V16.3763V16.3763V16.3762V16.3761V16.376V16.376V16.3759V16.3758V16.3757V16.3757V16.3756V16.3755V16.3754V16.3754V16.3753V16.3752V16.3751V16.3751V16.375V16.3749V16.3748V16.3748V16.3747V16.3746V16.3745V16.3745V16.3744V16.3743V16.3742V16.3742V16.3741V16.374V16.3739V16.3739V16.3738V16.3737V16.3736V16.3736V16.3735V16.3734V16.3733V16.3732V16.3732V16.3731V16.373V16.3729V16.3729V16.3728V16.3727V16.3726V16.3726V16.3725V16.3724V16.3723V16.3723V16.3722V16.3721V16.372V16.3719V16.3719V16.3718V16.3717V16.3716V16.3716V16.3715V16.3714V16.3713V16.3712V16.3712V16.3711V16.371V16.3709V16.3709L19.2601 16.3393V16.3297L19.3094 16.2463L19.3365 16.218C19.3437 16.2139 19.3499 16.21 19.3546 16.2068C19.3617 16.203 19.3706 16.198 19.3802 16.1922C19.3816 16.1916 19.3834 16.191 19.3854 16.1902L19.3981 16.187C19.4042 16.1855 19.4089 16.1843 19.413 16.1833C19.4188 16.1818 19.4232 16.1807 19.4279 16.1795L20.9559 15.9494L21.0882 15.9295L21.145 15.8083L21.8212 14.3662C21.8212 14.3662 21.8212 14.3661 21.8212 14.3661C21.857 14.2899 21.9248 14.25 21.9943 14.25C22.0432 14.25 22.0943 14.2706 22.1331 14.3099C22.1353 14.3127 22.1373 14.3151 22.139 14.3172L22.1457 14.3253L22.149 14.3305C22.1646 14.3549 22.169 14.3625 22.1711 14.3669L22.1713 14.3672L22.8579 15.8129L22.9149 15.933L23.0464 15.9528L24.5798 16.1843L24.5798 16.1843L24.5812 16.1845C24.6501 16.1945 24.714 16.2458 24.7391 16.3277C24.7406 16.3371 24.7428 16.3476 24.746 16.3586V16.3643L24.7491 16.3777L24.7497 16.3881C24.7515 16.4226 24.7457 16.4551 24.7352 16.4799L24.7348 16.4798L24.7303 16.4923C24.7294 16.4947 24.7284 16.4971 24.7271 16.4998L24.7142 16.5187C24.7055 16.5314 24.6941 16.5454 24.6831 16.557L23.5742 17.6846L23.4851 17.7753L23.5058 17.9007L23.7687 19.4911C23.7822 19.5792 23.7496 19.659 23.6884 19.7069C23.6706 19.7196 23.6564 19.7277 23.6471 19.7321L23.6313 19.7372C23.6107 19.7439 23.5919 19.7466 23.5748 19.7466C23.5441 19.7466 23.5138 19.739 23.4869 19.7242L23.4864 19.724L22.1135 18.9725L21.9935 18.9068L21.8735 18.9725L20.5006 19.724L20.4928 19.7282L20.4853 19.733C20.4712 19.7421 20.4483 19.75 20.4166 19.75ZM23.6141 19.7451L23.6155 19.7444C23.615 19.7446 23.6143 19.745 23.6141 19.7451Z" fill="white" stroke="url(#paint5_linear_286_242)" stroke-width="0.5"/>
<path d="M20.4166 19.75C20.3815 19.75 20.3454 19.7396 20.3073 19.7136L20.3 19.706L20.2887 19.6932L20.2848 19.6901L20.2803 19.6854L20.2791 19.6848C20.278 19.6836 20.2768 19.6822 20.2754 19.6807C20.2743 19.6791 20.2729 19.6773 20.2716 19.6756C20.2698 19.6733 20.2679 19.6707 20.2656 19.668L20.263 19.6639L20.2562 19.6531L20.2562 19.6531L20.2554 19.6518C20.2523 19.6469 20.2495 19.6418 20.2432 19.629C20.2418 19.6245 20.2403 19.6201 20.2389 19.6158L20.2362 19.6062C20.2351 19.6024 20.2336 19.5967 20.2318 19.5905C20.2308 19.5862 20.2297 19.5804 20.2278 19.5708C20.2276 19.57 20.2275 19.5692 20.2273 19.5684C20.2271 19.5664 20.2268 19.5645 20.2266 19.5628L20.2257 19.5575C20.2255 19.554 20.2252 19.5507 20.225 19.5479C20.2244 19.5414 20.2237 19.5354 20.2233 19.5318C20.2237 19.5259 20.2248 19.516 20.2275 19.4947L20.4897 17.9043L20.5104 17.7789L20.4213 17.6884L19.3124 16.5607C19.3014 16.5492 19.2912 16.5366 19.2835 16.5256C19.2718 16.5073 19.2683 16.4997 19.2669 16.4961C19.2662 16.4939 19.2655 16.492 19.2649 16.4904L19.2618 16.4819L19.2607 16.479L19.2603 16.4779L19.2599 16.4762C19.2529 16.4476 19.25 16.4251 19.25 16.4035V16.4034V16.4033V16.4032V16.4031V16.4031V16.403V16.4029V16.4028V16.4027V16.4026V16.4026V16.4025V16.4024V16.4023V16.4022V16.4022V16.4021V16.402V16.4019V16.4018V16.4017V16.4017V16.4016V16.4015V16.4014V16.4013V16.4013V16.4012V16.4011V16.401V16.4009V16.4008V16.4008V16.4007V16.4006V16.4005V16.4004V16.4004V16.4003V16.4002V16.4001V16.4V16.4V16.3999V16.3998V16.3997V16.3996V16.3996V16.3995V16.3994V16.3993V16.3992V16.3992V16.3991V16.399V16.3989V16.3988V16.3988V16.3987V16.3986V16.3985V16.3984V16.3984V16.3983V16.3982V16.3981V16.3981V16.398V16.3979V16.3978V16.3977V16.3977V16.3976V16.3975V16.3974V16.3974V16.3973V16.3972V16.3971V16.397V16.397V16.3969V16.3968V16.3967V16.3967V16.3966V16.3965V16.3964V16.3963V16.3963V16.3962V16.3961V16.396V16.396V16.3959V16.3958V16.3957V16.3956V16.3956V16.3955V16.3954V16.3953V16.3953V16.3952V16.3951V16.395V16.395V16.3949V16.3948V16.3947V16.3947V16.3946V16.3945V16.3944V16.3944V16.3943V16.3942V16.3941V16.394V16.394V16.3939V16.3938V16.3937V16.3937V16.3936V16.3935V16.3934V16.3934V16.3933V16.3932V16.3931V16.3931V16.393V16.3929V16.3928V16.3928V16.3927V16.3926V16.3925V16.3925V16.3924V16.3923V16.3922V16.3922V16.3921V16.392V16.3919V16.3919V16.3918V16.3917V16.3916V16.3916V16.3915V16.3914V16.3913V16.3913V16.3912V16.3911V16.391V16.391V16.3909V16.3908V16.3908V16.3907V16.3906V16.3905V16.3905V16.3904V16.3903V16.3902V16.3902V16.3901V16.39V16.3899V16.3899V16.3898V16.3897V16.3896V16.3896V16.3895V16.3894V16.3893V16.3893V16.3892V16.3891V16.3891V16.389V16.3889V16.3888V16.3888V16.3887V16.3886V16.3885V16.3885V16.3884V16.3883V16.3882V16.3882V16.3881V16.388V16.388V16.3879V16.3878V16.3877V16.3877V16.3876V16.3875V16.3874V16.3874V16.3873V16.3872V16.3872V16.3871V16.387V16.3869V16.3869V16.3868V16.3867V16.3866V16.3866V16.3865V16.3864V16.3864V16.3863V16.3862V16.3861V16.3861V16.386V16.3859V16.3858V16.3858V16.3857V16.3856V16.3855V16.3855V16.3854V16.3853V16.3853V16.3852V16.3851V16.385V16.385V16.3849V16.3848V16.3847V16.3847V16.3846V16.3845V16.3845V16.3844V16.3843V16.3842V16.3842V16.3841V16.384V16.384V16.3839V16.3838V16.3837V16.3837V16.3836V16.3835V16.3834V16.3834V16.3833V16.3832V16.3832V16.3831V16.383V16.3829V16.3829V16.3828V16.3827V16.3826V16.3826V16.3825V16.3824V16.3824V16.3823V16.3822V16.3821V16.3821V16.382V16.3819V16.3818V16.3818V16.3817V16.3816V16.3816V16.3815V16.3814V16.3813V16.3813V16.3812V16.3811V16.381V16.381V16.3809V16.3808V16.3807V16.3807V16.3806V16.3805V16.3805V16.3804V16.3803V16.3802V16.3802V16.3801V16.38V16.3799V16.3799V16.3798V16.3797V16.3797V16.3796V16.3795V16.3794V16.3794V16.3793V16.3792V16.3791V16.3791V16.379V16.3789V16.3788V16.3788V16.3787V16.3786V16.3786V16.3785V16.3784V16.3783V16.3783V16.3782V16.3781V16.378V16.378V16.3779V16.3778V16.3777V16.3777V16.3776V16.3775V16.3774V16.3774V16.3773V16.3772V16.3771V16.3771V16.377V16.3769V16.3769V16.3768V16.3767V16.3766V16.3766V16.3765V16.3764V16.3763V16.3763V16.3762V16.3761V16.376V16.376V16.3759V16.3758V16.3757V16.3757V16.3756V16.3755V16.3754V16.3754V16.3753V16.3752V16.3751V16.3751V16.375V16.3749V16.3748V16.3748V16.3747V16.3746V16.3745V16.3745V16.3744V16.3743V16.3742V16.3742V16.3741V16.374V16.3739V16.3739V16.3738V16.3737V16.3736V16.3736V16.3735V16.3734V16.3733V16.3732V16.3732V16.3731V16.373V16.3729V16.3729V16.3728V16.3727V16.3726V16.3726V16.3725V16.3724V16.3723V16.3723V16.3722V16.3721V16.372V16.3719V16.3719V16.3718V16.3717V16.3716V16.3716V16.3715V16.3714V16.3713V16.3712V16.3712V16.3711V16.371V16.3709V16.3709L19.2601 16.3393V16.3297L19.3094 16.2463L19.3365 16.218C19.3437 16.2139 19.3499 16.21 19.3546 16.2068C19.3617 16.203 19.3706 16.198 19.3802 16.1922C19.3816 16.1916 19.3834 16.191 19.3854 16.1902L19.3981 16.187C19.4042 16.1855 19.4089 16.1843 19.413 16.1833C19.4188 16.1818 19.4232 16.1807 19.4279 16.1795L20.9559 15.9494L21.0882 15.9295L21.145 15.8083L21.8212 14.3662C21.8212 14.3662 21.8212 14.3661 21.8212 14.3661C21.857 14.2899 21.9248 14.25 21.9943 14.25C22.0432 14.25 22.0943 14.2706 22.1331 14.3099C22.1353 14.3127 22.1373 14.3151 22.139 14.3172L22.1457 14.3253L22.149 14.3305C22.1646 14.3549 22.169 14.3625 22.1711 14.3669L22.1713 14.3672L22.8579 15.8129L22.9149 15.933L23.0464 15.9528L24.5798 16.1843L24.5798 16.1843L24.5812 16.1845C24.6501 16.1945 24.714 16.2458 24.7391 16.3277C24.7406 16.3371 24.7428 16.3476 24.746 16.3586V16.3643L24.7491 16.3777L24.7497 16.3881C24.7515 16.4226 24.7457 16.4551 24.7352 16.4799L24.7348 16.4798L24.7303 16.4923C24.7294 16.4947 24.7284 16.4971 24.7271 16.4998L24.7142 16.5187C24.7055 16.5314 24.6941 16.5454 24.6831 16.557L23.5742 17.6846L23.4851 17.7753L23.5058 17.9007L23.7687 19.4911C23.7822 19.5792 23.7496 19.659 23.6884 19.7069C23.6706 19.7196 23.6564 19.7277 23.6471 19.7321L23.6313 19.7372C23.6107 19.7439 23.5919 19.7466 23.5748 19.7466C23.5441 19.7466 23.5138 19.739 23.4869 19.7242L23.4864 19.724L22.1135 18.9725L21.9935 18.9068L21.8735 18.9725L20.5006 19.724L20.4928 19.7282L20.4853 19.733C20.4712 19.7421 20.4483 19.75 20.4166 19.75ZM23.6141 19.7451L23.6155 19.7444C23.615 19.7446 23.6143 19.745 23.6141 19.7451Z" stroke="url(#paint6_linear_286_242)" stroke-width="0.5"/>
<path d="M21.9945 14.2283V17.1731L21.0518 15.9162L21.7895 14.3603C21.834 14.2747 21.9161 14.2283 21.9945 14.2283Z" fill="url(#paint7_linear_286_242)" fill-opacity="0.38"/>
<path d="M24.771 16.3328L21.9976 17.1732L22.9401 15.9163L24.5864 16.1654C24.6788 16.1831 24.7436 16.2507 24.771 16.3328Z" fill="url(#paint8_linear_286_242)"/>
<path d="M23.7088 19.7258L21.9944 17.1726L23.5177 17.7815L23.7977 19.4908C23.8179 19.5906 23.7769 19.6759 23.7088 19.7258Z" fill="url(#paint9_linear_286_242)"/>
<path d="M21.994 17.1726V18.9352L20.5218 19.7434C20.4365 19.7896 20.3477 19.7754 20.2793 19.7258L21.994 17.1726Z" fill="url(#paint10_linear_286_242)"/>
<path d="M22.9372 15.9162L21.9944 17.1731V14.2283C22.0559 14.2283 22.1174 14.2531 22.1617 14.303C22.1686 14.3101 22.1754 14.3206 22.1822 14.3315C22.1891 14.3423 22.1959 14.3528 22.1992 14.3634L22.9372 15.9162Z" fill="url(#paint11_linear_286_242)" fill-opacity="0.6"/>
<path d="M24.7643 16.4927C24.7575 16.507 24.7507 16.5212 24.7438 16.5355C24.7334 16.5497 24.7233 16.5603 24.7132 16.5745L23.5213 17.7853L21.998 17.1763L24.7714 16.3359C24.7714 16.3394 24.7747 16.3431 24.7747 16.3468C24.7747 16.3505 24.7783 16.3539 24.7783 16.361C24.7783 16.3647 24.7783 16.3647 24.7783 16.3647C24.7783 16.3682 24.7783 16.3719 24.7783 16.3753C24.7783 16.3824 24.7783 16.3861 24.7783 16.393C24.7816 16.4249 24.778 16.4605 24.7643 16.4927Z" fill="url(#paint12_linear_286_242)"/>
<path d="M23.7091 19.7258C23.6921 19.74 23.6716 19.7506 23.6475 19.7577C23.6443 19.7577 23.6443 19.7577 23.6407 19.7611C23.586 19.7788 23.5245 19.7754 23.4665 19.7434L21.9944 18.9352V17.1726L23.7091 19.7258Z" fill="url(#paint13_linear_286_242)"/>
<path d="M21.9942 17.1726L20.2798 19.7258C20.2765 19.722 20.2729 19.7186 20.2696 19.7149C20.2664 19.7115 20.2628 19.7078 20.2592 19.7041C20.256 19.7007 20.2524 19.697 20.2456 19.6898C20.242 19.6864 20.2387 19.6827 20.2352 19.679C20.2316 19.6753 20.2319 19.6756 20.2319 19.6719C20.2286 19.6684 20.2251 19.6647 20.2251 19.661C20.2182 19.6505 20.2114 19.6397 20.2081 19.6291C20.2048 19.6257 20.2048 19.6183 20.2013 19.6114C20.198 19.6043 20.198 19.6006 20.1944 19.5938C20.1912 19.5866 20.1912 19.5761 20.1912 19.569C20.1912 19.5655 20.1912 19.5581 20.1912 19.5547C20.1912 19.5476 20.1912 19.5405 20.1912 19.5333C20.1912 19.5191 20.1912 19.5048 20.1944 19.4906L20.4744 17.7812L21.9942 17.1726Z" fill="url(#paint14_linear_286_242)"/>
<path d="M21.9943 17.1724L19.2209 16.332C19.2209 16.3286 19.2242 16.3249 19.2242 16.3212C19.2275 16.3141 19.2275 16.3069 19.2311 16.3035C19.2379 16.2893 19.2447 16.2787 19.2516 16.2679C19.2549 16.2608 19.2584 16.257 19.2652 16.2502C19.2688 16.2468 19.2721 16.2394 19.2789 16.2359C19.2822 16.2325 19.2893 16.2254 19.2926 16.2217C19.2959 16.218 19.3027 16.2146 19.3063 16.2109C19.3131 16.2074 19.3199 16.2 19.3268 16.1966C19.33 16.1932 19.3369 16.1895 19.3437 16.1895C19.3541 16.1861 19.3607 16.1824 19.3711 16.1786C19.3743 16.1786 19.3779 16.1752 19.3847 16.1752C19.3916 16.1718 19.4017 16.1718 19.4121 16.1681L21.0584 15.9189L21.9943 17.1724Z" fill="url(#paint15_linear_286_242)"/>
<path d="M21.9941 17.1727L20.4743 17.785L19.2825 16.5743C19.2688 16.5635 19.262 16.5495 19.2518 16.5353C19.245 16.521 19.2349 16.5067 19.2313 16.4925C19.2281 16.4854 19.2245 16.4782 19.2245 16.4711C19.2177 16.4497 19.2141 16.4249 19.2141 16.4035C19.2141 16.3964 19.2141 16.3893 19.2141 16.3822C19.2141 16.3716 19.2141 16.3645 19.2177 16.3537C19.2177 16.3502 19.2209 16.3465 19.2209 16.3394C19.2209 16.336 19.2242 16.3323 19.2242 16.3289L21.9941 17.1727Z" fill="url(#paint16_linear_286_242)"/>
</g>
<g filter="url(#filter3_d_286_242)">
<path d="M12.4166 19.75C12.3815 19.75 12.3454 19.7396 12.3073 19.7136L12.3 19.706L12.2887 19.6932L12.2848 19.6901L12.2803 19.6854L12.2791 19.6848C12.278 19.6836 12.2768 19.6822 12.2754 19.6807C12.2743 19.6791 12.2729 19.6773 12.2716 19.6756C12.2698 19.6733 12.2679 19.6707 12.2656 19.668L12.263 19.6639L12.2562 19.6531L12.2562 19.6531L12.2554 19.6518C12.2523 19.6469 12.2495 19.6418 12.2432 19.629C12.2418 19.6245 12.2403 19.6201 12.2389 19.6158L12.2362 19.6062C12.2351 19.6024 12.2336 19.5967 12.2318 19.5905C12.2308 19.5862 12.2297 19.5804 12.2278 19.5708C12.2276 19.57 12.2275 19.5692 12.2273 19.5684C12.2271 19.5664 12.2268 19.5645 12.2266 19.5628L12.2257 19.5575C12.2255 19.554 12.2252 19.5507 12.225 19.5479C12.2244 19.5414 12.2237 19.5354 12.2233 19.5318C12.2237 19.5259 12.2248 19.516 12.2275 19.4947L12.4897 17.9043L12.5104 17.7789L12.4213 17.6884L11.3124 16.5607C11.3014 16.5492 11.2912 16.5366 11.2835 16.5256C11.2718 16.5073 11.2683 16.4997 11.2669 16.4961C11.2662 16.4939 11.2655 16.492 11.2649 16.4904L11.2618 16.4819L11.2607 16.479L11.2603 16.4779L11.2599 16.4762C11.2529 16.4476 11.25 16.4251 11.25 16.4035V16.4034V16.4033V16.4032V16.4031V16.4031V16.403V16.4029V16.4028V16.4027V16.4026V16.4026V16.4025V16.4024V16.4023V16.4022V16.4022V16.4021V16.402V16.4019V16.4018V16.4017V16.4017V16.4016V16.4015V16.4014V16.4013V16.4013V16.4012V16.4011V16.401V16.4009V16.4008V16.4008V16.4007V16.4006V16.4005V16.4004V16.4004V16.4003V16.4002V16.4001V16.4V16.4V16.3999V16.3998V16.3997V16.3996V16.3996V16.3995V16.3994V16.3993V16.3992V16.3992V16.3991V16.399V16.3989V16.3988V16.3988V16.3987V16.3986V16.3985V16.3984V16.3984V16.3983V16.3982V16.3981V16.3981V16.398V16.3979V16.3978V16.3977V16.3977V16.3976V16.3975V16.3974V16.3974V16.3973V16.3972V16.3971V16.397V16.397V16.3969V16.3968V16.3967V16.3967V16.3966V16.3965V16.3964V16.3963V16.3963V16.3962V16.3961V16.396V16.396V16.3959V16.3958V16.3957V16.3956V16.3956V16.3955V16.3954V16.3953V16.3953V16.3952V16.3951V16.395V16.395V16.3949V16.3948V16.3947V16.3947V16.3946V16.3945V16.3944V16.3944V16.3943V16.3942V16.3941V16.394V16.394V16.3939V16.3938V16.3937V16.3937V16.3936V16.3935V16.3934V16.3934V16.3933V16.3932V16.3931V16.3931V16.393V16.3929V16.3928V16.3928V16.3927V16.3926V16.3925V16.3925V16.3924V16.3923V16.3922V16.3922V16.3921V16.392V16.3919V16.3919V16.3918V16.3917V16.3916V16.3916V16.3915V16.3914V16.3913V16.3913V16.3912V16.3911V16.391V16.391V16.3909V16.3908V16.3908V16.3907V16.3906V16.3905V16.3905V16.3904V16.3903V16.3902V16.3902V16.3901V16.39V16.3899V16.3899V16.3898V16.3897V16.3896V16.3896V16.3895V16.3894V16.3893V16.3893V16.3892V16.3891V16.3891V16.389V16.3889V16.3888V16.3888V16.3887V16.3886V16.3885V16.3885V16.3884V16.3883V16.3882V16.3882V16.3881V16.388V16.388V16.3879V16.3878V16.3877V16.3877V16.3876V16.3875V16.3874V16.3874V16.3873V16.3872V16.3872V16.3871V16.387V16.3869V16.3869V16.3868V16.3867V16.3866V16.3866V16.3865V16.3864V16.3864V16.3863V16.3862V16.3861V16.3861V16.386V16.3859V16.3858V16.3858V16.3857V16.3856V16.3855V16.3855V16.3854V16.3853V16.3853V16.3852V16.3851V16.385V16.385V16.3849V16.3848V16.3847V16.3847V16.3846V16.3845V16.3845V16.3844V16.3843V16.3842V16.3842V16.3841V16.384V16.384V16.3839V16.3838V16.3837V16.3837V16.3836V16.3835V16.3834V16.3834V16.3833V16.3832V16.3832V16.3831V16.383V16.3829V16.3829V16.3828V16.3827V16.3826V16.3826V16.3825V16.3824V16.3824V16.3823V16.3822V16.3821V16.3821V16.382V16.3819V16.3818V16.3818V16.3817V16.3816V16.3816V16.3815V16.3814V16.3813V16.3813V16.3812V16.3811V16.381V16.381V16.3809V16.3808V16.3807V16.3807V16.3806V16.3805V16.3805V16.3804V16.3803V16.3802V16.3802V16.3801V16.38V16.3799V16.3799V16.3798V16.3797V16.3797V16.3796V16.3795V16.3794V16.3794V16.3793V16.3792V16.3791V16.3791V16.379V16.3789V16.3788V16.3788V16.3787V16.3786V16.3786V16.3785V16.3784V16.3783V16.3783V16.3782V16.3781V16.378V16.378V16.3779V16.3778V16.3777V16.3777V16.3776V16.3775V16.3774V16.3774V16.3773V16.3772V16.3771V16.3771V16.377V16.3769V16.3769V16.3768V16.3767V16.3766V16.3766V16.3765V16.3764V16.3763V16.3763V16.3762V16.3761V16.376V16.376V16.3759V16.3758V16.3757V16.3757V16.3756V16.3755V16.3754V16.3754V16.3753V16.3752V16.3751V16.3751V16.375V16.3749V16.3748V16.3748V16.3747V16.3746V16.3745V16.3745V16.3744V16.3743V16.3742V16.3742V16.3741V16.374V16.3739V16.3739V16.3738V16.3737V16.3736V16.3736V16.3735V16.3734V16.3733V16.3732V16.3732V16.3731V16.373V16.3729V16.3729V16.3728V16.3727V16.3726V16.3726V16.3725V16.3724V16.3723V16.3723V16.3722V16.3721V16.372V16.3719V16.3719V16.3718V16.3717V16.3716V16.3716V16.3715V16.3714V16.3713V16.3712V16.3712V16.3711V16.371V16.3709V16.3709L11.2601 16.3393V16.3297L11.3094 16.2463L11.3365 16.218C11.3437 16.2139 11.3499 16.21 11.3546 16.2068C11.3617 16.203 11.3706 16.198 11.3802 16.1922C11.3816 16.1916 11.3834 16.191 11.3854 16.1902L11.3981 16.187C11.4042 16.1855 11.4089 16.1843 11.413 16.1833C11.4188 16.1818 11.4232 16.1807 11.4279 16.1795L12.9559 15.9494L13.0882 15.9295L13.145 15.8083L13.8212 14.3662C13.8212 14.3662 13.8212 14.3661 13.8212 14.3661C13.857 14.2899 13.9248 14.25 13.9943 14.25C14.0432 14.25 14.0943 14.2706 14.1331 14.3099C14.1353 14.3127 14.1373 14.3151 14.139 14.3172L14.1457 14.3253L14.149 14.3305C14.1646 14.3549 14.169 14.3625 14.1711 14.3669L14.1713 14.3672L14.8579 15.8129L14.9149 15.933L15.0464 15.9528L16.5798 16.1843L16.5798 16.1843L16.5812 16.1845C16.6501 16.1945 16.714 16.2458 16.7391 16.3277C16.7406 16.3371 16.7428 16.3476 16.746 16.3586V16.3643L16.7491 16.3777L16.7497 16.3881C16.7515 16.4226 16.7457 16.4551 16.7352 16.4799L16.7348 16.4798L16.7303 16.4923C16.7294 16.4947 16.7284 16.4971 16.7271 16.4998L16.7142 16.5187C16.7055 16.5314 16.6941 16.5454 16.6831 16.557L15.5742 17.6846L15.4851 17.7753L15.5058 17.9007L15.7687 19.4911C15.7822 19.5792 15.7496 19.659 15.6884 19.7069C15.6706 19.7196 15.6564 19.7277 15.6471 19.7321L15.6313 19.7372C15.6107 19.7439 15.5919 19.7466 15.5748 19.7466C15.5441 19.7466 15.5138 19.739 15.4869 19.7242L15.4864 19.724L14.1135 18.9725L13.9935 18.9068L13.8735 18.9725L12.5006 19.724L12.4928 19.7282L12.4853 19.733C12.4712 19.7421 12.4483 19.75 12.4166 19.75ZM15.6141 19.7451L15.6155 19.7444C15.615 19.7446 15.6143 19.745 15.6141 19.7451Z" fill="white" stroke="url(#paint17_linear_286_242)" stroke-width="0.5"/>
<path d="M12.4166 19.75C12.3815 19.75 12.3454 19.7396 12.3073 19.7136L12.3 19.706L12.2887 19.6932L12.2848 19.6901L12.2803 19.6854L12.2791 19.6848C12.278 19.6836 12.2768 19.6822 12.2754 19.6807C12.2743 19.6791 12.2729 19.6773 12.2716 19.6756C12.2698 19.6733 12.2679 19.6707 12.2656 19.668L12.263 19.6639L12.2562 19.6531L12.2562 19.6531L12.2554 19.6518C12.2523 19.6469 12.2495 19.6418 12.2432 19.629C12.2418 19.6245 12.2403 19.6201 12.2389 19.6158L12.2362 19.6062C12.2351 19.6024 12.2336 19.5967 12.2318 19.5905C12.2308 19.5862 12.2297 19.5804 12.2278 19.5708C12.2276 19.57 12.2275 19.5692 12.2273 19.5684C12.2271 19.5664 12.2268 19.5645 12.2266 19.5628L12.2257 19.5575C12.2255 19.554 12.2252 19.5507 12.225 19.5479C12.2244 19.5414 12.2237 19.5354 12.2233 19.5318C12.2237 19.5259 12.2248 19.516 12.2275 19.4947L12.4897 17.9043L12.5104 17.7789L12.4213 17.6884L11.3124 16.5607C11.3014 16.5492 11.2912 16.5366 11.2835 16.5256C11.2718 16.5073 11.2683 16.4997 11.2669 16.4961C11.2662 16.4939 11.2655 16.492 11.2649 16.4904L11.2618 16.4819L11.2607 16.479L11.2603 16.4779L11.2599 16.4762C11.2529 16.4476 11.25 16.4251 11.25 16.4035V16.4034V16.4033V16.4032V16.4031V16.4031V16.403V16.4029V16.4028V16.4027V16.4026V16.4026V16.4025V16.4024V16.4023V16.4022V16.4022V16.4021V16.402V16.4019V16.4018V16.4017V16.4017V16.4016V16.4015V16.4014V16.4013V16.4013V16.4012V16.4011V16.401V16.4009V16.4008V16.4008V16.4007V16.4006V16.4005V16.4004V16.4004V16.4003V16.4002V16.4001V16.4V16.4V16.3999V16.3998V16.3997V16.3996V16.3996V16.3995V16.3994V16.3993V16.3992V16.3992V16.3991V16.399V16.3989V16.3988V16.3988V16.3987V16.3986V16.3985V16.3984V16.3984V16.3983V16.3982V16.3981V16.3981V16.398V16.3979V16.3978V16.3977V16.3977V16.3976V16.3975V16.3974V16.3974V16.3973V16.3972V16.3971V16.397V16.397V16.3969V16.3968V16.3967V16.3967V16.3966V16.3965V16.3964V16.3963V16.3963V16.3962V16.3961V16.396V16.396V16.3959V16.3958V16.3957V16.3956V16.3956V16.3955V16.3954V16.3953V16.3953V16.3952V16.3951V16.395V16.395V16.3949V16.3948V16.3947V16.3947V16.3946V16.3945V16.3944V16.3944V16.3943V16.3942V16.3941V16.394V16.394V16.3939V16.3938V16.3937V16.3937V16.3936V16.3935V16.3934V16.3934V16.3933V16.3932V16.3931V16.3931V16.393V16.3929V16.3928V16.3928V16.3927V16.3926V16.3925V16.3925V16.3924V16.3923V16.3922V16.3922V16.3921V16.392V16.3919V16.3919V16.3918V16.3917V16.3916V16.3916V16.3915V16.3914V16.3913V16.3913V16.3912V16.3911V16.391V16.391V16.3909V16.3908V16.3908V16.3907V16.3906V16.3905V16.3905V16.3904V16.3903V16.3902V16.3902V16.3901V16.39V16.3899V16.3899V16.3898V16.3897V16.3896V16.3896V16.3895V16.3894V16.3893V16.3893V16.3892V16.3891V16.3891V16.389V16.3889V16.3888V16.3888V16.3887V16.3886V16.3885V16.3885V16.3884V16.3883V16.3882V16.3882V16.3881V16.388V16.388V16.3879V16.3878V16.3877V16.3877V16.3876V16.3875V16.3874V16.3874V16.3873V16.3872V16.3872V16.3871V16.387V16.3869V16.3869V16.3868V16.3867V16.3866V16.3866V16.3865V16.3864V16.3864V16.3863V16.3862V16.3861V16.3861V16.386V16.3859V16.3858V16.3858V16.3857V16.3856V16.3855V16.3855V16.3854V16.3853V16.3853V16.3852V16.3851V16.385V16.385V16.3849V16.3848V16.3847V16.3847V16.3846V16.3845V16.3845V16.3844V16.3843V16.3842V16.3842V16.3841V16.384V16.384V16.3839V16.3838V16.3837V16.3837V16.3836V16.3835V16.3834V16.3834V16.3833V16.3832V16.3832V16.3831V16.383V16.3829V16.3829V16.3828V16.3827V16.3826V16.3826V16.3825V16.3824V16.3824V16.3823V16.3822V16.3821V16.3821V16.382V16.3819V16.3818V16.3818V16.3817V16.3816V16.3816V16.3815V16.3814V16.3813V16.3813V16.3812V16.3811V16.381V16.381V16.3809V16.3808V16.3807V16.3807V16.3806V16.3805V16.3805V16.3804V16.3803V16.3802V16.3802V16.3801V16.38V16.3799V16.3799V16.3798V16.3797V16.3797V16.3796V16.3795V16.3794V16.3794V16.3793V16.3792V16.3791V16.3791V16.379V16.3789V16.3788V16.3788V16.3787V16.3786V16.3786V16.3785V16.3784V16.3783V16.3783V16.3782V16.3781V16.378V16.378V16.3779V16.3778V16.3777V16.3777V16.3776V16.3775V16.3774V16.3774V16.3773V16.3772V16.3771V16.3771V16.377V16.3769V16.3769V16.3768V16.3767V16.3766V16.3766V16.3765V16.3764V16.3763V16.3763V16.3762V16.3761V16.376V16.376V16.3759V16.3758V16.3757V16.3757V16.3756V16.3755V16.3754V16.3754V16.3753V16.3752V16.3751V16.3751V16.375V16.3749V16.3748V16.3748V16.3747V16.3746V16.3745V16.3745V16.3744V16.3743V16.3742V16.3742V16.3741V16.374V16.3739V16.3739V16.3738V16.3737V16.3736V16.3736V16.3735V16.3734V16.3733V16.3732V16.3732V16.3731V16.373V16.3729V16.3729V16.3728V16.3727V16.3726V16.3726V16.3725V16.3724V16.3723V16.3723V16.3722V16.3721V16.372V16.3719V16.3719V16.3718V16.3717V16.3716V16.3716V16.3715V16.3714V16.3713V16.3712V16.3712V16.3711V16.371V16.3709V16.3709L11.2601 16.3393V16.3297L11.3094 16.2463L11.3365 16.218C11.3437 16.2139 11.3499 16.21 11.3546 16.2068C11.3617 16.203 11.3706 16.198 11.3802 16.1922C11.3816 16.1916 11.3834 16.191 11.3854 16.1902L11.3981 16.187C11.4042 16.1855 11.4089 16.1843 11.413 16.1833C11.4188 16.1818 11.4232 16.1807 11.4279 16.1795L12.9559 15.9494L13.0882 15.9295L13.145 15.8083L13.8212 14.3662C13.8212 14.3662 13.8212 14.3661 13.8212 14.3661C13.857 14.2899 13.9248 14.25 13.9943 14.25C14.0432 14.25 14.0943 14.2706 14.1331 14.3099C14.1353 14.3127 14.1373 14.3151 14.139 14.3172L14.1457 14.3253L14.149 14.3305C14.1646 14.3549 14.169 14.3625 14.1711 14.3669L14.1713 14.3672L14.8579 15.8129L14.9149 15.933L15.0464 15.9528L16.5798 16.1843L16.5798 16.1843L16.5812 16.1845C16.6501 16.1945 16.714 16.2458 16.7391 16.3277C16.7406 16.3371 16.7428 16.3476 16.746 16.3586V16.3643L16.7491 16.3777L16.7497 16.3881C16.7515 16.4226 16.7457 16.4551 16.7352 16.4799L16.7348 16.4798L16.7303 16.4923C16.7294 16.4947 16.7284 16.4971 16.7271 16.4998L16.7142 16.5187C16.7055 16.5314 16.6941 16.5454 16.6831 16.557L15.5742 17.6846L15.4851 17.7753L15.5058 17.9007L15.7687 19.4911C15.7822 19.5792 15.7496 19.659 15.6884 19.7069C15.6706 19.7196 15.6564 19.7277 15.6471 19.7321L15.6313 19.7372C15.6107 19.7439 15.5919 19.7466 15.5748 19.7466C15.5441 19.7466 15.5138 19.739 15.4869 19.7242L15.4864 19.724L14.1135 18.9725L13.9935 18.9068L13.8735 18.9725L12.5006 19.724L12.4928 19.7282L12.4853 19.733C12.4712 19.7421 12.4483 19.75 12.4166 19.75ZM15.6141 19.7451L15.6155 19.7444C15.615 19.7446 15.6143 19.745 15.6141 19.7451Z" stroke="url(#paint18_linear_286_242)" stroke-width="0.5"/>
<path d="M13.9945 14.2283V17.1731L13.0518 15.9162L13.7895 14.3603C13.834 14.2747 13.9161 14.2283 13.9945 14.2283Z" fill="url(#paint19_linear_286_242)" fill-opacity="0.38"/>
<path d="M16.771 16.3328L13.9976 17.1732L14.9401 15.9163L16.5864 16.1654C16.6788 16.1831 16.7436 16.2507 16.771 16.3328Z" fill="url(#paint20_linear_286_242)"/>
<path d="M15.7088 19.7258L13.9944 17.1726L15.5177 17.7815L15.7977 19.4908C15.8179 19.5906 15.7769 19.6759 15.7088 19.7258Z" fill="url(#paint21_linear_286_242)"/>
<path d="M13.994 17.1726V18.9352L12.5218 19.7434C12.4365 19.7896 12.3477 19.7754 12.2793 19.7258L13.994 17.1726Z" fill="url(#paint22_linear_286_242)"/>
<path d="M14.9372 15.9162L13.9944 17.1731V14.2283C14.0559 14.2283 14.1174 14.2531 14.1617 14.303C14.1686 14.3101 14.1754 14.3206 14.1822 14.3315C14.1891 14.3423 14.1959 14.3528 14.1992 14.3634L14.9372 15.9162Z" fill="url(#paint23_linear_286_242)" fill-opacity="0.6"/>
<path d="M16.7643 16.4927C16.7575 16.507 16.7507 16.5212 16.7438 16.5355C16.7334 16.5497 16.7233 16.5603 16.7132 16.5745L15.5213 17.7853L13.998 17.1763L16.7714 16.3359C16.7714 16.3394 16.7747 16.3431 16.7747 16.3468C16.7747 16.3505 16.7783 16.3539 16.7783 16.361C16.7783 16.3647 16.7783 16.3647 16.7783 16.3647C16.7783 16.3682 16.7783 16.3719 16.7783 16.3753C16.7783 16.3824 16.7783 16.3861 16.7783 16.393C16.7816 16.4249 16.778 16.4605 16.7643 16.4927Z" fill="url(#paint24_linear_286_242)"/>
<path d="M15.7091 19.7258C15.6921 19.74 15.6716 19.7506 15.6475 19.7577C15.6443 19.7577 15.6443 19.7577 15.6407 19.7611C15.586 19.7788 15.5245 19.7754 15.4665 19.7434L13.9944 18.9352V17.1726L15.7091 19.7258Z" fill="url(#paint25_linear_286_242)"/>
<path d="M13.9942 17.1726L12.2798 19.7258C12.2765 19.722 12.2729 19.7186 12.2696 19.7149C12.2664 19.7115 12.2628 19.7078 12.2592 19.7041C12.256 19.7007 12.2524 19.697 12.2456 19.6898C12.242 19.6864 12.2387 19.6827 12.2352 19.679C12.2316 19.6753 12.2319 19.6756 12.2319 19.6719C12.2286 19.6684 12.2251 19.6647 12.2251 19.661C12.2182 19.6505 12.2114 19.6397 12.2081 19.6291C12.2048 19.6257 12.2048 19.6183 12.2013 19.6114C12.198 19.6043 12.198 19.6006 12.1944 19.5938C12.1912 19.5866 12.1912 19.5761 12.1912 19.569C12.1912 19.5655 12.1912 19.5581 12.1912 19.5547C12.1912 19.5476 12.1912 19.5405 12.1912 19.5333C12.1912 19.5191 12.1912 19.5048 12.1944 19.4906L12.4744 17.7812L13.9942 17.1726Z" fill="url(#paint26_linear_286_242)"/>
<path d="M13.9943 17.1724L11.2209 16.332C11.2209 16.3286 11.2242 16.3249 11.2242 16.3212C11.2275 16.3141 11.2275 16.3069 11.2311 16.3035C11.2379 16.2893 11.2447 16.2787 11.2516 16.2679C11.2549 16.2608 11.2584 16.257 11.2652 16.2502C11.2688 16.2468 11.2721 16.2394 11.2789 16.2359C11.2822 16.2325 11.2893 16.2254 11.2926 16.2217C11.2959 16.218 11.3027 16.2146 11.3063 16.2109C11.3131 16.2074 11.3199 16.2 11.3268 16.1966C11.33 16.1932 11.3369 16.1895 11.3437 16.1895C11.3541 16.1861 11.3607 16.1824 11.3711 16.1786C11.3743 16.1786 11.3779 16.1752 11.3847 16.1752C11.3916 16.1718 11.4017 16.1718 11.4121 16.1681L13.0584 15.9189L13.9943 17.1724Z" fill="url(#paint27_linear_286_242)"/>
<path d="M13.9941 17.1727L12.4743 17.785L11.2825 16.5743C11.2688 16.5635 11.262 16.5495 11.2518 16.5353C11.245 16.521 11.2349 16.5067 11.2313 16.4925C11.2281 16.4854 11.2245 16.4782 11.2245 16.4711C11.2177 16.4497 11.2141 16.4249 11.2141 16.4035C11.2141 16.3964 11.2141 16.3893 11.2141 16.3822C11.2141 16.3716 11.2141 16.3645 11.2177 16.3537C11.2177 16.3502 11.2209 16.3465 11.2209 16.3394C11.2209 16.336 11.2242 16.3323 11.2242 16.3289L13.9941 17.1727Z" fill="url(#paint28_linear_286_242)"/>
</g>
<g opacity="0.4">
<path d="M23 27.6838C25.095 26.4654 26.5794 25.6021 27.4532 25.0939Z" fill="url(#paint29_linear_286_242)"/>
<path d="M23 27.6838C25.095 26.4654 26.5794 25.6021 27.4532 25.0939" stroke="white" stroke-opacity="0.62" stroke-width="0.711111" stroke-linecap="round"/>
</g>
</g>
<defs>
<filter id="filter0_d_286_242" x="4" y="7.18628" width="28" height="29.6274" filterUnits="userSpaceOnUse" color-interpolation-filters="sRGB">
<feFlood flood-opacity="0" result="BackgroundImageFix"/>
<feColorMatrix in="SourceAlpha" type="matrix" values="0 0 0 0 0 0 0 0 0 0 0 0 0 0 0 0 0 0 127 0" result="hardAlpha"/>
<feOffset dy="4"/>
<feGaussianBlur stdDeviation="2"/>
<feComposite in2="hardAlpha" operator="out"/>
<feColorMatrix type="matrix" values="0 0 0 0 0.512291 0 0 0 0 0.286279 0 0 0 0 1 0 0 0 0.17 0"/>
<feBlend mode="normal" in2="BackgroundImageFix" result="effect1_dropShadow_286_242"/>
<feBlend mode="normal" in="SourceGraphic" in2="effect1_dropShadow_286_242" result="shape"/>
</filter>
<filter id="filter1_d_286_242" x="6.625" y="6.49878" width="22.75" height="24.3774" filterUnits="userSpaceOnUse" color-interpolation-filters="sRGB">
<feFlood flood-opacity="0" result="BackgroundImageFix"/>
<feColorMatrix in="SourceAlpha" type="matrix" values="0 0 0 0 0 0 0 0 0 0 0 0 0 0 0 0 0 0 127 0" result="hardAlpha"/>
<feOffset dy="0.6875"/>
<feGaussianBlur stdDeviation="0.6875"/>
<feColorMatrix type="matrix" values="0 0 0 0 0.287239 0 0 0 0 0.155102 0 0 0 0 0.511019 0 0 0 1 0"/>
<feBlend mode="normal" in2="BackgroundImageFix" result="effect1_dropShadow_286_242"/>
<feBlend mode="normal" in="SourceGraphic" in2="effect1_dropShadow_286_242" result="shape"/>
</filter>
<filter id="filter2_d_286_242" x="17" y="13" width="10" height="10" filterUnits="userSpaceOnUse" color-interpolation-filters="sRGB">
<feFlood flood-opacity="0" result="BackgroundImageFix"/>
<feColorMatrix in="SourceAlpha" type="matrix" values="0 0 0 0 0 0 0 0 0 0 0 0 0 0 0 0 0 0 127 0" result="hardAlpha"/>
<feOffset dy="1"/>
<feGaussianBlur stdDeviation="1"/>
<feComposite in2="hardAlpha" operator="out"/>
<feColorMatrix type="matrix" values="0 0 0 0 1 0 0 0 0 1 0 0 0 0 1 0 0 0 0.5 0"/>
<feBlend mode="normal" in2="BackgroundImageFix" result="effect1_dropShadow_286_242"/>
<feBlend mode="normal" in="SourceGraphic" in2="effect1_dropShadow_286_242" result="shape"/>
</filter>
<filter id="filter3_d_286_242" x="9" y="13" width="10" height="10" filterUnits="userSpaceOnUse" color-interpolation-filters="sRGB">
<feFlood flood-opacity="0" result="BackgroundImageFix"/>
<feColorMatrix in="SourceAlpha" type="matrix" values="0 0 0 0 0 0 0 0 0 0 0 0 0 0 0 0 0 0 127 0" result="hardAlpha"/>
<feOffset dy="1"/>
<feGaussianBlur stdDeviation="1"/>
<feComposite in2="hardAlpha" operator="out"/>
<feColorMatrix type="matrix" values="0 0 0 0 1 0 0 0 0 1 0 0 0 0 1 0 0 0 0.5 0"/>
<feBlend mode="normal" in2="BackgroundImageFix" result="effect1_dropShadow_286_242"/>
<feBlend mode="normal" in="SourceGraphic" in2="effect1_dropShadow_286_242" result="shape"/>
</filter>
<linearGradient id="paint0_linear_286_242" x1="21.0574" y1="26.7939" x2="21" y2="29.4777" gradientUnits="userSpaceOnUse">
<stop offset="0.2" stop-color="#856DB9"/>
<stop offset="0.82" stop-color="#46247C"/>
</linearGradient>
<linearGradient id="paint1_linear_286_242" x1="1.55063" y1="5" x2="1.55063" y2="37" gradientUnits="userSpaceOnUse">
<stop stop-color="#B28EFF"/>
<stop offset="0.48" stop-color="#8F6DD6"/>
</linearGradient>
<linearGradient id="paint2_linear_286_242" x1="5" y1="4" x2="5" y2="31.7032" gradientUnits="userSpaceOnUse">
<stop offset="0.06" stop-color="#A143FF"/>
<stop offset="0.46" stop-color="#8548F1"/>
<stop offset="0.73" stop-color="#6F3DC6"/>
</linearGradient>
<linearGradient id="paint3_linear_286_242" x1="14" y1="5.33398" x2="14" y2="6.96787" gradientUnits="userSpaceOnUse">
<stop offset="0.2" stop-color="#856DB9"/>
<stop offset="0.82" stop-color="#46247C"/>
</linearGradient>
<linearGradient id="paint4_linear_286_242" x1="6.52625" y1="7" x2="6.52625" y2="28.5111" gradientUnits="userSpaceOnUse">
<stop offset="0.205" stop-color="#9747FF"/>
<stop offset="0.64" stop-color="#7734CA"/>
</linearGradient>
<linearGradient id="paint5_linear_286_242" x1="20.5" y1="14" x2="23.2857" y2="19.7857" gradientUnits="userSpaceOnUse">
<stop stop-color="#E1E1E1" stop-opacity="0.33"/>
<stop offset="0.195" stop-color="#D1D0D0" stop-opacity="0.32"/>
<stop offset="0.76" stop-color="#D6D5D5" stop-opacity="0.58"/>
<stop offset="1" stop-color="#DBDBDB" stop-opacity="0.31"/>
</linearGradient>
<linearGradient id="paint6_linear_286_242" x1="20.5" y1="14" x2="23.2857" y2="19.7857" gradientUnits="userSpaceOnUse">
<stop stop-color="#D8D8D8"/>
<stop offset="0.195" stop-color="#D1D0D0" stop-opacity="0.32"/>
<stop offset="0.76" stop-color="#D6D5D5" stop-opacity="0.58"/>
<stop offset="1" stop-color="#DBDBDB" stop-opacity="0.31"/>
</linearGradient>
<linearGradient id="paint7_linear_286_242" x1="21.5232" y1="14.2283" x2="22.0001" y2="17.2144" gradientUnits="userSpaceOnUse">
<stop stop-color="white" stop-opacity="0.54"/>
<stop offset="1" stop-color="#696969" stop-opacity="0.71"/>
</linearGradient>
<linearGradient id="paint8_linear_286_242" x1="24.6536" y1="15.9163" x2="22.1149" y2="17.1732" gradientUnits="userSpaceOnUse">
<stop stop-color="#ECE5E7" stop-opacity="0.14"/>
<stop offset="1" stop-color="#868283" stop-opacity="0.46"/>
</linearGradient>
<linearGradient id="paint9_linear_286_242" x1="22.6428" y1="17.4285" x2="23.7192" y2="19.7258" gradientUnits="userSpaceOnUse">
<stop stop-color="#E1DCE2" stop-opacity="0.55"/>
<stop offset="1" stop-color="#B0B0B0" stop-opacity="0.5"/>
</linearGradient>
<linearGradient id="paint10_linear_286_242" x1="21.7856" y1="17.2143" x2="21.1427" y2="19.5714" gradientUnits="userSpaceOnUse">
<stop stop-color="#E7E6E7" stop-opacity="0.56"/>
<stop offset="1" stop-color="#CBC5CB" stop-opacity="0.79"/>
</linearGradient>
<linearGradient id="paint11_linear_286_242" x1="22.6429" y1="14.2144" x2="22" y2="17.2144" gradientUnits="userSpaceOnUse">
<stop offset="0.0246486" stop-color="#FAECDB" stop-opacity="0.49"/>
<stop offset="1" stop-color="#948C82" stop-opacity="0.38"/>
</linearGradient>
<linearGradient id="paint12_linear_286_242" x1="24.7859" y1="16.7859" x2="22.4287" y2="17.2144" gradientUnits="userSpaceOnUse">
<stop stop-color="#DAD3D9" stop-opacity="0.64"/>
<stop offset="1" stop-color="#B4B1B3" stop-opacity="0.45"/>
</linearGradient>
<linearGradient id="paint13_linear_286_242" x1="22" y1="17.2143" x2="23.2857" y2="19.7857" gradientUnits="userSpaceOnUse">
<stop stop-color="#D5CFD6" stop-opacity="0.64"/>
<stop offset="1" stop-color="#A9A2AA" stop-opacity="0.43"/>
</linearGradient>
<linearGradient id="paint14_linear_286_242" x1="21.7128" y1="17.1726" x2="20.0714" y2="19.5714" gradientUnits="userSpaceOnUse">
<stop stop-color="#D5D1D7" stop-opacity="0.92"/>
<stop offset="1" stop-color="#A5A0A8" stop-opacity="0.34"/>
</linearGradient>
<linearGradient id="paint15_linear_286_242" x1="20.0715" y1="15.9286" x2="21.7858" y2="17" gradientUnits="userSpaceOnUse">
<stop stop-color="#D6D1D8" stop-opacity="0.44"/>
<stop offset="1" stop-color="#ABA5AD" stop-opacity="0.24"/>
</linearGradient>
<linearGradient id="paint16_linear_286_242" x1="19.2424" y1="16.8609" x2="21.9658" y2="17.6005" gradientUnits="userSpaceOnUse">
<stop stop-color="#C3BFC5" stop-opacity="0.55"/>
<stop offset="1" stop-color="#E1E1E1" stop-opacity="0.45"/>
</linearGradient>
<linearGradient id="paint17_linear_286_242" x1="12.5" y1="14" x2="15.2857" y2="19.7857" gradientUnits="userSpaceOnUse">
<stop stop-color="#E1E1E1" stop-opacity="0.33"/>
<stop offset="0.195" stop-color="#D1D0D0" stop-opacity="0.32"/>
<stop offset="0.76" stop-color="#D6D5D5" stop-opacity="0.58"/>
<stop offset="1" stop-color="#DBDBDB" stop-opacity="0.31"/>
</linearGradient>
<linearGradient id="paint18_linear_286_242" x1="12.5" y1="14" x2="15.2857" y2="19.7857" gradientUnits="userSpaceOnUse">
<stop stop-color="#D8D8D8"/>
<stop offset="0.195" stop-color="#D1D0D0" stop-opacity="0.32"/>
<stop offset="0.76" stop-color="#D6D5D5" stop-opacity="0.58"/>
<stop offset="1" stop-color="#DBDBDB" stop-opacity="0.31"/>
</linearGradient>
<linearGradient id="paint19_linear_286_242" x1="13.5232" y1="14.2283" x2="14.0001" y2="17.2144" gradientUnits="userSpaceOnUse">
<stop stop-color="white" stop-opacity="0.54"/>
<stop offset="1" stop-color="#696969" stop-opacity="0.71"/>
</linearGradient>
<linearGradient id="paint20_linear_286_242" x1="16.6536" y1="15.9163" x2="14.1149" y2="17.1732" gradientUnits="userSpaceOnUse">
<stop stop-color="#ECE5E7" stop-opacity="0.14"/>
<stop offset="1" stop-color="#868283" stop-opacity="0.46"/>
</linearGradient>
<linearGradient id="paint21_linear_286_242" x1="14.6428" y1="17.4285" x2="15.7192" y2="19.7258" gradientUnits="userSpaceOnUse">
<stop stop-color="#E1DCE2" stop-opacity="0.55"/>
<stop offset="1" stop-color="#B0B0B0" stop-opacity="0.5"/>
</linearGradient>
<linearGradient id="paint22_linear_286_242" x1="13.7856" y1="17.2143" x2="13.1427" y2="19.5714" gradientUnits="userSpaceOnUse">
<stop stop-color="#E7E6E7" stop-opacity="0.56"/>
<stop offset="1" stop-color="#CBC5CB" stop-opacity="0.79"/>
</linearGradient>
<linearGradient id="paint23_linear_286_242" x1="14.6429" y1="14.2144" x2="14" y2="17.2144" gradientUnits="userSpaceOnUse">
<stop offset="0.0246486" stop-color="#FAECDB" stop-opacity="0.49"/>
<stop offset="1" stop-color="#948C82" stop-opacity="0.38"/>
</linearGradient>
<linearGradient id="paint24_linear_286_242" x1="16.7859" y1="16.7859" x2="14.4287" y2="17.2144" gradientUnits="userSpaceOnUse">
<stop stop-color="#DAD3D9" stop-opacity="0.64"/>
<stop offset="1" stop-color="#B4B1B3" stop-opacity="0.45"/>
</linearGradient>
<linearGradient id="paint25_linear_286_242" x1="14" y1="17.2143" x2="15.2857" y2="19.7857" gradientUnits="userSpaceOnUse">
<stop stop-color="#D5CFD6" stop-opacity="0.64"/>
<stop offset="1" stop-color="#A9A2AA" stop-opacity="0.43"/>
</linearGradient>
<linearGradient id="paint26_linear_286_242" x1="13.7128" y1="17.1726" x2="12.0714" y2="19.5714" gradientUnits="userSpaceOnUse">
<stop stop-color="#D5D1D7" stop-opacity="0.92"/>
<stop offset="1" stop-color="#A5A0A8" stop-opacity="0.34"/>
</linearGradient>
<linearGradient id="paint27_linear_286_242" x1="12.0715" y1="15.9286" x2="13.7858" y2="17" gradientUnits="userSpaceOnUse">
<stop stop-color="#D6D1D8" stop-opacity="0.44"/>
<stop offset="1" stop-color="#ABA5AD" stop-opacity="0.24"/>
</linearGradient>
<linearGradient id="paint28_linear_286_242" x1="11.2424" y1="16.8609" x2="13.9658" y2="17.6005" gradientUnits="userSpaceOnUse">
<stop stop-color="#C3BFC5" stop-opacity="0.55"/>
<stop offset="1" stop-color="#E1E1E1" stop-opacity="0.45"/>
</linearGradient>
<linearGradient id="paint29_linear_286_242" x1="23.0574" y1="25" x2="23" y2="27.6838" gradientUnits="userSpaceOnUse">
<stop offset="0.2" stop-color="#856DB9"/>
<stop offset="0.82" stop-color="#46247C"/>
</linearGradient>
<clipPath id="clip0_286_242">
<rect width="36" height="36" fill="white"/>
</clipPath>
</defs>
</svg>
