<svg width="36" height="36" viewBox="0 0 36 36" fill="none" xmlns="http://www.w3.org/2000/svg">
<g clip-path="url(#clip0_286_241)">
<path fill-rule="evenodd" clip-rule="evenodd" d="M16.5888 2.80642C17.4632 2.30672 18.5368 2.30672 19.4112 2.80642L30.5668 9.18103C31.4531 9.68746 32 10.6299 32 11.6507V24.3493C32 25.3701 31.4531 26.3125 30.5668 26.819L19.4112 33.1936C18.5368 33.6933 17.4632 33.6933 16.5888 33.1936L5.4332 26.819C4.54695 26.3125 4 25.3701 4 24.3493V11.6507C4 10.6299 4.54695 9.68746 5.4332 9.18103L16.5888 2.80642Z" fill="url(#paint0_linear_286_241)"/>
<path d="M19.151 4.29684C18.426 3.90105 17.5328 3.90105 16.8079 4.29684L6.17156 10.1148C5.4466 10.5105 5 11.242 5 12.0336L5 23.6695C5 24.4611 5.4466 25.1925 6.17156 25.5883L16.8249 31.7032C17.5498 32.0989 18.443 32.0989 19.168 31.7032L29.8284 25.5883C30.5534 25.1925 31 24.4611 31 23.6695V12.0336C31 11.242 30.5534 10.5105 29.8284 10.1148L19.151 4.29684Z" fill="url(#paint1_linear_286_241)" fill-opacity="0.7"/>
<path opacity="0.6" d="M19.1488 5.33345C18.3788 4.88885 17.43 4.88885 16.6599 5.33345C16.6599 5.33345 12.8866 7.51196 11 8.60122" stroke="#9547FF" stroke-opacity="0.26" stroke-width="0.711111" stroke-linecap="round"/>
<path d="M16.83 5.33398C16.83 5.33398 14.833 6.48694 14 6.96787L16.83 5.33398Z" fill="url(#paint2_linear_286_241)"/>
<path d="M16.83 5.33398C16.83 5.33398 14.833 6.48694 14 6.96787" stroke="white" stroke-opacity="0.28" stroke-width="0.711111" stroke-linecap="round"/>
<g filter="url(#filter0_d_286_241)">
<g filter="url(#filter1_d_286_241)">
<path fill-rule="evenodd" clip-rule="evenodd" d="M17.3488 7.35023C17.7554 7.13155 18.2446 7.13155 18.6512 7.35023L27.2762 11.9886C27.722 12.2283 28 12.6935 28 13.1996V22.8004C28 23.3065 27.722 23.7717 27.2762 24.0114L18.6512 28.6498C18.2446 28.8685 17.7554 28.8685 17.3488 28.6498L8.72376 24.0114C8.27802 23.7717 8 23.3065 8 22.8004V13.1996C8 12.6935 8.27802 12.2283 8.72375 11.9886L17.3488 7.35023Z" fill="url(#paint3_linear_286_241)"/>
</g>
</g>
<g filter="url(#filter2_d_286_241)">
<path d="M16.4166 20.75C16.3815 20.75 16.3454 20.7396 16.3073 20.7136L16.3 20.706L16.2887 20.6932L16.2848 20.6901L16.2803 20.6854L16.2791 20.6848C16.278 20.6836 16.2768 20.6822 16.2754 20.6807C16.2743 20.6791 16.2729 20.6773 16.2716 20.6756C16.2698 20.6733 16.2679 20.6707 16.2656 20.668L16.263 20.6639L16.2562 20.6531L16.2562 20.6531L16.2554 20.6518C16.2523 20.6469 16.2495 20.6418 16.2432 20.629C16.2418 20.6245 16.2403 20.6201 16.2389 20.6158L16.2362 20.6062C16.2351 20.6024 16.2336 20.5967 16.2318 20.5905C16.2308 20.5862 16.2297 20.5804 16.2278 20.5708C16.2276 20.57 16.2275 20.5692 16.2273 20.5684C16.2271 20.5664 16.2268 20.5645 16.2266 20.5628L16.2257 20.5575C16.2255 20.554 16.2252 20.5507 16.225 20.5479C16.2244 20.5414 16.2237 20.5354 16.2233 20.5318C16.2237 20.5259 16.2248 20.516 16.2275 20.4947L16.4897 18.9043L16.5104 18.7789L16.4213 18.6884L15.3124 17.5607C15.3014 17.5492 15.2912 17.5366 15.2835 17.5256C15.2718 17.5073 15.2683 17.4997 15.2669 17.4961C15.2662 17.4939 15.2655 17.492 15.2649 17.4904L15.2618 17.4819L15.2607 17.479L15.2603 17.4779L15.2599 17.4762C15.2529 17.4476 15.25 17.4251 15.25 17.4035V17.4034V17.4033V17.4032V17.4031V17.4031V17.403V17.4029V17.4028V17.4027V17.4026V17.4026V17.4025V17.4024V17.4023V17.4022V17.4022V17.4021V17.402V17.4019V17.4018V17.4017V17.4017V17.4016V17.4015V17.4014V17.4013V17.4013V17.4012V17.4011V17.401V17.4009V17.4008V17.4008V17.4007V17.4006V17.4005V17.4004V17.4004V17.4003V17.4002V17.4001V17.4V17.4V17.3999V17.3998V17.3997V17.3996V17.3996V17.3995V17.3994V17.3993V17.3992V17.3992V17.3991V17.399V17.3989V17.3988V17.3988V17.3987V17.3986V17.3985V17.3984V17.3984V17.3983V17.3982V17.3981V17.3981V17.398V17.3979V17.3978V17.3977V17.3977V17.3976V17.3975V17.3974V17.3974V17.3973V17.3972V17.3971V17.397V17.397V17.3969V17.3968V17.3967V17.3967V17.3966V17.3965V17.3964V17.3963V17.3963V17.3962V17.3961V17.396V17.396V17.3959V17.3958V17.3957V17.3956V17.3956V17.3955V17.3954V17.3953V17.3953V17.3952V17.3951V17.395V17.395V17.3949V17.3948V17.3947V17.3947V17.3946V17.3945V17.3944V17.3944V17.3943V17.3942V17.3941V17.394V17.394V17.3939V17.3938V17.3937V17.3937V17.3936V17.3935V17.3934V17.3934V17.3933V17.3932V17.3931V17.3931V17.393V17.3929V17.3928V17.3928V17.3927V17.3926V17.3925V17.3925V17.3924V17.3923V17.3922V17.3922V17.3921V17.392V17.3919V17.3919V17.3918V17.3917V17.3916V17.3916V17.3915V17.3914V17.3913V17.3913V17.3912V17.3911V17.391V17.391V17.3909V17.3908V17.3908V17.3907V17.3906V17.3905V17.3905V17.3904V17.3903V17.3902V17.3902V17.3901V17.39V17.3899V17.3899V17.3898V17.3897V17.3896V17.3896V17.3895V17.3894V17.3893V17.3893V17.3892V17.3891V17.3891V17.389V17.3889V17.3888V17.3888V17.3887V17.3886V17.3885V17.3885V17.3884V17.3883V17.3882V17.3882V17.3881V17.388V17.388V17.3879V17.3878V17.3877V17.3877V17.3876V17.3875V17.3874V17.3874V17.3873V17.3872V17.3872V17.3871V17.387V17.3869V17.3869V17.3868V17.3867V17.3866V17.3866V17.3865V17.3864V17.3864V17.3863V17.3862V17.3861V17.3861V17.386V17.3859V17.3858V17.3858V17.3857V17.3856V17.3855V17.3855V17.3854V17.3853V17.3853V17.3852V17.3851V17.385V17.385V17.3849V17.3848V17.3847V17.3847V17.3846V17.3845V17.3845V17.3844V17.3843V17.3842V17.3842V17.3841V17.384V17.384V17.3839V17.3838V17.3837V17.3837V17.3836V17.3835V17.3834V17.3834V17.3833V17.3832V17.3832V17.3831V17.383V17.3829V17.3829V17.3828V17.3827V17.3826V17.3826V17.3825V17.3824V17.3824V17.3823V17.3822V17.3821V17.3821V17.382V17.3819V17.3818V17.3818V17.3817V17.3816V17.3816V17.3815V17.3814V17.3813V17.3813V17.3812V17.3811V17.381V17.381V17.3809V17.3808V17.3807V17.3807V17.3806V17.3805V17.3805V17.3804V17.3803V17.3802V17.3802V17.3801V17.38V17.3799V17.3799V17.3798V17.3797V17.3797V17.3796V17.3795V17.3794V17.3794V17.3793V17.3792V17.3791V17.3791V17.379V17.3789V17.3788V17.3788V17.3787V17.3786V17.3786V17.3785V17.3784V17.3783V17.3783V17.3782V17.3781V17.378V17.378V17.3779V17.3778V17.3777V17.3777V17.3776V17.3775V17.3774V17.3774V17.3773V17.3772V17.3771V17.3771V17.377V17.3769V17.3769V17.3768V17.3767V17.3766V17.3766V17.3765V17.3764V17.3763V17.3763V17.3762V17.3761V17.376V17.376V17.3759V17.3758V17.3757V17.3757V17.3756V17.3755V17.3754V17.3754V17.3753V17.3752V17.3751V17.3751V17.375V17.3749V17.3748V17.3748V17.3747V17.3746V17.3745V17.3745V17.3744V17.3743V17.3742V17.3742V17.3741V17.374V17.3739V17.3739V17.3738V17.3737V17.3736V17.3736V17.3735V17.3734V17.3733V17.3732V17.3732V17.3731V17.373V17.3729V17.3729V17.3728V17.3727V17.3726V17.3726V17.3725V17.3724V17.3723V17.3723V17.3722V17.3721V17.372V17.3719V17.3719V17.3718V17.3717V17.3716V17.3716V17.3715V17.3714V17.3713V17.3712V17.3712V17.3711V17.371V17.3709V17.3709L15.2601 17.3393V17.3297L15.3094 17.2463L15.3365 17.218C15.3437 17.2139 15.3499 17.21 15.3546 17.2068C15.3617 17.203 15.3706 17.198 15.3802 17.1922C15.3816 17.1916 15.3834 17.191 15.3854 17.1902L15.3981 17.187C15.4042 17.1855 15.4089 17.1843 15.413 17.1833C15.4188 17.1818 15.4232 17.1807 15.4279 17.1795L16.9559 16.9494L17.0882 16.9295L17.145 16.8083L17.8212 15.3662C17.8212 15.3662 17.8212 15.3661 17.8212 15.3661C17.857 15.2899 17.9248 15.25 17.9943 15.25C18.0432 15.25 18.0943 15.2706 18.1331 15.3099C18.1353 15.3127 18.1373 15.3151 18.139 15.3172L18.1457 15.3253L18.149 15.3305C18.1646 15.3549 18.169 15.3625 18.1711 15.3669L18.1713 15.3672L18.8579 16.8129L18.9149 16.933L19.0464 16.9528L20.5798 17.1843L20.5798 17.1843L20.5812 17.1845C20.6501 17.1945 20.714 17.2458 20.7391 17.3277C20.7406 17.3371 20.7428 17.3476 20.746 17.3586V17.3643L20.7491 17.3777L20.7497 17.3881C20.7515 17.4226 20.7457 17.4551 20.7352 17.4799L20.7348 17.4798L20.7303 17.4923C20.7294 17.4947 20.7284 17.4971 20.7271 17.4998L20.7142 17.5187C20.7055 17.5314 20.6941 17.5454 20.6831 17.557L19.5742 18.6846L19.4851 18.7753L19.5058 18.9007L19.7687 20.4911C19.7822 20.5792 19.7496 20.659 19.6884 20.7069C19.6706 20.7196 19.6564 20.7277 19.6471 20.7321L19.6313 20.7372C19.6107 20.7439 19.5919 20.7466 19.5748 20.7466C19.5441 20.7466 19.5138 20.739 19.4869 20.7242L19.4864 20.724L18.1135 19.9725L17.9935 19.9068L17.8735 19.9725L16.5006 20.724L16.4928 20.7282L16.4853 20.733C16.4712 20.7421 16.4483 20.75 16.4166 20.75ZM19.6141 20.7451L19.6155 20.7444C19.615 20.7446 19.6143 20.745 19.6141 20.7451Z" fill="white" stroke="url(#paint4_linear_286_241)" stroke-width="0.5"/>
<path d="M16.4166 20.75C16.3815 20.75 16.3454 20.7396 16.3073 20.7136L16.3 20.706L16.2887 20.6932L16.2848 20.6901L16.2803 20.6854L16.2791 20.6848C16.278 20.6836 16.2768 20.6822 16.2754 20.6807C16.2743 20.6791 16.2729 20.6773 16.2716 20.6756C16.2698 20.6733 16.2679 20.6707 16.2656 20.668L16.263 20.6639L16.2562 20.6531L16.2562 20.6531L16.2554 20.6518C16.2523 20.6469 16.2495 20.6418 16.2432 20.629C16.2418 20.6245 16.2403 20.6201 16.2389 20.6158L16.2362 20.6062C16.2351 20.6024 16.2336 20.5967 16.2318 20.5905C16.2308 20.5862 16.2297 20.5804 16.2278 20.5708C16.2276 20.57 16.2275 20.5692 16.2273 20.5684C16.2271 20.5664 16.2268 20.5645 16.2266 20.5628L16.2257 20.5575C16.2255 20.554 16.2252 20.5507 16.225 20.5479C16.2244 20.5414 16.2237 20.5354 16.2233 20.5318C16.2237 20.5259 16.2248 20.516 16.2275 20.4947L16.4897 18.9043L16.5104 18.7789L16.4213 18.6884L15.3124 17.5607C15.3014 17.5492 15.2912 17.5366 15.2835 17.5256C15.2718 17.5073 15.2683 17.4997 15.2669 17.4961C15.2662 17.4939 15.2655 17.492 15.2649 17.4904L15.2618 17.4819L15.2607 17.479L15.2603 17.4779L15.2599 17.4762C15.2529 17.4476 15.25 17.4251 15.25 17.4035V17.4034V17.4033V17.4032V17.4031V17.4031V17.403V17.4029V17.4028V17.4027V17.4026V17.4026V17.4025V17.4024V17.4023V17.4022V17.4022V17.4021V17.402V17.4019V17.4018V17.4017V17.4017V17.4016V17.4015V17.4014V17.4013V17.4013V17.4012V17.4011V17.401V17.4009V17.4008V17.4008V17.4007V17.4006V17.4005V17.4004V17.4004V17.4003V17.4002V17.4001V17.4V17.4V17.3999V17.3998V17.3997V17.3996V17.3996V17.3995V17.3994V17.3993V17.3992V17.3992V17.3991V17.399V17.3989V17.3988V17.3988V17.3987V17.3986V17.3985V17.3984V17.3984V17.3983V17.3982V17.3981V17.3981V17.398V17.3979V17.3978V17.3977V17.3977V17.3976V17.3975V17.3974V17.3974V17.3973V17.3972V17.3971V17.397V17.397V17.3969V17.3968V17.3967V17.3967V17.3966V17.3965V17.3964V17.3963V17.3963V17.3962V17.3961V17.396V17.396V17.3959V17.3958V17.3957V17.3956V17.3956V17.3955V17.3954V17.3953V17.3953V17.3952V17.3951V17.395V17.395V17.3949V17.3948V17.3947V17.3947V17.3946V17.3945V17.3944V17.3944V17.3943V17.3942V17.3941V17.394V17.394V17.3939V17.3938V17.3937V17.3937V17.3936V17.3935V17.3934V17.3934V17.3933V17.3932V17.3931V17.3931V17.393V17.3929V17.3928V17.3928V17.3927V17.3926V17.3925V17.3925V17.3924V17.3923V17.3922V17.3922V17.3921V17.392V17.3919V17.3919V17.3918V17.3917V17.3916V17.3916V17.3915V17.3914V17.3913V17.3913V17.3912V17.3911V17.391V17.391V17.3909V17.3908V17.3908V17.3907V17.3906V17.3905V17.3905V17.3904V17.3903V17.3902V17.3902V17.3901V17.39V17.3899V17.3899V17.3898V17.3897V17.3896V17.3896V17.3895V17.3894V17.3893V17.3893V17.3892V17.3891V17.3891V17.389V17.3889V17.3888V17.3888V17.3887V17.3886V17.3885V17.3885V17.3884V17.3883V17.3882V17.3882V17.3881V17.388V17.388V17.3879V17.3878V17.3877V17.3877V17.3876V17.3875V17.3874V17.3874V17.3873V17.3872V17.3872V17.3871V17.387V17.3869V17.3869V17.3868V17.3867V17.3866V17.3866V17.3865V17.3864V17.3864V17.3863V17.3862V17.3861V17.3861V17.386V17.3859V17.3858V17.3858V17.3857V17.3856V17.3855V17.3855V17.3854V17.3853V17.3853V17.3852V17.3851V17.385V17.385V17.3849V17.3848V17.3847V17.3847V17.3846V17.3845V17.3845V17.3844V17.3843V17.3842V17.3842V17.3841V17.384V17.384V17.3839V17.3838V17.3837V17.3837V17.3836V17.3835V17.3834V17.3834V17.3833V17.3832V17.3832V17.3831V17.383V17.3829V17.3829V17.3828V17.3827V17.3826V17.3826V17.3825V17.3824V17.3824V17.3823V17.3822V17.3821V17.3821V17.382V17.3819V17.3818V17.3818V17.3817V17.3816V17.3816V17.3815V17.3814V17.3813V17.3813V17.3812V17.3811V17.381V17.381V17.3809V17.3808V17.3807V17.3807V17.3806V17.3805V17.3805V17.3804V17.3803V17.3802V17.3802V17.3801V17.38V17.3799V17.3799V17.3798V17.3797V17.3797V17.3796V17.3795V17.3794V17.3794V17.3793V17.3792V17.3791V17.3791V17.379V17.3789V17.3788V17.3788V17.3787V17.3786V17.3786V17.3785V17.3784V17.3783V17.3783V17.3782V17.3781V17.378V17.378V17.3779V17.3778V17.3777V17.3777V17.3776V17.3775V17.3774V17.3774V17.3773V17.3772V17.3771V17.3771V17.377V17.3769V17.3769V17.3768V17.3767V17.3766V17.3766V17.3765V17.3764V17.3763V17.3763V17.3762V17.3761V17.376V17.376V17.3759V17.3758V17.3757V17.3757V17.3756V17.3755V17.3754V17.3754V17.3753V17.3752V17.3751V17.3751V17.375V17.3749V17.3748V17.3748V17.3747V17.3746V17.3745V17.3745V17.3744V17.3743V17.3742V17.3742V17.3741V17.374V17.3739V17.3739V17.3738V17.3737V17.3736V17.3736V17.3735V17.3734V17.3733V17.3732V17.3732V17.3731V17.373V17.3729V17.3729V17.3728V17.3727V17.3726V17.3726V17.3725V17.3724V17.3723V17.3723V17.3722V17.3721V17.372V17.3719V17.3719V17.3718V17.3717V17.3716V17.3716V17.3715V17.3714V17.3713V17.3712V17.3712V17.3711V17.371V17.3709V17.3709L15.2601 17.3393V17.3297L15.3094 17.2463L15.3365 17.218C15.3437 17.2139 15.3499 17.21 15.3546 17.2068C15.3617 17.203 15.3706 17.198 15.3802 17.1922C15.3816 17.1916 15.3834 17.191 15.3854 17.1902L15.3981 17.187C15.4042 17.1855 15.4089 17.1843 15.413 17.1833C15.4188 17.1818 15.4232 17.1807 15.4279 17.1795L16.9559 16.9494L17.0882 16.9295L17.145 16.8083L17.8212 15.3662C17.8212 15.3662 17.8212 15.3661 17.8212 15.3661C17.857 15.2899 17.9248 15.25 17.9943 15.25C18.0432 15.25 18.0943 15.2706 18.1331 15.3099C18.1353 15.3127 18.1373 15.3151 18.139 15.3172L18.1457 15.3253L18.149 15.3305C18.1646 15.3549 18.169 15.3625 18.1711 15.3669L18.1713 15.3672L18.8579 16.8129L18.9149 16.933L19.0464 16.9528L20.5798 17.1843L20.5798 17.1843L20.5812 17.1845C20.6501 17.1945 20.714 17.2458 20.7391 17.3277C20.7406 17.3371 20.7428 17.3476 20.746 17.3586V17.3643L20.7491 17.3777L20.7497 17.3881C20.7515 17.4226 20.7457 17.4551 20.7352 17.4799L20.7348 17.4798L20.7303 17.4923C20.7294 17.4947 20.7284 17.4971 20.7271 17.4998L20.7142 17.5187C20.7055 17.5314 20.6941 17.5454 20.6831 17.557L19.5742 18.6846L19.4851 18.7753L19.5058 18.9007L19.7687 20.4911C19.7822 20.5792 19.7496 20.659 19.6884 20.7069C19.6706 20.7196 19.6564 20.7277 19.6471 20.7321L19.6313 20.7372C19.6107 20.7439 19.5919 20.7466 19.5748 20.7466C19.5441 20.7466 19.5138 20.739 19.4869 20.7242L19.4864 20.724L18.1135 19.9725L17.9935 19.9068L17.8735 19.9725L16.5006 20.724L16.4928 20.7282L16.4853 20.733C16.4712 20.7421 16.4483 20.75 16.4166 20.75ZM19.6141 20.7451L19.6155 20.7444C19.615 20.7446 19.6143 20.745 19.6141 20.7451Z" stroke="url(#paint5_linear_286_241)" stroke-width="0.5"/>
<path d="M17.9945 15.228V18.1729L17.0518 16.916L17.7895 15.36C17.834 15.2745 17.9161 15.228 17.9945 15.228Z" fill="url(#paint6_linear_286_241)" fill-opacity="0.38"/>
<path d="M20.771 17.3328L17.9976 18.1732L18.9401 16.9163L20.5864 17.1654C20.6788 17.1831 20.7436 17.2507 20.771 17.3328Z" fill="url(#paint7_linear_286_241)"/>
<path d="M19.709 20.7258L17.9946 18.1726L19.5179 18.7815L19.7979 20.4908C19.8181 20.5906 19.7771 20.6759 19.709 20.7258Z" fill="url(#paint8_linear_286_241)"/>
<path d="M17.994 18.1726V19.9352L16.5218 20.7434C16.4365 20.7896 16.3477 20.7754 16.2793 20.7258L17.994 18.1726Z" fill="url(#paint9_linear_286_241)"/>
<path d="M18.9372 16.916L17.9944 18.1729V15.228C18.0559 15.228 18.1174 15.2528 18.1617 15.3027C18.1686 15.3098 18.1754 15.3204 18.1822 15.3312C18.1891 15.3421 18.1959 15.3526 18.1992 15.3632L18.9372 16.916Z" fill="url(#paint10_linear_286_241)" fill-opacity="0.6"/>
<path d="M20.7643 17.4927C20.7575 17.507 20.7507 17.5212 20.7438 17.5355C20.7334 17.5497 20.7233 17.5603 20.7132 17.5745L19.5213 18.7853L17.998 18.1763L20.7714 17.3359C20.7714 17.3394 20.7747 17.3431 20.7747 17.3468C20.7747 17.3505 20.7783 17.3539 20.7783 17.361C20.7783 17.3647 20.7783 17.3647 20.7783 17.3647C20.7783 17.3682 20.7783 17.3719 20.7783 17.3753C20.7783 17.3824 20.7783 17.3861 20.7783 17.393C20.7816 17.4249 20.778 17.4605 20.7643 17.4927Z" fill="url(#paint11_linear_286_241)"/>
<path d="M19.7091 20.7258C19.6921 20.74 19.6716 20.7506 19.6475 20.7577C19.6443 20.7577 19.6443 20.7577 19.6407 20.7611C19.586 20.7788 19.5245 20.7754 19.4665 20.7434L17.9944 19.9352V18.1726L19.7091 20.7258Z" fill="url(#paint12_linear_286_241)"/>
<path d="M17.9944 18.1726L16.28 20.7258C16.2767 20.722 16.2732 20.7186 16.2699 20.7149C16.2666 20.7115 16.263 20.7078 16.2595 20.7041C16.2562 20.7007 16.2527 20.697 16.2458 20.6898C16.2423 20.6864 16.239 20.6827 16.2354 20.679C16.2319 20.6753 16.2321 20.6756 16.2321 20.6719C16.2289 20.6684 16.2253 20.6647 16.2253 20.661C16.2185 20.6505 16.2116 20.6397 16.2084 20.6291C16.2051 20.6257 16.2051 20.6183 16.2015 20.6114C16.1982 20.6043 16.1982 20.6006 16.1947 20.5938C16.1914 20.5866 16.1914 20.5761 16.1914 20.569C16.1914 20.5655 16.1914 20.5581 16.1914 20.5547C16.1914 20.5476 16.1914 20.5405 16.1914 20.5333C16.1914 20.5191 16.1914 20.5048 16.1947 20.4906L16.4747 18.7812L17.9944 18.1726Z" fill="url(#paint13_linear_286_241)"/>
<path d="M17.9941 18.1724L15.2207 17.332C15.2207 17.3286 15.224 17.3249 15.224 17.3212C15.2273 17.3141 15.2273 17.3069 15.2308 17.3035C15.2377 17.2893 15.2445 17.2787 15.2513 17.2679C15.2546 17.2608 15.2582 17.257 15.265 17.2502C15.2686 17.2468 15.2718 17.2394 15.2787 17.2359C15.282 17.2325 15.2891 17.2254 15.2923 17.2217C15.2956 17.218 15.3025 17.2146 15.306 17.2109C15.3128 17.2074 15.3197 17.2 15.3265 17.1966C15.3298 17.1932 15.3366 17.1895 15.3435 17.1895C15.3539 17.1861 15.3604 17.1824 15.3708 17.1786C15.3741 17.1786 15.3777 17.1752 15.3845 17.1752C15.3913 17.1718 15.4014 17.1718 15.4118 17.1681L17.0582 16.9189L17.9941 18.1724Z" fill="url(#paint14_linear_286_241)"/>
<path d="M17.9943 18.1727L16.4746 18.785L15.2827 17.5743C15.269 17.5635 15.2622 17.5495 15.2521 17.5353C15.2453 17.521 15.2351 17.5067 15.2316 17.4925C15.2283 17.4854 15.2247 17.4782 15.2247 17.4711C15.2179 17.4497 15.2144 17.4249 15.2144 17.4035C15.2144 17.3964 15.2144 17.3893 15.2144 17.3822C15.2144 17.3716 15.2144 17.3645 15.2179 17.3537C15.2179 17.3502 15.2212 17.3465 15.2212 17.3394C15.2212 17.336 15.2245 17.3323 15.2245 17.3289L17.9943 18.1727Z" fill="url(#paint15_linear_286_241)"/>
</g>
<g opacity="0.4">
<path d="M23 27.6838C25.095 26.4654 26.5794 25.6021 27.4532 25.0939L23 27.6838Z" fill="url(#paint16_linear_286_241)"/>
<path d="M23 27.6838C25.095 26.4654 26.5794 25.6021 27.4532 25.0939" stroke="white" stroke-opacity="0.62" stroke-width="0.711111" stroke-linecap="round"/>
</g>
</g>
<defs>
<filter id="filter0_d_286_241" x="4" y="7.18628" width="28" height="29.6274" filterUnits="userSpaceOnUse" color-interpolation-filters="sRGB">
<feFlood flood-opacity="0" result="BackgroundImageFix"/>
<feColorMatrix in="SourceAlpha" type="matrix" values="0 0 0 0 0 0 0 0 0 0 0 0 0 0 0 0 0 0 127 0" result="hardAlpha"/>
<feOffset dy="4"/>
<feGaussianBlur stdDeviation="2"/>
<feComposite in2="hardAlpha" operator="out"/>
<feColorMatrix type="matrix" values="0 0 0 0 0.512291 0 0 0 0 0.286279 0 0 0 0 1 0 0 0 0.17 0"/>
<feBlend mode="normal" in2="BackgroundImageFix" result="effect1_dropShadow_286_241"/>
<feBlend mode="normal" in="SourceGraphic" in2="effect1_dropShadow_286_241" result="shape"/>
</filter>
<filter id="filter1_d_286_241" x="6.625" y="6.49878" width="22.75" height="24.3774" filterUnits="userSpaceOnUse" color-interpolation-filters="sRGB">
<feFlood flood-opacity="0" result="BackgroundImageFix"/>
<feColorMatrix in="SourceAlpha" type="matrix" values="0 0 0 0 0 0 0 0 0 0 0 0 0 0 0 0 0 0 127 0" result="hardAlpha"/>
<feOffset dy="0.6875"/>
<feGaussianBlur stdDeviation="0.6875"/>
<feColorMatrix type="matrix" values="0 0 0 0 0.287239 0 0 0 0 0.155102 0 0 0 0 0.511019 0 0 0 1 0"/>
<feBlend mode="normal" in2="BackgroundImageFix" result="effect1_dropShadow_286_241"/>
<feBlend mode="normal" in="SourceGraphic" in2="effect1_dropShadow_286_241" result="shape"/>
</filter>
<filter id="filter2_d_286_241" x="13" y="14" width="10" height="10" filterUnits="userSpaceOnUse" color-interpolation-filters="sRGB">
<feFlood flood-opacity="0" result="BackgroundImageFix"/>
<feColorMatrix in="SourceAlpha" type="matrix" values="0 0 0 0 0 0 0 0 0 0 0 0 0 0 0 0 0 0 127 0" result="hardAlpha"/>
<feOffset dy="1"/>
<feGaussianBlur stdDeviation="1"/>
<feComposite in2="hardAlpha" operator="out"/>
<feColorMatrix type="matrix" values="0 0 0 0 1 0 0 0 0 1 0 0 0 0 1 0 0 0 0.5 0"/>
<feBlend mode="normal" in2="BackgroundImageFix" result="effect1_dropShadow_286_241"/>
<feBlend mode="normal" in="SourceGraphic" in2="effect1_dropShadow_286_241" result="shape"/>
</filter>
<linearGradient id="paint0_linear_286_241" x1="1.55063" y1="5" x2="1.55063" y2="37" gradientUnits="userSpaceOnUse">
<stop stop-color="#B28EFF"/>
<stop offset="0.48" stop-color="#8F6DD6"/>
</linearGradient>
<linearGradient id="paint1_linear_286_241" x1="5" y1="4" x2="5" y2="31.7032" gradientUnits="userSpaceOnUse">
<stop offset="0.06" stop-color="#A143FF"/>
<stop offset="0.46" stop-color="#8548F1"/>
<stop offset="0.73" stop-color="#6F3DC6"/>
</linearGradient>
<linearGradient id="paint2_linear_286_241" x1="14" y1="5.33398" x2="14" y2="6.96787" gradientUnits="userSpaceOnUse">
<stop offset="0.2" stop-color="#856DB9"/>
<stop offset="0.82" stop-color="#46247C"/>
</linearGradient>
<linearGradient id="paint3_linear_286_241" x1="6.52625" y1="7" x2="6.52625" y2="28.5111" gradientUnits="userSpaceOnUse">
<stop offset="0.205" stop-color="#9747FF"/>
<stop offset="0.64" stop-color="#7734CA"/>
</linearGradient>
<linearGradient id="paint4_linear_286_241" x1="16.5" y1="15" x2="19.2857" y2="20.7857" gradientUnits="userSpaceOnUse">
<stop stop-color="#E1E1E1" stop-opacity="0.33"/>
<stop offset="0.195" stop-color="#D1D0D0" stop-opacity="0.32"/>
<stop offset="0.76" stop-color="#D6D5D5" stop-opacity="0.58"/>
<stop offset="1" stop-color="#DBDBDB" stop-opacity="0.31"/>
</linearGradient>
<linearGradient id="paint5_linear_286_241" x1="16.5" y1="15" x2="19.2857" y2="20.7857" gradientUnits="userSpaceOnUse">
<stop stop-color="#D8D8D8"/>
<stop offset="0.195" stop-color="#D1D0D0" stop-opacity="0.32"/>
<stop offset="0.76" stop-color="#D6D5D5" stop-opacity="0.58"/>
<stop offset="1" stop-color="#DBDBDB" stop-opacity="0.31"/>
</linearGradient>
<linearGradient id="paint6_linear_286_241" x1="17.5232" y1="15.228" x2="18.0001" y2="18.2141" gradientUnits="userSpaceOnUse">
<stop stop-color="white" stop-opacity="0.54"/>
<stop offset="1" stop-color="#696969" stop-opacity="0.71"/>
</linearGradient>
<linearGradient id="paint7_linear_286_241" x1="20.6536" y1="16.9163" x2="18.1149" y2="18.1732" gradientUnits="userSpaceOnUse">
<stop stop-color="#ECE5E7" stop-opacity="0.14"/>
<stop offset="1" stop-color="#868283" stop-opacity="0.46"/>
</linearGradient>
<linearGradient id="paint8_linear_286_241" x1="18.643" y1="18.4285" x2="19.7195" y2="20.7258" gradientUnits="userSpaceOnUse">
<stop stop-color="#E1DCE2" stop-opacity="0.55"/>
<stop offset="1" stop-color="#B0B0B0" stop-opacity="0.5"/>
</linearGradient>
<linearGradient id="paint9_linear_286_241" x1="17.7856" y1="18.2143" x2="17.1427" y2="20.5714" gradientUnits="userSpaceOnUse">
<stop stop-color="#E7E6E7" stop-opacity="0.56"/>
<stop offset="1" stop-color="#CBC5CB" stop-opacity="0.79"/>
</linearGradient>
<linearGradient id="paint10_linear_286_241" x1="18.6429" y1="15.2141" x2="18" y2="18.2141" gradientUnits="userSpaceOnUse">
<stop offset="0.0246486" stop-color="#FAECDB" stop-opacity="0.49"/>
<stop offset="1" stop-color="#948C82" stop-opacity="0.38"/>
</linearGradient>
<linearGradient id="paint11_linear_286_241" x1="20.7859" y1="17.7859" x2="18.4287" y2="18.2144" gradientUnits="userSpaceOnUse">
<stop stop-color="#DAD3D9" stop-opacity="0.64"/>
<stop offset="1" stop-color="#B4B1B3" stop-opacity="0.45"/>
</linearGradient>
<linearGradient id="paint12_linear_286_241" x1="18" y1="18.2143" x2="19.2857" y2="20.7857" gradientUnits="userSpaceOnUse">
<stop stop-color="#D5CFD6" stop-opacity="0.64"/>
<stop offset="1" stop-color="#A9A2AA" stop-opacity="0.43"/>
</linearGradient>
<linearGradient id="paint13_linear_286_241" x1="17.713" y1="18.1726" x2="16.0716" y2="20.5714" gradientUnits="userSpaceOnUse">
<stop stop-color="#D5D1D7" stop-opacity="0.92"/>
<stop offset="1" stop-color="#A5A0A8" stop-opacity="0.34"/>
</linearGradient>
<linearGradient id="paint14_linear_286_241" x1="16.0713" y1="16.9286" x2="17.7855" y2="18" gradientUnits="userSpaceOnUse">
<stop stop-color="#D6D1D8" stop-opacity="0.44"/>
<stop offset="1" stop-color="#ABA5AD" stop-opacity="0.24"/>
</linearGradient>
<linearGradient id="paint15_linear_286_241" x1="15.2426" y1="17.8609" x2="17.9661" y2="18.6005" gradientUnits="userSpaceOnUse">
<stop stop-color="#C3BFC5" stop-opacity="0.55"/>
<stop offset="1" stop-color="#E1E1E1" stop-opacity="0.45"/>
</linearGradient>
<linearGradient id="paint16_linear_286_241" x1="23.0574" y1="25" x2="23" y2="27.6838" gradientUnits="userSpaceOnUse">
<stop offset="0.2" stop-color="#856DB9"/>
<stop offset="0.82" stop-color="#46247C"/>
</linearGradient>
<clipPath id="clip0_286_241">
<rect width="36" height="36" fill="white"/>
</clipPath>
</defs>
</svg>
