<svg width="69" height="16" viewBox="0 0 69 16" fill="none" xmlns="http://www.w3.org/2000/svg">
<path d="M5.19189 8.07422V9.89062C6.15283 9.83789 7.12549 9.75586 8.03955 9.62109L8.12158 10.4414C5.74854 10.8809 3.19971 10.8984 1.32471 10.8984L1.18408 9.98438C2.02783 9.97852 3.02979 9.97266 4.07861 9.9375V8.07422H5.19189ZM1.46533 7.57031C3.02979 7.11914 4.0083 6.02344 4.06689 4.73438H1.74658V3.83203H4.07861V2.57812H5.19189V3.83203H7.54736V4.73438H5.19189C5.25049 5.9707 6.24658 7.03125 7.81689 7.45312L7.30127 8.32031C6.04736 7.96289 5.10986 7.20117 4.63525 6.20508C4.17822 7.25391 3.25244 8.05664 1.99268 8.41406L1.46533 7.57031ZM8.6958 13.0195V2.49609H9.80908V13.0195H8.6958ZM19.6036 2.50781V10.1953H18.4903V2.50781H19.6036ZM10.9552 7.82812C12.6017 7.21875 13.5743 5.70703 13.5802 4.125V3.08203H14.7169V4.125C14.711 5.66016 15.6837 7.06641 17.3067 7.62891L16.7325 8.51953C15.5196 8.06836 14.6231 7.17773 14.1544 6.04102C13.6915 7.25977 12.7833 8.23242 11.5528 8.70703L10.9552 7.82812ZM12.7364 12.7734V9.46875H13.8614V11.8711H19.92V12.7734H12.7364ZM32.5833 7.42969V8.34375H22.9974V7.42969H32.5833ZM24.1341 11.0742C24.1341 9.85547 25.4993 9.16406 27.7786 9.16406C30.0403 9.16406 31.3938 9.85547 31.3997 11.0742C31.3938 12.293 30.0403 12.9785 27.7786 12.9727C25.4993 12.9785 24.1341 12.293 24.1341 11.0742ZM24.1927 6.51562V2.87109H31.3997V3.78516H25.2942V5.61328H31.47V6.51562H24.1927ZM25.2591 11.0742C25.2532 11.748 26.1731 12.1113 27.7786 12.1172C29.3606 12.1113 30.2864 11.748 30.2864 11.0742C30.2864 10.4062 29.3606 10.0312 27.7786 10.0195C26.1731 10.0312 25.2532 10.4062 25.2591 11.0742ZM42.3661 8.22656V9.12891H32.7567V8.22656H37.0106V7.23047H33.9872V4.55859H40.0458V3.62109H33.9638V2.74219H41.1591V5.37891H35.0888V6.36328H41.37V7.23047H38.1122V8.22656H42.3661ZM33.8349 10.7578V9.86719H41.2177V12.9141H40.0927V10.7578H33.8349ZM47.895 3.22266C47.9009 4.53516 49.5825 5.80664 51.5747 6.09375L51.1411 6.97266C49.4712 6.69727 48.0063 5.83594 47.3325 4.6582C46.6646 5.85352 45.188 6.7207 43.5122 6.99609L43.0903 6.11719C45.0825 5.8125 46.7524 4.57617 46.7583 3.22266V2.76562H47.895V3.22266ZM42.5278 8.68359V7.78125H52.1372V8.68359H47.9653V10.7109H46.8638V8.68359H42.5278ZM43.7231 12.7734V9.72656H44.8364V11.8711H51.0708V12.7734H43.7231Z" fill="#788397"/>
<path d="M65.0239 6.25L61.5239 9.75L58.0239 6.25" stroke="#788397" stroke-width="0.777778" stroke-linecap="round" stroke-linejoin="round"/>
</svg>
