<svg width="16" height="16" viewBox="0 0 16 16" fill="none" xmlns="http://www.w3.org/2000/svg">
<path d="M2.48047 6.31934C2.74552 6.31934 2.96087 6.53477 2.96094 6.7998V13.5195C2.96094 13.7846 3.17539 13.9999 3.44043 14H10.1602L10.2568 14.0098C10.4756 14.0544 10.6404 14.2476 10.6406 14.4795C10.6406 14.7116 10.4758 14.9056 10.2568 14.9502L10.1602 14.96H3.44043C2.6452 14.9599 2 14.3148 2 13.5195V6.7998C2.00007 6.5348 2.21546 6.31938 2.48047 6.31934ZM12.0801 2C13.1404 2.00005 13.9999 2.85962 14 3.91992V10.6396C14 11.7 13.1404 12.5595 12.0801 12.5596H6.32031C5.25996 12.5595 4.40039 11.7 4.40039 10.6396V3.91992C4.40046 2.85962 5.26 2.00004 6.32031 2H12.0801ZM6.32031 2.95996C5.7902 2.96 5.36042 3.38981 5.36035 3.91992V10.6396C5.36035 11.1698 5.79016 11.5996 6.32031 11.5996H12.0801C12.6102 11.5996 13.04 11.1698 13.04 10.6396V3.91992C13.04 3.38981 12.6102 2.96001 12.0801 2.95996H6.32031Z" fill="#788397"/>
</svg>
