<svg width="28" height="28" viewBox="0 0 28 28" fill="none" xmlns="http://www.w3.org/2000/svg">
<g filter="url(#filter0_d_1471_14628)">
<path d="M21.5 2.38462H19.25V1.69231C19.25 1.5087 19.171 1.33261 19.0303 1.20277C18.8897 1.07294 18.6989 1 18.5 1C18.3011 1 18.1103 1.07294 17.9697 1.20277C17.829 1.33261 17.75 1.5087 17.75 1.69231V2.38462H10.25V1.69231C10.25 1.5087 10.171 1.33261 10.0303 1.20277C9.88968 1.07294 9.69891 1 9.5 1C9.30109 1 9.11032 1.07294 8.96967 1.20277C8.82902 1.33261 8.75 1.5087 8.75 1.69231V2.38462H6.5C6.10218 2.38462 5.72064 2.53049 5.43934 2.79016C5.15804 3.04983 5 3.40201 5 3.76923V17.6154C5 17.9826 5.15804 18.3348 5.43934 18.5945C5.72064 18.8541 6.10218 19 6.5 19H21.5C21.8978 19 22.2794 18.8541 22.5607 18.5945C22.842 18.3348 23 17.9826 23 17.6154V3.76923C23 3.40201 22.842 3.04983 22.5607 2.79016C22.2794 2.53049 21.8978 2.38462 21.5 2.38462ZM8.75 3.76923V4.46154C8.75 4.64515 8.82902 4.82124 8.96967 4.95107C9.11032 5.08091 9.30109 5.15385 9.5 5.15385C9.69891 5.15385 9.88968 5.08091 10.0303 4.95107C10.171 4.82124 10.25 4.64515 10.25 4.46154V3.76923H17.75V4.46154C17.75 4.64515 17.829 4.82124 17.9697 4.95107C18.1103 5.08091 18.3011 5.15385 18.5 5.15385C18.6989 5.15385 18.8897 5.08091 19.0303 4.95107C19.171 4.82124 19.25 4.64515 19.25 4.46154V3.76923H21.5V6.53846H6.5V3.76923H8.75ZM21.5 17.6154H6.5V7.92308H21.5V17.6154ZM17.9056 10.2025C17.9754 10.2668 18.0307 10.3432 18.0684 10.4272C18.1062 10.5112 18.1256 10.6013 18.1256 10.6923C18.1256 10.7833 18.1062 10.8734 18.0684 10.9574C18.0307 11.0415 17.9754 11.1178 17.9056 11.1821L13.4056 15.336C13.336 15.4003 13.2533 15.4514 13.1622 15.4862C13.0712 15.5211 12.9736 15.539 12.875 15.539C12.7764 15.539 12.6788 15.5211 12.5878 15.4862C12.4967 15.4514 12.414 15.4003 12.3444 15.336L10.0944 13.259C9.95364 13.1291 9.87458 12.9529 9.87458 12.7692C9.87458 12.5855 9.95364 12.4093 10.0944 12.2794C10.2351 12.1495 10.426 12.0765 10.625 12.0765C10.824 12.0765 11.0149 12.1495 11.1556 12.2794L12.875 13.8674L16.8444 10.2025C16.914 10.1381 16.9967 10.0871 17.0878 10.0522C17.1788 10.0174 17.2764 9.99946 17.375 9.99946C17.4736 9.99946 17.5712 10.0174 17.6622 10.0522C17.7533 10.0871 17.836 10.1381 17.9056 10.2025Z" fill="#8349FF"/>
<path d="M11.3252 12.0957L11.3252 12.0958L12.875 13.5271L16.6747 10.0189C16.6747 10.0189 16.6748 10.0188 16.6748 10.0188C16.7684 9.93229 16.8786 9.86461 16.9984 9.81874C17.1183 9.77286 17.2462 9.74946 17.375 9.74946C17.5038 9.74946 17.6317 9.77286 17.7515 9.81874C17.8714 9.86459 17.9815 9.93223 18.0751 10.0187C18.0752 10.0188 18.0752 10.0188 18.0753 10.0189L17.9056 10.2025C17.9754 10.2668 18.0307 10.3432 18.0684 10.4272C18.1062 10.5112 18.1256 10.6013 18.1256 10.6923C18.1256 10.7833 18.1062 10.8734 18.0684 10.9574C18.0307 11.0415 17.9754 11.1178 17.9056 11.1821L11.3252 12.0957ZM11.3252 12.0957C11.1363 11.9214 10.8842 11.8265 10.625 11.8265C10.3658 11.8265 10.1137 11.9214 9.9248 12.0957C9.73526 12.2707 9.62458 12.5125 9.62458 12.7692C9.62458 13.026 9.73526 13.2678 9.9248 13.4427L12.1747 15.5196L11.3252 12.0957ZM21.5 2.13462H19.5V1.69231C19.5 1.43564 19.3894 1.19396 19.1999 1.01907C19.0111 0.844805 18.759 0.75 18.5 0.75C18.241 0.75 17.9889 0.844805 17.8001 1.01907C17.6106 1.19396 17.5 1.43564 17.5 1.69231V2.13462H10.5V1.69231C10.5 1.43564 10.3894 1.19396 10.1999 1.01907C10.0111 0.844805 9.75905 0.75 9.5 0.75C9.24095 0.75 8.98889 0.844805 8.8001 1.01907C8.61064 1.19396 8.5 1.43564 8.5 1.69231V2.13462H6.5C6.04204 2.13462 5.59921 2.30236 5.26977 2.60646C4.93966 2.91118 4.75 3.32895 4.75 3.76923V17.6154C4.75 18.0557 4.93966 18.4734 5.26977 18.7782C5.59921 19.0823 6.04204 19.25 6.5 19.25H21.5C21.958 19.25 22.4008 19.0823 22.7302 18.7782C23.0603 18.4734 23.25 18.0557 23.25 17.6154V3.76923C23.25 3.32895 23.0603 2.91118 22.7302 2.60646C22.4008 2.30236 21.958 2.13462 21.5 2.13462ZM8.5 4.01923V4.46154C8.5 4.71821 8.61064 4.95989 8.8001 5.13477C8.98889 5.30904 9.24095 5.40385 9.5 5.40385C9.75905 5.40385 10.0111 5.30904 10.1999 5.13477C10.3894 4.95989 10.5 4.7182 10.5 4.46154V4.01923H17.5V4.46154C17.5 4.7182 17.6106 4.95989 17.8001 5.13477C17.9889 5.30904 18.241 5.40385 18.5 5.40385C18.759 5.40385 19.0111 5.30904 19.1999 5.13477C19.3894 4.95989 19.5 4.7182 19.5 4.46154V4.01923H21.25V6.28846H6.75V4.01923H8.5ZM21.25 17.3654H6.75V8.17308H21.25V17.3654Z" stroke="#F3F4F6" stroke-width="0.5"/>
</g>
<defs>
<filter id="filter0_d_1471_14628" x="0.5" y="0.5" width="27" height="27" filterUnits="userSpaceOnUse" color-interpolation-filters="sRGB">
<feFlood flood-opacity="0" result="BackgroundImageFix"/>
<feColorMatrix in="SourceAlpha" type="matrix" values="0 0 0 0 0 0 0 0 0 0 0 0 0 0 0 0 0 0 127 0" result="hardAlpha"/>
<feOffset dy="4"/>
<feGaussianBlur stdDeviation="2"/>
<feComposite in2="hardAlpha" operator="out"/>
<feColorMatrix type="matrix" values="0 0 0 0 0.513726 0 0 0 0 0.286275 0 0 0 0 1 0 0 0 0.1 0"/>
<feBlend mode="normal" in2="BackgroundImageFix" result="effect1_dropShadow_1471_14628"/>
<feBlend mode="normal" in="SourceGraphic" in2="effect1_dropShadow_1471_14628" result="shape"/>
</filter>
</defs>
</svg>
