<svg width="28" height="28" viewBox="0 0 28 28" fill="none" xmlns="http://www.w3.org/2000/svg">
<g filter="url(#filter0_d_1471_14625)">
<path d="M7.055 2.61135C6.98471 2.53994 6.89903 2.48289 6.80346 2.44384C6.70788 2.4048 6.60452 2.38462 6.5 2.38462C6.10218 2.38462 5.72064 2.53049 5.43934 2.79016C5.15804 3.04983 5 3.40201 5 3.76923V17.6154C5 17.9826 5.15804 18.3348 5.43934 18.5945C5.72064 18.8541 6.10218 19 6.5 19H21.5C21.6453 19 21.7874 18.961 21.9092 18.8879C22.0309 18.8147 22.127 18.7104 22.1858 18.5878C22.2446 18.4652 22.2635 18.3294 22.2403 18.197C22.2171 18.0647 22.1527 17.9414 22.055 17.8421L7.055 2.61135ZM8.89531 6.53846H6.5V4.105L8.89531 6.53846ZM6.5 17.6154V7.92308H10.2594L19.805 17.6154H6.5ZM23 3.76923V14.9526C23 15.1362 22.921 15.3123 22.7803 15.4421C22.6397 15.572 22.4489 15.6449 22.25 15.6449C22.0511 15.6449 21.8603 15.572 21.7197 15.4421C21.579 15.3123 21.5 15.1362 21.5 14.9526V7.92308H14.645C14.4461 7.92308 14.2553 7.85014 14.1147 7.7203C13.974 7.59047 13.895 7.41438 13.895 7.23077C13.895 7.04716 13.974 6.87107 14.1147 6.74123C14.2553 6.6114 14.4461 6.53846 14.645 6.53846H21.5V3.76923H19.25V4.46154C19.25 4.64515 19.171 4.82124 19.0303 4.95107C18.8897 5.08091 18.6989 5.15385 18.5 5.15385C18.3011 5.15385 18.1103 5.08091 17.9697 4.95107C17.829 4.82124 17.75 4.64515 17.75 4.46154V3.76923H10.5547C10.3558 3.76923 10.165 3.69629 10.0244 3.56646C9.88371 3.43663 9.80469 3.26053 9.80469 3.07692C9.80469 2.89331 9.88371 2.71722 10.0244 2.58739C10.165 2.45755 10.3558 2.38462 10.5547 2.38462H17.75V1.69231C17.75 1.5087 17.829 1.33261 17.9697 1.20277C18.1103 1.07294 18.3011 1 18.5 1C18.6989 1 18.8897 1.07294 19.0303 1.20277C19.171 1.33261 19.25 1.5087 19.25 1.69231V2.38462H21.5C21.8978 2.38462 22.2794 2.53049 22.5607 2.79016C22.842 3.04983 23 3.40201 23 3.76923Z" fill="#636C7F"/>
<path d="M6.50002 2.13462H6.5C6.04204 2.13462 5.59921 2.30236 5.26977 2.60646C4.93966 2.91118 4.75 3.32895 4.75 3.76923V17.6154C4.75 18.0557 4.93966 18.4734 5.26977 18.7782C5.59921 19.0823 6.04204 19.25 6.5 19.25H21.5C21.6896 19.25 21.8764 19.1992 22.038 19.1021C22.1996 19.0049 22.3303 18.8646 22.4112 18.6959C22.4923 18.5268 22.5189 18.3382 22.4865 18.1539C22.4542 17.9696 22.3651 17.8007 22.2332 17.6667L22.2331 17.6667L7.23316 2.43597C7.23315 2.43595 7.23313 2.43594 7.23312 2.43592C7.13833 2.33964 7.02397 2.26387 6.898 2.21241C6.77204 2.16095 6.63654 2.13463 6.50002 2.13462ZM6.75 4.71536L8.29844 6.28846H6.75V4.71536ZM6.75 17.3654V8.17308H10.1547L19.2079 17.3654H6.75ZM23.25 14.9526V3.76923C23.25 3.32895 23.0603 2.91118 22.7302 2.60646C22.4008 2.30236 21.958 2.13462 21.5 2.13462H19.5V1.69231C19.5 1.43564 19.3894 1.19396 19.1999 1.01907C19.0111 0.844805 18.759 0.75 18.5 0.75C18.241 0.75 17.9889 0.844805 17.8001 1.01907C17.6106 1.19396 17.5 1.43564 17.5 1.69231V2.13462H10.5547C10.2956 2.13462 10.0436 2.22942 9.85479 2.40369C9.66533 2.57857 9.55469 2.82026 9.55469 3.07692C9.55469 3.33359 9.66533 3.57527 9.85479 3.75016C10.0436 3.92443 10.2956 4.01923 10.5547 4.01923H17.5V4.46154C17.5 4.7182 17.6106 4.95989 17.8001 5.13477C17.9889 5.30904 18.241 5.40385 18.5 5.40385C18.759 5.40385 19.0111 5.30904 19.1999 5.13477C19.3894 4.95989 19.5 4.7182 19.5 4.46154V4.01923H21.25V6.28846H14.645C14.386 6.28846 14.1339 6.38327 13.9451 6.55753C13.7556 6.73242 13.645 6.9741 13.645 7.23077C13.645 7.48744 13.7556 7.72912 13.9451 7.90401C14.1339 8.07827 14.386 8.17308 14.645 8.17308H21.25V14.9526C21.25 15.2093 21.3606 15.4509 21.5501 15.6258C21.7389 15.8001 21.991 15.8949 22.25 15.8949C22.509 15.8949 22.7611 15.8001 22.9499 15.6258C23.1394 15.4509 23.25 15.2093 23.25 14.9526Z" stroke="#F3F4F6" stroke-width="0.5"/>
</g>
<defs>
<filter id="filter0_d_1471_14625" x="0.5" y="0.5" width="27" height="27" filterUnits="userSpaceOnUse" color-interpolation-filters="sRGB">
<feFlood flood-opacity="0" result="BackgroundImageFix"/>
<feColorMatrix in="SourceAlpha" type="matrix" values="0 0 0 0 0 0 0 0 0 0 0 0 0 0 0 0 0 0 127 0" result="hardAlpha"/>
<feOffset dy="4"/>
<feGaussianBlur stdDeviation="2"/>
<feComposite in2="hardAlpha" operator="out"/>
<feColorMatrix type="matrix" values="0 0 0 0 0.388235 0 0 0 0 0.423529 0 0 0 0 0.498039 0 0 0 0.1 0"/>
<feBlend mode="normal" in2="BackgroundImageFix" result="effect1_dropShadow_1471_14625"/>
<feBlend mode="normal" in="SourceGraphic" in2="effect1_dropShadow_1471_14625" result="shape"/>
</filter>
</defs>
</svg>
