<svg width="18" height="18" viewBox="0 0 18 18" fill="none" xmlns="http://www.w3.org/2000/svg">
<path d="M16.5 1.38462H14.25V0.692308C14.25 0.508696 14.171 0.332605 14.0303 0.202772C13.8897 0.0729393 13.6989 0 13.5 0C13.3011 0 13.1103 0.0729393 12.9697 0.202772C12.829 0.332605 12.75 0.508696 12.75 0.692308V1.38462H5.25V0.692308C5.25 0.508696 5.17098 0.332605 5.03033 0.202772C4.88968 0.0729393 4.69891 0 4.5 0C4.30109 0 4.11032 0.0729393 3.96967 0.202772C3.82902 0.332605 3.75 0.508696 3.75 0.692308V1.38462H1.5C1.10218 1.38462 0.720644 1.53049 0.43934 1.79016C0.158035 2.04983 0 2.40201 0 2.76923V16.6154C0 16.9826 0.158035 17.3348 0.43934 17.5945C0.720644 17.8541 1.10218 18 1.5 18H16.5C16.8978 18 17.2794 17.8541 17.5607 17.5945C17.842 17.3348 18 16.9826 18 16.6154V2.76923C18 2.40201 17.842 2.04983 17.5607 1.79016C17.2794 1.53049 16.8978 1.38462 16.5 1.38462ZM3.75 2.76923V3.46154C3.75 3.64515 3.82902 3.82124 3.96967 3.95107C4.11032 4.08091 4.30109 4.15385 4.5 4.15385C4.69891 4.15385 4.88968 4.08091 5.03033 3.95107C5.17098 3.82124 5.25 3.64515 5.25 3.46154V2.76923H12.75V3.46154C12.75 3.64515 12.829 3.82124 12.9697 3.95107C13.1103 4.08091 13.3011 4.15385 13.5 4.15385C13.6989 4.15385 13.8897 4.08091 14.0303 3.95107C14.171 3.82124 14.25 3.64515 14.25 3.46154V2.76923H16.5V5.53846H1.5V2.76923H3.75ZM16.5 16.6154H1.5V6.92308H16.5V16.6154ZM12.9056 9.2025C12.9754 9.2668 13.0307 9.34315 13.0684 9.4272C13.1062 9.51124 13.1256 9.60133 13.1256 9.69231C13.1256 9.78329 13.1062 9.87338 13.0684 9.95742C13.0307 10.0415 12.9754 10.1178 12.9056 10.1821L8.40563 14.336C8.33597 14.4003 8.25325 14.4514 8.1622 14.4862C8.07116 14.5211 7.97356 14.539 7.875 14.539C7.77644 14.539 7.67884 14.5211 7.58779 14.4862C7.49675 14.4514 7.41403 14.4003 7.34437 14.336L5.09437 12.259C4.95364 12.1291 4.87458 11.9529 4.87458 11.7692C4.87458 11.5855 4.95364 11.4093 5.09437 11.2794C5.23511 11.1495 5.42598 11.0765 5.625 11.0765C5.82402 11.0765 6.01489 11.1495 6.15563 11.2794L7.875 12.8674L11.8444 9.2025C11.914 9.13813 11.9967 9.08707 12.0878 9.05223C12.1788 9.01739 12.2764 8.99946 12.375 8.99946C12.4736 8.99946 12.5712 9.01739 12.6622 9.05223C12.7533 9.08707 12.836 9.13813 12.9056 9.2025Z" fill="#8349FF"/>
</svg>
