<svg width="25" height="25" viewBox="0 0 25 25" fill="none" xmlns="http://www.w3.org/2000/svg">
<circle cx="12.5239" cy="12.5" r="12" fill="#4500CD"/>
<path d="M12.5238 16.0336C13.3269 16.0336 14.0096 15.7525 14.5717 15.1904C15.1339 14.6282 15.415 13.9456 15.415 13.1425C15.415 12.3394 15.1339 11.6568 14.5717 11.0946C14.0096 10.5325 13.3269 10.2514 12.5238 10.2514C11.7208 10.2514 11.0381 10.5325 10.476 11.0946C9.9138 11.6568 9.63272 12.3394 9.63272 13.1425C9.63272 13.9456 9.9138 14.6282 10.476 15.1904C11.0381 15.7525 11.7208 16.0336 12.5238 16.0336ZM12.5238 14.7487C12.0741 14.7487 11.694 14.5934 11.3835 14.2829C11.0729 13.9724 10.9177 13.5922 10.9177 13.1425C10.9177 12.6928 11.0729 12.3126 11.3835 12.0021C11.694 11.6916 12.0741 11.5363 12.5238 11.5363C12.9736 11.5363 13.3537 11.6916 13.6642 12.0021C13.9748 12.3126 14.13 12.6928 14.13 13.1425C14.13 13.5922 13.9748 13.9724 13.6642 14.2829C13.3537 14.5934 12.9736 14.7487 12.5238 14.7487ZM7.38407 18.2823C7.03071 18.2823 6.72821 18.1565 6.47657 17.9048C6.22494 17.6532 6.09912 17.3507 6.09912 16.9973V9.28766C6.09912 8.9343 6.22494 8.63181 6.47657 8.38017C6.72821 8.12854 7.03071 8.00272 7.38407 8.00272H9.40785L10.2109 7.13538C10.3287 7.00689 10.4706 6.90516 10.6366 6.83021C10.8026 6.75525 10.9766 6.71777 11.1586 6.71777H13.8891C14.0711 6.71777 14.2451 6.75525 14.4111 6.83021C14.5771 6.90516 14.719 7.00689 14.8367 7.13538L15.6398 8.00272H17.6636C18.017 8.00272 18.3195 8.12854 18.5711 8.38017C18.8228 8.63181 18.9486 8.9343 18.9486 9.28766V16.9973C18.9486 17.3507 18.8228 17.6532 18.5711 17.9048C18.3195 18.1565 18.017 18.2823 17.6636 18.2823H7.38407Z" fill="white"/>
</svg>
