<svg width="20" height="20" viewBox="0 0 20 20" fill="none" xmlns="http://www.w3.org/2000/svg">
<path d="M17.5 2.13462H15.5V1.69231C15.5 1.43564 15.3894 1.19396 15.1999 1.01907C15.0111 0.844804 14.759 0.75 14.5 0.75C14.241 0.75 13.9889 0.844804 13.8001 1.01907C13.6106 1.19396 13.5 1.43564 13.5 1.69231V2.13462H6.5V1.69231C6.5 1.43564 6.38936 1.19396 6.1999 1.01907C6.01111 0.844805 5.75905 0.75 5.5 0.75C5.24095 0.75 4.98889 0.844805 4.8001 1.01907C4.61064 1.19396 4.5 1.43564 4.5 1.69231V2.13462H2.5C2.04204 2.13462 1.59921 2.30236 1.26977 2.60646C0.939656 2.91118 0.75 3.32895 0.75 3.76923V17.6154C0.75 18.0557 0.939656 18.4734 1.26977 18.7782C1.59921 19.0823 2.04204 19.25 2.5 19.25H17.5C17.958 19.25 18.4008 19.0823 18.7302 18.7782C19.0603 18.4734 19.25 18.0557 19.25 17.6154V3.76923C19.25 3.32895 19.0603 2.91118 18.7302 2.60646C18.4008 2.30236 17.958 2.13462 17.5 2.13462ZM4.5 4.01923V4.46154C4.5 4.71821 4.61064 4.95989 4.8001 5.13477C4.98889 5.30904 5.24095 5.40385 5.5 5.40385C5.75905 5.40385 6.01111 5.30904 6.1999 5.13477C6.38936 4.95989 6.5 4.71821 6.5 4.46154V4.01923H13.5V4.46154C13.5 4.7182 13.6106 4.95989 13.8001 5.13477C13.9889 5.30904 14.241 5.40385 14.5 5.40385C14.759 5.40385 15.0111 5.30904 15.1999 5.13477C15.3894 4.95989 15.5 4.7182 15.5 4.46154V4.01923H17.25V6.28846H2.75V4.01923H4.5ZM17.25 17.3654H2.75V8.17308H17.25V17.3654ZM11.4497 13.6851C11.6445 13.4159 11.75 13.0972 11.75 12.7692C11.75 12.329 11.5603 11.9112 11.2302 11.6065C10.9008 11.3024 10.458 11.1346 10 11.1346C9.65813 11.1346 9.3225 11.2281 9.0354 11.4052C8.74815 11.5824 8.52108 11.8362 8.38609 12.137C8.25097 12.4381 8.21522 12.7708 8.28443 13.092C8.3536 13.413 8.52372 13.7049 8.76977 13.932C9.01561 14.1589 9.3265 14.3115 9.66222 14.3731C9.9979 14.4348 10.346 14.4033 10.6633 14.282C10.9807 14.1606 11.2551 13.9539 11.4497 13.6851Z" fill="#8349FF" stroke="#F3F4F6" stroke-width="0.5"/>
</svg>
