<svg width="28" height="28" viewBox="0 0 28 28" fill="none" xmlns="http://www.w3.org/2000/svg">
<g filter="url(#filter0_d_1471_14626)">
<path d="M21.5 2.38462H19.9423C19.56 2.38462 19.25 2.07466 19.25 1.69231C19.25 1.5087 19.171 1.33261 19.0303 1.20277C18.8897 1.07294 18.6989 1 18.5 1C18.3011 1 18.1103 1.07294 17.9697 1.20277C17.829 1.33261 17.75 1.5087 17.75 1.69231C17.75 2.07466 17.44 2.38462 17.0577 2.38462H10.9423C10.56 2.38462 10.25 2.07466 10.25 1.69231C10.25 1.5087 10.171 1.33261 10.0303 1.20277C9.88968 1.07294 9.69891 1 9.5 1C9.30109 1 9.11032 1.07294 8.96967 1.20277C8.82902 1.33261 8.75 1.5087 8.75 1.69231C8.75 2.07466 8.44004 2.38462 8.05769 2.38462H6.5C6.10218 2.38462 5.72064 2.53049 5.43934 2.79016C5.15804 3.04983 5 3.40201 5 3.76923V17.6154C5 17.9826 5.15804 18.3348 5.43934 18.5945C5.72064 18.8541 6.10218 19 6.5 19H21.5C21.8978 19 22.2794 18.8541 22.5607 18.5945C22.842 18.3348 23 17.9826 23 17.6154V3.76923C23 3.40201 22.842 3.04983 22.5607 2.79016C22.2794 2.53049 21.8978 2.38462 21.5 2.38462ZM8.05769 3.76923C8.44004 3.76923 8.75 4.07919 8.75 4.46154C8.75 4.64515 8.82902 4.82124 8.96967 4.95107C9.11032 5.08091 9.30109 5.15385 9.5 5.15385C9.69891 5.15385 9.88968 5.08091 10.0303 4.95107C10.171 4.82124 10.25 4.64515 10.25 4.46154C10.25 4.07919 10.56 3.76923 10.9423 3.76923H17.0577C17.44 3.76923 17.75 4.07919 17.75 4.46154C17.75 4.64515 17.829 4.82124 17.9697 4.95107C18.1103 5.08091 18.3011 5.15385 18.5 5.15385C18.6989 5.15385 18.8897 5.08091 19.0303 4.95107C19.171 4.82124 19.25 4.64515 19.25 4.46154C19.25 4.07919 19.56 3.76923 19.9423 3.76923H20.46C21.0344 3.76923 21.5 4.23485 21.5 4.80923V5.49846C21.5 6.07284 21.0344 6.53846 20.46 6.53846H7.54C6.96562 6.53846 6.5 6.07284 6.5 5.49846V4.80923C6.5 4.23485 6.96562 3.76923 7.54 3.76923H8.05769ZM21.5 16.5754C21.5 17.1498 21.0344 17.6154 20.46 17.6154H7.54C6.96562 17.6154 6.5 17.1498 6.5 16.5754V8.96308C6.5 8.3887 6.96562 7.92308 7.54 7.92308H20.46C21.0344 7.92308 21.5 8.3887 21.5 8.96308V16.5754ZM15.5 12.7692C15.5 13.0431 15.412 13.3108 15.2472 13.5385C15.0824 13.7662 14.8481 13.9437 14.574 14.0484C14.2999 14.1532 13.9983 14.1807 13.7074 14.1272C13.4164 14.0738 13.1491 13.9419 12.9393 13.7483C12.7296 13.5547 12.5867 13.3079 12.5288 13.0394C12.4709 12.7708 12.5006 12.4924 12.6142 12.2394C12.7277 11.9864 12.92 11.7701 13.1666 11.618C13.4133 11.4658 13.7033 11.3846 14 11.3846C14.3978 11.3846 14.7794 11.5305 15.0607 11.7902C15.342 12.0498 15.5 12.402 15.5 12.7692Z" fill="#8349FF"/>
<path d="M21.5 2.13462H19.9423C19.698 2.13462 19.5 1.93659 19.5 1.69231C19.5 1.43564 19.3894 1.19396 19.1999 1.01907C19.0111 0.844805 18.759 0.75 18.5 0.75C18.241 0.75 17.9889 0.844805 17.8001 1.01907C17.6106 1.19396 17.5 1.43564 17.5 1.69231C17.5 1.93659 17.302 2.13462 17.0577 2.13462H10.9423C10.698 2.13462 10.5 1.93659 10.5 1.69231C10.5 1.43564 10.3894 1.19396 10.1999 1.01907C10.0111 0.844805 9.75905 0.75 9.5 0.75C9.24095 0.75 8.98889 0.844805 8.8001 1.01907C8.61064 1.19396 8.5 1.43564 8.5 1.69231C8.5 1.93659 8.30197 2.13462 8.05769 2.13462H6.5C6.04204 2.13462 5.59921 2.30236 5.26977 2.60646C4.93966 2.91118 4.75 3.32895 4.75 3.76923V17.6154C4.75 18.0557 4.93966 18.4734 5.26977 18.7782C5.59921 19.0823 6.04204 19.25 6.5 19.25H21.5C21.958 19.25 22.4008 19.0823 22.7302 18.7782C23.0603 18.4734 23.25 18.0557 23.25 17.6154V3.76923C23.25 3.32895 23.0603 2.91118 22.7302 2.60646C22.4008 2.30236 21.958 2.13462 21.5 2.13462ZM8.05769 4.01923C8.30197 4.01923 8.5 4.21726 8.5 4.46154C8.5 4.71821 8.61064 4.95989 8.8001 5.13477C8.98889 5.30904 9.24095 5.40385 9.5 5.40385C9.75905 5.40385 10.0111 5.30904 10.1999 5.13477C10.3894 4.95989 10.5 4.71821 10.5 4.46154C10.5 4.21726 10.698 4.01923 10.9423 4.01923H17.0577C17.302 4.01923 17.5 4.21726 17.5 4.46154C17.5 4.7182 17.6106 4.95989 17.8001 5.13477C17.9889 5.30904 18.241 5.40385 18.5 5.40385C18.759 5.40385 19.0111 5.30904 19.1999 5.13477C19.3894 4.95989 19.5 4.7182 19.5 4.46154C19.5 4.21726 19.698 4.01923 19.9423 4.01923H20.46C20.8963 4.01923 21.25 4.37293 21.25 4.80923V5.49846C21.25 5.93477 20.8963 6.28846 20.46 6.28846H7.54C7.10369 6.28846 6.75 5.93477 6.75 5.49846V4.80923C6.75 4.37293 7.10369 4.01923 7.54 4.01923H8.05769ZM21.25 16.5754C21.25 17.0117 20.8963 17.3654 20.46 17.3654H7.54C7.10369 17.3654 6.75 17.0117 6.75 16.5754V8.96308C6.75 8.52677 7.10369 8.17308 7.54 8.17308H20.46C20.8963 8.17308 21.25 8.52677 21.25 8.96308V16.5754ZM15.4497 13.6851C15.6445 13.4159 15.75 13.0972 15.75 12.7692C15.75 12.329 15.5603 11.9112 15.2302 11.6065C14.9008 11.3024 14.458 11.1346 14 11.1346C13.6581 11.1346 13.3225 11.2281 13.0354 11.4052C12.7482 11.5824 12.5211 11.8362 12.3861 12.137C12.251 12.4381 12.2152 12.7708 12.2844 13.092C12.3536 13.413 12.5237 13.7049 12.7698 13.932C13.0156 14.1589 13.3265 14.3115 13.6622 14.3731C13.9979 14.4348 14.346 14.4033 14.6633 14.282C14.9807 14.1606 15.2551 13.9539 15.4497 13.6851Z" stroke="#F3F4F6" stroke-width="0.5"/>
</g>
<defs>
<filter id="filter0_d_1471_14626" x="0.5" y="0.5" width="27" height="27" filterUnits="userSpaceOnUse" color-interpolation-filters="sRGB">
<feFlood flood-opacity="0" result="BackgroundImageFix"/>
<feColorMatrix in="SourceAlpha" type="matrix" values="0 0 0 0 0 0 0 0 0 0 0 0 0 0 0 0 0 0 127 0" result="hardAlpha"/>
<feOffset dy="4"/>
<feGaussianBlur stdDeviation="2"/>
<feComposite in2="hardAlpha" operator="out"/>
<feColorMatrix type="matrix" values="0 0 0 0 0.513726 0 0 0 0 0.286275 0 0 0 0 1 0 0 0 0.1 0"/>
<feBlend mode="normal" in2="BackgroundImageFix" result="effect1_dropShadow_1471_14626"/>
<feBlend mode="normal" in="SourceGraphic" in2="effect1_dropShadow_1471_14626" result="shape"/>
</filter>
</defs>
</svg>
