<svg width="29" height="28" viewBox="0 0 29 28" fill="none" xmlns="http://www.w3.org/2000/svg">
<rect x="1.02393" y="0.5" width="27" height="27" rx="13.5" stroke="#CFD3DE"/>
<path d="M21.3512 14.56C21.5997 14.56 21.8012 14.3586 21.8012 14.11C21.8012 13.8615 21.5997 13.66 21.3512 13.66V14.56ZM7.69653 13.66C7.44801 13.66 7.24653 13.8615 7.24653 14.11C7.24653 14.3586 7.44801 14.56 7.69653 14.56V13.66ZM21.3512 9.94593C21.5997 9.94593 21.8012 9.74446 21.8012 9.49593C21.8012 9.2474 21.5997 9.04593 21.3512 9.04593V9.94593ZM7.69653 9.04593C7.44801 9.04593 7.24653 9.2474 7.24653 9.49593C7.24653 9.74446 7.44801 9.94593 7.69653 9.94593V9.04593ZM21.3515 19.1744C21.6 19.1744 21.8015 18.9729 21.8015 18.7244C21.8015 18.4759 21.6 18.2744 21.3515 18.2744V19.1744ZM7.69653 18.2744C7.44801 18.2744 7.24653 18.4759 7.24653 18.7244C7.24653 18.9729 7.44801 19.1744 7.69653 19.1744V18.2744ZM20.0771 14.56H21.3512V13.66H20.0771V14.56ZM7.69653 14.56H16.5377V13.66H7.69653V14.56ZM12.9537 9.94593H21.3512V9.04593H12.9537V9.94593ZM7.69653 9.94593H9.42022V9.04593H7.69653V9.94593ZM15.4494 19.1744H21.3515V18.2744H15.4494V19.1744ZM7.69653 19.1744H11.9097V18.2744H7.69653V19.1744ZM12.5071 9.40675C12.5071 10.1017 11.9266 10.6838 11.1873 10.6838V11.5838C12.4028 11.5838 13.4071 10.6194 13.4071 9.40675H12.5071ZM11.1873 10.6838C10.448 10.6838 9.86751 10.1017 9.86751 9.40675H8.96751C8.96751 10.6194 9.97177 11.5838 11.1873 11.5838V10.6838ZM9.86751 9.40675C9.86751 8.71175 10.448 8.12969 11.1873 8.12969V7.22969C9.97177 7.22969 8.96751 8.19409 8.96751 9.40675H9.86751ZM11.1873 8.12969C11.9266 8.12969 12.5071 8.71175 12.5071 9.40675H13.4071C13.4071 8.19409 12.4028 7.22969 11.1873 7.22969V8.12969ZM19.6271 14.11C19.6271 14.8052 19.0469 15.3873 18.3077 15.3873V16.2873C19.5234 16.2873 20.5271 15.3225 20.5271 14.11H19.6271ZM18.3077 15.3873C17.5684 15.3873 16.9877 14.805 16.9877 14.11H16.0877C16.0877 15.3227 17.0922 16.2873 18.3077 16.2873V15.3873ZM16.9877 14.11C16.9877 13.4152 17.5682 12.8331 18.3077 12.8331V11.9331C17.0923 11.9331 16.0877 12.8973 16.0877 14.11H16.9877ZM18.3077 12.8331C19.047 12.8331 19.6271 13.415 19.6271 14.11H20.5271C20.5271 12.8974 19.5233 11.9331 18.3077 11.9331V12.8331ZM14.9994 18.7244C14.9994 19.4193 14.4189 20.0014 13.6794 20.0014V20.9014C14.8949 20.9014 15.8994 19.9371 15.8994 18.7244H14.9994ZM13.6794 20.0014C12.9401 20.0014 12.3597 19.4194 12.3597 18.7244H11.4597C11.4597 19.9371 12.4639 20.9014 13.6794 20.9014V20.0014ZM12.3597 18.7244C12.3597 18.0293 12.9402 17.4473 13.6794 17.4473V16.5473C12.4639 16.5473 11.4597 17.5118 11.4597 18.7244H12.3597ZM13.6794 17.4473C14.4188 17.4473 14.9994 18.0294 14.9994 18.7244H15.8994C15.8994 17.5117 14.8949 16.5473 13.6794 16.5473V17.4473Z" fill="#96A0B1"/>
</svg>
