<svg width="337" height="104" viewBox="0 0 337 104" fill="none" xmlns="http://www.w3.org/2000/svg">
<rect x="0.75" y="0.75" width="335.5" height="102.5" rx="4.25" fill="white"/>
<rect x="0.75" y="0.75" width="335.5" height="102.5" rx="4.25" stroke="#525A6A" stroke-width="0.5"/>
<line x1="1" y1="34.75" x2="335" y2="34.75" stroke="#525A6A" stroke-width="0.5"/>
<line x1="142.25" y1="1" x2="142.25" y2="103" stroke="#525A6A" stroke-width="0.5"/>
<line x1="1" y1="68.75" x2="335" y2="68.75" stroke="#525A6A" stroke-width="0.5"/>
<path d="M25.7099 13.8287C25.7099 14.3867 25.6961 14.8867 25.6685 15.3287C25.6409 15.768 25.5718 16.2597 25.4613 16.8039H26.9116V17.558H17.4309V16.8039H24.5373C24.6312 16.3481 24.6989 15.9019 24.7403 15.4655L18.5 15.7348L18.384 14.9972L24.7859 14.8066C24.7942 14.5746 24.7983 14.2486 24.7983 13.8287V13.7956H18.6326V13.0414H25.7099V13.8287ZM18.5414 18.5608H25.7845V20.9724H19.4862V22.0746H26.1575V22.8122H18.5663V20.268H24.8729V19.2818H18.5414V18.5608ZM31.4451 17.3094H28.4368V19.6796C29.1081 19.6768 29.7324 19.6561 30.3098 19.6174C30.8871 19.576 31.4893 19.5028 32.1164 19.3978L32.1993 20.1519C31.517 20.2707 30.8747 20.3508 30.2725 20.3923C29.6703 20.4309 28.9893 20.453 28.2297 20.4586H27.5418V16.547H30.5584V14.442H27.5252V13.6713H31.4451V17.3094ZM32.8374 12.768H33.691V16.6547H35.2158V12.5359H36.0943V22.953H35.2158V17.4171H33.691V22.4061H32.8374V12.768ZM42.161 14.0691C42.161 14.6381 42.3516 15.1865 42.7328 15.7141C43.114 16.2417 43.603 16.6892 44.1996 17.0566C44.7963 17.424 45.4013 17.6657 46.0146 17.7818L45.5836 18.5525C45.0505 18.4282 44.527 18.2251 44.0132 17.9434C43.4994 17.6616 43.0367 17.3149 42.6251 16.9033C42.2162 16.489 41.9027 16.0345 41.6845 15.5401C41.4662 16.0318 41.1527 16.4848 40.7438 16.8992C40.335 17.3108 39.8723 17.6588 39.3557 17.9434C38.8419 18.2251 38.3184 18.4282 37.7853 18.5525L37.3626 17.7818C37.9759 17.663 38.5781 17.4213 39.1693 17.0566C39.7632 16.6892 40.2494 16.2431 40.6278 15.7182C41.0063 15.1906 41.1969 14.6409 41.1996 14.0691V13.2652H42.161V14.0691ZM36.9648 20.7652H46.5035V21.5359H36.9648V20.7652ZM52.8521 15.337C52.8493 15.953 52.975 16.5649 53.2291 17.1727C53.4833 17.7804 53.8258 18.3204 54.2568 18.7928C54.6905 19.2624 55.1615 19.6133 55.6698 19.8453L55.1062 20.5746C54.714 20.3812 54.3424 20.1215 53.9916 19.7956C53.6407 19.4669 53.3286 19.087 53.0551 18.6561C52.7816 18.2251 52.5634 17.7652 52.4004 17.2762C52.2402 17.7956 52.0233 18.2845 51.7499 18.7431C51.4791 19.1989 51.1656 19.6022 50.8093 19.953C50.4529 20.3039 50.0731 20.5801 49.6698 20.7818L49.0896 20.011C49.6035 19.7735 50.0772 19.4116 50.5109 18.9254C50.9446 18.4365 51.2885 17.8771 51.5427 17.2472C51.7996 16.6174 51.9294 15.9807 51.9322 15.337V13.4392H52.8521V15.337ZM56.8134 12.5359H57.7333V22.9696H56.8134V12.5359ZM62.4491 14.4669C62.4491 14.9227 62.5555 15.3619 62.7682 15.7845C62.9809 16.2044 63.2806 16.5773 63.6674 16.9033C64.0541 17.2265 64.5016 17.4751 65.0099 17.6492L64.5375 18.3619C63.9491 18.1547 63.4353 17.8481 62.9961 17.442C62.5569 17.0331 62.2254 16.5594 62.0016 16.0207C61.7779 16.6091 61.4367 17.1257 60.9781 17.5704C60.5223 18.0124 59.9878 18.3453 59.3745 18.5691L58.8773 17.8564C59.3966 17.6713 59.8566 17.4075 60.2571 17.0649C60.6605 16.7224 60.974 16.326 61.1978 15.8757C61.4215 15.4254 61.5348 14.9558 61.5375 14.4669V14.0193H59.1591V13.2652H64.7861V14.0193H62.4491V14.4669ZM60.2447 19.3646H67.0652V22.953H66.1453V20.1188H60.2447V19.3646ZM66.1453 12.5359H67.0652V15.2873H68.6315V16.0746H67.0652V18.8094H66.1453V12.5359ZM71.2673 19.3978L75.0877 13.5138H76.3806V19.3398H77.5739V20.268H76.3806V22H75.3778V20.268H71.2673V19.3978ZM75.3778 19.3398V14.8481H75.2784L72.4027 19.2735V19.3398H75.3778ZM81.2053 22.116C80.6169 22.116 80.0934 22.0152 79.6349 21.8135C79.1763 21.6119 78.82 21.3315 78.5658 20.9724C78.3117 20.6105 78.186 20.2017 78.1887 19.7459C78.186 19.3895 78.2606 19.0566 78.4125 18.7472C78.5644 18.4351 78.7716 18.1782 79.034 17.9765C79.2992 17.7721 79.5921 17.6436 79.9125 17.5912V17.5497C79.6362 17.4834 79.3918 17.3591 79.1791 17.1768C78.9664 16.9945 78.802 16.7707 78.686 16.5055C78.57 16.2403 78.5119 15.9558 78.5119 15.6519C78.5119 15.2238 78.628 14.8384 78.86 14.4959C79.0921 14.1533 79.4125 13.8854 79.8213 13.692C80.2329 13.4959 80.6943 13.3978 81.2053 13.3978C81.7136 13.3978 82.1708 13.4959 82.5769 13.692C82.9857 13.8854 83.3061 14.1533 83.5382 14.4959C83.7702 14.8384 83.8876 15.2238 83.8904 15.6519C83.8876 15.9558 83.8269 16.2403 83.7081 16.5055C83.5921 16.7707 83.4277 16.9945 83.215 17.1768C83.005 17.3591 82.7633 17.4834 82.4898 17.5497V17.5912C82.8075 17.6436 83.0976 17.7721 83.36 17.9765C83.6252 18.1782 83.8338 18.4351 83.9857 18.7472C84.1404 19.0566 84.2191 19.3895 84.2219 19.7459C84.2191 20.2017 84.0893 20.6105 83.8324 20.9724C83.5755 21.3315 83.2177 21.6119 82.7592 21.8135C82.3034 22.0152 81.7854 22.116 81.2053 22.116ZM79.2412 19.6878C79.2357 19.9862 79.3117 20.2486 79.4691 20.4751C79.6266 20.6989 79.8545 20.8743 80.1528 21.0014C80.4512 21.1257 80.802 21.1878 81.2053 21.1878C81.6031 21.1878 81.9498 21.1257 82.2454 21.0014C82.5409 20.8743 82.7688 20.6989 82.9291 20.4751C83.0893 20.2486 83.1694 19.9862 83.1694 19.6878C83.1694 19.3785 83.0838 19.1008 82.9125 18.855C82.744 18.6091 82.5106 18.4157 82.2122 18.2749C81.9139 18.134 81.5782 18.0635 81.2053 18.0635C80.8296 18.0635 80.4912 18.134 80.1901 18.2749C79.889 18.4157 79.6542 18.6105 79.4857 18.8591C79.3172 19.105 79.2357 19.3812 79.2412 19.6878ZM79.5396 15.7265C79.5396 16.011 79.61 16.2624 79.7509 16.4807C79.8918 16.6989 80.0879 16.8688 80.3393 16.9903C80.5934 17.1091 80.8821 17.1685 81.2053 17.1685C81.523 17.1685 81.8075 17.1091 82.0589 16.9903C82.3103 16.8688 82.5064 16.6989 82.6473 16.4807C82.7909 16.2597 82.8628 16.0083 82.8628 15.7265C82.8628 15.4475 82.7923 15.2017 82.6514 14.989C82.5133 14.7735 82.3186 14.6064 82.0672 14.4876C81.8186 14.3688 81.5313 14.3094 81.2053 14.3094C80.8738 14.3094 80.581 14.3688 80.3269 14.4876C80.0755 14.6064 79.8807 14.7735 79.7426 14.989C79.6072 15.2017 79.5396 15.4475 79.5396 15.7265ZM88.3716 15.337C88.3688 15.953 88.4945 16.5649 88.7487 17.1727C89.0028 17.7804 89.3454 18.3204 89.7763 18.7928C90.21 19.2624 90.681 19.6133 91.1893 19.8453L90.6257 20.5746C90.2335 20.3812 89.8619 20.1215 89.5111 19.7956C89.1603 19.4669 88.8481 19.087 88.5746 18.6561C88.3012 18.2251 88.0829 17.7652 87.9199 17.2762C87.7597 17.7956 87.5429 18.2845 87.2694 18.7431C86.9987 19.1989 86.6851 19.6022 86.3288 19.953C85.9724 20.3039 85.5926 20.5801 85.1893 20.7818L84.6092 20.011C85.123 19.7735 85.5967 19.4116 86.0304 18.9254C86.4641 18.4365 86.8081 17.8771 87.0622 17.2472C87.3191 16.6174 87.4489 15.9807 87.4517 15.337V13.4392H88.3716V15.337ZM92.3329 12.5359H93.2528V22.9696H92.3329V12.5359ZM102.585 15.7017H104.151V16.4807H102.585V20.1602H101.657V12.5359H102.585V15.7017ZM94.4549 18.2127C95.2891 17.953 96.0184 17.6202 96.6427 17.2141C97.267 16.8052 97.7615 16.3384 98.1261 15.8135C98.4908 15.2859 98.7049 14.7182 98.7684 14.1105H94.8858V13.3398H99.767C99.767 14.221 99.5681 15.029 99.1703 15.7638C98.7725 16.4959 98.2049 17.1312 97.4673 17.6699C96.7325 18.2086 95.8609 18.6354 94.8526 18.9503L94.4549 18.2127ZM96.0543 19.3812H96.9742V21.9586H103.057V22.721H96.0543V19.3812ZM115.256 20.1851H114.337V16.1823H112.19V15.4282H114.337V12.5442H115.256V20.1851ZM106.663 18.0967C107.174 17.9171 107.629 17.6547 108.03 17.3094C108.433 16.9613 108.748 16.5608 108.975 16.1077C109.201 15.6519 109.314 15.1796 109.314 14.6906V14.1519H106.961V13.3895H112.571V14.1519H110.243V14.6906C110.243 15.1326 110.35 15.5649 110.566 15.9876C110.784 16.4102 111.087 16.7859 111.473 17.1146C111.863 17.4434 112.309 17.6934 112.812 17.8646L112.331 18.6022C111.748 18.3923 111.237 18.0801 110.798 17.6657C110.359 17.2514 110.024 16.7721 109.795 16.2279C109.569 16.8301 109.225 17.3605 108.763 17.8191C108.302 18.2749 107.762 18.6188 107.143 18.8508L106.663 18.0967ZM108.569 19.4972H109.488V21.9586H115.547V22.721H108.569V19.4972Z" fill="#525A6A"/>
<path d="M167.058 20.1851H166.138V16.1823H163.992V15.4282H166.138V12.5442H167.058V20.1851ZM158.464 18.0967C158.975 17.9171 159.431 17.6547 159.831 17.3094C160.235 16.9613 160.55 16.5608 160.776 16.1077C161.003 15.6519 161.116 15.1796 161.116 14.6906V14.1519H158.762V13.3895H164.373V14.1519H162.044V14.6906C162.044 15.1326 162.152 15.5649 162.367 15.9876C162.586 16.4102 162.888 16.7859 163.275 17.1146C163.664 17.4434 164.11 17.6934 164.613 17.8646L164.133 18.6022C163.55 18.3923 163.039 18.0801 162.599 17.6657C162.16 17.2514 161.826 16.7721 161.597 16.2279C161.37 16.8301 161.026 17.3605 160.565 17.8191C160.104 18.2749 159.564 18.6188 158.945 18.8508L158.464 18.0967ZM160.37 19.4972H161.29V21.9586H167.348V22.721H160.37V19.4972ZM170.688 13.1906C171.141 13.1906 171.549 13.2956 171.911 13.5055C172.275 13.7127 172.56 14.0041 172.764 14.3798C172.971 14.7528 173.075 15.1768 173.075 15.6519C173.075 16.1271 172.971 16.5497 172.764 16.9199C172.56 17.2901 172.277 17.5773 171.915 17.7818C171.553 17.9862 171.144 18.0884 170.688 18.0884C170.227 18.0884 169.815 17.9862 169.453 17.7818C169.092 17.5773 168.81 17.2901 168.608 16.9199C168.406 16.5497 168.307 16.1271 168.31 15.6519C168.307 15.174 168.406 14.7486 168.608 14.3757C168.813 14.0028 169.096 13.7127 169.458 13.5055C169.819 13.2956 170.23 13.1906 170.688 13.1906ZM169.138 15.6519C169.136 15.9669 169.201 16.2514 169.333 16.5055C169.469 16.7597 169.654 16.9586 169.888 17.1022C170.126 17.2431 170.393 17.3122 170.688 17.3094C170.981 17.3122 171.245 17.2431 171.48 17.1022C171.714 16.9586 171.898 16.761 172.031 16.5097C172.166 16.2555 172.235 15.9696 172.238 15.6519C172.235 15.3343 172.166 15.0483 172.031 14.7942C171.898 14.5401 171.714 14.3425 171.48 14.2017C171.245 14.058 170.981 13.9862 170.688 13.9862C170.393 13.9862 170.126 14.058 169.888 14.2017C169.654 14.3425 169.469 14.5401 169.333 14.7942C169.201 15.0483 169.136 15.3343 169.138 15.6519ZM170.017 19.3232H177.036V22.953H176.133V20.0691H170.017V19.3232ZM173.912 12.7431H174.782V15.2293H176.166V12.5442H177.036V18.7431H176.166V15.9834H174.782V18.6685H173.912V12.7431ZM188.506 16.1823H190.064V16.9613H188.506V20.6823H187.587V12.5359H188.506V16.1823ZM180.327 18.7265C181.379 18.7265 182.321 18.7113 183.153 18.6809V17.8936C182.747 17.8522 182.393 17.7638 182.092 17.6285C181.794 17.4903 181.563 17.3094 181.4 17.0856C181.24 16.8619 181.161 16.605 181.164 16.3149C181.161 15.9862 181.261 15.7017 181.462 15.4613C181.664 15.2182 181.948 15.0331 182.316 14.9061C182.686 14.7762 183.114 14.7127 183.6 14.7155C184.089 14.7127 184.517 14.7749 184.885 14.9019C185.252 15.029 185.537 15.2141 185.738 15.4572C185.94 15.6975 186.042 15.9834 186.045 16.3149C186.042 16.605 185.961 16.8619 185.801 17.0856C185.64 17.3066 185.412 17.4862 185.117 17.6243C184.821 17.7597 184.473 17.8481 184.073 17.8895V18.6395C185.136 18.5815 186.092 18.4862 186.94 18.3536L187.015 19.0166C186.327 19.1436 185.602 19.2403 184.839 19.3066C184.077 19.3729 183.359 19.4171 182.685 19.4392C182.013 19.4586 181.263 19.4724 180.435 19.4807L180.327 18.7265ZM180.592 13.5635H183.153V12.5028H184.073V13.5635H186.625V14.2597H180.592V13.5635ZM181.893 20.1354H182.813V21.9586H188.888V22.721H181.893V20.1354ZM182.042 16.3149C182.04 16.5028 182.1 16.6685 182.225 16.8122C182.352 16.953 182.533 17.0622 182.767 17.1395C183.005 17.2141 183.283 17.2514 183.6 17.2514C183.918 17.2514 184.194 17.2141 184.429 17.1395C184.667 17.0622 184.849 16.953 184.976 16.8122C185.103 16.6685 185.167 16.5028 185.167 16.3149C185.167 16.1215 185.103 15.953 184.976 15.8094C184.849 15.6657 184.667 15.5552 184.429 15.4779C184.194 15.4006 183.918 15.3619 183.6 15.3619C183.283 15.3619 183.005 15.4006 182.767 15.4779C182.533 15.5552 182.352 15.6657 182.225 15.8094C182.1 15.953 182.04 16.1215 182.042 16.3149ZM192.327 13.7044H197.482V12.7017H198.402V16.1326H191.407V12.7017H192.327V13.7044ZM190.148 16.9945H199.645V17.7569H195.344V18.7762H198.418V21.0884H192.228V22.1077H198.733V22.837H191.324V20.4088H197.515V19.4807H191.3V18.7762H194.424V17.7569H190.148V16.9945ZM197.482 15.4199V14.4006H192.327V15.4199H197.482Z" fill="#525A6A"/>
<path d="M167.058 50.8646H166.138V49.7707H163.354V49.0414H166.138V47.7901H163.507C163.186 48.6022 162.635 49.2873 161.854 49.8453C161.072 50.4006 160.097 50.8177 158.928 51.0967L158.597 50.3343C159.445 50.1381 160.174 49.8715 160.785 49.5345C161.395 49.1975 161.87 48.8011 162.21 48.3453C162.552 47.8867 162.751 47.3785 162.807 46.8204H159.127V46.058H163.826C163.826 46.4061 163.793 46.7376 163.727 47.0525H166.138V45.5359H167.058V50.8646ZM160.304 51.337H167.058V53.8729H161.24V55.0994H167.414V55.8536H160.329V53.1685H166.138V52.0829H160.304V51.337ZM177.094 55.953H176.216V45.5359H177.094V55.953ZM168.069 53.1768C168.542 52.8923 168.951 52.5055 169.296 52.0166C169.644 51.5249 169.909 50.9751 170.092 50.3674C170.274 49.7597 170.365 49.1381 170.365 48.5028V47.5249H168.351V46.7624H173.158V47.5249H171.252V48.5028C171.252 49.1105 171.34 49.703 171.517 50.2804C171.694 50.855 171.951 51.3743 172.288 51.8384C172.627 52.2997 173.031 52.6657 173.498 52.9365L172.942 53.616C172.44 53.3149 172.007 52.8992 171.645 52.3688C171.284 51.8356 171.009 51.2307 170.821 50.5539C170.63 51.2859 170.348 51.9406 169.976 52.518C169.603 53.0953 169.161 53.5442 168.65 53.8646L168.069 53.1768ZM172.362 49.2901H174.119V45.7845H174.989V55.4061H174.119V50.0442H172.362V49.2901ZM188.664 46.8619C188.664 47.232 188.658 47.5566 188.647 47.8356C188.639 48.1146 188.614 48.4323 188.573 48.7887C188.534 49.145 188.47 49.5249 188.382 49.9282H189.915V50.6906H180.377V49.9282H187.458C187.549 49.5221 187.616 49.1409 187.657 48.7845C187.701 48.4282 187.727 48.1119 187.736 47.8356C187.747 47.5594 187.752 47.2348 187.752 46.8619V46.8536H181.587V46.0912H188.664V46.8619ZM181.553 52.1243H188.705V55.8122H181.553V52.1243ZM187.794 55.058V52.8536H182.457V55.058H187.794ZM192.642 46.1906C193.095 46.1906 193.503 46.2956 193.865 46.5055C194.229 46.7127 194.514 47.0041 194.718 47.3798C194.925 47.7528 195.029 48.1768 195.029 48.6519C195.029 49.1271 194.925 49.5497 194.718 49.9199C194.514 50.2901 194.231 50.5773 193.869 50.7818C193.507 50.9862 193.098 51.0884 192.642 51.0884C192.181 51.0884 191.769 50.9862 191.407 50.7818C191.045 50.5773 190.764 50.2901 190.562 49.9199C190.36 49.5497 190.261 49.1271 190.264 48.6519C190.261 48.174 190.36 47.7486 190.562 47.3757C190.766 47.0028 191.05 46.7127 191.411 46.5055C191.773 46.2956 192.184 46.1906 192.642 46.1906ZM191.092 48.6519C191.09 48.9669 191.155 49.2514 191.287 49.5055C191.423 49.7597 191.608 49.9586 191.842 50.1022C192.08 50.2431 192.347 50.3122 192.642 50.3094C192.935 50.3122 193.199 50.2431 193.434 50.1022C193.668 49.9586 193.852 49.761 193.985 49.5097C194.12 49.2555 194.189 48.9696 194.192 48.6519C194.189 48.3343 194.12 48.0483 193.985 47.7942C193.852 47.5401 193.668 47.3425 193.434 47.2017C193.199 47.058 192.935 46.9862 192.642 46.9862C192.347 46.9862 192.08 47.058 191.842 47.2017C191.608 47.3425 191.423 47.5401 191.287 47.7942C191.155 48.0483 191.09 48.3343 191.092 48.6519ZM191.971 52.3232H198.99V55.953H198.087V53.0691H191.971V52.3232ZM195.866 45.7431H196.736V48.2293H198.12V45.5442H198.99V51.7431H198.12V48.9834H196.736V51.6685H195.866V45.7431ZM203.325 46.2983C203.866 46.2983 204.35 46.4019 204.775 46.6091C205.201 46.8135 205.532 47.1008 205.77 47.471C206.01 47.8412 206.131 48.2652 206.134 48.7431C206.131 49.221 206.01 49.645 205.77 50.0152C205.532 50.3854 205.201 50.674 204.775 50.8812C204.35 51.0856 203.866 51.1878 203.325 51.1878C202.783 51.1878 202.299 51.0856 201.87 50.8812C201.442 50.674 201.108 50.3854 200.868 50.0152C200.63 49.6423 200.513 49.2182 200.515 48.7431C200.513 48.268 200.63 47.8453 200.868 47.4751C201.108 47.1022 201.442 46.8135 201.87 46.6091C202.299 46.4019 202.783 46.2983 203.325 46.2983ZM200.594 52.8867C201.757 52.8867 202.859 52.8633 203.901 52.8163C204.942 52.7693 205.927 52.6768 206.855 52.5387L206.93 53.2182C206.195 53.3564 205.431 53.4586 204.638 53.5249C203.848 53.5912 203.109 53.6326 202.422 53.6492C201.736 53.6657 200.963 53.674 200.101 53.674L199.977 52.8867H200.594ZM201.419 48.7431C201.416 49.0608 201.496 49.3453 201.659 49.5967C201.822 49.8453 202.049 50.0387 202.339 50.1768C202.629 50.3149 202.957 50.384 203.325 50.384C203.689 50.384 204.015 50.3149 204.303 50.1768C204.593 50.0387 204.819 49.8453 204.982 49.5967C205.148 49.3453 205.231 49.0608 205.231 48.7431C205.231 48.4254 205.148 48.1423 204.982 47.8936C204.819 47.6423 204.593 47.4475 204.303 47.3094C204.015 47.1713 203.689 47.1022 203.325 47.1022C202.957 47.1022 202.629 47.1713 202.339 47.3094C202.049 47.4475 201.822 47.6423 201.659 47.8936C201.496 48.1423 201.416 48.4254 201.419 48.7431ZM207.543 45.5359H208.463V55.9696H207.543V45.5359ZM215.242 55.116C214.737 55.116 214.278 55.0193 213.867 54.826C213.455 54.6326 213.126 54.366 212.881 54.0262C212.637 53.6837 212.505 53.2983 212.483 52.8702H213.51C213.535 53.1188 213.626 53.3439 213.784 53.5456C213.944 53.7445 214.151 53.9019 214.405 54.018C214.662 54.1312 214.941 54.1878 215.242 54.1878C215.604 54.1878 215.929 54.1064 216.216 53.9434C216.506 53.7804 216.733 53.5566 216.896 53.2721C217.059 52.9876 217.14 52.6685 217.14 52.3149C217.14 51.953 217.055 51.6271 216.883 51.337C216.715 51.0442 216.48 50.8149 216.179 50.6492C215.881 50.4807 215.544 50.395 215.168 50.3923C214.411 50.384 213.883 50.6381 213.585 51.1547H212.566L213.162 46.5138H217.762V47.4503H214.041L213.726 49.9365H213.817C214.008 49.7873 214.238 49.6685 214.509 49.5801C214.782 49.4917 215.066 49.4475 215.358 49.4475C215.892 49.4475 216.371 49.5704 216.796 49.8163C217.224 50.0594 217.56 50.3978 217.803 50.8315C218.046 51.2624 218.168 51.7486 218.168 52.2901C218.168 52.8287 218.042 53.3135 217.791 53.7445C217.539 54.1727 217.191 54.5083 216.747 54.7514C216.302 54.9945 215.8 55.116 215.242 55.116ZM221.811 55.116C221.187 55.116 220.652 54.9461 220.207 54.6064C219.765 54.2638 219.427 53.7666 219.192 53.1146C218.96 52.4627 218.844 51.6768 218.844 50.7569C218.844 49.8453 218.961 49.0635 219.196 48.4116C219.431 47.7569 219.771 47.2583 220.216 46.9157C220.66 46.5704 221.192 46.3978 221.811 46.3978C222.43 46.3978 222.961 46.5704 223.406 46.9157C223.851 47.2583 224.191 47.7569 224.426 48.4116C224.66 49.0635 224.778 49.8453 224.778 50.7569C224.778 51.6768 224.66 52.4627 224.426 53.1146C224.193 53.7666 223.855 54.2638 223.41 54.6064C222.968 54.9461 222.435 55.116 221.811 55.116ZM219.872 50.7569C219.872 51.4834 219.948 52.1036 220.1 52.6174C220.251 53.1285 220.472 53.5166 220.763 53.7818C221.053 54.047 221.402 54.1796 221.811 54.1796C222.22 54.1796 222.569 54.047 222.859 53.7818C223.149 53.5166 223.37 53.1285 223.522 52.6174C223.674 52.1036 223.75 51.4834 223.75 50.7569C223.75 50.0304 223.673 49.4102 223.518 48.8964C223.366 48.3798 223.145 47.9876 222.855 47.7196C222.565 47.4517 222.217 47.3177 221.811 47.3177C221.405 47.3177 221.057 47.4517 220.767 47.7196C220.477 47.9876 220.254 48.3798 220.1 48.8964C219.948 49.4102 219.872 50.0304 219.872 50.7569ZM229.909 52.9613C229.909 52.6464 229.974 52.3591 230.104 52.0994C230.236 51.837 230.428 51.6298 230.68 51.4779C230.931 51.3232 231.229 51.2459 231.575 51.2459C231.923 51.2459 232.221 51.3232 232.47 51.4779C232.718 51.6298 232.906 51.837 233.033 52.0994C233.16 52.3591 233.224 52.6464 233.224 52.9613V53.4088C233.224 53.7238 233.159 54.0124 233.029 54.2749C232.899 54.5345 232.71 54.7417 232.462 54.8964C232.213 55.0483 231.917 55.1243 231.575 55.1243C231.224 55.1243 230.923 55.0483 230.671 54.8964C230.423 54.7417 230.234 54.5345 230.104 54.2749C229.974 54.0124 229.909 53.7238 229.909 53.4088V52.9613ZM225.674 48.105C225.674 47.7901 225.741 47.5028 225.873 47.2431C226.006 46.9834 226.198 46.7762 226.449 46.6215C226.7 46.4669 226.997 46.3895 227.34 46.3895C227.691 46.3895 227.989 46.4669 228.235 46.6215C228.484 46.7735 228.671 46.9793 228.799 47.239C228.926 47.4986 228.989 47.7873 228.989 48.105V48.5525C228.989 48.8674 228.924 49.1561 228.794 49.4185C228.667 49.6782 228.479 49.8854 228.231 50.0401C227.982 50.192 227.685 50.268 227.34 50.268C226.989 50.268 226.688 50.192 226.437 50.0401C226.188 49.8854 225.999 49.6782 225.869 49.4185C225.739 49.1561 225.674 48.8674 225.674 48.5525V48.105ZM231.84 46.5138H232.785L226.95 55H226.006L231.84 46.5138ZM226.536 48.5525C226.536 48.8343 226.601 49.0691 226.731 49.2569C226.863 49.4448 227.067 49.5387 227.34 49.5387C227.611 49.5387 227.81 49.4448 227.937 49.2569C228.064 49.0691 228.127 48.8343 228.127 48.5525V48.105C228.127 47.8204 228.065 47.5856 227.941 47.4006C227.817 47.2127 227.616 47.1188 227.34 47.1188C227.072 47.1188 226.87 47.2141 226.735 47.4047C226.602 47.5925 226.536 47.826 226.536 48.105V48.5525ZM230.771 53.4088C230.771 53.6906 230.834 53.9254 230.962 54.1133C231.091 54.3011 231.296 54.395 231.575 54.395C231.843 54.395 232.04 54.3011 232.167 54.1133C232.297 53.9227 232.362 53.6878 232.362 53.4088V52.9613C232.362 52.6768 232.299 52.442 232.171 52.2569C232.047 52.0691 231.848 51.9751 231.575 51.9751C231.304 51.9751 231.102 52.0704 230.97 52.261C230.837 52.4489 230.771 52.6823 230.771 52.9613V53.4088ZM244.48 49.1823H246.038V49.9613H244.48V53.6823H243.56V45.5359H244.48V49.1823ZM236.3 51.7265C237.353 51.7265 238.295 51.7113 239.126 51.6809V50.8936C238.72 50.8522 238.367 50.7638 238.065 50.6285C237.767 50.4903 237.536 50.3094 237.373 50.0856C237.213 49.8619 237.135 49.605 237.137 49.3149C237.135 48.9862 237.234 48.7017 237.436 48.4613C237.637 48.2182 237.922 48.0331 238.289 47.9061C238.659 47.7762 239.088 47.7127 239.574 47.7155C240.063 47.7127 240.491 47.7749 240.858 47.9019C241.226 48.029 241.51 48.2141 241.712 48.4572C241.914 48.6975 242.016 48.9834 242.019 49.3149C242.016 49.605 241.934 49.8619 241.774 50.0856C241.614 50.3066 241.386 50.4862 241.09 50.6243C240.795 50.7597 240.447 50.8481 240.046 50.8895V51.6395C241.11 51.5815 242.065 51.4862 242.914 51.3536L242.988 52.0166C242.3 52.1436 241.575 52.2403 240.813 52.3066C240.05 52.3729 239.332 52.4171 238.658 52.4392C237.987 52.4586 237.237 52.4724 236.408 52.4807L236.3 51.7265ZM236.565 46.5635H239.126V45.5028H240.046V46.5635H242.599V47.2597H236.565V46.5635ZM237.867 53.1354H238.786V54.9586H244.861V55.721H237.867V53.1354ZM238.016 49.3149C238.013 49.5028 238.074 49.6685 238.198 49.8122C238.325 49.953 238.506 50.0622 238.741 50.1395C238.978 50.2141 239.256 50.2514 239.574 50.2514C239.891 50.2514 240.168 50.2141 240.402 50.1395C240.64 50.0622 240.822 49.953 240.949 49.8122C241.077 49.6685 241.14 49.5028 241.14 49.3149C241.14 49.1215 241.077 48.953 240.949 48.8094C240.822 48.6657 240.64 48.5552 240.402 48.4779C240.168 48.4006 239.891 48.3619 239.574 48.3619C239.256 48.3619 238.978 48.4006 238.741 48.4779C238.506 48.5552 238.325 48.6657 238.198 48.8094C238.074 48.953 238.013 49.1215 238.016 49.3149ZM248.301 46.7044H253.455V45.7017H254.375V49.1326H247.381V45.7017H248.301V46.7044ZM246.121 49.9945H255.618V50.7569H251.317V51.7762H254.392V54.0884H248.201V55.1077H254.707V55.837H247.298V53.4088H253.488V52.4807H247.273V51.7762H250.397V50.7569H246.121V49.9945ZM253.455 48.4199V47.4006H248.301V48.4199H253.455Z" fill="#525A6A"/>
<path d="M167.552 84.1823H169.11V84.9613H167.552V88.6823H166.633V80.5359H167.552V84.1823ZM159.373 86.7265C160.425 86.7265 161.367 86.7113 162.199 86.6809V85.8936C161.793 85.8522 161.439 85.7638 161.138 85.6285C160.84 85.4903 160.609 85.3094 160.446 85.0856C160.286 84.8619 160.207 84.605 160.21 84.3149C160.207 83.9862 160.307 83.7017 160.508 83.4613C160.71 83.2182 160.994 83.0331 161.362 82.9061C161.732 82.7762 162.16 82.7127 162.646 82.7155C163.135 82.7127 163.564 82.7749 163.931 82.9019C164.298 83.029 164.583 83.2141 164.785 83.4572C164.986 83.6975 165.088 83.9834 165.091 84.3149C165.088 84.605 165.007 84.8619 164.847 85.0856C164.686 85.3066 164.459 85.4862 164.163 85.6243C163.867 85.7597 163.519 85.8481 163.119 85.8895V86.6395C164.182 86.5815 165.138 86.4862 165.986 86.3536L166.061 87.0166C165.373 87.1436 164.648 87.2403 163.885 87.3066C163.123 87.3729 162.405 87.4171 161.731 87.4392C161.059 87.4586 160.309 87.4724 159.481 87.4807L159.373 86.7265ZM159.638 81.5635H162.199V80.5028H163.119V81.5635H165.671V82.2597H159.638V81.5635ZM160.939 88.1354H161.859V89.9586H167.934V90.721H160.939V88.1354ZM161.088 84.3149C161.086 84.5028 161.146 84.6685 161.271 84.8122C161.398 84.953 161.579 85.0622 161.814 85.1395C162.051 85.2141 162.329 85.2514 162.646 85.2514C162.964 85.2514 163.24 85.2141 163.475 85.1395C163.713 85.0622 163.895 84.953 164.022 84.8122C164.149 84.6685 164.213 84.5028 164.213 84.3149C164.213 84.1215 164.149 83.953 164.022 83.8094C163.895 83.6657 163.713 83.5552 163.475 83.4779C163.24 83.4006 162.964 83.3619 162.646 83.3619C162.329 83.3619 162.051 83.4006 161.814 83.4779C161.579 83.5552 161.398 83.6657 161.271 83.8094C161.146 83.953 161.086 84.1215 161.088 84.3149ZM171.373 81.7044H176.528V80.7017H177.448V84.1326H170.453V80.7017H171.373V81.7044ZM169.194 84.9945H178.691V85.7569H174.39V86.7762H177.464V89.0884H171.274V90.1077H177.779V90.837H170.371V88.4088H176.561V87.4807H170.346V86.7762H173.47V85.7569H169.194V84.9945ZM176.528 83.4199V82.4006H171.373V83.4199H176.528ZM183.556 81.7044H188.711V80.7017H189.631V84.1326H182.636V80.7017H183.556V81.7044ZM181.377 84.9945H190.874V85.7569H186.573V86.7762H189.647V89.0884H183.457V90.1077H189.962V90.837H182.553V88.4088H188.744V87.4807H182.528V86.7762H185.653V85.7569H181.377V84.9945ZM188.711 83.4199V82.4006H183.556V83.4199H188.711ZM199.211 84.7707H200.902V85.5497H199.211V90.9448H198.291V80.5359H199.211V84.7707ZM191.214 88.2431C192.554 87.5773 193.59 86.7528 194.322 85.7693C195.056 84.7831 195.476 83.6685 195.581 82.4254H191.703V81.6547H196.518C196.515 82.6685 196.347 83.6257 196.012 84.5262C195.681 85.4268 195.159 86.2555 194.446 87.0124C193.736 87.7693 192.83 88.4199 191.728 88.9641L191.214 88.2431Z" fill="#525A6A"/>
<path d="M25.7099 47.8287C25.7099 48.3867 25.6961 48.8867 25.6685 49.3287C25.6409 49.768 25.5718 50.2597 25.4613 50.8039H26.9116V51.558H17.4309V50.8039H24.5373C24.6312 50.3481 24.6989 49.9019 24.7403 49.4655L18.5 49.7348L18.384 48.9972L24.7859 48.8066C24.7942 48.5746 24.7983 48.2486 24.7983 47.8287V47.7956H18.6326V47.0414H25.7099V47.8287ZM18.5414 52.5608H25.7845V54.9724H19.4862V56.0746H26.1575V56.8122H18.5663V54.268H24.8729V53.2818H18.5414V52.5608ZM31.4451 51.3094H28.4368V53.6796C29.1081 53.6768 29.7324 53.6561 30.3098 53.6174C30.8871 53.576 31.4893 53.5028 32.1164 53.3978L32.1993 54.1519C31.517 54.2707 30.8747 54.3508 30.2725 54.3923C29.6703 54.4309 28.9893 54.453 28.2297 54.4586H27.5418V50.547H30.5584V48.442H27.5252V47.6713H31.4451V51.3094ZM32.8374 46.768H33.691V50.6547H35.2158V46.5359H36.0943V56.953H35.2158V51.4171H33.691V56.4061H32.8374V46.768ZM42.161 48.0691C42.161 48.6381 42.3516 49.1865 42.7328 49.7141C43.114 50.2417 43.603 50.6892 44.1996 51.0566C44.7963 51.424 45.4013 51.6657 46.0146 51.7818L45.5836 52.5525C45.0505 52.4282 44.527 52.2251 44.0132 51.9434C43.4994 51.6616 43.0367 51.3149 42.6251 50.9033C42.2162 50.489 41.9027 50.0345 41.6845 49.5401C41.4662 50.0318 41.1527 50.4848 40.7438 50.8992C40.335 51.3108 39.8723 51.6588 39.3557 51.9434C38.8419 52.2251 38.3184 52.4282 37.7853 52.5525L37.3626 51.7818C37.9759 51.663 38.5781 51.4213 39.1693 51.0566C39.7632 50.6892 40.2494 50.2431 40.6278 49.7182C41.0063 49.1906 41.1969 48.6409 41.1996 48.0691V47.2652H42.161V48.0691ZM36.9648 54.7652H46.5035V55.5359H36.9648V54.7652ZM52.8521 49.337C52.8493 49.953 52.975 50.5649 53.2291 51.1727C53.4833 51.7804 53.8258 52.3204 54.2568 52.7928C54.6905 53.2624 55.1615 53.6133 55.6698 53.8453L55.1062 54.5746C54.714 54.3812 54.3424 54.1215 53.9916 53.7956C53.6407 53.4669 53.3286 53.087 53.0551 52.6561C52.7816 52.2251 52.5634 51.7652 52.4004 51.2762C52.2402 51.7956 52.0233 52.2845 51.7499 52.7431C51.4791 53.1989 51.1656 53.6022 50.8093 53.953C50.4529 54.3039 50.0731 54.5801 49.6698 54.7818L49.0896 54.011C49.6035 53.7735 50.0772 53.4116 50.5109 52.9254C50.9446 52.4365 51.2885 51.8771 51.5427 51.2472C51.7996 50.6174 51.9294 49.9807 51.9322 49.337V47.4392H52.8521V49.337ZM56.8134 46.5359H57.7333V56.9696H56.8134V46.5359ZM62.4491 48.4669C62.4491 48.9227 62.5555 49.3619 62.7682 49.7845C62.9809 50.2044 63.2806 50.5773 63.6674 50.9033C64.0541 51.2265 64.5016 51.4751 65.0099 51.6492L64.5375 52.3619C63.9491 52.1547 63.4353 51.8481 62.9961 51.442C62.5569 51.0331 62.2254 50.5594 62.0016 50.0207C61.7779 50.6091 61.4367 51.1257 60.9781 51.5704C60.5223 52.0124 59.9878 52.3453 59.3745 52.5691L58.8773 51.8564C59.3966 51.6713 59.8566 51.4075 60.2571 51.0649C60.6605 50.7224 60.974 50.326 61.1978 49.8757C61.4215 49.4254 61.5348 48.9558 61.5375 48.4669V48.0193H59.1591V47.2652H64.7861V48.0193H62.4491V48.4669ZM60.2447 53.3646H67.0652V56.953H66.1453V54.1188H60.2447V53.3646ZM66.1453 46.5359H67.0652V49.2873H68.6315V50.0746H67.0652V52.8094H66.1453V46.5359ZM71.4662 55.2293L74.3585 52.1796C74.7397 51.7735 75.0297 51.4475 75.2286 51.2017C75.4303 50.953 75.5836 50.7141 75.6886 50.4848C75.7935 50.2528 75.8474 50.011 75.8502 49.7597C75.8474 49.4724 75.7714 49.2196 75.6223 49.0014C75.4759 48.7831 75.2742 48.6146 75.0173 48.4959C74.7632 48.3771 74.4772 48.3177 74.1596 48.3177C73.8281 48.3177 73.5366 48.384 73.2853 48.5166C73.0366 48.6492 72.8447 48.8356 72.7093 49.076C72.5767 49.3163 72.5104 49.5939 72.5104 49.9088H71.5076C71.5049 49.4171 71.6195 48.982 71.8516 48.6036C72.0864 48.2224 72.4082 47.9268 72.817 47.7169C73.2259 47.5041 73.6844 47.3978 74.1927 47.3978C74.6955 47.3978 75.1471 47.5028 75.5477 47.7127C75.951 47.9199 76.2659 48.203 76.4924 48.5622C76.719 48.9213 76.8336 49.3204 76.8364 49.7597C76.8336 50.0829 76.7728 50.3923 76.654 50.6878C76.538 50.9807 76.3405 51.3066 76.0615 51.6657C75.7853 52.0249 75.3916 52.4669 74.8806 52.9917L72.9413 54.9972V55.0635H76.9855V56H71.4745L71.4662 55.2293ZM77.5228 53.3978L81.3432 47.5138H82.636V53.3398H83.8294V54.268H82.636V56H81.6333V54.268H77.5228V53.3978ZM81.6333 53.3398V48.8481H81.5338L78.6581 53.2735V53.3398H81.6333ZM87.9497 49.337C87.947 49.953 88.0727 50.5649 88.3268 51.1727C88.5809 51.7804 88.9235 52.3204 89.3544 52.7928C89.7881 53.2624 90.2591 53.6133 90.7674 53.8453L90.2039 54.5746C89.8116 54.3812 89.4401 54.1215 89.0892 53.7956C88.7384 53.4669 88.4262 53.087 88.1528 52.6561C87.8793 52.2251 87.6611 51.7652 87.4981 51.2762C87.3378 51.7956 87.121 52.2845 86.8475 52.7431C86.5768 53.1989 86.2633 53.6022 85.9069 53.953C85.5506 54.3039 85.1707 54.5801 84.7674 54.7818L84.1873 54.011C84.7011 53.7735 85.1749 53.4116 85.6086 52.9254C86.0423 52.4365 86.3862 51.8771 86.6403 51.2472C86.8972 50.6174 87.0271 49.9807 87.0298 49.337V47.4392H87.9497V49.337ZM91.9111 46.5359H92.8309V56.9696H91.9111V46.5359ZM102.163 49.7017H103.729V50.4807H102.163V54.1602H101.235V46.5359H102.163V49.7017ZM94.033 52.2127C94.8672 51.953 95.5965 51.6202 96.2208 51.2141C96.8451 50.8052 97.3396 50.3384 97.7042 49.8135C98.0689 49.2859 98.283 48.7182 98.3465 48.1105H94.4639V47.3398H99.3451C99.3451 48.221 99.1462 49.029 98.7484 49.7638C98.3507 50.4959 97.783 51.1312 97.0454 51.6699C96.3106 52.2086 95.4391 52.6354 94.4308 52.9503L94.033 52.2127ZM95.6324 53.3812H96.5523V55.9586H102.635V56.721H95.6324V53.3812ZM114.835 54.1851H113.915V50.1823H111.768V49.4282H113.915V46.5442H114.835V54.1851ZM106.241 52.0967C106.752 51.9171 107.208 51.6547 107.608 51.3094C108.011 50.9613 108.326 50.5608 108.553 50.1077C108.779 49.6519 108.893 49.1796 108.893 48.6906V48.1519H106.539V47.3895H112.149V48.1519H109.821V48.6906C109.821 49.1326 109.928 49.5649 110.144 49.9876C110.362 50.4102 110.665 50.7859 111.051 51.1146C111.441 51.4434 111.887 51.6934 112.39 51.8646L111.909 52.6022C111.326 52.3923 110.815 52.0801 110.376 51.6657C109.937 51.2514 109.603 50.7721 109.373 50.2279C109.147 50.8301 108.803 51.3605 108.341 51.8191C107.88 52.2749 107.34 52.6188 106.721 52.8508L106.241 52.0967ZM108.147 53.4972H109.067V55.9586H115.125V56.721H108.147V53.4972Z" fill="#525A6A"/>
<path d="M25.7099 81.8287C25.7099 82.3867 25.6961 82.8867 25.6685 83.3287C25.6409 83.768 25.5718 84.2597 25.4613 84.8039H26.9116V85.558H17.4309V84.8039H24.5373C24.6312 84.3481 24.6989 83.9019 24.7403 83.4655L18.5 83.7348L18.384 82.9972L24.7859 82.8066C24.7942 82.5746 24.7983 82.2486 24.7983 81.8287V81.7956H18.6326V81.0414H25.7099V81.8287ZM18.5414 86.5608H25.7845V88.9724H19.4862V90.0746H26.1575V90.8122H18.5663V88.268H24.8729V87.2818H18.5414V86.5608ZM31.4451 85.3094H28.4368V87.6796C29.1081 87.6768 29.7324 87.6561 30.3098 87.6174C30.8871 87.576 31.4893 87.5028 32.1164 87.3978L32.1993 88.1519C31.517 88.2707 30.8747 88.3508 30.2725 88.3923C29.6703 88.4309 28.9893 88.453 28.2297 88.4586H27.5418V84.547H30.5584V82.442H27.5252V81.6713H31.4451V85.3094ZM32.8374 80.768H33.691V84.6547H35.2158V80.5359H36.0943V90.953H35.2158V85.4171H33.691V90.4061H32.8374V80.768ZM42.161 82.0691C42.161 82.6381 42.3516 83.1865 42.7328 83.7141C43.114 84.2417 43.603 84.6892 44.1996 85.0566C44.7963 85.424 45.4013 85.6657 46.0146 85.7818L45.5836 86.5525C45.0505 86.4282 44.527 86.2251 44.0132 85.9434C43.4994 85.6616 43.0367 85.3149 42.6251 84.9033C42.2162 84.489 41.9027 84.0345 41.6845 83.5401C41.4662 84.0318 41.1527 84.4848 40.7438 84.8992C40.335 85.3108 39.8723 85.6588 39.3557 85.9434C38.8419 86.2251 38.3184 86.4282 37.7853 86.5525L37.3626 85.7818C37.9759 85.663 38.5781 85.4213 39.1693 85.0566C39.7632 84.6892 40.2494 84.2431 40.6278 83.7182C41.0063 83.1906 41.1969 82.6409 41.1996 82.0691V81.2652H42.161V82.0691ZM36.9648 88.7652H46.5035V89.5359H36.9648V88.7652ZM52.8521 83.337C52.8493 83.953 52.975 84.5649 53.2291 85.1727C53.4833 85.7804 53.8258 86.3204 54.2568 86.7928C54.6905 87.2624 55.1615 87.6133 55.6698 87.8453L55.1062 88.5746C54.714 88.3812 54.3424 88.1215 53.9916 87.7956C53.6407 87.4669 53.3286 87.087 53.0551 86.6561C52.7816 86.2251 52.5634 85.7652 52.4004 85.2762C52.2402 85.7956 52.0233 86.2845 51.7499 86.7431C51.4791 87.1989 51.1656 87.6022 50.8093 87.953C50.4529 88.3039 50.0731 88.5801 49.6698 88.7818L49.0896 88.011C49.6035 87.7735 50.0772 87.4116 50.5109 86.9254C50.9446 86.4365 51.2885 85.8771 51.5427 85.2472C51.7996 84.6174 51.9294 83.9807 51.9322 83.337V81.4392H52.8521V83.337ZM56.8134 80.5359H57.7333V90.9696H56.8134V80.5359ZM62.4491 82.4669C62.4491 82.9227 62.5555 83.3619 62.7682 83.7845C62.9809 84.2044 63.2806 84.5773 63.6674 84.9033C64.0541 85.2265 64.5016 85.4751 65.0099 85.6492L64.5375 86.3619C63.9491 86.1547 63.4353 85.8481 62.9961 85.442C62.5569 85.0331 62.2254 84.5594 62.0016 84.0207C61.7779 84.6091 61.4367 85.1257 60.9781 85.5704C60.5223 86.0124 59.9878 86.3453 59.3745 86.5691L58.8773 85.8564C59.3966 85.6713 59.8566 85.4075 60.2571 85.0649C60.6605 84.7224 60.974 84.326 61.1978 83.8757C61.4215 83.4254 61.5348 82.9558 61.5375 82.4669V82.0193H59.1591V81.2652H64.7861V82.0193H62.4491V82.4669ZM60.2447 87.3646H67.0652V90.953H66.1453V88.1188H60.2447V87.3646ZM66.1453 80.5359H67.0652V83.2873H68.6315V84.0746H67.0652V86.8094H66.1453V80.5359ZM71.4662 89.2293L74.3585 86.1796C74.7397 85.7735 75.0297 85.4475 75.2286 85.2017C75.4303 84.953 75.5836 84.7141 75.6886 84.4848C75.7935 84.2528 75.8474 84.011 75.8502 83.7597C75.8474 83.4724 75.7714 83.2196 75.6223 83.0014C75.4759 82.7831 75.2742 82.6146 75.0173 82.4959C74.7632 82.3771 74.4772 82.3177 74.1596 82.3177C73.8281 82.3177 73.5366 82.384 73.2853 82.5166C73.0366 82.6492 72.8447 82.8356 72.7093 83.076C72.5767 83.3163 72.5104 83.5939 72.5104 83.9088H71.5076C71.5049 83.4171 71.6195 82.982 71.8516 82.6036C72.0864 82.2224 72.4082 81.9268 72.817 81.7169C73.2259 81.5041 73.6844 81.3978 74.1927 81.3978C74.6955 81.3978 75.1471 81.5028 75.5477 81.7127C75.951 81.9199 76.2659 82.203 76.4924 82.5622C76.719 82.9213 76.8336 83.3204 76.8364 83.7597C76.8336 84.0829 76.7728 84.3923 76.654 84.6878C76.538 84.9807 76.3405 85.3066 76.0615 85.6657C75.7853 86.0249 75.3916 86.4669 74.8806 86.9917L72.9413 88.9972V89.0635H76.9855V90H71.4745L71.4662 89.2293ZM77.5228 87.3978L81.3432 81.5138H82.636V87.3398H83.8294V88.268H82.636V90H81.6333V88.268H77.5228V87.3978ZM81.6333 87.3398V82.8481H81.5338L78.6581 87.2735V87.3398H81.6333ZM87.9497 83.337C87.947 83.953 88.0727 84.5649 88.3268 85.1727C88.5809 85.7804 88.9235 86.3204 89.3544 86.7928C89.7881 87.2624 90.2591 87.6133 90.7674 87.8453L90.2039 88.5746C89.8116 88.3812 89.4401 88.1215 89.0892 87.7956C88.7384 87.4669 88.4262 87.087 88.1528 86.6561C87.8793 86.2251 87.6611 85.7652 87.4981 85.2762C87.3378 85.7956 87.121 86.2845 86.8475 86.7431C86.5768 87.1989 86.2633 87.6022 85.9069 87.953C85.5506 88.3039 85.1707 88.5801 84.7674 88.7818L84.1873 88.011C84.7011 87.7735 85.1749 87.4116 85.6086 86.9254C86.0423 86.4365 86.3862 85.8771 86.6403 85.2472C86.8972 84.6174 87.0271 83.9807 87.0298 83.337V81.4392H87.9497V83.337ZM91.9111 80.5359H92.8309V90.9696H91.9111V80.5359ZM102.163 83.7017H103.729V84.4807H102.163V88.1602H101.235V80.5359H102.163V83.7017ZM94.033 86.2127C94.8672 85.953 95.5965 85.6202 96.2208 85.2141C96.8451 84.8052 97.3396 84.3384 97.7042 83.8135C98.0689 83.2859 98.283 82.7182 98.3465 82.1105H94.4639V81.3398H99.3451C99.3451 82.221 99.1462 83.029 98.7484 83.7638C98.3507 84.4959 97.783 85.1312 97.0454 85.6699C96.3106 86.2086 95.4391 86.6354 94.4308 86.9503L94.033 86.2127ZM95.6324 87.3812H96.5523V89.9586H102.635V90.721H95.6324V87.3812ZM114.785 90.9696H113.865V80.5359H114.785V90.9696ZM106.589 84.9696C106.589 84.2431 106.701 83.6064 106.924 83.0594C107.151 82.5124 107.466 82.0898 107.869 81.7914C108.272 81.4931 108.732 81.3425 109.249 81.3398C109.763 81.3425 110.22 81.4931 110.62 81.7914C111.024 82.0898 111.339 82.5138 111.565 83.0635C111.795 83.6105 111.909 84.2459 111.909 84.9696C111.909 85.6961 111.795 86.3343 111.565 86.884C111.339 87.4337 111.024 87.8577 110.62 88.1561C110.217 88.4517 109.76 88.5994 109.249 88.5994C108.732 88.5994 108.272 88.4517 107.869 88.1561C107.466 87.8577 107.151 87.4351 106.924 86.8881C106.701 86.3384 106.589 85.6989 106.589 84.9696ZM107.475 84.9696C107.475 85.5276 107.55 86.0193 107.699 86.4448C107.848 86.8702 108.057 87.1989 108.325 87.4309C108.596 87.663 108.904 87.779 109.249 87.779C109.594 87.779 109.899 87.663 110.165 87.4309C110.433 87.1989 110.641 86.8702 110.79 86.4448C110.94 86.0193 111.014 85.5276 111.014 84.9696C111.014 84.4144 110.94 83.9254 110.79 83.5028C110.641 83.0773 110.433 82.7486 110.165 82.5166C109.899 82.2818 109.594 82.163 109.249 82.1602C108.904 82.163 108.596 82.2818 108.325 82.5166C108.057 82.7486 107.848 83.0773 107.699 83.5028C107.55 83.9254 107.475 84.4144 107.475 84.9696ZM124.863 90.953H123.968V85.558H122.459V90.4061H121.589V80.768H122.459V84.779H123.968V80.5359H124.863V90.953ZM116.492 81.8039H117.412V87.4309C117.976 87.4282 118.537 87.4019 119.095 87.3522C119.653 87.3025 120.23 87.2182 120.827 87.0994L120.934 87.9116C120.249 88.0359 119.602 88.1243 118.991 88.1768C118.383 88.2265 117.769 88.2514 117.147 88.2514H116.492V81.8039Z" fill="#525A6A"/>
</svg>
