<svg width="20" height="20" viewBox="0 0 20 20" fill="none" xmlns="http://www.w3.org/2000/svg">
<path d="M19.0222 8.19436V13.6125M18.4984 9.02694C18.6601 8.95562 18.7972 8.83845 18.893 8.68994C18.9887 8.54142 19.0387 8.36809 19.0369 8.19141C19.0351 8.01473 18.9815 7.84247 18.8827 7.69597C18.7839 7.54946 18.6443 7.43515 18.4812 7.3672L10.7415 3.84182C10.5062 3.7345 10.2506 3.67896 9.99199 3.67896C9.73338 3.67896 9.47778 3.7345 9.24249 3.84182L1.50364 7.36358C1.34287 7.43399 1.20611 7.54973 1.11007 7.69663C1.01404 7.84353 0.962891 8.01524 0.962891 8.19075C0.962891 8.36626 1.01404 8.53796 1.11007 8.68486C1.20611 8.83177 1.34287 8.9475 1.50364 9.01791L9.24249 12.5469C9.47778 12.6542 9.73338 12.7098 9.99199 12.7098C10.2506 12.7098 10.5062 12.6542 10.7415 12.5469L18.4984 9.02694Z" stroke="#091120" stroke-width="1.5" stroke-linecap="round" stroke-linejoin="round"/>
<path d="M4.57422 10.4518V13.6123C4.57422 14.3308 5.14505 15.0199 6.16114 15.5279C7.17723 16.036 8.55535 16.3214 9.99232 16.3214C11.4293 16.3214 12.8074 16.036 13.8235 15.5279C14.8396 15.0199 15.4104 14.3308 15.4104 13.6123V10.4518" stroke="#091120" stroke-width="1.5" stroke-linecap="round" stroke-linejoin="round"/>
</svg>
