<svg width="29" height="28" viewBox="0 0 29 28" fill="none" xmlns="http://www.w3.org/2000/svg">
<g id="ic_heart_filled_gray07">
<path id="Vector" fill-rule="evenodd" clip-rule="evenodd" d="M9.55593 4.00154C7.59633 4.00154 5.92959 4.70765 4.76119 5.99526C3.60353 7.26902 3.02393 9.01352 3.02393 10.9442C3.02393 14.2978 4.72593 16.9699 6.88793 19.0483C9.04073 21.1174 11.7486 22.6911 13.9903 23.8679C14.1541 23.9542 14.3363 23.9995 14.5213 24C14.7062 24.0005 14.8886 23.9563 15.0529 23.871C17.2962 22.7065 20.0025 21.1204 22.1569 19.0406C24.3189 16.9561 26.0239 14.2747 26.0239 10.9442C26.0239 9.00583 25.4413 7.26287 24.2821 5.9891C23.1121 4.70457 21.4454 4 19.4919 4C17.8421 4 16.4774 4.61381 15.4393 5.77065C15.0845 6.17153 14.7773 6.61241 14.5239 7.08442C14.2705 6.61241 13.9633 6.17153 13.6085 5.77065C12.5705 4.61381 11.2058 4.00154 9.55593 4.00154Z" fill="#788397"/>
</g>
</svg>
