<svg width="29" height="28" viewBox="0 0 29 28" fill="none" xmlns="http://www.w3.org/2000/svg">
<g id="ic_heart_outlined_gray07">
<path id="Vector" d="M19.6579 4C17.5375 4 15.6811 5.43609 14.5239 7C13.3667 5.43609 11.5103 4 9.39 4C7.70219 4.00193 6.08406 4.68314 4.89061 5.89418C3.69715 7.10522 3.02583 8.74719 3.02393 10.4599C3.02393 17.7532 13.6809 23.6567 14.1348 23.9005C14.2544 23.9658 14.3881 24 14.5239 24C14.6598 24 14.7935 23.9658 14.9131 23.9005C15.3669 23.6567 26.0239 17.7532 26.0239 10.4599C26.022 8.74719 25.3507 7.10522 24.1572 5.89418C22.9638 4.68314 21.3457 4.00193 19.6579 4ZM14.5239 22.2126C12.649 21.104 4.66678 16.0539 4.66678 10.4599C4.66841 9.18924 5.16656 7.97113 6.05198 7.07266C6.9374 6.1742 8.13782 5.66871 9.39 5.66706C11.3871 5.66706 13.8237 8.27626 14.5239 10.01C14.3886 9.91798 14.5858 10.1629 14.5239 10.01C14.3611 10.01 14.6592 10.102 14.5239 10.01C14.3886 10.102 14.6868 10.01 14.5239 10.01C14.462 10.1629 14.6592 9.91798 14.5239 10.01C15.2242 8.27313 17.6608 5.66706 19.6579 5.66706C20.91 5.66871 22.1105 6.1742 22.9959 7.07266C23.8813 7.97113 24.3794 9.18924 24.3811 10.4599C24.3811 16.0455 16.3968 21.103 14.5239 22.2126Z" fill="#788397"/>
</g>
</svg>
