<svg width="28" height="28" viewBox="0 0 28 28" fill="none" xmlns="http://www.w3.org/2000/svg">
<path d="M19.1339 4C17.0136 4 15.1572 5.43609 14 7C12.8428 5.43609 10.9864 4 8.86607 4C7.17827 4.00193 5.56014 4.68314 4.36668 5.89418C3.17322 7.10522 2.5019 8.74719 2.5 10.4599C2.5 17.7532 13.157 23.6567 13.6108 23.9005C13.7305 23.9658 13.8642 24 14 24C14.1358 24 14.2695 23.9658 14.3892 23.9005C14.843 23.6567 25.5 17.7532 25.5 10.4599C25.4981 8.74719 24.8268 7.10522 23.6333 5.89418C22.4399 4.68314 20.8217 4.00193 19.1339 4Z" fill="#788397"/>
</svg>
