<svg width="58" height="20" viewBox="0 0 58 20" fill="none" xmlns="http://www.w3.org/2000/svg">
<g id="logo_small_black">
<g id="Da/sh">
<path d="M1.12402 19.4517L4.96701 0.54834H12.4453C14.7563 0.54834 16.0805 1.79472 16.5998 3.32672C17.0932 4.78082 17.0413 5.76754 16.1584 10.1818C15.3275 14.2325 14.0811 19.4517 8.68017 19.4517H1.12402ZM9.38126 4.65099L7.07027 15.7126H8.13488C9.45916 15.7126 9.95251 14.2585 10.2381 12.8823L11.3547 7.4813C11.7701 5.61174 11.7182 4.65099 10.1343 4.65099H9.38126Z" fill="#091120"/>
<path d="M27.5892 9.0912L25.8754 17.3744C25.7196 18.0755 25.7456 18.7766 25.9274 19.4517H21.2015C21.0977 18.9583 21.1756 18.465 21.2535 17.9716L21.2275 17.9457C20.3187 19.3219 18.9944 19.4517 17.5403 19.4517C14.8398 19.4517 13.9829 18.3871 14.5802 15.6606C15.2034 12.5447 16.8652 11.6619 18.8386 11.2464L21.3054 10.7011C22.37 10.4674 22.8114 10.1558 22.9932 9.247C23.175 8.54591 22.8114 8.15642 22.2661 8.15642C21.2015 8.15642 20.838 8.96137 20.7082 9.76632H16.2939C16.9431 6.57249 18.9165 5.04048 22.9413 5.04048C27.5113 5.04048 28.0826 6.91005 27.5892 9.0912ZM21.8767 14.6739L22.2921 12.6486C21.9026 12.8563 21.5391 12.9861 20.9419 13.1939C20.0331 13.5054 19.7734 14.1546 19.5916 14.9855C19.4099 15.8164 19.6176 16.3877 20.3187 16.3877C21.3314 16.3877 21.6689 15.4789 21.8767 14.6739Z" fill="#091120"/>
<path d="M24.4213 19.4517L34.1586 0.54834H38.3652L28.6019 19.4517H24.4213Z" fill="#091120"/>
<path d="M32.4845 14.9336H36.8988C36.8209 15.5308 36.743 15.9722 36.8728 16.3098C36.9767 16.6474 37.2104 16.8551 37.8076 16.8551C38.7164 16.8551 39.002 16.0501 39.0799 15.7645C39.2098 15.0894 39.1059 14.8557 37.4181 14.2325C34.3801 13.1419 33.1077 12.311 33.653 9.76632C34.2762 6.93601 36.2496 5.04048 40.1446 5.04048C45.7792 5.04048 45.0522 8.13045 44.8444 9.4028H40.586C40.6639 9.0133 40.6898 8.62381 40.586 8.39012C40.4561 8.10449 40.1965 8.00062 39.6512 8.00062C39.1319 8.00062 38.5606 8.15642 38.3789 8.96137C38.249 9.63649 38.8462 9.92212 41.6766 10.9608C43.0008 11.4541 44.5588 12.1292 43.9356 15.1153C43.1826 18.5688 40.3523 19.4517 37.2104 19.4517C33.5751 19.4517 31.7315 18.8804 32.4845 14.9336Z" fill="#091120"/>
<path d="M49.4895 19.4517L51.411 10.1558C51.6187 9.0912 51.3591 8.77961 50.7099 8.77961C50.0088 8.77961 49.5934 9.35086 49.4116 10.1558L47.4901 19.4517H42.4527L46.6592 0.54834H51.6966L50.0608 7.01391H50.1127C51.1514 5.63771 52.5276 5.04048 54.0855 5.04048C55.8512 5.04048 57.3053 6.0272 56.76 8.59785L54.527 19.4517H49.4895Z" fill="#091120"/>
</g>
</g>
</svg>
