<svg width="29" height="28" viewBox="0 0 29 28" fill="none" xmlns="http://www.w3.org/2000/svg">
<g id="ic_heart_outlined_gray07">
<path id="Vector" d="M5.31661 6.49925L5.31621 6.49969C4.3085 7.60846 3.77393 9.16013 3.77393 10.9442C3.77393 14.0202 5.32961 16.5099 7.40764 18.5075L5.31661 6.49925ZM5.31661 6.49925C6.32767 5.38504 7.78418 4.75154 9.55593 4.75154C10.998 4.75154 12.1571 5.27708 13.0486 6.26968C13.3642 6.62656 13.6376 7.01901 13.8631 7.43917L14.5239 8.67003L15.1847 7.43917C15.4103 7.01901 15.6836 6.62657 15.9992 6.26968M5.31661 6.49925L15.9992 6.26968M15.9992 6.26968C16.8911 5.2767 18.0504 4.75 19.4919 4.75C21.2575 4.75 22.7145 5.38196 23.7274 6.4939L15.9992 6.26968ZM14.3389 23.2039L14.3396 23.2043C14.3965 23.2342 14.4595 23.2498 14.5234 23.25C14.5873 23.2502 14.6505 23.2349 14.7075 23.2053C16.932 22.0505 19.5609 20.5043 21.6359 18.501L21.6363 18.5006C23.7158 16.4957 25.2739 13.9965 25.2739 10.9442C25.2739 9.15329 24.7368 7.60319 23.7276 6.49412L14.3389 23.2039ZM14.3389 23.2039C12.1109 22.0342 9.48103 20.5003 7.40769 18.5076L14.3389 23.2039Z" stroke="#788397" stroke-width="1.5"/>
</g>
</svg>
