<svg width="28" height="28" viewBox="0 0 28 28" fill="none" xmlns="http://www.w3.org/2000/svg">
<path d="M19.1339 4C17.0136 4 15.1572 5.43609 14 7C12.8428 5.43609 10.9864 4 8.86607 4C7.17827 4.00193 5.56014 4.68314 4.36668 5.89418C3.17322 7.10522 2.5019 8.74719 2.5 10.4599C2.5 17.7532 13.157 23.6567 13.6108 23.9005C13.7305 23.9658 13.8642 24 14 24C14.1358 24 14.2695 23.9658 14.3892 23.9005C14.843 23.6567 25.5 17.7532 25.5 10.4599C25.4981 8.74719 24.8268 7.10522 23.6333 5.89418C22.4399 4.68314 20.8217 4.00193 19.1339 4ZM14 22.2126C12.1251 21.104 4.14286 16.0539 4.14286 10.4599C4.14449 9.18924 4.64263 7.97113 5.52806 7.07266C6.41348 6.1742 7.6139 5.66871 8.86607 5.66706C10.8632 5.66706 13.2997 8.27626 14 10.01C13.8647 9.91798 14.0619 10.1629 14 10.01C13.8371 10.01 14.1353 10.102 14 10.01C13.8647 10.102 14.1629 10.01 14 10.01C13.9381 10.1629 14.1353 9.91798 14 10.01C14.7003 8.27313 17.1368 5.66706 19.1339 5.66706C20.3861 5.66871 21.5865 6.1742 22.4719 7.07266C23.3574 7.97113 23.8555 9.18924 23.8571 10.4599C23.8571 16.0455 15.8729 21.103 14 22.2126Z" fill="#788397"/>
</svg>
