<svg width="20" height="20" viewBox="0 0 20 20" fill="none" xmlns="http://www.w3.org/2000/svg">
<rect width="20" height="20" rx="4" fill="url(#paint0_linear_996_13282)"/>
<path d="M13.7459 2.81915H6.25372C4.18387 2.81915 2.5 4.50302 2.5 6.57287L2.5 13.4271C2.5 15.497 4.18387 17.1808 6.25372 17.1808H13.7459C15.8157 17.1808 17.4996 15.497 17.4996 13.4271V6.57287C17.4996 4.50302 15.8157 2.81915 13.7459 2.81915ZM3.82419 6.57287C3.82419 5.23341 4.91425 4.14334 6.25372 4.14334H13.7459C15.0853 4.14334 16.1754 5.23341 16.1754 6.57287V13.4271C16.1754 14.7666 15.0853 15.8566 13.7459 15.8566H6.25372C4.91425 15.8566 3.82419 14.7666 3.82419 13.4271L3.82419 6.57287Z" fill="white"/>
<path d="M9.99941 13.4907C11.9242 13.4907 13.491 11.9247 13.491 9.99907C13.491 8.07343 11.925 6.50748 9.99941 6.50748C8.07377 6.50748 6.50781 8.07343 6.50781 9.99907C6.50781 11.9247 8.07377 13.4907 9.99941 13.4907ZM9.99941 7.83252C11.1947 7.83252 12.1668 8.80467 12.1668 9.99992C12.1668 11.1952 11.1947 12.1673 9.99941 12.1673C8.80416 12.1673 7.83201 11.1952 7.83201 9.99992C7.83201 8.80467 8.80416 7.83252 9.99941 7.83252Z" fill="white"/>
<path d="M13.8138 7.07162C14.3321 7.07162 14.7546 6.65001 14.7546 6.13086C14.7546 5.6117 14.333 5.19009 13.8138 5.19009C13.2946 5.19009 12.873 5.6117 12.873 6.13086C12.873 6.65001 13.2946 7.07162 13.8138 7.07162Z" fill="white"/>
<defs>
<linearGradient id="paint0_linear_996_13282" x1="2.92191" y1="17.0781" x2="17.0781" y2="2.92261" gradientUnits="userSpaceOnUse">
<stop stop-color="#FAAD4F"/>
<stop offset="0.35" stop-color="#DD2A7B"/>
<stop offset="0.62" stop-color="#9537B0"/>
<stop offset="1" stop-color="#515BD4"/>
</linearGradient>
</defs>
</svg>
