<svg width="29" height="28" viewBox="0 0 29 28" fill="none" xmlns="http://www.w3.org/2000/svg">
<path d="M14.8068 5.25C9.4425 5.25 5.0918 8.73331 5.0918 13.0221C5.0918 15.647 6.71505 17.968 9.19867 19.3811L8.43582 23.472C8.42219 23.5445 8.42998 23.6195 8.45823 23.6875C8.48647 23.7556 8.53391 23.8136 8.59457 23.8544C8.65524 23.8951 8.72643 23.9168 8.79921 23.9167C8.87198 23.9165 8.94309 23.8946 9.00361 23.8536L13.5703 20.7447C13.9811 20.7873 14.3939 20.8086 14.8068 20.8083C20.1712 20.8083 24.5219 17.325 24.5219 13.0362C24.5219 8.74744 20.1712 5.25 14.8068 5.25Z" fill="#3C1E1E"/>
</svg>
