<svg width="54" height="18" viewBox="0 0 54 18" fill="none" xmlns="http://www.w3.org/2000/svg">
<path d="M15.1716 9.10335H10.0781L9.53941 11.7151C9.50587 11.8807 9.46814 12.0484 9.42622 12.214H14.2389C14.3374 12.0526 14.4359 11.8954 14.5449 11.7612C14.7901 10.8787 14.9914 9.98791 15.1632 9.14947C15.1674 9.1327 15.1695 9.12012 15.1716 9.10545V9.10335Z" fill="white"/>
<path d="M2.71455 9.10964L2.07105 12.2181L6.98639 12.2161L7.63409 9.10754L2.71455 9.10964Z" fill="white"/>
<path d="M19.8841 9.63994L17.5141 10.1598C16.3609 10.4008 15.3201 10.8138 14.5463 11.7633C14.5039 11.9142 14.4658 12.0651 14.4213 12.214H19.1422C19.263 12.1385 19.3796 12.063 19.5386 12.0085C20.1109 11.8115 20.4607 11.6878 20.8359 11.4887L20.6854 12.2098H25.065L25.7137 9.09915H21.0818C20.8232 9.35697 20.4522 9.51627 19.8841 9.63994Z" fill="white"/>
<path d="M31.4856 9.09706H27.591L25.9917 12.2077H29.9722L31.4542 9.33391C31.4625 9.25845 31.4772 9.17461 31.4856 9.09706Z" fill="white"/>
<path d="M39.1572 9.8768C38.2601 9.54771 37.6166 9.30456 37.1387 9.09286H31.5757L31.4541 9.33181C31.3137 10.7362 31.8985 11.5285 33.2211 12.2035H41.3401L41.3791 12.0169C41.1318 10.6691 40.0858 10.2227 39.1572 9.8768Z" fill="white"/>
<path d="M48.6421 9.09497L48.0007 12.2098H52.8197L53.4632 9.07401H48.6442C48.6442 9.07401 48.6442 9.08659 48.6442 9.09497H48.6421Z" fill="white"/>
<path d="M46.7661 9.08867H41.9828L41.3791 12.0169C41.3896 12.0756 41.3892 12.1406 41.3976 12.2014L46.1226 12.1993L46.7598 9.10753C46.7598 9.10124 46.764 9.09496 46.7661 9.08867Z" fill="white"/>
<path d="M23.3505 15.5384H23.3316L24.0213 12.2014H19.697L19.4497 13.4024C19.2526 14.1654 18.9319 15.029 17.9719 15.029C17.3075 15.029 17.1104 14.4882 17.2823 13.7001C17.4228 13.0545 17.6345 12.5368 18.1732 12.2035H8.52902C8.23976 13.3396 7.74298 14.3918 6.64882 14.3918H5.6385L6.09545 12.2035H1.18849L0 17.9363H7.16655C9.42615 17.9363 10.8892 16.9469 11.9205 15.5405H12.3816C12.3104 17.3347 13.9432 17.9426 15.3833 17.995C16.5571 18.039 17.9761 17.8126 18.8376 16.5089L18.8607 16.5319C18.7894 16.9994 18.714 17.4689 18.8125 17.9363H26.0817L29.0414 12.2035H25.0693L23.3505 15.5405V15.5384Z" fill="white"/>
<path d="M45.8752 17.9342H50.6522L51.8323 12.2014H47.0595L45.8752 17.9342Z" fill="white"/>
<path d="M32.2841 12.2014C32.8039 12.4676 33.4285 12.717 34.1705 12.9832C35.772 13.5743 35.8705 13.7965 35.7468 14.4379C35.6755 14.7083 35.401 15.4734 34.5415 15.4734C33.9735 15.4734 33.7534 15.2764 33.6528 14.9557C33.5312 14.635 33.6046 14.2178 33.678 13.6498H29.4921C29.3495 14.3981 29.3307 15.0039 29.3789 15.5384C29.5696 17.6827 31.1878 17.9992 33.9463 17.9992C36.3232 17.9992 38.522 17.5045 39.6728 15.5384H39.6979L39.2012 17.9342H43.9782L45.1631 12.1997L32.2841 12.2014Z" fill="white"/>
<path d="M7.44113 5.77055H9.04883C9.47434 5.77055 9.79714 6.16252 9.70491 6.57965C9.70491 6.58174 9.70491 6.58594 9.70491 6.58803L9.18508 9.10544H14.2702C14.2933 8.97968 14.2472 9.22492 14.2702 9.10335L18.4058 9.09286C18.5295 8.32779 18.8145 7.22524 19.8228 7.22524C20.3405 7.22524 20.6843 7.59416 20.5124 8.25652C20.4369 8.63801 20.2986 8.89793 20.0953 9.10125H24.6668L24.8723 8.1098C25.0693 7.23363 25.0609 6.42034 24.6857 5.76427C24.1743 4.86923 22.9606 4.26975 20.4621 4.27184C18.2633 4.27184 16.7289 4.77491 15.6935 5.76846C15.2386 6.20654 14.8697 6.72847 14.6014 7.36149C14.7146 6.73895 14.7963 6.22331 14.8571 5.77055C15.0562 4.26346 14.9913 3.17768 14.6915 2.29313C14.1968 0.842632 12.9413 0.00419227 10.7509 0.00628837L3.65767 0.0104815L2.52368 5.77894L1.83407 9.11592H6.74522L7.44113 5.77684V5.77055Z" fill="white"/>
<path d="M52.721 5.74959C52.3584 4.70364 51.3732 4.25508 50.2329 4.25508C48.9187 4.25508 47.7574 4.73508 46.8205 5.75169C46.7031 5.87955 46.5752 5.98226 46.4662 6.12689H46.4159L47.6841 0H42.905L41.7228 5.75378L41.3161 7.71992C41.3853 7.12044 41.3602 6.391 40.9661 5.75378C40.4525 4.92792 39.3018 4.25927 36.7571 4.26136C34.8916 4.26136 33.4956 4.72251 32.4895 5.52321L35.3381 0.00209654H31.3471L26.6686 9.09916H36.1975C35.2416 8.67784 35.0006 8.41164 35.0823 7.98194C35.2542 7.21896 35.795 7.07223 36.2897 7.07013C36.8053 7.07013 37.0527 7.16865 37.1763 7.43905C37.2749 7.66123 37.2518 8.03015 37.1763 8.39906H41.1757L41.0311 9.09287H45.806C45.98 8.33827 46.3698 7.80377 47.0301 7.80377C47.6422 7.80377 47.8853 8.09932 47.6988 9.09077H52.4695L52.7692 7.62979C52.9327 6.85214 52.8887 6.24218 52.7189 5.75169L52.721 5.74959Z" fill="white"/>
</svg>
