<svg width="37" height="36" viewBox="0 0 37 36" fill="none" xmlns="http://www.w3.org/2000/svg">
<g opacity="0.7" clip-path="url(#clip0_1808_13268)">
<path fill-rule="evenodd" clip-rule="evenodd" d="M17.1127 2.80642C17.9872 2.30672 19.0607 2.30672 19.9352 2.80642L31.0907 9.18103C31.977 9.68746 32.5239 10.6299 32.5239 11.6507V24.3493C32.5239 25.3701 31.977 26.3125 31.0907 26.819L19.9352 33.1936C19.0607 33.6933 17.9872 33.6933 17.1127 33.1936L5.95713 26.819C5.07087 26.3125 4.52393 25.3701 4.52393 24.3493V11.6507C4.52393 10.6299 5.07087 9.68746 5.95713 9.18103L17.1127 2.80642Z" fill="url(#paint0_linear_1808_13268)"/>
<path d="M19.6749 4.29684C18.95 3.90105 18.0568 3.90105 17.3318 4.29684L6.69548 10.1148C5.97052 10.5105 5.52393 11.242 5.52393 12.0336L5.52393 23.6695C5.52393 24.4611 5.97052 25.1925 6.69548 25.5883L17.3488 31.7032C18.0737 32.0989 18.9669 32.0989 19.6919 31.7032L30.3524 25.5883C31.0773 25.1925 31.5239 24.4611 31.5239 23.6695V12.0336C31.5239 11.242 31.0773 10.5105 30.3524 10.1148L19.6749 4.29684Z" fill="url(#paint1_linear_1808_13268)" fill-opacity="0.7"/>
<path opacity="0.6" d="M19.6728 5.33345C18.9027 4.88885 17.9539 4.88885 17.1839 5.33345C17.1839 5.33345 13.4106 7.51196 11.5239 8.60122" stroke="#9547FF" stroke-opacity="0.26" stroke-width="0.711111" stroke-linecap="round"/>
<path d="M17.3539 5.33398C17.3539 5.33398 15.3569 6.48694 14.5239 6.96787Z" fill="url(#paint2_linear_1808_13268)"/>
<path d="M17.3539 5.33398C17.3539 5.33398 15.3569 6.48694 14.5239 6.96787" stroke="white" stroke-opacity="0.28" stroke-width="0.711111" stroke-linecap="round"/>
<g filter="url(#filter0_d_1808_13268)">
<g filter="url(#filter1_d_1808_13268)">
<path fill-rule="evenodd" clip-rule="evenodd" d="M17.8727 7.35023C18.2793 7.13155 18.7685 7.13155 19.1752 7.35023L27.8002 11.9886C28.2459 12.2283 28.5239 12.6935 28.5239 13.1996V22.8004C28.5239 23.3065 28.2459 23.7717 27.8002 24.0114L19.1752 28.6498C18.7685 28.8685 18.2793 28.8685 17.8727 28.6498L9.24768 24.0114C8.80195 23.7717 8.52393 23.3065 8.52393 22.8004V13.1996C8.52393 12.6935 8.80195 12.2283 9.24768 11.9886L17.8727 7.35023Z" fill="url(#paint3_linear_1808_13268)"/>
</g>
</g>
<g filter="url(#filter2_d_1808_13268)">
<path d="M16.9406 20.75C16.9054 20.75 16.8693 20.7396 16.8312 20.7136L16.8239 20.706L16.8126 20.6932L16.8087 20.6901L16.8043 20.6854L16.803 20.6848C16.8019 20.6836 16.8007 20.6822 16.7994 20.6807C16.7982 20.6791 16.7969 20.6773 16.7955 20.6756C16.7938 20.6733 16.7918 20.6707 16.7895 20.668L16.787 20.6639L16.7801 20.6531L16.7801 20.6531L16.7793 20.6518C16.7762 20.6469 16.7734 20.6418 16.7672 20.629C16.7657 20.6245 16.7642 20.6201 16.7628 20.6158L16.7601 20.6062C16.759 20.6024 16.7575 20.5967 16.7557 20.5905C16.7547 20.5862 16.7536 20.5804 16.7517 20.5708C16.7516 20.57 16.7514 20.5692 16.7513 20.5684C16.751 20.5664 16.7507 20.5645 16.7505 20.5628L16.7496 20.5575C16.7494 20.554 16.7492 20.5507 16.7489 20.5479C16.7483 20.5414 16.7477 20.5354 16.7473 20.5318C16.7477 20.5259 16.7487 20.516 16.7514 20.4947L17.0136 18.9043L17.0343 18.7789L16.9452 18.6884L15.8363 17.5607C15.8254 17.5492 15.8151 17.5366 15.8074 17.5256C15.7958 17.5073 15.7922 17.4997 15.7908 17.4961C15.7901 17.4939 15.7894 17.492 15.7888 17.4904L15.7857 17.4819L15.7847 17.479L15.7842 17.4779L15.7838 17.4762C15.7769 17.4476 15.7739 17.4251 15.7739 17.4035V17.4034V17.4033V17.4032V17.4031V17.4031V17.403V17.4029V17.4028V17.4027V17.4026V17.4026V17.4025V17.4024V17.4023V17.4022V17.4022V17.4021V17.402V17.4019V17.4018V17.4017V17.4017V17.4016V17.4015V17.4014V17.4013V17.4013V17.4012V17.4011V17.401V17.4009V17.4008V17.4008V17.4007V17.4006V17.4005V17.4004V17.4004V17.4003V17.4002V17.4001V17.4V17.4V17.3999V17.3998V17.3997V17.3996V17.3996V17.3995V17.3994V17.3993V17.3992V17.3992V17.3991V17.399V17.3989V17.3988V17.3988V17.3987V17.3986V17.3985V17.3984V17.3984V17.3983V17.3982V17.3981V17.3981V17.398V17.3979V17.3978V17.3977V17.3977V17.3976V17.3975V17.3974V17.3974V17.3973V17.3972V17.3971V17.397V17.397V17.3969V17.3968V17.3967V17.3967V17.3966V17.3965V17.3964V17.3963V17.3963V17.3962V17.3961V17.396V17.396V17.3959V17.3958V17.3957V17.3956V17.3956V17.3955V17.3954V17.3953V17.3953V17.3952V17.3951V17.395V17.395V17.3949V17.3948V17.3947V17.3947V17.3946V17.3945V17.3944V17.3944V17.3943V17.3942V17.3941V17.394V17.394V17.3939V17.3938V17.3937V17.3937V17.3936V17.3935V17.3934V17.3934V17.3933V17.3932V17.3931V17.3931V17.393V17.3929V17.3928V17.3928V17.3927V17.3926V17.3925V17.3925V17.3924V17.3923V17.3922V17.3922V17.3921V17.392V17.3919V17.3919V17.3918V17.3917V17.3916V17.3916V17.3915V17.3914V17.3913V17.3913V17.3912V17.3911V17.391V17.391V17.3909V17.3908V17.3908V17.3907V17.3906V17.3905V17.3905V17.3904V17.3903V17.3902V17.3902V17.3901V17.39V17.3899V17.3899V17.3898V17.3897V17.3896V17.3896V17.3895V17.3894V17.3893V17.3893V17.3892V17.3891V17.3891V17.389V17.3889V17.3888V17.3888V17.3887V17.3886V17.3885V17.3885V17.3884V17.3883V17.3882V17.3882V17.3881V17.388V17.388V17.3879V17.3878V17.3877V17.3877V17.3876V17.3875V17.3874V17.3874V17.3873V17.3872V17.3872V17.3871V17.387V17.3869V17.3869V17.3868V17.3867V17.3866V17.3866V17.3865V17.3864V17.3864V17.3863V17.3862V17.3861V17.3861V17.386V17.3859V17.3858V17.3858V17.3857V17.3856V17.3855V17.3855V17.3854V17.3853V17.3853V17.3852V17.3851V17.385V17.385V17.3849V17.3848V17.3847V17.3847V17.3846V17.3845V17.3845V17.3844V17.3843V17.3842V17.3842V17.3841V17.384V17.384V17.3839V17.3838V17.3837V17.3837V17.3836V17.3835V17.3834V17.3834V17.3833V17.3832V17.3832V17.3831V17.383V17.3829V17.3829V17.3828V17.3827V17.3826V17.3826V17.3825V17.3824V17.3824V17.3823V17.3822V17.3821V17.3821V17.382V17.3819V17.3818V17.3818V17.3817V17.3816V17.3816V17.3815V17.3814V17.3813V17.3813V17.3812V17.3811V17.381V17.381V17.3809V17.3808V17.3807V17.3807V17.3806V17.3805V17.3805V17.3804V17.3803V17.3802V17.3802V17.3801V17.38V17.3799V17.3799V17.3798V17.3797V17.3797V17.3796V17.3795V17.3794V17.3794V17.3793V17.3792V17.3791V17.3791V17.379V17.3789V17.3788V17.3788V17.3787V17.3786V17.3786V17.3785V17.3784V17.3783V17.3783V17.3782V17.3781V17.378V17.378V17.3779V17.3778V17.3777V17.3777V17.3776V17.3775V17.3774V17.3774V17.3773V17.3772V17.3771V17.3771V17.377V17.3769V17.3769V17.3768V17.3767V17.3766V17.3766V17.3765V17.3764V17.3763V17.3763V17.3762V17.3761V17.376V17.376V17.3759V17.3758V17.3757V17.3757V17.3756V17.3755V17.3754V17.3754V17.3753V17.3752V17.3751V17.3751V17.375V17.3749V17.3748V17.3748V17.3747V17.3746V17.3745V17.3745V17.3744V17.3743V17.3742V17.3742V17.3741V17.374V17.3739V17.3739V17.3738V17.3737V17.3736V17.3736V17.3735V17.3734V17.3733V17.3732V17.3732V17.3731V17.373V17.3729V17.3729V17.3728V17.3727V17.3726V17.3726V17.3725V17.3724V17.3723V17.3723V17.3722V17.3721V17.372V17.3719V17.3719V17.3718V17.3717V17.3716V17.3716V17.3715V17.3714V17.3713V17.3712V17.3712V17.3711V17.371V17.3709V17.3709L15.784 17.3393V17.3297L15.8333 17.2463L15.8604 17.218C15.8676 17.2139 15.8738 17.21 15.8785 17.2068C15.8856 17.203 15.8946 17.198 15.9041 17.1922C15.9056 17.1916 15.9073 17.191 15.9093 17.1902L15.922 17.187C15.9281 17.1855 15.9329 17.1843 15.9369 17.1833C15.9427 17.1818 15.9471 17.1807 15.9519 17.1795L17.4798 16.9494L17.6121 16.9295L17.6689 16.8083L18.3451 15.3662C18.3451 15.3662 18.3451 15.3661 18.3451 15.3661C18.381 15.2899 18.4488 15.25 18.5183 15.25C18.5671 15.25 18.6182 15.2706 18.657 15.3099C18.6593 15.3127 18.6613 15.3151 18.6629 15.3172L18.6696 15.3253L18.6729 15.3305C18.6885 15.3549 18.693 15.3625 18.695 15.3669L18.6952 15.3672L19.3818 16.8129L19.4388 16.933L19.5703 16.9528L21.1037 17.1843L21.1037 17.1843L21.1051 17.1845C21.174 17.1945 21.2379 17.2458 21.2631 17.3277C21.2646 17.3371 21.2668 17.3476 21.27 17.3586V17.3643L21.273 17.3777L21.2736 17.3881C21.2754 17.4226 21.2697 17.4551 21.2591 17.4799L21.2588 17.4798L21.2542 17.4923C21.2533 17.4947 21.2524 17.4971 21.251 17.4998L21.2381 17.5187C21.2294 17.5314 21.2181 17.5454 21.207 17.557L20.0982 18.6846L20.009 18.7753L20.0298 18.9007L20.2926 20.4911C20.3061 20.5792 20.2735 20.659 20.2123 20.7069C20.1945 20.7196 20.1803 20.7277 20.171 20.7321L20.1553 20.7372C20.1346 20.7439 20.1159 20.7466 20.0987 20.7466C20.068 20.7466 20.0377 20.739 20.0108 20.7242L20.0104 20.724L18.6375 19.9725L18.5174 19.9068L18.3974 19.9725L17.0245 20.724L17.0167 20.7282L17.0093 20.733C16.9952 20.7421 16.9722 20.75 16.9406 20.75ZM20.138 20.7451L20.1394 20.7444C20.1389 20.7446 20.1382 20.745 20.138 20.7451Z" fill="white" stroke="url(#paint4_linear_1808_13268)" stroke-width="0.5"/>
<path d="M16.9406 20.75C16.9054 20.75 16.8693 20.7396 16.8312 20.7136L16.8239 20.706L16.8126 20.6932L16.8087 20.6901L16.8043 20.6854L16.803 20.6848C16.8019 20.6836 16.8007 20.6822 16.7994 20.6807C16.7982 20.6791 16.7969 20.6773 16.7955 20.6756C16.7938 20.6733 16.7918 20.6707 16.7895 20.668L16.787 20.6639L16.7801 20.6531L16.7801 20.6531L16.7793 20.6518C16.7762 20.6469 16.7734 20.6418 16.7672 20.629C16.7657 20.6245 16.7642 20.6201 16.7628 20.6158L16.7601 20.6062C16.759 20.6024 16.7575 20.5967 16.7557 20.5905C16.7547 20.5862 16.7536 20.5804 16.7517 20.5708C16.7516 20.57 16.7514 20.5692 16.7513 20.5684C16.751 20.5664 16.7507 20.5645 16.7505 20.5628L16.7496 20.5575C16.7494 20.554 16.7492 20.5507 16.7489 20.5479C16.7483 20.5414 16.7477 20.5354 16.7473 20.5318C16.7477 20.5259 16.7487 20.516 16.7514 20.4947L17.0136 18.9043L17.0343 18.7789L16.9452 18.6884L15.8363 17.5607C15.8254 17.5492 15.8151 17.5366 15.8074 17.5256C15.7958 17.5073 15.7922 17.4997 15.7908 17.4961C15.7901 17.4939 15.7894 17.492 15.7888 17.4904L15.7857 17.4819L15.7847 17.479L15.7842 17.4779L15.7838 17.4762C15.7769 17.4476 15.7739 17.4251 15.7739 17.4035V17.4034V17.4033V17.4032V17.4031V17.4031V17.403V17.4029V17.4028V17.4027V17.4026V17.4026V17.4025V17.4024V17.4023V17.4022V17.4022V17.4021V17.402V17.4019V17.4018V17.4017V17.4017V17.4016V17.4015V17.4014V17.4013V17.4013V17.4012V17.4011V17.401V17.4009V17.4008V17.4008V17.4007V17.4006V17.4005V17.4004V17.4004V17.4003V17.4002V17.4001V17.4V17.4V17.3999V17.3998V17.3997V17.3996V17.3996V17.3995V17.3994V17.3993V17.3992V17.3992V17.3991V17.399V17.3989V17.3988V17.3988V17.3987V17.3986V17.3985V17.3984V17.3984V17.3983V17.3982V17.3981V17.3981V17.398V17.3979V17.3978V17.3977V17.3977V17.3976V17.3975V17.3974V17.3974V17.3973V17.3972V17.3971V17.397V17.397V17.3969V17.3968V17.3967V17.3967V17.3966V17.3965V17.3964V17.3963V17.3963V17.3962V17.3961V17.396V17.396V17.3959V17.3958V17.3957V17.3956V17.3956V17.3955V17.3954V17.3953V17.3953V17.3952V17.3951V17.395V17.395V17.3949V17.3948V17.3947V17.3947V17.3946V17.3945V17.3944V17.3944V17.3943V17.3942V17.3941V17.394V17.394V17.3939V17.3938V17.3937V17.3937V17.3936V17.3935V17.3934V17.3934V17.3933V17.3932V17.3931V17.3931V17.393V17.3929V17.3928V17.3928V17.3927V17.3926V17.3925V17.3925V17.3924V17.3923V17.3922V17.3922V17.3921V17.392V17.3919V17.3919V17.3918V17.3917V17.3916V17.3916V17.3915V17.3914V17.3913V17.3913V17.3912V17.3911V17.391V17.391V17.3909V17.3908V17.3908V17.3907V17.3906V17.3905V17.3905V17.3904V17.3903V17.3902V17.3902V17.3901V17.39V17.3899V17.3899V17.3898V17.3897V17.3896V17.3896V17.3895V17.3894V17.3893V17.3893V17.3892V17.3891V17.3891V17.389V17.3889V17.3888V17.3888V17.3887V17.3886V17.3885V17.3885V17.3884V17.3883V17.3882V17.3882V17.3881V17.388V17.388V17.3879V17.3878V17.3877V17.3877V17.3876V17.3875V17.3874V17.3874V17.3873V17.3872V17.3872V17.3871V17.387V17.3869V17.3869V17.3868V17.3867V17.3866V17.3866V17.3865V17.3864V17.3864V17.3863V17.3862V17.3861V17.3861V17.386V17.3859V17.3858V17.3858V17.3857V17.3856V17.3855V17.3855V17.3854V17.3853V17.3853V17.3852V17.3851V17.385V17.385V17.3849V17.3848V17.3847V17.3847V17.3846V17.3845V17.3845V17.3844V17.3843V17.3842V17.3842V17.3841V17.384V17.384V17.3839V17.3838V17.3837V17.3837V17.3836V17.3835V17.3834V17.3834V17.3833V17.3832V17.3832V17.3831V17.383V17.3829V17.3829V17.3828V17.3827V17.3826V17.3826V17.3825V17.3824V17.3824V17.3823V17.3822V17.3821V17.3821V17.382V17.3819V17.3818V17.3818V17.3817V17.3816V17.3816V17.3815V17.3814V17.3813V17.3813V17.3812V17.3811V17.381V17.381V17.3809V17.3808V17.3807V17.3807V17.3806V17.3805V17.3805V17.3804V17.3803V17.3802V17.3802V17.3801V17.38V17.3799V17.3799V17.3798V17.3797V17.3797V17.3796V17.3795V17.3794V17.3794V17.3793V17.3792V17.3791V17.3791V17.379V17.3789V17.3788V17.3788V17.3787V17.3786V17.3786V17.3785V17.3784V17.3783V17.3783V17.3782V17.3781V17.378V17.378V17.3779V17.3778V17.3777V17.3777V17.3776V17.3775V17.3774V17.3774V17.3773V17.3772V17.3771V17.3771V17.377V17.3769V17.3769V17.3768V17.3767V17.3766V17.3766V17.3765V17.3764V17.3763V17.3763V17.3762V17.3761V17.376V17.376V17.3759V17.3758V17.3757V17.3757V17.3756V17.3755V17.3754V17.3754V17.3753V17.3752V17.3751V17.3751V17.375V17.3749V17.3748V17.3748V17.3747V17.3746V17.3745V17.3745V17.3744V17.3743V17.3742V17.3742V17.3741V17.374V17.3739V17.3739V17.3738V17.3737V17.3736V17.3736V17.3735V17.3734V17.3733V17.3732V17.3732V17.3731V17.373V17.3729V17.3729V17.3728V17.3727V17.3726V17.3726V17.3725V17.3724V17.3723V17.3723V17.3722V17.3721V17.372V17.3719V17.3719V17.3718V17.3717V17.3716V17.3716V17.3715V17.3714V17.3713V17.3712V17.3712V17.3711V17.371V17.3709V17.3709L15.784 17.3393V17.3297L15.8333 17.2463L15.8604 17.218C15.8676 17.2139 15.8738 17.21 15.8785 17.2068C15.8856 17.203 15.8946 17.198 15.9041 17.1922C15.9056 17.1916 15.9073 17.191 15.9093 17.1902L15.922 17.187C15.9281 17.1855 15.9329 17.1843 15.9369 17.1833C15.9427 17.1818 15.9471 17.1807 15.9519 17.1795L17.4798 16.9494L17.6121 16.9295L17.6689 16.8083L18.3451 15.3662C18.3451 15.3662 18.3451 15.3661 18.3451 15.3661C18.381 15.2899 18.4488 15.25 18.5183 15.25C18.5671 15.25 18.6182 15.2706 18.657 15.3099C18.6593 15.3127 18.6613 15.3151 18.6629 15.3172L18.6696 15.3253L18.6729 15.3305C18.6885 15.3549 18.693 15.3625 18.695 15.3669L18.6952 15.3672L19.3818 16.8129L19.4388 16.933L19.5703 16.9528L21.1037 17.1843L21.1037 17.1843L21.1051 17.1845C21.174 17.1945 21.2379 17.2458 21.2631 17.3277C21.2646 17.3371 21.2668 17.3476 21.27 17.3586V17.3643L21.273 17.3777L21.2736 17.3881C21.2754 17.4226 21.2697 17.4551 21.2591 17.4799L21.2588 17.4798L21.2542 17.4923C21.2533 17.4947 21.2524 17.4971 21.251 17.4998L21.2381 17.5187C21.2294 17.5314 21.2181 17.5454 21.207 17.557L20.0982 18.6846L20.009 18.7753L20.0298 18.9007L20.2926 20.4911C20.3061 20.5792 20.2735 20.659 20.2123 20.7069C20.1945 20.7196 20.1803 20.7277 20.171 20.7321L20.1553 20.7372C20.1346 20.7439 20.1159 20.7466 20.0987 20.7466C20.068 20.7466 20.0377 20.739 20.0108 20.7242L20.0104 20.724L18.6375 19.9725L18.5174 19.9068L18.3974 19.9725L17.0245 20.724L17.0167 20.7282L17.0093 20.733C16.9952 20.7421 16.9722 20.75 16.9406 20.75ZM20.138 20.7451L20.1394 20.7444C20.1389 20.7446 20.1382 20.745 20.138 20.7451Z" stroke="url(#paint5_linear_1808_13268)" stroke-width="0.5"/>
<path d="M18.5185 15.2281V18.173L17.5757 16.9161L18.3134 15.3601C18.358 15.2746 18.44 15.2281 18.5185 15.2281Z" fill="url(#paint6_linear_1808_13268)" fill-opacity="0.38"/>
<path d="M21.2949 17.3328L18.5215 18.1732L19.464 16.9163L21.1103 17.1654C21.2027 17.1831 21.2675 17.2507 21.2949 17.3328Z" fill="url(#paint7_linear_1808_13268)"/>
<path d="M20.233 20.7258L18.5186 18.1726L20.0418 18.7815L20.3218 20.4908C20.3421 20.5906 20.301 20.6759 20.233 20.7258Z" fill="url(#paint8_linear_1808_13268)"/>
<path d="M18.5179 18.1726V19.9352L17.0458 20.7434C16.9604 20.7896 16.8716 20.7754 16.8032 20.7258L18.5179 18.1726Z" fill="url(#paint9_linear_1808_13268)"/>
<path d="M19.4611 16.9161L18.5183 18.173V15.2281C18.5798 15.2281 18.6414 15.253 18.6856 15.3028C18.6925 15.31 18.6993 15.3205 18.7062 15.3313C18.713 15.3422 18.7198 15.3527 18.7231 15.3633L19.4611 16.9161Z" fill="url(#paint10_linear_1808_13268)" fill-opacity="0.6"/>
<path d="M21.2883 17.4926C21.2814 17.5069 21.2746 17.5211 21.2678 17.5354C21.2574 17.5496 21.2472 17.5602 21.2371 17.5744L20.0453 18.7851L18.522 18.1762L21.2954 17.3358C21.2954 17.3392 21.2987 17.3429 21.2987 17.3466C21.2987 17.3504 21.3022 17.3538 21.3022 17.3609C21.3022 17.3646 21.3022 17.3646 21.3022 17.3646C21.3022 17.368 21.3022 17.3717 21.3022 17.3752C21.3022 17.3823 21.3022 17.386 21.3022 17.3928C21.3055 17.4248 21.3019 17.4604 21.2883 17.4926Z" fill="url(#paint11_linear_1808_13268)"/>
<path d="M20.233 20.7258C20.216 20.74 20.1955 20.7506 20.1715 20.7577C20.1682 20.7577 20.1682 20.7577 20.1646 20.7611C20.1099 20.7788 20.0484 20.7754 19.9905 20.7434L18.5183 19.9352V18.1726L20.233 20.7258Z" fill="url(#paint12_linear_1808_13268)"/>
<path d="M18.5183 18.1726L16.8039 20.7258C16.8006 20.722 16.7971 20.7186 16.7938 20.7149C16.7905 20.7115 16.787 20.7078 16.7834 20.7041C16.7801 20.7007 16.7766 20.697 16.7697 20.6898C16.7662 20.6864 16.7629 20.6827 16.7594 20.679C16.7558 20.6753 16.7561 20.6756 16.7561 20.6719C16.7528 20.6684 16.7492 20.6647 16.7492 20.661C16.7424 20.6505 16.7356 20.6397 16.7323 20.6291C16.729 20.6257 16.729 20.6183 16.7254 20.6114C16.7222 20.6043 16.7222 20.6006 16.7186 20.5938C16.7153 20.5866 16.7153 20.5761 16.7153 20.569C16.7153 20.5655 16.7153 20.5581 16.7153 20.5547C16.7153 20.5476 16.7153 20.5405 16.7153 20.5333C16.7153 20.5191 16.7153 20.5048 16.7186 20.4906L16.9986 18.7812L18.5183 18.1726Z" fill="url(#paint13_linear_1808_13268)"/>
<path d="M18.518 18.1724L15.7446 17.332C15.7446 17.3286 15.7479 17.3249 15.7479 17.3212C15.7512 17.3141 15.7512 17.3069 15.7547 17.3035C15.7616 17.2893 15.7684 17.2787 15.7753 17.2679C15.7785 17.2608 15.7821 17.257 15.7889 17.2502C15.7925 17.2468 15.7958 17.2394 15.8026 17.2359C15.8059 17.2325 15.813 17.2254 15.8163 17.2217C15.8195 17.218 15.8264 17.2146 15.8299 17.2109C15.8368 17.2074 15.8436 17.2 15.8504 17.1966C15.8537 17.1932 15.8606 17.1895 15.8674 17.1895C15.8778 17.1861 15.8844 17.1824 15.8947 17.1786C15.898 17.1786 15.9016 17.1752 15.9084 17.1752C15.9152 17.1718 15.9254 17.1718 15.9358 17.1681L17.5821 16.9189L18.518 18.1724Z" fill="url(#paint14_linear_1808_13268)"/>
<path d="M18.5182 18.1727L16.9985 18.785L15.8066 17.5743C15.793 17.5635 15.7861 17.5495 15.776 17.5353C15.7692 17.521 15.7591 17.5067 15.7555 17.4925C15.7522 17.4854 15.7487 17.4782 15.7487 17.4711C15.7418 17.4497 15.7383 17.4249 15.7383 17.4035C15.7383 17.3964 15.7383 17.3893 15.7383 17.3822C15.7383 17.3716 15.7383 17.3645 15.7418 17.3537C15.7418 17.3502 15.7451 17.3465 15.7451 17.3394C15.7451 17.336 15.7484 17.3323 15.7484 17.3289L18.5182 18.1727Z" fill="url(#paint15_linear_1808_13268)"/>
</g>
<g opacity="0.4">
<path d="M23.5239 27.6838C25.6189 26.4654 27.1033 25.6021 27.9771 25.0939Z" fill="url(#paint16_linear_1808_13268)"/>
<path d="M23.5239 27.6838C25.6189 26.4654 27.1033 25.6021 27.9771 25.0939" stroke="white" stroke-opacity="0.62" stroke-width="0.711111" stroke-linecap="round"/>
</g>
</g>
<defs>
<filter id="filter0_d_1808_13268" x="4.52393" y="7.18628" width="28" height="29.6274" filterUnits="userSpaceOnUse" color-interpolation-filters="sRGB">
<feFlood flood-opacity="0" result="BackgroundImageFix"/>
<feColorMatrix in="SourceAlpha" type="matrix" values="0 0 0 0 0 0 0 0 0 0 0 0 0 0 0 0 0 0 127 0" result="hardAlpha"/>
<feOffset dy="4"/>
<feGaussianBlur stdDeviation="2"/>
<feComposite in2="hardAlpha" operator="out"/>
<feColorMatrix type="matrix" values="0 0 0 0 0.512291 0 0 0 0 0.286279 0 0 0 0 1 0 0 0 0.17 0"/>
<feBlend mode="normal" in2="BackgroundImageFix" result="effect1_dropShadow_1808_13268"/>
<feBlend mode="normal" in="SourceGraphic" in2="effect1_dropShadow_1808_13268" result="shape"/>
</filter>
<filter id="filter1_d_1808_13268" x="7.14893" y="6.49878" width="22.75" height="24.3774" filterUnits="userSpaceOnUse" color-interpolation-filters="sRGB">
<feFlood flood-opacity="0" result="BackgroundImageFix"/>
<feColorMatrix in="SourceAlpha" type="matrix" values="0 0 0 0 0 0 0 0 0 0 0 0 0 0 0 0 0 0 127 0" result="hardAlpha"/>
<feOffset dy="0.6875"/>
<feGaussianBlur stdDeviation="0.6875"/>
<feColorMatrix type="matrix" values="0 0 0 0 0.287239 0 0 0 0 0.155102 0 0 0 0 0.511019 0 0 0 1 0"/>
<feBlend mode="normal" in2="BackgroundImageFix" result="effect1_dropShadow_1808_13268"/>
<feBlend mode="normal" in="SourceGraphic" in2="effect1_dropShadow_1808_13268" result="shape"/>
</filter>
<filter id="filter2_d_1808_13268" x="13.5239" y="14" width="10" height="10" filterUnits="userSpaceOnUse" color-interpolation-filters="sRGB">
<feFlood flood-opacity="0" result="BackgroundImageFix"/>
<feColorMatrix in="SourceAlpha" type="matrix" values="0 0 0 0 0 0 0 0 0 0 0 0 0 0 0 0 0 0 127 0" result="hardAlpha"/>
<feOffset dy="1"/>
<feGaussianBlur stdDeviation="1"/>
<feComposite in2="hardAlpha" operator="out"/>
<feColorMatrix type="matrix" values="0 0 0 0 1 0 0 0 0 1 0 0 0 0 1 0 0 0 0.5 0"/>
<feBlend mode="normal" in2="BackgroundImageFix" result="effect1_dropShadow_1808_13268"/>
<feBlend mode="normal" in="SourceGraphic" in2="effect1_dropShadow_1808_13268" result="shape"/>
</filter>
<linearGradient id="paint0_linear_1808_13268" x1="2.07456" y1="5" x2="2.07456" y2="37" gradientUnits="userSpaceOnUse">
<stop stop-color="#B28EFF"/>
<stop offset="0.48" stop-color="#8F6DD6"/>
</linearGradient>
<linearGradient id="paint1_linear_1808_13268" x1="5.52393" y1="4" x2="5.52393" y2="31.7032" gradientUnits="userSpaceOnUse">
<stop offset="0.06" stop-color="#A143FF"/>
<stop offset="0.46" stop-color="#8548F1"/>
<stop offset="0.73" stop-color="#6F3DC6"/>
</linearGradient>
<linearGradient id="paint2_linear_1808_13268" x1="14.5239" y1="5.33398" x2="14.5239" y2="6.96787" gradientUnits="userSpaceOnUse">
<stop offset="0.2" stop-color="#856DB9"/>
<stop offset="0.82" stop-color="#46247C"/>
</linearGradient>
<linearGradient id="paint3_linear_1808_13268" x1="7.05017" y1="7" x2="7.05017" y2="28.5111" gradientUnits="userSpaceOnUse">
<stop offset="0.205" stop-color="#9747FF"/>
<stop offset="0.64" stop-color="#7734CA"/>
</linearGradient>
<linearGradient id="paint4_linear_1808_13268" x1="17.0239" y1="15" x2="19.8096" y2="20.7857" gradientUnits="userSpaceOnUse">
<stop stop-color="#E1E1E1" stop-opacity="0.33"/>
<stop offset="0.195" stop-color="#D1D0D0" stop-opacity="0.32"/>
<stop offset="0.76" stop-color="#D6D5D5" stop-opacity="0.58"/>
<stop offset="1" stop-color="#DBDBDB" stop-opacity="0.31"/>
</linearGradient>
<linearGradient id="paint5_linear_1808_13268" x1="17.0239" y1="15" x2="19.8096" y2="20.7857" gradientUnits="userSpaceOnUse">
<stop stop-color="#D8D8D8"/>
<stop offset="0.195" stop-color="#D1D0D0" stop-opacity="0.32"/>
<stop offset="0.76" stop-color="#D6D5D5" stop-opacity="0.58"/>
<stop offset="1" stop-color="#DBDBDB" stop-opacity="0.31"/>
</linearGradient>
<linearGradient id="paint6_linear_1808_13268" x1="18.0471" y1="15.2281" x2="18.5241" y2="18.2142" gradientUnits="userSpaceOnUse">
<stop stop-color="white" stop-opacity="0.54"/>
<stop offset="1" stop-color="#696969" stop-opacity="0.71"/>
</linearGradient>
<linearGradient id="paint7_linear_1808_13268" x1="21.1776" y1="16.9163" x2="18.6388" y2="18.1732" gradientUnits="userSpaceOnUse">
<stop stop-color="#ECE5E7" stop-opacity="0.14"/>
<stop offset="1" stop-color="#868283" stop-opacity="0.46"/>
</linearGradient>
<linearGradient id="paint8_linear_1808_13268" x1="19.167" y1="18.4285" x2="20.2434" y2="20.7258" gradientUnits="userSpaceOnUse">
<stop stop-color="#E1DCE2" stop-opacity="0.55"/>
<stop offset="1" stop-color="#B0B0B0" stop-opacity="0.5"/>
</linearGradient>
<linearGradient id="paint9_linear_1808_13268" x1="18.3095" y1="18.2143" x2="17.6666" y2="20.5714" gradientUnits="userSpaceOnUse">
<stop stop-color="#E7E6E7" stop-opacity="0.56"/>
<stop offset="1" stop-color="#CBC5CB" stop-opacity="0.79"/>
</linearGradient>
<linearGradient id="paint10_linear_1808_13268" x1="19.1668" y1="15.2142" x2="18.524" y2="18.2142" gradientUnits="userSpaceOnUse">
<stop offset="0.0246486" stop-color="#FAECDB" stop-opacity="0.49"/>
<stop offset="1" stop-color="#948C82" stop-opacity="0.38"/>
</linearGradient>
<linearGradient id="paint11_linear_1808_13268" x1="21.3098" y1="17.7857" x2="18.9526" y2="18.2143" gradientUnits="userSpaceOnUse">
<stop stop-color="#DAD3D9" stop-opacity="0.64"/>
<stop offset="1" stop-color="#B4B1B3" stop-opacity="0.45"/>
</linearGradient>
<linearGradient id="paint12_linear_1808_13268" x1="18.524" y1="18.2143" x2="19.8097" y2="20.7857" gradientUnits="userSpaceOnUse">
<stop stop-color="#D5CFD6" stop-opacity="0.64"/>
<stop offset="1" stop-color="#A9A2AA" stop-opacity="0.43"/>
</linearGradient>
<linearGradient id="paint13_linear_1808_13268" x1="18.237" y1="18.1726" x2="16.5955" y2="20.5714" gradientUnits="userSpaceOnUse">
<stop stop-color="#D5D1D7" stop-opacity="0.92"/>
<stop offset="1" stop-color="#A5A0A8" stop-opacity="0.34"/>
</linearGradient>
<linearGradient id="paint14_linear_1808_13268" x1="16.5952" y1="16.9286" x2="18.3095" y2="18" gradientUnits="userSpaceOnUse">
<stop stop-color="#D6D1D8" stop-opacity="0.44"/>
<stop offset="1" stop-color="#ABA5AD" stop-opacity="0.24"/>
</linearGradient>
<linearGradient id="paint15_linear_1808_13268" x1="15.7665" y1="17.8609" x2="18.49" y2="18.6005" gradientUnits="userSpaceOnUse">
<stop stop-color="#C3BFC5" stop-opacity="0.55"/>
<stop offset="1" stop-color="#E1E1E1" stop-opacity="0.45"/>
</linearGradient>
<linearGradient id="paint16_linear_1808_13268" x1="23.5813" y1="25" x2="23.5239" y2="27.6838" gradientUnits="userSpaceOnUse">
<stop offset="0.2" stop-color="#856DB9"/>
<stop offset="0.82" stop-color="#46247C"/>
</linearGradient>
<clipPath id="clip0_1808_13268">
<rect width="36" height="36" fill="white" transform="translate(0.523926)"/>
</clipPath>
</defs>
</svg>
