<svg width="37" height="36" viewBox="0 0 37 36" fill="none" xmlns="http://www.w3.org/2000/svg">
<g opacity="0.7" clip-path="url(#clip0_1808_13335)">
<path fill-rule="evenodd" clip-rule="evenodd" d="M17.1127 2.80642C17.9872 2.30672 19.0607 2.30672 19.9352 2.80642L31.0907 9.18103C31.977 9.68746 32.5239 10.6299 32.5239 11.6507V24.3493C32.5239 25.3701 31.977 26.3125 31.0907 26.819L19.9352 33.1936C19.0607 33.6933 17.9872 33.6933 17.1127 33.1936L5.95713 26.819C5.07087 26.3125 4.52393 25.3701 4.52393 24.3493V11.6507C4.52393 10.6299 5.07087 9.68746 5.95713 9.18103L17.1127 2.80642Z" fill="url(#paint0_linear_1808_13335)"/>
<path d="M19.6749 4.29684C18.95 3.90105 18.0568 3.90105 17.3318 4.29684L6.69548 10.1148C5.97052 10.5105 5.52393 11.242 5.52393 12.0336L5.52393 23.6695C5.52393 24.4611 5.97052 25.1925 6.69548 25.5883L17.3488 31.7032C18.0737 32.0989 18.9669 32.0989 19.6919 31.7032L30.3524 25.5883C31.0773 25.1925 31.5239 24.4611 31.5239 23.6695V12.0336C31.5239 11.242 31.0773 10.5105 30.3524 10.1148L19.6749 4.29684Z" fill="url(#paint1_linear_1808_13335)" fill-opacity="0.7"/>
<path d="M17.3539 5.33398C17.3539 5.33398 15.3569 6.48694 14.5239 6.96787Z" fill="url(#paint2_linear_1808_13335)"/>
<path d="M17.3539 5.33398C17.3539 5.33398 15.3569 6.48694 14.5239 6.96787" stroke="white" stroke-opacity="0.28" stroke-width="0.711111" stroke-linecap="round"/>
<g filter="url(#filter0_d_1808_13335)">
<g filter="url(#filter1_d_1808_13335)">
<path fill-rule="evenodd" clip-rule="evenodd" d="M17.8727 7.35023C18.2793 7.13155 18.7685 7.13155 19.1752 7.35023L27.8002 11.9886C28.2459 12.2283 28.5239 12.6935 28.5239 13.1996V22.8004C28.5239 23.3065 28.2459 23.7717 27.8002 24.0114L19.1752 28.6498C18.7685 28.8685 18.2793 28.8685 17.8727 28.6498L9.24768 24.0114C8.80195 23.7717 8.52393 23.3065 8.52393 22.8004V13.1996C8.52393 12.6935 8.80195 12.2283 9.24768 11.9886L17.8727 7.35023Z" fill="url(#paint3_linear_1808_13335)"/>
</g>
</g>
<g opacity="0.4">
<path d="M23.5239 27.6838C25.6189 26.4654 27.1033 25.6021 27.9771 25.0939Z" fill="url(#paint4_linear_1808_13335)"/>
<path d="M23.5239 27.6838C25.6189 26.4654 27.1033 25.6021 27.9771 25.0939" stroke="white" stroke-opacity="0.62" stroke-width="0.711111" stroke-linecap="round"/>
</g>
<g filter="url(#filter2_d_1808_13335)">
<path d="M10.9406 19.75C10.9054 19.75 10.8693 19.7396 10.8312 19.7136L10.8239 19.706L10.8126 19.6932L10.8087 19.6901L10.8043 19.6854L10.803 19.6848C10.8019 19.6836 10.8007 19.6822 10.7994 19.6807C10.7982 19.6791 10.7969 19.6773 10.7955 19.6756C10.7938 19.6733 10.7918 19.6707 10.7895 19.668L10.787 19.6639L10.7801 19.6531L10.7801 19.6531L10.7793 19.6518C10.7762 19.6469 10.7734 19.6418 10.7672 19.629C10.7657 19.6245 10.7642 19.6201 10.7628 19.6158L10.7601 19.6062C10.759 19.6024 10.7575 19.5967 10.7557 19.5905C10.7547 19.5861 10.7536 19.5804 10.7517 19.5708C10.7516 19.57 10.7514 19.5692 10.7513 19.5684C10.751 19.5664 10.7507 19.5645 10.7505 19.5628L10.7496 19.5575C10.7494 19.554 10.7492 19.5507 10.7489 19.5479C10.7483 19.5414 10.7477 19.5354 10.7473 19.5318C10.7477 19.5259 10.7487 19.516 10.7514 19.4947L11.0136 17.9043L11.0343 17.7789L10.9452 17.6884L9.83632 16.5607C9.82537 16.5492 9.8151 16.5366 9.80742 16.5256C9.79577 16.5073 9.79224 16.4997 9.79081 16.4961C9.79008 16.4939 9.78941 16.492 9.78883 16.4904L9.78573 16.4819L9.78466 16.479L9.78422 16.4779L9.78381 16.4762C9.77687 16.4476 9.77393 16.4251 9.77393 16.4035V16.4034V16.4033V16.4032V16.4031V16.4031V16.403V16.4029V16.4028V16.4027V16.4026V16.4026V16.4025V16.4024V16.4023V16.4022V16.4022V16.4021V16.402V16.4019V16.4018V16.4017V16.4017V16.4016V16.4015V16.4014V16.4013V16.4013V16.4012V16.4011V16.401V16.4009V16.4008V16.4008V16.4007V16.4006V16.4005V16.4004V16.4004V16.4003V16.4002V16.4001V16.4V16.4V16.3999V16.3998V16.3997V16.3996V16.3996V16.3995V16.3994V16.3993V16.3992V16.3992V16.3991V16.399V16.3989V16.3988V16.3988V16.3987V16.3986V16.3985V16.3984V16.3984V16.3983V16.3982V16.3981V16.3981V16.398V16.3979V16.3978V16.3977V16.3977V16.3976V16.3975V16.3974V16.3974V16.3973V16.3972V16.3971V16.397V16.397V16.3969V16.3968V16.3967V16.3967V16.3966V16.3965V16.3964V16.3963V16.3963V16.3962V16.3961V16.396V16.396V16.3959V16.3958V16.3957V16.3956V16.3956V16.3955V16.3954V16.3953V16.3953V16.3952V16.3951V16.395V16.395V16.3949V16.3948V16.3947V16.3947V16.3946V16.3945V16.3944V16.3944V16.3943V16.3942V16.3941V16.394V16.394V16.3939V16.3938V16.3937V16.3937V16.3936V16.3935V16.3934V16.3934V16.3933V16.3932V16.3931V16.3931V16.393V16.3929V16.3928V16.3928V16.3927V16.3926V16.3925V16.3925V16.3924V16.3923V16.3922V16.3922V16.3921V16.392V16.3919V16.3919V16.3918V16.3917V16.3916V16.3916V16.3915V16.3914V16.3913V16.3913V16.3912V16.3911V16.391V16.391V16.3909V16.3908V16.3908V16.3907V16.3906V16.3905V16.3905V16.3904V16.3903V16.3902V16.3902V16.3901V16.39V16.3899V16.3899V16.3898V16.3897V16.3896V16.3896V16.3895V16.3894V16.3893V16.3893V16.3892V16.3891V16.3891V16.389V16.3889V16.3888V16.3888V16.3887V16.3886V16.3885V16.3885V16.3884V16.3883V16.3882V16.3882V16.3881V16.388V16.388V16.3879V16.3878V16.3877V16.3877V16.3876V16.3875V16.3874V16.3874V16.3873V16.3872V16.3872V16.3871V16.387V16.3869V16.3869V16.3868V16.3867V16.3866V16.3866V16.3865V16.3864V16.3864V16.3863V16.3862V16.3861V16.3861V16.386V16.3859V16.3858V16.3858V16.3857V16.3856V16.3855V16.3855V16.3854V16.3853V16.3853V16.3852V16.3851V16.385V16.385V16.3849V16.3848V16.3847V16.3847V16.3846V16.3845V16.3845V16.3844V16.3843V16.3842V16.3842V16.3841V16.384V16.384V16.3839V16.3838V16.3837V16.3837V16.3836V16.3835V16.3834V16.3834V16.3833V16.3832V16.3832V16.3831V16.383V16.3829V16.3829V16.3828V16.3827V16.3826V16.3826V16.3825V16.3824V16.3824V16.3823V16.3822V16.3821V16.3821V16.382V16.3819V16.3818V16.3818V16.3817V16.3816V16.3816V16.3815V16.3814V16.3813V16.3813V16.3812V16.3811V16.381V16.381V16.3809V16.3808V16.3807V16.3807V16.3806V16.3805V16.3805V16.3804V16.3803V16.3802V16.3802V16.3801V16.38V16.3799V16.3799V16.3798V16.3797V16.3797V16.3796V16.3795V16.3794V16.3794V16.3793V16.3792V16.3791V16.3791V16.379V16.3789V16.3788V16.3788V16.3787V16.3786V16.3786V16.3785V16.3784V16.3783V16.3783V16.3782V16.3781V16.378V16.378V16.3779V16.3778V16.3777V16.3777V16.3776V16.3775V16.3774V16.3774V16.3773V16.3772V16.3771V16.3771V16.377V16.3769V16.3769V16.3768V16.3767V16.3766V16.3766V16.3765V16.3764V16.3763V16.3763V16.3762V16.3761V16.376V16.376V16.3759V16.3758V16.3757V16.3757V16.3756V16.3755V16.3754V16.3754V16.3753V16.3752V16.3751V16.3751V16.375V16.3749V16.3748V16.3748V16.3747V16.3746V16.3745V16.3745V16.3744V16.3743V16.3742V16.3742V16.3741V16.374V16.3739V16.3739V16.3738V16.3737V16.3736V16.3736V16.3735V16.3734V16.3733V16.3732V16.3732V16.3731V16.373V16.3729V16.3729V16.3728V16.3727V16.3726V16.3726V16.3725V16.3724V16.3723V16.3723V16.3722V16.3721V16.372V16.3719V16.3719V16.3718V16.3717V16.3716V16.3716V16.3715V16.3714V16.3713V16.3712V16.3712V16.3711V16.371V16.3709V16.3709L9.78404 16.3393V16.3297L9.83328 16.2463L9.86042 16.218C9.86759 16.2139 9.87378 16.21 9.87848 16.2068C9.88563 16.203 9.89455 16.198 9.90412 16.1922C9.90555 16.1916 9.90728 16.191 9.90932 16.1902L9.92202 16.187C9.92812 16.1855 9.93287 16.1843 9.93693 16.1833C9.94272 16.1818 9.94708 16.1807 9.95186 16.1795L11.4798 15.9494L11.6121 15.9295L11.6689 15.8083L12.3451 14.3662C12.3451 14.3662 12.3451 14.3661 12.3451 14.3661C12.381 14.2899 12.4488 14.25 12.5183 14.25C12.5671 14.25 12.6182 14.2706 12.657 14.3099C12.6593 14.3127 12.6613 14.3151 12.6629 14.3172L12.6696 14.3253L12.6729 14.3305C12.6885 14.3549 12.693 14.3625 12.695 14.3669L12.6952 14.3672L13.3818 15.8129L13.4388 15.933L13.5703 15.9528L15.1037 16.1843L15.1037 16.1843L15.1051 16.1845C15.174 16.1945 15.2379 16.2458 15.263 16.3277C15.2646 16.3371 15.2668 16.3476 15.27 16.3586V16.3643L15.273 16.3777L15.2736 16.3881C15.2754 16.4226 15.2697 16.4551 15.2591 16.4799L15.2588 16.4798L15.2542 16.4923C15.2533 16.4947 15.2524 16.4971 15.251 16.4998L15.2381 16.5187C15.2294 16.5314 15.218 16.5454 15.207 16.557L14.0982 17.6846L14.009 17.7753L14.0298 17.9007L14.2926 19.4911C14.3061 19.5792 14.2735 19.659 14.2123 19.7069C14.1945 19.7196 14.1803 19.7277 14.171 19.7321L14.1553 19.7372C14.1346 19.7439 14.1159 19.7466 14.0987 19.7466C14.068 19.7466 14.0377 19.739 14.0108 19.7242L14.0104 19.724L12.6375 18.9725L12.5174 18.9068L12.3974 18.9725L11.0245 19.724L11.0167 19.7282L11.0093 19.733C10.9952 19.7421 10.9722 19.75 10.9406 19.75ZM14.138 19.7451L14.1394 19.7444C14.1389 19.7446 14.1382 19.745 14.138 19.7451ZM9.88773 16.2005C9.88843 16.2 9.88827 16.2001 9.88742 16.2007L9.88773 16.2005Z" fill="white" stroke="url(#paint5_linear_1808_13335)" stroke-width="0.5"/>
<path d="M10.9406 19.75C10.9054 19.75 10.8693 19.7396 10.8312 19.7136L10.8239 19.706L10.8126 19.6932L10.8087 19.6901L10.8043 19.6854L10.803 19.6848C10.8019 19.6836 10.8007 19.6822 10.7994 19.6807C10.7982 19.6791 10.7969 19.6773 10.7955 19.6756C10.7938 19.6733 10.7918 19.6707 10.7895 19.668L10.787 19.6639L10.7801 19.6531L10.7801 19.6531L10.7793 19.6518C10.7762 19.6469 10.7734 19.6418 10.7672 19.629C10.7657 19.6245 10.7642 19.6201 10.7628 19.6158L10.7601 19.6062C10.759 19.6024 10.7575 19.5967 10.7557 19.5905C10.7547 19.5861 10.7536 19.5804 10.7517 19.5708C10.7516 19.57 10.7514 19.5692 10.7513 19.5684C10.751 19.5664 10.7507 19.5645 10.7505 19.5628L10.7496 19.5575C10.7494 19.554 10.7492 19.5507 10.7489 19.5479C10.7483 19.5414 10.7477 19.5354 10.7473 19.5318C10.7477 19.5259 10.7487 19.516 10.7514 19.4947L11.0136 17.9043L11.0343 17.7789L10.9452 17.6884L9.83632 16.5607C9.82537 16.5492 9.8151 16.5366 9.80742 16.5256C9.79577 16.5073 9.79224 16.4997 9.79081 16.4961C9.79008 16.4939 9.78941 16.492 9.78883 16.4904L9.78573 16.4819L9.78466 16.479L9.78422 16.4779L9.78381 16.4762C9.77687 16.4476 9.77393 16.4251 9.77393 16.4035V16.4034V16.4033V16.4032V16.4031V16.4031V16.403V16.4029V16.4028V16.4027V16.4026V16.4026V16.4025V16.4024V16.4023V16.4022V16.4022V16.4021V16.402V16.4019V16.4018V16.4017V16.4017V16.4016V16.4015V16.4014V16.4013V16.4013V16.4012V16.4011V16.401V16.4009V16.4008V16.4008V16.4007V16.4006V16.4005V16.4004V16.4004V16.4003V16.4002V16.4001V16.4V16.4V16.3999V16.3998V16.3997V16.3996V16.3996V16.3995V16.3994V16.3993V16.3992V16.3992V16.3991V16.399V16.3989V16.3988V16.3988V16.3987V16.3986V16.3985V16.3984V16.3984V16.3983V16.3982V16.3981V16.3981V16.398V16.3979V16.3978V16.3977V16.3977V16.3976V16.3975V16.3974V16.3974V16.3973V16.3972V16.3971V16.397V16.397V16.3969V16.3968V16.3967V16.3967V16.3966V16.3965V16.3964V16.3963V16.3963V16.3962V16.3961V16.396V16.396V16.3959V16.3958V16.3957V16.3956V16.3956V16.3955V16.3954V16.3953V16.3953V16.3952V16.3951V16.395V16.395V16.3949V16.3948V16.3947V16.3947V16.3946V16.3945V16.3944V16.3944V16.3943V16.3942V16.3941V16.394V16.394V16.3939V16.3938V16.3937V16.3937V16.3936V16.3935V16.3934V16.3934V16.3933V16.3932V16.3931V16.3931V16.393V16.3929V16.3928V16.3928V16.3927V16.3926V16.3925V16.3925V16.3924V16.3923V16.3922V16.3922V16.3921V16.392V16.3919V16.3919V16.3918V16.3917V16.3916V16.3916V16.3915V16.3914V16.3913V16.3913V16.3912V16.3911V16.391V16.391V16.3909V16.3908V16.3908V16.3907V16.3906V16.3905V16.3905V16.3904V16.3903V16.3902V16.3902V16.3901V16.39V16.3899V16.3899V16.3898V16.3897V16.3896V16.3896V16.3895V16.3894V16.3893V16.3893V16.3892V16.3891V16.3891V16.389V16.3889V16.3888V16.3888V16.3887V16.3886V16.3885V16.3885V16.3884V16.3883V16.3882V16.3882V16.3881V16.388V16.388V16.3879V16.3878V16.3877V16.3877V16.3876V16.3875V16.3874V16.3874V16.3873V16.3872V16.3872V16.3871V16.387V16.3869V16.3869V16.3868V16.3867V16.3866V16.3866V16.3865V16.3864V16.3864V16.3863V16.3862V16.3861V16.3861V16.386V16.3859V16.3858V16.3858V16.3857V16.3856V16.3855V16.3855V16.3854V16.3853V16.3853V16.3852V16.3851V16.385V16.385V16.3849V16.3848V16.3847V16.3847V16.3846V16.3845V16.3845V16.3844V16.3843V16.3842V16.3842V16.3841V16.384V16.384V16.3839V16.3838V16.3837V16.3837V16.3836V16.3835V16.3834V16.3834V16.3833V16.3832V16.3832V16.3831V16.383V16.3829V16.3829V16.3828V16.3827V16.3826V16.3826V16.3825V16.3824V16.3824V16.3823V16.3822V16.3821V16.3821V16.382V16.3819V16.3818V16.3818V16.3817V16.3816V16.3816V16.3815V16.3814V16.3813V16.3813V16.3812V16.3811V16.381V16.381V16.3809V16.3808V16.3807V16.3807V16.3806V16.3805V16.3805V16.3804V16.3803V16.3802V16.3802V16.3801V16.38V16.3799V16.3799V16.3798V16.3797V16.3797V16.3796V16.3795V16.3794V16.3794V16.3793V16.3792V16.3791V16.3791V16.379V16.3789V16.3788V16.3788V16.3787V16.3786V16.3786V16.3785V16.3784V16.3783V16.3783V16.3782V16.3781V16.378V16.378V16.3779V16.3778V16.3777V16.3777V16.3776V16.3775V16.3774V16.3774V16.3773V16.3772V16.3771V16.3771V16.377V16.3769V16.3769V16.3768V16.3767V16.3766V16.3766V16.3765V16.3764V16.3763V16.3763V16.3762V16.3761V16.376V16.376V16.3759V16.3758V16.3757V16.3757V16.3756V16.3755V16.3754V16.3754V16.3753V16.3752V16.3751V16.3751V16.375V16.3749V16.3748V16.3748V16.3747V16.3746V16.3745V16.3745V16.3744V16.3743V16.3742V16.3742V16.3741V16.374V16.3739V16.3739V16.3738V16.3737V16.3736V16.3736V16.3735V16.3734V16.3733V16.3732V16.3732V16.3731V16.373V16.3729V16.3729V16.3728V16.3727V16.3726V16.3726V16.3725V16.3724V16.3723V16.3723V16.3722V16.3721V16.372V16.3719V16.3719V16.3718V16.3717V16.3716V16.3716V16.3715V16.3714V16.3713V16.3712V16.3712V16.3711V16.371V16.3709V16.3709L9.78404 16.3393V16.3297L9.83328 16.2463L9.86042 16.218C9.86759 16.2139 9.87378 16.21 9.87848 16.2068C9.88563 16.203 9.89455 16.198 9.90412 16.1922C9.90555 16.1916 9.90728 16.191 9.90932 16.1902L9.92202 16.187C9.92812 16.1855 9.93287 16.1843 9.93693 16.1833C9.94272 16.1818 9.94708 16.1807 9.95186 16.1795L11.4798 15.9494L11.6121 15.9295L11.6689 15.8083L12.3451 14.3662C12.3451 14.3662 12.3451 14.3661 12.3451 14.3661C12.381 14.2899 12.4488 14.25 12.5183 14.25C12.5671 14.25 12.6182 14.2706 12.657 14.3099C12.6593 14.3127 12.6613 14.3151 12.6629 14.3172L12.6696 14.3253L12.6729 14.3305C12.6885 14.3549 12.693 14.3625 12.695 14.3669L12.6952 14.3672L13.3818 15.8129L13.4388 15.933L13.5703 15.9528L15.1037 16.1843L15.1037 16.1843L15.1051 16.1845C15.174 16.1945 15.2379 16.2458 15.263 16.3277C15.2646 16.3371 15.2668 16.3476 15.27 16.3586V16.3643L15.273 16.3777L15.2736 16.3881C15.2754 16.4226 15.2697 16.4551 15.2591 16.4799L15.2588 16.4798L15.2542 16.4923C15.2533 16.4947 15.2524 16.4971 15.251 16.4998L15.2381 16.5187C15.2294 16.5314 15.218 16.5454 15.207 16.557L14.0982 17.6846L14.009 17.7753L14.0298 17.9007L14.2926 19.4911C14.3061 19.5792 14.2735 19.659 14.2123 19.7069C14.1945 19.7196 14.1803 19.7277 14.171 19.7321L14.1553 19.7372C14.1346 19.7439 14.1159 19.7466 14.0987 19.7466C14.068 19.7466 14.0377 19.739 14.0108 19.7242L14.0104 19.724L12.6375 18.9725L12.5174 18.9068L12.3974 18.9725L11.0245 19.724L11.0167 19.7282L11.0093 19.733C10.9952 19.7421 10.9722 19.75 10.9406 19.75ZM14.138 19.7451L14.1394 19.7444C14.1389 19.7446 14.1382 19.745 14.138 19.7451ZM9.88773 16.2005C9.88843 16.2 9.88827 16.2001 9.88742 16.2007L9.88773 16.2005Z" stroke="url(#paint6_linear_1808_13335)" stroke-width="0.5"/>
<path d="M12.5185 14.2281V17.173L11.5757 15.9161L12.3134 14.3601C12.358 14.2746 12.44 14.2281 12.5185 14.2281Z" fill="url(#paint7_linear_1808_13335)" fill-opacity="0.38"/>
<path d="M15.2949 16.3328L12.5215 17.1732L13.464 15.9163L15.1103 16.1654C15.2027 16.1831 15.2675 16.2507 15.2949 16.3328Z" fill="url(#paint8_linear_1808_13335)"/>
<path d="M14.233 19.7258L12.5186 17.1726L14.0418 17.7815L14.3218 19.4908C14.3421 19.5906 14.301 19.6759 14.233 19.7258Z" fill="url(#paint9_linear_1808_13335)"/>
<path d="M12.5181 17.1726V18.9352L11.046 19.7434C10.9607 19.7896 10.8718 19.7754 10.8035 19.7258L12.5181 17.1726Z" fill="url(#paint10_linear_1808_13335)"/>
<path d="M13.4611 15.9161L12.5183 17.173V14.2281C12.5798 14.2281 12.6414 14.253 12.6856 14.3028C12.6925 14.31 12.6993 14.3205 12.7062 14.3313C12.713 14.3422 12.7198 14.3527 12.7231 14.3633L13.4611 15.9161Z" fill="url(#paint11_linear_1808_13335)" fill-opacity="0.6"/>
<path d="M15.2883 16.4925C15.2814 16.5067 15.2746 16.521 15.2678 16.5352C15.2574 16.5495 15.2472 16.56 15.2371 16.5743L14.0453 17.785L12.522 17.1761L15.2954 16.3357C15.2954 16.3391 15.2987 16.3428 15.2987 16.3465C15.2987 16.3502 15.3022 16.3537 15.3022 16.3608C15.3022 16.3645 15.3022 16.3645 15.3022 16.3645C15.3022 16.3679 15.3022 16.3716 15.3022 16.375C15.3022 16.3822 15.3022 16.3859 15.3022 16.3927C15.3055 16.4246 15.3019 16.4603 15.2883 16.4925Z" fill="url(#paint12_linear_1808_13335)"/>
<path d="M14.233 19.7258C14.216 19.74 14.1955 19.7506 14.1715 19.7577C14.1682 19.7577 14.1682 19.7577 14.1646 19.7611C14.1099 19.7788 14.0484 19.7754 13.9905 19.7434L12.5183 18.9352V17.1726L14.233 19.7258Z" fill="url(#paint13_linear_1808_13335)"/>
<path d="M12.5183 17.1726L10.8039 19.7258C10.8006 19.722 10.7971 19.7186 10.7938 19.7149C10.7905 19.7115 10.787 19.7078 10.7834 19.7041C10.7801 19.7007 10.7766 19.697 10.7697 19.6898C10.7662 19.6864 10.7629 19.6827 10.7594 19.679C10.7558 19.6753 10.7561 19.6756 10.7561 19.6719C10.7528 19.6684 10.7492 19.6647 10.7492 19.661C10.7424 19.6505 10.7356 19.6397 10.7323 19.6291C10.729 19.6257 10.729 19.6183 10.7254 19.6114C10.7222 19.6043 10.7222 19.6006 10.7186 19.5938C10.7153 19.5866 10.7153 19.5761 10.7153 19.569C10.7153 19.5655 10.7153 19.5581 10.7153 19.5547C10.7153 19.5476 10.7153 19.5405 10.7153 19.5333C10.7153 19.5191 10.7153 19.5048 10.7186 19.4906L10.9986 17.7812L12.5183 17.1726Z" fill="url(#paint14_linear_1808_13335)"/>
<path d="M12.5183 17.1724L9.74487 16.332C9.74487 16.3286 9.74815 16.3249 9.74815 16.3212C9.75144 16.3141 9.75144 16.3069 9.75499 16.3035C9.76183 16.2893 9.76866 16.2787 9.7755 16.2679C9.77878 16.2608 9.78233 16.257 9.78917 16.2502C9.79272 16.2468 9.796 16.2394 9.80284 16.2359C9.80612 16.2325 9.81323 16.2254 9.81651 16.2217C9.81979 16.218 9.82663 16.2146 9.83018 16.2109C9.83702 16.2074 9.84385 16.2 9.85069 16.1966C9.85397 16.1932 9.86081 16.1895 9.86764 16.1895C9.87803 16.1861 9.8846 16.1824 9.89499 16.1786C9.89827 16.1786 9.90182 16.1752 9.90866 16.1752C9.91549 16.1718 9.92561 16.1718 9.936 16.1681L11.5823 15.9189L12.5183 17.1724Z" fill="url(#paint15_linear_1808_13335)"/>
<path d="M12.518 17.1727L10.9983 17.785L9.80639 16.5743C9.79272 16.5635 9.78589 16.5495 9.77577 16.5353C9.76893 16.521 9.75882 16.5067 9.75526 16.4925C9.75198 16.4854 9.74843 16.4782 9.74843 16.4711C9.74159 16.4497 9.73804 16.4249 9.73804 16.4035C9.73804 16.3964 9.73804 16.3893 9.73804 16.3822C9.73804 16.3716 9.73804 16.3645 9.74159 16.3537C9.74159 16.3502 9.74487 16.3465 9.74487 16.3394C9.74487 16.336 9.74815 16.3323 9.74815 16.3289L12.518 17.1727Z" fill="url(#paint16_linear_1808_13335)"/>
</g>
<g filter="url(#filter3_d_1808_13335)">
<path d="M22.9406 19.75C22.9054 19.75 22.8693 19.7396 22.8312 19.7136L22.8239 19.706L22.8126 19.6932L22.8087 19.6901L22.8043 19.6854L22.803 19.6848C22.8019 19.6836 22.8007 19.6822 22.7994 19.6807C22.7982 19.6791 22.7969 19.6773 22.7955 19.6756C22.7938 19.6733 22.7918 19.6707 22.7895 19.668L22.787 19.6639L22.7801 19.6531L22.7801 19.6531L22.7793 19.6518C22.7762 19.6469 22.7734 19.6418 22.7672 19.629C22.7657 19.6245 22.7642 19.6201 22.7628 19.6158L22.7601 19.6062C22.759 19.6024 22.7575 19.5967 22.7557 19.5905C22.7547 19.5861 22.7536 19.5804 22.7517 19.5708C22.7516 19.57 22.7514 19.5692 22.7513 19.5684C22.751 19.5664 22.7507 19.5645 22.7505 19.5628L22.7496 19.5575C22.7494 19.554 22.7492 19.5507 22.7489 19.5479C22.7483 19.5414 22.7477 19.5354 22.7473 19.5318C22.7477 19.5259 22.7487 19.516 22.7514 19.4947L23.0136 17.9043L23.0343 17.7789L22.9452 17.6884L21.8363 16.5607C21.8254 16.5492 21.8151 16.5366 21.8074 16.5256C21.7958 16.5073 21.7922 16.4997 21.7908 16.4961C21.7901 16.4939 21.7894 16.492 21.7888 16.4904L21.7857 16.4819L21.7847 16.479L21.7842 16.4779L21.7838 16.4762C21.7769 16.4476 21.7739 16.4251 21.7739 16.4035V16.4034V16.4033V16.4032V16.4031V16.4031V16.403V16.4029V16.4028V16.4027V16.4026V16.4026V16.4025V16.4024V16.4023V16.4022V16.4022V16.4021V16.402V16.4019V16.4018V16.4017V16.4017V16.4016V16.4015V16.4014V16.4013V16.4013V16.4012V16.4011V16.401V16.4009V16.4008V16.4008V16.4007V16.4006V16.4005V16.4004V16.4004V16.4003V16.4002V16.4001V16.4V16.4V16.3999V16.3998V16.3997V16.3996V16.3996V16.3995V16.3994V16.3993V16.3992V16.3992V16.3991V16.399V16.3989V16.3988V16.3988V16.3987V16.3986V16.3985V16.3984V16.3984V16.3983V16.3982V16.3981V16.3981V16.398V16.3979V16.3978V16.3977V16.3977V16.3976V16.3975V16.3974V16.3974V16.3973V16.3972V16.3971V16.397V16.397V16.3969V16.3968V16.3967V16.3967V16.3966V16.3965V16.3964V16.3963V16.3963V16.3962V16.3961V16.396V16.396V16.3959V16.3958V16.3957V16.3956V16.3956V16.3955V16.3954V16.3953V16.3953V16.3952V16.3951V16.395V16.395V16.3949V16.3948V16.3947V16.3947V16.3946V16.3945V16.3944V16.3944V16.3943V16.3942V16.3941V16.394V16.394V16.3939V16.3938V16.3937V16.3937V16.3936V16.3935V16.3934V16.3934V16.3933V16.3932V16.3931V16.3931V16.393V16.3929V16.3928V16.3928V16.3927V16.3926V16.3925V16.3925V16.3924V16.3923V16.3922V16.3922V16.3921V16.392V16.3919V16.3919V16.3918V16.3917V16.3916V16.3916V16.3915V16.3914V16.3913V16.3913V16.3912V16.3911V16.391V16.391V16.3909V16.3908V16.3908V16.3907V16.3906V16.3905V16.3905V16.3904V16.3903V16.3902V16.3902V16.3901V16.39V16.3899V16.3899V16.3898V16.3897V16.3896V16.3896V16.3895V16.3894V16.3893V16.3893V16.3892V16.3891V16.3891V16.389V16.3889V16.3888V16.3888V16.3887V16.3886V16.3885V16.3885V16.3884V16.3883V16.3882V16.3882V16.3881V16.388V16.388V16.3879V16.3878V16.3877V16.3877V16.3876V16.3875V16.3874V16.3874V16.3873V16.3872V16.3872V16.3871V16.387V16.3869V16.3869V16.3868V16.3867V16.3866V16.3866V16.3865V16.3864V16.3864V16.3863V16.3862V16.3861V16.3861V16.386V16.3859V16.3858V16.3858V16.3857V16.3856V16.3855V16.3855V16.3854V16.3853V16.3853V16.3852V16.3851V16.385V16.385V16.3849V16.3848V16.3847V16.3847V16.3846V16.3845V16.3845V16.3844V16.3843V16.3842V16.3842V16.3841V16.384V16.384V16.3839V16.3838V16.3837V16.3837V16.3836V16.3835V16.3834V16.3834V16.3833V16.3832V16.3832V16.3831V16.383V16.3829V16.3829V16.3828V16.3827V16.3826V16.3826V16.3825V16.3824V16.3824V16.3823V16.3822V16.3821V16.3821V16.382V16.3819V16.3818V16.3818V16.3817V16.3816V16.3816V16.3815V16.3814V16.3813V16.3813V16.3812V16.3811V16.381V16.381V16.3809V16.3808V16.3807V16.3807V16.3806V16.3805V16.3805V16.3804V16.3803V16.3802V16.3802V16.3801V16.38V16.3799V16.3799V16.3798V16.3797V16.3797V16.3796V16.3795V16.3794V16.3794V16.3793V16.3792V16.3791V16.3791V16.379V16.3789V16.3788V16.3788V16.3787V16.3786V16.3786V16.3785V16.3784V16.3783V16.3783V16.3782V16.3781V16.378V16.378V16.3779V16.3778V16.3777V16.3777V16.3776V16.3775V16.3774V16.3774V16.3773V16.3772V16.3771V16.3771V16.377V16.3769V16.3769V16.3768V16.3767V16.3766V16.3766V16.3765V16.3764V16.3763V16.3763V16.3762V16.3761V16.376V16.376V16.3759V16.3758V16.3757V16.3757V16.3756V16.3755V16.3754V16.3754V16.3753V16.3752V16.3751V16.3751V16.375V16.3749V16.3748V16.3748V16.3747V16.3746V16.3745V16.3745V16.3744V16.3743V16.3742V16.3742V16.3741V16.374V16.3739V16.3739V16.3738V16.3737V16.3736V16.3736V16.3735V16.3734V16.3733V16.3732V16.3732V16.3731V16.373V16.3729V16.3729V16.3728V16.3727V16.3726V16.3726V16.3725V16.3724V16.3723V16.3723V16.3722V16.3721V16.372V16.3719V16.3719V16.3718V16.3717V16.3716V16.3716V16.3715V16.3714V16.3713V16.3712V16.3712V16.3711V16.371V16.3709V16.3709L21.784 16.3393V16.3297L21.8333 16.2463L21.8604 16.218C21.8676 16.2139 21.8738 16.21 21.8785 16.2068C21.8856 16.203 21.8946 16.198 21.9041 16.1922C21.9056 16.1916 21.9073 16.191 21.9093 16.1902L21.922 16.187C21.9281 16.1855 21.9329 16.1843 21.9369 16.1833C21.9427 16.1818 21.9471 16.1807 21.9519 16.1795L23.4798 15.9494L23.6121 15.9295L23.6689 15.8083L24.3451 14.3662C24.3451 14.3662 24.3451 14.3661 24.3451 14.3661C24.381 14.2899 24.4488 14.25 24.5183 14.25C24.5671 14.25 24.6182 14.2706 24.657 14.3099C24.6593 14.3127 24.6613 14.3151 24.6629 14.3172L24.6696 14.3253L24.6729 14.3305C24.6885 14.3549 24.693 14.3625 24.695 14.3669L24.6952 14.3672L25.3818 15.8129L25.4388 15.933L25.5703 15.9528L27.1037 16.1843L27.1037 16.1843L27.1051 16.1845C27.174 16.1945 27.2379 16.2458 27.263 16.3277C27.2646 16.3371 27.2668 16.3476 27.27 16.3586V16.3643L27.273 16.3777L27.2736 16.3881C27.2754 16.4226 27.2697 16.4551 27.2591 16.4799L27.2588 16.4798L27.2542 16.4923C27.2533 16.4947 27.2524 16.4971 27.251 16.4998L27.2381 16.5187C27.2294 16.5314 27.218 16.5454 27.207 16.557L26.0982 17.6846L26.009 17.7753L26.0298 17.9007L26.2926 19.4911C26.3061 19.5792 26.2735 19.659 26.2123 19.7069C26.1945 19.7196 26.1803 19.7277 26.171 19.7321L26.1553 19.7372C26.1346 19.7439 26.1159 19.7466 26.0987 19.7466C26.068 19.7466 26.0377 19.739 26.0108 19.7242L26.0104 19.724L24.6375 18.9725L24.5174 18.9068L24.3974 18.9725L23.0245 19.724L23.0167 19.7282L23.0093 19.733C22.9952 19.7421 22.9722 19.75 22.9406 19.75ZM26.138 19.7451L26.1394 19.7444C26.1389 19.7446 26.1382 19.745 26.138 19.7451ZM21.8877 16.2005C21.8884 16.2 21.8883 16.2001 21.8874 16.2007L21.8877 16.2005Z" fill="white" stroke="url(#paint17_linear_1808_13335)" stroke-width="0.5"/>
<path d="M22.9406 19.75C22.9054 19.75 22.8693 19.7396 22.8312 19.7136L22.8239 19.706L22.8126 19.6932L22.8087 19.6901L22.8043 19.6854L22.803 19.6848C22.8019 19.6836 22.8007 19.6822 22.7994 19.6807C22.7982 19.6791 22.7969 19.6773 22.7955 19.6756C22.7938 19.6733 22.7918 19.6707 22.7895 19.668L22.787 19.6639L22.7801 19.6531L22.7801 19.6531L22.7793 19.6518C22.7762 19.6469 22.7734 19.6418 22.7672 19.629C22.7657 19.6245 22.7642 19.6201 22.7628 19.6158L22.7601 19.6062C22.759 19.6024 22.7575 19.5967 22.7557 19.5905C22.7547 19.5861 22.7536 19.5804 22.7517 19.5708C22.7516 19.57 22.7514 19.5692 22.7513 19.5684C22.751 19.5664 22.7507 19.5645 22.7505 19.5628L22.7496 19.5575C22.7494 19.554 22.7492 19.5507 22.7489 19.5479C22.7483 19.5414 22.7477 19.5354 22.7473 19.5318C22.7477 19.5259 22.7487 19.516 22.7514 19.4947L23.0136 17.9043L23.0343 17.7789L22.9452 17.6884L21.8363 16.5607C21.8254 16.5492 21.8151 16.5366 21.8074 16.5256C21.7958 16.5073 21.7922 16.4997 21.7908 16.4961C21.7901 16.4939 21.7894 16.492 21.7888 16.4904L21.7857 16.4819L21.7847 16.479L21.7842 16.4779L21.7838 16.4762C21.7769 16.4476 21.7739 16.4251 21.7739 16.4035V16.4034V16.4033V16.4032V16.4031V16.4031V16.403V16.4029V16.4028V16.4027V16.4026V16.4026V16.4025V16.4024V16.4023V16.4022V16.4022V16.4021V16.402V16.4019V16.4018V16.4017V16.4017V16.4016V16.4015V16.4014V16.4013V16.4013V16.4012V16.4011V16.401V16.4009V16.4008V16.4008V16.4007V16.4006V16.4005V16.4004V16.4004V16.4003V16.4002V16.4001V16.4V16.4V16.3999V16.3998V16.3997V16.3996V16.3996V16.3995V16.3994V16.3993V16.3992V16.3992V16.3991V16.399V16.3989V16.3988V16.3988V16.3987V16.3986V16.3985V16.3984V16.3984V16.3983V16.3982V16.3981V16.3981V16.398V16.3979V16.3978V16.3977V16.3977V16.3976V16.3975V16.3974V16.3974V16.3973V16.3972V16.3971V16.397V16.397V16.3969V16.3968V16.3967V16.3967V16.3966V16.3965V16.3964V16.3963V16.3963V16.3962V16.3961V16.396V16.396V16.3959V16.3958V16.3957V16.3956V16.3956V16.3955V16.3954V16.3953V16.3953V16.3952V16.3951V16.395V16.395V16.3949V16.3948V16.3947V16.3947V16.3946V16.3945V16.3944V16.3944V16.3943V16.3942V16.3941V16.394V16.394V16.3939V16.3938V16.3937V16.3937V16.3936V16.3935V16.3934V16.3934V16.3933V16.3932V16.3931V16.3931V16.393V16.3929V16.3928V16.3928V16.3927V16.3926V16.3925V16.3925V16.3924V16.3923V16.3922V16.3922V16.3921V16.392V16.3919V16.3919V16.3918V16.3917V16.3916V16.3916V16.3915V16.3914V16.3913V16.3913V16.3912V16.3911V16.391V16.391V16.3909V16.3908V16.3908V16.3907V16.3906V16.3905V16.3905V16.3904V16.3903V16.3902V16.3902V16.3901V16.39V16.3899V16.3899V16.3898V16.3897V16.3896V16.3896V16.3895V16.3894V16.3893V16.3893V16.3892V16.3891V16.3891V16.389V16.3889V16.3888V16.3888V16.3887V16.3886V16.3885V16.3885V16.3884V16.3883V16.3882V16.3882V16.3881V16.388V16.388V16.3879V16.3878V16.3877V16.3877V16.3876V16.3875V16.3874V16.3874V16.3873V16.3872V16.3872V16.3871V16.387V16.3869V16.3869V16.3868V16.3867V16.3866V16.3866V16.3865V16.3864V16.3864V16.3863V16.3862V16.3861V16.3861V16.386V16.3859V16.3858V16.3858V16.3857V16.3856V16.3855V16.3855V16.3854V16.3853V16.3853V16.3852V16.3851V16.385V16.385V16.3849V16.3848V16.3847V16.3847V16.3846V16.3845V16.3845V16.3844V16.3843V16.3842V16.3842V16.3841V16.384V16.384V16.3839V16.3838V16.3837V16.3837V16.3836V16.3835V16.3834V16.3834V16.3833V16.3832V16.3832V16.3831V16.383V16.3829V16.3829V16.3828V16.3827V16.3826V16.3826V16.3825V16.3824V16.3824V16.3823V16.3822V16.3821V16.3821V16.382V16.3819V16.3818V16.3818V16.3817V16.3816V16.3816V16.3815V16.3814V16.3813V16.3813V16.3812V16.3811V16.381V16.381V16.3809V16.3808V16.3807V16.3807V16.3806V16.3805V16.3805V16.3804V16.3803V16.3802V16.3802V16.3801V16.38V16.3799V16.3799V16.3798V16.3797V16.3797V16.3796V16.3795V16.3794V16.3794V16.3793V16.3792V16.3791V16.3791V16.379V16.3789V16.3788V16.3788V16.3787V16.3786V16.3786V16.3785V16.3784V16.3783V16.3783V16.3782V16.3781V16.378V16.378V16.3779V16.3778V16.3777V16.3777V16.3776V16.3775V16.3774V16.3774V16.3773V16.3772V16.3771V16.3771V16.377V16.3769V16.3769V16.3768V16.3767V16.3766V16.3766V16.3765V16.3764V16.3763V16.3763V16.3762V16.3761V16.376V16.376V16.3759V16.3758V16.3757V16.3757V16.3756V16.3755V16.3754V16.3754V16.3753V16.3752V16.3751V16.3751V16.375V16.3749V16.3748V16.3748V16.3747V16.3746V16.3745V16.3745V16.3744V16.3743V16.3742V16.3742V16.3741V16.374V16.3739V16.3739V16.3738V16.3737V16.3736V16.3736V16.3735V16.3734V16.3733V16.3732V16.3732V16.3731V16.373V16.3729V16.3729V16.3728V16.3727V16.3726V16.3726V16.3725V16.3724V16.3723V16.3723V16.3722V16.3721V16.372V16.3719V16.3719V16.3718V16.3717V16.3716V16.3716V16.3715V16.3714V16.3713V16.3712V16.3712V16.3711V16.371V16.3709V16.3709L21.784 16.3393V16.3297L21.8333 16.2463L21.8604 16.218C21.8676 16.2139 21.8738 16.21 21.8785 16.2068C21.8856 16.203 21.8946 16.198 21.9041 16.1922C21.9056 16.1916 21.9073 16.191 21.9093 16.1902L21.922 16.187C21.9281 16.1855 21.9329 16.1843 21.9369 16.1833C21.9427 16.1818 21.9471 16.1807 21.9519 16.1795L23.4798 15.9494L23.6121 15.9295L23.6689 15.8083L24.3451 14.3662C24.3451 14.3662 24.3451 14.3661 24.3451 14.3661C24.381 14.2899 24.4488 14.25 24.5183 14.25C24.5671 14.25 24.6182 14.2706 24.657 14.3099C24.6593 14.3127 24.6613 14.3151 24.6629 14.3172L24.6696 14.3253L24.6729 14.3305C24.6885 14.3549 24.693 14.3625 24.695 14.3669L24.6952 14.3672L25.3818 15.8129L25.4388 15.933L25.5703 15.9528L27.1037 16.1843L27.1037 16.1843L27.1051 16.1845C27.174 16.1945 27.2379 16.2458 27.263 16.3277C27.2646 16.3371 27.2668 16.3476 27.27 16.3586V16.3643L27.273 16.3777L27.2736 16.3881C27.2754 16.4226 27.2697 16.4551 27.2591 16.4799L27.2588 16.4798L27.2542 16.4923C27.2533 16.4947 27.2524 16.4971 27.251 16.4998L27.2381 16.5187C27.2294 16.5314 27.218 16.5454 27.207 16.557L26.0982 17.6846L26.009 17.7753L26.0298 17.9007L26.2926 19.4911C26.3061 19.5792 26.2735 19.659 26.2123 19.7069C26.1945 19.7196 26.1803 19.7277 26.171 19.7321L26.1553 19.7372C26.1346 19.7439 26.1159 19.7466 26.0987 19.7466C26.068 19.7466 26.0377 19.739 26.0108 19.7242L26.0104 19.724L24.6375 18.9725L24.5174 18.9068L24.3974 18.9725L23.0245 19.724L23.0167 19.7282L23.0093 19.733C22.9952 19.7421 22.9722 19.75 22.9406 19.75ZM26.138 19.7451L26.1394 19.7444C26.1389 19.7446 26.1382 19.745 26.138 19.7451ZM21.8877 16.2005C21.8884 16.2 21.8883 16.2001 21.8874 16.2007L21.8877 16.2005Z" stroke="url(#paint18_linear_1808_13335)" stroke-width="0.5"/>
<path d="M24.5185 14.2281V17.173L23.5757 15.9161L24.3134 14.3601C24.358 14.2746 24.44 14.2281 24.5185 14.2281Z" fill="url(#paint19_linear_1808_13335)" fill-opacity="0.38"/>
<path d="M27.2949 16.3328L24.5215 17.1732L25.464 15.9163L27.1103 16.1654C27.2027 16.1831 27.2675 16.2507 27.2949 16.3328Z" fill="url(#paint20_linear_1808_13335)"/>
<path d="M26.2327 19.7258L24.5183 17.1726L26.0416 17.7815L26.3216 19.4908C26.3418 19.5906 26.3008 19.6759 26.2327 19.7258Z" fill="url(#paint21_linear_1808_13335)"/>
<path d="M24.5179 17.1726V18.9352L23.0458 19.7434C22.9604 19.7896 22.8716 19.7754 22.8032 19.7258L24.5179 17.1726Z" fill="url(#paint22_linear_1808_13335)"/>
<path d="M25.4611 15.9161L24.5183 17.173V14.2281C24.5798 14.2281 24.6414 14.253 24.6856 14.3028C24.6925 14.31 24.6993 14.3205 24.7062 14.3313C24.713 14.3422 24.7198 14.3527 24.7231 14.3633L25.4611 15.9161Z" fill="url(#paint23_linear_1808_13335)" fill-opacity="0.6"/>
<path d="M27.288 16.4925C27.2812 16.5067 27.2743 16.521 27.2675 16.5352C27.2571 16.5495 27.247 16.56 27.2369 16.5743L26.045 17.785L24.5217 17.1761L27.2951 16.3357C27.2951 16.3391 27.2984 16.3428 27.2984 16.3465C27.2984 16.3502 27.302 16.3537 27.302 16.3608C27.302 16.3645 27.302 16.3645 27.302 16.3645C27.302 16.3679 27.302 16.3716 27.302 16.375C27.302 16.3822 27.302 16.3859 27.302 16.3927C27.3052 16.4246 27.3017 16.4603 27.288 16.4925Z" fill="url(#paint24_linear_1808_13335)"/>
<path d="M26.233 19.7258C26.216 19.74 26.1955 19.7506 26.1715 19.7577C26.1682 19.7577 26.1682 19.7577 26.1646 19.7611C26.1099 19.7788 26.0484 19.7754 25.9905 19.7434L24.5183 18.9352V17.1726L26.233 19.7258Z" fill="url(#paint25_linear_1808_13335)"/>
<path d="M24.5183 17.1726L22.8039 19.7258C22.8006 19.722 22.7971 19.7186 22.7938 19.7149C22.7905 19.7115 22.787 19.7078 22.7834 19.7041C22.7801 19.7007 22.7766 19.697 22.7697 19.6898C22.7662 19.6864 22.7629 19.6827 22.7594 19.679C22.7558 19.6753 22.7561 19.6756 22.7561 19.6719C22.7528 19.6684 22.7492 19.6647 22.7492 19.661C22.7424 19.6505 22.7356 19.6397 22.7323 19.6291C22.729 19.6257 22.729 19.6183 22.7254 19.6114C22.7222 19.6043 22.7222 19.6006 22.7186 19.5938C22.7153 19.5866 22.7153 19.5761 22.7153 19.569C22.7153 19.5655 22.7153 19.5581 22.7153 19.5547C22.7153 19.5476 22.7153 19.5405 22.7153 19.5333C22.7153 19.5191 22.7153 19.5048 22.7186 19.4906L22.9986 17.7812L24.5183 17.1726Z" fill="url(#paint26_linear_1808_13335)"/>
<path d="M24.518 17.1724L21.7446 16.332C21.7446 16.3286 21.7479 16.3249 21.7479 16.3212C21.7512 16.3141 21.7512 16.3069 21.7547 16.3035C21.7616 16.2893 21.7684 16.2787 21.7753 16.2679C21.7785 16.2608 21.7821 16.257 21.7889 16.2502C21.7925 16.2468 21.7958 16.2394 21.8026 16.2359C21.8059 16.2325 21.813 16.2254 21.8163 16.2217C21.8195 16.218 21.8264 16.2146 21.8299 16.2109C21.8368 16.2074 21.8436 16.2 21.8504 16.1966C21.8537 16.1932 21.8606 16.1895 21.8674 16.1895C21.8778 16.1861 21.8844 16.1824 21.8947 16.1786C21.898 16.1786 21.9016 16.1752 21.9084 16.1752C21.9152 16.1718 21.9254 16.1718 21.9358 16.1681L23.5821 15.9189L24.518 17.1724Z" fill="url(#paint27_linear_1808_13335)"/>
<path d="M24.518 17.1727L22.9983 17.785L21.8064 16.5743C21.7927 16.5635 21.7859 16.5495 21.7758 16.5353C21.7689 16.521 21.7588 16.5067 21.7553 16.4925C21.752 16.4854 21.7484 16.4782 21.7484 16.4711C21.7416 16.4497 21.738 16.4249 21.738 16.4035C21.738 16.3964 21.738 16.3893 21.738 16.3822C21.738 16.3716 21.738 16.3645 21.7416 16.3537C21.7416 16.3502 21.7449 16.3465 21.7449 16.3394C21.7449 16.336 21.7482 16.3323 21.7482 16.3289L24.518 17.1727Z" fill="url(#paint28_linear_1808_13335)"/>
</g>
<g filter="url(#filter4_d_1808_13335)">
<path d="M16.9406 25.75C16.9054 25.75 16.8693 25.7396 16.8312 25.7136L16.8239 25.706L16.8126 25.6932L16.8087 25.6901L16.8043 25.6854L16.803 25.6848C16.8019 25.6836 16.8007 25.6822 16.7994 25.6807C16.7982 25.6791 16.7969 25.6773 16.7955 25.6756C16.7938 25.6733 16.7918 25.6707 16.7895 25.668L16.787 25.6639L16.7801 25.6531L16.7801 25.6531L16.7793 25.6518C16.7762 25.6469 16.7734 25.6418 16.7672 25.629C16.7657 25.6245 16.7642 25.6201 16.7628 25.6158L16.7601 25.6062C16.759 25.6024 16.7575 25.5967 16.7557 25.5905C16.7547 25.5861 16.7536 25.5804 16.7517 25.5708C16.7516 25.57 16.7514 25.5692 16.7513 25.5684C16.751 25.5664 16.7507 25.5645 16.7505 25.5628L16.7496 25.5575C16.7494 25.554 16.7492 25.5507 16.7489 25.5479C16.7483 25.5414 16.7477 25.5354 16.7473 25.5318C16.7477 25.5259 16.7487 25.516 16.7514 25.4947L17.0136 23.9043L17.0343 23.7789L16.9452 23.6884L15.8363 22.5607C15.8254 22.5492 15.8151 22.5366 15.8074 22.5256C15.7958 22.5073 15.7922 22.4997 15.7908 22.4961C15.7901 22.4939 15.7894 22.492 15.7888 22.4904L15.7857 22.4819L15.7847 22.479L15.7842 22.4779L15.7838 22.4762C15.7769 22.4476 15.7739 22.4251 15.7739 22.4035V22.4034V22.4033V22.4032V22.4031V22.4031V22.403V22.4029V22.4028V22.4027V22.4026V22.4026V22.4025V22.4024V22.4023V22.4022V22.4022V22.4021V22.402V22.4019V22.4018V22.4017V22.4017V22.4016V22.4015V22.4014V22.4013V22.4013V22.4012V22.4011V22.401V22.4009V22.4008V22.4008V22.4007V22.4006V22.4005V22.4004V22.4004V22.4003V22.4002V22.4001V22.4V22.4V22.3999V22.3998V22.3997V22.3996V22.3996V22.3995V22.3994V22.3993V22.3992V22.3992V22.3991V22.399V22.3989V22.3988V22.3988V22.3987V22.3986V22.3985V22.3984V22.3984V22.3983V22.3982V22.3981V22.3981V22.398V22.3979V22.3978V22.3977V22.3977V22.3976V22.3975V22.3974V22.3974V22.3973V22.3972V22.3971V22.397V22.397V22.3969V22.3968V22.3967V22.3967V22.3966V22.3965V22.3964V22.3963V22.3963V22.3962V22.3961V22.396V22.396V22.3959V22.3958V22.3957V22.3956V22.3956V22.3955V22.3954V22.3953V22.3953V22.3952V22.3951V22.395V22.395V22.3949V22.3948V22.3947V22.3947V22.3946V22.3945V22.3944V22.3944V22.3943V22.3942V22.3941V22.394V22.394V22.3939V22.3938V22.3937V22.3937V22.3936V22.3935V22.3934V22.3934V22.3933V22.3932V22.3931V22.3931V22.393V22.3929V22.3928V22.3928V22.3927V22.3926V22.3925V22.3925V22.3924V22.3923V22.3922V22.3922V22.3921V22.392V22.3919V22.3919V22.3918V22.3917V22.3916V22.3916V22.3915V22.3914V22.3913V22.3913V22.3912V22.3911V22.391V22.391V22.3909V22.3908V22.3908V22.3907V22.3906V22.3905V22.3905V22.3904V22.3903V22.3902V22.3902V22.3901V22.39V22.3899V22.3899V22.3898V22.3897V22.3896V22.3896V22.3895V22.3894V22.3893V22.3893V22.3892V22.3891V22.3891V22.389V22.3889V22.3888V22.3888V22.3887V22.3886V22.3885V22.3885V22.3884V22.3883V22.3882V22.3882V22.3881V22.388V22.388V22.3879V22.3878V22.3877V22.3877V22.3876V22.3875V22.3874V22.3874V22.3873V22.3872V22.3872V22.3871V22.387V22.3869V22.3869V22.3868V22.3867V22.3866V22.3866V22.3865V22.3864V22.3864V22.3863V22.3862V22.3861V22.3861V22.386V22.3859V22.3858V22.3858V22.3857V22.3856V22.3855V22.3855V22.3854V22.3853V22.3853V22.3852V22.3851V22.385V22.385V22.3849V22.3848V22.3847V22.3847V22.3846V22.3845V22.3845V22.3844V22.3843V22.3842V22.3842V22.3841V22.384V22.384V22.3839V22.3838V22.3837V22.3837V22.3836V22.3835V22.3834V22.3834V22.3833V22.3832V22.3832V22.3831V22.383V22.3829V22.3829V22.3828V22.3827V22.3826V22.3826V22.3825V22.3824V22.3824V22.3823V22.3822V22.3821V22.3821V22.382V22.3819V22.3818V22.3818V22.3817V22.3816V22.3816V22.3815V22.3814V22.3813V22.3813V22.3812V22.3811V22.381V22.381V22.3809V22.3808V22.3807V22.3807V22.3806V22.3805V22.3805V22.3804V22.3803V22.3802V22.3802V22.3801V22.38V22.3799V22.3799V22.3798V22.3797V22.3797V22.3796V22.3795V22.3794V22.3794V22.3793V22.3792V22.3791V22.3791V22.379V22.3789V22.3788V22.3788V22.3787V22.3786V22.3786V22.3785V22.3784V22.3783V22.3783V22.3782V22.3781V22.378V22.378V22.3779V22.3778V22.3777V22.3777V22.3776V22.3775V22.3774V22.3774V22.3773V22.3772V22.3771V22.3771V22.377V22.3769V22.3769V22.3768V22.3767V22.3766V22.3766V22.3765V22.3764V22.3763V22.3763V22.3762V22.3761V22.376V22.376V22.3759V22.3758V22.3757V22.3757V22.3756V22.3755V22.3754V22.3754V22.3753V22.3752V22.3751V22.3751V22.375V22.3749V22.3748V22.3748V22.3747V22.3746V22.3745V22.3745V22.3744V22.3743V22.3742V22.3742V22.3741V22.374V22.3739V22.3739V22.3738V22.3737V22.3736V22.3736V22.3735V22.3734V22.3733V22.3732V22.3732V22.3731V22.373V22.3729V22.3729V22.3728V22.3727V22.3726V22.3726V22.3725V22.3724V22.3723V22.3723V22.3722V22.3721V22.372V22.3719V22.3719V22.3718V22.3717V22.3716V22.3716V22.3715V22.3714V22.3713V22.3712V22.3712V22.3711V22.371V22.3709V22.3709L15.784 22.3393V22.3297L15.8333 22.2463L15.8604 22.218C15.8676 22.2139 15.8738 22.21 15.8785 22.2068C15.8856 22.203 15.8946 22.198 15.9041 22.1922C15.9056 22.1916 15.9073 22.191 15.9093 22.1902L15.922 22.187C15.9281 22.1855 15.9329 22.1843 15.9369 22.1833C15.9427 22.1818 15.9471 22.1807 15.9519 22.1795L17.4798 21.9494L17.6121 21.9295L17.6689 21.8083L18.3451 20.3662C18.3451 20.3662 18.3451 20.3661 18.3451 20.3661C18.381 20.2899 18.4488 20.25 18.5183 20.25C18.5671 20.25 18.6182 20.2706 18.657 20.3099C18.6593 20.3127 18.6613 20.3151 18.6629 20.3172L18.6696 20.3253L18.6729 20.3305C18.6885 20.3549 18.693 20.3625 18.695 20.3669L18.6952 20.3672L19.3818 21.8129L19.4388 21.933L19.5703 21.9528L21.1037 22.1843L21.1037 22.1843L21.1051 22.1845C21.174 22.1945 21.2379 22.2458 21.263 22.3277C21.2646 22.3371 21.2668 22.3476 21.27 22.3586V22.3643L21.273 22.3777L21.2736 22.3881C21.2754 22.4226 21.2697 22.4551 21.2591 22.4799L21.2588 22.4798L21.2542 22.4923C21.2533 22.4947 21.2524 22.4971 21.251 22.4998L21.2381 22.5187C21.2294 22.5314 21.218 22.5454 21.207 22.557L20.0982 23.6846L20.009 23.7753L20.0298 23.9007L20.2926 25.4911C20.3061 25.5792 20.2735 25.659 20.2123 25.7069C20.1945 25.7196 20.1803 25.7277 20.171 25.7321L20.1553 25.7372C20.1346 25.7439 20.1159 25.7466 20.0987 25.7466C20.068 25.7466 20.0377 25.739 20.0108 25.7242L20.0104 25.724L18.6375 24.9725L18.5174 24.9068L18.3974 24.9725L17.0245 25.724L17.0167 25.7282L17.0093 25.733C16.9952 25.7421 16.9722 25.75 16.9406 25.75ZM20.138 25.7451L20.1394 25.7444C20.1389 25.7446 20.1382 25.745 20.138 25.7451ZM15.8877 22.2005C15.8884 22.2 15.8883 22.2001 15.8874 22.2007L15.8877 22.2005Z" fill="white" stroke="url(#paint29_linear_1808_13335)" stroke-width="0.5"/>
<path d="M16.9406 25.75C16.9054 25.75 16.8693 25.7396 16.8312 25.7136L16.8239 25.706L16.8126 25.6932L16.8087 25.6901L16.8043 25.6854L16.803 25.6848C16.8019 25.6836 16.8007 25.6822 16.7994 25.6807C16.7982 25.6791 16.7969 25.6773 16.7955 25.6756C16.7938 25.6733 16.7918 25.6707 16.7895 25.668L16.787 25.6639L16.7801 25.6531L16.7801 25.6531L16.7793 25.6518C16.7762 25.6469 16.7734 25.6418 16.7672 25.629C16.7657 25.6245 16.7642 25.6201 16.7628 25.6158L16.7601 25.6062C16.759 25.6024 16.7575 25.5967 16.7557 25.5905C16.7547 25.5861 16.7536 25.5804 16.7517 25.5708C16.7516 25.57 16.7514 25.5692 16.7513 25.5684C16.751 25.5664 16.7507 25.5645 16.7505 25.5628L16.7496 25.5575C16.7494 25.554 16.7492 25.5507 16.7489 25.5479C16.7483 25.5414 16.7477 25.5354 16.7473 25.5318C16.7477 25.5259 16.7487 25.516 16.7514 25.4947L17.0136 23.9043L17.0343 23.7789L16.9452 23.6884L15.8363 22.5607C15.8254 22.5492 15.8151 22.5366 15.8074 22.5256C15.7958 22.5073 15.7922 22.4997 15.7908 22.4961C15.7901 22.4939 15.7894 22.492 15.7888 22.4904L15.7857 22.4819L15.7847 22.479L15.7842 22.4779L15.7838 22.4762C15.7769 22.4476 15.7739 22.4251 15.7739 22.4035V22.4034V22.4033V22.4032V22.4031V22.4031V22.403V22.4029V22.4028V22.4027V22.4026V22.4026V22.4025V22.4024V22.4023V22.4022V22.4022V22.4021V22.402V22.4019V22.4018V22.4017V22.4017V22.4016V22.4015V22.4014V22.4013V22.4013V22.4012V22.4011V22.401V22.4009V22.4008V22.4008V22.4007V22.4006V22.4005V22.4004V22.4004V22.4003V22.4002V22.4001V22.4V22.4V22.3999V22.3998V22.3997V22.3996V22.3996V22.3995V22.3994V22.3993V22.3992V22.3992V22.3991V22.399V22.3989V22.3988V22.3988V22.3987V22.3986V22.3985V22.3984V22.3984V22.3983V22.3982V22.3981V22.3981V22.398V22.3979V22.3978V22.3977V22.3977V22.3976V22.3975V22.3974V22.3974V22.3973V22.3972V22.3971V22.397V22.397V22.3969V22.3968V22.3967V22.3967V22.3966V22.3965V22.3964V22.3963V22.3963V22.3962V22.3961V22.396V22.396V22.3959V22.3958V22.3957V22.3956V22.3956V22.3955V22.3954V22.3953V22.3953V22.3952V22.3951V22.395V22.395V22.3949V22.3948V22.3947V22.3947V22.3946V22.3945V22.3944V22.3944V22.3943V22.3942V22.3941V22.394V22.394V22.3939V22.3938V22.3937V22.3937V22.3936V22.3935V22.3934V22.3934V22.3933V22.3932V22.3931V22.3931V22.393V22.3929V22.3928V22.3928V22.3927V22.3926V22.3925V22.3925V22.3924V22.3923V22.3922V22.3922V22.3921V22.392V22.3919V22.3919V22.3918V22.3917V22.3916V22.3916V22.3915V22.3914V22.3913V22.3913V22.3912V22.3911V22.391V22.391V22.3909V22.3908V22.3908V22.3907V22.3906V22.3905V22.3905V22.3904V22.3903V22.3902V22.3902V22.3901V22.39V22.3899V22.3899V22.3898V22.3897V22.3896V22.3896V22.3895V22.3894V22.3893V22.3893V22.3892V22.3891V22.3891V22.389V22.3889V22.3888V22.3888V22.3887V22.3886V22.3885V22.3885V22.3884V22.3883V22.3882V22.3882V22.3881V22.388V22.388V22.3879V22.3878V22.3877V22.3877V22.3876V22.3875V22.3874V22.3874V22.3873V22.3872V22.3872V22.3871V22.387V22.3869V22.3869V22.3868V22.3867V22.3866V22.3866V22.3865V22.3864V22.3864V22.3863V22.3862V22.3861V22.3861V22.386V22.3859V22.3858V22.3858V22.3857V22.3856V22.3855V22.3855V22.3854V22.3853V22.3853V22.3852V22.3851V22.385V22.385V22.3849V22.3848V22.3847V22.3847V22.3846V22.3845V22.3845V22.3844V22.3843V22.3842V22.3842V22.3841V22.384V22.384V22.3839V22.3838V22.3837V22.3837V22.3836V22.3835V22.3834V22.3834V22.3833V22.3832V22.3832V22.3831V22.383V22.3829V22.3829V22.3828V22.3827V22.3826V22.3826V22.3825V22.3824V22.3824V22.3823V22.3822V22.3821V22.3821V22.382V22.3819V22.3818V22.3818V22.3817V22.3816V22.3816V22.3815V22.3814V22.3813V22.3813V22.3812V22.3811V22.381V22.381V22.3809V22.3808V22.3807V22.3807V22.3806V22.3805V22.3805V22.3804V22.3803V22.3802V22.3802V22.3801V22.38V22.3799V22.3799V22.3798V22.3797V22.3797V22.3796V22.3795V22.3794V22.3794V22.3793V22.3792V22.3791V22.3791V22.379V22.3789V22.3788V22.3788V22.3787V22.3786V22.3786V22.3785V22.3784V22.3783V22.3783V22.3782V22.3781V22.378V22.378V22.3779V22.3778V22.3777V22.3777V22.3776V22.3775V22.3774V22.3774V22.3773V22.3772V22.3771V22.3771V22.377V22.3769V22.3769V22.3768V22.3767V22.3766V22.3766V22.3765V22.3764V22.3763V22.3763V22.3762V22.3761V22.376V22.376V22.3759V22.3758V22.3757V22.3757V22.3756V22.3755V22.3754V22.3754V22.3753V22.3752V22.3751V22.3751V22.375V22.3749V22.3748V22.3748V22.3747V22.3746V22.3745V22.3745V22.3744V22.3743V22.3742V22.3742V22.3741V22.374V22.3739V22.3739V22.3738V22.3737V22.3736V22.3736V22.3735V22.3734V22.3733V22.3732V22.3732V22.3731V22.373V22.3729V22.3729V22.3728V22.3727V22.3726V22.3726V22.3725V22.3724V22.3723V22.3723V22.3722V22.3721V22.372V22.3719V22.3719V22.3718V22.3717V22.3716V22.3716V22.3715V22.3714V22.3713V22.3712V22.3712V22.3711V22.371V22.3709V22.3709L15.784 22.3393V22.3297L15.8333 22.2463L15.8604 22.218C15.8676 22.2139 15.8738 22.21 15.8785 22.2068C15.8856 22.203 15.8946 22.198 15.9041 22.1922C15.9056 22.1916 15.9073 22.191 15.9093 22.1902L15.922 22.187C15.9281 22.1855 15.9329 22.1843 15.9369 22.1833C15.9427 22.1818 15.9471 22.1807 15.9519 22.1795L17.4798 21.9494L17.6121 21.9295L17.6689 21.8083L18.3451 20.3662C18.3451 20.3662 18.3451 20.3661 18.3451 20.3661C18.381 20.2899 18.4488 20.25 18.5183 20.25C18.5671 20.25 18.6182 20.2706 18.657 20.3099C18.6593 20.3127 18.6613 20.3151 18.6629 20.3172L18.6696 20.3253L18.6729 20.3305C18.6885 20.3549 18.693 20.3625 18.695 20.3669L18.6952 20.3672L19.3818 21.8129L19.4388 21.933L19.5703 21.9528L21.1037 22.1843L21.1037 22.1843L21.1051 22.1845C21.174 22.1945 21.2379 22.2458 21.263 22.3277C21.2646 22.3371 21.2668 22.3476 21.27 22.3586V22.3643L21.273 22.3777L21.2736 22.3881C21.2754 22.4226 21.2697 22.4551 21.2591 22.4799L21.2588 22.4798L21.2542 22.4923C21.2533 22.4947 21.2524 22.4971 21.251 22.4998L21.2381 22.5187C21.2294 22.5314 21.218 22.5454 21.207 22.557L20.0982 23.6846L20.009 23.7753L20.0298 23.9007L20.2926 25.4911C20.3061 25.5792 20.2735 25.659 20.2123 25.7069C20.1945 25.7196 20.1803 25.7277 20.171 25.7321L20.1553 25.7372C20.1346 25.7439 20.1159 25.7466 20.0987 25.7466C20.068 25.7466 20.0377 25.739 20.0108 25.7242L20.0104 25.724L18.6375 24.9725L18.5174 24.9068L18.3974 24.9725L17.0245 25.724L17.0167 25.7282L17.0093 25.733C16.9952 25.7421 16.9722 25.75 16.9406 25.75ZM20.138 25.7451L20.1394 25.7444C20.1389 25.7446 20.1382 25.745 20.138 25.7451ZM15.8877 22.2005C15.8884 22.2 15.8883 22.2001 15.8874 22.2007L15.8877 22.2005Z" stroke="url(#paint30_linear_1808_13335)" stroke-width="0.5"/>
<path d="M18.5185 20.2281V23.173L17.5757 21.9161L18.3134 20.3601C18.358 20.2746 18.44 20.2281 18.5185 20.2281Z" fill="url(#paint31_linear_1808_13335)" fill-opacity="0.38"/>
<path d="M21.2949 22.3328L18.5215 23.1732L19.464 21.9163L21.1103 22.1654C21.2027 22.1831 21.2675 22.2507 21.2949 22.3328Z" fill="url(#paint32_linear_1808_13335)"/>
<path d="M20.2327 25.7258L18.5183 23.1726L20.0416 23.7815L20.3216 25.4908C20.3418 25.5906 20.3008 25.6759 20.2327 25.7258Z" fill="url(#paint33_linear_1808_13335)"/>
<path d="M18.5179 23.1726V24.9352L17.0458 25.7434C16.9604 25.7896 16.8716 25.7754 16.8032 25.7258L18.5179 23.1726Z" fill="url(#paint34_linear_1808_13335)"/>
<path d="M19.4611 21.9161L18.5183 23.173V20.2281C18.5798 20.2281 18.6414 20.253 18.6856 20.3028C18.6925 20.31 18.6993 20.3205 18.7062 20.3313C18.713 20.3422 18.7198 20.3527 18.7231 20.3633L19.4611 21.9161Z" fill="url(#paint35_linear_1808_13335)" fill-opacity="0.6"/>
<path d="M21.288 22.4925C21.2812 22.5067 21.2743 22.521 21.2675 22.5352C21.2571 22.5495 21.247 22.56 21.2369 22.5743L20.045 23.785L18.5217 23.1761L21.2951 22.3357C21.2951 22.3391 21.2984 22.3428 21.2984 22.3465C21.2984 22.3502 21.302 22.3537 21.302 22.3608C21.302 22.3645 21.302 22.3645 21.302 22.3645C21.302 22.3679 21.302 22.3716 21.302 22.375C21.302 22.3822 21.302 22.3859 21.302 22.3927C21.3052 22.4246 21.3017 22.4603 21.288 22.4925Z" fill="url(#paint36_linear_1808_13335)"/>
<path d="M20.233 25.7258C20.216 25.74 20.1955 25.7506 20.1715 25.7577C20.1682 25.7577 20.1682 25.7577 20.1646 25.7611C20.1099 25.7788 20.0484 25.7754 19.9905 25.7434L18.5183 24.9352V23.1726L20.233 25.7258Z" fill="url(#paint37_linear_1808_13335)"/>
<path d="M18.5183 23.1726L16.8039 25.7258C16.8006 25.722 16.7971 25.7186 16.7938 25.7149C16.7905 25.7115 16.787 25.7078 16.7834 25.7041C16.7801 25.7007 16.7766 25.697 16.7697 25.6898C16.7662 25.6864 16.7629 25.6827 16.7594 25.679C16.7558 25.6753 16.7561 25.6756 16.7561 25.6719C16.7528 25.6684 16.7492 25.6647 16.7492 25.661C16.7424 25.6505 16.7356 25.6397 16.7323 25.6291C16.729 25.6257 16.729 25.6183 16.7254 25.6114C16.7222 25.6043 16.7222 25.6006 16.7186 25.5938C16.7153 25.5866 16.7153 25.5761 16.7153 25.569C16.7153 25.5655 16.7153 25.5581 16.7153 25.5547C16.7153 25.5476 16.7153 25.5405 16.7153 25.5333C16.7153 25.5191 16.7153 25.5048 16.7186 25.4906L16.9986 23.7812L18.5183 23.1726Z" fill="url(#paint38_linear_1808_13335)"/>
<path d="M18.518 23.1724L15.7446 22.332C15.7446 22.3286 15.7479 22.3249 15.7479 22.3212C15.7512 22.3141 15.7512 22.3069 15.7547 22.3035C15.7616 22.2893 15.7684 22.2787 15.7753 22.2679C15.7785 22.2608 15.7821 22.257 15.7889 22.2502C15.7925 22.2468 15.7958 22.2394 15.8026 22.2359C15.8059 22.2325 15.813 22.2254 15.8163 22.2217C15.8195 22.218 15.8264 22.2146 15.8299 22.2109C15.8368 22.2074 15.8436 22.2 15.8504 22.1966C15.8537 22.1932 15.8606 22.1895 15.8674 22.1895C15.8778 22.1861 15.8844 22.1824 15.8947 22.1786C15.898 22.1786 15.9016 22.1752 15.9084 22.1752C15.9152 22.1718 15.9254 22.1718 15.9358 22.1681L17.5821 21.9189L18.518 23.1724Z" fill="url(#paint39_linear_1808_13335)"/>
<path d="M18.518 23.1727L16.9983 23.785L15.8064 22.5743C15.7927 22.5635 15.7859 22.5495 15.7758 22.5353C15.7689 22.521 15.7588 22.5067 15.7553 22.4925C15.752 22.4854 15.7484 22.4782 15.7484 22.4711C15.7416 22.4497 15.738 22.4249 15.738 22.4035C15.738 22.3964 15.738 22.3893 15.738 22.3822C15.738 22.3716 15.738 22.3645 15.7416 22.3537C15.7416 22.3502 15.7449 22.3465 15.7449 22.3394C15.7449 22.336 15.7482 22.3323 15.7482 22.3289L18.518 23.1727Z" fill="url(#paint40_linear_1808_13335)"/>
</g>
<g filter="url(#filter5_d_1808_13335)">
<path d="M16.9406 13.75C16.9054 13.75 16.8693 13.7396 16.8312 13.7136L16.8239 13.706L16.8126 13.6932L16.8087 13.6901L16.8043 13.6854L16.803 13.6848C16.8019 13.6836 16.8007 13.6822 16.7994 13.6807C16.7982 13.6791 16.7969 13.6773 16.7955 13.6756C16.7938 13.6733 16.7918 13.6707 16.7895 13.668L16.787 13.6639L16.7801 13.6531L16.7801 13.6531L16.7793 13.6518C16.7762 13.6469 16.7734 13.6418 16.7672 13.629C16.7657 13.6245 16.7642 13.6201 16.7628 13.6158L16.7601 13.6062C16.759 13.6024 16.7575 13.5967 16.7557 13.5905C16.7547 13.5861 16.7536 13.5804 16.7517 13.5708C16.7516 13.57 16.7514 13.5692 16.7513 13.5684C16.751 13.5664 16.7507 13.5645 16.7505 13.5628L16.7496 13.5575C16.7494 13.554 16.7492 13.5507 16.7489 13.5479C16.7483 13.5414 16.7477 13.5354 16.7473 13.5318C16.7477 13.5259 16.7487 13.516 16.7514 13.4947L17.0136 11.9043L17.0343 11.7789L16.9452 11.6884L15.8363 10.5607C15.8254 10.5492 15.8151 10.5366 15.8074 10.5256C15.7958 10.5073 15.7922 10.4997 15.7908 10.4961C15.7901 10.4939 15.7894 10.492 15.7888 10.4904L15.7857 10.4819L15.7847 10.479L15.7842 10.4779L15.7838 10.4762C15.7769 10.4476 15.7739 10.4251 15.7739 10.4035V10.4034V10.4033V10.4032V10.4031V10.4031V10.403V10.4029V10.4028V10.4027V10.4026V10.4026V10.4025V10.4024V10.4023V10.4022V10.4022V10.4021V10.402V10.4019V10.4018V10.4017V10.4017V10.4016V10.4015V10.4014V10.4013V10.4013V10.4012V10.4011V10.401V10.4009V10.4008V10.4008V10.4007V10.4006V10.4005V10.4004V10.4004V10.4003V10.4002V10.4001V10.4V10.4V10.3999V10.3998V10.3997V10.3996V10.3996V10.3995V10.3994V10.3993V10.3992V10.3992V10.3991V10.399V10.3989V10.3988V10.3988V10.3987V10.3986V10.3985V10.3984V10.3984V10.3983V10.3982V10.3981V10.3981V10.398V10.3979V10.3978V10.3977V10.3977V10.3976V10.3975V10.3974V10.3974V10.3973V10.3972V10.3971V10.397V10.397V10.3969V10.3968V10.3967V10.3967V10.3966V10.3965V10.3964V10.3963V10.3963V10.3962V10.3961V10.396V10.396V10.3959V10.3958V10.3957V10.3956V10.3956V10.3955V10.3954V10.3953V10.3953V10.3952V10.3951V10.395V10.395V10.3949V10.3948V10.3947V10.3947V10.3946V10.3945V10.3944V10.3944V10.3943V10.3942V10.3941V10.394V10.394V10.3939V10.3938V10.3937V10.3937V10.3936V10.3935V10.3934V10.3934V10.3933V10.3932V10.3931V10.3931V10.393V10.3929V10.3928V10.3928V10.3927V10.3926V10.3925V10.3925V10.3924V10.3923V10.3922V10.3922V10.3921V10.392V10.3919V10.3919V10.3918V10.3917V10.3916V10.3916V10.3915V10.3914V10.3913V10.3913V10.3912V10.3911V10.391V10.391V10.3909V10.3908V10.3908V10.3907V10.3906V10.3905V10.3905V10.3904V10.3903V10.3902V10.3902V10.3901V10.39V10.3899V10.3899V10.3898V10.3897V10.3896V10.3896V10.3895V10.3894V10.3893V10.3893V10.3892V10.3891V10.3891V10.389V10.3889V10.3888V10.3888V10.3887V10.3886V10.3885V10.3885V10.3884V10.3883V10.3882V10.3882V10.3881V10.388V10.388V10.3879V10.3878V10.3877V10.3877V10.3876V10.3875V10.3874V10.3874V10.3873V10.3872V10.3872V10.3871V10.387V10.3869V10.3869V10.3868V10.3867V10.3866V10.3866V10.3865V10.3864V10.3864V10.3863V10.3862V10.3861V10.3861V10.386V10.3859V10.3858V10.3858V10.3857V10.3856V10.3855V10.3855V10.3854V10.3853V10.3853V10.3852V10.3851V10.385V10.385V10.3849V10.3848V10.3847V10.3847V10.3846V10.3845V10.3845V10.3844V10.3843V10.3842V10.3842V10.3841V10.384V10.384V10.3839V10.3838V10.3837V10.3837V10.3836V10.3835V10.3834V10.3834V10.3833V10.3832V10.3832V10.3831V10.383V10.3829V10.3829V10.3828V10.3827V10.3826V10.3826V10.3825V10.3824V10.3824V10.3823V10.3822V10.3821V10.3821V10.382V10.3819V10.3818V10.3818V10.3817V10.3816V10.3816V10.3815V10.3814V10.3813V10.3813V10.3812V10.3811V10.381V10.381V10.3809V10.3808V10.3807V10.3807V10.3806V10.3805V10.3805V10.3804V10.3803V10.3802V10.3802V10.3801V10.38V10.3799V10.3799V10.3798V10.3797V10.3797V10.3796V10.3795V10.3794V10.3794V10.3793V10.3792V10.3791V10.3791V10.379V10.3789V10.3788V10.3788V10.3787V10.3786V10.3786V10.3785V10.3784V10.3783V10.3783V10.3782V10.3781V10.378V10.378V10.3779V10.3778V10.3777V10.3777V10.3776V10.3775V10.3774V10.3774V10.3773V10.3772V10.3771V10.3771V10.377V10.3769V10.3769V10.3768V10.3767V10.3766V10.3766V10.3765V10.3764V10.3763V10.3763V10.3762V10.3761V10.376V10.376V10.3759V10.3758V10.3757V10.3757V10.3756V10.3755V10.3754V10.3754V10.3753V10.3752V10.3751V10.3751V10.375V10.3749V10.3748V10.3748V10.3747V10.3746V10.3745V10.3745V10.3744V10.3743V10.3742V10.3742V10.3741V10.374V10.3739V10.3739V10.3738V10.3737V10.3736V10.3736V10.3735V10.3734V10.3733V10.3732V10.3732V10.3731V10.373V10.3729V10.3729V10.3728V10.3727V10.3726V10.3726V10.3725V10.3724V10.3723V10.3723V10.3722V10.3721V10.372V10.3719V10.3719V10.3718V10.3717V10.3716V10.3716V10.3715V10.3714V10.3713V10.3712V10.3712V10.3711V10.371V10.3709V10.3709L15.784 10.3393V10.3297L15.8333 10.2463L15.8604 10.218C15.8676 10.2139 15.8738 10.21 15.8785 10.2068C15.8856 10.203 15.8946 10.198 15.9041 10.1922C15.9056 10.1916 15.9073 10.191 15.9093 10.1902L15.922 10.187C15.9281 10.1855 15.9329 10.1843 15.9369 10.1833C15.9427 10.1818 15.9471 10.1807 15.9519 10.1795L17.4798 9.9494L17.6121 9.92947L17.6689 9.80832L18.3451 8.36621C18.3451 8.36618 18.3451 8.36615 18.3451 8.36612C18.381 8.28987 18.4488 8.25 18.5183 8.25C18.5671 8.25 18.6182 8.27062 18.657 8.3099C18.6593 8.31267 18.6613 8.31512 18.6629 8.31716L18.6696 8.32534L18.6729 8.33053C18.6885 8.35486 18.693 8.36254 18.695 8.36692L18.6952 8.36724L19.3818 9.81286L19.4388 9.93296L19.5703 9.95281L21.1037 10.1843L21.1037 10.1843L21.1051 10.1845C21.174 10.1945 21.2379 10.2458 21.263 10.3277C21.2646 10.3371 21.2668 10.3476 21.27 10.3586V10.3643L21.273 10.3777L21.2736 10.3881C21.2754 10.4226 21.2697 10.4551 21.2591 10.4799L21.2588 10.4798L21.2542 10.4923C21.2533 10.4947 21.2524 10.4971 21.251 10.4998L21.2381 10.5187C21.2294 10.5314 21.218 10.5454 21.207 10.557L20.0982 11.6846L20.009 11.7753L20.0298 11.9007L20.2926 13.4911C20.3061 13.5792 20.2735 13.659 20.2123 13.7069C20.1945 13.7196 20.1803 13.7277 20.171 13.7321L20.1553 13.7372C20.1346 13.7439 20.1159 13.7466 20.0987 13.7466C20.068 13.7466 20.0377 13.739 20.0108 13.7242L20.0104 13.724L18.6375 12.9725L18.5174 12.9068L18.3974 12.9725L17.0245 13.724L17.0167 13.7282L17.0093 13.733C16.9952 13.7421 16.9722 13.75 16.9406 13.75ZM20.138 13.7451L20.1394 13.7444C20.1389 13.7446 20.1382 13.745 20.138 13.7451ZM15.8877 10.2005C15.8884 10.2 15.8883 10.2001 15.8874 10.2007L15.8877 10.2005Z" fill="white" stroke="url(#paint41_linear_1808_13335)" stroke-width="0.5"/>
<path d="M16.9406 13.75C16.9054 13.75 16.8693 13.7396 16.8312 13.7136L16.8239 13.706L16.8126 13.6932L16.8087 13.6901L16.8043 13.6854L16.803 13.6848C16.8019 13.6836 16.8007 13.6822 16.7994 13.6807C16.7982 13.6791 16.7969 13.6773 16.7955 13.6756C16.7938 13.6733 16.7918 13.6707 16.7895 13.668L16.787 13.6639L16.7801 13.6531L16.7801 13.6531L16.7793 13.6518C16.7762 13.6469 16.7734 13.6418 16.7672 13.629C16.7657 13.6245 16.7642 13.6201 16.7628 13.6158L16.7601 13.6062C16.759 13.6024 16.7575 13.5967 16.7557 13.5905C16.7547 13.5861 16.7536 13.5804 16.7517 13.5708C16.7516 13.57 16.7514 13.5692 16.7513 13.5684C16.751 13.5664 16.7507 13.5645 16.7505 13.5628L16.7496 13.5575C16.7494 13.554 16.7492 13.5507 16.7489 13.5479C16.7483 13.5414 16.7477 13.5354 16.7473 13.5318C16.7477 13.5259 16.7487 13.516 16.7514 13.4947L17.0136 11.9043L17.0343 11.7789L16.9452 11.6884L15.8363 10.5607C15.8254 10.5492 15.8151 10.5366 15.8074 10.5256C15.7958 10.5073 15.7922 10.4997 15.7908 10.4961C15.7901 10.4939 15.7894 10.492 15.7888 10.4904L15.7857 10.4819L15.7847 10.479L15.7842 10.4779L15.7838 10.4762C15.7769 10.4476 15.7739 10.4251 15.7739 10.4035V10.4034V10.4033V10.4032V10.4031V10.4031V10.403V10.4029V10.4028V10.4027V10.4026V10.4026V10.4025V10.4024V10.4023V10.4022V10.4022V10.4021V10.402V10.4019V10.4018V10.4017V10.4017V10.4016V10.4015V10.4014V10.4013V10.4013V10.4012V10.4011V10.401V10.4009V10.4008V10.4008V10.4007V10.4006V10.4005V10.4004V10.4004V10.4003V10.4002V10.4001V10.4V10.4V10.3999V10.3998V10.3997V10.3996V10.3996V10.3995V10.3994V10.3993V10.3992V10.3992V10.3991V10.399V10.3989V10.3988V10.3988V10.3987V10.3986V10.3985V10.3984V10.3984V10.3983V10.3982V10.3981V10.3981V10.398V10.3979V10.3978V10.3977V10.3977V10.3976V10.3975V10.3974V10.3974V10.3973V10.3972V10.3971V10.397V10.397V10.3969V10.3968V10.3967V10.3967V10.3966V10.3965V10.3964V10.3963V10.3963V10.3962V10.3961V10.396V10.396V10.3959V10.3958V10.3957V10.3956V10.3956V10.3955V10.3954V10.3953V10.3953V10.3952V10.3951V10.395V10.395V10.3949V10.3948V10.3947V10.3947V10.3946V10.3945V10.3944V10.3944V10.3943V10.3942V10.3941V10.394V10.394V10.3939V10.3938V10.3937V10.3937V10.3936V10.3935V10.3934V10.3934V10.3933V10.3932V10.3931V10.3931V10.393V10.3929V10.3928V10.3928V10.3927V10.3926V10.3925V10.3925V10.3924V10.3923V10.3922V10.3922V10.3921V10.392V10.3919V10.3919V10.3918V10.3917V10.3916V10.3916V10.3915V10.3914V10.3913V10.3913V10.3912V10.3911V10.391V10.391V10.3909V10.3908V10.3908V10.3907V10.3906V10.3905V10.3905V10.3904V10.3903V10.3902V10.3902V10.3901V10.39V10.3899V10.3899V10.3898V10.3897V10.3896V10.3896V10.3895V10.3894V10.3893V10.3893V10.3892V10.3891V10.3891V10.389V10.3889V10.3888V10.3888V10.3887V10.3886V10.3885V10.3885V10.3884V10.3883V10.3882V10.3882V10.3881V10.388V10.388V10.3879V10.3878V10.3877V10.3877V10.3876V10.3875V10.3874V10.3874V10.3873V10.3872V10.3872V10.3871V10.387V10.3869V10.3869V10.3868V10.3867V10.3866V10.3866V10.3865V10.3864V10.3864V10.3863V10.3862V10.3861V10.3861V10.386V10.3859V10.3858V10.3858V10.3857V10.3856V10.3855V10.3855V10.3854V10.3853V10.3853V10.3852V10.3851V10.385V10.385V10.3849V10.3848V10.3847V10.3847V10.3846V10.3845V10.3845V10.3844V10.3843V10.3842V10.3842V10.3841V10.384V10.384V10.3839V10.3838V10.3837V10.3837V10.3836V10.3835V10.3834V10.3834V10.3833V10.3832V10.3832V10.3831V10.383V10.3829V10.3829V10.3828V10.3827V10.3826V10.3826V10.3825V10.3824V10.3824V10.3823V10.3822V10.3821V10.3821V10.382V10.3819V10.3818V10.3818V10.3817V10.3816V10.3816V10.3815V10.3814V10.3813V10.3813V10.3812V10.3811V10.381V10.381V10.3809V10.3808V10.3807V10.3807V10.3806V10.3805V10.3805V10.3804V10.3803V10.3802V10.3802V10.3801V10.38V10.3799V10.3799V10.3798V10.3797V10.3797V10.3796V10.3795V10.3794V10.3794V10.3793V10.3792V10.3791V10.3791V10.379V10.3789V10.3788V10.3788V10.3787V10.3786V10.3786V10.3785V10.3784V10.3783V10.3783V10.3782V10.3781V10.378V10.378V10.3779V10.3778V10.3777V10.3777V10.3776V10.3775V10.3774V10.3774V10.3773V10.3772V10.3771V10.3771V10.377V10.3769V10.3769V10.3768V10.3767V10.3766V10.3766V10.3765V10.3764V10.3763V10.3763V10.3762V10.3761V10.376V10.376V10.3759V10.3758V10.3757V10.3757V10.3756V10.3755V10.3754V10.3754V10.3753V10.3752V10.3751V10.3751V10.375V10.3749V10.3748V10.3748V10.3747V10.3746V10.3745V10.3745V10.3744V10.3743V10.3742V10.3742V10.3741V10.374V10.3739V10.3739V10.3738V10.3737V10.3736V10.3736V10.3735V10.3734V10.3733V10.3732V10.3732V10.3731V10.373V10.3729V10.3729V10.3728V10.3727V10.3726V10.3726V10.3725V10.3724V10.3723V10.3723V10.3722V10.3721V10.372V10.3719V10.3719V10.3718V10.3717V10.3716V10.3716V10.3715V10.3714V10.3713V10.3712V10.3712V10.3711V10.371V10.3709V10.3709L15.784 10.3393V10.3297L15.8333 10.2463L15.8604 10.218C15.8676 10.2139 15.8738 10.21 15.8785 10.2068C15.8856 10.203 15.8946 10.198 15.9041 10.1922C15.9056 10.1916 15.9073 10.191 15.9093 10.1902L15.922 10.187C15.9281 10.1855 15.9329 10.1843 15.9369 10.1833C15.9427 10.1818 15.9471 10.1807 15.9519 10.1795L17.4798 9.9494L17.6121 9.92947L17.6689 9.80832L18.3451 8.36621C18.3451 8.36618 18.3451 8.36615 18.3451 8.36612C18.381 8.28987 18.4488 8.25 18.5183 8.25C18.5671 8.25 18.6182 8.27062 18.657 8.3099C18.6593 8.31267 18.6613 8.31512 18.6629 8.31716L18.6696 8.32534L18.6729 8.33053C18.6885 8.35486 18.693 8.36254 18.695 8.36692L18.6952 8.36724L19.3818 9.81286L19.4388 9.93296L19.5703 9.95281L21.1037 10.1843L21.1037 10.1843L21.1051 10.1845C21.174 10.1945 21.2379 10.2458 21.263 10.3277C21.2646 10.3371 21.2668 10.3476 21.27 10.3586V10.3643L21.273 10.3777L21.2736 10.3881C21.2754 10.4226 21.2697 10.4551 21.2591 10.4799L21.2588 10.4798L21.2542 10.4923C21.2533 10.4947 21.2524 10.4971 21.251 10.4998L21.2381 10.5187C21.2294 10.5314 21.218 10.5454 21.207 10.557L20.0982 11.6846L20.009 11.7753L20.0298 11.9007L20.2926 13.4911C20.3061 13.5792 20.2735 13.659 20.2123 13.7069C20.1945 13.7196 20.1803 13.7277 20.171 13.7321L20.1553 13.7372C20.1346 13.7439 20.1159 13.7466 20.0987 13.7466C20.068 13.7466 20.0377 13.739 20.0108 13.7242L20.0104 13.724L18.6375 12.9725L18.5174 12.9068L18.3974 12.9725L17.0245 13.724L17.0167 13.7282L17.0093 13.733C16.9952 13.7421 16.9722 13.75 16.9406 13.75ZM20.138 13.7451L20.1394 13.7444C20.1389 13.7446 20.1382 13.745 20.138 13.7451ZM15.8877 10.2005C15.8884 10.2 15.8883 10.2001 15.8874 10.2007L15.8877 10.2005Z" stroke="url(#paint42_linear_1808_13335)" stroke-width="0.5"/>
<path d="M18.5185 8.22815V11.173L17.5757 9.91609L18.3134 8.36014C18.358 8.27462 18.44 8.22815 18.5185 8.22815Z" fill="url(#paint43_linear_1808_13335)" fill-opacity="0.38"/>
<path d="M21.2949 10.3328L18.5215 11.1732L19.464 9.91626L21.1103 10.1654C21.2027 10.1831 21.2675 10.2507 21.2949 10.3328Z" fill="url(#paint44_linear_1808_13335)"/>
<path d="M20.2327 13.7258L18.5183 11.1726L20.0416 11.7815L20.3216 13.4908C20.3418 13.5906 20.3008 13.6759 20.2327 13.7258Z" fill="url(#paint45_linear_1808_13335)"/>
<path d="M18.5181 11.1726V12.9352L17.046 13.7434C16.9607 13.7896 16.8718 13.7754 16.8035 13.7258L18.5181 11.1726Z" fill="url(#paint46_linear_1808_13335)"/>
<path d="M19.4611 9.91609L18.5183 11.173V8.22815C18.5798 8.22815 18.6414 8.25295 18.6856 8.30284C18.6925 8.30997 18.6993 8.32051 18.7062 8.33135C18.713 8.34218 18.7198 8.35273 18.7231 8.36328L19.4611 9.91609Z" fill="url(#paint47_linear_1808_13335)" fill-opacity="0.6"/>
<path d="M21.288 10.4925C21.2812 10.5067 21.2743 10.521 21.2675 10.5352C21.2571 10.5495 21.247 10.56 21.2369 10.5743L20.045 11.785L18.5217 11.1761L21.2951 10.3357C21.2951 10.3391 21.2984 10.3428 21.2984 10.3465C21.2984 10.3502 21.302 10.3537 21.302 10.3608C21.302 10.3645 21.302 10.3645 21.302 10.3645C21.302 10.3679 21.302 10.3716 21.302 10.375C21.302 10.3822 21.302 10.3859 21.302 10.3927C21.3052 10.4246 21.3017 10.4603 21.288 10.4925Z" fill="url(#paint48_linear_1808_13335)"/>
<path d="M20.233 13.7258C20.216 13.74 20.1955 13.7506 20.1715 13.7577C20.1682 13.7577 20.1682 13.7577 20.1646 13.7611C20.1099 13.7788 20.0484 13.7754 19.9905 13.7434L18.5183 12.9352V11.1726L20.233 13.7258Z" fill="url(#paint49_linear_1808_13335)"/>
<path d="M18.5183 11.1726L16.8039 13.7258C16.8006 13.722 16.7971 13.7186 16.7938 13.7149C16.7905 13.7115 16.787 13.7078 16.7834 13.7041C16.7801 13.7007 16.7766 13.697 16.7697 13.6898C16.7662 13.6864 16.7629 13.6827 16.7594 13.679C16.7558 13.6753 16.7561 13.6756 16.7561 13.6719C16.7528 13.6684 16.7492 13.6647 16.7492 13.661C16.7424 13.6505 16.7356 13.6397 16.7323 13.6291C16.729 13.6257 16.729 13.6183 16.7254 13.6114C16.7222 13.6043 16.7222 13.6006 16.7186 13.5938C16.7153 13.5866 16.7153 13.5761 16.7153 13.569C16.7153 13.5655 16.7153 13.5581 16.7153 13.5547C16.7153 13.5476 16.7153 13.5405 16.7153 13.5333C16.7153 13.5191 16.7153 13.5048 16.7186 13.4906L16.9986 11.7812L18.5183 11.1726Z" fill="url(#paint50_linear_1808_13335)"/>
<path d="M18.518 11.1724L15.7446 10.332C15.7446 10.3286 15.7479 10.3249 15.7479 10.3212C15.7512 10.3141 15.7512 10.3069 15.7547 10.3035C15.7616 10.2893 15.7684 10.2787 15.7753 10.2679C15.7785 10.2608 15.7821 10.257 15.7889 10.2502C15.7925 10.2468 15.7958 10.2394 15.8026 10.2359C15.8059 10.2325 15.813 10.2254 15.8163 10.2217C15.8195 10.218 15.8264 10.2146 15.8299 10.2109C15.8368 10.2074 15.8436 10.2 15.8504 10.1966C15.8537 10.1932 15.8606 10.1895 15.8674 10.1895C15.8778 10.1861 15.8844 10.1824 15.8947 10.1786C15.898 10.1786 15.9016 10.1752 15.9084 10.1752C15.9152 10.1718 15.9254 10.1718 15.9358 10.1681L17.5821 9.91895L18.518 11.1724Z" fill="url(#paint51_linear_1808_13335)"/>
<path d="M18.518 11.1727L16.9983 11.785L15.8064 10.5743C15.7927 10.5635 15.7859 10.5495 15.7758 10.5353C15.7689 10.521 15.7588 10.5067 15.7553 10.4925C15.752 10.4854 15.7484 10.4782 15.7484 10.4711C15.7416 10.4497 15.738 10.4249 15.738 10.4035C15.738 10.3964 15.738 10.3893 15.738 10.3822C15.738 10.3716 15.738 10.3645 15.7416 10.3537C15.7416 10.3502 15.7449 10.3465 15.7449 10.3394C15.7449 10.336 15.7482 10.3323 15.7482 10.3289L18.518 11.1727Z" fill="url(#paint52_linear_1808_13335)"/>
</g>
</g>
<defs>
<filter id="filter0_d_1808_13335" x="4.52393" y="7.18628" width="28" height="29.6274" filterUnits="userSpaceOnUse" color-interpolation-filters="sRGB">
<feFlood flood-opacity="0" result="BackgroundImageFix"/>
<feColorMatrix in="SourceAlpha" type="matrix" values="0 0 0 0 0 0 0 0 0 0 0 0 0 0 0 0 0 0 127 0" result="hardAlpha"/>
<feOffset dy="4"/>
<feGaussianBlur stdDeviation="2"/>
<feComposite in2="hardAlpha" operator="out"/>
<feColorMatrix type="matrix" values="0 0 0 0 0.512291 0 0 0 0 0.286279 0 0 0 0 1 0 0 0 0.17 0"/>
<feBlend mode="normal" in2="BackgroundImageFix" result="effect1_dropShadow_1808_13335"/>
<feBlend mode="normal" in="SourceGraphic" in2="effect1_dropShadow_1808_13335" result="shape"/>
</filter>
<filter id="filter1_d_1808_13335" x="7.14893" y="6.49878" width="22.75" height="24.3774" filterUnits="userSpaceOnUse" color-interpolation-filters="sRGB">
<feFlood flood-opacity="0" result="BackgroundImageFix"/>
<feColorMatrix in="SourceAlpha" type="matrix" values="0 0 0 0 0 0 0 0 0 0 0 0 0 0 0 0 0 0 127 0" result="hardAlpha"/>
<feOffset dy="0.6875"/>
<feGaussianBlur stdDeviation="0.6875"/>
<feColorMatrix type="matrix" values="0 0 0 0 0.287239 0 0 0 0 0.155102 0 0 0 0 0.511019 0 0 0 1 0"/>
<feBlend mode="normal" in2="BackgroundImageFix" result="effect1_dropShadow_1808_13335"/>
<feBlend mode="normal" in="SourceGraphic" in2="effect1_dropShadow_1808_13335" result="shape"/>
</filter>
<filter id="filter2_d_1808_13335" x="7.52393" y="13" width="10" height="10" filterUnits="userSpaceOnUse" color-interpolation-filters="sRGB">
<feFlood flood-opacity="0" result="BackgroundImageFix"/>
<feColorMatrix in="SourceAlpha" type="matrix" values="0 0 0 0 0 0 0 0 0 0 0 0 0 0 0 0 0 0 127 0" result="hardAlpha"/>
<feOffset dy="1"/>
<feGaussianBlur stdDeviation="1"/>
<feComposite in2="hardAlpha" operator="out"/>
<feColorMatrix type="matrix" values="0 0 0 0 1 0 0 0 0 1 0 0 0 0 1 0 0 0 0.5 0"/>
<feBlend mode="normal" in2="BackgroundImageFix" result="effect1_dropShadow_1808_13335"/>
<feBlend mode="normal" in="SourceGraphic" in2="effect1_dropShadow_1808_13335" result="shape"/>
</filter>
<filter id="filter3_d_1808_13335" x="19.5239" y="13" width="10" height="10" filterUnits="userSpaceOnUse" color-interpolation-filters="sRGB">
<feFlood flood-opacity="0" result="BackgroundImageFix"/>
<feColorMatrix in="SourceAlpha" type="matrix" values="0 0 0 0 0 0 0 0 0 0 0 0 0 0 0 0 0 0 127 0" result="hardAlpha"/>
<feOffset dy="1"/>
<feGaussianBlur stdDeviation="1"/>
<feComposite in2="hardAlpha" operator="out"/>
<feColorMatrix type="matrix" values="0 0 0 0 1 0 0 0 0 1 0 0 0 0 1 0 0 0 0.5 0"/>
<feBlend mode="normal" in2="BackgroundImageFix" result="effect1_dropShadow_1808_13335"/>
<feBlend mode="normal" in="SourceGraphic" in2="effect1_dropShadow_1808_13335" result="shape"/>
</filter>
<filter id="filter4_d_1808_13335" x="13.5239" y="19" width="10" height="10" filterUnits="userSpaceOnUse" color-interpolation-filters="sRGB">
<feFlood flood-opacity="0" result="BackgroundImageFix"/>
<feColorMatrix in="SourceAlpha" type="matrix" values="0 0 0 0 0 0 0 0 0 0 0 0 0 0 0 0 0 0 127 0" result="hardAlpha"/>
<feOffset dy="1"/>
<feGaussianBlur stdDeviation="1"/>
<feComposite in2="hardAlpha" operator="out"/>
<feColorMatrix type="matrix" values="0 0 0 0 1 0 0 0 0 1 0 0 0 0 1 0 0 0 0.5 0"/>
<feBlend mode="normal" in2="BackgroundImageFix" result="effect1_dropShadow_1808_13335"/>
<feBlend mode="normal" in="SourceGraphic" in2="effect1_dropShadow_1808_13335" result="shape"/>
</filter>
<filter id="filter5_d_1808_13335" x="13.5239" y="7" width="10" height="10" filterUnits="userSpaceOnUse" color-interpolation-filters="sRGB">
<feFlood flood-opacity="0" result="BackgroundImageFix"/>
<feColorMatrix in="SourceAlpha" type="matrix" values="0 0 0 0 0 0 0 0 0 0 0 0 0 0 0 0 0 0 127 0" result="hardAlpha"/>
<feOffset dy="1"/>
<feGaussianBlur stdDeviation="1"/>
<feComposite in2="hardAlpha" operator="out"/>
<feColorMatrix type="matrix" values="0 0 0 0 1 0 0 0 0 1 0 0 0 0 1 0 0 0 0.5 0"/>
<feBlend mode="normal" in2="BackgroundImageFix" result="effect1_dropShadow_1808_13335"/>
<feBlend mode="normal" in="SourceGraphic" in2="effect1_dropShadow_1808_13335" result="shape"/>
</filter>
<linearGradient id="paint0_linear_1808_13335" x1="2.07456" y1="5" x2="2.07456" y2="37" gradientUnits="userSpaceOnUse">
<stop stop-color="#B28EFF"/>
<stop offset="0.48" stop-color="#8F6DD6"/>
</linearGradient>
<linearGradient id="paint1_linear_1808_13335" x1="5.52393" y1="4" x2="5.52393" y2="31.7032" gradientUnits="userSpaceOnUse">
<stop offset="0.06" stop-color="#A143FF"/>
<stop offset="0.46" stop-color="#8548F1"/>
<stop offset="0.73" stop-color="#6F3DC6"/>
</linearGradient>
<linearGradient id="paint2_linear_1808_13335" x1="14.5239" y1="5.33398" x2="14.5239" y2="6.96787" gradientUnits="userSpaceOnUse">
<stop offset="0.2" stop-color="#856DB9"/>
<stop offset="0.82" stop-color="#46247C"/>
</linearGradient>
<linearGradient id="paint3_linear_1808_13335" x1="7.05017" y1="7" x2="7.05017" y2="28.5111" gradientUnits="userSpaceOnUse">
<stop offset="0.205" stop-color="#9747FF"/>
<stop offset="0.64" stop-color="#7734CA"/>
</linearGradient>
<linearGradient id="paint4_linear_1808_13335" x1="23.5813" y1="25" x2="23.5239" y2="27.6838" gradientUnits="userSpaceOnUse">
<stop offset="0.2" stop-color="#856DB9"/>
<stop offset="0.82" stop-color="#46247C"/>
</linearGradient>
<linearGradient id="paint5_linear_1808_13335" x1="11.0239" y1="14" x2="13.8096" y2="19.7857" gradientUnits="userSpaceOnUse">
<stop stop-color="#E1E1E1" stop-opacity="0.33"/>
<stop offset="0.195" stop-color="#D1D0D0" stop-opacity="0.32"/>
<stop offset="0.76" stop-color="#D6D5D5" stop-opacity="0.58"/>
<stop offset="1" stop-color="#DBDBDB" stop-opacity="0.31"/>
</linearGradient>
<linearGradient id="paint6_linear_1808_13335" x1="11.0239" y1="14" x2="13.8096" y2="19.7857" gradientUnits="userSpaceOnUse">
<stop stop-color="#D8D8D8"/>
<stop offset="0.195" stop-color="#D1D0D0" stop-opacity="0.32"/>
<stop offset="0.76" stop-color="#D6D5D5" stop-opacity="0.58"/>
<stop offset="1" stop-color="#DBDBDB" stop-opacity="0.31"/>
</linearGradient>
<linearGradient id="paint7_linear_1808_13335" x1="12.0471" y1="14.2281" x2="12.5241" y2="17.2142" gradientUnits="userSpaceOnUse">
<stop stop-color="white" stop-opacity="0.54"/>
<stop offset="1" stop-color="#696969" stop-opacity="0.71"/>
</linearGradient>
<linearGradient id="paint8_linear_1808_13335" x1="15.1776" y1="15.9163" x2="12.6388" y2="17.1732" gradientUnits="userSpaceOnUse">
<stop stop-color="#ECE5E7" stop-opacity="0.14"/>
<stop offset="1" stop-color="#868283" stop-opacity="0.46"/>
</linearGradient>
<linearGradient id="paint9_linear_1808_13335" x1="13.167" y1="17.4285" x2="14.2434" y2="19.7258" gradientUnits="userSpaceOnUse">
<stop stop-color="#E1DCE2" stop-opacity="0.55"/>
<stop offset="1" stop-color="#B0B0B0" stop-opacity="0.5"/>
</linearGradient>
<linearGradient id="paint10_linear_1808_13335" x1="12.3097" y1="17.2143" x2="11.6669" y2="19.5714" gradientUnits="userSpaceOnUse">
<stop stop-color="#E7E6E7" stop-opacity="0.56"/>
<stop offset="1" stop-color="#CBC5CB" stop-opacity="0.79"/>
</linearGradient>
<linearGradient id="paint11_linear_1808_13335" x1="13.1668" y1="14.2142" x2="12.524" y2="17.2142" gradientUnits="userSpaceOnUse">
<stop offset="0.0246486" stop-color="#FAECDB" stop-opacity="0.49"/>
<stop offset="1" stop-color="#948C82" stop-opacity="0.38"/>
</linearGradient>
<linearGradient id="paint12_linear_1808_13335" x1="15.3098" y1="16.7856" x2="12.9526" y2="17.2142" gradientUnits="userSpaceOnUse">
<stop stop-color="#DAD3D9" stop-opacity="0.64"/>
<stop offset="1" stop-color="#B4B1B3" stop-opacity="0.45"/>
</linearGradient>
<linearGradient id="paint13_linear_1808_13335" x1="12.524" y1="17.2143" x2="13.8097" y2="19.7857" gradientUnits="userSpaceOnUse">
<stop stop-color="#D5CFD6" stop-opacity="0.64"/>
<stop offset="1" stop-color="#A9A2AA" stop-opacity="0.43"/>
</linearGradient>
<linearGradient id="paint14_linear_1808_13335" x1="12.237" y1="17.1726" x2="10.5955" y2="19.5714" gradientUnits="userSpaceOnUse">
<stop stop-color="#D5D1D7" stop-opacity="0.92"/>
<stop offset="1" stop-color="#A5A0A8" stop-opacity="0.34"/>
</linearGradient>
<linearGradient id="paint15_linear_1808_13335" x1="10.5954" y1="15.9286" x2="12.3097" y2="17" gradientUnits="userSpaceOnUse">
<stop stop-color="#D6D1D8" stop-opacity="0.44"/>
<stop offset="1" stop-color="#ABA5AD" stop-opacity="0.24"/>
</linearGradient>
<linearGradient id="paint16_linear_1808_13335" x1="9.76629" y1="16.8609" x2="12.4897" y2="17.6005" gradientUnits="userSpaceOnUse">
<stop stop-color="#C3BFC5" stop-opacity="0.55"/>
<stop offset="1" stop-color="#E1E1E1" stop-opacity="0.45"/>
</linearGradient>
<linearGradient id="paint17_linear_1808_13335" x1="23.0239" y1="14" x2="25.8096" y2="19.7857" gradientUnits="userSpaceOnUse">
<stop stop-color="#E1E1E1" stop-opacity="0.33"/>
<stop offset="0.195" stop-color="#D1D0D0" stop-opacity="0.32"/>
<stop offset="0.76" stop-color="#D6D5D5" stop-opacity="0.58"/>
<stop offset="1" stop-color="#DBDBDB" stop-opacity="0.31"/>
</linearGradient>
<linearGradient id="paint18_linear_1808_13335" x1="23.0239" y1="14" x2="25.8096" y2="19.7857" gradientUnits="userSpaceOnUse">
<stop stop-color="#D8D8D8"/>
<stop offset="0.195" stop-color="#D1D0D0" stop-opacity="0.32"/>
<stop offset="0.76" stop-color="#D6D5D5" stop-opacity="0.58"/>
<stop offset="1" stop-color="#DBDBDB" stop-opacity="0.31"/>
</linearGradient>
<linearGradient id="paint19_linear_1808_13335" x1="24.0471" y1="14.2281" x2="24.5241" y2="17.2142" gradientUnits="userSpaceOnUse">
<stop stop-color="white" stop-opacity="0.54"/>
<stop offset="1" stop-color="#696969" stop-opacity="0.71"/>
</linearGradient>
<linearGradient id="paint20_linear_1808_13335" x1="27.1776" y1="15.9163" x2="24.6388" y2="17.1732" gradientUnits="userSpaceOnUse">
<stop stop-color="#ECE5E7" stop-opacity="0.14"/>
<stop offset="1" stop-color="#868283" stop-opacity="0.46"/>
</linearGradient>
<linearGradient id="paint21_linear_1808_13335" x1="25.1667" y1="17.4285" x2="26.2432" y2="19.7258" gradientUnits="userSpaceOnUse">
<stop stop-color="#E1DCE2" stop-opacity="0.55"/>
<stop offset="1" stop-color="#B0B0B0" stop-opacity="0.5"/>
</linearGradient>
<linearGradient id="paint22_linear_1808_13335" x1="24.3095" y1="17.2143" x2="23.6666" y2="19.5714" gradientUnits="userSpaceOnUse">
<stop stop-color="#E7E6E7" stop-opacity="0.56"/>
<stop offset="1" stop-color="#CBC5CB" stop-opacity="0.79"/>
</linearGradient>
<linearGradient id="paint23_linear_1808_13335" x1="25.1668" y1="14.2142" x2="24.524" y2="17.2142" gradientUnits="userSpaceOnUse">
<stop offset="0.0246486" stop-color="#FAECDB" stop-opacity="0.49"/>
<stop offset="1" stop-color="#948C82" stop-opacity="0.38"/>
</linearGradient>
<linearGradient id="paint24_linear_1808_13335" x1="27.3095" y1="16.7856" x2="24.9524" y2="17.2142" gradientUnits="userSpaceOnUse">
<stop stop-color="#DAD3D9" stop-opacity="0.64"/>
<stop offset="1" stop-color="#B4B1B3" stop-opacity="0.45"/>
</linearGradient>
<linearGradient id="paint25_linear_1808_13335" x1="24.524" y1="17.2143" x2="25.8097" y2="19.7857" gradientUnits="userSpaceOnUse">
<stop stop-color="#D5CFD6" stop-opacity="0.64"/>
<stop offset="1" stop-color="#A9A2AA" stop-opacity="0.43"/>
</linearGradient>
<linearGradient id="paint26_linear_1808_13335" x1="24.237" y1="17.1726" x2="22.5955" y2="19.5714" gradientUnits="userSpaceOnUse">
<stop stop-color="#D5D1D7" stop-opacity="0.92"/>
<stop offset="1" stop-color="#A5A0A8" stop-opacity="0.34"/>
</linearGradient>
<linearGradient id="paint27_linear_1808_13335" x1="22.5952" y1="15.9286" x2="24.3095" y2="17" gradientUnits="userSpaceOnUse">
<stop stop-color="#D6D1D8" stop-opacity="0.44"/>
<stop offset="1" stop-color="#ABA5AD" stop-opacity="0.24"/>
</linearGradient>
<linearGradient id="paint28_linear_1808_13335" x1="21.7663" y1="16.8609" x2="24.4897" y2="17.6005" gradientUnits="userSpaceOnUse">
<stop stop-color="#C3BFC5" stop-opacity="0.55"/>
<stop offset="1" stop-color="#E1E1E1" stop-opacity="0.45"/>
</linearGradient>
<linearGradient id="paint29_linear_1808_13335" x1="17.0239" y1="20" x2="19.8096" y2="25.7857" gradientUnits="userSpaceOnUse">
<stop stop-color="#E1E1E1" stop-opacity="0.33"/>
<stop offset="0.195" stop-color="#D1D0D0" stop-opacity="0.32"/>
<stop offset="0.76" stop-color="#D6D5D5" stop-opacity="0.58"/>
<stop offset="1" stop-color="#DBDBDB" stop-opacity="0.31"/>
</linearGradient>
<linearGradient id="paint30_linear_1808_13335" x1="17.0239" y1="20" x2="19.8096" y2="25.7857" gradientUnits="userSpaceOnUse">
<stop stop-color="#D8D8D8"/>
<stop offset="0.195" stop-color="#D1D0D0" stop-opacity="0.32"/>
<stop offset="0.76" stop-color="#D6D5D5" stop-opacity="0.58"/>
<stop offset="1" stop-color="#DBDBDB" stop-opacity="0.31"/>
</linearGradient>
<linearGradient id="paint31_linear_1808_13335" x1="18.0471" y1="20.2281" x2="18.5241" y2="23.2142" gradientUnits="userSpaceOnUse">
<stop stop-color="white" stop-opacity="0.54"/>
<stop offset="1" stop-color="#696969" stop-opacity="0.71"/>
</linearGradient>
<linearGradient id="paint32_linear_1808_13335" x1="21.1776" y1="21.9163" x2="18.6388" y2="23.1732" gradientUnits="userSpaceOnUse">
<stop stop-color="#ECE5E7" stop-opacity="0.14"/>
<stop offset="1" stop-color="#868283" stop-opacity="0.46"/>
</linearGradient>
<linearGradient id="paint33_linear_1808_13335" x1="19.1667" y1="23.4285" x2="20.2432" y2="25.7258" gradientUnits="userSpaceOnUse">
<stop stop-color="#E1DCE2" stop-opacity="0.55"/>
<stop offset="1" stop-color="#B0B0B0" stop-opacity="0.5"/>
</linearGradient>
<linearGradient id="paint34_linear_1808_13335" x1="18.3095" y1="23.2143" x2="17.6666" y2="25.5714" gradientUnits="userSpaceOnUse">
<stop stop-color="#E7E6E7" stop-opacity="0.56"/>
<stop offset="1" stop-color="#CBC5CB" stop-opacity="0.79"/>
</linearGradient>
<linearGradient id="paint35_linear_1808_13335" x1="19.1668" y1="20.2142" x2="18.524" y2="23.2142" gradientUnits="userSpaceOnUse">
<stop offset="0.0246486" stop-color="#FAECDB" stop-opacity="0.49"/>
<stop offset="1" stop-color="#948C82" stop-opacity="0.38"/>
</linearGradient>
<linearGradient id="paint36_linear_1808_13335" x1="21.3095" y1="22.7856" x2="18.9524" y2="23.2142" gradientUnits="userSpaceOnUse">
<stop stop-color="#DAD3D9" stop-opacity="0.64"/>
<stop offset="1" stop-color="#B4B1B3" stop-opacity="0.45"/>
</linearGradient>
<linearGradient id="paint37_linear_1808_13335" x1="18.524" y1="23.2143" x2="19.8097" y2="25.7857" gradientUnits="userSpaceOnUse">
<stop stop-color="#D5CFD6" stop-opacity="0.64"/>
<stop offset="1" stop-color="#A9A2AA" stop-opacity="0.43"/>
</linearGradient>
<linearGradient id="paint38_linear_1808_13335" x1="18.237" y1="23.1726" x2="16.5955" y2="25.5714" gradientUnits="userSpaceOnUse">
<stop stop-color="#D5D1D7" stop-opacity="0.92"/>
<stop offset="1" stop-color="#A5A0A8" stop-opacity="0.34"/>
</linearGradient>
<linearGradient id="paint39_linear_1808_13335" x1="16.5952" y1="21.9286" x2="18.3095" y2="23" gradientUnits="userSpaceOnUse">
<stop stop-color="#D6D1D8" stop-opacity="0.44"/>
<stop offset="1" stop-color="#ABA5AD" stop-opacity="0.24"/>
</linearGradient>
<linearGradient id="paint40_linear_1808_13335" x1="15.7663" y1="22.8609" x2="18.4897" y2="23.6005" gradientUnits="userSpaceOnUse">
<stop stop-color="#C3BFC5" stop-opacity="0.55"/>
<stop offset="1" stop-color="#E1E1E1" stop-opacity="0.45"/>
</linearGradient>
<linearGradient id="paint41_linear_1808_13335" x1="17.0239" y1="8" x2="19.8096" y2="13.7857" gradientUnits="userSpaceOnUse">
<stop stop-color="#E1E1E1" stop-opacity="0.33"/>
<stop offset="0.195" stop-color="#D1D0D0" stop-opacity="0.32"/>
<stop offset="0.76" stop-color="#D6D5D5" stop-opacity="0.58"/>
<stop offset="1" stop-color="#DBDBDB" stop-opacity="0.31"/>
</linearGradient>
<linearGradient id="paint42_linear_1808_13335" x1="17.0239" y1="8" x2="19.8096" y2="13.7857" gradientUnits="userSpaceOnUse">
<stop stop-color="#D8D8D8"/>
<stop offset="0.195" stop-color="#D1D0D0" stop-opacity="0.32"/>
<stop offset="0.76" stop-color="#D6D5D5" stop-opacity="0.58"/>
<stop offset="1" stop-color="#DBDBDB" stop-opacity="0.31"/>
</linearGradient>
<linearGradient id="paint43_linear_1808_13335" x1="18.0471" y1="8.22815" x2="18.5241" y2="11.2142" gradientUnits="userSpaceOnUse">
<stop stop-color="white" stop-opacity="0.54"/>
<stop offset="1" stop-color="#696969" stop-opacity="0.71"/>
</linearGradient>
<linearGradient id="paint44_linear_1808_13335" x1="21.1776" y1="9.91626" x2="18.6388" y2="11.1732" gradientUnits="userSpaceOnUse">
<stop stop-color="#ECE5E7" stop-opacity="0.14"/>
<stop offset="1" stop-color="#868283" stop-opacity="0.46"/>
</linearGradient>
<linearGradient id="paint45_linear_1808_13335" x1="19.1667" y1="11.4285" x2="20.2432" y2="13.7258" gradientUnits="userSpaceOnUse">
<stop stop-color="#E1DCE2" stop-opacity="0.55"/>
<stop offset="1" stop-color="#B0B0B0" stop-opacity="0.5"/>
</linearGradient>
<linearGradient id="paint46_linear_1808_13335" x1="18.3097" y1="11.2143" x2="17.6669" y2="13.5714" gradientUnits="userSpaceOnUse">
<stop stop-color="#E7E6E7" stop-opacity="0.56"/>
<stop offset="1" stop-color="#CBC5CB" stop-opacity="0.79"/>
</linearGradient>
<linearGradient id="paint47_linear_1808_13335" x1="19.1668" y1="8.21423" x2="18.524" y2="11.2142" gradientUnits="userSpaceOnUse">
<stop offset="0.0246486" stop-color="#FAECDB" stop-opacity="0.49"/>
<stop offset="1" stop-color="#948C82" stop-opacity="0.38"/>
</linearGradient>
<linearGradient id="paint48_linear_1808_13335" x1="21.3095" y1="10.7856" x2="18.9524" y2="11.2142" gradientUnits="userSpaceOnUse">
<stop stop-color="#DAD3D9" stop-opacity="0.64"/>
<stop offset="1" stop-color="#B4B1B3" stop-opacity="0.45"/>
</linearGradient>
<linearGradient id="paint49_linear_1808_13335" x1="18.524" y1="11.2143" x2="19.8097" y2="13.7857" gradientUnits="userSpaceOnUse">
<stop stop-color="#D5CFD6" stop-opacity="0.64"/>
<stop offset="1" stop-color="#A9A2AA" stop-opacity="0.43"/>
</linearGradient>
<linearGradient id="paint50_linear_1808_13335" x1="18.237" y1="11.1726" x2="16.5955" y2="13.5714" gradientUnits="userSpaceOnUse">
<stop stop-color="#D5D1D7" stop-opacity="0.92"/>
<stop offset="1" stop-color="#A5A0A8" stop-opacity="0.34"/>
</linearGradient>
<linearGradient id="paint51_linear_1808_13335" x1="16.5952" y1="9.92857" x2="18.3095" y2="11" gradientUnits="userSpaceOnUse">
<stop stop-color="#D6D1D8" stop-opacity="0.44"/>
<stop offset="1" stop-color="#ABA5AD" stop-opacity="0.24"/>
</linearGradient>
<linearGradient id="paint52_linear_1808_13335" x1="15.7663" y1="10.8609" x2="18.4897" y2="11.6005" gradientUnits="userSpaceOnUse">
<stop stop-color="#C3BFC5" stop-opacity="0.55"/>
<stop offset="1" stop-color="#E1E1E1" stop-opacity="0.45"/>
</linearGradient>
<clipPath id="clip0_1808_13335">
<rect width="36" height="36" fill="white" transform="translate(0.523926)"/>
</clipPath>
</defs>
</svg>
