<svg width="37" height="36" viewBox="0 0 37 36" fill="none" xmlns="http://www.w3.org/2000/svg">
<g opacity="0.7" clip-path="url(#clip0_1808_13314)">
<path fill-rule="evenodd" clip-rule="evenodd" d="M17.1127 2.80642C17.9872 2.30672 19.0607 2.30672 19.9352 2.80642L31.0907 9.18103C31.977 9.68746 32.5239 10.6299 32.5239 11.6507V24.3493C32.5239 25.3701 31.977 26.3125 31.0907 26.819L19.9352 33.1936C19.0607 33.6933 17.9872 33.6933 17.1127 33.1936L5.95713 26.819C5.07087 26.3125 4.52393 25.3701 4.52393 24.3493V11.6507C4.52393 10.6299 5.07087 9.68746 5.95713 9.18103L17.1127 2.80642Z" fill="url(#paint0_linear_1808_13314)"/>
<path d="M19.6749 4.29684C18.95 3.90105 18.0568 3.90105 17.3318 4.29684L6.69548 10.1148C5.97052 10.5105 5.52393 11.242 5.52393 12.0336L5.52393 23.6695C5.52393 24.4611 5.97052 25.1925 6.69548 25.5883L17.3488 31.7032C18.0737 32.0989 18.9669 32.0989 19.6919 31.7032L30.3524 25.5883C31.0773 25.1925 31.5239 24.4611 31.5239 23.6695V12.0336C31.5239 11.242 31.0773 10.5105 30.3524 10.1148L19.6749 4.29684Z" fill="url(#paint1_linear_1808_13314)" fill-opacity="0.7"/>
<path d="M17.3539 5.33398C17.3539 5.33398 15.3569 6.48694 14.5239 6.96787Z" fill="url(#paint2_linear_1808_13314)"/>
<path d="M17.3539 5.33398C17.3539 5.33398 15.3569 6.48694 14.5239 6.96787" stroke="white" stroke-opacity="0.28" stroke-width="0.711111" stroke-linecap="round"/>
<g filter="url(#filter0_d_1808_13314)">
<g filter="url(#filter1_d_1808_13314)">
<path fill-rule="evenodd" clip-rule="evenodd" d="M17.8727 7.35023C18.2793 7.13155 18.7685 7.13155 19.1752 7.35023L27.8002 11.9886C28.2459 12.2283 28.5239 12.6935 28.5239 13.1996V22.8004C28.5239 23.3065 28.2459 23.7717 27.8002 24.0114L19.1752 28.6498C18.7685 28.8685 18.2793 28.8685 17.8727 28.6498L9.24768 24.0114C8.80195 23.7717 8.52393 23.3065 8.52393 22.8004V13.1996C8.52393 12.6935 8.80195 12.2283 9.24768 11.9886L17.8727 7.35023Z" fill="url(#paint3_linear_1808_13314)"/>
</g>
</g>
<g opacity="0.4">
<path d="M23.5239 27.6838C25.6189 26.4654 27.1033 25.6021 27.9771 25.0939Z" fill="url(#paint4_linear_1808_13314)"/>
<path d="M23.5239 27.6838C25.6189 26.4654 27.1033 25.6021 27.9771 25.0939" stroke="white" stroke-opacity="0.62" stroke-width="0.711111" stroke-linecap="round"/>
</g>
<g filter="url(#filter2_d_1808_13314)">
<path d="M12.9406 22.75C12.9054 22.75 12.8693 22.7396 12.8312 22.7136L12.8239 22.706L12.8126 22.6932L12.8087 22.6901L12.8043 22.6854L12.803 22.6848C12.8019 22.6836 12.8007 22.6822 12.7994 22.6807C12.7982 22.6791 12.7969 22.6773 12.7955 22.6756C12.7938 22.6733 12.7918 22.6707 12.7895 22.668L12.787 22.6639L12.7801 22.6531L12.7801 22.6531L12.7793 22.6518C12.7762 22.6469 12.7734 22.6418 12.7672 22.629C12.7657 22.6245 12.7642 22.6201 12.7628 22.6158L12.7601 22.6062C12.759 22.6024 12.7575 22.5967 12.7557 22.5905C12.7547 22.5862 12.7536 22.5804 12.7517 22.5708C12.7516 22.57 12.7514 22.5692 12.7513 22.5684C12.751 22.5664 12.7507 22.5645 12.7505 22.5628L12.7496 22.5575C12.7494 22.554 12.7492 22.5507 12.7489 22.5479C12.7483 22.5414 12.7477 22.5354 12.7473 22.5318C12.7477 22.5259 12.7487 22.516 12.7514 22.4947L13.0136 20.9043L13.0343 20.7789L12.9452 20.6884L11.8363 19.5607C11.8254 19.5492 11.8151 19.5366 11.8074 19.5256C11.7958 19.5073 11.7922 19.4997 11.7908 19.4961C11.7901 19.4939 11.7894 19.492 11.7888 19.4904L11.7857 19.4819L11.7847 19.479L11.7842 19.4779L11.7838 19.4762C11.7769 19.4476 11.7739 19.4251 11.7739 19.4035V19.4034V19.4033V19.4032V19.4031V19.4031V19.403V19.4029V19.4028V19.4027V19.4026V19.4026V19.4025V19.4024V19.4023V19.4022V19.4022V19.4021V19.402V19.4019V19.4018V19.4017V19.4017V19.4016V19.4015V19.4014V19.4013V19.4013V19.4012V19.4011V19.401V19.4009V19.4008V19.4008V19.4007V19.4006V19.4005V19.4004V19.4004V19.4003V19.4002V19.4001V19.4V19.4V19.3999V19.3998V19.3997V19.3996V19.3996V19.3995V19.3994V19.3993V19.3992V19.3992V19.3991V19.399V19.3989V19.3988V19.3988V19.3987V19.3986V19.3985V19.3984V19.3984V19.3983V19.3982V19.3981V19.3981V19.398V19.3979V19.3978V19.3977V19.3977V19.3976V19.3975V19.3974V19.3974V19.3973V19.3972V19.3971V19.397V19.397V19.3969V19.3968V19.3967V19.3967V19.3966V19.3965V19.3964V19.3963V19.3963V19.3962V19.3961V19.396V19.396V19.3959V19.3958V19.3957V19.3956V19.3956V19.3955V19.3954V19.3953V19.3953V19.3952V19.3951V19.395V19.395V19.3949V19.3948V19.3947V19.3947V19.3946V19.3945V19.3944V19.3944V19.3943V19.3942V19.3941V19.394V19.394V19.3939V19.3938V19.3937V19.3937V19.3936V19.3935V19.3934V19.3934V19.3933V19.3932V19.3931V19.3931V19.393V19.3929V19.3928V19.3928V19.3927V19.3926V19.3925V19.3925V19.3924V19.3923V19.3922V19.3922V19.3921V19.392V19.3919V19.3919V19.3918V19.3917V19.3916V19.3916V19.3915V19.3914V19.3913V19.3913V19.3912V19.3911V19.391V19.391V19.3909V19.3908V19.3908V19.3907V19.3906V19.3905V19.3905V19.3904V19.3903V19.3902V19.3902V19.3901V19.39V19.3899V19.3899V19.3898V19.3897V19.3896V19.3896V19.3895V19.3894V19.3893V19.3893V19.3892V19.3891V19.3891V19.389V19.3889V19.3888V19.3888V19.3887V19.3886V19.3885V19.3885V19.3884V19.3883V19.3882V19.3882V19.3881V19.388V19.388V19.3879V19.3878V19.3877V19.3877V19.3876V19.3875V19.3874V19.3874V19.3873V19.3872V19.3872V19.3871V19.387V19.3869V19.3869V19.3868V19.3867V19.3866V19.3866V19.3865V19.3864V19.3864V19.3863V19.3862V19.3861V19.3861V19.386V19.3859V19.3858V19.3858V19.3857V19.3856V19.3855V19.3855V19.3854V19.3853V19.3853V19.3852V19.3851V19.385V19.385V19.3849V19.3848V19.3847V19.3847V19.3846V19.3845V19.3845V19.3844V19.3843V19.3842V19.3842V19.3841V19.384V19.384V19.3839V19.3838V19.3837V19.3837V19.3836V19.3835V19.3834V19.3834V19.3833V19.3832V19.3832V19.3831V19.383V19.3829V19.3829V19.3828V19.3827V19.3826V19.3826V19.3825V19.3824V19.3824V19.3823V19.3822V19.3821V19.3821V19.382V19.3819V19.3818V19.3818V19.3817V19.3816V19.3816V19.3815V19.3814V19.3813V19.3813V19.3812V19.3811V19.381V19.381V19.3809V19.3808V19.3807V19.3807V19.3806V19.3805V19.3805V19.3804V19.3803V19.3802V19.3802V19.3801V19.38V19.3799V19.3799V19.3798V19.3797V19.3797V19.3796V19.3795V19.3794V19.3794V19.3793V19.3792V19.3791V19.3791V19.379V19.3789V19.3788V19.3788V19.3787V19.3786V19.3786V19.3785V19.3784V19.3783V19.3783V19.3782V19.3781V19.378V19.378V19.3779V19.3778V19.3777V19.3777V19.3776V19.3775V19.3774V19.3774V19.3773V19.3772V19.3771V19.3771V19.377V19.3769V19.3769V19.3768V19.3767V19.3766V19.3766V19.3765V19.3764V19.3763V19.3763V19.3762V19.3761V19.376V19.376V19.3759V19.3758V19.3757V19.3757V19.3756V19.3755V19.3754V19.3754V19.3753V19.3752V19.3751V19.3751V19.375V19.3749V19.3748V19.3748V19.3747V19.3746V19.3745V19.3745V19.3744V19.3743V19.3742V19.3742V19.3741V19.374V19.3739V19.3739V19.3738V19.3737V19.3736V19.3736V19.3735V19.3734V19.3733V19.3732V19.3732V19.3731V19.373V19.3729V19.3729V19.3728V19.3727V19.3726V19.3726V19.3725V19.3724V19.3723V19.3723V19.3722V19.3721V19.372V19.3719V19.3719V19.3718V19.3717V19.3716V19.3716V19.3715V19.3714V19.3713V19.3712V19.3712V19.3711V19.371V19.3709V19.3709L11.784 19.3393V19.3297L11.8333 19.2463L11.8604 19.218C11.8676 19.2139 11.8738 19.21 11.8785 19.2068C11.8856 19.203 11.8946 19.198 11.9041 19.1922C11.9056 19.1916 11.9073 19.191 11.9093 19.1902L11.922 19.187C11.9281 19.1855 11.9329 19.1843 11.9369 19.1833C11.9427 19.1818 11.9471 19.1807 11.9519 19.1795L13.4798 18.9494L13.6121 18.9295L13.6689 18.8083L14.3451 17.3662C14.3451 17.3662 14.3451 17.3661 14.3451 17.3661C14.381 17.2899 14.4488 17.25 14.5183 17.25C14.5671 17.25 14.6182 17.2706 14.657 17.3099C14.6593 17.3127 14.6613 17.3151 14.6629 17.3172L14.6696 17.3253L14.6729 17.3305C14.6885 17.3549 14.693 17.3625 14.695 17.3669L14.6952 17.3672L15.3818 18.8129L15.4388 18.933L15.5703 18.9528L17.1037 19.1843L17.1037 19.1843L17.1051 19.1845C17.174 19.1945 17.2379 19.2458 17.2631 19.3277C17.2646 19.3371 17.2668 19.3476 17.27 19.3586V19.3643L17.273 19.3777L17.2736 19.3881C17.2754 19.4226 17.2697 19.4551 17.2591 19.4799L17.2588 19.4798L17.2542 19.4923C17.2533 19.4947 17.2524 19.4971 17.251 19.4998L17.2381 19.5187C17.2294 19.5314 17.2181 19.5454 17.207 19.557L16.0982 20.6846L16.009 20.7753L16.0298 20.9007L16.2926 22.4911C16.3061 22.5792 16.2735 22.659 16.2123 22.7069C16.1945 22.7196 16.1803 22.7277 16.171 22.7321L16.1553 22.7372C16.1346 22.7439 16.1159 22.7466 16.0987 22.7466C16.068 22.7466 16.0377 22.739 16.0108 22.7242L16.0104 22.724L14.6375 21.9725L14.5174 21.9068L14.3974 21.9725L13.0245 22.724L13.0167 22.7282L13.0093 22.733C12.9952 22.7421 12.9722 22.75 12.9406 22.75ZM16.138 22.7451L16.1394 22.7444C16.1389 22.7446 16.1382 22.745 16.138 22.7451Z" fill="white" stroke="url(#paint5_linear_1808_13314)" stroke-width="0.5"/>
<path d="M12.9406 22.75C12.9054 22.75 12.8693 22.7396 12.8312 22.7136L12.8239 22.706L12.8126 22.6932L12.8087 22.6901L12.8043 22.6854L12.803 22.6848C12.8019 22.6836 12.8007 22.6822 12.7994 22.6807C12.7982 22.6791 12.7969 22.6773 12.7955 22.6756C12.7938 22.6733 12.7918 22.6707 12.7895 22.668L12.787 22.6639L12.7801 22.6531L12.7801 22.6531L12.7793 22.6518C12.7762 22.6469 12.7734 22.6418 12.7672 22.629C12.7657 22.6245 12.7642 22.6201 12.7628 22.6158L12.7601 22.6062C12.759 22.6024 12.7575 22.5967 12.7557 22.5905C12.7547 22.5862 12.7536 22.5804 12.7517 22.5708C12.7516 22.57 12.7514 22.5692 12.7513 22.5684C12.751 22.5664 12.7507 22.5645 12.7505 22.5628L12.7496 22.5575C12.7494 22.554 12.7492 22.5507 12.7489 22.5479C12.7483 22.5414 12.7477 22.5354 12.7473 22.5318C12.7477 22.5259 12.7487 22.516 12.7514 22.4947L13.0136 20.9043L13.0343 20.7789L12.9452 20.6884L11.8363 19.5607C11.8254 19.5492 11.8151 19.5366 11.8074 19.5256C11.7958 19.5073 11.7922 19.4997 11.7908 19.4961C11.7901 19.4939 11.7894 19.492 11.7888 19.4904L11.7857 19.4819L11.7847 19.479L11.7842 19.4779L11.7838 19.4762C11.7769 19.4476 11.7739 19.4251 11.7739 19.4035V19.4034V19.4033V19.4032V19.4031V19.4031V19.403V19.4029V19.4028V19.4027V19.4026V19.4026V19.4025V19.4024V19.4023V19.4022V19.4022V19.4021V19.402V19.4019V19.4018V19.4017V19.4017V19.4016V19.4015V19.4014V19.4013V19.4013V19.4012V19.4011V19.401V19.4009V19.4008V19.4008V19.4007V19.4006V19.4005V19.4004V19.4004V19.4003V19.4002V19.4001V19.4V19.4V19.3999V19.3998V19.3997V19.3996V19.3996V19.3995V19.3994V19.3993V19.3992V19.3992V19.3991V19.399V19.3989V19.3988V19.3988V19.3987V19.3986V19.3985V19.3984V19.3984V19.3983V19.3982V19.3981V19.3981V19.398V19.3979V19.3978V19.3977V19.3977V19.3976V19.3975V19.3974V19.3974V19.3973V19.3972V19.3971V19.397V19.397V19.3969V19.3968V19.3967V19.3967V19.3966V19.3965V19.3964V19.3963V19.3963V19.3962V19.3961V19.396V19.396V19.3959V19.3958V19.3957V19.3956V19.3956V19.3955V19.3954V19.3953V19.3953V19.3952V19.3951V19.395V19.395V19.3949V19.3948V19.3947V19.3947V19.3946V19.3945V19.3944V19.3944V19.3943V19.3942V19.3941V19.394V19.394V19.3939V19.3938V19.3937V19.3937V19.3936V19.3935V19.3934V19.3934V19.3933V19.3932V19.3931V19.3931V19.393V19.3929V19.3928V19.3928V19.3927V19.3926V19.3925V19.3925V19.3924V19.3923V19.3922V19.3922V19.3921V19.392V19.3919V19.3919V19.3918V19.3917V19.3916V19.3916V19.3915V19.3914V19.3913V19.3913V19.3912V19.3911V19.391V19.391V19.3909V19.3908V19.3908V19.3907V19.3906V19.3905V19.3905V19.3904V19.3903V19.3902V19.3902V19.3901V19.39V19.3899V19.3899V19.3898V19.3897V19.3896V19.3896V19.3895V19.3894V19.3893V19.3893V19.3892V19.3891V19.3891V19.389V19.3889V19.3888V19.3888V19.3887V19.3886V19.3885V19.3885V19.3884V19.3883V19.3882V19.3882V19.3881V19.388V19.388V19.3879V19.3878V19.3877V19.3877V19.3876V19.3875V19.3874V19.3874V19.3873V19.3872V19.3872V19.3871V19.387V19.3869V19.3869V19.3868V19.3867V19.3866V19.3866V19.3865V19.3864V19.3864V19.3863V19.3862V19.3861V19.3861V19.386V19.3859V19.3858V19.3858V19.3857V19.3856V19.3855V19.3855V19.3854V19.3853V19.3853V19.3852V19.3851V19.385V19.385V19.3849V19.3848V19.3847V19.3847V19.3846V19.3845V19.3845V19.3844V19.3843V19.3842V19.3842V19.3841V19.384V19.384V19.3839V19.3838V19.3837V19.3837V19.3836V19.3835V19.3834V19.3834V19.3833V19.3832V19.3832V19.3831V19.383V19.3829V19.3829V19.3828V19.3827V19.3826V19.3826V19.3825V19.3824V19.3824V19.3823V19.3822V19.3821V19.3821V19.382V19.3819V19.3818V19.3818V19.3817V19.3816V19.3816V19.3815V19.3814V19.3813V19.3813V19.3812V19.3811V19.381V19.381V19.3809V19.3808V19.3807V19.3807V19.3806V19.3805V19.3805V19.3804V19.3803V19.3802V19.3802V19.3801V19.38V19.3799V19.3799V19.3798V19.3797V19.3797V19.3796V19.3795V19.3794V19.3794V19.3793V19.3792V19.3791V19.3791V19.379V19.3789V19.3788V19.3788V19.3787V19.3786V19.3786V19.3785V19.3784V19.3783V19.3783V19.3782V19.3781V19.378V19.378V19.3779V19.3778V19.3777V19.3777V19.3776V19.3775V19.3774V19.3774V19.3773V19.3772V19.3771V19.3771V19.377V19.3769V19.3769V19.3768V19.3767V19.3766V19.3766V19.3765V19.3764V19.3763V19.3763V19.3762V19.3761V19.376V19.376V19.3759V19.3758V19.3757V19.3757V19.3756V19.3755V19.3754V19.3754V19.3753V19.3752V19.3751V19.3751V19.375V19.3749V19.3748V19.3748V19.3747V19.3746V19.3745V19.3745V19.3744V19.3743V19.3742V19.3742V19.3741V19.374V19.3739V19.3739V19.3738V19.3737V19.3736V19.3736V19.3735V19.3734V19.3733V19.3732V19.3732V19.3731V19.373V19.3729V19.3729V19.3728V19.3727V19.3726V19.3726V19.3725V19.3724V19.3723V19.3723V19.3722V19.3721V19.372V19.3719V19.3719V19.3718V19.3717V19.3716V19.3716V19.3715V19.3714V19.3713V19.3712V19.3712V19.3711V19.371V19.3709V19.3709L11.784 19.3393V19.3297L11.8333 19.2463L11.8604 19.218C11.8676 19.2139 11.8738 19.21 11.8785 19.2068C11.8856 19.203 11.8946 19.198 11.9041 19.1922C11.9056 19.1916 11.9073 19.191 11.9093 19.1902L11.922 19.187C11.9281 19.1855 11.9329 19.1843 11.9369 19.1833C11.9427 19.1818 11.9471 19.1807 11.9519 19.1795L13.4798 18.9494L13.6121 18.9295L13.6689 18.8083L14.3451 17.3662C14.3451 17.3662 14.3451 17.3661 14.3451 17.3661C14.381 17.2899 14.4488 17.25 14.5183 17.25C14.5671 17.25 14.6182 17.2706 14.657 17.3099C14.6593 17.3127 14.6613 17.3151 14.6629 17.3172L14.6696 17.3253L14.6729 17.3305C14.6885 17.3549 14.693 17.3625 14.695 17.3669L14.6952 17.3672L15.3818 18.8129L15.4388 18.933L15.5703 18.9528L17.1037 19.1843L17.1037 19.1843L17.1051 19.1845C17.174 19.1945 17.2379 19.2458 17.2631 19.3277C17.2646 19.3371 17.2668 19.3476 17.27 19.3586V19.3643L17.273 19.3777L17.2736 19.3881C17.2754 19.4226 17.2697 19.4551 17.2591 19.4799L17.2588 19.4798L17.2542 19.4923C17.2533 19.4947 17.2524 19.4971 17.251 19.4998L17.2381 19.5187C17.2294 19.5314 17.2181 19.5454 17.207 19.557L16.0982 20.6846L16.009 20.7753L16.0298 20.9007L16.2926 22.4911C16.3061 22.5792 16.2735 22.659 16.2123 22.7069C16.1945 22.7196 16.1803 22.7277 16.171 22.7321L16.1553 22.7372C16.1346 22.7439 16.1159 22.7466 16.0987 22.7466C16.068 22.7466 16.0377 22.739 16.0108 22.7242L16.0104 22.724L14.6375 21.9725L14.5174 21.9068L14.3974 21.9725L13.0245 22.724L13.0167 22.7282L13.0093 22.733C12.9952 22.7421 12.9722 22.75 12.9406 22.75ZM16.138 22.7451L16.1394 22.7444C16.1389 22.7446 16.1382 22.745 16.138 22.7451Z" stroke="url(#paint6_linear_1808_13314)" stroke-width="0.5"/>
<path d="M14.5185 17.2281V20.173L13.5757 18.9161L14.3134 17.3601C14.358 17.2746 14.44 17.2281 14.5185 17.2281Z" fill="url(#paint7_linear_1808_13314)" fill-opacity="0.38"/>
<path d="M17.2949 19.3329L14.5215 20.1733L15.464 18.9164L17.1103 19.1655C17.2027 19.1832 17.2675 19.2508 17.2949 19.3329Z" fill="url(#paint8_linear_1808_13314)"/>
<path d="M16.233 22.7256L14.5186 20.1725L16.0418 20.7814L16.3218 22.4907C16.3421 22.5905 16.301 22.6757 16.233 22.7256Z" fill="url(#paint9_linear_1808_13314)"/>
<path d="M14.5179 20.1725V21.9351L13.0458 22.7433C12.9604 22.7895 12.8716 22.7752 12.8032 22.7256L14.5179 20.1725Z" fill="url(#paint10_linear_1808_13314)"/>
<path d="M15.4613 18.9161L14.5186 20.173V17.2281C14.5801 17.2281 14.6416 17.253 14.6859 17.3028C14.6927 17.31 14.6996 17.3205 14.7064 17.3313C14.7132 17.3422 14.7201 17.3527 14.7234 17.3633L15.4613 18.9161Z" fill="url(#paint11_linear_1808_13314)" fill-opacity="0.6"/>
<path d="M17.2883 19.4927C17.2814 19.507 17.2746 19.5212 17.2678 19.5355C17.2574 19.5497 17.2472 19.5603 17.2371 19.5745L16.0453 20.7853L14.522 20.1763L17.2954 19.3359C17.2954 19.3394 17.2987 19.3431 17.2987 19.3468C17.2987 19.3505 17.3022 19.3539 17.3022 19.361C17.3022 19.3647 17.3022 19.3647 17.3022 19.3647C17.3022 19.3682 17.3022 19.3719 17.3022 19.3753C17.3022 19.3824 17.3022 19.3861 17.3022 19.393C17.3055 19.4249 17.3019 19.4605 17.2883 19.4927Z" fill="url(#paint12_linear_1808_13314)"/>
<path d="M16.2332 22.7256C16.2163 22.7399 16.1958 22.7504 16.1717 22.7576C16.1684 22.7576 16.1684 22.7576 16.1649 22.761C16.1102 22.7787 16.0487 22.7752 15.9907 22.7433L14.5186 21.9351V20.1725L16.2332 22.7256Z" fill="url(#paint13_linear_1808_13314)"/>
<path d="M14.5183 20.1725L12.8039 22.7256C12.8006 22.7219 12.7971 22.7185 12.7938 22.7148C12.7905 22.7114 12.787 22.7077 12.7834 22.704C12.7801 22.7005 12.7766 22.6968 12.7697 22.6897C12.7662 22.6863 12.7629 22.6826 12.7594 22.6789C12.7558 22.6752 12.7561 22.6755 12.7561 22.6717C12.7528 22.6683 12.7492 22.6646 12.7492 22.6609C12.7424 22.6504 12.7356 22.6395 12.7323 22.629C12.729 22.6256 12.729 22.6182 12.7254 22.6113C12.7222 22.6042 12.7222 22.6005 12.7186 22.5936C12.7153 22.5865 12.7153 22.576 12.7153 22.5688C12.7153 22.5654 12.7153 22.558 12.7153 22.5546C12.7153 22.5475 12.7153 22.5403 12.7153 22.5332C12.7153 22.5189 12.7153 22.5047 12.7186 22.4904L12.9986 20.7811L14.5183 20.1725Z" fill="url(#paint14_linear_1808_13314)"/>
<path d="M14.518 20.1724L11.7446 19.332C11.7446 19.3286 11.7479 19.3249 11.7479 19.3212C11.7512 19.3141 11.7512 19.3069 11.7547 19.3035C11.7616 19.2893 11.7684 19.2787 11.7753 19.2679C11.7785 19.2608 11.7821 19.257 11.7889 19.2502C11.7925 19.2468 11.7958 19.2394 11.8026 19.2359C11.8059 19.2325 11.813 19.2254 11.8163 19.2217C11.8195 19.218 11.8264 19.2146 11.8299 19.2109C11.8368 19.2074 11.8436 19.2 11.8504 19.1966C11.8537 19.1932 11.8606 19.1895 11.8674 19.1895C11.8778 19.1861 11.8844 19.1824 11.8947 19.1786C11.898 19.1786 11.9016 19.1752 11.9084 19.1752C11.9152 19.1718 11.9254 19.1718 11.9358 19.1681L13.5821 18.9189L14.518 20.1724Z" fill="url(#paint15_linear_1808_13314)"/>
<path d="M14.5182 20.1726L12.9985 20.7849L11.8066 19.5742C11.793 19.5634 11.7861 19.5494 11.776 19.5351C11.7692 19.5209 11.7591 19.5066 11.7555 19.4924C11.7522 19.4852 11.7487 19.4781 11.7487 19.471C11.7418 19.4496 11.7383 19.4248 11.7383 19.4034C11.7383 19.3963 11.7383 19.3892 11.7383 19.382C11.7383 19.3715 11.7383 19.3644 11.7418 19.3535C11.7418 19.3501 11.7451 19.3464 11.7451 19.3393C11.7451 19.3359 11.7484 19.3322 11.7484 19.3287L14.5182 20.1726Z" fill="url(#paint16_linear_1808_13314)"/>
</g>
<g filter="url(#filter3_d_1808_13314)">
<path d="M20.9406 22.75C20.9054 22.75 20.8693 22.7396 20.8312 22.7136L20.8239 22.706L20.8126 22.6932L20.8087 22.6901L20.8043 22.6854L20.803 22.6848C20.8019 22.6836 20.8007 22.6822 20.7994 22.6807C20.7982 22.6791 20.7969 22.6773 20.7955 22.6756C20.7938 22.6733 20.7918 22.6707 20.7895 22.668L20.787 22.6639L20.7801 22.6531L20.7801 22.6531L20.7793 22.6518C20.7762 22.6469 20.7734 22.6418 20.7672 22.629C20.7657 22.6245 20.7642 22.6201 20.7628 22.6158L20.7601 22.6062C20.759 22.6024 20.7575 22.5967 20.7557 22.5905C20.7547 22.5862 20.7536 22.5804 20.7517 22.5708C20.7516 22.57 20.7514 22.5692 20.7513 22.5684C20.751 22.5664 20.7507 22.5645 20.7505 22.5628L20.7496 22.5575C20.7494 22.554 20.7492 22.5507 20.7489 22.5479C20.7483 22.5414 20.7477 22.5354 20.7473 22.5318C20.7477 22.5259 20.7487 22.516 20.7514 22.4947L21.0136 20.9043L21.0343 20.7789L20.9452 20.6884L19.8363 19.5607C19.8254 19.5492 19.8151 19.5366 19.8074 19.5256C19.7958 19.5073 19.7922 19.4997 19.7908 19.4961C19.7901 19.4939 19.7894 19.492 19.7888 19.4904L19.7857 19.4819L19.7847 19.479L19.7842 19.4779L19.7838 19.4762C19.7769 19.4476 19.7739 19.4251 19.7739 19.4035V19.4034V19.4033V19.4032V19.4031V19.4031V19.403V19.4029V19.4028V19.4027V19.4026V19.4026V19.4025V19.4024V19.4023V19.4022V19.4022V19.4021V19.402V19.4019V19.4018V19.4017V19.4017V19.4016V19.4015V19.4014V19.4013V19.4013V19.4012V19.4011V19.401V19.4009V19.4008V19.4008V19.4007V19.4006V19.4005V19.4004V19.4004V19.4003V19.4002V19.4001V19.4V19.4V19.3999V19.3998V19.3997V19.3996V19.3996V19.3995V19.3994V19.3993V19.3992V19.3992V19.3991V19.399V19.3989V19.3988V19.3988V19.3987V19.3986V19.3985V19.3984V19.3984V19.3983V19.3982V19.3981V19.3981V19.398V19.3979V19.3978V19.3977V19.3977V19.3976V19.3975V19.3974V19.3974V19.3973V19.3972V19.3971V19.397V19.397V19.3969V19.3968V19.3967V19.3967V19.3966V19.3965V19.3964V19.3963V19.3963V19.3962V19.3961V19.396V19.396V19.3959V19.3958V19.3957V19.3956V19.3956V19.3955V19.3954V19.3953V19.3953V19.3952V19.3951V19.395V19.395V19.3949V19.3948V19.3947V19.3947V19.3946V19.3945V19.3944V19.3944V19.3943V19.3942V19.3941V19.394V19.394V19.3939V19.3938V19.3937V19.3937V19.3936V19.3935V19.3934V19.3934V19.3933V19.3932V19.3931V19.3931V19.393V19.3929V19.3928V19.3928V19.3927V19.3926V19.3925V19.3925V19.3924V19.3923V19.3922V19.3922V19.3921V19.392V19.3919V19.3919V19.3918V19.3917V19.3916V19.3916V19.3915V19.3914V19.3913V19.3913V19.3912V19.3911V19.391V19.391V19.3909V19.3908V19.3908V19.3907V19.3906V19.3905V19.3905V19.3904V19.3903V19.3902V19.3902V19.3901V19.39V19.3899V19.3899V19.3898V19.3897V19.3896V19.3896V19.3895V19.3894V19.3893V19.3893V19.3892V19.3891V19.3891V19.389V19.3889V19.3888V19.3888V19.3887V19.3886V19.3885V19.3885V19.3884V19.3883V19.3882V19.3882V19.3881V19.388V19.388V19.3879V19.3878V19.3877V19.3877V19.3876V19.3875V19.3874V19.3874V19.3873V19.3872V19.3872V19.3871V19.387V19.3869V19.3869V19.3868V19.3867V19.3866V19.3866V19.3865V19.3864V19.3864V19.3863V19.3862V19.3861V19.3861V19.386V19.3859V19.3858V19.3858V19.3857V19.3856V19.3855V19.3855V19.3854V19.3853V19.3853V19.3852V19.3851V19.385V19.385V19.3849V19.3848V19.3847V19.3847V19.3846V19.3845V19.3845V19.3844V19.3843V19.3842V19.3842V19.3841V19.384V19.384V19.3839V19.3838V19.3837V19.3837V19.3836V19.3835V19.3834V19.3834V19.3833V19.3832V19.3832V19.3831V19.383V19.3829V19.3829V19.3828V19.3827V19.3826V19.3826V19.3825V19.3824V19.3824V19.3823V19.3822V19.3821V19.3821V19.382V19.3819V19.3818V19.3818V19.3817V19.3816V19.3816V19.3815V19.3814V19.3813V19.3813V19.3812V19.3811V19.381V19.381V19.3809V19.3808V19.3807V19.3807V19.3806V19.3805V19.3805V19.3804V19.3803V19.3802V19.3802V19.3801V19.38V19.3799V19.3799V19.3798V19.3797V19.3797V19.3796V19.3795V19.3794V19.3794V19.3793V19.3792V19.3791V19.3791V19.379V19.3789V19.3788V19.3788V19.3787V19.3786V19.3786V19.3785V19.3784V19.3783V19.3783V19.3782V19.3781V19.378V19.378V19.3779V19.3778V19.3777V19.3777V19.3776V19.3775V19.3774V19.3774V19.3773V19.3772V19.3771V19.3771V19.377V19.3769V19.3769V19.3768V19.3767V19.3766V19.3766V19.3765V19.3764V19.3763V19.3763V19.3762V19.3761V19.376V19.376V19.3759V19.3758V19.3757V19.3757V19.3756V19.3755V19.3754V19.3754V19.3753V19.3752V19.3751V19.3751V19.375V19.3749V19.3748V19.3748V19.3747V19.3746V19.3745V19.3745V19.3744V19.3743V19.3742V19.3742V19.3741V19.374V19.3739V19.3739V19.3738V19.3737V19.3736V19.3736V19.3735V19.3734V19.3733V19.3732V19.3732V19.3731V19.373V19.3729V19.3729V19.3728V19.3727V19.3726V19.3726V19.3725V19.3724V19.3723V19.3723V19.3722V19.3721V19.372V19.3719V19.3719V19.3718V19.3717V19.3716V19.3716V19.3715V19.3714V19.3713V19.3712V19.3712V19.3711V19.371V19.3709V19.3709L19.784 19.3393V19.3297L19.8333 19.2463L19.8604 19.218C19.8676 19.2139 19.8738 19.21 19.8785 19.2068C19.8856 19.203 19.8946 19.198 19.9041 19.1922C19.9056 19.1916 19.9073 19.191 19.9093 19.1902L19.922 19.187C19.9281 19.1855 19.9329 19.1843 19.9369 19.1833C19.9427 19.1818 19.9471 19.1807 19.9519 19.1795L21.4798 18.9494L21.6121 18.9295L21.6689 18.8083L22.3451 17.3662C22.3451 17.3662 22.3451 17.3661 22.3451 17.3661C22.381 17.2899 22.4488 17.25 22.5183 17.25C22.5671 17.25 22.6182 17.2706 22.657 17.3099C22.6593 17.3127 22.6613 17.3151 22.6629 17.3172L22.6696 17.3253L22.6729 17.3305C22.6885 17.3549 22.693 17.3625 22.695 17.3669L22.6952 17.3672L23.3818 18.8129L23.4388 18.933L23.5703 18.9528L25.1037 19.1843L25.1037 19.1843L25.1051 19.1845C25.174 19.1945 25.2379 19.2458 25.2631 19.3277C25.2646 19.3371 25.2668 19.3476 25.27 19.3586V19.3643L25.273 19.3777L25.2736 19.3881C25.2754 19.4226 25.2697 19.4551 25.2591 19.4799L25.2588 19.4798L25.2542 19.4923C25.2533 19.4947 25.2524 19.4971 25.251 19.4998L25.2381 19.5187C25.2294 19.5314 25.2181 19.5454 25.207 19.557L24.0982 20.6846L24.009 20.7753L24.0298 20.9007L24.2926 22.4911C24.3061 22.5792 24.2735 22.659 24.2123 22.7069C24.1945 22.7196 24.1803 22.7277 24.171 22.7321L24.1553 22.7372C24.1346 22.7439 24.1159 22.7466 24.0987 22.7466C24.068 22.7466 24.0377 22.739 24.0108 22.7242L24.0104 22.724L22.6375 21.9725L22.5174 21.9068L22.3974 21.9725L21.0245 22.724L21.0167 22.7282L21.0093 22.733C20.9952 22.7421 20.9722 22.75 20.9406 22.75ZM24.138 22.7451L24.1394 22.7444C24.1389 22.7446 24.1382 22.745 24.138 22.7451Z" fill="white" stroke="url(#paint17_linear_1808_13314)" stroke-width="0.5"/>
<path d="M20.9406 22.75C20.9054 22.75 20.8693 22.7396 20.8312 22.7136L20.8239 22.706L20.8126 22.6932L20.8087 22.6901L20.8043 22.6854L20.803 22.6848C20.8019 22.6836 20.8007 22.6822 20.7994 22.6807C20.7982 22.6791 20.7969 22.6773 20.7955 22.6756C20.7938 22.6733 20.7918 22.6707 20.7895 22.668L20.787 22.6639L20.7801 22.6531L20.7801 22.6531L20.7793 22.6518C20.7762 22.6469 20.7734 22.6418 20.7672 22.629C20.7657 22.6245 20.7642 22.6201 20.7628 22.6158L20.7601 22.6062C20.759 22.6024 20.7575 22.5967 20.7557 22.5905C20.7547 22.5862 20.7536 22.5804 20.7517 22.5708C20.7516 22.57 20.7514 22.5692 20.7513 22.5684C20.751 22.5664 20.7507 22.5645 20.7505 22.5628L20.7496 22.5575C20.7494 22.554 20.7492 22.5507 20.7489 22.5479C20.7483 22.5414 20.7477 22.5354 20.7473 22.5318C20.7477 22.5259 20.7487 22.516 20.7514 22.4947L21.0136 20.9043L21.0343 20.7789L20.9452 20.6884L19.8363 19.5607C19.8254 19.5492 19.8151 19.5366 19.8074 19.5256C19.7958 19.5073 19.7922 19.4997 19.7908 19.4961C19.7901 19.4939 19.7894 19.492 19.7888 19.4904L19.7857 19.4819L19.7847 19.479L19.7842 19.4779L19.7838 19.4762C19.7769 19.4476 19.7739 19.4251 19.7739 19.4035V19.4034V19.4033V19.4032V19.4031V19.4031V19.403V19.4029V19.4028V19.4027V19.4026V19.4026V19.4025V19.4024V19.4023V19.4022V19.4022V19.4021V19.402V19.4019V19.4018V19.4017V19.4017V19.4016V19.4015V19.4014V19.4013V19.4013V19.4012V19.4011V19.401V19.4009V19.4008V19.4008V19.4007V19.4006V19.4005V19.4004V19.4004V19.4003V19.4002V19.4001V19.4V19.4V19.3999V19.3998V19.3997V19.3996V19.3996V19.3995V19.3994V19.3993V19.3992V19.3992V19.3991V19.399V19.3989V19.3988V19.3988V19.3987V19.3986V19.3985V19.3984V19.3984V19.3983V19.3982V19.3981V19.3981V19.398V19.3979V19.3978V19.3977V19.3977V19.3976V19.3975V19.3974V19.3974V19.3973V19.3972V19.3971V19.397V19.397V19.3969V19.3968V19.3967V19.3967V19.3966V19.3965V19.3964V19.3963V19.3963V19.3962V19.3961V19.396V19.396V19.3959V19.3958V19.3957V19.3956V19.3956V19.3955V19.3954V19.3953V19.3953V19.3952V19.3951V19.395V19.395V19.3949V19.3948V19.3947V19.3947V19.3946V19.3945V19.3944V19.3944V19.3943V19.3942V19.3941V19.394V19.394V19.3939V19.3938V19.3937V19.3937V19.3936V19.3935V19.3934V19.3934V19.3933V19.3932V19.3931V19.3931V19.393V19.3929V19.3928V19.3928V19.3927V19.3926V19.3925V19.3925V19.3924V19.3923V19.3922V19.3922V19.3921V19.392V19.3919V19.3919V19.3918V19.3917V19.3916V19.3916V19.3915V19.3914V19.3913V19.3913V19.3912V19.3911V19.391V19.391V19.3909V19.3908V19.3908V19.3907V19.3906V19.3905V19.3905V19.3904V19.3903V19.3902V19.3902V19.3901V19.39V19.3899V19.3899V19.3898V19.3897V19.3896V19.3896V19.3895V19.3894V19.3893V19.3893V19.3892V19.3891V19.3891V19.389V19.3889V19.3888V19.3888V19.3887V19.3886V19.3885V19.3885V19.3884V19.3883V19.3882V19.3882V19.3881V19.388V19.388V19.3879V19.3878V19.3877V19.3877V19.3876V19.3875V19.3874V19.3874V19.3873V19.3872V19.3872V19.3871V19.387V19.3869V19.3869V19.3868V19.3867V19.3866V19.3866V19.3865V19.3864V19.3864V19.3863V19.3862V19.3861V19.3861V19.386V19.3859V19.3858V19.3858V19.3857V19.3856V19.3855V19.3855V19.3854V19.3853V19.3853V19.3852V19.3851V19.385V19.385V19.3849V19.3848V19.3847V19.3847V19.3846V19.3845V19.3845V19.3844V19.3843V19.3842V19.3842V19.3841V19.384V19.384V19.3839V19.3838V19.3837V19.3837V19.3836V19.3835V19.3834V19.3834V19.3833V19.3832V19.3832V19.3831V19.383V19.3829V19.3829V19.3828V19.3827V19.3826V19.3826V19.3825V19.3824V19.3824V19.3823V19.3822V19.3821V19.3821V19.382V19.3819V19.3818V19.3818V19.3817V19.3816V19.3816V19.3815V19.3814V19.3813V19.3813V19.3812V19.3811V19.381V19.381V19.3809V19.3808V19.3807V19.3807V19.3806V19.3805V19.3805V19.3804V19.3803V19.3802V19.3802V19.3801V19.38V19.3799V19.3799V19.3798V19.3797V19.3797V19.3796V19.3795V19.3794V19.3794V19.3793V19.3792V19.3791V19.3791V19.379V19.3789V19.3788V19.3788V19.3787V19.3786V19.3786V19.3785V19.3784V19.3783V19.3783V19.3782V19.3781V19.378V19.378V19.3779V19.3778V19.3777V19.3777V19.3776V19.3775V19.3774V19.3774V19.3773V19.3772V19.3771V19.3771V19.377V19.3769V19.3769V19.3768V19.3767V19.3766V19.3766V19.3765V19.3764V19.3763V19.3763V19.3762V19.3761V19.376V19.376V19.3759V19.3758V19.3757V19.3757V19.3756V19.3755V19.3754V19.3754V19.3753V19.3752V19.3751V19.3751V19.375V19.3749V19.3748V19.3748V19.3747V19.3746V19.3745V19.3745V19.3744V19.3743V19.3742V19.3742V19.3741V19.374V19.3739V19.3739V19.3738V19.3737V19.3736V19.3736V19.3735V19.3734V19.3733V19.3732V19.3732V19.3731V19.373V19.3729V19.3729V19.3728V19.3727V19.3726V19.3726V19.3725V19.3724V19.3723V19.3723V19.3722V19.3721V19.372V19.3719V19.3719V19.3718V19.3717V19.3716V19.3716V19.3715V19.3714V19.3713V19.3712V19.3712V19.3711V19.371V19.3709V19.3709L19.784 19.3393V19.3297L19.8333 19.2463L19.8604 19.218C19.8676 19.2139 19.8738 19.21 19.8785 19.2068C19.8856 19.203 19.8946 19.198 19.9041 19.1922C19.9056 19.1916 19.9073 19.191 19.9093 19.1902L19.922 19.187C19.9281 19.1855 19.9329 19.1843 19.9369 19.1833C19.9427 19.1818 19.9471 19.1807 19.9519 19.1795L21.4798 18.9494L21.6121 18.9295L21.6689 18.8083L22.3451 17.3662C22.3451 17.3662 22.3451 17.3661 22.3451 17.3661C22.381 17.2899 22.4488 17.25 22.5183 17.25C22.5671 17.25 22.6182 17.2706 22.657 17.3099C22.6593 17.3127 22.6613 17.3151 22.6629 17.3172L22.6696 17.3253L22.6729 17.3305C22.6885 17.3549 22.693 17.3625 22.695 17.3669L22.6952 17.3672L23.3818 18.8129L23.4388 18.933L23.5703 18.9528L25.1037 19.1843L25.1037 19.1843L25.1051 19.1845C25.174 19.1945 25.2379 19.2458 25.2631 19.3277C25.2646 19.3371 25.2668 19.3476 25.27 19.3586V19.3643L25.273 19.3777L25.2736 19.3881C25.2754 19.4226 25.2697 19.4551 25.2591 19.4799L25.2588 19.4798L25.2542 19.4923C25.2533 19.4947 25.2524 19.4971 25.251 19.4998L25.2381 19.5187C25.2294 19.5314 25.2181 19.5454 25.207 19.557L24.0982 20.6846L24.009 20.7753L24.0298 20.9007L24.2926 22.4911C24.3061 22.5792 24.2735 22.659 24.2123 22.7069C24.1945 22.7196 24.1803 22.7277 24.171 22.7321L24.1553 22.7372C24.1346 22.7439 24.1159 22.7466 24.0987 22.7466C24.068 22.7466 24.0377 22.739 24.0108 22.7242L24.0104 22.724L22.6375 21.9725L22.5174 21.9068L22.3974 21.9725L21.0245 22.724L21.0167 22.7282L21.0093 22.733C20.9952 22.7421 20.9722 22.75 20.9406 22.75ZM24.138 22.7451L24.1394 22.7444C24.1389 22.7446 24.1382 22.745 24.138 22.7451Z" stroke="url(#paint18_linear_1808_13314)" stroke-width="0.5"/>
<path d="M22.5185 17.2281V20.173L21.5757 18.9161L22.3134 17.3601C22.358 17.2746 22.44 17.2281 22.5185 17.2281Z" fill="url(#paint19_linear_1808_13314)" fill-opacity="0.38"/>
<path d="M25.2949 19.3329L22.5215 20.1733L23.464 18.9164L25.1103 19.1655C25.2027 19.1832 25.2675 19.2508 25.2949 19.3329Z" fill="url(#paint20_linear_1808_13314)"/>
<path d="M24.233 22.7256L22.5186 20.1725L24.0418 20.7814L24.3218 22.4907C24.3421 22.5905 24.301 22.6757 24.233 22.7256Z" fill="url(#paint21_linear_1808_13314)"/>
<path d="M22.5179 20.1725V21.9351L21.0458 22.7433C20.9604 22.7895 20.8716 22.7752 20.8032 22.7256L22.5179 20.1725Z" fill="url(#paint22_linear_1808_13314)"/>
<path d="M23.4613 18.9161L22.5186 20.173V17.2281C22.5801 17.2281 22.6416 17.253 22.6859 17.3028C22.6927 17.31 22.6996 17.3205 22.7064 17.3313C22.7132 17.3422 22.7201 17.3527 22.7234 17.3633L23.4613 18.9161Z" fill="url(#paint23_linear_1808_13314)" fill-opacity="0.6"/>
<path d="M25.2883 19.4927C25.2814 19.507 25.2746 19.5212 25.2678 19.5355C25.2574 19.5497 25.2472 19.5603 25.2371 19.5745L24.0453 20.7853L22.522 20.1763L25.2954 19.3359C25.2954 19.3394 25.2987 19.3431 25.2987 19.3468C25.2987 19.3505 25.3022 19.3539 25.3022 19.361C25.3022 19.3647 25.3022 19.3647 25.3022 19.3647C25.3022 19.3682 25.3022 19.3719 25.3022 19.3753C25.3022 19.3824 25.3022 19.3861 25.3022 19.393C25.3055 19.4249 25.3019 19.4605 25.2883 19.4927Z" fill="url(#paint24_linear_1808_13314)"/>
<path d="M24.2332 22.7256C24.2163 22.7399 24.1958 22.7504 24.1717 22.7576C24.1684 22.7576 24.1684 22.7576 24.1649 22.761C24.1102 22.7787 24.0487 22.7752 23.9907 22.7433L22.5186 21.9351V20.1725L24.2332 22.7256Z" fill="url(#paint25_linear_1808_13314)"/>
<path d="M22.5183 20.1725L20.8039 22.7256C20.8006 22.7219 20.7971 22.7185 20.7938 22.7148C20.7905 22.7114 20.787 22.7077 20.7834 22.704C20.7801 22.7005 20.7766 22.6968 20.7697 22.6897C20.7662 22.6863 20.7629 22.6826 20.7594 22.6789C20.7558 22.6752 20.7561 22.6755 20.7561 22.6717C20.7528 22.6683 20.7492 22.6646 20.7492 22.6609C20.7424 22.6504 20.7356 22.6395 20.7323 22.629C20.729 22.6256 20.729 22.6182 20.7254 22.6113C20.7222 22.6042 20.7222 22.6005 20.7186 22.5936C20.7153 22.5865 20.7153 22.576 20.7153 22.5688C20.7153 22.5654 20.7153 22.558 20.7153 22.5546C20.7153 22.5475 20.7153 22.5403 20.7153 22.5332C20.7153 22.5189 20.7153 22.5047 20.7186 22.4904L20.9986 20.7811L22.5183 20.1725Z" fill="url(#paint26_linear_1808_13314)"/>
<path d="M22.518 20.1724L19.7446 19.332C19.7446 19.3286 19.7479 19.3249 19.7479 19.3212C19.7512 19.3141 19.7512 19.3069 19.7547 19.3035C19.7616 19.2893 19.7684 19.2787 19.7753 19.2679C19.7785 19.2608 19.7821 19.257 19.7889 19.2502C19.7925 19.2468 19.7958 19.2394 19.8026 19.2359C19.8059 19.2325 19.813 19.2254 19.8163 19.2217C19.8195 19.218 19.8264 19.2146 19.8299 19.2109C19.8368 19.2074 19.8436 19.2 19.8504 19.1966C19.8537 19.1932 19.8606 19.1895 19.8674 19.1895C19.8778 19.1861 19.8844 19.1824 19.8947 19.1786C19.898 19.1786 19.9016 19.1752 19.9084 19.1752C19.9152 19.1718 19.9254 19.1718 19.9358 19.1681L21.5821 18.9189L22.518 20.1724Z" fill="url(#paint27_linear_1808_13314)"/>
<path d="M22.5182 20.1726L20.9985 20.7849L19.8066 19.5742C19.793 19.5634 19.7861 19.5494 19.776 19.5351C19.7692 19.5209 19.7591 19.5066 19.7555 19.4924C19.7522 19.4852 19.7487 19.4781 19.7487 19.471C19.7418 19.4496 19.7383 19.4248 19.7383 19.4034C19.7383 19.3963 19.7383 19.3892 19.7383 19.382C19.7383 19.3715 19.7383 19.3644 19.7418 19.3535C19.7418 19.3501 19.7451 19.3464 19.7451 19.3393C19.7451 19.3359 19.7484 19.3322 19.7484 19.3287L22.5182 20.1726Z" fill="url(#paint28_linear_1808_13314)"/>
</g>
<g filter="url(#filter4_d_1808_13314)">
<path d="M16.9406 15.75C16.9054 15.75 16.8693 15.7396 16.8312 15.7136L16.8239 15.706L16.8126 15.6932L16.8087 15.6901L16.8043 15.6854L16.803 15.6848C16.8019 15.6836 16.8007 15.6822 16.7994 15.6807C16.7982 15.6791 16.7969 15.6773 16.7955 15.6756C16.7938 15.6733 16.7918 15.6707 16.7895 15.668L16.787 15.6639L16.7801 15.6531L16.7801 15.6531L16.7793 15.6518C16.7762 15.6469 16.7734 15.6418 16.7672 15.629C16.7657 15.6245 16.7642 15.6201 16.7628 15.6158L16.7601 15.6062C16.759 15.6024 16.7575 15.5967 16.7557 15.5905C16.7547 15.5862 16.7536 15.5804 16.7517 15.5708C16.7516 15.57 16.7514 15.5692 16.7513 15.5684C16.751 15.5664 16.7507 15.5645 16.7505 15.5628L16.7496 15.5575C16.7494 15.554 16.7492 15.5507 16.7489 15.5479C16.7483 15.5414 16.7477 15.5354 16.7473 15.5318C16.7477 15.5259 16.7487 15.516 16.7514 15.4947L17.0136 13.9043L17.0343 13.7789L16.9452 13.6884L15.8363 12.5607C15.8254 12.5492 15.8151 12.5366 15.8074 12.5256C15.7958 12.5073 15.7922 12.4997 15.7908 12.4961C15.7901 12.4939 15.7894 12.492 15.7888 12.4904L15.7857 12.4819L15.7847 12.479L15.7842 12.4779L15.7838 12.4762C15.7769 12.4476 15.7739 12.4251 15.7739 12.4035V12.4034V12.4033V12.4032V12.4031V12.4031V12.403V12.4029V12.4028V12.4027V12.4026V12.4026V12.4025V12.4024V12.4023V12.4022V12.4022V12.4021V12.402V12.4019V12.4018V12.4017V12.4017V12.4016V12.4015V12.4014V12.4013V12.4013V12.4012V12.4011V12.401V12.4009V12.4008V12.4008V12.4007V12.4006V12.4005V12.4004V12.4004V12.4003V12.4002V12.4001V12.4V12.4V12.3999V12.3998V12.3997V12.3996V12.3996V12.3995V12.3994V12.3993V12.3992V12.3992V12.3991V12.399V12.3989V12.3988V12.3988V12.3987V12.3986V12.3985V12.3984V12.3984V12.3983V12.3982V12.3981V12.3981V12.398V12.3979V12.3978V12.3977V12.3977V12.3976V12.3975V12.3974V12.3974V12.3973V12.3972V12.3971V12.397V12.397V12.3969V12.3968V12.3967V12.3967V12.3966V12.3965V12.3964V12.3963V12.3963V12.3962V12.3961V12.396V12.396V12.3959V12.3958V12.3957V12.3956V12.3956V12.3955V12.3954V12.3953V12.3953V12.3952V12.3951V12.395V12.395V12.3949V12.3948V12.3947V12.3947V12.3946V12.3945V12.3944V12.3944V12.3943V12.3942V12.3941V12.394V12.394V12.3939V12.3938V12.3937V12.3937V12.3936V12.3935V12.3934V12.3934V12.3933V12.3932V12.3931V12.3931V12.393V12.3929V12.3928V12.3928V12.3927V12.3926V12.3925V12.3925V12.3924V12.3923V12.3922V12.3922V12.3921V12.392V12.3919V12.3919V12.3918V12.3917V12.3916V12.3916V12.3915V12.3914V12.3913V12.3913V12.3912V12.3911V12.391V12.391V12.3909V12.3908V12.3908V12.3907V12.3906V12.3905V12.3905V12.3904V12.3903V12.3902V12.3902V12.3901V12.39V12.3899V12.3899V12.3898V12.3897V12.3896V12.3896V12.3895V12.3894V12.3893V12.3893V12.3892V12.3891V12.3891V12.389V12.3889V12.3888V12.3888V12.3887V12.3886V12.3885V12.3885V12.3884V12.3883V12.3882V12.3882V12.3881V12.388V12.388V12.3879V12.3878V12.3877V12.3877V12.3876V12.3875V12.3874V12.3874V12.3873V12.3872V12.3872V12.3871V12.387V12.3869V12.3869V12.3868V12.3867V12.3866V12.3866V12.3865V12.3864V12.3864V12.3863V12.3862V12.3861V12.3861V12.386V12.3859V12.3858V12.3858V12.3857V12.3856V12.3855V12.3855V12.3854V12.3853V12.3853V12.3852V12.3851V12.385V12.385V12.3849V12.3848V12.3847V12.3847V12.3846V12.3845V12.3845V12.3844V12.3843V12.3842V12.3842V12.3841V12.384V12.384V12.3839V12.3838V12.3837V12.3837V12.3836V12.3835V12.3834V12.3834V12.3833V12.3832V12.3832V12.3831V12.383V12.3829V12.3829V12.3828V12.3827V12.3826V12.3826V12.3825V12.3824V12.3824V12.3823V12.3822V12.3821V12.3821V12.382V12.3819V12.3818V12.3818V12.3817V12.3816V12.3816V12.3815V12.3814V12.3813V12.3813V12.3812V12.3811V12.381V12.381V12.3809V12.3808V12.3807V12.3807V12.3806V12.3805V12.3805V12.3804V12.3803V12.3802V12.3802V12.3801V12.38V12.3799V12.3799V12.3798V12.3797V12.3797V12.3796V12.3795V12.3794V12.3794V12.3793V12.3792V12.3791V12.3791V12.379V12.3789V12.3788V12.3788V12.3787V12.3786V12.3786V12.3785V12.3784V12.3783V12.3783V12.3782V12.3781V12.378V12.378V12.3779V12.3778V12.3777V12.3777V12.3776V12.3775V12.3774V12.3774V12.3773V12.3772V12.3771V12.3771V12.377V12.3769V12.3769V12.3768V12.3767V12.3766V12.3766V12.3765V12.3764V12.3763V12.3763V12.3762V12.3761V12.376V12.376V12.3759V12.3758V12.3757V12.3757V12.3756V12.3755V12.3754V12.3754V12.3753V12.3752V12.3751V12.3751V12.375V12.3749V12.3748V12.3748V12.3747V12.3746V12.3745V12.3745V12.3744V12.3743V12.3742V12.3742V12.3741V12.374V12.3739V12.3739V12.3738V12.3737V12.3736V12.3736V12.3735V12.3734V12.3733V12.3732V12.3732V12.3731V12.373V12.3729V12.3729V12.3728V12.3727V12.3726V12.3726V12.3725V12.3724V12.3723V12.3723V12.3722V12.3721V12.372V12.3719V12.3719V12.3718V12.3717V12.3716V12.3716V12.3715V12.3714V12.3713V12.3712V12.3712V12.3711V12.371V12.3709V12.3709L15.784 12.3393V12.3297L15.8333 12.2463L15.8604 12.218C15.8676 12.2139 15.8738 12.21 15.8785 12.2068C15.8856 12.203 15.8946 12.198 15.9041 12.1922C15.9056 12.1916 15.9073 12.191 15.9093 12.1902L15.922 12.187C15.9281 12.1855 15.9329 12.1843 15.9369 12.1833C15.9427 12.1818 15.9471 12.1807 15.9519 12.1795L17.4798 11.9494L17.6121 11.9295L17.6689 11.8083L18.3451 10.3662C18.3451 10.3662 18.3451 10.3661 18.3451 10.3661C18.381 10.2899 18.4488 10.25 18.5183 10.25C18.5671 10.25 18.6182 10.2706 18.657 10.3099C18.6593 10.3127 18.6613 10.3151 18.6629 10.3172L18.6696 10.3253L18.6729 10.3305C18.6885 10.3549 18.693 10.3625 18.695 10.3669L18.6952 10.3672L19.3818 11.8129L19.4388 11.933L19.5703 11.9528L21.1037 12.1843L21.1037 12.1843L21.1051 12.1845C21.174 12.1945 21.2379 12.2458 21.2631 12.3277C21.2646 12.3371 21.2668 12.3476 21.27 12.3586V12.3643L21.273 12.3777L21.2736 12.3881C21.2754 12.4226 21.2697 12.4551 21.2591 12.4799L21.2588 12.4798L21.2542 12.4923C21.2533 12.4947 21.2524 12.4971 21.251 12.4998L21.2381 12.5187C21.2294 12.5314 21.2181 12.5454 21.207 12.557L20.0982 13.6846L20.009 13.7753L20.0298 13.9007L20.2926 15.4911C20.3061 15.5792 20.2735 15.659 20.2123 15.7069C20.1945 15.7196 20.1803 15.7277 20.171 15.7321L20.1553 15.7372C20.1346 15.7439 20.1159 15.7466 20.0987 15.7466C20.068 15.7466 20.0377 15.739 20.0108 15.7242L20.0104 15.724L18.6375 14.9725L18.5174 14.9068L18.3974 14.9725L17.0245 15.724L17.0167 15.7282L17.0093 15.733C16.9952 15.7421 16.9722 15.75 16.9406 15.75ZM20.138 15.7451L20.1394 15.7444C20.1389 15.7446 20.1382 15.745 20.138 15.7451Z" fill="white" stroke="url(#paint29_linear_1808_13314)" stroke-width="0.5"/>
<path d="M16.9406 15.75C16.9054 15.75 16.8693 15.7396 16.8312 15.7136L16.8239 15.706L16.8126 15.6932L16.8087 15.6901L16.8043 15.6854L16.803 15.6848C16.8019 15.6836 16.8007 15.6822 16.7994 15.6807C16.7982 15.6791 16.7969 15.6773 16.7955 15.6756C16.7938 15.6733 16.7918 15.6707 16.7895 15.668L16.787 15.6639L16.7801 15.6531L16.7801 15.6531L16.7793 15.6518C16.7762 15.6469 16.7734 15.6418 16.7672 15.629C16.7657 15.6245 16.7642 15.6201 16.7628 15.6158L16.7601 15.6062C16.759 15.6024 16.7575 15.5967 16.7557 15.5905C16.7547 15.5862 16.7536 15.5804 16.7517 15.5708C16.7516 15.57 16.7514 15.5692 16.7513 15.5684C16.751 15.5664 16.7507 15.5645 16.7505 15.5628L16.7496 15.5575C16.7494 15.554 16.7492 15.5507 16.7489 15.5479C16.7483 15.5414 16.7477 15.5354 16.7473 15.5318C16.7477 15.5259 16.7487 15.516 16.7514 15.4947L17.0136 13.9043L17.0343 13.7789L16.9452 13.6884L15.8363 12.5607C15.8254 12.5492 15.8151 12.5366 15.8074 12.5256C15.7958 12.5073 15.7922 12.4997 15.7908 12.4961C15.7901 12.4939 15.7894 12.492 15.7888 12.4904L15.7857 12.4819L15.7847 12.479L15.7842 12.4779L15.7838 12.4762C15.7769 12.4476 15.7739 12.4251 15.7739 12.4035V12.4034V12.4033V12.4032V12.4031V12.4031V12.403V12.4029V12.4028V12.4027V12.4026V12.4026V12.4025V12.4024V12.4023V12.4022V12.4022V12.4021V12.402V12.4019V12.4018V12.4017V12.4017V12.4016V12.4015V12.4014V12.4013V12.4013V12.4012V12.4011V12.401V12.4009V12.4008V12.4008V12.4007V12.4006V12.4005V12.4004V12.4004V12.4003V12.4002V12.4001V12.4V12.4V12.3999V12.3998V12.3997V12.3996V12.3996V12.3995V12.3994V12.3993V12.3992V12.3992V12.3991V12.399V12.3989V12.3988V12.3988V12.3987V12.3986V12.3985V12.3984V12.3984V12.3983V12.3982V12.3981V12.3981V12.398V12.3979V12.3978V12.3977V12.3977V12.3976V12.3975V12.3974V12.3974V12.3973V12.3972V12.3971V12.397V12.397V12.3969V12.3968V12.3967V12.3967V12.3966V12.3965V12.3964V12.3963V12.3963V12.3962V12.3961V12.396V12.396V12.3959V12.3958V12.3957V12.3956V12.3956V12.3955V12.3954V12.3953V12.3953V12.3952V12.3951V12.395V12.395V12.3949V12.3948V12.3947V12.3947V12.3946V12.3945V12.3944V12.3944V12.3943V12.3942V12.3941V12.394V12.394V12.3939V12.3938V12.3937V12.3937V12.3936V12.3935V12.3934V12.3934V12.3933V12.3932V12.3931V12.3931V12.393V12.3929V12.3928V12.3928V12.3927V12.3926V12.3925V12.3925V12.3924V12.3923V12.3922V12.3922V12.3921V12.392V12.3919V12.3919V12.3918V12.3917V12.3916V12.3916V12.3915V12.3914V12.3913V12.3913V12.3912V12.3911V12.391V12.391V12.3909V12.3908V12.3908V12.3907V12.3906V12.3905V12.3905V12.3904V12.3903V12.3902V12.3902V12.3901V12.39V12.3899V12.3899V12.3898V12.3897V12.3896V12.3896V12.3895V12.3894V12.3893V12.3893V12.3892V12.3891V12.3891V12.389V12.3889V12.3888V12.3888V12.3887V12.3886V12.3885V12.3885V12.3884V12.3883V12.3882V12.3882V12.3881V12.388V12.388V12.3879V12.3878V12.3877V12.3877V12.3876V12.3875V12.3874V12.3874V12.3873V12.3872V12.3872V12.3871V12.387V12.3869V12.3869V12.3868V12.3867V12.3866V12.3866V12.3865V12.3864V12.3864V12.3863V12.3862V12.3861V12.3861V12.386V12.3859V12.3858V12.3858V12.3857V12.3856V12.3855V12.3855V12.3854V12.3853V12.3853V12.3852V12.3851V12.385V12.385V12.3849V12.3848V12.3847V12.3847V12.3846V12.3845V12.3845V12.3844V12.3843V12.3842V12.3842V12.3841V12.384V12.384V12.3839V12.3838V12.3837V12.3837V12.3836V12.3835V12.3834V12.3834V12.3833V12.3832V12.3832V12.3831V12.383V12.3829V12.3829V12.3828V12.3827V12.3826V12.3826V12.3825V12.3824V12.3824V12.3823V12.3822V12.3821V12.3821V12.382V12.3819V12.3818V12.3818V12.3817V12.3816V12.3816V12.3815V12.3814V12.3813V12.3813V12.3812V12.3811V12.381V12.381V12.3809V12.3808V12.3807V12.3807V12.3806V12.3805V12.3805V12.3804V12.3803V12.3802V12.3802V12.3801V12.38V12.3799V12.3799V12.3798V12.3797V12.3797V12.3796V12.3795V12.3794V12.3794V12.3793V12.3792V12.3791V12.3791V12.379V12.3789V12.3788V12.3788V12.3787V12.3786V12.3786V12.3785V12.3784V12.3783V12.3783V12.3782V12.3781V12.378V12.378V12.3779V12.3778V12.3777V12.3777V12.3776V12.3775V12.3774V12.3774V12.3773V12.3772V12.3771V12.3771V12.377V12.3769V12.3769V12.3768V12.3767V12.3766V12.3766V12.3765V12.3764V12.3763V12.3763V12.3762V12.3761V12.376V12.376V12.3759V12.3758V12.3757V12.3757V12.3756V12.3755V12.3754V12.3754V12.3753V12.3752V12.3751V12.3751V12.375V12.3749V12.3748V12.3748V12.3747V12.3746V12.3745V12.3745V12.3744V12.3743V12.3742V12.3742V12.3741V12.374V12.3739V12.3739V12.3738V12.3737V12.3736V12.3736V12.3735V12.3734V12.3733V12.3732V12.3732V12.3731V12.373V12.3729V12.3729V12.3728V12.3727V12.3726V12.3726V12.3725V12.3724V12.3723V12.3723V12.3722V12.3721V12.372V12.3719V12.3719V12.3718V12.3717V12.3716V12.3716V12.3715V12.3714V12.3713V12.3712V12.3712V12.3711V12.371V12.3709V12.3709L15.784 12.3393V12.3297L15.8333 12.2463L15.8604 12.218C15.8676 12.2139 15.8738 12.21 15.8785 12.2068C15.8856 12.203 15.8946 12.198 15.9041 12.1922C15.9056 12.1916 15.9073 12.191 15.9093 12.1902L15.922 12.187C15.9281 12.1855 15.9329 12.1843 15.9369 12.1833C15.9427 12.1818 15.9471 12.1807 15.9519 12.1795L17.4798 11.9494L17.6121 11.9295L17.6689 11.8083L18.3451 10.3662C18.3451 10.3662 18.3451 10.3661 18.3451 10.3661C18.381 10.2899 18.4488 10.25 18.5183 10.25C18.5671 10.25 18.6182 10.2706 18.657 10.3099C18.6593 10.3127 18.6613 10.3151 18.6629 10.3172L18.6696 10.3253L18.6729 10.3305C18.6885 10.3549 18.693 10.3625 18.695 10.3669L18.6952 10.3672L19.3818 11.8129L19.4388 11.933L19.5703 11.9528L21.1037 12.1843L21.1037 12.1843L21.1051 12.1845C21.174 12.1945 21.2379 12.2458 21.2631 12.3277C21.2646 12.3371 21.2668 12.3476 21.27 12.3586V12.3643L21.273 12.3777L21.2736 12.3881C21.2754 12.4226 21.2697 12.4551 21.2591 12.4799L21.2588 12.4798L21.2542 12.4923C21.2533 12.4947 21.2524 12.4971 21.251 12.4998L21.2381 12.5187C21.2294 12.5314 21.2181 12.5454 21.207 12.557L20.0982 13.6846L20.009 13.7753L20.0298 13.9007L20.2926 15.4911C20.3061 15.5792 20.2735 15.659 20.2123 15.7069C20.1945 15.7196 20.1803 15.7277 20.171 15.7321L20.1553 15.7372C20.1346 15.7439 20.1159 15.7466 20.0987 15.7466C20.068 15.7466 20.0377 15.739 20.0108 15.7242L20.0104 15.724L18.6375 14.9725L18.5174 14.9068L18.3974 14.9725L17.0245 15.724L17.0167 15.7282L17.0093 15.733C16.9952 15.7421 16.9722 15.75 16.9406 15.75ZM20.138 15.7451L20.1394 15.7444C20.1389 15.7446 20.1382 15.745 20.138 15.7451Z" stroke="url(#paint30_linear_1808_13314)" stroke-width="0.5"/>
<path d="M18.5182 10.2279V13.1727L17.5754 11.9158L18.3132 10.3599C18.3577 10.2744 18.4398 10.2279 18.5182 10.2279Z" fill="url(#paint31_linear_1808_13314)" fill-opacity="0.38"/>
<path d="M21.2951 12.3329L18.5217 13.1733L19.4642 11.9164L21.1106 12.1655C21.203 12.1832 21.2678 12.2508 21.2951 12.3329Z" fill="url(#paint32_linear_1808_13314)"/>
<path d="M20.2332 15.7256L18.5188 13.1725L20.0421 13.7814L20.3221 15.4907C20.3423 15.5905 20.3013 15.6757 20.2332 15.7256Z" fill="url(#paint33_linear_1808_13314)"/>
<path d="M18.5181 13.1725V14.9351L17.046 15.7433C16.9607 15.7895 16.8718 15.7752 16.8035 15.7256L18.5181 13.1725Z" fill="url(#paint34_linear_1808_13314)"/>
<path d="M19.4613 11.9158L18.5186 13.1727V10.2279C18.5801 10.2279 18.6416 10.2527 18.6859 10.3026C18.6927 10.3097 18.6996 10.3203 18.7064 10.3311C18.7132 10.3419 18.7201 10.3525 18.7234 10.363L19.4613 11.9158Z" fill="url(#paint35_linear_1808_13314)" fill-opacity="0.6"/>
<path d="M21.288 12.4926C21.2812 12.5069 21.2743 12.5211 21.2675 12.5354C21.2571 12.5496 21.247 12.5602 21.2369 12.5744L20.045 13.7851L18.5217 13.1762L21.2951 12.3358C21.2951 12.3392 21.2984 12.3429 21.2984 12.3466C21.2984 12.3504 21.302 12.3538 21.302 12.3609C21.302 12.3646 21.302 12.3646 21.302 12.3646C21.302 12.368 21.302 12.3717 21.302 12.3752C21.302 12.3823 21.302 12.386 21.302 12.3928C21.3052 12.4248 21.3017 12.4604 21.288 12.4926Z" fill="url(#paint36_linear_1808_13314)"/>
<path d="M20.2332 15.7256C20.2163 15.7399 20.1958 15.7504 20.1717 15.7576C20.1684 15.7576 20.1684 15.7576 20.1649 15.761C20.1102 15.7787 20.0487 15.7752 19.9907 15.7433L18.5186 14.9351V13.1725L20.2332 15.7256Z" fill="url(#paint37_linear_1808_13314)"/>
<path d="M18.5183 13.1725L16.8039 15.7256C16.8006 15.7219 16.7971 15.7185 16.7938 15.7148C16.7905 15.7114 16.787 15.7077 16.7834 15.704C16.7801 15.7005 16.7766 15.6968 16.7697 15.6897C16.7662 15.6863 16.7629 15.6826 16.7594 15.6789C16.7558 15.6752 16.7561 15.6755 16.7561 15.6717C16.7528 15.6683 16.7492 15.6646 16.7492 15.6609C16.7424 15.6504 16.7356 15.6395 16.7323 15.629C16.729 15.6256 16.729 15.6182 16.7254 15.6113C16.7222 15.6042 16.7222 15.6005 16.7186 15.5936C16.7153 15.5865 16.7153 15.576 16.7153 15.5688C16.7153 15.5654 16.7153 15.558 16.7153 15.5546C16.7153 15.5475 16.7153 15.5403 16.7153 15.5332C16.7153 15.5189 16.7153 15.5047 16.7186 15.4904L16.9986 13.7811L18.5183 13.1725Z" fill="url(#paint38_linear_1808_13314)"/>
<path d="M18.518 13.1724L15.7446 12.332C15.7446 12.3286 15.7479 12.3249 15.7479 12.3212C15.7512 12.3141 15.7512 12.3069 15.7547 12.3035C15.7616 12.2893 15.7684 12.2787 15.7753 12.2679C15.7785 12.2608 15.7821 12.257 15.7889 12.2502C15.7925 12.2468 15.7958 12.2394 15.8026 12.2359C15.8059 12.2325 15.813 12.2254 15.8163 12.2217C15.8195 12.218 15.8264 12.2146 15.8299 12.2109C15.8368 12.2074 15.8436 12.2 15.8504 12.1966C15.8537 12.1932 15.8606 12.1895 15.8674 12.1895C15.8778 12.1861 15.8844 12.1824 15.8947 12.1786C15.898 12.1786 15.9016 12.1752 15.9084 12.1752C15.9152 12.1718 15.9254 12.1718 15.9358 12.1681L17.5821 11.9189L18.518 13.1724Z" fill="url(#paint39_linear_1808_13314)"/>
<path d="M18.5185 13.1726L16.9988 13.7849L15.8069 12.5742C15.7932 12.5634 15.7864 12.5494 15.7763 12.5351C15.7694 12.5209 15.7593 12.5066 15.7558 12.4924C15.7525 12.4852 15.7489 12.4781 15.7489 12.471C15.7421 12.4496 15.7385 12.4248 15.7385 12.4034C15.7385 12.3963 15.7385 12.3892 15.7385 12.382C15.7385 12.3715 15.7385 12.3644 15.7421 12.3535C15.7421 12.3501 15.7454 12.3464 15.7454 12.3393C15.7454 12.3359 15.7486 12.3322 15.7486 12.3287L18.5185 13.1726Z" fill="url(#paint40_linear_1808_13314)"/>
</g>
</g>
<defs>
<filter id="filter0_d_1808_13314" x="4.52393" y="7.18628" width="28" height="29.6274" filterUnits="userSpaceOnUse" color-interpolation-filters="sRGB">
<feFlood flood-opacity="0" result="BackgroundImageFix"/>
<feColorMatrix in="SourceAlpha" type="matrix" values="0 0 0 0 0 0 0 0 0 0 0 0 0 0 0 0 0 0 127 0" result="hardAlpha"/>
<feOffset dy="4"/>
<feGaussianBlur stdDeviation="2"/>
<feComposite in2="hardAlpha" operator="out"/>
<feColorMatrix type="matrix" values="0 0 0 0 0.512291 0 0 0 0 0.286279 0 0 0 0 1 0 0 0 0.17 0"/>
<feBlend mode="normal" in2="BackgroundImageFix" result="effect1_dropShadow_1808_13314"/>
<feBlend mode="normal" in="SourceGraphic" in2="effect1_dropShadow_1808_13314" result="shape"/>
</filter>
<filter id="filter1_d_1808_13314" x="7.14893" y="6.49878" width="22.75" height="24.3774" filterUnits="userSpaceOnUse" color-interpolation-filters="sRGB">
<feFlood flood-opacity="0" result="BackgroundImageFix"/>
<feColorMatrix in="SourceAlpha" type="matrix" values="0 0 0 0 0 0 0 0 0 0 0 0 0 0 0 0 0 0 127 0" result="hardAlpha"/>
<feOffset dy="0.6875"/>
<feGaussianBlur stdDeviation="0.6875"/>
<feColorMatrix type="matrix" values="0 0 0 0 0.287239 0 0 0 0 0.155102 0 0 0 0 0.511019 0 0 0 1 0"/>
<feBlend mode="normal" in2="BackgroundImageFix" result="effect1_dropShadow_1808_13314"/>
<feBlend mode="normal" in="SourceGraphic" in2="effect1_dropShadow_1808_13314" result="shape"/>
</filter>
<filter id="filter2_d_1808_13314" x="9.52393" y="16" width="10" height="10" filterUnits="userSpaceOnUse" color-interpolation-filters="sRGB">
<feFlood flood-opacity="0" result="BackgroundImageFix"/>
<feColorMatrix in="SourceAlpha" type="matrix" values="0 0 0 0 0 0 0 0 0 0 0 0 0 0 0 0 0 0 127 0" result="hardAlpha"/>
<feOffset dy="1"/>
<feGaussianBlur stdDeviation="1"/>
<feComposite in2="hardAlpha" operator="out"/>
<feColorMatrix type="matrix" values="0 0 0 0 1 0 0 0 0 1 0 0 0 0 1 0 0 0 0.5 0"/>
<feBlend mode="normal" in2="BackgroundImageFix" result="effect1_dropShadow_1808_13314"/>
<feBlend mode="normal" in="SourceGraphic" in2="effect1_dropShadow_1808_13314" result="shape"/>
</filter>
<filter id="filter3_d_1808_13314" x="17.5239" y="16" width="10" height="10" filterUnits="userSpaceOnUse" color-interpolation-filters="sRGB">
<feFlood flood-opacity="0" result="BackgroundImageFix"/>
<feColorMatrix in="SourceAlpha" type="matrix" values="0 0 0 0 0 0 0 0 0 0 0 0 0 0 0 0 0 0 127 0" result="hardAlpha"/>
<feOffset dy="1"/>
<feGaussianBlur stdDeviation="1"/>
<feComposite in2="hardAlpha" operator="out"/>
<feColorMatrix type="matrix" values="0 0 0 0 1 0 0 0 0 1 0 0 0 0 1 0 0 0 0.5 0"/>
<feBlend mode="normal" in2="BackgroundImageFix" result="effect1_dropShadow_1808_13314"/>
<feBlend mode="normal" in="SourceGraphic" in2="effect1_dropShadow_1808_13314" result="shape"/>
</filter>
<filter id="filter4_d_1808_13314" x="13.5239" y="9" width="10" height="10" filterUnits="userSpaceOnUse" color-interpolation-filters="sRGB">
<feFlood flood-opacity="0" result="BackgroundImageFix"/>
<feColorMatrix in="SourceAlpha" type="matrix" values="0 0 0 0 0 0 0 0 0 0 0 0 0 0 0 0 0 0 127 0" result="hardAlpha"/>
<feOffset dy="1"/>
<feGaussianBlur stdDeviation="1"/>
<feComposite in2="hardAlpha" operator="out"/>
<feColorMatrix type="matrix" values="0 0 0 0 1 0 0 0 0 1 0 0 0 0 1 0 0 0 0.5 0"/>
<feBlend mode="normal" in2="BackgroundImageFix" result="effect1_dropShadow_1808_13314"/>
<feBlend mode="normal" in="SourceGraphic" in2="effect1_dropShadow_1808_13314" result="shape"/>
</filter>
<linearGradient id="paint0_linear_1808_13314" x1="2.07456" y1="5" x2="2.07456" y2="37" gradientUnits="userSpaceOnUse">
<stop stop-color="#B28EFF"/>
<stop offset="0.48" stop-color="#8F6DD6"/>
</linearGradient>
<linearGradient id="paint1_linear_1808_13314" x1="5.52393" y1="4" x2="5.52393" y2="31.7032" gradientUnits="userSpaceOnUse">
<stop offset="0.06" stop-color="#A143FF"/>
<stop offset="0.46" stop-color="#8548F1"/>
<stop offset="0.73" stop-color="#6F3DC6"/>
</linearGradient>
<linearGradient id="paint2_linear_1808_13314" x1="14.5239" y1="5.33398" x2="14.5239" y2="6.96787" gradientUnits="userSpaceOnUse">
<stop offset="0.2" stop-color="#856DB9"/>
<stop offset="0.82" stop-color="#46247C"/>
</linearGradient>
<linearGradient id="paint3_linear_1808_13314" x1="7.05017" y1="7" x2="7.05017" y2="28.5111" gradientUnits="userSpaceOnUse">
<stop offset="0.205" stop-color="#9747FF"/>
<stop offset="0.64" stop-color="#7734CA"/>
</linearGradient>
<linearGradient id="paint4_linear_1808_13314" x1="23.5813" y1="25" x2="23.5239" y2="27.6838" gradientUnits="userSpaceOnUse">
<stop offset="0.2" stop-color="#856DB9"/>
<stop offset="0.82" stop-color="#46247C"/>
</linearGradient>
<linearGradient id="paint5_linear_1808_13314" x1="13.0239" y1="17" x2="15.8096" y2="22.7857" gradientUnits="userSpaceOnUse">
<stop stop-color="#E1E1E1" stop-opacity="0.33"/>
<stop offset="0.195" stop-color="#D1D0D0" stop-opacity="0.32"/>
<stop offset="0.76" stop-color="#D6D5D5" stop-opacity="0.58"/>
<stop offset="1" stop-color="#DBDBDB" stop-opacity="0.31"/>
</linearGradient>
<linearGradient id="paint6_linear_1808_13314" x1="13.0239" y1="17" x2="15.8096" y2="22.7857" gradientUnits="userSpaceOnUse">
<stop stop-color="#D8D8D8"/>
<stop offset="0.195" stop-color="#D1D0D0" stop-opacity="0.32"/>
<stop offset="0.76" stop-color="#D6D5D5" stop-opacity="0.58"/>
<stop offset="1" stop-color="#DBDBDB" stop-opacity="0.31"/>
</linearGradient>
<linearGradient id="paint7_linear_1808_13314" x1="14.0471" y1="17.2281" x2="14.5241" y2="20.2142" gradientUnits="userSpaceOnUse">
<stop stop-color="white" stop-opacity="0.54"/>
<stop offset="1" stop-color="#696969" stop-opacity="0.71"/>
</linearGradient>
<linearGradient id="paint8_linear_1808_13314" x1="17.1776" y1="18.9164" x2="14.6388" y2="20.1733" gradientUnits="userSpaceOnUse">
<stop stop-color="#ECE5E7" stop-opacity="0.14"/>
<stop offset="1" stop-color="#868283" stop-opacity="0.46"/>
</linearGradient>
<linearGradient id="paint9_linear_1808_13314" x1="15.167" y1="20.4284" x2="16.2434" y2="22.7256" gradientUnits="userSpaceOnUse">
<stop stop-color="#E1DCE2" stop-opacity="0.55"/>
<stop offset="1" stop-color="#B0B0B0" stop-opacity="0.5"/>
</linearGradient>
<linearGradient id="paint10_linear_1808_13314" x1="14.3095" y1="20.2141" x2="13.6666" y2="22.5713" gradientUnits="userSpaceOnUse">
<stop stop-color="#E7E6E7" stop-opacity="0.56"/>
<stop offset="1" stop-color="#CBC5CB" stop-opacity="0.79"/>
</linearGradient>
<linearGradient id="paint11_linear_1808_13314" x1="15.1671" y1="17.2142" x2="14.5242" y2="20.2142" gradientUnits="userSpaceOnUse">
<stop offset="0.0246486" stop-color="#FAECDB" stop-opacity="0.49"/>
<stop offset="1" stop-color="#948C82" stop-opacity="0.38"/>
</linearGradient>
<linearGradient id="paint12_linear_1808_13314" x1="17.3098" y1="19.7859" x2="14.9526" y2="20.2144" gradientUnits="userSpaceOnUse">
<stop stop-color="#DAD3D9" stop-opacity="0.64"/>
<stop offset="1" stop-color="#B4B1B3" stop-opacity="0.45"/>
</linearGradient>
<linearGradient id="paint13_linear_1808_13314" x1="14.5242" y1="20.2141" x2="15.8099" y2="22.7856" gradientUnits="userSpaceOnUse">
<stop stop-color="#D5CFD6" stop-opacity="0.64"/>
<stop offset="1" stop-color="#A9A2AA" stop-opacity="0.43"/>
</linearGradient>
<linearGradient id="paint14_linear_1808_13314" x1="14.237" y1="20.1725" x2="12.5955" y2="22.5713" gradientUnits="userSpaceOnUse">
<stop stop-color="#D5D1D7" stop-opacity="0.92"/>
<stop offset="1" stop-color="#A5A0A8" stop-opacity="0.34"/>
</linearGradient>
<linearGradient id="paint15_linear_1808_13314" x1="12.5952" y1="18.9286" x2="14.3095" y2="20" gradientUnits="userSpaceOnUse">
<stop stop-color="#D6D1D8" stop-opacity="0.44"/>
<stop offset="1" stop-color="#ABA5AD" stop-opacity="0.24"/>
</linearGradient>
<linearGradient id="paint16_linear_1808_13314" x1="11.7665" y1="19.8608" x2="14.49" y2="20.6003" gradientUnits="userSpaceOnUse">
<stop stop-color="#C3BFC5" stop-opacity="0.55"/>
<stop offset="1" stop-color="#E1E1E1" stop-opacity="0.45"/>
</linearGradient>
<linearGradient id="paint17_linear_1808_13314" x1="21.0239" y1="17" x2="23.8096" y2="22.7857" gradientUnits="userSpaceOnUse">
<stop stop-color="#E1E1E1" stop-opacity="0.33"/>
<stop offset="0.195" stop-color="#D1D0D0" stop-opacity="0.32"/>
<stop offset="0.76" stop-color="#D6D5D5" stop-opacity="0.58"/>
<stop offset="1" stop-color="#DBDBDB" stop-opacity="0.31"/>
</linearGradient>
<linearGradient id="paint18_linear_1808_13314" x1="21.0239" y1="17" x2="23.8096" y2="22.7857" gradientUnits="userSpaceOnUse">
<stop stop-color="#D8D8D8"/>
<stop offset="0.195" stop-color="#D1D0D0" stop-opacity="0.32"/>
<stop offset="0.76" stop-color="#D6D5D5" stop-opacity="0.58"/>
<stop offset="1" stop-color="#DBDBDB" stop-opacity="0.31"/>
</linearGradient>
<linearGradient id="paint19_linear_1808_13314" x1="22.0471" y1="17.2281" x2="22.5241" y2="20.2142" gradientUnits="userSpaceOnUse">
<stop stop-color="white" stop-opacity="0.54"/>
<stop offset="1" stop-color="#696969" stop-opacity="0.71"/>
</linearGradient>
<linearGradient id="paint20_linear_1808_13314" x1="25.1776" y1="18.9164" x2="22.6388" y2="20.1733" gradientUnits="userSpaceOnUse">
<stop stop-color="#ECE5E7" stop-opacity="0.14"/>
<stop offset="1" stop-color="#868283" stop-opacity="0.46"/>
</linearGradient>
<linearGradient id="paint21_linear_1808_13314" x1="23.167" y1="20.4284" x2="24.2434" y2="22.7256" gradientUnits="userSpaceOnUse">
<stop stop-color="#E1DCE2" stop-opacity="0.55"/>
<stop offset="1" stop-color="#B0B0B0" stop-opacity="0.5"/>
</linearGradient>
<linearGradient id="paint22_linear_1808_13314" x1="22.3095" y1="20.2141" x2="21.6666" y2="22.5713" gradientUnits="userSpaceOnUse">
<stop stop-color="#E7E6E7" stop-opacity="0.56"/>
<stop offset="1" stop-color="#CBC5CB" stop-opacity="0.79"/>
</linearGradient>
<linearGradient id="paint23_linear_1808_13314" x1="23.1671" y1="17.2142" x2="22.5242" y2="20.2142" gradientUnits="userSpaceOnUse">
<stop offset="0.0246486" stop-color="#FAECDB" stop-opacity="0.49"/>
<stop offset="1" stop-color="#948C82" stop-opacity="0.38"/>
</linearGradient>
<linearGradient id="paint24_linear_1808_13314" x1="25.3098" y1="19.7859" x2="22.9526" y2="20.2144" gradientUnits="userSpaceOnUse">
<stop stop-color="#DAD3D9" stop-opacity="0.64"/>
<stop offset="1" stop-color="#B4B1B3" stop-opacity="0.45"/>
</linearGradient>
<linearGradient id="paint25_linear_1808_13314" x1="22.5242" y1="20.2141" x2="23.8099" y2="22.7856" gradientUnits="userSpaceOnUse">
<stop stop-color="#D5CFD6" stop-opacity="0.64"/>
<stop offset="1" stop-color="#A9A2AA" stop-opacity="0.43"/>
</linearGradient>
<linearGradient id="paint26_linear_1808_13314" x1="22.237" y1="20.1725" x2="20.5955" y2="22.5713" gradientUnits="userSpaceOnUse">
<stop stop-color="#D5D1D7" stop-opacity="0.92"/>
<stop offset="1" stop-color="#A5A0A8" stop-opacity="0.34"/>
</linearGradient>
<linearGradient id="paint27_linear_1808_13314" x1="20.5952" y1="18.9286" x2="22.3095" y2="20" gradientUnits="userSpaceOnUse">
<stop stop-color="#D6D1D8" stop-opacity="0.44"/>
<stop offset="1" stop-color="#ABA5AD" stop-opacity="0.24"/>
</linearGradient>
<linearGradient id="paint28_linear_1808_13314" x1="19.7665" y1="19.8608" x2="22.49" y2="20.6003" gradientUnits="userSpaceOnUse">
<stop stop-color="#C3BFC5" stop-opacity="0.55"/>
<stop offset="1" stop-color="#E1E1E1" stop-opacity="0.45"/>
</linearGradient>
<linearGradient id="paint29_linear_1808_13314" x1="17.0239" y1="10" x2="19.8096" y2="15.7857" gradientUnits="userSpaceOnUse">
<stop stop-color="#E1E1E1" stop-opacity="0.33"/>
<stop offset="0.195" stop-color="#D1D0D0" stop-opacity="0.32"/>
<stop offset="0.76" stop-color="#D6D5D5" stop-opacity="0.58"/>
<stop offset="1" stop-color="#DBDBDB" stop-opacity="0.31"/>
</linearGradient>
<linearGradient id="paint30_linear_1808_13314" x1="17.0239" y1="10" x2="19.8096" y2="15.7857" gradientUnits="userSpaceOnUse">
<stop stop-color="#D8D8D8"/>
<stop offset="0.195" stop-color="#D1D0D0" stop-opacity="0.32"/>
<stop offset="0.76" stop-color="#D6D5D5" stop-opacity="0.58"/>
<stop offset="1" stop-color="#DBDBDB" stop-opacity="0.31"/>
</linearGradient>
<linearGradient id="paint31_linear_1808_13314" x1="18.0468" y1="10.2279" x2="18.5238" y2="13.214" gradientUnits="userSpaceOnUse">
<stop stop-color="white" stop-opacity="0.54"/>
<stop offset="1" stop-color="#696969" stop-opacity="0.71"/>
</linearGradient>
<linearGradient id="paint32_linear_1808_13314" x1="21.1778" y1="11.9164" x2="18.639" y2="13.1733" gradientUnits="userSpaceOnUse">
<stop stop-color="#ECE5E7" stop-opacity="0.14"/>
<stop offset="1" stop-color="#868283" stop-opacity="0.46"/>
</linearGradient>
<linearGradient id="paint33_linear_1808_13314" x1="19.1672" y1="13.4284" x2="20.2437" y2="15.7256" gradientUnits="userSpaceOnUse">
<stop stop-color="#E1DCE2" stop-opacity="0.55"/>
<stop offset="1" stop-color="#B0B0B0" stop-opacity="0.5"/>
</linearGradient>
<linearGradient id="paint34_linear_1808_13314" x1="18.3097" y1="13.2141" x2="17.6669" y2="15.5713" gradientUnits="userSpaceOnUse">
<stop stop-color="#E7E6E7" stop-opacity="0.56"/>
<stop offset="1" stop-color="#CBC5CB" stop-opacity="0.79"/>
</linearGradient>
<linearGradient id="paint35_linear_1808_13314" x1="19.1671" y1="10.214" x2="18.5242" y2="13.214" gradientUnits="userSpaceOnUse">
<stop offset="0.0246486" stop-color="#FAECDB" stop-opacity="0.49"/>
<stop offset="1" stop-color="#948C82" stop-opacity="0.38"/>
</linearGradient>
<linearGradient id="paint36_linear_1808_13314" x1="21.3095" y1="12.7857" x2="18.9524" y2="13.2143" gradientUnits="userSpaceOnUse">
<stop stop-color="#DAD3D9" stop-opacity="0.64"/>
<stop offset="1" stop-color="#B4B1B3" stop-opacity="0.45"/>
</linearGradient>
<linearGradient id="paint37_linear_1808_13314" x1="18.5242" y1="13.2141" x2="19.8099" y2="15.7856" gradientUnits="userSpaceOnUse">
<stop stop-color="#D5CFD6" stop-opacity="0.64"/>
<stop offset="1" stop-color="#A9A2AA" stop-opacity="0.43"/>
</linearGradient>
<linearGradient id="paint38_linear_1808_13314" x1="18.237" y1="13.1725" x2="16.5955" y2="15.5713" gradientUnits="userSpaceOnUse">
<stop stop-color="#D5D1D7" stop-opacity="0.92"/>
<stop offset="1" stop-color="#A5A0A8" stop-opacity="0.34"/>
</linearGradient>
<linearGradient id="paint39_linear_1808_13314" x1="16.5952" y1="11.9286" x2="18.3095" y2="13" gradientUnits="userSpaceOnUse">
<stop stop-color="#D6D1D8" stop-opacity="0.44"/>
<stop offset="1" stop-color="#ABA5AD" stop-opacity="0.24"/>
</linearGradient>
<linearGradient id="paint40_linear_1808_13314" x1="15.7668" y1="12.8608" x2="18.4902" y2="13.6003" gradientUnits="userSpaceOnUse">
<stop stop-color="#C3BFC5" stop-opacity="0.55"/>
<stop offset="1" stop-color="#E1E1E1" stop-opacity="0.45"/>
</linearGradient>
<clipPath id="clip0_1808_13314">
<rect width="36" height="36" fill="white" transform="translate(0.523926)"/>
</clipPath>
</defs>
</svg>
