<svg width="37" height="36" viewBox="0 0 37 36" fill="none" xmlns="http://www.w3.org/2000/svg">
<g opacity="0.7" clip-path="url(#clip0_2009_8723)">
<g opacity="0.4">
<path d="M21.5239 29.4777C23.6189 28.2594 25.1033 27.3961 25.9771 26.8879Z" fill="url(#paint0_linear_2009_8723)"/>
<path d="M21.5239 29.4777C23.6189 28.2594 25.1033 27.3961 25.9771 26.8879" stroke="white" stroke-opacity="0.62" stroke-width="0.711111" stroke-linecap="round"/>
</g>
<path fill-rule="evenodd" clip-rule="evenodd" d="M17.1127 2.80642C17.9872 2.30672 19.0607 2.30672 19.9352 2.80642L31.0907 9.18103C31.977 9.68746 32.5239 10.6299 32.5239 11.6507V24.3493C32.5239 25.3701 31.977 26.3125 31.0907 26.819L19.9352 33.1936C19.0607 33.6933 17.9872 33.6933 17.1127 33.1936L5.95713 26.819C5.07087 26.3125 4.52393 25.3701 4.52393 24.3493V11.6507C4.52393 10.6299 5.07087 9.68746 5.95713 9.18103L17.1127 2.80642Z" fill="url(#paint1_linear_2009_8723)"/>
<path d="M19.6749 4.29684C18.95 3.90105 18.0568 3.90105 17.3318 4.29684L6.69548 10.1148C5.97052 10.5105 5.52393 11.242 5.52393 12.0336L5.52393 23.6695C5.52393 24.4611 5.97052 25.1925 6.69548 25.5883L17.3488 31.7032C18.0737 32.0989 18.9669 32.0989 19.6919 31.7032L30.3524 25.5883C31.0773 25.1925 31.5239 24.4611 31.5239 23.6695V12.0336C31.5239 11.242 31.0773 10.5105 30.3524 10.1148L19.6749 4.29684Z" fill="url(#paint2_linear_2009_8723)" fill-opacity="0.7"/>
<path d="M17.3539 5.33398C17.3539 5.33398 15.3569 6.48694 14.5239 6.96787Z" fill="url(#paint3_linear_2009_8723)"/>
<path d="M17.3539 5.33398C17.3539 5.33398 15.3569 6.48694 14.5239 6.96787" stroke="white" stroke-opacity="0.28" stroke-width="0.711111" stroke-linecap="round"/>
<g filter="url(#filter0_d_2009_8723)">
<g filter="url(#filter1_d_2009_8723)">
<path fill-rule="evenodd" clip-rule="evenodd" d="M17.8727 7.35023C18.2793 7.13155 18.7685 7.13155 19.1752 7.35023L27.8002 11.9886C28.2459 12.2283 28.5239 12.6935 28.5239 13.1996V22.8004C28.5239 23.3065 28.2459 23.7717 27.8002 24.0114L19.1752 28.6498C18.7685 28.8685 18.2793 28.8685 17.8727 28.6498L9.24768 24.0114C8.80195 23.7717 8.52393 23.3065 8.52393 22.8004V13.1996C8.52393 12.6935 8.80195 12.2283 9.24768 11.9886L17.8727 7.35023Z" fill="url(#paint4_linear_2009_8723)"/>
</g>
</g>
<g filter="url(#filter2_d_2009_8723)">
<path d="M20.9406 19.75C20.9054 19.75 20.8693 19.7396 20.8312 19.7136L20.8239 19.706L20.8126 19.6932L20.8087 19.6901L20.8043 19.6854L20.803 19.6848C20.8019 19.6836 20.8007 19.6822 20.7994 19.6807C20.7982 19.6791 20.7969 19.6773 20.7955 19.6756C20.7938 19.6733 20.7918 19.6707 20.7895 19.668L20.787 19.6639L20.7801 19.6531L20.7801 19.6531L20.7793 19.6518C20.7762 19.6469 20.7734 19.6418 20.7672 19.629C20.7657 19.6245 20.7642 19.6201 20.7628 19.6158L20.7601 19.6062C20.759 19.6024 20.7575 19.5967 20.7557 19.5905C20.7547 19.5862 20.7536 19.5804 20.7517 19.5708C20.7516 19.57 20.7514 19.5692 20.7513 19.5684C20.751 19.5664 20.7507 19.5645 20.7505 19.5628L20.7496 19.5575C20.7494 19.554 20.7492 19.5507 20.7489 19.5479C20.7483 19.5414 20.7477 19.5354 20.7473 19.5318C20.7477 19.5259 20.7487 19.516 20.7514 19.4947L21.0136 17.9043L21.0343 17.7789L20.9452 17.6884L19.8363 16.5607C19.8254 16.5492 19.8151 16.5366 19.8074 16.5256C19.7958 16.5073 19.7922 16.4997 19.7908 16.4961C19.7901 16.4939 19.7894 16.492 19.7888 16.4904L19.7857 16.4819L19.7847 16.479L19.7842 16.4779L19.7838 16.4762C19.7769 16.4476 19.7739 16.4251 19.7739 16.4035V16.4034V16.4033V16.4032V16.4031V16.4031V16.403V16.4029V16.4028V16.4027V16.4026V16.4026V16.4025V16.4024V16.4023V16.4022V16.4022V16.4021V16.402V16.4019V16.4018V16.4017V16.4017V16.4016V16.4015V16.4014V16.4013V16.4013V16.4012V16.4011V16.401V16.4009V16.4008V16.4008V16.4007V16.4006V16.4005V16.4004V16.4004V16.4003V16.4002V16.4001V16.4V16.4V16.3999V16.3998V16.3997V16.3996V16.3996V16.3995V16.3994V16.3993V16.3992V16.3992V16.3991V16.399V16.3989V16.3988V16.3988V16.3987V16.3986V16.3985V16.3984V16.3984V16.3983V16.3982V16.3981V16.3981V16.398V16.3979V16.3978V16.3977V16.3977V16.3976V16.3975V16.3974V16.3974V16.3973V16.3972V16.3971V16.397V16.397V16.3969V16.3968V16.3967V16.3967V16.3966V16.3965V16.3964V16.3963V16.3963V16.3962V16.3961V16.396V16.396V16.3959V16.3958V16.3957V16.3956V16.3956V16.3955V16.3954V16.3953V16.3953V16.3952V16.3951V16.395V16.395V16.3949V16.3948V16.3947V16.3947V16.3946V16.3945V16.3944V16.3944V16.3943V16.3942V16.3941V16.394V16.394V16.3939V16.3938V16.3937V16.3937V16.3936V16.3935V16.3934V16.3934V16.3933V16.3932V16.3931V16.3931V16.393V16.3929V16.3928V16.3928V16.3927V16.3926V16.3925V16.3925V16.3924V16.3923V16.3922V16.3922V16.3921V16.392V16.3919V16.3919V16.3918V16.3917V16.3916V16.3916V16.3915V16.3914V16.3913V16.3913V16.3912V16.3911V16.391V16.391V16.3909V16.3908V16.3908V16.3907V16.3906V16.3905V16.3905V16.3904V16.3903V16.3902V16.3902V16.3901V16.39V16.3899V16.3899V16.3898V16.3897V16.3896V16.3896V16.3895V16.3894V16.3893V16.3893V16.3892V16.3891V16.3891V16.389V16.3889V16.3888V16.3888V16.3887V16.3886V16.3885V16.3885V16.3884V16.3883V16.3882V16.3882V16.3881V16.388V16.388V16.3879V16.3878V16.3877V16.3877V16.3876V16.3875V16.3874V16.3874V16.3873V16.3872V16.3872V16.3871V16.387V16.3869V16.3869V16.3868V16.3867V16.3866V16.3866V16.3865V16.3864V16.3864V16.3863V16.3862V16.3861V16.3861V16.386V16.3859V16.3858V16.3858V16.3857V16.3856V16.3855V16.3855V16.3854V16.3853V16.3853V16.3852V16.3851V16.385V16.385V16.3849V16.3848V16.3847V16.3847V16.3846V16.3845V16.3845V16.3844V16.3843V16.3842V16.3842V16.3841V16.384V16.384V16.3839V16.3838V16.3837V16.3837V16.3836V16.3835V16.3834V16.3834V16.3833V16.3832V16.3832V16.3831V16.383V16.3829V16.3829V16.3828V16.3827V16.3826V16.3826V16.3825V16.3824V16.3824V16.3823V16.3822V16.3821V16.3821V16.382V16.3819V16.3818V16.3818V16.3817V16.3816V16.3816V16.3815V16.3814V16.3813V16.3813V16.3812V16.3811V16.381V16.381V16.3809V16.3808V16.3807V16.3807V16.3806V16.3805V16.3805V16.3804V16.3803V16.3802V16.3802V16.3801V16.38V16.3799V16.3799V16.3798V16.3797V16.3797V16.3796V16.3795V16.3794V16.3794V16.3793V16.3792V16.3791V16.3791V16.379V16.3789V16.3788V16.3788V16.3787V16.3786V16.3786V16.3785V16.3784V16.3783V16.3783V16.3782V16.3781V16.378V16.378V16.3779V16.3778V16.3777V16.3777V16.3776V16.3775V16.3774V16.3774V16.3773V16.3772V16.3771V16.3771V16.377V16.3769V16.3769V16.3768V16.3767V16.3766V16.3766V16.3765V16.3764V16.3763V16.3763V16.3762V16.3761V16.376V16.376V16.3759V16.3758V16.3757V16.3757V16.3756V16.3755V16.3754V16.3754V16.3753V16.3752V16.3751V16.3751V16.375V16.3749V16.3748V16.3748V16.3747V16.3746V16.3745V16.3745V16.3744V16.3743V16.3742V16.3742V16.3741V16.374V16.3739V16.3739V16.3738V16.3737V16.3736V16.3736V16.3735V16.3734V16.3733V16.3732V16.3732V16.3731V16.373V16.3729V16.3729V16.3728V16.3727V16.3726V16.3726V16.3725V16.3724V16.3723V16.3723V16.3722V16.3721V16.372V16.3719V16.3719V16.3718V16.3717V16.3716V16.3716V16.3715V16.3714V16.3713V16.3712V16.3712V16.3711V16.371V16.3709V16.3709L19.784 16.3393V16.3297L19.8333 16.2463L19.8604 16.218C19.8676 16.2139 19.8738 16.21 19.8785 16.2068C19.8856 16.203 19.8946 16.198 19.9041 16.1922C19.9056 16.1916 19.9073 16.191 19.9093 16.1902L19.922 16.187C19.9281 16.1855 19.9329 16.1843 19.9369 16.1833C19.9427 16.1818 19.9471 16.1807 19.9519 16.1795L21.4798 15.9494L21.6121 15.9295L21.6689 15.8083L22.3451 14.3662C22.3451 14.3662 22.3451 14.3661 22.3451 14.3661C22.381 14.2899 22.4488 14.25 22.5183 14.25C22.5671 14.25 22.6182 14.2706 22.657 14.3099C22.6593 14.3127 22.6613 14.3151 22.6629 14.3172L22.6696 14.3253L22.6729 14.3305C22.6885 14.3549 22.693 14.3625 22.695 14.3669L22.6952 14.3672L23.3818 15.8129L23.4388 15.933L23.5703 15.9528L25.1037 16.1843L25.1037 16.1843L25.1051 16.1845C25.174 16.1945 25.2379 16.2458 25.2631 16.3277C25.2646 16.3371 25.2668 16.3476 25.27 16.3586V16.3643L25.273 16.3777L25.2736 16.3881C25.2754 16.4226 25.2697 16.4551 25.2591 16.4799L25.2588 16.4798L25.2542 16.4923C25.2533 16.4947 25.2524 16.4971 25.251 16.4998L25.2381 16.5187C25.2294 16.5314 25.2181 16.5454 25.207 16.557L24.0982 17.6846L24.009 17.7753L24.0298 17.9007L24.2926 19.4911C24.3061 19.5792 24.2735 19.659 24.2123 19.7069C24.1945 19.7196 24.1803 19.7277 24.171 19.7321L24.1553 19.7372C24.1346 19.7439 24.1159 19.7466 24.0987 19.7466C24.068 19.7466 24.0377 19.739 24.0108 19.7242L24.0104 19.724L22.6375 18.9725L22.5174 18.9068L22.3974 18.9725L21.0245 19.724L21.0167 19.7282L21.0093 19.733C20.9952 19.7421 20.9722 19.75 20.9406 19.75ZM24.138 19.7451L24.1394 19.7444C24.1389 19.7446 24.1382 19.745 24.138 19.7451Z" fill="white" stroke="url(#paint5_linear_2009_8723)" stroke-width="0.5"/>
<path d="M20.9406 19.75C20.9054 19.75 20.8693 19.7396 20.8312 19.7136L20.8239 19.706L20.8126 19.6932L20.8087 19.6901L20.8043 19.6854L20.803 19.6848C20.8019 19.6836 20.8007 19.6822 20.7994 19.6807C20.7982 19.6791 20.7969 19.6773 20.7955 19.6756C20.7938 19.6733 20.7918 19.6707 20.7895 19.668L20.787 19.6639L20.7801 19.6531L20.7801 19.6531L20.7793 19.6518C20.7762 19.6469 20.7734 19.6418 20.7672 19.629C20.7657 19.6245 20.7642 19.6201 20.7628 19.6158L20.7601 19.6062C20.759 19.6024 20.7575 19.5967 20.7557 19.5905C20.7547 19.5862 20.7536 19.5804 20.7517 19.5708C20.7516 19.57 20.7514 19.5692 20.7513 19.5684C20.751 19.5664 20.7507 19.5645 20.7505 19.5628L20.7496 19.5575C20.7494 19.554 20.7492 19.5507 20.7489 19.5479C20.7483 19.5414 20.7477 19.5354 20.7473 19.5318C20.7477 19.5259 20.7487 19.516 20.7514 19.4947L21.0136 17.9043L21.0343 17.7789L20.9452 17.6884L19.8363 16.5607C19.8254 16.5492 19.8151 16.5366 19.8074 16.5256C19.7958 16.5073 19.7922 16.4997 19.7908 16.4961C19.7901 16.4939 19.7894 16.492 19.7888 16.4904L19.7857 16.4819L19.7847 16.479L19.7842 16.4779L19.7838 16.4762C19.7769 16.4476 19.7739 16.4251 19.7739 16.4035V16.4034V16.4033V16.4032V16.4031V16.4031V16.403V16.4029V16.4028V16.4027V16.4026V16.4026V16.4025V16.4024V16.4023V16.4022V16.4022V16.4021V16.402V16.4019V16.4018V16.4017V16.4017V16.4016V16.4015V16.4014V16.4013V16.4013V16.4012V16.4011V16.401V16.4009V16.4008V16.4008V16.4007V16.4006V16.4005V16.4004V16.4004V16.4003V16.4002V16.4001V16.4V16.4V16.3999V16.3998V16.3997V16.3996V16.3996V16.3995V16.3994V16.3993V16.3992V16.3992V16.3991V16.399V16.3989V16.3988V16.3988V16.3987V16.3986V16.3985V16.3984V16.3984V16.3983V16.3982V16.3981V16.3981V16.398V16.3979V16.3978V16.3977V16.3977V16.3976V16.3975V16.3974V16.3974V16.3973V16.3972V16.3971V16.397V16.397V16.3969V16.3968V16.3967V16.3967V16.3966V16.3965V16.3964V16.3963V16.3963V16.3962V16.3961V16.396V16.396V16.3959V16.3958V16.3957V16.3956V16.3956V16.3955V16.3954V16.3953V16.3953V16.3952V16.3951V16.395V16.395V16.3949V16.3948V16.3947V16.3947V16.3946V16.3945V16.3944V16.3944V16.3943V16.3942V16.3941V16.394V16.394V16.3939V16.3938V16.3937V16.3937V16.3936V16.3935V16.3934V16.3934V16.3933V16.3932V16.3931V16.3931V16.393V16.3929V16.3928V16.3928V16.3927V16.3926V16.3925V16.3925V16.3924V16.3923V16.3922V16.3922V16.3921V16.392V16.3919V16.3919V16.3918V16.3917V16.3916V16.3916V16.3915V16.3914V16.3913V16.3913V16.3912V16.3911V16.391V16.391V16.3909V16.3908V16.3908V16.3907V16.3906V16.3905V16.3905V16.3904V16.3903V16.3902V16.3902V16.3901V16.39V16.3899V16.3899V16.3898V16.3897V16.3896V16.3896V16.3895V16.3894V16.3893V16.3893V16.3892V16.3891V16.3891V16.389V16.3889V16.3888V16.3888V16.3887V16.3886V16.3885V16.3885V16.3884V16.3883V16.3882V16.3882V16.3881V16.388V16.388V16.3879V16.3878V16.3877V16.3877V16.3876V16.3875V16.3874V16.3874V16.3873V16.3872V16.3872V16.3871V16.387V16.3869V16.3869V16.3868V16.3867V16.3866V16.3866V16.3865V16.3864V16.3864V16.3863V16.3862V16.3861V16.3861V16.386V16.3859V16.3858V16.3858V16.3857V16.3856V16.3855V16.3855V16.3854V16.3853V16.3853V16.3852V16.3851V16.385V16.385V16.3849V16.3848V16.3847V16.3847V16.3846V16.3845V16.3845V16.3844V16.3843V16.3842V16.3842V16.3841V16.384V16.384V16.3839V16.3838V16.3837V16.3837V16.3836V16.3835V16.3834V16.3834V16.3833V16.3832V16.3832V16.3831V16.383V16.3829V16.3829V16.3828V16.3827V16.3826V16.3826V16.3825V16.3824V16.3824V16.3823V16.3822V16.3821V16.3821V16.382V16.3819V16.3818V16.3818V16.3817V16.3816V16.3816V16.3815V16.3814V16.3813V16.3813V16.3812V16.3811V16.381V16.381V16.3809V16.3808V16.3807V16.3807V16.3806V16.3805V16.3805V16.3804V16.3803V16.3802V16.3802V16.3801V16.38V16.3799V16.3799V16.3798V16.3797V16.3797V16.3796V16.3795V16.3794V16.3794V16.3793V16.3792V16.3791V16.3791V16.379V16.3789V16.3788V16.3788V16.3787V16.3786V16.3786V16.3785V16.3784V16.3783V16.3783V16.3782V16.3781V16.378V16.378V16.3779V16.3778V16.3777V16.3777V16.3776V16.3775V16.3774V16.3774V16.3773V16.3772V16.3771V16.3771V16.377V16.3769V16.3769V16.3768V16.3767V16.3766V16.3766V16.3765V16.3764V16.3763V16.3763V16.3762V16.3761V16.376V16.376V16.3759V16.3758V16.3757V16.3757V16.3756V16.3755V16.3754V16.3754V16.3753V16.3752V16.3751V16.3751V16.375V16.3749V16.3748V16.3748V16.3747V16.3746V16.3745V16.3745V16.3744V16.3743V16.3742V16.3742V16.3741V16.374V16.3739V16.3739V16.3738V16.3737V16.3736V16.3736V16.3735V16.3734V16.3733V16.3732V16.3732V16.3731V16.373V16.3729V16.3729V16.3728V16.3727V16.3726V16.3726V16.3725V16.3724V16.3723V16.3723V16.3722V16.3721V16.372V16.3719V16.3719V16.3718V16.3717V16.3716V16.3716V16.3715V16.3714V16.3713V16.3712V16.3712V16.3711V16.371V16.3709V16.3709L19.784 16.3393V16.3297L19.8333 16.2463L19.8604 16.218C19.8676 16.2139 19.8738 16.21 19.8785 16.2068C19.8856 16.203 19.8946 16.198 19.9041 16.1922C19.9056 16.1916 19.9073 16.191 19.9093 16.1902L19.922 16.187C19.9281 16.1855 19.9329 16.1843 19.9369 16.1833C19.9427 16.1818 19.9471 16.1807 19.9519 16.1795L21.4798 15.9494L21.6121 15.9295L21.6689 15.8083L22.3451 14.3662C22.3451 14.3662 22.3451 14.3661 22.3451 14.3661C22.381 14.2899 22.4488 14.25 22.5183 14.25C22.5671 14.25 22.6182 14.2706 22.657 14.3099C22.6593 14.3127 22.6613 14.3151 22.6629 14.3172L22.6696 14.3253L22.6729 14.3305C22.6885 14.3549 22.693 14.3625 22.695 14.3669L22.6952 14.3672L23.3818 15.8129L23.4388 15.933L23.5703 15.9528L25.1037 16.1843L25.1037 16.1843L25.1051 16.1845C25.174 16.1945 25.2379 16.2458 25.2631 16.3277C25.2646 16.3371 25.2668 16.3476 25.27 16.3586V16.3643L25.273 16.3777L25.2736 16.3881C25.2754 16.4226 25.2697 16.4551 25.2591 16.4799L25.2588 16.4798L25.2542 16.4923C25.2533 16.4947 25.2524 16.4971 25.251 16.4998L25.2381 16.5187C25.2294 16.5314 25.2181 16.5454 25.207 16.557L24.0982 17.6846L24.009 17.7753L24.0298 17.9007L24.2926 19.4911C24.3061 19.5792 24.2735 19.659 24.2123 19.7069C24.1945 19.7196 24.1803 19.7277 24.171 19.7321L24.1553 19.7372C24.1346 19.7439 24.1159 19.7466 24.0987 19.7466C24.068 19.7466 24.0377 19.739 24.0108 19.7242L24.0104 19.724L22.6375 18.9725L22.5174 18.9068L22.3974 18.9725L21.0245 19.724L21.0167 19.7282L21.0093 19.733C20.9952 19.7421 20.9722 19.75 20.9406 19.75ZM24.138 19.7451L24.1394 19.7444C24.1389 19.7446 24.1382 19.745 24.138 19.7451Z" stroke="url(#paint6_linear_2009_8723)" stroke-width="0.5"/>
<path d="M22.5185 14.2283V17.1731L21.5757 15.9162L22.3134 14.3603C22.358 14.2747 22.44 14.2283 22.5185 14.2283Z" fill="url(#paint7_linear_2009_8723)" fill-opacity="0.38"/>
<path d="M25.2949 16.3328L22.5215 17.1732L23.464 15.9163L25.1103 16.1654C25.2027 16.1831 25.2675 16.2507 25.2949 16.3328Z" fill="url(#paint8_linear_2009_8723)"/>
<path d="M24.2327 19.7258L22.5183 17.1726L24.0416 17.7815L24.3216 19.4908C24.3418 19.5906 24.3008 19.6759 24.2327 19.7258Z" fill="url(#paint9_linear_2009_8723)"/>
<path d="M22.5179 17.1726V18.9352L21.0458 19.7434C20.9604 19.7896 20.8716 19.7754 20.8032 19.7258L22.5179 17.1726Z" fill="url(#paint10_linear_2009_8723)"/>
<path d="M23.4611 15.9162L22.5183 17.1731V14.2283C22.5798 14.2283 22.6414 14.2531 22.6856 14.303C22.6925 14.3101 22.6993 14.3206 22.7062 14.3315C22.713 14.3423 22.7198 14.3528 22.7231 14.3634L23.4611 15.9162Z" fill="url(#paint11_linear_2009_8723)" fill-opacity="0.6"/>
<path d="M25.2883 16.4926C25.2814 16.5069 25.2746 16.5211 25.2678 16.5354C25.2574 16.5496 25.2472 16.5602 25.2371 16.5744L24.0453 17.7851L22.522 17.1762L25.2954 16.3358C25.2954 16.3392 25.2987 16.3429 25.2987 16.3466C25.2987 16.3504 25.3022 16.3538 25.3022 16.3609C25.3022 16.3646 25.3022 16.3646 25.3022 16.3646C25.3022 16.368 25.3022 16.3717 25.3022 16.3752C25.3022 16.3823 25.3022 16.386 25.3022 16.3928C25.3055 16.4248 25.3019 16.4604 25.2883 16.4926Z" fill="url(#paint12_linear_2009_8723)"/>
<path d="M24.233 19.7258C24.216 19.74 24.1955 19.7506 24.1715 19.7577C24.1682 19.7577 24.1682 19.7577 24.1646 19.7611C24.1099 19.7788 24.0484 19.7754 23.9905 19.7434L22.5183 18.9352V17.1726L24.233 19.7258Z" fill="url(#paint13_linear_2009_8723)"/>
<path d="M22.5181 17.1726L20.8037 19.7258C20.8004 19.722 20.7968 19.7186 20.7936 19.7149C20.7903 19.7115 20.7867 19.7078 20.7832 19.7041C20.7799 19.7007 20.7763 19.697 20.7695 19.6898C20.7659 19.6864 20.7627 19.6827 20.7591 19.679C20.7556 19.6753 20.7558 19.6756 20.7558 19.6719C20.7525 19.6684 20.749 19.6647 20.749 19.661C20.7422 19.6505 20.7353 19.6397 20.732 19.6291C20.7288 19.6257 20.7288 19.6183 20.7252 19.6114C20.7219 19.6043 20.7219 19.6006 20.7184 19.5938C20.7151 19.5866 20.7151 19.5761 20.7151 19.569C20.7151 19.5655 20.7151 19.5581 20.7151 19.5547C20.7151 19.5476 20.7151 19.5405 20.7151 19.5333C20.7151 19.5191 20.7151 19.5048 20.7184 19.4906L20.9984 17.7812L22.5181 17.1726Z" fill="url(#paint14_linear_2009_8723)"/>
<path d="M22.5183 17.1724L19.7449 16.332C19.7449 16.3286 19.7482 16.3249 19.7482 16.3212C19.7514 16.3141 19.7514 16.3069 19.755 16.3035C19.7618 16.2893 19.7687 16.2787 19.7755 16.2679C19.7788 16.2608 19.7823 16.257 19.7892 16.2502C19.7927 16.2468 19.796 16.2394 19.8028 16.2359C19.8061 16.2325 19.8132 16.2254 19.8165 16.2217C19.8198 16.218 19.8266 16.2146 19.8302 16.2109C19.837 16.2074 19.8439 16.2 19.8507 16.1966C19.854 16.1932 19.8608 16.1895 19.8676 16.1895C19.878 16.1861 19.8846 16.1824 19.895 16.1786C19.8983 16.1786 19.9018 16.1752 19.9087 16.1752C19.9155 16.1718 19.9256 16.1718 19.936 16.1681L21.5823 15.9189L22.5183 17.1724Z" fill="url(#paint15_linear_2009_8723)"/>
<path d="M22.518 17.1727L20.9983 17.785L19.8064 16.5743C19.7927 16.5635 19.7859 16.5495 19.7758 16.5353C19.7689 16.521 19.7588 16.5067 19.7553 16.4925C19.752 16.4854 19.7484 16.4782 19.7484 16.4711C19.7416 16.4497 19.738 16.4249 19.738 16.4035C19.738 16.3964 19.738 16.3893 19.738 16.3822C19.738 16.3716 19.738 16.3645 19.7416 16.3537C19.7416 16.3502 19.7449 16.3465 19.7449 16.3394C19.7449 16.336 19.7482 16.3323 19.7482 16.3289L22.518 17.1727Z" fill="url(#paint16_linear_2009_8723)"/>
</g>
<g filter="url(#filter3_d_2009_8723)">
<path d="M12.9406 19.75C12.9054 19.75 12.8693 19.7396 12.8312 19.7136L12.8239 19.706L12.8126 19.6932L12.8087 19.6901L12.8043 19.6854L12.803 19.6848C12.8019 19.6836 12.8007 19.6822 12.7994 19.6807C12.7982 19.6791 12.7969 19.6773 12.7955 19.6756C12.7938 19.6733 12.7918 19.6707 12.7895 19.668L12.787 19.6639L12.7801 19.6531L12.7801 19.6531L12.7793 19.6518C12.7762 19.6469 12.7734 19.6418 12.7672 19.629C12.7657 19.6245 12.7642 19.6201 12.7628 19.6158L12.7601 19.6062C12.759 19.6024 12.7575 19.5967 12.7557 19.5905C12.7547 19.5862 12.7536 19.5804 12.7517 19.5708C12.7516 19.57 12.7514 19.5692 12.7513 19.5684C12.751 19.5664 12.7507 19.5645 12.7505 19.5628L12.7496 19.5575C12.7494 19.554 12.7492 19.5507 12.7489 19.5479C12.7483 19.5414 12.7477 19.5354 12.7473 19.5318C12.7477 19.5259 12.7487 19.516 12.7514 19.4947L13.0136 17.9043L13.0343 17.7789L12.9452 17.6884L11.8363 16.5607C11.8254 16.5492 11.8151 16.5366 11.8074 16.5256C11.7958 16.5073 11.7922 16.4997 11.7908 16.4961C11.7901 16.4939 11.7894 16.492 11.7888 16.4904L11.7857 16.4819L11.7847 16.479L11.7842 16.4779L11.7838 16.4762C11.7769 16.4476 11.7739 16.4251 11.7739 16.4035V16.4034V16.4033V16.4032V16.4031V16.4031V16.403V16.4029V16.4028V16.4027V16.4026V16.4026V16.4025V16.4024V16.4023V16.4022V16.4022V16.4021V16.402V16.4019V16.4018V16.4017V16.4017V16.4016V16.4015V16.4014V16.4013V16.4013V16.4012V16.4011V16.401V16.4009V16.4008V16.4008V16.4007V16.4006V16.4005V16.4004V16.4004V16.4003V16.4002V16.4001V16.4V16.4V16.3999V16.3998V16.3997V16.3996V16.3996V16.3995V16.3994V16.3993V16.3992V16.3992V16.3991V16.399V16.3989V16.3988V16.3988V16.3987V16.3986V16.3985V16.3984V16.3984V16.3983V16.3982V16.3981V16.3981V16.398V16.3979V16.3978V16.3977V16.3977V16.3976V16.3975V16.3974V16.3974V16.3973V16.3972V16.3971V16.397V16.397V16.3969V16.3968V16.3967V16.3967V16.3966V16.3965V16.3964V16.3963V16.3963V16.3962V16.3961V16.396V16.396V16.3959V16.3958V16.3957V16.3956V16.3956V16.3955V16.3954V16.3953V16.3953V16.3952V16.3951V16.395V16.395V16.3949V16.3948V16.3947V16.3947V16.3946V16.3945V16.3944V16.3944V16.3943V16.3942V16.3941V16.394V16.394V16.3939V16.3938V16.3937V16.3937V16.3936V16.3935V16.3934V16.3934V16.3933V16.3932V16.3931V16.3931V16.393V16.3929V16.3928V16.3928V16.3927V16.3926V16.3925V16.3925V16.3924V16.3923V16.3922V16.3922V16.3921V16.392V16.3919V16.3919V16.3918V16.3917V16.3916V16.3916V16.3915V16.3914V16.3913V16.3913V16.3912V16.3911V16.391V16.391V16.3909V16.3908V16.3908V16.3907V16.3906V16.3905V16.3905V16.3904V16.3903V16.3902V16.3902V16.3901V16.39V16.3899V16.3899V16.3898V16.3897V16.3896V16.3896V16.3895V16.3894V16.3893V16.3893V16.3892V16.3891V16.3891V16.389V16.3889V16.3888V16.3888V16.3887V16.3886V16.3885V16.3885V16.3884V16.3883V16.3882V16.3882V16.3881V16.388V16.388V16.3879V16.3878V16.3877V16.3877V16.3876V16.3875V16.3874V16.3874V16.3873V16.3872V16.3872V16.3871V16.387V16.3869V16.3869V16.3868V16.3867V16.3866V16.3866V16.3865V16.3864V16.3864V16.3863V16.3862V16.3861V16.3861V16.386V16.3859V16.3858V16.3858V16.3857V16.3856V16.3855V16.3855V16.3854V16.3853V16.3853V16.3852V16.3851V16.385V16.385V16.3849V16.3848V16.3847V16.3847V16.3846V16.3845V16.3845V16.3844V16.3843V16.3842V16.3842V16.3841V16.384V16.384V16.3839V16.3838V16.3837V16.3837V16.3836V16.3835V16.3834V16.3834V16.3833V16.3832V16.3832V16.3831V16.383V16.3829V16.3829V16.3828V16.3827V16.3826V16.3826V16.3825V16.3824V16.3824V16.3823V16.3822V16.3821V16.3821V16.382V16.3819V16.3818V16.3818V16.3817V16.3816V16.3816V16.3815V16.3814V16.3813V16.3813V16.3812V16.3811V16.381V16.381V16.3809V16.3808V16.3807V16.3807V16.3806V16.3805V16.3805V16.3804V16.3803V16.3802V16.3802V16.3801V16.38V16.3799V16.3799V16.3798V16.3797V16.3797V16.3796V16.3795V16.3794V16.3794V16.3793V16.3792V16.3791V16.3791V16.379V16.3789V16.3788V16.3788V16.3787V16.3786V16.3786V16.3785V16.3784V16.3783V16.3783V16.3782V16.3781V16.378V16.378V16.3779V16.3778V16.3777V16.3777V16.3776V16.3775V16.3774V16.3774V16.3773V16.3772V16.3771V16.3771V16.377V16.3769V16.3769V16.3768V16.3767V16.3766V16.3766V16.3765V16.3764V16.3763V16.3763V16.3762V16.3761V16.376V16.376V16.3759V16.3758V16.3757V16.3757V16.3756V16.3755V16.3754V16.3754V16.3753V16.3752V16.3751V16.3751V16.375V16.3749V16.3748V16.3748V16.3747V16.3746V16.3745V16.3745V16.3744V16.3743V16.3742V16.3742V16.3741V16.374V16.3739V16.3739V16.3738V16.3737V16.3736V16.3736V16.3735V16.3734V16.3733V16.3732V16.3732V16.3731V16.373V16.3729V16.3729V16.3728V16.3727V16.3726V16.3726V16.3725V16.3724V16.3723V16.3723V16.3722V16.3721V16.372V16.3719V16.3719V16.3718V16.3717V16.3716V16.3716V16.3715V16.3714V16.3713V16.3712V16.3712V16.3711V16.371V16.3709V16.3709L11.784 16.3393V16.3297L11.8333 16.2463L11.8604 16.218C11.8676 16.2139 11.8738 16.21 11.8785 16.2068C11.8856 16.203 11.8946 16.198 11.9041 16.1922C11.9056 16.1916 11.9073 16.191 11.9093 16.1902L11.922 16.187C11.9281 16.1855 11.9329 16.1843 11.9369 16.1833C11.9427 16.1818 11.9471 16.1807 11.9519 16.1795L13.4798 15.9494L13.6121 15.9295L13.6689 15.8083L14.3451 14.3662C14.3451 14.3662 14.3451 14.3661 14.3451 14.3661C14.381 14.2899 14.4488 14.25 14.5183 14.25C14.5671 14.25 14.6182 14.2706 14.657 14.3099C14.6593 14.3127 14.6613 14.3151 14.6629 14.3172L14.6696 14.3253L14.6729 14.3305C14.6885 14.3549 14.693 14.3625 14.695 14.3669L14.6952 14.3672L15.3818 15.8129L15.4388 15.933L15.5703 15.9528L17.1037 16.1843L17.1037 16.1843L17.1051 16.1845C17.174 16.1945 17.2379 16.2458 17.2631 16.3277C17.2646 16.3371 17.2668 16.3476 17.27 16.3586V16.3643L17.273 16.3777L17.2736 16.3881C17.2754 16.4226 17.2697 16.4551 17.2591 16.4799L17.2588 16.4798L17.2542 16.4923C17.2533 16.4947 17.2524 16.4971 17.251 16.4998L17.2381 16.5187C17.2294 16.5314 17.2181 16.5454 17.207 16.557L16.0982 17.6846L16.009 17.7753L16.0298 17.9007L16.2926 19.4911C16.3061 19.5792 16.2735 19.659 16.2123 19.7069C16.1945 19.7196 16.1803 19.7277 16.171 19.7321L16.1553 19.7372C16.1346 19.7439 16.1159 19.7466 16.0987 19.7466C16.068 19.7466 16.0377 19.739 16.0108 19.7242L16.0104 19.724L14.6375 18.9725L14.5174 18.9068L14.3974 18.9725L13.0245 19.724L13.0167 19.7282L13.0093 19.733C12.9952 19.7421 12.9722 19.75 12.9406 19.75ZM16.138 19.7451L16.1394 19.7444C16.1389 19.7446 16.1382 19.745 16.138 19.7451Z" fill="white" stroke="url(#paint17_linear_2009_8723)" stroke-width="0.5"/>
<path d="M12.9406 19.75C12.9054 19.75 12.8693 19.7396 12.8312 19.7136L12.8239 19.706L12.8126 19.6932L12.8087 19.6901L12.8043 19.6854L12.803 19.6848C12.8019 19.6836 12.8007 19.6822 12.7994 19.6807C12.7982 19.6791 12.7969 19.6773 12.7955 19.6756C12.7938 19.6733 12.7918 19.6707 12.7895 19.668L12.787 19.6639L12.7801 19.6531L12.7801 19.6531L12.7793 19.6518C12.7762 19.6469 12.7734 19.6418 12.7672 19.629C12.7657 19.6245 12.7642 19.6201 12.7628 19.6158L12.7601 19.6062C12.759 19.6024 12.7575 19.5967 12.7557 19.5905C12.7547 19.5862 12.7536 19.5804 12.7517 19.5708C12.7516 19.57 12.7514 19.5692 12.7513 19.5684C12.751 19.5664 12.7507 19.5645 12.7505 19.5628L12.7496 19.5575C12.7494 19.554 12.7492 19.5507 12.7489 19.5479C12.7483 19.5414 12.7477 19.5354 12.7473 19.5318C12.7477 19.5259 12.7487 19.516 12.7514 19.4947L13.0136 17.9043L13.0343 17.7789L12.9452 17.6884L11.8363 16.5607C11.8254 16.5492 11.8151 16.5366 11.8074 16.5256C11.7958 16.5073 11.7922 16.4997 11.7908 16.4961C11.7901 16.4939 11.7894 16.492 11.7888 16.4904L11.7857 16.4819L11.7847 16.479L11.7842 16.4779L11.7838 16.4762C11.7769 16.4476 11.7739 16.4251 11.7739 16.4035V16.4034V16.4033V16.4032V16.4031V16.4031V16.403V16.4029V16.4028V16.4027V16.4026V16.4026V16.4025V16.4024V16.4023V16.4022V16.4022V16.4021V16.402V16.4019V16.4018V16.4017V16.4017V16.4016V16.4015V16.4014V16.4013V16.4013V16.4012V16.4011V16.401V16.4009V16.4008V16.4008V16.4007V16.4006V16.4005V16.4004V16.4004V16.4003V16.4002V16.4001V16.4V16.4V16.3999V16.3998V16.3997V16.3996V16.3996V16.3995V16.3994V16.3993V16.3992V16.3992V16.3991V16.399V16.3989V16.3988V16.3988V16.3987V16.3986V16.3985V16.3984V16.3984V16.3983V16.3982V16.3981V16.3981V16.398V16.3979V16.3978V16.3977V16.3977V16.3976V16.3975V16.3974V16.3974V16.3973V16.3972V16.3971V16.397V16.397V16.3969V16.3968V16.3967V16.3967V16.3966V16.3965V16.3964V16.3963V16.3963V16.3962V16.3961V16.396V16.396V16.3959V16.3958V16.3957V16.3956V16.3956V16.3955V16.3954V16.3953V16.3953V16.3952V16.3951V16.395V16.395V16.3949V16.3948V16.3947V16.3947V16.3946V16.3945V16.3944V16.3944V16.3943V16.3942V16.3941V16.394V16.394V16.3939V16.3938V16.3937V16.3937V16.3936V16.3935V16.3934V16.3934V16.3933V16.3932V16.3931V16.3931V16.393V16.3929V16.3928V16.3928V16.3927V16.3926V16.3925V16.3925V16.3924V16.3923V16.3922V16.3922V16.3921V16.392V16.3919V16.3919V16.3918V16.3917V16.3916V16.3916V16.3915V16.3914V16.3913V16.3913V16.3912V16.3911V16.391V16.391V16.3909V16.3908V16.3908V16.3907V16.3906V16.3905V16.3905V16.3904V16.3903V16.3902V16.3902V16.3901V16.39V16.3899V16.3899V16.3898V16.3897V16.3896V16.3896V16.3895V16.3894V16.3893V16.3893V16.3892V16.3891V16.3891V16.389V16.3889V16.3888V16.3888V16.3887V16.3886V16.3885V16.3885V16.3884V16.3883V16.3882V16.3882V16.3881V16.388V16.388V16.3879V16.3878V16.3877V16.3877V16.3876V16.3875V16.3874V16.3874V16.3873V16.3872V16.3872V16.3871V16.387V16.3869V16.3869V16.3868V16.3867V16.3866V16.3866V16.3865V16.3864V16.3864V16.3863V16.3862V16.3861V16.3861V16.386V16.3859V16.3858V16.3858V16.3857V16.3856V16.3855V16.3855V16.3854V16.3853V16.3853V16.3852V16.3851V16.385V16.385V16.3849V16.3848V16.3847V16.3847V16.3846V16.3845V16.3845V16.3844V16.3843V16.3842V16.3842V16.3841V16.384V16.384V16.3839V16.3838V16.3837V16.3837V16.3836V16.3835V16.3834V16.3834V16.3833V16.3832V16.3832V16.3831V16.383V16.3829V16.3829V16.3828V16.3827V16.3826V16.3826V16.3825V16.3824V16.3824V16.3823V16.3822V16.3821V16.3821V16.382V16.3819V16.3818V16.3818V16.3817V16.3816V16.3816V16.3815V16.3814V16.3813V16.3813V16.3812V16.3811V16.381V16.381V16.3809V16.3808V16.3807V16.3807V16.3806V16.3805V16.3805V16.3804V16.3803V16.3802V16.3802V16.3801V16.38V16.3799V16.3799V16.3798V16.3797V16.3797V16.3796V16.3795V16.3794V16.3794V16.3793V16.3792V16.3791V16.3791V16.379V16.3789V16.3788V16.3788V16.3787V16.3786V16.3786V16.3785V16.3784V16.3783V16.3783V16.3782V16.3781V16.378V16.378V16.3779V16.3778V16.3777V16.3777V16.3776V16.3775V16.3774V16.3774V16.3773V16.3772V16.3771V16.3771V16.377V16.3769V16.3769V16.3768V16.3767V16.3766V16.3766V16.3765V16.3764V16.3763V16.3763V16.3762V16.3761V16.376V16.376V16.3759V16.3758V16.3757V16.3757V16.3756V16.3755V16.3754V16.3754V16.3753V16.3752V16.3751V16.3751V16.375V16.3749V16.3748V16.3748V16.3747V16.3746V16.3745V16.3745V16.3744V16.3743V16.3742V16.3742V16.3741V16.374V16.3739V16.3739V16.3738V16.3737V16.3736V16.3736V16.3735V16.3734V16.3733V16.3732V16.3732V16.3731V16.373V16.3729V16.3729V16.3728V16.3727V16.3726V16.3726V16.3725V16.3724V16.3723V16.3723V16.3722V16.3721V16.372V16.3719V16.3719V16.3718V16.3717V16.3716V16.3716V16.3715V16.3714V16.3713V16.3712V16.3712V16.3711V16.371V16.3709V16.3709L11.784 16.3393V16.3297L11.8333 16.2463L11.8604 16.218C11.8676 16.2139 11.8738 16.21 11.8785 16.2068C11.8856 16.203 11.8946 16.198 11.9041 16.1922C11.9056 16.1916 11.9073 16.191 11.9093 16.1902L11.922 16.187C11.9281 16.1855 11.9329 16.1843 11.9369 16.1833C11.9427 16.1818 11.9471 16.1807 11.9519 16.1795L13.4798 15.9494L13.6121 15.9295L13.6689 15.8083L14.3451 14.3662C14.3451 14.3662 14.3451 14.3661 14.3451 14.3661C14.381 14.2899 14.4488 14.25 14.5183 14.25C14.5671 14.25 14.6182 14.2706 14.657 14.3099C14.6593 14.3127 14.6613 14.3151 14.6629 14.3172L14.6696 14.3253L14.6729 14.3305C14.6885 14.3549 14.693 14.3625 14.695 14.3669L14.6952 14.3672L15.3818 15.8129L15.4388 15.933L15.5703 15.9528L17.1037 16.1843L17.1037 16.1843L17.1051 16.1845C17.174 16.1945 17.2379 16.2458 17.2631 16.3277C17.2646 16.3371 17.2668 16.3476 17.27 16.3586V16.3643L17.273 16.3777L17.2736 16.3881C17.2754 16.4226 17.2697 16.4551 17.2591 16.4799L17.2588 16.4798L17.2542 16.4923C17.2533 16.4947 17.2524 16.4971 17.251 16.4998L17.2381 16.5187C17.2294 16.5314 17.2181 16.5454 17.207 16.557L16.0982 17.6846L16.009 17.7753L16.0298 17.9007L16.2926 19.4911C16.3061 19.5792 16.2735 19.659 16.2123 19.7069C16.1945 19.7196 16.1803 19.7277 16.171 19.7321L16.1553 19.7372C16.1346 19.7439 16.1159 19.7466 16.0987 19.7466C16.068 19.7466 16.0377 19.739 16.0108 19.7242L16.0104 19.724L14.6375 18.9725L14.5174 18.9068L14.3974 18.9725L13.0245 19.724L13.0167 19.7282L13.0093 19.733C12.9952 19.7421 12.9722 19.75 12.9406 19.75ZM16.138 19.7451L16.1394 19.7444C16.1389 19.7446 16.1382 19.745 16.138 19.7451Z" stroke="url(#paint18_linear_2009_8723)" stroke-width="0.5"/>
<path d="M14.5185 14.2283V17.1731L13.5757 15.9162L14.3134 14.3603C14.358 14.2747 14.44 14.2283 14.5185 14.2283Z" fill="url(#paint19_linear_2009_8723)" fill-opacity="0.38"/>
<path d="M17.2949 16.3328L14.5215 17.1732L15.464 15.9163L17.1103 16.1654C17.2027 16.1831 17.2675 16.2507 17.2949 16.3328Z" fill="url(#paint20_linear_2009_8723)"/>
<path d="M16.2327 19.7258L14.5183 17.1726L16.0416 17.7815L16.3216 19.4908C16.3418 19.5906 16.3008 19.6759 16.2327 19.7258Z" fill="url(#paint21_linear_2009_8723)"/>
<path d="M14.5179 17.1726V18.9352L13.0458 19.7434C12.9604 19.7896 12.8716 19.7754 12.8032 19.7258L14.5179 17.1726Z" fill="url(#paint22_linear_2009_8723)"/>
<path d="M15.4611 15.9162L14.5183 17.1731V14.2283C14.5798 14.2283 14.6414 14.2531 14.6856 14.303C14.6925 14.3101 14.6993 14.3206 14.7062 14.3315C14.713 14.3423 14.7198 14.3528 14.7231 14.3634L15.4611 15.9162Z" fill="url(#paint23_linear_2009_8723)" fill-opacity="0.6"/>
<path d="M17.2883 16.4926C17.2814 16.5069 17.2746 16.5211 17.2678 16.5354C17.2574 16.5496 17.2472 16.5602 17.2371 16.5744L16.0453 17.7851L14.522 17.1762L17.2954 16.3358C17.2954 16.3392 17.2987 16.3429 17.2987 16.3466C17.2987 16.3504 17.3022 16.3538 17.3022 16.3609C17.3022 16.3646 17.3022 16.3646 17.3022 16.3646C17.3022 16.368 17.3022 16.3717 17.3022 16.3752C17.3022 16.3823 17.3022 16.386 17.3022 16.3928C17.3055 16.4248 17.3019 16.4604 17.2883 16.4926Z" fill="url(#paint24_linear_2009_8723)"/>
<path d="M16.233 19.7258C16.216 19.74 16.1955 19.7506 16.1715 19.7577C16.1682 19.7577 16.1682 19.7577 16.1646 19.7611C16.1099 19.7788 16.0484 19.7754 15.9905 19.7434L14.5183 18.9352V17.1726L16.233 19.7258Z" fill="url(#paint25_linear_2009_8723)"/>
<path d="M14.5181 17.1726L12.8037 19.7258C12.8004 19.722 12.7968 19.7186 12.7936 19.7149C12.7903 19.7115 12.7867 19.7078 12.7832 19.7041C12.7799 19.7007 12.7763 19.697 12.7695 19.6898C12.7659 19.6864 12.7627 19.6827 12.7591 19.679C12.7556 19.6753 12.7558 19.6756 12.7558 19.6719C12.7525 19.6684 12.749 19.6647 12.749 19.661C12.7422 19.6505 12.7353 19.6397 12.732 19.6291C12.7288 19.6257 12.7288 19.6183 12.7252 19.6114C12.7219 19.6043 12.7219 19.6006 12.7184 19.5938C12.7151 19.5866 12.7151 19.5761 12.7151 19.569C12.7151 19.5655 12.7151 19.5581 12.7151 19.5547C12.7151 19.5476 12.7151 19.5405 12.7151 19.5333C12.7151 19.5191 12.7151 19.5048 12.7184 19.4906L12.9984 17.7812L14.5181 17.1726Z" fill="url(#paint26_linear_2009_8723)"/>
<path d="M14.5183 17.1724L11.7449 16.332C11.7449 16.3286 11.7482 16.3249 11.7482 16.3212C11.7514 16.3141 11.7514 16.3069 11.755 16.3035C11.7618 16.2893 11.7687 16.2787 11.7755 16.2679C11.7788 16.2608 11.7823 16.257 11.7892 16.2502C11.7927 16.2468 11.796 16.2394 11.8028 16.2359C11.8061 16.2325 11.8132 16.2254 11.8165 16.2217C11.8198 16.218 11.8266 16.2146 11.8302 16.2109C11.837 16.2074 11.8439 16.2 11.8507 16.1966C11.854 16.1932 11.8608 16.1895 11.8676 16.1895C11.878 16.1861 11.8846 16.1824 11.895 16.1786C11.8983 16.1786 11.9018 16.1752 11.9087 16.1752C11.9155 16.1718 11.9256 16.1718 11.936 16.1681L13.5823 15.9189L14.5183 17.1724Z" fill="url(#paint27_linear_2009_8723)"/>
<path d="M14.518 17.1727L12.9983 17.785L11.8064 16.5743C11.7927 16.5635 11.7859 16.5495 11.7758 16.5353C11.7689 16.521 11.7588 16.5067 11.7553 16.4925C11.752 16.4854 11.7484 16.4782 11.7484 16.4711C11.7416 16.4497 11.738 16.4249 11.738 16.4035C11.738 16.3964 11.738 16.3893 11.738 16.3822C11.738 16.3716 11.738 16.3645 11.7416 16.3537C11.7416 16.3502 11.7449 16.3465 11.7449 16.3394C11.7449 16.336 11.7482 16.3323 11.7482 16.3289L14.518 17.1727Z" fill="url(#paint28_linear_2009_8723)"/>
</g>
<g opacity="0.4">
<path d="M23.5239 27.6838C25.6189 26.4654 27.1033 25.6021 27.9771 25.0939Z" fill="url(#paint29_linear_2009_8723)"/>
<path d="M23.5239 27.6838C25.6189 26.4654 27.1033 25.6021 27.9771 25.0939" stroke="white" stroke-opacity="0.62" stroke-width="0.711111" stroke-linecap="round"/>
</g>
</g>
<defs>
<filter id="filter0_d_2009_8723" x="4.52393" y="7.18628" width="28" height="29.6274" filterUnits="userSpaceOnUse" color-interpolation-filters="sRGB">
<feFlood flood-opacity="0" result="BackgroundImageFix"/>
<feColorMatrix in="SourceAlpha" type="matrix" values="0 0 0 0 0 0 0 0 0 0 0 0 0 0 0 0 0 0 127 0" result="hardAlpha"/>
<feOffset dy="4"/>
<feGaussianBlur stdDeviation="2"/>
<feComposite in2="hardAlpha" operator="out"/>
<feColorMatrix type="matrix" values="0 0 0 0 0.512291 0 0 0 0 0.286279 0 0 0 0 1 0 0 0 0.17 0"/>
<feBlend mode="normal" in2="BackgroundImageFix" result="effect1_dropShadow_2009_8723"/>
<feBlend mode="normal" in="SourceGraphic" in2="effect1_dropShadow_2009_8723" result="shape"/>
</filter>
<filter id="filter1_d_2009_8723" x="7.14893" y="6.49878" width="22.75" height="24.3774" filterUnits="userSpaceOnUse" color-interpolation-filters="sRGB">
<feFlood flood-opacity="0" result="BackgroundImageFix"/>
<feColorMatrix in="SourceAlpha" type="matrix" values="0 0 0 0 0 0 0 0 0 0 0 0 0 0 0 0 0 0 127 0" result="hardAlpha"/>
<feOffset dy="0.6875"/>
<feGaussianBlur stdDeviation="0.6875"/>
<feColorMatrix type="matrix" values="0 0 0 0 0.287239 0 0 0 0 0.155102 0 0 0 0 0.511019 0 0 0 1 0"/>
<feBlend mode="normal" in2="BackgroundImageFix" result="effect1_dropShadow_2009_8723"/>
<feBlend mode="normal" in="SourceGraphic" in2="effect1_dropShadow_2009_8723" result="shape"/>
</filter>
<filter id="filter2_d_2009_8723" x="17.5239" y="13" width="10" height="10" filterUnits="userSpaceOnUse" color-interpolation-filters="sRGB">
<feFlood flood-opacity="0" result="BackgroundImageFix"/>
<feColorMatrix in="SourceAlpha" type="matrix" values="0 0 0 0 0 0 0 0 0 0 0 0 0 0 0 0 0 0 127 0" result="hardAlpha"/>
<feOffset dy="1"/>
<feGaussianBlur stdDeviation="1"/>
<feComposite in2="hardAlpha" operator="out"/>
<feColorMatrix type="matrix" values="0 0 0 0 1 0 0 0 0 1 0 0 0 0 1 0 0 0 0.5 0"/>
<feBlend mode="normal" in2="BackgroundImageFix" result="effect1_dropShadow_2009_8723"/>
<feBlend mode="normal" in="SourceGraphic" in2="effect1_dropShadow_2009_8723" result="shape"/>
</filter>
<filter id="filter3_d_2009_8723" x="9.52393" y="13" width="10" height="10" filterUnits="userSpaceOnUse" color-interpolation-filters="sRGB">
<feFlood flood-opacity="0" result="BackgroundImageFix"/>
<feColorMatrix in="SourceAlpha" type="matrix" values="0 0 0 0 0 0 0 0 0 0 0 0 0 0 0 0 0 0 127 0" result="hardAlpha"/>
<feOffset dy="1"/>
<feGaussianBlur stdDeviation="1"/>
<feComposite in2="hardAlpha" operator="out"/>
<feColorMatrix type="matrix" values="0 0 0 0 1 0 0 0 0 1 0 0 0 0 1 0 0 0 0.5 0"/>
<feBlend mode="normal" in2="BackgroundImageFix" result="effect1_dropShadow_2009_8723"/>
<feBlend mode="normal" in="SourceGraphic" in2="effect1_dropShadow_2009_8723" result="shape"/>
</filter>
<linearGradient id="paint0_linear_2009_8723" x1="21.5813" y1="26.7939" x2="21.5239" y2="29.4777" gradientUnits="userSpaceOnUse">
<stop offset="0.2" stop-color="#856DB9"/>
<stop offset="0.82" stop-color="#46247C"/>
</linearGradient>
<linearGradient id="paint1_linear_2009_8723" x1="2.07456" y1="5" x2="2.07456" y2="37" gradientUnits="userSpaceOnUse">
<stop stop-color="#B28EFF"/>
<stop offset="0.48" stop-color="#8F6DD6"/>
</linearGradient>
<linearGradient id="paint2_linear_2009_8723" x1="5.52393" y1="4" x2="5.52393" y2="31.7032" gradientUnits="userSpaceOnUse">
<stop offset="0.06" stop-color="#A143FF"/>
<stop offset="0.46" stop-color="#8548F1"/>
<stop offset="0.73" stop-color="#6F3DC6"/>
</linearGradient>
<linearGradient id="paint3_linear_2009_8723" x1="14.5239" y1="5.33398" x2="14.5239" y2="6.96787" gradientUnits="userSpaceOnUse">
<stop offset="0.2" stop-color="#856DB9"/>
<stop offset="0.82" stop-color="#46247C"/>
</linearGradient>
<linearGradient id="paint4_linear_2009_8723" x1="7.05017" y1="7" x2="7.05017" y2="28.5111" gradientUnits="userSpaceOnUse">
<stop offset="0.205" stop-color="#9747FF"/>
<stop offset="0.64" stop-color="#7734CA"/>
</linearGradient>
<linearGradient id="paint5_linear_2009_8723" x1="21.0239" y1="14" x2="23.8096" y2="19.7857" gradientUnits="userSpaceOnUse">
<stop stop-color="#E1E1E1" stop-opacity="0.33"/>
<stop offset="0.195" stop-color="#D1D0D0" stop-opacity="0.32"/>
<stop offset="0.76" stop-color="#D6D5D5" stop-opacity="0.58"/>
<stop offset="1" stop-color="#DBDBDB" stop-opacity="0.31"/>
</linearGradient>
<linearGradient id="paint6_linear_2009_8723" x1="21.0239" y1="14" x2="23.8096" y2="19.7857" gradientUnits="userSpaceOnUse">
<stop stop-color="#D8D8D8"/>
<stop offset="0.195" stop-color="#D1D0D0" stop-opacity="0.32"/>
<stop offset="0.76" stop-color="#D6D5D5" stop-opacity="0.58"/>
<stop offset="1" stop-color="#DBDBDB" stop-opacity="0.31"/>
</linearGradient>
<linearGradient id="paint7_linear_2009_8723" x1="22.0471" y1="14.2283" x2="22.5241" y2="17.2144" gradientUnits="userSpaceOnUse">
<stop stop-color="white" stop-opacity="0.54"/>
<stop offset="1" stop-color="#696969" stop-opacity="0.71"/>
</linearGradient>
<linearGradient id="paint8_linear_2009_8723" x1="25.1776" y1="15.9163" x2="22.6388" y2="17.1732" gradientUnits="userSpaceOnUse">
<stop stop-color="#ECE5E7" stop-opacity="0.14"/>
<stop offset="1" stop-color="#868283" stop-opacity="0.46"/>
</linearGradient>
<linearGradient id="paint9_linear_2009_8723" x1="23.1667" y1="17.4285" x2="24.2432" y2="19.7258" gradientUnits="userSpaceOnUse">
<stop stop-color="#E1DCE2" stop-opacity="0.55"/>
<stop offset="1" stop-color="#B0B0B0" stop-opacity="0.5"/>
</linearGradient>
<linearGradient id="paint10_linear_2009_8723" x1="22.3095" y1="17.2143" x2="21.6666" y2="19.5714" gradientUnits="userSpaceOnUse">
<stop stop-color="#E7E6E7" stop-opacity="0.56"/>
<stop offset="1" stop-color="#CBC5CB" stop-opacity="0.79"/>
</linearGradient>
<linearGradient id="paint11_linear_2009_8723" x1="23.1668" y1="14.2144" x2="22.524" y2="17.2144" gradientUnits="userSpaceOnUse">
<stop offset="0.0246486" stop-color="#FAECDB" stop-opacity="0.49"/>
<stop offset="1" stop-color="#948C82" stop-opacity="0.38"/>
</linearGradient>
<linearGradient id="paint12_linear_2009_8723" x1="25.3098" y1="16.7857" x2="22.9526" y2="17.2143" gradientUnits="userSpaceOnUse">
<stop stop-color="#DAD3D9" stop-opacity="0.64"/>
<stop offset="1" stop-color="#B4B1B3" stop-opacity="0.45"/>
</linearGradient>
<linearGradient id="paint13_linear_2009_8723" x1="22.524" y1="17.2143" x2="23.8097" y2="19.7857" gradientUnits="userSpaceOnUse">
<stop stop-color="#D5CFD6" stop-opacity="0.64"/>
<stop offset="1" stop-color="#A9A2AA" stop-opacity="0.43"/>
</linearGradient>
<linearGradient id="paint14_linear_2009_8723" x1="22.2367" y1="17.1726" x2="20.5953" y2="19.5714" gradientUnits="userSpaceOnUse">
<stop stop-color="#D5D1D7" stop-opacity="0.92"/>
<stop offset="1" stop-color="#A5A0A8" stop-opacity="0.34"/>
</linearGradient>
<linearGradient id="paint15_linear_2009_8723" x1="20.5954" y1="15.9286" x2="22.3097" y2="17" gradientUnits="userSpaceOnUse">
<stop stop-color="#D6D1D8" stop-opacity="0.44"/>
<stop offset="1" stop-color="#ABA5AD" stop-opacity="0.24"/>
</linearGradient>
<linearGradient id="paint16_linear_2009_8723" x1="19.7663" y1="16.8609" x2="22.4897" y2="17.6005" gradientUnits="userSpaceOnUse">
<stop stop-color="#C3BFC5" stop-opacity="0.55"/>
<stop offset="1" stop-color="#E1E1E1" stop-opacity="0.45"/>
</linearGradient>
<linearGradient id="paint17_linear_2009_8723" x1="13.0239" y1="14" x2="15.8096" y2="19.7857" gradientUnits="userSpaceOnUse">
<stop stop-color="#E1E1E1" stop-opacity="0.33"/>
<stop offset="0.195" stop-color="#D1D0D0" stop-opacity="0.32"/>
<stop offset="0.76" stop-color="#D6D5D5" stop-opacity="0.58"/>
<stop offset="1" stop-color="#DBDBDB" stop-opacity="0.31"/>
</linearGradient>
<linearGradient id="paint18_linear_2009_8723" x1="13.0239" y1="14" x2="15.8096" y2="19.7857" gradientUnits="userSpaceOnUse">
<stop stop-color="#D8D8D8"/>
<stop offset="0.195" stop-color="#D1D0D0" stop-opacity="0.32"/>
<stop offset="0.76" stop-color="#D6D5D5" stop-opacity="0.58"/>
<stop offset="1" stop-color="#DBDBDB" stop-opacity="0.31"/>
</linearGradient>
<linearGradient id="paint19_linear_2009_8723" x1="14.0471" y1="14.2283" x2="14.5241" y2="17.2144" gradientUnits="userSpaceOnUse">
<stop stop-color="white" stop-opacity="0.54"/>
<stop offset="1" stop-color="#696969" stop-opacity="0.71"/>
</linearGradient>
<linearGradient id="paint20_linear_2009_8723" x1="17.1776" y1="15.9163" x2="14.6388" y2="17.1732" gradientUnits="userSpaceOnUse">
<stop stop-color="#ECE5E7" stop-opacity="0.14"/>
<stop offset="1" stop-color="#868283" stop-opacity="0.46"/>
</linearGradient>
<linearGradient id="paint21_linear_2009_8723" x1="15.1667" y1="17.4285" x2="16.2432" y2="19.7258" gradientUnits="userSpaceOnUse">
<stop stop-color="#E1DCE2" stop-opacity="0.55"/>
<stop offset="1" stop-color="#B0B0B0" stop-opacity="0.5"/>
</linearGradient>
<linearGradient id="paint22_linear_2009_8723" x1="14.3095" y1="17.2143" x2="13.6666" y2="19.5714" gradientUnits="userSpaceOnUse">
<stop stop-color="#E7E6E7" stop-opacity="0.56"/>
<stop offset="1" stop-color="#CBC5CB" stop-opacity="0.79"/>
</linearGradient>
<linearGradient id="paint23_linear_2009_8723" x1="15.1668" y1="14.2144" x2="14.524" y2="17.2144" gradientUnits="userSpaceOnUse">
<stop offset="0.0246486" stop-color="#FAECDB" stop-opacity="0.49"/>
<stop offset="1" stop-color="#948C82" stop-opacity="0.38"/>
</linearGradient>
<linearGradient id="paint24_linear_2009_8723" x1="17.3098" y1="16.7857" x2="14.9526" y2="17.2143" gradientUnits="userSpaceOnUse">
<stop stop-color="#DAD3D9" stop-opacity="0.64"/>
<stop offset="1" stop-color="#B4B1B3" stop-opacity="0.45"/>
</linearGradient>
<linearGradient id="paint25_linear_2009_8723" x1="14.524" y1="17.2143" x2="15.8097" y2="19.7857" gradientUnits="userSpaceOnUse">
<stop stop-color="#D5CFD6" stop-opacity="0.64"/>
<stop offset="1" stop-color="#A9A2AA" stop-opacity="0.43"/>
</linearGradient>
<linearGradient id="paint26_linear_2009_8723" x1="14.2367" y1="17.1726" x2="12.5953" y2="19.5714" gradientUnits="userSpaceOnUse">
<stop stop-color="#D5D1D7" stop-opacity="0.92"/>
<stop offset="1" stop-color="#A5A0A8" stop-opacity="0.34"/>
</linearGradient>
<linearGradient id="paint27_linear_2009_8723" x1="12.5954" y1="15.9286" x2="14.3097" y2="17" gradientUnits="userSpaceOnUse">
<stop stop-color="#D6D1D8" stop-opacity="0.44"/>
<stop offset="1" stop-color="#ABA5AD" stop-opacity="0.24"/>
</linearGradient>
<linearGradient id="paint28_linear_2009_8723" x1="11.7663" y1="16.8609" x2="14.4897" y2="17.6005" gradientUnits="userSpaceOnUse">
<stop stop-color="#C3BFC5" stop-opacity="0.55"/>
<stop offset="1" stop-color="#E1E1E1" stop-opacity="0.45"/>
</linearGradient>
<linearGradient id="paint29_linear_2009_8723" x1="23.5813" y1="25" x2="23.5239" y2="27.6838" gradientUnits="userSpaceOnUse">
<stop offset="0.2" stop-color="#856DB9"/>
<stop offset="0.82" stop-color="#46247C"/>
</linearGradient>
<clipPath id="clip0_2009_8723">
<rect width="36" height="36" fill="white" transform="translate(0.523926)"/>
</clipPath>
</defs>
</svg>
