<svg width="24" height="24" viewBox="0 0 24 24" fill="none" xmlns="http://www.w3.org/2000/svg">
<path fill-rule="evenodd" clip-rule="evenodd" d="M8.56507 8.53458C8.56507 6.69386 10.0573 5.20166 11.898 5.20166C13.7387 5.20166 15.2309 6.69386 15.2309 8.53458C15.2309 10.3753 13.7387 11.8675 11.898 11.8675C10.0573 11.8675 8.56507 10.3753 8.56507 8.53458ZM11.898 3.70166C9.22884 3.70166 7.06507 5.86543 7.06507 8.53458C7.06507 10.2756 7.9857 11.8016 9.36669 12.6524C6.59141 13.7128 4.62036 16.4004 4.62036 19.5484C4.62036 19.9626 4.95615 20.2984 5.37036 20.2984C5.78457 20.2984 6.12036 19.9626 6.12036 19.5484C6.12036 16.3011 8.75279 13.6687 12 13.6687C15.2473 13.6687 17.8797 16.3011 17.8797 19.5484C17.8797 19.9626 18.2155 20.2984 18.6297 20.2984C19.0439 20.2984 19.3797 19.9626 19.3797 19.5484C19.3797 16.3521 17.3477 13.6304 14.5051 12.6047C15.8439 11.7454 16.7309 10.2436 16.7309 8.53458C16.7309 5.86543 14.5671 3.70166 11.898 3.70166Z" fill="white"/>
</svg>
