<svg width="24" height="24" viewBox="0 0 24 24" fill="none" xmlns="http://www.w3.org/2000/svg">
<path fill-rule="evenodd" clip-rule="evenodd" d="M8.56507 8.5347C8.56507 6.69398 10.0573 5.20178 11.898 5.20178C13.7387 5.20178 15.2309 6.69398 15.2309 8.5347C15.2309 10.3754 13.7387 11.8676 11.898 11.8676C10.0573 11.8676 8.56507 10.3754 8.56507 8.5347ZM11.898 3.70178C9.22884 3.70178 7.06507 5.86555 7.06507 8.5347C7.06507 10.2757 7.9857 11.8018 9.36669 12.6525C6.59141 13.7129 4.62036 16.4005 4.62036 19.5485C4.62036 19.9627 4.95615 20.2985 5.37036 20.2985C5.78457 20.2985 6.12036 19.9627 6.12036 19.5485C6.12036 16.3012 8.75279 13.6688 12 13.6688C15.2473 13.6688 17.8797 16.3012 17.8797 19.5485C17.8797 19.9627 18.2155 20.2985 18.6297 20.2985C19.0439 20.2985 19.3797 19.9627 19.3797 19.5485C19.3797 16.3522 17.3477 13.6305 14.5051 12.6048C15.8439 11.7455 16.7309 10.2437 16.7309 8.5347C16.7309 5.86555 14.5671 3.70178 11.898 3.70178Z" fill="#091120"/>
</svg>
