<svg width="16" height="16" viewBox="0 0 16 16" fill="none" xmlns="http://www.w3.org/2000/svg">
<rect width="16" height="16" rx="8" fill="#E5E7EB"/>
<path d="M7.72903 12.1142C5.94611 12.1142 4.67318 11.1432 4.63238 9.73158H6.15011C6.18683 10.4088 6.85593 10.8495 7.72495 10.8495C8.647 10.8495 9.31203 10.3436 9.30795 9.6051C9.31203 8.85032 8.66332 8.31177 7.57399 8.31177H6.83145V7.15308H7.57399C8.46341 7.15308 9.08355 6.65941 9.08355 5.92911C9.08355 5.22737 8.55317 4.7541 7.74535 4.7541C6.95385 4.7541 6.27658 5.19473 6.24802 5.89239H4.80782C4.84046 4.49299 6.11339 3.53013 7.75351 3.53013C9.44258 3.53013 10.5401 4.56642 10.5319 5.84343C10.5401 6.78589 9.91993 7.45907 9.00196 7.65083V7.71611C10.1851 7.87522 10.8542 8.63 10.8461 9.68262C10.8542 11.0902 9.53642 12.1142 7.72903 12.1142Z" fill="#363E4D"/>
</svg>
