<svg width="24" height="24" viewBox="0 0 24 24" fill="none" xmlns="http://www.w3.org/2000/svg">
<path d="M10.997 18C10.7209 18 10.497 17.7761 10.497 17.5V13.503H6.5C6.22386 13.503 6 13.2791 6 13.003V10.997C6 10.7209 6.22386 10.497 6.5 10.497H10.497V6.5C10.497 6.22386 10.7209 6 10.997 6H13.003C13.2791 6 13.503 6.22386 13.503 6.5V10.497H17.5C17.7761 10.497 18 10.7209 18 10.997V13.003C18 13.2791 17.7761 13.503 17.5 13.503H13.503V17.5C13.503 17.7761 13.2791 18 13.003 18H10.997Z" fill="#A7AFBF"/>
</svg>
