<svg width="101" height="101" viewBox="0 0 101 101" fill="none" xmlns="http://www.w3.org/2000/svg">
<g clip-path="url(#clip0_1890_53567)">
<rect x="0.523926" y="0.5" width="100" height="100" rx="50" fill="#E5E7EB"/>
<path d="M50.524 60.6683C54.1806 60.6683 57.755 59.584 60.7954 57.5525C63.8357 55.521 66.2053 52.6336 67.6046 49.2554C69.0039 45.8772 69.3701 42.1598 68.6567 38.5735C67.9433 34.9872 66.1825 31.693 63.597 29.1074C61.0114 26.5218 57.7171 24.761 54.1308 24.0476C50.5445 23.3343 46.8272 23.7004 43.449 25.0997C40.0707 26.499 37.1833 28.8687 35.1518 31.909C33.1203 34.9493 32.036 38.5238 32.036 42.1804C32.036 47.0837 33.9839 51.7861 37.451 55.2533C40.9182 58.7205 45.6207 60.6683 50.524 60.6683ZM50.524 65.9467C39.0648 65.9467 13.1892 73.025 13.1892 87.0758L6.18921 107.64H94.8588L87.8588 87.0758C87.8588 73.025 61.9832 65.9467 50.524 65.9467Z" fill="#A7AFBF"/>
</g>
<defs>
<clipPath id="clip0_1890_53567">
<rect x="0.523926" y="0.5" width="100" height="100" rx="50" fill="white"/>
</clipPath>
</defs>
</svg>
