<svg width="24" height="24" viewBox="0 0 24 24" fill="none" xmlns="http://www.w3.org/2000/svg">
<g id="ic_plus_white_24">
<path id="+" d="M11.4939 18C11.2178 18 10.9939 17.7761 10.9939 17.5L10.994 13.006H6.5C6.22386 13.006 6 12.7822 6 12.506V11.5C6 11.2239 6.22386 11 6.5 11H10.994L10.9939 6.5C10.9939 6.22386 11.2178 6 11.4939 6H12.5C12.7761 6 13 6.22385 13 6.5L13 11H17.5C17.7761 11 18 11.2239 18 11.5V12.506C18 12.7822 17.7761 13.006 17.5 13.006H13L13 17.5C13 17.7761 12.7761 18 12.5 18H11.4939Z" fill="white"/>
</g>
</svg>
