<svg width="120" height="125" viewBox="0 0 120 125" fill="none" xmlns="http://www.w3.org/2000/svg">
<g filter="url(#filter0_dii_4824_3424)">
<rect x="24" y="114.914" width="90" height="70.3354" rx="10" transform="rotate(-90 24 114.914)" fill="#F6F3FF"/>
<rect x="24" y="114.914" width="90" height="70.3354" rx="10" transform="rotate(-90 24 114.914)" fill="url(#paint0_linear_4824_3424)" fill-opacity="0.2"/>
<rect x="25.5" y="113.414" width="87" height="67.3354" rx="8.5" transform="rotate(-90 25.5 113.414)" stroke="url(#paint1_linear_4824_3424)" stroke-width="3"/>
</g>
<mask id="path-3-inside-1_4824_3424" fill="white">
<path d="M55.676 26.4249C54.7043 28.3465 52.331 29.0431 50.9793 27.3049C50.3303 26.4702 49.7941 25.5311 49.393 24.5142C48.488 22.2193 48.324 19.6619 48.9276 17.2541C49.5312 14.8462 50.8672 12.7281 52.7203 11.2411C54.5734 9.75415 56.8357 8.98483 59.1426 9.05716C61.4495 9.12949 63.6668 10.0392 65.437 11.6398C67.2073 13.2404 68.4274 15.4387 68.9009 17.8803C69.3744 20.3219 69.0736 22.8647 68.047 25.099C67.5807 26.114 66.9769 27.0384 66.2613 27.8452C64.8552 29.4304 62.5003 28.5036 61.6095 26.47L60.9607 24.989C60.4811 23.8942 60.9911 22.6275 61.4763 21.5715C61.7698 20.9326 61.8558 20.2054 61.7205 19.5072C61.5851 18.809 61.2361 18.1804 60.7299 17.7227C60.2237 17.2649 59.5896 17.0048 58.9299 16.9841C58.2702 16.9634 57.6233 17.1834 57.0934 17.6086C56.5634 18.0339 56.1814 18.6396 56.0088 19.3281C55.8362 20.0167 55.883 20.748 56.1419 21.4043C56.5622 22.4701 57.0292 23.7491 56.528 24.7402L55.676 26.4249Z"/>
</mask>
<g filter="url(#filter1_i_4824_3424)">
<path d="M55.676 26.4249C54.7043 28.3465 52.331 29.0431 50.9793 27.3049C50.3303 26.4702 49.7941 25.5311 49.393 24.5142C48.488 22.2193 48.324 19.6619 48.9276 17.2541C49.5312 14.8462 50.8672 12.7281 52.7203 11.2411C54.5734 9.75415 56.8357 8.98483 59.1426 9.05716C61.4495 9.12949 63.6668 10.0392 65.437 11.6398C67.2073 13.2404 68.4274 15.4387 68.9009 17.8803C69.3744 20.3219 69.0736 22.8647 68.047 25.099C67.5807 26.114 66.9769 27.0384 66.2613 27.8452C64.8552 29.4304 62.5003 28.5036 61.6095 26.47L60.9607 24.989C60.4811 23.8942 60.9911 22.6275 61.4763 21.5715C61.7698 20.9326 61.8558 20.2054 61.7205 19.5072C61.5851 18.809 61.2361 18.1804 60.7299 17.7227C60.2237 17.2649 59.5896 17.0048 58.9299 16.9841C58.2702 16.9634 57.6233 17.1834 57.0934 17.6086C56.5634 18.0339 56.1814 18.6396 56.0088 19.3281C55.8362 20.0167 55.883 20.748 56.1419 21.4043C56.5622 22.4701 57.0292 23.7491 56.528 24.7402L55.676 26.4249Z" fill="white"/>
</g>
<path d="M55.676 26.4249C54.7043 28.3465 52.331 29.0431 50.9793 27.3049C50.3303 26.4702 49.7941 25.5311 49.393 24.5142C48.488 22.2193 48.324 19.6619 48.9276 17.2541C49.5312 14.8462 50.8672 12.7281 52.7203 11.2411C54.5734 9.75415 56.8357 8.98483 59.1426 9.05716C61.4495 9.12949 63.6668 10.0392 65.437 11.6398C67.2073 13.2404 68.4274 15.4387 68.9009 17.8803C69.3744 20.3219 69.0736 22.8647 68.047 25.099C67.5807 26.114 66.9769 27.0384 66.2613 27.8452C64.8552 29.4304 62.5003 28.5036 61.6095 26.47L60.9607 24.989C60.4811 23.8942 60.9911 22.6275 61.4763 21.5715C61.7698 20.9326 61.8558 20.2054 61.7205 19.5072C61.5851 18.809 61.2361 18.1804 60.7299 17.7227C60.2237 17.2649 59.5896 17.0048 58.9299 16.9841C58.2702 16.9634 57.6233 17.1834 57.0934 17.6086C56.5634 18.0339 56.1814 18.6396 56.0088 19.3281C55.8362 20.0167 55.883 20.748 56.1419 21.4043C56.5622 22.4701 57.0292 23.7491 56.528 24.7402L55.676 26.4249Z" stroke="url(#paint2_linear_4824_3424)" stroke-width="6" mask="url(#path-3-inside-1_4824_3424)"/>
<g filter="url(#filter2_i_4824_3424)">
<ellipse cx="58.8166" cy="20.397" rx="4.62563" ry="5" fill="white"/>
<ellipse cx="58.8166" cy="20.397" rx="4.62563" ry="5" fill="white"/>
</g>
<ellipse cx="58.8166" cy="20.397" rx="4.62563" ry="5" stroke="#8349FF" stroke-width="4"/>
<g filter="url(#filter3_ii_4824_3424)">
<rect x="33.6831" y="31.0005" width="9" height="51" rx="4.5" transform="rotate(-90 33.6831 31.0005)" fill="#8349FF"/>
</g>
<g filter="url(#filter4_ii_4824_3424)">
<rect x="35.3039" y="48.0005" width="4" height="48.8079" rx="2" transform="rotate(-90 35.3039 48.0005)" fill="#8349FF"/>
</g>
<g filter="url(#filter5_ii_4824_3424)">
<rect x="35.3039" y="57.0005" width="4" height="48.8079" rx="2" transform="rotate(-90 35.3039 57.0005)" fill="#8349FF"/>
</g>
<g filter="url(#filter6_ii_4824_3424)">
<rect x="35.3039" y="66.0005" width="4" height="48.8079" rx="2" transform="rotate(-90 35.3039 66.0005)" fill="#8349FF"/>
</g>
<g filter="url(#filter7_ii_4824_3424)">
<rect x="35.1611" y="76.5864" width="4" height="34.1655" rx="2" transform="rotate(-90 35.1611 76.5864)" fill="#8349FF"/>
</g>
<g filter="url(#filter8_ii_4824_3424)">
<rect x="35.6313" y="96.5005" width="4" height="20" rx="2" transform="rotate(-90 35.6313 96.5005)" fill="#8349FF"/>
</g>
<g filter="url(#filter9_ii_4824_3424)">
<path d="M100.085 54.345C101.887 52.5516 104.809 52.5517 106.611 54.345C108.413 56.1385 108.413 59.0466 106.611 60.8401L71.6059 95.678C70.7563 96.5235 69.658 96.9691 68.5453 97.0172C68.3614 97.0251 68.1898 97.1041 68.0258 97.1878L61.6244 100.453C60.7583 100.895 59.8321 99.9727 60.2758 99.1106L63.5551 92.7386C63.6423 92.5691 63.7247 92.3911 63.7342 92.2008C63.7891 91.1032 64.2372 90.0211 65.0795 89.1829L100.085 54.345Z" fill="#8349FF"/>
</g>
<defs>
<filter id="filter0_dii_4824_3424" x="18" y="21.245" width="82.3354" height="103.669" filterUnits="userSpaceOnUse" color-interpolation-filters="sRGB">
<feFlood flood-opacity="0" result="BackgroundImageFix"/>
<feColorMatrix in="SourceAlpha" type="matrix" values="0 0 0 0 0 0 0 0 0 0 0 0 0 0 0 0 0 0 127 0" result="hardAlpha"/>
<feOffset dy="4"/>
<feGaussianBlur stdDeviation="3"/>
<feComposite in2="hardAlpha" operator="out"/>
<feColorMatrix type="matrix" values="0 0 0 0 0.714332 0 0 0 0 0.64922 0 0 0 0 0.764123 0 0 0 0.25 0"/>
<feBlend mode="normal" in2="BackgroundImageFix" result="effect1_dropShadow_4824_3424"/>
<feBlend mode="normal" in="SourceGraphic" in2="effect1_dropShadow_4824_3424" result="shape"/>
<feColorMatrix in="SourceAlpha" type="matrix" values="0 0 0 0 0 0 0 0 0 0 0 0 0 0 0 0 0 0 127 0" result="hardAlpha"/>
<feOffset dx="-3.66862" dy="-3.66862"/>
<feGaussianBlur stdDeviation="1.83431"/>
<feComposite in2="hardAlpha" operator="arithmetic" k2="-1" k3="1"/>
<feColorMatrix type="matrix" values="0 0 0 0 0.421206 0 0 0 0 0.289902 0 0 0 0 0.895921 0 0 0 0.17 0"/>
<feBlend mode="normal" in2="shape" result="effect2_innerShadow_4824_3424"/>
<feColorMatrix in="SourceAlpha" type="matrix" values="0 0 0 0 0 0 0 0 0 0 0 0 0 0 0 0 0 0 127 0" result="hardAlpha"/>
<feOffset dx="1.83431" dy="1.83431"/>
<feGaussianBlur stdDeviation="3.875"/>
<feComposite in2="hardAlpha" operator="arithmetic" k2="-1" k3="1"/>
<feColorMatrix type="matrix" values="0 0 0 0 0.15444 0 0 0 0 0.0263014 0 0 0 0 0.37577 0 0 0 0.4 0"/>
<feBlend mode="normal" in2="effect2_innerShadow_4824_3424" result="effect3_innerShadow_4824_3424"/>
</filter>
<filter id="filter1_i_4824_3424" x="48.57" y="9.05249" width="22.3837" height="21.4285" filterUnits="userSpaceOnUse" color-interpolation-filters="sRGB">
<feFlood flood-opacity="0" result="BackgroundImageFix"/>
<feBlend mode="normal" in="SourceGraphic" in2="BackgroundImageFix" result="shape"/>
<feColorMatrix in="SourceAlpha" type="matrix" values="0 0 0 0 0 0 0 0 0 0 0 0 0 0 0 0 0 0 127 0" result="hardAlpha"/>
<feOffset dx="1.83431" dy="1.83431"/>
<feGaussianBlur stdDeviation="1.37573"/>
<feComposite in2="hardAlpha" operator="arithmetic" k2="-1" k3="1"/>
<feColorMatrix type="matrix" values="0 0 0 0 0.644444 0 0 0 0 0.957202 0 0 0 0 1 0 0 0 0.65 0"/>
<feBlend mode="normal" in2="shape" result="effect1_innerShadow_4824_3424"/>
</filter>
<filter id="filter2_i_4824_3424" x="52.1909" y="13.397" width="15.0856" height="15.8343" filterUnits="userSpaceOnUse" color-interpolation-filters="sRGB">
<feFlood flood-opacity="0" result="BackgroundImageFix"/>
<feBlend mode="normal" in="SourceGraphic" in2="BackgroundImageFix" result="shape"/>
<feColorMatrix in="SourceAlpha" type="matrix" values="0 0 0 0 0 0 0 0 0 0 0 0 0 0 0 0 0 0 127 0" result="hardAlpha"/>
<feOffset dx="1.83431" dy="1.83431"/>
<feGaussianBlur stdDeviation="1.37573"/>
<feComposite in2="hardAlpha" operator="arithmetic" k2="-1" k3="1"/>
<feColorMatrix type="matrix" values="0 0 0 0 0.644444 0 0 0 0 0.957202 0 0 0 0 1 0 0 0 0.65 0"/>
<feBlend mode="normal" in2="shape" result="effect1_innerShadow_4824_3424"/>
</filter>
<filter id="filter3_ii_4824_3424" x="31.6831" y="20.0005" width="55" height="13" filterUnits="userSpaceOnUse" color-interpolation-filters="sRGB">
<feFlood flood-opacity="0" result="BackgroundImageFix"/>
<feBlend mode="normal" in="SourceGraphic" in2="BackgroundImageFix" result="shape"/>
<feColorMatrix in="SourceAlpha" type="matrix" values="0 0 0 0 0 0 0 0 0 0 0 0 0 0 0 0 0 0 127 0" result="hardAlpha"/>
<feOffset dx="-2" dy="-2"/>
<feGaussianBlur stdDeviation="2"/>
<feComposite in2="hardAlpha" operator="arithmetic" k2="-1" k3="1"/>
<feColorMatrix type="matrix" values="0 0 0 0 0.333333 0 0 0 0 0.145098 0 0 0 0 0.576471 0 0 0 0.62 0"/>
<feBlend mode="normal" in2="shape" result="effect1_innerShadow_4824_3424"/>
<feColorMatrix in="SourceAlpha" type="matrix" values="0 0 0 0 0 0 0 0 0 0 0 0 0 0 0 0 0 0 127 0" result="hardAlpha"/>
<feOffset dx="2" dy="2"/>
<feGaussianBlur stdDeviation="2"/>
<feComposite in2="hardAlpha" operator="arithmetic" k2="-1" k3="1"/>
<feColorMatrix type="matrix" values="0 0 0 0 0.823529 0 0 0 0 0.643137 0 0 0 0 1 0 0 0 0.45 0"/>
<feBlend mode="normal" in2="effect1_innerShadow_4824_3424" result="effect2_innerShadow_4824_3424"/>
</filter>
<filter id="filter4_ii_4824_3424" x="34.1566" y="42.8532" width="50.5289" height="5.72097" filterUnits="userSpaceOnUse" color-interpolation-filters="sRGB">
<feFlood flood-opacity="0" result="BackgroundImageFix"/>
<feBlend mode="normal" in="SourceGraphic" in2="BackgroundImageFix" result="shape"/>
<feColorMatrix in="SourceAlpha" type="matrix" values="0 0 0 0 0 0 0 0 0 0 0 0 0 0 0 0 0 0 127 0" result="hardAlpha"/>
<feOffset dx="-1.14731" dy="-1.14731"/>
<feGaussianBlur stdDeviation="0.573656"/>
<feComposite in2="hardAlpha" operator="arithmetic" k2="-1" k3="1"/>
<feColorMatrix type="matrix" values="0 0 0 0 0.333333 0 0 0 0 0.145098 0 0 0 0 0.576471 0 0 0 0.17 0"/>
<feBlend mode="normal" in2="shape" result="effect1_innerShadow_4824_3424"/>
<feColorMatrix in="SourceAlpha" type="matrix" values="0 0 0 0 0 0 0 0 0 0 0 0 0 0 0 0 0 0 127 0" result="hardAlpha"/>
<feOffset dx="0.573656" dy="0.573656"/>
<feGaussianBlur stdDeviation="0.430242"/>
<feComposite in2="hardAlpha" operator="arithmetic" k2="-1" k3="1"/>
<feColorMatrix type="matrix" values="0 0 0 0 0.979145 0 0 0 0 0.99749 0 0 0 0 1 0 0 0 0.25 0"/>
<feBlend mode="normal" in2="effect1_innerShadow_4824_3424" result="effect2_innerShadow_4824_3424"/>
</filter>
<filter id="filter5_ii_4824_3424" x="34.1566" y="51.8532" width="50.5289" height="5.72097" filterUnits="userSpaceOnUse" color-interpolation-filters="sRGB">
<feFlood flood-opacity="0" result="BackgroundImageFix"/>
<feBlend mode="normal" in="SourceGraphic" in2="BackgroundImageFix" result="shape"/>
<feColorMatrix in="SourceAlpha" type="matrix" values="0 0 0 0 0 0 0 0 0 0 0 0 0 0 0 0 0 0 127 0" result="hardAlpha"/>
<feOffset dx="-1.14731" dy="-1.14731"/>
<feGaussianBlur stdDeviation="0.573656"/>
<feComposite in2="hardAlpha" operator="arithmetic" k2="-1" k3="1"/>
<feColorMatrix type="matrix" values="0 0 0 0 0.333333 0 0 0 0 0.145098 0 0 0 0 0.576471 0 0 0 0.17 0"/>
<feBlend mode="normal" in2="shape" result="effect1_innerShadow_4824_3424"/>
<feColorMatrix in="SourceAlpha" type="matrix" values="0 0 0 0 0 0 0 0 0 0 0 0 0 0 0 0 0 0 127 0" result="hardAlpha"/>
<feOffset dx="0.573656" dy="0.573656"/>
<feGaussianBlur stdDeviation="0.430242"/>
<feComposite in2="hardAlpha" operator="arithmetic" k2="-1" k3="1"/>
<feColorMatrix type="matrix" values="0 0 0 0 0.979145 0 0 0 0 0.99749 0 0 0 0 1 0 0 0 0.25 0"/>
<feBlend mode="normal" in2="effect1_innerShadow_4824_3424" result="effect2_innerShadow_4824_3424"/>
</filter>
<filter id="filter6_ii_4824_3424" x="34.1566" y="60.8532" width="50.5289" height="5.72097" filterUnits="userSpaceOnUse" color-interpolation-filters="sRGB">
<feFlood flood-opacity="0" result="BackgroundImageFix"/>
<feBlend mode="normal" in="SourceGraphic" in2="BackgroundImageFix" result="shape"/>
<feColorMatrix in="SourceAlpha" type="matrix" values="0 0 0 0 0 0 0 0 0 0 0 0 0 0 0 0 0 0 127 0" result="hardAlpha"/>
<feOffset dx="-1.14731" dy="-1.14731"/>
<feGaussianBlur stdDeviation="0.573656"/>
<feComposite in2="hardAlpha" operator="arithmetic" k2="-1" k3="1"/>
<feColorMatrix type="matrix" values="0 0 0 0 0.333333 0 0 0 0 0.145098 0 0 0 0 0.576471 0 0 0 0.17 0"/>
<feBlend mode="normal" in2="shape" result="effect1_innerShadow_4824_3424"/>
<feColorMatrix in="SourceAlpha" type="matrix" values="0 0 0 0 0 0 0 0 0 0 0 0 0 0 0 0 0 0 127 0" result="hardAlpha"/>
<feOffset dx="0.573656" dy="0.573656"/>
<feGaussianBlur stdDeviation="0.430242"/>
<feComposite in2="hardAlpha" operator="arithmetic" k2="-1" k3="1"/>
<feColorMatrix type="matrix" values="0 0 0 0 0.979145 0 0 0 0 0.99749 0 0 0 0 1 0 0 0 0.25 0"/>
<feBlend mode="normal" in2="effect1_innerShadow_4824_3424" result="effect2_innerShadow_4824_3424"/>
</filter>
<filter id="filter7_ii_4824_3424" x="34.0138" y="71.4391" width="35.8865" height="5.72097" filterUnits="userSpaceOnUse" color-interpolation-filters="sRGB">
<feFlood flood-opacity="0" result="BackgroundImageFix"/>
<feBlend mode="normal" in="SourceGraphic" in2="BackgroundImageFix" result="shape"/>
<feColorMatrix in="SourceAlpha" type="matrix" values="0 0 0 0 0 0 0 0 0 0 0 0 0 0 0 0 0 0 127 0" result="hardAlpha"/>
<feOffset dx="-1.14731" dy="-1.14731"/>
<feGaussianBlur stdDeviation="0.573656"/>
<feComposite in2="hardAlpha" operator="arithmetic" k2="-1" k3="1"/>
<feColorMatrix type="matrix" values="0 0 0 0 0.333333 0 0 0 0 0.145098 0 0 0 0 0.576471 0 0 0 0.17 0"/>
<feBlend mode="normal" in2="shape" result="effect1_innerShadow_4824_3424"/>
<feColorMatrix in="SourceAlpha" type="matrix" values="0 0 0 0 0 0 0 0 0 0 0 0 0 0 0 0 0 0 127 0" result="hardAlpha"/>
<feOffset dx="0.573656" dy="0.573656"/>
<feGaussianBlur stdDeviation="0.430242"/>
<feComposite in2="hardAlpha" operator="arithmetic" k2="-1" k3="1"/>
<feColorMatrix type="matrix" values="0 0 0 0 0.979145 0 0 0 0 0.99749 0 0 0 0 1 0 0 0 0.25 0"/>
<feBlend mode="normal" in2="effect1_innerShadow_4824_3424" result="effect2_innerShadow_4824_3424"/>
</filter>
<filter id="filter8_ii_4824_3424" x="34.484" y="91.3532" width="21.721" height="5.72097" filterUnits="userSpaceOnUse" color-interpolation-filters="sRGB">
<feFlood flood-opacity="0" result="BackgroundImageFix"/>
<feBlend mode="normal" in="SourceGraphic" in2="BackgroundImageFix" result="shape"/>
<feColorMatrix in="SourceAlpha" type="matrix" values="0 0 0 0 0 0 0 0 0 0 0 0 0 0 0 0 0 0 127 0" result="hardAlpha"/>
<feOffset dx="-1.14731" dy="-1.14731"/>
<feGaussianBlur stdDeviation="0.573656"/>
<feComposite in2="hardAlpha" operator="arithmetic" k2="-1" k3="1"/>
<feColorMatrix type="matrix" values="0 0 0 0 0.333333 0 0 0 0 0.145098 0 0 0 0 0.576471 0 0 0 0.17 0"/>
<feBlend mode="normal" in2="shape" result="effect1_innerShadow_4824_3424"/>
<feColorMatrix in="SourceAlpha" type="matrix" values="0 0 0 0 0 0 0 0 0 0 0 0 0 0 0 0 0 0 127 0" result="hardAlpha"/>
<feOffset dx="0.573656" dy="0.573656"/>
<feGaussianBlur stdDeviation="0.430242"/>
<feComposite in2="hardAlpha" operator="arithmetic" k2="-1" k3="1"/>
<feColorMatrix type="matrix" values="0 0 0 0 0.979145 0 0 0 0 0.99749 0 0 0 0 1 0 0 0 0.25 0"/>
<feBlend mode="normal" in2="effect1_innerShadow_4824_3424" result="effect2_innerShadow_4824_3424"/>
</filter>
<filter id="filter9_ii_4824_3424" x="58.161" y="51" width="51.8013" height="51.5676" filterUnits="userSpaceOnUse" color-interpolation-filters="sRGB">
<feFlood flood-opacity="0" result="BackgroundImageFix"/>
<feBlend mode="normal" in="SourceGraphic" in2="BackgroundImageFix" result="shape"/>
<feColorMatrix in="SourceAlpha" type="matrix" values="0 0 0 0 0 0 0 0 0 0 0 0 0 0 0 0 0 0 127 0" result="hardAlpha"/>
<feOffset dx="-2" dy="-2"/>
<feGaussianBlur stdDeviation="2"/>
<feComposite in2="hardAlpha" operator="arithmetic" k2="-1" k3="1"/>
<feColorMatrix type="matrix" values="0 0 0 0 0.333333 0 0 0 0 0.145098 0 0 0 0 0.576471 0 0 0 0.82 0"/>
<feBlend mode="normal" in2="shape" result="effect1_innerShadow_4824_3424"/>
<feColorMatrix in="SourceAlpha" type="matrix" values="0 0 0 0 0 0 0 0 0 0 0 0 0 0 0 0 0 0 127 0" result="hardAlpha"/>
<feOffset dx="2" dy="2"/>
<feGaussianBlur stdDeviation="2"/>
<feComposite in2="hardAlpha" operator="arithmetic" k2="-1" k3="1"/>
<feColorMatrix type="matrix" values="0 0 0 0 0.823529 0 0 0 0 0.643137 0 0 0 0 1 0 0 0 0.65 0"/>
<feBlend mode="normal" in2="effect1_innerShadow_4824_3424" result="effect2_innerShadow_4824_3424"/>
</filter>
<linearGradient id="paint0_linear_4824_3424" x1="107.913" y1="120.597" x2="27.9131" y2="179.097" gradientUnits="userSpaceOnUse">
<stop stop-color="#6A36C3" stop-opacity="0.2"/>
<stop offset="0.533654" stop-color="#8349FF"/>
<stop offset="0.942308" stop-color="#8349FF"/>
</linearGradient>
<linearGradient id="paint1_linear_4824_3424" x1="114" y1="150.081" x2="24" y2="150.081" gradientUnits="userSpaceOnUse">
<stop stop-color="#6318DA"/>
<stop offset="1" stop-color="#925EFF"/>
</linearGradient>
<linearGradient id="paint2_linear_4824_3424" x1="63.7728" y1="10.4134" x2="66.6267" y2="26.1871" gradientUnits="userSpaceOnUse">
<stop stop-color="#8155E0"/>
<stop offset="1" stop-color="#8C5FEE"/>
</linearGradient>
</defs>
</svg>
