<svg width="96" height="96" viewBox="0 0 96 96" fill="none" xmlns="http://www.w3.org/2000/svg">
<g clip-path="url(#clip0_6616_7721)">
<rect width="96" height="96" rx="48" fill="#E5E7EB"/>
<path d="M47.9999 57.7615C51.5102 57.7615 54.9417 56.7206 57.8604 54.7704C60.7791 52.8202 63.0539 50.0482 64.3973 46.8051C65.7406 43.562 66.0921 39.9934 65.4073 36.5506C64.7224 33.1077 63.0321 29.9452 60.5499 27.4631C58.0677 24.9809 54.9053 23.2905 51.4624 22.6057C48.0196 21.9209 44.4509 22.2723 41.2078 23.6157C37.9647 24.959 35.1928 27.2339 33.2426 30.1526C31.2924 33.0713 30.2514 36.5028 30.2514 40.0131C30.2514 44.7203 32.1213 49.2347 35.4498 52.5631C38.7783 55.8916 43.2927 57.7615 47.9999 57.7615ZM47.9999 62.8288C36.999 62.8288 12.1585 69.6239 12.1585 83.1128L5.43848 102.855H90.5613L83.8413 83.1128C83.8413 69.6239 59.0007 62.8288 47.9999 62.8288Z" fill="#A7AFBF"/>
</g>
<defs>
<clipPath id="clip0_6616_7721">
<rect width="96" height="96" rx="48" fill="white"/>
</clipPath>
</defs>
</svg>
