<svg width="121" height="125" viewBox="0 0 121 125" fill="none" xmlns="http://www.w3.org/2000/svg">
<g opacity="0.8">
<g filter="url(#filter0_dii_4825_3708)">
<rect x="24.5" y="114.914" width="90" height="70.3354" rx="10" transform="rotate(-90 24.5 114.914)" fill="#F6F3FF"/>
<rect x="24.5" y="114.914" width="90" height="70.3354" rx="10" transform="rotate(-90 24.5 114.914)" fill="url(#paint0_linear_4825_3708)" fill-opacity="0.2"/>
<rect x="26" y="113.414" width="87" height="67.3354" rx="8.5" transform="rotate(-90 26 113.414)" stroke="url(#paint1_linear_4825_3708)" stroke-width="3"/>
</g>
<mask id="path-3-inside-1_4825_3708" fill="white">
<path d="M56.176 26.4249C55.2043 28.3465 52.831 29.0431 51.4793 27.3049C50.8303 26.4702 50.2941 25.5311 49.893 24.5142C48.988 22.2193 48.824 19.6619 49.4276 17.2541C50.0312 14.8462 51.3672 12.7281 53.2203 11.2411C55.0734 9.75415 57.3357 8.98483 59.6426 9.05716C61.9495 9.12949 64.1668 10.0392 65.937 11.6398C67.7073 13.2404 68.9274 15.4387 69.4009 17.8803C69.8744 20.3219 69.5736 22.8647 68.547 25.099C68.0807 26.114 67.4769 27.0384 66.7613 27.8452C65.3552 29.4304 63.0003 28.5036 62.1095 26.47L61.4607 24.989C60.9811 23.8942 61.4911 22.6275 61.9763 21.5715C62.2698 20.9326 62.3558 20.2054 62.2205 19.5072C62.0851 18.809 61.7361 18.1804 61.2299 17.7227C60.7237 17.2649 60.0896 17.0048 59.4299 16.9841C58.7702 16.9634 58.1233 17.1834 57.5934 17.6086C57.0634 18.0339 56.6814 18.6396 56.5088 19.3281C56.3362 20.0167 56.383 20.748 56.6419 21.4043C57.0622 22.4701 57.5292 23.7491 57.028 24.7402L56.176 26.4249Z"/>
</mask>
<g filter="url(#filter1_i_4825_3708)">
<path d="M56.176 26.4249C55.2043 28.3465 52.831 29.0431 51.4793 27.3049C50.8303 26.4702 50.2941 25.5311 49.893 24.5142C48.988 22.2193 48.824 19.6619 49.4276 17.2541C50.0312 14.8462 51.3672 12.7281 53.2203 11.2411C55.0734 9.75415 57.3357 8.98483 59.6426 9.05716C61.9495 9.12949 64.1668 10.0392 65.937 11.6398C67.7073 13.2404 68.9274 15.4387 69.4009 17.8803C69.8744 20.3219 69.5736 22.8647 68.547 25.099C68.0807 26.114 67.4769 27.0384 66.7613 27.8452C65.3552 29.4304 63.0003 28.5036 62.1095 26.47L61.4607 24.989C60.9811 23.8942 61.4911 22.6275 61.9763 21.5715C62.2698 20.9326 62.3558 20.2054 62.2205 19.5072C62.0851 18.809 61.7361 18.1804 61.2299 17.7227C60.7237 17.2649 60.0896 17.0048 59.4299 16.9841C58.7702 16.9634 58.1233 17.1834 57.5934 17.6086C57.0634 18.0339 56.6814 18.6396 56.5088 19.3281C56.3362 20.0167 56.383 20.748 56.6419 21.4043C57.0622 22.4701 57.5292 23.7491 57.028 24.7402L56.176 26.4249Z" fill="white"/>
</g>
<path d="M56.176 26.4249C55.2043 28.3465 52.831 29.0431 51.4793 27.3049C50.8303 26.4702 50.2941 25.5311 49.893 24.5142C48.988 22.2193 48.824 19.6619 49.4276 17.2541C50.0312 14.8462 51.3672 12.7281 53.2203 11.2411C55.0734 9.75415 57.3357 8.98483 59.6426 9.05716C61.9495 9.12949 64.1668 10.0392 65.937 11.6398C67.7073 13.2404 68.9274 15.4387 69.4009 17.8803C69.8744 20.3219 69.5736 22.8647 68.547 25.099C68.0807 26.114 67.4769 27.0384 66.7613 27.8452C65.3552 29.4304 63.0003 28.5036 62.1095 26.47L61.4607 24.989C60.9811 23.8942 61.4911 22.6275 61.9763 21.5715C62.2698 20.9326 62.3558 20.2054 62.2205 19.5072C62.0851 18.809 61.7361 18.1804 61.2299 17.7227C60.7237 17.2649 60.0896 17.0048 59.4299 16.9841C58.7702 16.9634 58.1233 17.1834 57.5934 17.6086C57.0634 18.0339 56.6814 18.6396 56.5088 19.3281C56.3362 20.0167 56.383 20.748 56.6419 21.4043C57.0622 22.4701 57.5292 23.7491 57.028 24.7402L56.176 26.4249Z" stroke="url(#paint2_linear_4825_3708)" stroke-width="6" mask="url(#path-3-inside-1_4825_3708)"/>
<g filter="url(#filter2_i_4825_3708)">
<ellipse cx="59.3166" cy="20.397" rx="4.62563" ry="5" fill="white"/>
<ellipse cx="59.3166" cy="20.397" rx="4.62563" ry="5" fill="white"/>
</g>
<ellipse cx="59.3166" cy="20.397" rx="4.62563" ry="5" stroke="#8349FF" stroke-width="4"/>
<g filter="url(#filter3_ii_4825_3708)">
<rect x="34.1831" y="31.0005" width="9" height="51" rx="4.5" transform="rotate(-90 34.1831 31.0005)" fill="#8349FF"/>
</g>
<g filter="url(#filter4_ii_4825_3708)">
<rect x="35.8037" y="48.0005" width="4" height="48.8079" rx="2" transform="rotate(-90 35.8037 48.0005)" fill="#8349FF"/>
</g>
<g filter="url(#filter5_ii_4825_3708)">
<rect x="35.8037" y="57.0005" width="4" height="48.8079" rx="2" transform="rotate(-90 35.8037 57.0005)" fill="#8349FF"/>
</g>
<g filter="url(#filter6_ii_4825_3708)">
<rect x="35.8037" y="66.0005" width="4" height="48.8079" rx="2" transform="rotate(-90 35.8037 66.0005)" fill="#8349FF"/>
</g>
<g filter="url(#filter7_ii_4825_3708)">
<rect x="35.6611" y="76.5864" width="4" height="34.1655" rx="2" transform="rotate(-90 35.6611 76.5864)" fill="#8349FF"/>
</g>
<g filter="url(#filter8_ii_4825_3708)">
<rect x="36.1313" y="96.5005" width="4" height="20" rx="2" transform="rotate(-90 36.1313 96.5005)" fill="#8349FF"/>
</g>
<g filter="url(#filter9_ii_4825_3708)">
<path d="M100.585 54.3447C102.387 52.5512 105.309 52.5513 107.111 54.3447C108.913 56.1383 108.913 59.0463 107.111 60.8399L72.1062 95.6787C71.2571 96.5238 70.159 96.9693 69.0469 97.0178C68.8628 97.0258 68.6902 97.1037 68.5261 97.1875L62.1248 100.453C61.2587 100.895 60.332 99.9734 60.7752 99.1113L64.0554 92.7383C64.1427 92.5689 64.225 92.3908 64.2345 92.2005C64.2895 91.1031 64.7377 90.0218 65.5799 89.1836L100.585 54.3447Z" fill="#8349FF"/>
</g>
</g>
<defs>
<filter id="filter0_dii_4825_3708" x="18.5" y="21.245" width="82.3354" height="103.669" filterUnits="userSpaceOnUse" color-interpolation-filters="sRGB">
<feFlood flood-opacity="0" result="BackgroundImageFix"/>
<feColorMatrix in="SourceAlpha" type="matrix" values="0 0 0 0 0 0 0 0 0 0 0 0 0 0 0 0 0 0 127 0" result="hardAlpha"/>
<feOffset dy="4"/>
<feGaussianBlur stdDeviation="3"/>
<feComposite in2="hardAlpha" operator="out"/>
<feColorMatrix type="matrix" values="0 0 0 0 0.714332 0 0 0 0 0.64922 0 0 0 0 0.764123 0 0 0 0.25 0"/>
<feBlend mode="normal" in2="BackgroundImageFix" result="effect1_dropShadow_4825_3708"/>
<feBlend mode="normal" in="SourceGraphic" in2="effect1_dropShadow_4825_3708" result="shape"/>
<feColorMatrix in="SourceAlpha" type="matrix" values="0 0 0 0 0 0 0 0 0 0 0 0 0 0 0 0 0 0 127 0" result="hardAlpha"/>
<feOffset dx="-3.66862" dy="-3.66862"/>
<feGaussianBlur stdDeviation="1.83431"/>
<feComposite in2="hardAlpha" operator="arithmetic" k2="-1" k3="1"/>
<feColorMatrix type="matrix" values="0 0 0 0 0.421206 0 0 0 0 0.289902 0 0 0 0 0.895921 0 0 0 0.17 0"/>
<feBlend mode="normal" in2="shape" result="effect2_innerShadow_4825_3708"/>
<feColorMatrix in="SourceAlpha" type="matrix" values="0 0 0 0 0 0 0 0 0 0 0 0 0 0 0 0 0 0 127 0" result="hardAlpha"/>
<feOffset dx="1.83431" dy="1.83431"/>
<feGaussianBlur stdDeviation="3.875"/>
<feComposite in2="hardAlpha" operator="arithmetic" k2="-1" k3="1"/>
<feColorMatrix type="matrix" values="0 0 0 0 0.15444 0 0 0 0 0.0263014 0 0 0 0 0.37577 0 0 0 0.4 0"/>
<feBlend mode="normal" in2="effect2_innerShadow_4825_3708" result="effect3_innerShadow_4825_3708"/>
</filter>
<filter id="filter1_i_4825_3708" x="49.0698" y="9.05249" width="22.3841" height="21.4285" filterUnits="userSpaceOnUse" color-interpolation-filters="sRGB">
<feFlood flood-opacity="0" result="BackgroundImageFix"/>
<feBlend mode="normal" in="SourceGraphic" in2="BackgroundImageFix" result="shape"/>
<feColorMatrix in="SourceAlpha" type="matrix" values="0 0 0 0 0 0 0 0 0 0 0 0 0 0 0 0 0 0 127 0" result="hardAlpha"/>
<feOffset dx="1.83431" dy="1.83431"/>
<feGaussianBlur stdDeviation="1.37573"/>
<feComposite in2="hardAlpha" operator="arithmetic" k2="-1" k3="1"/>
<feColorMatrix type="matrix" values="0 0 0 0 0.644444 0 0 0 0 0.957202 0 0 0 0 1 0 0 0 0.65 0"/>
<feBlend mode="normal" in2="shape" result="effect1_innerShadow_4825_3708"/>
</filter>
<filter id="filter2_i_4825_3708" x="52.6909" y="13.397" width="15.0858" height="15.8343" filterUnits="userSpaceOnUse" color-interpolation-filters="sRGB">
<feFlood flood-opacity="0" result="BackgroundImageFix"/>
<feBlend mode="normal" in="SourceGraphic" in2="BackgroundImageFix" result="shape"/>
<feColorMatrix in="SourceAlpha" type="matrix" values="0 0 0 0 0 0 0 0 0 0 0 0 0 0 0 0 0 0 127 0" result="hardAlpha"/>
<feOffset dx="1.83431" dy="1.83431"/>
<feGaussianBlur stdDeviation="1.37573"/>
<feComposite in2="hardAlpha" operator="arithmetic" k2="-1" k3="1"/>
<feColorMatrix type="matrix" values="0 0 0 0 0.644444 0 0 0 0 0.957202 0 0 0 0 1 0 0 0 0.65 0"/>
<feBlend mode="normal" in2="shape" result="effect1_innerShadow_4825_3708"/>
</filter>
<filter id="filter3_ii_4825_3708" x="32.1831" y="20.0005" width="55" height="13" filterUnits="userSpaceOnUse" color-interpolation-filters="sRGB">
<feFlood flood-opacity="0" result="BackgroundImageFix"/>
<feBlend mode="normal" in="SourceGraphic" in2="BackgroundImageFix" result="shape"/>
<feColorMatrix in="SourceAlpha" type="matrix" values="0 0 0 0 0 0 0 0 0 0 0 0 0 0 0 0 0 0 127 0" result="hardAlpha"/>
<feOffset dx="-2" dy="-2"/>
<feGaussianBlur stdDeviation="2"/>
<feComposite in2="hardAlpha" operator="arithmetic" k2="-1" k3="1"/>
<feColorMatrix type="matrix" values="0 0 0 0 0.333333 0 0 0 0 0.145098 0 0 0 0 0.576471 0 0 0 0.62 0"/>
<feBlend mode="normal" in2="shape" result="effect1_innerShadow_4825_3708"/>
<feColorMatrix in="SourceAlpha" type="matrix" values="0 0 0 0 0 0 0 0 0 0 0 0 0 0 0 0 0 0 127 0" result="hardAlpha"/>
<feOffset dx="2" dy="2"/>
<feGaussianBlur stdDeviation="2"/>
<feComposite in2="hardAlpha" operator="arithmetic" k2="-1" k3="1"/>
<feColorMatrix type="matrix" values="0 0 0 0 0.823529 0 0 0 0 0.643137 0 0 0 0 1 0 0 0 0.45 0"/>
<feBlend mode="normal" in2="effect1_innerShadow_4825_3708" result="effect2_innerShadow_4825_3708"/>
</filter>
<filter id="filter4_ii_4825_3708" x="34.6564" y="42.8532" width="50.5291" height="5.72097" filterUnits="userSpaceOnUse" color-interpolation-filters="sRGB">
<feFlood flood-opacity="0" result="BackgroundImageFix"/>
<feBlend mode="normal" in="SourceGraphic" in2="BackgroundImageFix" result="shape"/>
<feColorMatrix in="SourceAlpha" type="matrix" values="0 0 0 0 0 0 0 0 0 0 0 0 0 0 0 0 0 0 127 0" result="hardAlpha"/>
<feOffset dx="-1.14731" dy="-1.14731"/>
<feGaussianBlur stdDeviation="0.573656"/>
<feComposite in2="hardAlpha" operator="arithmetic" k2="-1" k3="1"/>
<feColorMatrix type="matrix" values="0 0 0 0 0.333333 0 0 0 0 0.145098 0 0 0 0 0.576471 0 0 0 0.17 0"/>
<feBlend mode="normal" in2="shape" result="effect1_innerShadow_4825_3708"/>
<feColorMatrix in="SourceAlpha" type="matrix" values="0 0 0 0 0 0 0 0 0 0 0 0 0 0 0 0 0 0 127 0" result="hardAlpha"/>
<feOffset dx="0.573656" dy="0.573656"/>
<feGaussianBlur stdDeviation="0.430242"/>
<feComposite in2="hardAlpha" operator="arithmetic" k2="-1" k3="1"/>
<feColorMatrix type="matrix" values="0 0 0 0 0.979145 0 0 0 0 0.99749 0 0 0 0 1 0 0 0 0.25 0"/>
<feBlend mode="normal" in2="effect1_innerShadow_4825_3708" result="effect2_innerShadow_4825_3708"/>
</filter>
<filter id="filter5_ii_4825_3708" x="34.6564" y="51.8532" width="50.5291" height="5.72097" filterUnits="userSpaceOnUse" color-interpolation-filters="sRGB">
<feFlood flood-opacity="0" result="BackgroundImageFix"/>
<feBlend mode="normal" in="SourceGraphic" in2="BackgroundImageFix" result="shape"/>
<feColorMatrix in="SourceAlpha" type="matrix" values="0 0 0 0 0 0 0 0 0 0 0 0 0 0 0 0 0 0 127 0" result="hardAlpha"/>
<feOffset dx="-1.14731" dy="-1.14731"/>
<feGaussianBlur stdDeviation="0.573656"/>
<feComposite in2="hardAlpha" operator="arithmetic" k2="-1" k3="1"/>
<feColorMatrix type="matrix" values="0 0 0 0 0.333333 0 0 0 0 0.145098 0 0 0 0 0.576471 0 0 0 0.17 0"/>
<feBlend mode="normal" in2="shape" result="effect1_innerShadow_4825_3708"/>
<feColorMatrix in="SourceAlpha" type="matrix" values="0 0 0 0 0 0 0 0 0 0 0 0 0 0 0 0 0 0 127 0" result="hardAlpha"/>
<feOffset dx="0.573656" dy="0.573656"/>
<feGaussianBlur stdDeviation="0.430242"/>
<feComposite in2="hardAlpha" operator="arithmetic" k2="-1" k3="1"/>
<feColorMatrix type="matrix" values="0 0 0 0 0.979145 0 0 0 0 0.99749 0 0 0 0 1 0 0 0 0.25 0"/>
<feBlend mode="normal" in2="effect1_innerShadow_4825_3708" result="effect2_innerShadow_4825_3708"/>
</filter>
<filter id="filter6_ii_4825_3708" x="34.6564" y="60.8532" width="50.5291" height="5.72097" filterUnits="userSpaceOnUse" color-interpolation-filters="sRGB">
<feFlood flood-opacity="0" result="BackgroundImageFix"/>
<feBlend mode="normal" in="SourceGraphic" in2="BackgroundImageFix" result="shape"/>
<feColorMatrix in="SourceAlpha" type="matrix" values="0 0 0 0 0 0 0 0 0 0 0 0 0 0 0 0 0 0 127 0" result="hardAlpha"/>
<feOffset dx="-1.14731" dy="-1.14731"/>
<feGaussianBlur stdDeviation="0.573656"/>
<feComposite in2="hardAlpha" operator="arithmetic" k2="-1" k3="1"/>
<feColorMatrix type="matrix" values="0 0 0 0 0.333333 0 0 0 0 0.145098 0 0 0 0 0.576471 0 0 0 0.17 0"/>
<feBlend mode="normal" in2="shape" result="effect1_innerShadow_4825_3708"/>
<feColorMatrix in="SourceAlpha" type="matrix" values="0 0 0 0 0 0 0 0 0 0 0 0 0 0 0 0 0 0 127 0" result="hardAlpha"/>
<feOffset dx="0.573656" dy="0.573656"/>
<feGaussianBlur stdDeviation="0.430242"/>
<feComposite in2="hardAlpha" operator="arithmetic" k2="-1" k3="1"/>
<feColorMatrix type="matrix" values="0 0 0 0 0.979145 0 0 0 0 0.99749 0 0 0 0 1 0 0 0 0.25 0"/>
<feBlend mode="normal" in2="effect1_innerShadow_4825_3708" result="effect2_innerShadow_4825_3708"/>
</filter>
<filter id="filter7_ii_4825_3708" x="34.5138" y="71.4391" width="35.8865" height="5.72097" filterUnits="userSpaceOnUse" color-interpolation-filters="sRGB">
<feFlood flood-opacity="0" result="BackgroundImageFix"/>
<feBlend mode="normal" in="SourceGraphic" in2="BackgroundImageFix" result="shape"/>
<feColorMatrix in="SourceAlpha" type="matrix" values="0 0 0 0 0 0 0 0 0 0 0 0 0 0 0 0 0 0 127 0" result="hardAlpha"/>
<feOffset dx="-1.14731" dy="-1.14731"/>
<feGaussianBlur stdDeviation="0.573656"/>
<feComposite in2="hardAlpha" operator="arithmetic" k2="-1" k3="1"/>
<feColorMatrix type="matrix" values="0 0 0 0 0.333333 0 0 0 0 0.145098 0 0 0 0 0.576471 0 0 0 0.17 0"/>
<feBlend mode="normal" in2="shape" result="effect1_innerShadow_4825_3708"/>
<feColorMatrix in="SourceAlpha" type="matrix" values="0 0 0 0 0 0 0 0 0 0 0 0 0 0 0 0 0 0 127 0" result="hardAlpha"/>
<feOffset dx="0.573656" dy="0.573656"/>
<feGaussianBlur stdDeviation="0.430242"/>
<feComposite in2="hardAlpha" operator="arithmetic" k2="-1" k3="1"/>
<feColorMatrix type="matrix" values="0 0 0 0 0.979145 0 0 0 0 0.99749 0 0 0 0 1 0 0 0 0.25 0"/>
<feBlend mode="normal" in2="effect1_innerShadow_4825_3708" result="effect2_innerShadow_4825_3708"/>
</filter>
<filter id="filter8_ii_4825_3708" x="34.984" y="91.3532" width="21.721" height="5.72097" filterUnits="userSpaceOnUse" color-interpolation-filters="sRGB">
<feFlood flood-opacity="0" result="BackgroundImageFix"/>
<feBlend mode="normal" in="SourceGraphic" in2="BackgroundImageFix" result="shape"/>
<feColorMatrix in="SourceAlpha" type="matrix" values="0 0 0 0 0 0 0 0 0 0 0 0 0 0 0 0 0 0 127 0" result="hardAlpha"/>
<feOffset dx="-1.14731" dy="-1.14731"/>
<feGaussianBlur stdDeviation="0.573656"/>
<feComposite in2="hardAlpha" operator="arithmetic" k2="-1" k3="1"/>
<feColorMatrix type="matrix" values="0 0 0 0 0.333333 0 0 0 0 0.145098 0 0 0 0 0.576471 0 0 0 0.17 0"/>
<feBlend mode="normal" in2="shape" result="effect1_innerShadow_4825_3708"/>
<feColorMatrix in="SourceAlpha" type="matrix" values="0 0 0 0 0 0 0 0 0 0 0 0 0 0 0 0 0 0 127 0" result="hardAlpha"/>
<feOffset dx="0.573656" dy="0.573656"/>
<feGaussianBlur stdDeviation="0.430242"/>
<feComposite in2="hardAlpha" operator="arithmetic" k2="-1" k3="1"/>
<feColorMatrix type="matrix" values="0 0 0 0 0.979145 0 0 0 0 0.99749 0 0 0 0 1 0 0 0 0.25 0"/>
<feBlend mode="normal" in2="effect1_innerShadow_4825_3708" result="effect2_innerShadow_4825_3708"/>
</filter>
<filter id="filter9_ii_4825_3708" x="58.6606" y="50.9996" width="51.8022" height="51.5679" filterUnits="userSpaceOnUse" color-interpolation-filters="sRGB">
<feFlood flood-opacity="0" result="BackgroundImageFix"/>
<feBlend mode="normal" in="SourceGraphic" in2="BackgroundImageFix" result="shape"/>
<feColorMatrix in="SourceAlpha" type="matrix" values="0 0 0 0 0 0 0 0 0 0 0 0 0 0 0 0 0 0 127 0" result="hardAlpha"/>
<feOffset dx="-2" dy="-2"/>
<feGaussianBlur stdDeviation="2"/>
<feComposite in2="hardAlpha" operator="arithmetic" k2="-1" k3="1"/>
<feColorMatrix type="matrix" values="0 0 0 0 0.333333 0 0 0 0 0.145098 0 0 0 0 0.576471 0 0 0 0.82 0"/>
<feBlend mode="normal" in2="shape" result="effect1_innerShadow_4825_3708"/>
<feColorMatrix in="SourceAlpha" type="matrix" values="0 0 0 0 0 0 0 0 0 0 0 0 0 0 0 0 0 0 127 0" result="hardAlpha"/>
<feOffset dx="2" dy="2"/>
<feGaussianBlur stdDeviation="2"/>
<feComposite in2="hardAlpha" operator="arithmetic" k2="-1" k3="1"/>
<feColorMatrix type="matrix" values="0 0 0 0 0.823529 0 0 0 0 0.643137 0 0 0 0 1 0 0 0 0.65 0"/>
<feBlend mode="normal" in2="effect1_innerShadow_4825_3708" result="effect2_innerShadow_4825_3708"/>
</filter>
<linearGradient id="paint0_linear_4825_3708" x1="108.413" y1="120.597" x2="28.4131" y2="179.097" gradientUnits="userSpaceOnUse">
<stop stop-color="#6A36C3" stop-opacity="0.2"/>
<stop offset="0.533654" stop-color="#8349FF"/>
<stop offset="0.942308" stop-color="#8349FF"/>
</linearGradient>
<linearGradient id="paint1_linear_4825_3708" x1="114.5" y1="150.081" x2="24.5" y2="150.081" gradientUnits="userSpaceOnUse">
<stop stop-color="#6318DA"/>
<stop offset="1" stop-color="#925EFF"/>
</linearGradient>
<linearGradient id="paint2_linear_4825_3708" x1="64.2728" y1="10.4134" x2="67.1267" y2="26.1871" gradientUnits="userSpaceOnUse">
<stop stop-color="#8155E0"/>
<stop offset="1" stop-color="#8C5FEE"/>
</linearGradient>
</defs>
</svg>
