<svg width="14" height="14" viewBox="0 0 14 14" fill="none" xmlns="http://www.w3.org/2000/svg">
<rect width="14" height="14" rx="7" fill="#CFD3DE"/>
<path d="M6.0815 7.99581C6.04412 7.99581 6.01382 7.96551 6.01382 7.92813C6.01382 6.90326 6.54559 6.54553 6.971 6.26514C7.27073 6.07177 7.51244 5.9074 7.51244 5.58834C7.51244 5.25961 7.29007 5.06624 6.95167 5.06624C6.65194 5.06624 6.39089 5.25961 6.39089 5.63669C6.39089 5.67406 6.36059 5.70437 6.32321 5.70437H5.14365C5.07423 5.70437 5.01796 5.64809 5.01796 5.57867C5.01796 4.43779 5.85912 3.71265 7.00001 3.71265C8.15057 3.71265 8.98206 4.41845 8.98206 5.57867C8.98206 6.56487 8.45996 6.86459 8.00554 7.12564C7.66714 7.32868 7.36741 7.50271 7.36741 7.92813C7.36741 7.96551 7.33711 7.99581 7.29973 7.99581H6.0815ZM6.70995 10.2873C6.17818 10.2873 5.78177 9.89084 5.78177 9.35907C5.78177 8.8273 6.17818 8.43089 6.70995 8.43089C7.24172 8.43089 7.63813 8.8273 7.63813 9.35907C7.63813 9.89084 7.24172 10.2873 6.70995 10.2873Z" fill="white"/>
</svg>
