<svg width="21" height="20" viewBox="0 0 21 20" fill="none" xmlns="http://www.w3.org/2000/svg">
<g filter="url(#filter0_iii_2732_16139)">
<path d="M10.4121 6.9412C10.3058 7.35495 9.94392 7.6637 9.51642 7.87745C8.30455 8.2962 7.34768 8.69995 6.55518 9.0912C5.85393 9.43807 5.86143 10.5337 6.56455 10.8756C7.38643 11.2749 8.4183 11.6581 9.56455 12.1131C9.87268 12.2349 10.3083 12.5799 10.4164 13.0043C10.7669 14.3517 11.1975 15.677 11.7058 16.9731C12.0939 17.9649 13.0546 17.9637 13.4452 16.9731C13.9514 15.6862 14.3371 14.2968 14.7714 12.9749C14.8242 12.7744 14.9257 12.5899 15.0667 12.4378C15.2078 12.2858 15.3841 12.1708 15.5802 12.1031C16.5777 11.7454 17.5619 11.3516 18.5308 10.9224C19.3183 10.5756 19.3346 9.44995 18.5571 9.0812C17.583 8.61692 16.588 8.19793 15.5752 7.82557C15.3773 7.75507 15.1987 7.63938 15.0534 7.4877C14.9081 7.33602 14.8002 7.15253 14.7383 6.95182C14.2671 5.50807 13.9683 4.28307 13.4671 3.01182C13.0764 2.02057 12.0521 2.0512 11.6608 3.04182C11.1621 4.30932 10.8139 5.56995 10.4121 6.9412Z" fill="url(#paint0_linear_2732_16139)"/>
</g>
<path d="M10.4121 6.9412C10.3058 7.35495 9.94392 7.6637 9.51642 7.87745C8.30455 8.2962 7.34768 8.69995 6.55518 9.0912C5.85393 9.43807 5.86143 10.5337 6.56455 10.8756C7.38643 11.2749 8.4183 11.6581 9.56455 12.1131C9.87268 12.2349 10.3083 12.5799 10.4164 13.0043C10.7669 14.3517 11.1975 15.677 11.7058 16.9731C12.0939 17.9649 13.0546 17.9637 13.4452 16.9731C13.9514 15.6862 14.3371 14.2968 14.7714 12.9749C14.8242 12.7744 14.9257 12.5899 15.0667 12.4378C15.2078 12.2858 15.3841 12.1708 15.5802 12.1031C16.5777 11.7454 17.5619 11.3516 18.5308 10.9224C19.3183 10.5756 19.3346 9.44995 18.5571 9.0812C17.583 8.61692 16.588 8.19793 15.5752 7.82557C15.3773 7.75507 15.1987 7.63938 15.0534 7.4877C14.9081 7.33602 14.8002 7.15253 14.7383 6.95182C14.2671 5.50807 13.9683 4.28307 13.4671 3.01182C13.0764 2.02057 12.0521 2.0512 11.6608 3.04182C11.1621 4.30932 10.8139 5.56995 10.4121 6.9412Z" fill="url(#paint1_linear_2732_16139)"/>
<g filter="url(#filter1_ii_2732_16139)">
<path d="M5.37911 3.63499C5.34473 3.76811 5.22848 3.86749 5.09098 3.93624C4.70098 4.07124 4.39286 4.20124 4.13786 4.32749C3.91223 4.43874 3.91411 4.79124 4.14098 4.90124C4.40536 5.02999 4.73723 5.15311 5.10598 5.29936C5.20598 5.33874 5.34536 5.44999 5.38098 5.58686C5.48786 6.00749 5.63411 6.45249 5.79536 6.86374C5.92036 7.18311 6.22973 7.18249 6.35536 6.86374C6.51786 6.44999 6.64286 6.00249 6.78223 5.57686C6.79925 5.51226 6.83194 5.45286 6.8774 5.40391C6.92286 5.35496 6.97969 5.31798 7.04286 5.29624C7.36412 5.1816 7.68101 5.05506 7.99286 4.91686C8.04979 4.89142 8.09826 4.85023 8.13255 4.79814C8.16684 4.74606 8.18551 4.68525 8.18637 4.62289C8.18722 4.56054 8.17022 4.49924 8.13737 4.44623C8.10452 4.39323 8.0572 4.35072 8.00098 4.32374C7.73348 4.19749 7.40098 4.05061 7.04098 3.91999C6.97741 3.89709 6.92001 3.85978 6.87327 3.81099C6.82654 3.76219 6.79174 3.70323 6.77161 3.63874C6.61973 3.17374 6.52348 2.77999 6.36223 2.36999C6.23723 2.05124 5.90661 2.06124 5.78098 2.37999C5.62036 2.78811 5.50848 3.19374 5.37911 3.63499Z" fill="url(#paint2_linear_2732_16139)"/>
</g>
<path d="M5.37911 3.63499C5.34473 3.76811 5.22848 3.86749 5.09098 3.93624C4.70098 4.07124 4.39286 4.20124 4.13786 4.32749C3.91223 4.43874 3.91411 4.79124 4.14098 4.90124C4.40536 5.02999 4.73723 5.15311 5.10598 5.29936C5.20598 5.33874 5.34536 5.44999 5.38098 5.58686C5.48786 6.00749 5.63411 6.45249 5.79536 6.86374C5.92036 7.18311 6.22973 7.18249 6.35536 6.86374C6.51786 6.44999 6.64286 6.00249 6.78223 5.57686C6.79925 5.51226 6.83194 5.45286 6.8774 5.40391C6.92286 5.35496 6.97969 5.31798 7.04286 5.29624C7.36412 5.1816 7.68101 5.05506 7.99286 4.91686C8.04979 4.89142 8.09826 4.85023 8.13255 4.79814C8.16684 4.74606 8.18551 4.68525 8.18637 4.62289C8.18722 4.56054 8.17022 4.49924 8.13737 4.44623C8.10452 4.39323 8.0572 4.35072 8.00098 4.32374C7.73348 4.19749 7.40098 4.05061 7.04098 3.91999C6.97741 3.89709 6.92001 3.85978 6.87327 3.81099C6.82654 3.76219 6.79174 3.70323 6.77161 3.63874C6.61973 3.17374 6.52348 2.77999 6.36223 2.36999C6.23723 2.05124 5.90661 2.06124 5.78098 2.37999C5.62036 2.78811 5.50848 3.19374 5.37911 3.63499Z" fill="url(#paint3_linear_2732_16139)"/>
<g filter="url(#filter2_i_2732_16139)">
<path d="M3.79003 12.5412C3.74253 12.7269 3.58003 12.865 3.38815 12.9612C2.8444 13.1487 2.4144 13.33 2.05878 13.5062C1.7444 13.6619 1.74753 14.1531 2.06315 14.3062C2.4319 14.4862 2.89503 14.6581 3.4094 14.8625C3.54815 14.9169 3.74315 15.0719 3.7919 15.2625C3.9419 15.8487 4.14565 16.47 4.37065 17.0437C4.54503 17.4887 4.97628 17.4881 5.15128 17.0437C5.37878 16.4662 5.55128 15.8425 5.74628 15.2487C5.76967 15.1585 5.81509 15.0756 5.87847 15.0073C5.94186 14.939 6.02121 14.8875 6.1094 14.8575C6.55742 14.6974 6.99939 14.5208 7.4344 14.3281C7.51359 14.2925 7.58097 14.235 7.62861 14.1624C7.67626 14.0898 7.70219 14.0051 7.70338 13.9183C7.70456 13.8314 7.68093 13.7461 7.63528 13.6722C7.58963 13.5983 7.52384 13.539 7.44565 13.5012C7.00858 13.2929 6.56205 13.105 6.10753 12.9381C6.0187 12.9064 5.9385 12.8544 5.87329 12.7863C5.80808 12.7182 5.75967 12.6357 5.7319 12.5456C5.52003 11.8975 5.38628 11.3481 5.16128 10.7769C4.98628 10.3331 4.52565 10.3462 4.35065 10.7912C4.1269 11.36 3.97003 11.9256 3.79003 12.5412Z" fill="url(#paint4_radial_2732_16139)"/>
</g>
<defs>
<filter id="filter0_iii_2732_16139" x="5.7832" y="2.1272" width="13.5039" height="15.7456" filterUnits="userSpaceOnUse" color-interpolation-filters="sRGB">
<feFlood flood-opacity="0" result="BackgroundImageFix"/>
<feBlend mode="normal" in="SourceGraphic" in2="BackgroundImageFix" result="shape"/>
<feColorMatrix in="SourceAlpha" type="matrix" values="0 0 0 0 0 0 0 0 0 0 0 0 0 0 0 0 0 0 127 0" result="hardAlpha"/>
<feOffset dx="0.15625" dy="-0.15625"/>
<feGaussianBlur stdDeviation="0.15625"/>
<feComposite in2="hardAlpha" operator="arithmetic" k2="-1" k3="1"/>
<feColorMatrix type="matrix" values="0 0 0 0 0.34902 0 0 0 0 0.00392157 0 0 0 0 0.882353 0 0 0 1 0"/>
<feBlend mode="normal" in2="shape" result="effect1_innerShadow_2732_16139"/>
<feColorMatrix in="SourceAlpha" type="matrix" values="0 0 0 0 0 0 0 0 0 0 0 0 0 0 0 0 0 0 127 0" result="hardAlpha"/>
<feOffset dx="0.15625" dy="0.15625"/>
<feGaussianBlur stdDeviation="0.3125"/>
<feComposite in2="hardAlpha" operator="arithmetic" k2="-1" k3="1"/>
<feColorMatrix type="matrix" values="0 0 0 0 0.615686 0 0 0 0 0.552941 0 0 0 0 1 0 0 0 1 0"/>
<feBlend mode="normal" in2="effect1_innerShadow_2732_16139" result="effect2_innerShadow_2732_16139"/>
<feColorMatrix in="SourceAlpha" type="matrix" values="0 0 0 0 0 0 0 0 0 0 0 0 0 0 0 0 0 0 127 0" result="hardAlpha"/>
<feOffset dx="-0.25" dy="0.15625"/>
<feGaussianBlur stdDeviation="0.125"/>
<feComposite in2="hardAlpha" operator="arithmetic" k2="-1" k3="1"/>
<feColorMatrix type="matrix" values="0 0 0 0 0.764706 0 0 0 0 0.72549 0 0 0 0 1 0 0 0 1 0"/>
<feBlend mode="normal" in2="effect2_innerShadow_2732_16139" result="effect3_innerShadow_2732_16139"/>
</filter>
<filter id="filter1_ii_2732_16139" x="3.90723" y="2.13586" width="4.3418" height="5.02966" filterUnits="userSpaceOnUse" color-interpolation-filters="sRGB">
<feFlood flood-opacity="0" result="BackgroundImageFix"/>
<feBlend mode="normal" in="SourceGraphic" in2="BackgroundImageFix" result="shape"/>
<feColorMatrix in="SourceAlpha" type="matrix" values="0 0 0 0 0 0 0 0 0 0 0 0 0 0 0 0 0 0 127 0" result="hardAlpha"/>
<feOffset dx="0.0625" dy="0.0625"/>
<feGaussianBlur stdDeviation="0.0625"/>
<feComposite in2="hardAlpha" operator="arithmetic" k2="-1" k3="1"/>
<feColorMatrix type="matrix" values="0 0 0 0 0.764706 0 0 0 0 0.72549 0 0 0 0 1 0 0 0 1 0"/>
<feBlend mode="normal" in2="shape" result="effect1_innerShadow_2732_16139"/>
<feColorMatrix in="SourceAlpha" type="matrix" values="0 0 0 0 0 0 0 0 0 0 0 0 0 0 0 0 0 0 127 0" result="hardAlpha"/>
<feOffset dx="-0.0625" dy="0.0625"/>
<feGaussianBlur stdDeviation="0.0625"/>
<feComposite in2="hardAlpha" operator="arithmetic" k2="-1" k3="1"/>
<feColorMatrix type="matrix" values="0 0 0 0 0.764706 0 0 0 0 0.72549 0 0 0 0 1 0 0 0 1 0"/>
<feBlend mode="normal" in2="effect1_innerShadow_2732_16139" result="effect2_innerShadow_2732_16139"/>
</filter>
<filter id="filter2_i_2732_16139" x="1.82471" y="10.3569" width="5.97266" height="7.02026" filterUnits="userSpaceOnUse" color-interpolation-filters="sRGB">
<feFlood flood-opacity="0" result="BackgroundImageFix"/>
<feBlend mode="normal" in="SourceGraphic" in2="BackgroundImageFix" result="shape"/>
<feColorMatrix in="SourceAlpha" type="matrix" values="0 0 0 0 0 0 0 0 0 0 0 0 0 0 0 0 0 0 127 0" result="hardAlpha"/>
<feOffset dx="0.09375" dy="-0.09375"/>
<feGaussianBlur stdDeviation="0.09375"/>
<feComposite in2="hardAlpha" operator="arithmetic" k2="-1" k3="1"/>
<feColorMatrix type="matrix" values="0 0 0 0 0.512291 0 0 0 0 0.286279 0 0 0 0 1 0 0 0 1 0"/>
<feBlend mode="normal" in2="shape" result="effect1_innerShadow_2732_16139"/>
</filter>
<linearGradient id="paint0_linear_2732_16139" x1="16.8546" y1="7.04432" x2="9.93143" y2="14.3318" gradientUnits="userSpaceOnUse">
<stop stop-color="#9D8DFF"/>
<stop offset="1" stop-color="#8349FF"/>
</linearGradient>
<linearGradient id="paint1_linear_2732_16139" x1="9.74518" y1="18.3062" x2="13.5189" y2="10.3462" gradientUnits="userSpaceOnUse">
<stop stop-color="#8349FF"/>
<stop offset="1" stop-color="#8349FF" stop-opacity="0"/>
</linearGradient>
<linearGradient id="paint2_linear_2732_16139" x1="7.45286" y1="3.66811" x2="5.22473" y2="6.01374" gradientUnits="userSpaceOnUse">
<stop stop-color="#9D8DFF"/>
<stop offset="1" stop-color="#8349FF"/>
</linearGradient>
<linearGradient id="paint3_linear_2732_16139" x1="6.07786" y1="7.48749" x2="6.07786" y2="4.90936" gradientUnits="userSpaceOnUse">
<stop stop-color="#8349FF"/>
<stop offset="1" stop-color="#8349FF" stop-opacity="0"/>
</linearGradient>
<radialGradient id="paint4_radial_2732_16139" cx="0" cy="0" r="1" gradientUnits="userSpaceOnUse" gradientTransform="translate(6.78253 11.6044) rotate(127.221) scale(4.42249 4.30667)">
<stop offset="0.365" stop-color="#9D8DFF"/>
<stop offset="1" stop-color="#8349FF"/>
</radialGradient>
</defs>
</svg>
