<svg width="24" height="24" viewBox="0 0 24 24" fill="none" xmlns="http://www.w3.org/2000/svg">
<path fill-rule="evenodd" clip-rule="evenodd" d="M4.14868 11.0402C4.14868 7.23422 7.2341 4.1488 11.0401 4.1488C14.8461 4.1488 17.9316 7.23422 17.9316 11.0402C17.9316 12.6957 17.3479 14.2148 16.375 15.403C16.4685 15.4395 16.5561 15.4956 16.6316 15.5711L19.6316 18.5711C19.9245 18.864 19.9245 19.3389 19.6316 19.6318C19.3388 19.9247 18.8639 19.9247 18.571 19.6318L15.571 16.6318C15.4955 16.5563 15.4394 16.4686 15.4029 16.3752C14.2147 17.348 12.6956 17.9317 11.0401 17.9317C7.2341 17.9317 4.14868 14.8463 4.14868 11.0402ZM11.0401 5.6488C8.06253 5.6488 5.64868 8.06265 5.64868 11.0402C5.64868 14.0178 8.06253 16.4317 11.0401 16.4317C14.0177 16.4317 16.4316 14.0178 16.4316 11.0402C16.4316 8.06265 14.0177 5.6488 11.0401 5.6488Z" fill="#96A0B1"/>
</svg>
