<svg width="24" height="24" viewBox="0 0 24 24" fill="none" xmlns="http://www.w3.org/2000/svg">
<path fill-rule="evenodd" clip-rule="evenodd" d="M4.14867 11.0402C4.14867 7.23421 7.23409 4.14879 11.0401 4.14879C14.8461 4.14879 17.9316 7.23421 17.9316 11.0402C17.9316 12.6957 17.3479 14.2148 16.375 15.403C16.4685 15.4395 16.5561 15.4956 16.6316 15.5711L19.6316 18.5711C19.9245 18.864 19.9245 19.3389 19.6316 19.6318C19.3387 19.9247 18.8639 19.9247 18.571 19.6318L15.571 16.6318C15.4955 16.5562 15.4394 16.4686 15.4028 16.3752C14.2146 17.348 12.6955 17.9317 11.0401 17.9317C7.23409 17.9317 4.14867 14.8463 4.14867 11.0402ZM11.0401 5.64879C8.06252 5.64879 5.64867 8.06264 5.64867 11.0402C5.64867 14.0178 8.06252 16.4317 11.0401 16.4317C14.0177 16.4317 16.4316 14.0178 16.4316 11.0402C16.4316 8.06264 14.0177 5.64879 11.0401 5.64879Z" fill="white"/>
</svg>
