<svg width="37" height="36" viewBox="0 0 37 36" fill="none" xmlns="http://www.w3.org/2000/svg">
<path opacity="0.8" d="M21.4688 5.04065C23.4097 5.04284 25.271 5.81526 26.6436 7.18811C27.9302 8.47514 28.6896 10.1914 28.7812 12.0006L28.79 12.3639C28.7896 16.546 25.6726 20.4129 22.3428 23.3297C19.8654 25.4997 17.3469 27.0777 16.1318 27.7897L15.4014 28.2028L15.3984 28.2047C15.325 28.2442 15.2425 28.2642 15.1592 28.2643C15.0966 28.2643 15.0346 28.2526 14.9766 28.2301L14.9199 28.2047L14.917 28.2028L14.1865 27.7897C12.9717 27.0778 10.4523 25.5001 7.97461 23.3297C4.64482 20.4129 1.52774 16.546 1.52734 12.3639C1.52939 10.5437 2.20804 8.79361 3.42383 7.45081L3.67383 7.18811C5.04615 5.81547 6.90698 5.04306 8.84766 5.04065C11.2303 5.04065 13.3805 6.64339 14.7549 8.47424L15.1592 9.01135L15.5625 8.47424C16.9367 6.64363 19.0865 5.04107 21.4688 5.04065Z" fill="url(#paint0_linear_4803_20238)" stroke="url(#paint1_linear_4803_20238)" stroke-width="1.00974"/>
<path d="M30.4941 13.6234C28.5393 13.6234 26.8278 14.9285 25.761 16.3497C24.6941 14.9285 22.9826 13.6234 21.0278 13.6234C19.4718 13.6252 17.9799 14.2442 16.8797 15.3448C15.7794 16.4453 15.1604 17.9375 15.1587 19.4939C15.1587 26.1219 24.9838 31.4868 25.4022 31.7083C25.5125 31.7677 25.6357 31.7987 25.761 31.7987C25.8862 31.7987 26.0094 31.7677 26.1197 31.7083C26.5381 31.4868 36.3632 26.1219 36.3632 19.4939C36.3615 17.9375 35.7426 16.4453 34.6423 15.3448C33.542 14.2442 32.0502 13.6252 30.4941 13.6234Z" fill="url(#paint2_linear_4803_20238)" fill-opacity="0.72"/>
<path d="M30.4937 14.0521C31.846 14.0537 33.1463 14.5576 34.144 15.4613L34.3394 15.6478C35.2957 16.6044 35.8592 17.8802 35.9272 19.225L35.9351 19.4945C35.9348 22.6078 33.6116 25.4947 31.1157 27.681C29.2605 29.3061 27.3745 30.4881 26.4653 31.0209L25.9194 31.3295L25.9165 31.3304C25.8687 31.3562 25.8155 31.3704 25.7612 31.3705C25.7342 31.3705 25.7072 31.3663 25.6812 31.3597L25.605 31.3304L25.603 31.3295L25.0562 31.0209C24.1468 30.488 22.2608 29.306 20.4058 27.681C17.9099 25.4947 15.5877 22.6077 15.5874 19.4945C15.5889 18.1417 16.093 16.8411 16.9966 15.8431L17.1831 15.6478C18.1393 14.6915 19.4142 14.1271 20.7583 14.059L21.0278 14.0521C22.7927 14.0521 24.3925 15.24 25.4185 16.6068L25.7612 17.0638L26.104 16.6068C27.0659 15.3255 28.5318 14.2012 30.1655 14.0658L30.4937 14.0521Z" stroke="url(#paint3_linear_4803_20238)" stroke-opacity="0.48" stroke-width="0.857143"/>
<defs>
<linearGradient id="paint0_linear_4803_20238" x1="1.38493" y1="5.10623" x2="24.2315" y2="32.306" gradientUnits="userSpaceOnUse">
<stop stop-color="#6821FF" stop-opacity="0.9"/>
<stop offset="0.302885" stop-color="#6821FF" stop-opacity="0.7"/>
<stop offset="1" stop-color="#6821FF" stop-opacity="0.9"/>
</linearGradient>
<linearGradient id="paint1_linear_4803_20238" x1="4.23527" y1="4.53577" x2="22.6518" y2="31.5467" gradientUnits="userSpaceOnUse">
<stop stop-color="#8349FF" stop-opacity="0.77"/>
<stop offset="0.5" stop-color="#8349FF" stop-opacity="0.4"/>
<stop offset="1" stop-color="white" stop-opacity="0.77"/>
</linearGradient>
<linearGradient id="paint2_linear_4803_20238" x1="15.9743" y1="13.6234" x2="28.2643" y2="34.4475" gradientUnits="userSpaceOnUse">
<stop stop-color="white" stop-opacity="0.9"/>
<stop offset="1" stop-color="#B491FF" stop-opacity="0.9"/>
</linearGradient>
<linearGradient id="paint3_linear_4803_20238" x1="15.7024" y1="13.6234" x2="28.7687" y2="34.2534" gradientUnits="userSpaceOnUse">
<stop stop-color="#8349FF" stop-opacity="0.3"/>
<stop offset="0.5" stop-color="#E4E0ED" stop-opacity="0.73"/>
<stop offset="1" stop-color="#8349FF" stop-opacity="0.08"/>
</linearGradient>
</defs>
</svg>
