<svg width="36" height="36" viewBox="0 0 36 36" fill="none" xmlns="http://www.w3.org/2000/svg">
<path opacity="0.8" d="M20.6355 5.04065C22.4551 5.0427 24.2051 5.72112 25.5476 6.93713L25.8103 7.18811C27.0969 8.47514 27.8563 10.1914 27.948 12.0006L27.9568 12.3639C27.9564 16.546 24.8393 20.4129 21.5095 23.3297C19.0322 25.4997 16.5136 27.0777 15.2986 27.7897L14.5681 28.2028L14.5652 28.2047C14.4918 28.2442 14.4092 28.2642 14.3259 28.2643C14.2633 28.2643 14.2013 28.2526 14.1433 28.2301L14.0866 28.2047L14.0837 28.2028L13.3532 27.7897C12.1384 27.0778 9.61906 25.5001 7.14133 23.3297C3.81154 20.4129 0.694458 16.546 0.694061 12.3639C0.696249 10.4225 1.46818 8.56094 2.84055 7.18811C4.21287 5.81547 6.07369 5.04306 8.01437 5.04065C10.397 5.04065 12.5473 6.64339 13.9216 8.47424L14.3259 9.01135L14.7292 8.47424C16.1034 6.64363 18.2532 5.04107 20.6355 5.04065Z" fill="url(#paint0_linear_4803_20220)" fill-opacity="0.9" stroke="url(#paint1_linear_4803_20220)" stroke-width="1.00974"/>
<path d="M29.6609 13.6234C27.7061 13.6234 25.9946 14.9284 24.9278 16.3496C23.8609 14.9284 22.1494 13.6234 20.1946 13.6234C18.6386 13.6251 17.1468 14.2442 16.0465 15.3447C14.9462 16.4453 14.3273 17.9374 14.3255 19.4938C14.3255 26.1218 24.1506 31.4867 24.569 31.7083C24.6793 31.7676 24.8025 31.7987 24.9278 31.7987C25.053 31.7987 25.1763 31.7676 25.2865 31.7083C25.7049 31.4867 35.53 26.1218 35.53 19.4938C35.5283 17.9374 34.9094 16.4453 33.8091 15.3447C32.7088 14.2442 31.217 13.6251 29.6609 13.6234Z" fill="url(#paint2_linear_4803_20220)" fill-opacity="0.72"/>
<path d="M29.6605 14.0521C31.0128 14.0536 32.3132 14.5575 33.3109 15.4612L33.5062 15.6478C34.4625 16.6044 35.026 17.8802 35.0941 19.2249L35.1019 19.4944C35.1016 22.6077 32.7784 25.4947 30.2825 27.681C28.4273 29.306 26.5413 30.4881 25.6321 31.0208L25.0862 31.3294L25.0833 31.3304C25.0355 31.3561 24.9823 31.3704 24.928 31.3704C24.901 31.3704 24.874 31.3662 24.848 31.3597L24.7718 31.3304L24.7698 31.3294L24.223 31.0208C23.3136 30.488 21.4276 29.3059 19.5726 27.681C17.0767 25.4947 14.7545 22.6076 14.7542 19.4944C14.7557 18.1417 15.2599 16.841 16.1634 15.8431L16.3499 15.6478C17.3061 14.6914 18.581 14.1271 19.9251 14.0589L20.1946 14.0521C21.9595 14.0521 23.5593 15.24 24.5853 16.6068L24.928 17.0638L25.2708 16.6068C26.2327 15.3254 27.6987 14.2012 29.3323 14.0657L29.6605 14.0521Z" stroke="url(#paint3_linear_4803_20220)" stroke-opacity="0.48" stroke-width="0.857143"/>
<defs>
<linearGradient id="paint0_linear_4803_20220" x1="0.551649" y1="5.10623" x2="23.3982" y2="32.306" gradientUnits="userSpaceOnUse">
<stop stop-color="#0410FF" stop-opacity="0.6"/>
<stop offset="0.302885" stop-color="#0410FF" stop-opacity="0.65"/>
<stop offset="1" stop-color="#0410FF" stop-opacity="0.6"/>
</linearGradient>
<linearGradient id="paint1_linear_4803_20220" x1="3.40199" y1="4.53577" x2="21.8185" y2="31.5467" gradientUnits="userSpaceOnUse">
<stop stop-color="#B3B7FF" stop-opacity="0.77"/>
<stop offset="0.5" stop-color="#5A62FF" stop-opacity="0.4"/>
<stop offset="1" stop-color="white" stop-opacity="0.77"/>
</linearGradient>
<linearGradient id="paint2_linear_4803_20220" x1="15.1411" y1="13.6234" x2="27.4311" y2="34.4475" gradientUnits="userSpaceOnUse">
<stop stop-color="white" stop-opacity="0.9"/>
<stop offset="1" stop-color="#C6C9F8" stop-opacity="0.9"/>
</linearGradient>
<linearGradient id="paint3_linear_4803_20220" x1="14.8692" y1="13.6234" x2="27.9356" y2="34.2534" gradientUnits="userSpaceOnUse">
<stop stop-color="#444DFF" stop-opacity="0.3"/>
<stop offset="0.5" stop-color="#E4E0ED" stop-opacity="0.73"/>
<stop offset="1" stop-color="#444DFF" stop-opacity="0.08"/>
</linearGradient>
</defs>
</svg>
